<svg id="Layer_1" data-name="Layer 1" xmlns="http://www.w3.org/2000/svg" width="50" height="50" viewBox="0 0 50 50">
  <path d="M44.4,19.1a1.92,1.92,0,0,0-1.4-.6H27v-5a2.05,2.05,0,0,0-2-2H24v.25l-.45.35A2,2,0,0,0,23,13.55V18.5H7a2,2,0,0,0-1.45.6A2,2,0,0,0,5,20.55v16A2,2,0,0,0,5.55,38,2,2,0,0,0,7,38.5H43A2,2,0,0,0,44.4,38,2,2,0,0,0,45,36.5v-16A1.92,1.92,0,0,0,44.4,19.1ZM20,30.45H16v4H12v-4H8v-4h4V22.5h4v3.95H20ZM34.4,29.9a1.92,1.92,0,0,1-1.4.6,2,2,0,0,1-1.45-.6A1.88,1.88,0,0,1,31,28.5a2,2,0,0,1,.55-1.4A2,2,0,0,1,33,26.5a2.05,2.05,0,0,1,2,2A1.82,1.82,0,0,1,34.4,29.9Zm7,0a1.92,1.92,0,0,1-1.4.6,2,2,0,0,1-1.45-.6A1.88,1.88,0,0,1,38,28.5a2,2,0,0,1,.55-1.4A2,2,0,0,1,40,26.5a2.05,2.05,0,0,1,2,2A1.82,1.82,0,0,1,41.4,29.9Z" fill="#f15a24"/>
</svg>
