<?xml version="1.0" encoding="UTF-8"?>
<svg xmlns="http://www.w3.org/2000/svg" viewBox="0 0 100 100">
    <defs>
        <style>
            .cls-1 {
            fill: #fff;
            }

            .cls-2 {
            fill: #4d8dfc;
            }

            .cls-3 {
            opacity: .5;
            }

            .cls-4 {
            opacity: .7;
            }
        </style>
    </defs>
    <g id="Layer_25" data-name="Layer 25">
        <g class="cls-3">
            <path class="cls-1"
                  d="M91.23,65.92c-1.77,0-3.2,1.43-3.2,3.2v3.2h-3.2c-1.77,0-3.2,1.43-3.2,3.2,0,1.21.68,2.26,1.68,2.8.45.25.97.4,1.52.4h6.4c1.77,0,3.2-1.43,3.2-3.2v-6.4c0-.55-.15-1.07-.4-1.52-.54-1-1.59-1.68-2.8-1.68ZM75.69,72.32h-7.31c-1.77,0-3.2,1.43-3.2,3.2,0,1.21.68,2.26,1.68,2.8.45.25.97.4,1.52.4h7.31c1.77,0,3.2-1.43,3.2-3.2,0-.55-.15-1.07-.4-1.52-.54-1-1.59-1.68-2.8-1.68ZM59.23,72.32h-3.2v-3.2c0-.55-.15-1.07-.4-1.52-.54-1-1.59-1.68-2.8-1.68-1.77,0-3.2,1.43-3.2,3.2v6.4c0,1.21.68,2.26,1.68,2.8.45.25.97.4,1.52.4h6.4c1.77,0,3.2-1.43,3.2-3.2,0-.55-.15-1.07-.4-1.52-.54-1-1.59-1.68-2.8-1.68ZM51.31,62.78c.45.25.97.4,1.52.4,1.77,0,3.2-1.43,3.2-3.2v-7.31c0-.55-.15-1.07-.4-1.52-.54-1-1.59-1.68-2.8-1.68-1.77,0-3.2,1.43-3.2,3.2v7.31c0,1.21.68,2.26,1.68,2.8ZM59.23,33.92h-6.4c-1.77,0-3.2,1.43-3.2,3.2v6.4c0,1.21.68,2.26,1.68,2.8.45.25.97.4,1.52.4,1.77,0,3.2-1.43,3.2-3.2v-3.2h3.2c1.77,0,3.2-1.43,3.2-3.2,0-.55-.15-1.07-.4-1.52-.54-1-1.59-1.68-2.8-1.68ZM75.69,33.92h-7.31c-1.77,0-3.2,1.43-3.2,3.2,0,1.21.68,2.26,1.68,2.8.45.25.97.4,1.52.4h7.31c1.77,0,3.2-1.43,3.2-3.2,0-.55-.15-1.07-.4-1.52-.54-1-1.59-1.68-2.8-1.68ZM94.03,35.6c-.54-1-1.59-1.68-2.8-1.68h-6.4c-1.77,0-3.2,1.43-3.2,3.2,0,1.21.68,2.26,1.68,2.8.45.25.97.4,1.52.4h3.2v3.2c0,1.21.68,2.26,1.68,2.8.45.25.97.4,1.52.4,1.77,0,3.2-1.43,3.2-3.2v-6.4c0-.55-.15-1.07-.4-1.52ZM91.23,49.46c-1.77,0-3.2,1.43-3.2,3.2v7.31c0,1.21.68,2.26,1.68,2.8.45.25.97.4,1.52.4,1.77,0,3.2-1.43,3.2-3.2v-7.31c0-.55-.15-1.07-.4-1.52-.54-1-1.59-1.68-2.8-1.68Z"/>
            <path class="cls-2"
                  d="M75,51.74c-.9-.58-1.92-.88-2.96-.88-.38,0-.77.04-1.15.12-2.94.63-4.83,3.53-4.2,6.48.3,1.43,1.15,2.65,2.37,3.44,1.22.79,2.68,1.06,4.11.76,1.43-.3,2.65-1.15,3.44-2.37.79-1.22,1.06-2.68.76-4.11-.3-1.43-1.15-2.65-2.37-3.44Z"/>
            <path d="M94.03,67.6c.25.45.4.97.4,1.52v6.4c0,1.77-1.43,3.2-3.2,3.2h-6.4c-.55,0-1.07-.15-1.52-.4.54,1,1.59,1.68,2.8,1.68h6.4c1.77,0,3.2-1.43,3.2-3.2v-6.4c0-1.21-.68-2.26-1.68-2.8ZM78.49,74c.25.45.4.97.4,1.52,0,1.77-1.43,3.2-3.2,3.2h-7.31c-.55,0-1.07-.15-1.52-.4.54,1,1.59,1.68,2.8,1.68h7.31c1.77,0,3.2-1.43,3.2-3.2,0-1.21-.68-2.26-1.68-2.8ZM57.31,72.32v-1.92c0-1.21-.68-2.26-1.68-2.8.25.45.4.97.4,1.52v3.2h1.28ZM62.03,74c.25.45.4.97.4,1.52,0,1.77-1.43,3.2-3.2,3.2h-6.4c-.55,0-1.07-.15-1.52-.4.54,1,1.59,1.68,2.8,1.68h6.4c1.77,0,3.2-1.43,3.2-3.2,0-1.21-.68-2.26-1.68-2.8ZM54.11,64.46c1.77,0,3.2-1.43,3.2-3.2v-7.31c0-1.21-.68-2.26-1.68-2.8.25.45.4.97.4,1.52v7.31c0,1.77-1.43,3.2-3.2,3.2-.55,0-1.07-.15-1.52-.4.54,1,1.59,1.68,2.8,1.68ZM54.11,48c1.77,0,3.2-1.43,3.2-3.2v-3.2h3.2c1.77,0,3.2-1.43,3.2-3.2,0-1.21-.68-2.26-1.68-2.8.25.45.4.97.4,1.52,0,1.77-1.43,3.2-3.2,3.2h-3.2v3.2c0,1.77-1.43,3.2-3.2,3.2-.55,0-1.07-.15-1.52-.4.54,1,1.59,1.68,2.8,1.68ZM69.65,41.6h7.31c1.77,0,3.2-1.43,3.2-3.2,0-1.21-.68-2.26-1.68-2.8.25.45.4.97.4,1.52,0,1.77-1.43,3.2-3.2,3.2h-7.31c-.55,0-1.07-.15-1.52-.4.54,1,1.59,1.68,2.8,1.68ZM86.11,41.6h1.92v-1.28h-3.2c-.55,0-1.07-.15-1.52-.4.54,1,1.59,1.68,2.8,1.68ZM94.03,35.6c.25.45.4.97.4,1.52v6.4c0,1.77-1.43,3.2-3.2,3.2-.55,0-1.07-.15-1.52-.4.54,1,1.59,1.68,2.8,1.68,1.77,0,3.2-1.43,3.2-3.2v-6.4c0-1.21-.68-2.26-1.68-2.8ZM94.03,51.14c.25.45.4.97.4,1.52v7.31c0,1.77-1.43,3.2-3.2,3.2-.55,0-1.07-.15-1.52-.4.54,1,1.59,1.68,2.8,1.68,1.77,0,3.2-1.43,3.2-3.2v-7.31c0-1.21-.68-2.26-1.68-2.8ZM76.74,49.05c-1.94-1.26-4.26-1.69-6.52-1.2-4.67,1-7.66,5.61-6.66,10.28.87,4.06,4.47,6.85,8.47,6.85.6,0,1.2-.06,1.81-.19,2.26-.48,4.2-1.82,5.46-3.76,1.26-1.94,1.69-4.26,1.2-6.52s-1.82-4.2-3.76-5.46ZM76.61,59.29c-.79,1.22-2.02,2.07-3.44,2.37-1.43.31-2.89.04-4.11-.76-1.22-.79-2.06-2.02-2.37-3.44-.63-2.94,1.26-5.85,4.2-6.48.38-.08.77-.12,1.15-.12,1.04,0,2.06.3,2.96.88,1.22.79,2.07,2.02,2.37,3.44.3,1.43.03,2.89-.76,4.11Z"/>
        </g>
    </g>
    <g id="icons_50" data-name="icons 50">
        <g class="cls-4">
            <path class="cls-1"
                  d="M83.87,65.16c-2.21,0-4,1.79-4,4v4h-4c-2.21,0-4,1.79-4,4,0,1.52.86,2.82,2.1,3.5.57.31,1.21.5,1.9.5h8c2.21,0,4-1.79,4-4v-8c0-.69-.19-1.33-.5-1.9-.68-1.25-1.98-2.1-3.5-2.1ZM64.44,73.16h-9.14c-2.21,0-4,1.79-4,4,0,1.52.85,2.82,2.1,3.5.57.31,1.21.5,1.9.5h9.14c2.21,0,4-1.79,4-4,0-.69-.19-1.33-.5-1.9-.68-1.25-1.98-2.1-3.5-2.1ZM43.87,73.16h-4v-4c0-.69-.19-1.33-.5-1.9-.68-1.25-1.98-2.1-3.5-2.1-2.21,0-4,1.79-4,4v8c0,1.52.86,2.82,2.1,3.5.57.31,1.21.5,1.9.5h8c2.21,0,4-1.79,4-4,0-.69-.19-1.33-.5-1.9-.68-1.25-1.98-2.1-3.5-2.1ZM33.97,61.23c.57.31,1.21.5,1.9.5,2.21,0,4-1.79,4-4v-9.14c0-.69-.19-1.33-.5-1.9-.68-1.25-1.98-2.1-3.5-2.1-2.21,0-4,1.79-4,4v9.14c0,1.52.86,2.82,2.1,3.5ZM43.87,25.16h-8c-2.21,0-4,1.79-4,4v8c0,1.52.86,2.82,2.1,3.5.57.31,1.21.5,1.9.5,2.21,0,4-1.79,4-4v-4h4c2.21,0,4-1.79,4-4,0-.69-.19-1.33-.5-1.9-.68-1.25-1.98-2.1-3.5-2.1ZM64.44,25.16h-9.14c-2.21,0-4,1.79-4,4,0,1.52.85,2.82,2.1,3.5.57.31,1.21.5,1.9.5h9.14c2.21,0,4-1.79,4-4,0-.69-.19-1.33-.5-1.9-.68-1.25-1.98-2.1-3.5-2.1ZM87.37,27.26c-.68-1.25-1.98-2.1-3.5-2.1h-8c-2.21,0-4,1.79-4,4,0,1.52.86,2.82,2.1,3.5.57.31,1.21.5,1.9.5h4v4c0,1.52.86,2.82,2.1,3.5.57.31,1.21.5,1.9.5,2.21,0,4-1.79,4-4v-8c0-.69-.19-1.33-.5-1.9ZM83.87,44.59c-2.21,0-4,1.79-4,4v9.14c0,1.52.86,2.82,2.1,3.5.57.31,1.21.5,1.9.5,2.21,0,4-1.79,4-4v-9.14c0-.69-.19-1.33-.5-1.9-.68-1.25-1.98-2.1-3.5-2.1Z"/>
            <path class="cls-2"
                  d="M63.58,47.43c-1.12-.73-2.4-1.1-3.7-1.1-.48,0-.96.05-1.44.15-3.68.79-6.04,4.42-5.25,8.1.38,1.78,1.43,3.31,2.96,4.3s3.35,1.33,5.14.95c1.78-.38,3.31-1.43,4.3-2.96.99-1.53,1.33-3.35.95-5.14-.38-1.78-1.43-3.31-2.96-4.3Z"/>
            <path d="M87.37,67.26c.31.57.5,1.21.5,1.9v8c0,2.21-1.79,4-4,4h-8c-.69,0-1.33-.19-1.9-.5.68,1.25,1.98,2.1,3.5,2.1h8c2.21,0,4-1.79,4-4v-8c0-1.52-.86-2.82-2.1-3.5ZM67.94,75.26c.31.57.5,1.21.5,1.9,0,2.21-1.79,4-4,4h-9.14c-.69,0-1.33-.19-1.9-.5.68,1.25,1.98,2.1,3.5,2.1h9.14c2.21,0,4-1.79,4-4,0-1.52-.85-2.82-2.1-3.5ZM41.47,73.16v-2.4c0-1.52-.86-2.82-2.1-3.5.31.57.5,1.21.5,1.9v4h1.6ZM47.37,75.26c.31.57.5,1.21.5,1.9,0,2.21-1.79,4-4,4h-8c-.69,0-1.33-.19-1.9-.5.68,1.25,1.98,2.1,3.5,2.1h8c2.21,0,4-1.79,4-4,0-1.52-.86-2.82-2.1-3.5ZM37.47,63.33c2.21,0,4-1.79,4-4v-9.14c0-1.52-.86-2.82-2.1-3.5.31.57.5,1.21.5,1.9v9.14c0,2.21-1.79,4-4,4-.69,0-1.33-.19-1.9-.5.68,1.25,1.98,2.1,3.5,2.1ZM37.47,42.76c2.21,0,4-1.79,4-4v-4h4c2.21,0,4-1.79,4-4,0-1.52-.86-2.82-2.1-3.5.31.57.5,1.21.5,1.9,0,2.21-1.79,4-4,4h-4v4c0,2.21-1.79,4-4,4-.69,0-1.33-.19-1.9-.5.68,1.25,1.98,2.1,3.5,2.1ZM56.9,34.76h9.14c2.21,0,4-1.79,4-4,0-1.52-.85-2.82-2.1-3.5.31.57.5,1.21.5,1.9,0,2.21-1.79,4-4,4h-9.14c-.69,0-1.33-.19-1.9-.5.68,1.25,1.98,2.1,3.5,2.1ZM77.47,34.76h2.4v-1.6h-4c-.69,0-1.33-.19-1.9-.5.68,1.25,1.98,2.1,3.5,2.1ZM87.37,27.26c.31.57.5,1.21.5,1.9v8c0,2.21-1.79,4-4,4-.69,0-1.33-.19-1.9-.5.68,1.25,1.98,2.1,3.5,2.1,2.21,0,4-1.79,4-4v-8c0-1.52-.86-2.82-2.1-3.5ZM87.37,46.69c.31.57.5,1.21.5,1.9v9.14c0,2.21-1.79,4-4,4-.69,0-1.33-.19-1.9-.5.68,1.25,1.98,2.1,3.5,2.1,2.21,0,4-1.79,4-4v-9.14c0-1.52-.86-2.82-2.1-3.5ZM65.76,44.08c-2.43-1.57-5.32-2.11-8.15-1.5-5.84,1.25-9.57,7.01-8.33,12.85,1.08,5.08,5.59,8.57,10.59,8.57.75,0,1.5-.08,2.26-.24,2.83-.6,5.25-2.27,6.82-4.7,1.57-2.43,2.11-5.32,1.5-8.15-.6-2.83-2.27-5.25-4.7-6.83ZM65.6,56.87c-.99,1.53-2.52,2.58-4.3,2.96-1.78.38-3.61.04-5.14-.95s-2.58-2.52-2.96-4.3c-.79-3.68,1.57-7.31,5.25-8.1.48-.1.96-.15,1.44-.15,1.3,0,2.58.38,3.7,1.1,1.53.99,2.58,2.52,2.96,4.3.38,1.78.04,3.61-.95,5.14Z"/>
        </g>
    </g>
    <g id="Layer_5" data-name="Layer 5">
        <g>
            <path class="cls-1"
                  d="M73.67,63.96c-2.76,0-5,2.24-5,5v5h-5c-2.76,0-5,2.24-5,5,0,1.9,1.07,3.53,2.63,4.38.71.39,1.51.62,2.37.62h10c2.76,0,5-2.24,5-5v-10c0-.86-.24-1.67-.63-2.38-.85-1.56-2.48-2.62-4.37-2.62ZM49.38,73.96h-11.43c-2.76,0-5,2.24-5,5,0,1.9,1.07,3.53,2.62,4.37.71.39,1.51.63,2.38.63h11.43c2.76,0,5-2.24,5-5,0-.86-.24-1.67-.63-2.37-.85-1.56-2.48-2.63-4.37-2.63ZM23.67,73.96h-5v-5c0-.86-.24-1.67-.63-2.38-.85-1.56-2.48-2.62-4.37-2.62-2.76,0-5,2.24-5,5v10c0,1.9,1.07,3.53,2.63,4.38.71.39,1.51.62,2.37.62h10c2.76,0,5-2.24,5-5,0-.86-.24-1.67-.63-2.38-.85-1.56-2.48-2.62-4.37-2.62ZM11.3,59.05c.71.39,1.51.62,2.37.62,2.76,0,5-2.24,5-5v-11.43c0-.86-.24-1.67-.63-2.38-.85-1.56-2.48-2.62-4.37-2.62-2.76,0-5,2.24-5,5v11.43c0,1.9,1.07,3.53,2.63,4.38ZM23.67,13.96h-10c-2.76,0-5,2.24-5,5v10c0,1.9,1.07,3.53,2.63,4.38.71.39,1.51.62,2.37.62,2.76,0,5-2.24,5-5v-5h5c2.76,0,5-2.24,5-5,0-.86-.24-1.67-.63-2.38-.85-1.56-2.48-2.62-4.37-2.62ZM49.38,13.96h-11.43c-2.76,0-5,2.24-5,5,0,1.9,1.07,3.53,2.62,4.37.71.39,1.51.63,2.38.63h11.43c2.76,0,5-2.24,5-5,0-.86-.24-1.67-.63-2.37-.85-1.56-2.48-2.63-4.37-2.63ZM78.04,16.58c-.85-1.56-2.48-2.62-4.37-2.62h-10c-2.76,0-5,2.24-5,5,0,1.9,1.07,3.53,2.63,4.38.71.39,1.51.62,2.37.62h5v5c0,1.9,1.07,3.53,2.63,4.38.71.39,1.51.62,2.37.62,2.76,0,5-2.24,5-5v-10c0-.86-.24-1.67-.63-2.38ZM73.67,38.24c-2.76,0-5,2.24-5,5v11.43c0,1.9,1.07,3.53,2.63,4.38.71.39,1.51.62,2.37.62,2.76,0,5-2.24,5-5v-11.43c0-.86-.24-1.67-.63-2.38-.85-1.56-2.48-2.62-4.37-2.62Z"/>
            <path class="cls-2"
                  d="M48.31,41.8c-1.4-.91-3-1.38-4.62-1.38-.6,0-1.2.06-1.8.19-4.6.98-7.55,5.52-6.56,10.12.48,2.23,1.79,4.14,3.7,5.38s4.19,1.66,6.42,1.18c2.23-.47,4.14-1.79,5.38-3.7,1.24-1.91,1.66-4.19,1.18-6.42-.47-2.23-1.79-4.14-3.7-5.38Z"/>
            <path d="M78.04,66.58c.39.71.63,1.51.63,2.38v10c0,2.76-2.24,5-5,5h-10c-.86,0-1.66-.24-2.37-.62.85,1.56,2.48,2.62,4.37,2.62h10c2.76,0,5-2.24,5-5v-10c0-1.9-1.07-3.53-2.63-4.38ZM53.76,76.58c.39.71.63,1.51.63,2.37,0,2.76-2.24,5-5,5h-11.43c-.86,0-1.67-.24-2.38-.63.85,1.56,2.48,2.63,4.37,2.63h11.43c2.76,0,5-2.24,5-5,0-1.9-1.07-3.53-2.62-4.37ZM20.67,73.96v-3c0-1.9-1.07-3.53-2.63-4.38.39.71.63,1.51.63,2.38v5h2ZM28.04,76.58c.39.71.63,1.51.63,2.38,0,2.76-2.24,5-5,5h-10c-.86,0-1.66-.24-2.37-.62.85,1.56,2.48,2.62,4.37,2.62h10c2.76,0,5-2.24,5-5,0-1.9-1.07-3.53-2.63-4.38ZM15.67,61.67c2.76,0,5-2.24,5-5v-11.43c0-1.9-1.07-3.53-2.63-4.38.39.71.63,1.51.63,2.38v11.43c0,2.76-2.24,5-5,5-.86,0-1.66-.24-2.37-.62.85,1.56,2.48,2.62,4.37,2.62ZM15.67,35.96c2.76,0,5-2.24,5-5v-5h5c2.76,0,5-2.24,5-5,0-1.9-1.07-3.53-2.63-4.38.39.71.63,1.51.63,2.38,0,2.76-2.24,5-5,5h-5v5c0,2.76-2.24,5-5,5-.86,0-1.66-.24-2.37-.62.85,1.56,2.48,2.62,4.37,2.62ZM39.96,25.96h11.43c2.76,0,5-2.24,5-5,0-1.9-1.07-3.53-2.62-4.37.39.71.63,1.51.63,2.37,0,2.76-2.24,5-5,5h-11.43c-.86,0-1.67-.24-2.38-.63.85,1.56,2.48,2.63,4.37,2.63ZM65.67,25.96h3v-2h-5c-.86,0-1.66-.24-2.37-.62.85,1.56,2.48,2.62,4.37,2.62ZM78.04,16.58c.39.71.63,1.51.63,2.38v10c0,2.76-2.24,5-5,5-.86,0-1.66-.24-2.37-.62.85,1.56,2.48,2.62,4.37,2.62,2.76,0,5-2.24,5-5v-10c0-1.9-1.07-3.53-2.63-4.38ZM78.04,40.87c.39.71.63,1.51.63,2.38v11.43c0,2.76-2.24,5-5,5-.86,0-1.66-.24-2.37-.62.85,1.56,2.48,2.62,4.37,2.62,2.76,0,5-2.24,5-5v-11.43c0-1.9-1.07-3.53-2.63-4.38ZM51.03,37.6c-3.03-1.97-6.65-2.63-10.19-1.88-7.3,1.56-11.97,8.76-10.41,16.06,1.36,6.35,6.98,10.71,13.23,10.71.93,0,1.88-.1,2.83-.3,3.54-.75,6.56-2.84,8.53-5.87,1.97-3.03,2.63-6.65,1.88-10.19s-2.84-6.56-5.87-8.53ZM50.83,53.6c-1.24,1.91-3.15,3.23-5.38,3.7-2.23.48-4.51.06-6.42-1.18s-3.23-3.15-3.7-5.38c-.98-4.6,1.96-9.14,6.56-10.12.6-.13,1.2-.19,1.8-.19,1.63,0,3.22.47,4.62,1.38,1.91,1.24,3.23,3.15,3.7,5.38.48,2.23.05,4.51-1.18,6.42Z"/>
        </g>
    </g>
</svg>