<svg id="icons" xmlns="http://www.w3.org/2000/svg" viewBox="0 0 100 100"><defs><style>.cls-1{fill:#fff;}</style></defs><path d="M83.79,91.16c-13.9,0-16.13-18.3-18.28-36-2-16-4-32.44-14-32.44-10.64,0-13.17,17.65-15.6,34.73-2.48,17.33-4.82,33.7-16.36,33.7a2.5,2.5,0,0,1,0-5c7.21,0,9.34-15,11.41-29.41,2.61-18.29,5.57-39,20.55-39,14.49,0,16.77,18.73,19,36.84,1.89,15.53,3.85,31.59,13.32,31.59a2.5,2.5,0,0,1,0,5Z"/><path class="cls-1" d="M81.79,88.16c-13.9,0-16.13-18.3-18.28-36-1.95-16-4-32.44-14-32.44-10.64,0-13.17,17.65-15.6,34.73-2.48,17.33-4.82,33.7-16.36,33.7a2.5,2.5,0,0,1,0-5c7.21,0,9.34-15,11.41-29.41,2.61-18.29,5.57-39,20.55-39,14.49,0,16.77,18.73,19,36.84,1.89,15.53,3.85,31.59,13.32,31.59a2.5,2.5,0,0,1,0,5Z"/></svg>