<svg xmlns="http://www.w3.org/2000/svg" viewBox="0 0 100 100"><defs><style>.cls-1{fill:#ffa627;}.cls-2{fill:#fffffc;}</style></defs><g id="icons"><path class="cls-1" d="M58.33,58.11l-1.68-2.83-1.81-3h0l-1.2,2-1.29,2.17h0L51.07,58.6l-1.23,2.06-3.33,5.63L45,68.79l-1.49,2.5-4.95,8.34h32.5l-11.2-18.9Z"/><path d="M65.44,60.26A22.69,22.69,0,1,0,38.58,33h-22V71.29H37.73L29.81,84.63H79.87L65.42,60.27ZM38.59,79.63l4.95-8.34L45,68.79l1.48-2.5,3.33-5.63,1.23-2.06,1.27-2.15h0l1.29-2.17,1.2-2h0l1.81,3,1.68,2.83,1.56,2.62,11.2,18.9ZM21.59,38H49.84V50.86l-.45.77L48.1,53.81,46.8,56l-6.1,10.3H21.59Zm33.25,4.4V33H43.75A17.68,17.68,0,0,1,57,20.77a17.2,17.2,0,0,1,3.71-.4A17.77,17.77,0,0,1,78,34.38a17.7,17.7,0,0,1-13.61,21c-.57.12-1.14.2-1.72.27Z"/><polygon class="cls-2" points="46.8 55.99 48.1 53.81 49.39 51.63 49.84 50.87 49.84 38.04 21.59 38.04 21.59 66.29 40.7 66.29 46.8 55.99"/><path class="cls-1" d="M78,34.38a17.77,17.77,0,0,0-17.28-14,17.2,17.2,0,0,0-3.71.4A17.68,17.68,0,0,0,43.75,33H54.84v9.4l7.84,13.21c.58-.07,1.15-.15,1.72-.27A17.7,17.7,0,0,0,78,34.38Z"/></g></svg>