<svg xmlns="http://www.w3.org/2000/svg" viewBox="0 0 100 100">
    <defs>
        <style>.cls-1{fill:#fff;}.cls-2{fill:#4d8dfc;}</style>
    </defs>
    <g id="icons">
        <path d="M59.54,85.13a2.81,2.81,0,0,0,2,4.8H86.67a2.6,2.6,0,0,0,.56-.06.83.83,0,0,0,.21-.06l.31-.1a1.19,1.19,0,0,0,.25-.13l.23-.12a2.66,2.66,0,0,0,.76-.77,1,1,0,0,0,.12-.23,1,1,0,0,0,.13-.25,1.6,1.6,0,0,0,.1-.31l.06-.21a2.6,2.6,0,0,0,.06-.56V61.94a2.8,2.8,0,0,0-5.6,0v18.4L70,66.47a2.83,2.83,0,0,0-4,4h0L79.92,84.3H61.52A2.77,2.77,0,0,0,59.54,85.13Z"/>
        <path d="M84.7,45.42a2.8,2.8,0,0,0,4.78-2V18.28a2.74,2.74,0,0,0-.06-.56l-.06-.21a1.86,1.86,0,0,0-.1-.31,1.49,1.49,0,0,0-.13-.25c0-.09-.09-.17-.14-.26a3,3,0,0,0-.78-.78L88,15.82l-.25-.13-.3-.1-.22-.06a2.6,2.6,0,0,0-.56-.06H61.52a2.8,2.8,0,1,0,0,5.6h18.4L66,35a2.83,2.83,0,0,0,4,4L83.88,25v18.4A2.76,2.76,0,0,0,84.7,45.42Z"/>
        <path d="M44.44,20.25a2.76,2.76,0,0,0,.82-2,2.8,2.8,0,0,0-2.8-2.8H17.31a2.6,2.6,0,0,0-.56.06l-.21.06-.31.1L16,15.8l-.23.12a2.93,2.93,0,0,0-.76.77,1.27,1.27,0,0,0-.12.23,1.49,1.49,0,0,0-.13.25,1.86,1.86,0,0,0-.1.31l-.06.21a2.74,2.74,0,0,0-.06.56V43.44a2.8,2.8,0,1,0,5.6,0V25L34,38.91a2.83,2.83,0,0,0,4-4L24.06,21.08h18.4A2.69,2.69,0,0,0,44.44,20.25Z"/>
        <path d="M40.48,89.09a2.81,2.81,0,0,0,4.8-2h0V62a3.51,3.51,0,0,0-.05-.55.27.27,0,0,0-.07-.22c-.07-.07,0-.21-.09-.31a.75.75,0,0,1-.13-.25,1.71,1.71,0,0,0-.13-.23,2.82,2.82,0,0,0-.77-.77l-.23-.13-.25-.13-.31-.1L43,59.2a2.57,2.57,0,0,0-.55-.06H17.3a2.81,2.81,0,0,0,0,5.61H35.7L21.83,78.62a2.83,2.83,0,0,0,4,4h0L39.66,68.69v18.4A2.82,2.82,0,0,0,40.48,89.09Z"/>
        <path class="cls-1"
              d="M57.54,82.13a2.81,2.81,0,0,0,2,4.8H84.67a2.6,2.6,0,0,0,.56-.06.83.83,0,0,0,.21-.06l.31-.1a1.19,1.19,0,0,0,.25-.13l.23-.12a2.66,2.66,0,0,0,.76-.77,1,1,0,0,0,.12-.23,1,1,0,0,0,.13-.25,1.6,1.6,0,0,0,.1-.31l.06-.21a2.6,2.6,0,0,0,.06-.56V58.94a2.8,2.8,0,0,0-5.6,0v18.4L68,63.47a2.83,2.83,0,1,0-4,4h0L77.92,81.3H59.52A2.77,2.77,0,0,0,57.54,82.13Z"/>
        <path class="cls-1"
              d="M82.7,42.42a2.8,2.8,0,0,0,4.78-2V15.28a2.74,2.74,0,0,0-.06-.56l-.06-.21a1.86,1.86,0,0,0-.1-.31,1.49,1.49,0,0,0-.13-.25c0-.09-.09-.17-.14-.26a3,3,0,0,0-.78-.78L86,12.82l-.25-.13-.3-.1-.22-.06a2.6,2.6,0,0,0-.56-.06H59.52a2.8,2.8,0,0,0,0,5.6h18.4L64,32a2.83,2.83,0,1,0,4,4L81.88,22v18.4A2.76,2.76,0,0,0,82.7,42.42Z"/>
        <path class="cls-1"
              d="M42.44,17.25a2.76,2.76,0,0,0,.82-2,2.8,2.8,0,0,0-2.8-2.8H15.31a2.6,2.6,0,0,0-.56.06l-.21.06-.31.1L14,12.8l-.23.12a2.93,2.93,0,0,0-.76.77,1.27,1.27,0,0,0-.12.23,1.49,1.49,0,0,0-.13.25,1.86,1.86,0,0,0-.1.31l-.06.21a2.74,2.74,0,0,0-.06.56V40.44a2.8,2.8,0,1,0,5.6,0V22L32,35.91a2.83,2.83,0,0,0,4-4h0L22.06,18.08h18.4A2.69,2.69,0,0,0,42.44,17.25Z"/>
        <path class="cls-2"
              d="M38.48,86.09a2.81,2.81,0,0,0,4.8-2h0V59a3.51,3.51,0,0,0-.05-.55.27.27,0,0,0-.07-.22c-.07-.07,0-.21-.09-.31a.75.75,0,0,1-.13-.25,1.71,1.71,0,0,0-.13-.23,2.82,2.82,0,0,0-.77-.77l-.23-.13-.25-.13-.31-.1L41,56.2a2.57,2.57,0,0,0-.55-.06H15.3a2.81,2.81,0,0,0,0,5.61H33.7L19.83,75.62a2.83,2.83,0,0,0,4,4L37.66,65.69v18.4A2.82,2.82,0,0,0,38.48,86.09Z"/>
    </g>
</svg>