<svg xmlns="http://www.w3.org/2000/svg" viewBox="0 0 100 100"><defs><style>.cls-1{opacity:0.25;}.cls-2{fill:#4d8dfc;}.cls-3{opacity:0.5;}</style></defs><g id="Layer_25" data-name="Layer 25"><g class="cls-1"><path class="cls-2" d="M70.13,47.52a5.46,5.46,0,0,0-8.31,5.72,5.34,5.34,0,0,0,.89,2,5.5,5.5,0,0,0,5.59,2.19l.3-.08a5.41,5.41,0,0,0,2.7-1.71,5.9,5.9,0,0,0,.44-.58,5.47,5.47,0,0,0-1.61-7.56ZM88.34,77.93a5.39,5.39,0,0,0-3-.88,5.71,5.71,0,0,0-1.16.12l-.14,0a5.46,5.46,0,0,0-2.75,1.63,6.28,6.28,0,0,0-.55.7,5.68,5.68,0,0,0-.64,1.37A5.52,5.52,0,0,0,80,83.65c0,.16.08.31.13.46a5.44,5.44,0,0,0,6.35,3.74A5.41,5.41,0,0,0,90,85.48,5.47,5.47,0,0,0,88.34,77.93Zm-35.27,3a5.25,5.25,0,0,0-.86-1.68,5.51,5.51,0,0,0-1.38-1.3,5.73,5.73,0,0,0-3-.88,5.54,5.54,0,0,0-1.15.12,5.48,5.48,0,0,0-3.45,2.37,5.42,5.42,0,0,0-.75,4.11,5.46,5.46,0,0,0,9.92,1.83,5.45,5.45,0,0,0,.76-4.11C53.16,81.22,53.12,81.06,53.07,80.91Z"/><path d="M90.09,75.25A8.63,8.63,0,0,0,83.57,74a11.08,11.08,0,0,0-1.16.34L73,58.5a8.66,8.66,0,1,0-12-.33L51.26,74.56A8.52,8.52,0,0,0,46.05,74a8.66,8.66,0,1,0,9.07,13.18,8.4,8.4,0,0,0,1.24-3.11H76.87l0,.21a8.68,8.68,0,0,0,8.46,6.86,8.74,8.74,0,0,0,1.82-.2,8.57,8.57,0,0,0,5.46-3.76A8.66,8.66,0,0,0,90.09,75.25Zm-3.58,12.6a5.44,5.44,0,0,1-6.35-3.74c0-.15-.09-.3-.13-.46a5.52,5.52,0,0,1,.12-2.74,5.68,5.68,0,0,1,.64-1.37,6.28,6.28,0,0,1,.55-.7,5.46,5.46,0,0,1,2.75-1.63l.14,0a5.71,5.71,0,0,1,1.16-.12,5.39,5.39,0,0,1,3,.88A5.47,5.47,0,0,1,90,85.48,5.41,5.41,0,0,1,86.51,87.85ZM62.58,49.13A5.46,5.46,0,0,1,72.5,51a5.38,5.38,0,0,1-.76,4.11,5.9,5.9,0,0,1-.44.58,5.41,5.41,0,0,1-2.7,1.71l-.3.08a5.47,5.47,0,0,1-3-.23,5.25,5.25,0,0,1-2.56-2,5.34,5.34,0,0,1-.89-2A5.47,5.47,0,0,1,62.58,49.13Zm1,10.88a8.57,8.57,0,0,0,3.52.76,8.77,8.77,0,0,0,1.83-.2,8.13,8.13,0,0,0,1.3-.39L79.66,76a8.87,8.87,0,0,0-1.55,1.79,8.45,8.45,0,0,0-1.25,3.11H56.36a8.74,8.74,0,0,0-2.43-4.57ZM53.2,81.37a5.45,5.45,0,0,1-.76,4.11A5.41,5.41,0,0,1,49,87.85a5.46,5.46,0,0,1-6.47-4.2,5.42,5.42,0,0,1,.75-4.11,5.48,5.48,0,0,1,3.45-2.37,5.54,5.54,0,0,1,1.15-.12,5.73,5.73,0,0,1,3,.88,5.51,5.51,0,0,1,1.38,1.3,5.25,5.25,0,0,1,.86,1.68C53.12,81.06,53.16,81.22,53.2,81.37Z"/></g></g><g id="icons_50" data-name="icons 50"><g class="cls-3"><path class="cls-2" d="M64,34.58a6.71,6.71,0,0,0-3.7-1.1A6.82,6.82,0,0,0,56.59,46a6.22,6.22,0,0,0,1.34.67,6.79,6.79,0,0,0,3.79.28l.37-.1a6.77,6.77,0,0,0,3.39-2.14c.19-.23.38-.47.55-.72a6.81,6.81,0,0,0-2-9.44Zm22.77,38a6.75,6.75,0,0,0-3.7-1.1,7,7,0,0,0-1.44.15l-.18,0a6.71,6.71,0,0,0-3.44,2,6.36,6.36,0,0,0-.68.87,6.81,6.81,0,0,0-1,5.14q.06.29.15.57a6.82,6.82,0,1,0,10.24-7.72ZM42.69,76.31a6.93,6.93,0,0,0-2.81-3.72,6.5,6.5,0,0,0-1.53-.73,6.68,6.68,0,0,0-2.17-.37,7,7,0,0,0-1.44.15,6.82,6.82,0,1,0,8.1,5.25A5.47,5.47,0,0,0,42.69,76.31Z"/><path d="M89,69.23a10.71,10.71,0,0,0-8.14-1.5,10.06,10.06,0,0,0-1.45.42L67.59,48.3a11,11,0,0,0,1.79-2.11,10.83,10.83,0,1,0-16.8,1.69L40.43,68.37a10.82,10.82,0,1,0-4.28,20.77,11,11,0,0,0,2.27-.24,10.8,10.8,0,0,0,8.38-8.59H72.43c0,.09,0,.18,0,.26A10.8,10.8,0,0,0,83,89.14a11,11,0,0,0,2.28-.24A10.82,10.82,0,0,0,89,69.23ZM84.49,85a6.82,6.82,0,0,1-7.95-4.68q-.09-.28-.15-.57a6.81,6.81,0,0,1,1-5.14,6.36,6.36,0,0,1,.68-.87,6.71,6.71,0,0,1,3.44-2l.18,0a7,7,0,0,1,1.44-.15,6.75,6.75,0,0,1,3.7,1.1A6.83,6.83,0,0,1,84.49,85ZM54.57,36.59a6.84,6.84,0,0,1,5.74-3.11,6.71,6.71,0,0,1,3.7,1.1A6.81,6.81,0,0,1,66,44c-.17.25-.36.49-.55.72a6.77,6.77,0,0,1-3.39,2.14l-.37.1a6.79,6.79,0,0,1-3.79-.28A6.22,6.22,0,0,1,56.59,46a6.83,6.83,0,0,1-3-4.3A6.79,6.79,0,0,1,54.57,36.59Zm1.3,13.59a10.67,10.67,0,0,0,4.41,1,11,11,0,0,0,2.28-.24,10.85,10.85,0,0,0,1.62-.49L75.92,70.19A10.66,10.66,0,0,0,74,72.42a11,11,0,0,0-1.56,3.89H46.79a10.84,10.84,0,0,0-3-5.72Zm-13,26.71A6.83,6.83,0,0,1,37.59,85a6.83,6.83,0,0,1-2.85-13.35,7,7,0,0,1,1.44-.15,6.68,6.68,0,0,1,2.17.37,6.5,6.5,0,0,1,1.53.73,6.93,6.93,0,0,1,2.81,3.72A5.47,5.47,0,0,1,42.84,76.89Z"/></g></g><g id="icons"><path class="cls-2" d="M56.11,19.39A8.43,8.43,0,0,0,51.49,18a8.53,8.53,0,0,0-7.18,3.89,8.57,8.57,0,0,0,.2,9.58,8.61,8.61,0,0,0,2.32,2.22,8.59,8.59,0,0,0,6.42,1.19l.46-.13a8.43,8.43,0,0,0,4.23-2.67,7.77,7.77,0,0,0,.69-.91,8.52,8.52,0,0,0-2.52-11.8ZM84.57,66.9a8.51,8.51,0,0,0-6.42-1.18l-.23.06a8.47,8.47,0,0,0-4.3,2.55,8.17,8.17,0,0,0-.85,1.09,8.66,8.66,0,0,0-1,2.14,8.5,8.5,0,0,0-.19,4.28c.06.25.12.49.19.72a8.53,8.53,0,0,0,15.32,2.15A8.55,8.55,0,0,0,84.57,66.9ZM29.46,71.56a8.31,8.31,0,0,0-1.35-2.63,8.72,8.72,0,0,0-2.16-2A8.52,8.52,0,0,0,24,66a8.27,8.27,0,0,0-4.51-.28,8.52,8.52,0,1,0,10.12,6.56C29.6,72,29.53,71.8,29.46,71.56Z"/><path d="M87.29,62.71A13.46,13.46,0,0,0,77.1,60.83a13.79,13.79,0,0,0-1.8.53L60.58,36.55a14,14,0,0,0,2.25-2.64,13.53,13.53,0,1,0-21,2.12L26.63,61.63a13.53,13.53,0,1,0-5.35,26,13.8,13.8,0,0,0,2.85-.3A13.5,13.5,0,0,0,34.6,76.56h32c0,.11,0,.22,0,.33A13.55,13.55,0,0,0,79.9,87.6a13.8,13.8,0,0,0,2.85-.3,13.53,13.53,0,0,0,4.54-24.59Zm-5.58,19.7a8.55,8.55,0,0,1-9.94-5.85c-.07-.23-.13-.47-.19-.72a8.5,8.5,0,0,1,.19-4.28,8.66,8.66,0,0,1,1-2.14,8.17,8.17,0,0,1,.85-1.09,8.47,8.47,0,0,1,4.3-2.55l.23-.06a8.53,8.53,0,1,1,3.56,16.69Zm-37.4-60.5A8.53,8.53,0,0,1,51.49,18a8.52,8.52,0,0,1,7.14,13.17,7.77,7.77,0,0,1-.69.91,8.43,8.43,0,0,1-4.23,2.67l-.46.13a8.59,8.59,0,0,1-6.42-1.19,8.61,8.61,0,0,1-2.32-2.22,8.57,8.57,0,0,1-.2-9.58Zm1.62,17a13.45,13.45,0,0,0,5.51,1.19,13,13,0,0,0,4.88-.92L71,63.91a13.84,13.84,0,0,0-2.43,2.79,13.61,13.61,0,0,0-1.95,4.86h-32a13.6,13.6,0,0,0-3.8-7.15ZM29.65,72.28a8.53,8.53,0,1,1-10.12-6.56A8.27,8.27,0,0,1,24,66a8.52,8.52,0,0,1,1.91.9,8.72,8.72,0,0,1,2.16,2,8.31,8.31,0,0,1,1.35,2.63C29.53,71.8,29.6,72,29.65,72.28Z"/></g></svg>