<?xml version="1.0" encoding="UTF-8"?>
<svg id="icons" xmlns="http://www.w3.org/2000/svg" viewBox="0 0 100 100">
  <defs>
    <style>
      .cls-1 {
        fill: #fff;
      }

      .cls-2 {
        fill: #4d8dfc;
      }
    </style>
  </defs>
  <path d="M59.54,85.13c-.53.53-.83,1.25-.82,2,0,1.55,1.25,2.8,2.8,2.8h25.15c.19,0,.38-.02.56-.06.07-.02.14-.04.21-.06l.31-.1c.09-.04.17-.08.25-.13l.23-.12c.3-.21.56-.47.76-.77.05-.07.09-.15.12-.23.05-.08.1-.16.13-.25.04-.1.08-.2.1-.31.02-.07.04-.14.06-.21.04-.18.06-.37.06-.56v-25.19c0-1.55-1.26-2.8-2.8-2.8-1.54,0-2.8,1.25-2.8,2.8v18.4l-13.87-13.87c-1.1-1.1-2.9-1.1-4,0s-1.1,2.9,0,4h0l13.93,13.83h-18.4c-.75,0-1.46.3-1.98.83Z"/>
  <path d="M84.7,45.42c1.09,1.09,2.87,1.09,3.96,0,.53-.53.83-1.25.82-2v-25.14c0-.19-.02-.38-.06-.56-.02-.07-.04-.14-.06-.21-.02-.11-.06-.21-.1-.31-.03-.09-.08-.17-.13-.25-.04-.09-.09-.18-.14-.26-.21-.31-.47-.57-.78-.78l-.22-.09c-.08-.05-.16-.09-.25-.13l-.3-.1-.22-.06c-.18-.04-.37-.06-.56-.06h-25.14c-1.55,0-2.8,1.25-2.8,2.8,0,1.55,1.25,2.8,2.8,2.8h18.4l-13.88,13.88c-1.1,1.1-1.1,2.9,0,4,1.1,1.1,2.9,1.1,4,0l13.84-13.91v18.4c0,.74.29,1.46.82,1.98Z"/>
  <path d="M44.44,20.25c.53-.53.83-1.25.82-2,0-1.55-1.25-2.8-2.8-2.8h-25.15c-.19,0-.38.02-.56.06l-.21.06-.31.1c-.09.04-.17.08-.25.13l-.23.12c-.3.21-.56.47-.76.77-.05.07-.09.15-.12.23-.05.08-.1.16-.13.25-.04.1-.08.2-.1.31-.02.07-.04.14-.06.21-.04.18-.06.37-.06.56v25.19c0,1.55,1.25,2.8,2.8,2.8s2.8-1.25,2.8-2.8v-18.4l13.87,13.87c1.1,1.1,2.9,1.1,4,0,1.1-1.1,1.1-2.9,0-4l-13.93-13.83h18.4c.75,0,1.46-.3,1.98-.83Z"/>
  <path d="M40.48,89.09c.53.53,1.25.82,2,.82,1.55,0,2.8-1.25,2.8-2.8h0v-25.16c0-.18-.02-.37-.05-.55,0-.08,0-.15-.07-.22s0-.21-.09-.31-.09-.17-.13-.25-.08-.16-.13-.23c-.2-.31-.46-.57-.77-.77l-.23-.13-.25-.13-.31-.1c-.07-.03-.15-.05-.22-.06-.18-.04-.37-.06-.55-.06h-25.18c-1.55.09-2.73,1.42-2.64,2.97.08,1.42,1.22,2.55,2.64,2.64h18.4l-13.87,13.87c-1.1,1.1-1.1,2.9,0,4,1.1,1.1,2.9,1.1,4,0h0l13.83-13.93v18.4c0,.75.29,1.47.82,2Z"/>
  <path class="cls-1" d="M57.54,82.13c-.53.53-.83,1.25-.82,2,0,1.55,1.25,2.8,2.8,2.8h25.15c.19,0,.38-.02.56-.06.07-.02.14-.04.21-.06l.31-.1c.09-.04.17-.08.25-.13l.23-.12c.3-.21.56-.47.76-.77.05-.07.09-.15.12-.23.05-.08.1-.16.13-.25.04-.1.08-.2.1-.31.02-.07.04-.14.06-.21.04-.18.06-.37.06-.56v-25.19c0-1.55-1.26-2.8-2.8-2.8-1.54,0-2.8,1.25-2.8,2.8v18.4l-13.87-13.87c-1.1-1.1-2.9-1.1-4,0s-1.1,2.9,0,4h0l13.93,13.83h-18.4c-.75,0-1.46.3-1.98.83Z"/>
  <path class="cls-1" d="M82.7,42.42c1.09,1.09,2.87,1.09,3.96,0,.53-.53.83-1.25.82-2V15.28c0-.19-.02-.38-.06-.56-.02-.07-.04-.14-.06-.21-.02-.11-.06-.21-.1-.31-.03-.09-.08-.17-.13-.25-.04-.09-.09-.18-.14-.26-.21-.31-.47-.57-.78-.78l-.22-.09c-.08-.05-.16-.09-.25-.13l-.3-.1-.22-.06c-.18-.04-.37-.06-.56-.06h-25.14c-1.55,0-2.8,1.25-2.8,2.8s1.25,2.8,2.8,2.8h18.4l-13.88,13.88c-1.1,1.1-1.1,2.9,0,4,1.1,1.1,2.9,1.1,4,0l13.84-13.91v18.4c0,.74.29,1.46.82,1.98Z"/>
  <path class="cls-1" d="M42.44,17.25c.53-.53.83-1.25.82-2,0-1.55-1.25-2.8-2.8-2.8H15.31c-.19,0-.38.02-.56.06l-.21.06-.31.1c-.09.04-.17.08-.25.13l-.23.12c-.3.21-.56.47-.76.77-.05.07-.09.15-.12.23-.05.08-.1.16-.13.25-.04.1-.08.2-.1.31-.02.07-.04.14-.06.21-.04.18-.06.37-.06.56v25.19c0,1.55,1.25,2.8,2.8,2.8s2.8-1.25,2.8-2.8v-18.4l13.87,13.87c1.1,1.1,2.9,1.1,4,0,1.1-1.1,1.1-2.9,0-4h0l-13.93-13.83h18.4c.75,0,1.46-.3,1.98-.83Z"/>
  <path class="cls-2" d="M38.48,86.09c.53.53,1.25.82,2,.82,1.55,0,2.8-1.25,2.8-2.8h0v-25.16c0-.18-.02-.37-.05-.55,0-.08,0-.15-.07-.22s0-.21-.09-.31-.09-.17-.13-.25-.08-.16-.13-.23c-.2-.31-.46-.57-.77-.77l-.23-.13-.25-.13-.31-.1c-.07-.03-.15-.05-.22-.06-.18-.04-.37-.06-.55-.06H15.3c-1.55.09-2.73,1.42-2.64,2.97.08,1.42,1.22,2.55,2.64,2.64h18.4l-13.87,13.87c-1.1,1.1-1.1,2.9,0,4,1.1,1.1,2.9,1.1,4,0l13.83-13.93v18.4c0,.75.29,1.47.82,2Z"/>
</svg>