<svg xmlns="http://www.w3.org/2000/svg" viewBox="0 0 100 100">
    <defs>
        <style>.cls-1{fill:#4d8dfc;}.cls-2{fill:#fff;}</style>
    </defs>
    <g id="icons">
        <path class="cls-1"
              d="M43.22,75.59V69.06H31.44l.1-.17L33,66.45l7.44-12.54-6.76-7.83a4.87,4.87,0,0,0-.83,1L24.69,60.85l-1.37,2.3-1.41,2.39-3.55,6,4.3,7.55H44a8.38,8.38,0,0,1-.76-3.47Zm38-10-1.49-2.51-1.4-2.36L71.6,49.39l-6.89,8,5,8.44,1.39,2.35.54.9H62.29v9.53c0,.16,0,.32,0,.47H80.43l4.3-7.55Z"/>
        <path d="M59.33,15.2a13.55,13.55,0,0,0-16.86,1.72h19A13.52,13.52,0,0,0,59.33,15.2ZM87.79,62.71a13.48,13.48,0,0,0-9.47-2l1.4,2.36,1.49,2.51,3.52,5.93-4.3,7.55H67.87A13.5,13.5,0,0,0,80.4,87.6a13.8,13.8,0,0,0,2.85-.3,13.53,13.53,0,0,0,4.54-24.59ZM71.11,68.16l-1.39-2.35c-.23.29-.45.58-.65.89a13.5,13.5,0,0,0-1.21,2.36h3.79Zm-39.57.73-.1.17h2.92A13.27,13.27,0,0,0,33,66.45ZM18.36,71.51l3.55-6,1.41-2.39,1.37-2.3A13.51,13.51,0,0,0,10.45,66.7,13.54,13.54,0,0,0,21.78,87.6a13.8,13.8,0,0,0,2.85-.3,13.49,13.49,0,0,0,8.53-5.87,14.37,14.37,0,0,0,1.22-2.37H22.66Zm70.2-41.77a5.94,5.94,0,0,0-1-8.68,5.81,5.81,0,0,1-1.16,5.68L69.57,46.25l-6.79,7.86-2.64,3.06V75.59A8.45,8.45,0,0,1,46,81.88a8.45,8.45,0,0,0,16.23-2.82c0-.15,0-.31,0-.47V60.17l2.42-2.8,6.89-8ZM33.92,45.86,18.54,28.05a6,6,0,0,0,1,1.69l14.1,16.34,6.76,7.83,2.79,3.23v-.5l-2.61-3Zm12.3,29.73a5.37,5.37,0,0,0,1.26,3.47,5.43,5.43,0,0,0,8.4,0,5.37,5.37,0,0,0,1.26-3.47,5.46,5.46,0,1,0-10.92,0Z"/>
        <path class="cls-2"
              d="M87.56,21.06a5.88,5.88,0,0,0-5.65-4.14h-60a5.94,5.94,0,0,0-4.5,9.82l1.13,1.31L33.92,45.86l6.69,7.75,2.61,3v19a8.46,8.46,0,0,0,16.92,0V57.17l2.64-3.06,6.79-7.86L86.4,26.74A5.81,5.81,0,0,0,87.56,21.06Zm-31.68,58a5.43,5.43,0,0,1-8.4,0,5.37,5.37,0,0,1-1.26-3.47,5.46,5.46,0,1,1,10.92,0A5.37,5.37,0,0,1,55.88,79.06Z"/>
    </g>
</svg>