<?xml version="1.0" encoding="UTF-8"?>
<svg id="icons" xmlns="http://www.w3.org/2000/svg" viewBox="0 0 100 100">
  <defs>
    <style>
      .cls-1 {
        fill: #4d8dfc;
      }

      .cls-2 {
        fill: #ffa627;
      }
    </style>
  </defs>
  <path class="cls-1" d="M28.11,68.93c-.58-.78-1.3-1.47-2.16-2.03-.6-.39-1.25-.68-1.91-.91-.88-.3-1.79-.47-2.72-.47-.6,0-1.2.06-1.8.19-2.23.48-4.14,1.79-5.38,3.7-1.24,1.91-1.66,4.19-1.19,6.42s1.79,4.14,3.7,5.38c1.91,1.24,4.19,1.66,6.42,1.19,2.23-.48,4.14-1.79,5.38-3.7.44-.68.77-1.4.99-2.14.51-1.65.49-3.39,0-5-.29-.94-.74-1.83-1.34-2.63Z"/>
  <path class="cls-1" d="M84.57,66.9c-1.4-.91-3-1.38-4.62-1.38-.6,0-1.2.06-1.8.19-.08.02-.15.04-.23.06-1.68.41-3.16,1.29-4.3,2.55-.31.34-.6.7-.85,1.09-.44.67-.77,1.39-1,2.14-.42,1.37-.5,2.84-.19,4.28.05.24.12.48.19.72.58,1.92,1.81,3.56,3.51,4.66,1.91,1.24,4.19,1.66,6.42,1.19,2.23-.48,4.14-1.79,5.38-3.7,2.56-3.95,1.43-9.24-2.52-11.8Z"/>
  <path d="M56.83,16.92h4.15c-.65-.64-1.36-1.22-2.15-1.72-5.42-3.51-12.44-2.64-16.86,1.72h14.86Z"/>
  <path d="M43.22,71.56h-8.64c-.5-2.67-1.79-5.18-3.79-7.15l7.62-12.84,4.81,5.57v-.5l-4.63-5.37-3.35-3.88-16.7-19.35c.24.59.57,1.16,1.03,1.69l15.43,17.88c-.1.12-.2.24-.28.38l-8.09,13.63c-2.55-1.1-5.37-1.4-8.15-.8-3.54.75-6.57,2.84-8.53,5.87-1.97,3.03-2.63,6.65-1.88,10.18.75,3.54,2.84,6.56,5.87,8.53,2.22,1.44,4.75,2.18,7.33,2.18.95,0,1.9-.1,2.85-.3,3.54-.75,6.57-2.84,8.53-5.87.99-1.52,1.62-3.18,1.94-4.86h8.69c-.04-.32-.06-.65-.06-.98v-4.02ZM29.46,76.56c-.23.74-.55,1.46-.99,2.14-1.24,1.91-3.15,3.23-5.38,3.7-2.23.48-4.51.05-6.42-1.19-1.91-1.24-3.23-3.15-3.7-5.38s-.05-4.51,1.19-6.42c1.24-1.91,3.15-3.23,5.38-3.7.6-.13,1.2-.19,1.8-.19.93,0,1.84.17,2.72.47.66.23,1.31.52,1.91.91.86.56,1.58,1.25,2.16,2.03.6.8,1.06,1.69,1.34,2.63.49,1.61.51,3.35,0,5Z"/>
  <path d="M87.29,62.71c-3.03-1.97-6.65-2.63-10.19-1.88-.62.13-1.22.32-1.8.53l-5.72-9.64,18.98-21.98c2.43-2.82,1.61-6.77-1-8.68.59,1.84.32,3.97-1.16,5.68l-18.85,21.84-3.35,3.88-4.07,4.71v18.42h0c0,.33-.02.66-.06.98-.48,4.21-4.06,7.48-8.4,7.48-2.17,0-4.14-.82-5.64-2.17,1.28,3.04,4.29,5.17,7.79,5.17,4.67,0,8.46-3.79,8.46-8.46v-2.02h4.35c.02.11.03.22.05.32.75,3.53,2.84,6.56,5.87,8.53,2.22,1.44,4.75,2.18,7.33,2.18.95,0,1.9-.1,2.85-.3,3.54-.75,6.57-2.84,8.53-5.87,4.06-6.26,2.27-14.66-3.99-18.72ZM68.57,66.7c-.98,1.5-1.63,3.15-1.95,4.86h-4.33v-11.39l3.84-4.45,4.86,8.19c-.92.81-1.74,1.74-2.42,2.8ZM87.09,78.71c-1.24,1.91-3.15,3.23-5.38,3.7-2.23.48-4.51.05-6.42-1.19-1.7-1.1-2.93-2.74-3.51-4.66-.07-.24-.14-.48-.19-.72-.31-1.44-.23-2.91.19-4.28.23-.75.56-1.47,1-2.14.25-.39.54-.75.85-1.09,1.14-1.26,2.62-2.14,4.3-2.55.08-.02.15-.04.23-.06.6-.13,1.2-.19,1.8-.19,1.63,0,3.23.47,4.62,1.38,3.95,2.56,5.08,7.85,2.52,11.8Z"/>
  <path d="M57.05,76.56c.06-.32.09-.64.09-.98,0-1.59-.69-3.03-1.78-4.02-.97-.89-2.26-1.43-3.67-1.43s-2.7.55-3.67,1.43c-1.09,1-1.78,2.43-1.78,4.02,0,.33.03.66.09.98.46,2.54,2.69,4.48,5.36,4.48s4.9-1.94,5.37-4.48Z"/>
  <path class="cls-2" d="M60.08,76.56c.04-.32.06-.65.06-.98h0v-18.42l4.07-4.71,3.35-3.88,18.85-21.84c1.48-1.71,1.75-3.84,1.16-5.68-.74-2.3-2.83-4.14-5.65-4.14H21.91c-5.08,0-7.82,5.97-4.5,9.82l1.13,1.31,16.7,19.35,3.35,3.88,4.63,5.37v18.95c0,.33.02.66.06.98.24,2.11,1.26,3.97,2.76,5.32,1.5,1.34,3.47,2.17,5.64,2.17,4.34,0,7.91-3.27,8.4-7.48ZM46.31,76.56c-.06-.32-.09-.64-.09-.98,0-1.59.69-3.03,1.78-4.02.97-.89,2.26-1.43,3.67-1.43s2.7.55,3.67,1.43c1.09,1,1.78,2.43,1.78,4.02,0,.33-.03.66-.09.98-.46,2.54-2.69,4.48-5.37,4.48s-4.9-1.94-5.36-4.48Z"/>
</svg>