<svg id="icons" xmlns="http://www.w3.org/2000/svg" viewBox="0 0 100 100"><defs><style>.cls-1{fill:#fff;}</style></defs><path d="M33.08,20.7A13.76,13.76,0,1,0,46.84,34.46,13.76,13.76,0,0,0,33.08,20.7Zm0,22.51a8.76,8.76,0,1,1,8.76-8.75A8.76,8.76,0,0,1,33.08,43.21ZM72.32,59.39A13.76,13.76,0,1,0,86.07,73.14,13.75,13.75,0,0,0,72.32,59.39Zm0,22.51a8.76,8.76,0,1,1,8.75-8.76A8.77,8.77,0,0,1,72.32,81.9ZM63.06,43.17a2.5,2.5,0,0,0,3.53,0l5.73-5.73L78,43.17a2.51,2.51,0,0,0,3.54,0,2.5,2.5,0,0,0,0-3.54L75.85,33.9l5.73-5.72A2.5,2.5,0,0,0,78,24.64l-5.72,5.73-5.73-5.73a2.5,2.5,0,0,0-3.53,3.54l5.72,5.72-5.72,5.73A2.5,2.5,0,0,0,63.06,43.17ZM42.34,63.88a2.49,2.49,0,0,0-3.53,0l-5.73,5.73-5.73-5.73a2.5,2.5,0,1,0-3.53,3.53l5.73,5.73-5.73,5.73a2.51,2.51,0,0,0,1.77,4.27,2.46,2.46,0,0,0,1.76-.74l5.73-5.72,5.73,5.72a2.5,2.5,0,0,0,3.53-3.53l-5.72-5.73,5.72-5.73A2.49,2.49,0,0,0,42.34,63.88Z"/><path class="cls-1" d="M31.08,17.7A13.76,13.76,0,1,0,44.84,31.46,13.76,13.76,0,0,0,31.08,17.7Zm0,22.51a8.76,8.76,0,1,1,8.76-8.75A8.76,8.76,0,0,1,31.08,40.21ZM70.32,56.39A13.76,13.76,0,1,0,84.07,70.14,13.75,13.75,0,0,0,70.32,56.39Zm0,22.51a8.76,8.76,0,1,1,8.75-8.76A8.77,8.77,0,0,1,70.32,78.9ZM61.06,40.17a2.5,2.5,0,0,0,3.53,0l5.73-5.73L76,40.17a2.51,2.51,0,0,0,3.54,0,2.5,2.5,0,0,0,0-3.54L73.85,30.9l5.73-5.72A2.5,2.5,0,0,0,76,21.64l-5.72,5.73-5.73-5.73a2.5,2.5,0,0,0-3.53,3.54l5.72,5.72-5.72,5.73A2.5,2.5,0,0,0,61.06,40.17ZM40.34,60.88a2.49,2.49,0,0,0-3.53,0l-5.73,5.73-5.73-5.73a2.5,2.5,0,1,0-3.53,3.53l5.73,5.73-5.73,5.73a2.51,2.51,0,0,0,1.77,4.27,2.46,2.46,0,0,0,1.76-.74l5.73-5.72,5.73,5.72a2.5,2.5,0,0,0,3.53-3.53l-5.72-5.73,5.72-5.73A2.49,2.49,0,0,0,40.34,60.88Z"/></svg>