<svg id="icons" xmlns="http://www.w3.org/2000/svg" viewBox="0 0 100 100">
    <defs>
        <style>.cls-1{fill:#fff;}.cls-2{fill:#3ec188;}</style>
    </defs>
    <path class="cls-1"
          d="M56.51,20.61l7.65,7.65A4.16,4.16,0,0,1,64.32,34a4.07,4.07,0,0,1-5.79-.11l-7.65-7.65-8.15,8.14A4,4,0,0,1,37,34.22a4.11,4.11,0,0,1-.17-5.74L45,20.34l5.63-5.63Z"/>
    <path class="cls-2"
          d="M46.41,14.71H19.94a4,4,0,0,1-4.17-4,4.11,4.11,0,0,1,4.17-3.93H81.21a4.16,4.16,0,0,1,4.16,3.93,4.06,4.06,0,0,1-4.16,4H46.41Z"/>
    <path class="cls-1"
          d="M46.6,51.76V25.29a4,4,0,0,1,4-4.17,4.1,4.1,0,0,1,3.92,4.17V76.23a4.14,4.14,0,0,1-3.92,4.16,4.06,4.06,0,0,1-4-4.16V51.76Z"/>
    <path class="cls-1"
          d="M44.68,79.49,37,71.83a4.17,4.17,0,0,1-.16-5.74,4.09,4.09,0,0,1,5.79.11l7.65,7.66,8.15-8.15a4,4,0,0,1,5.74.17,4.11,4.11,0,0,1,.16,5.73L56.2,79.76l-5.62,5.63Z"/>
    <path class="cls-2"
          d="M54.77,85.39H81.25a4,4,0,0,1,4.16,4,4.11,4.11,0,0,1-4.16,3.93H20a4.15,4.15,0,0,1-4.15-3.93,4.06,4.06,0,0,1,4.15-4h34.8Z"/>
</svg>