<?xml version="1.0" encoding="UTF-8"?>
<svg xmlns="http://www.w3.org/2000/svg" viewBox="0 0 100 100">
    <defs>
        <style>
            .cls-1 {
            fill: #fff;
            }

            .cls-2 {
            fill: #4d8dfc;
            }

            .cls-3 {
            opacity: .5;
            }

            .cls-4 {
            opacity: .7;
            }
        </style>
    </defs>
    <g id="Layer_25" data-name="Layer 25">
        <g class="cls-3">
            <path class="cls-2"
                  d="M68.06,72.49v-4.17h-7.54l.07-.11.93-1.56,4.76-8.03-4.32-5.01c-.2.19-.38.41-.53.66l-5.22,8.8-.87,1.47-.91,1.53-2.27,3.83,2.75,4.83h13.64c-.31-.68-.48-1.43-.48-2.22h0ZM92.38,66.09l-.96-1.61-.89-1.51-4.3-7.25-4.41,5.11,3.2,5.4.89,1.51.34.58h-5.99v6.1c0,.1,0,.2-.02.3h11.62l2.75-4.83-2.25-3.79Z"/>
            <path d="M78.38,33.84c-3.47-2.25-7.96-1.69-10.79,1.1h12.16c-.41-.41-.87-.78-1.37-1.1ZM96.59,64.25c-1.81-1.17-3.95-1.61-6.06-1.28l.89,1.51.96,1.61,2.25,3.79-2.75,4.83h-8.04c.64,1.61,1.76,3.05,3.33,4.07,1.42.92,3.04,1.4,4.69,1.4.61,0,1.22-.06,1.83-.19,2.26-.48,4.2-1.82,5.46-3.76,2.6-4.01,1.45-9.38-2.56-11.98ZM85.91,67.74l-.89-1.51c-.14.19-.28.37-.41.57-.32.49-.57.99-.78,1.51h2.43l-.34-.58ZM60.59,68.2l-.07.11h1.87c-.23-.58-.52-1.15-.88-1.67l-.93,1.56ZM52.15,69.88l2.27-3.83.91-1.53.87-1.47c-1.19-.26-2.43-.27-3.65-.01-2.26.48-4.2,1.82-5.46,3.76-2.6,4.01-1.45,9.38,2.56,11.98,1.42.92,3.04,1.4,4.69,1.4.61,0,1.22-.06,1.82-.19,2.26-.48,4.2-1.82,5.46-3.76.32-.49.57-.99.78-1.51h-7.5l-2.75-4.83ZM97.08,43.15c1.56-1.8,1.03-4.33-.64-5.56.38,1.18.2,2.54-.74,3.64l-10.78,12.48-4.34,5.03-1.69,1.96v11.79c0,.79-.18,1.55-.48,2.22-.85,1.88-2.74,3.19-4.93,3.19-1.39,0-2.65-.53-3.61-1.39.82,1.94,2.75,3.31,4.99,3.31,2.89,0,5.24-2.26,5.4-5.11,0-.1.02-.2.02-.3v-11.79l1.55-1.79,4.41-5.11,10.85-12.57ZM62.11,53.46l-9.84-11.4c.15.38.36.74.66,1.08l9.03,10.46,4.32,5.01,1.79,2.07v-.32l-1.67-1.94-4.28-4.96ZM69.98,72.49c0,.84.3,1.62.8,2.22.64.77,1.61,1.27,2.69,1.27s2.05-.49,2.69-1.27c.5-.6.8-1.38.8-2.22,0-1.93-1.57-3.49-3.49-3.49s-3.49,1.57-3.49,3.49Z"/>
            <path class="cls-1"
                  d="M96.44,37.59c-.47-1.47-1.81-2.65-3.62-2.65h-38.4c-3.25,0-5,3.82-2.88,6.28l.72.84,9.84,11.4,4.28,4.96,1.67,1.94v12.13c0,.79.18,1.55.48,2.22.31.69.77,1.3,1.32,1.8.96.86,2.22,1.39,3.61,1.39,2.2,0,4.08-1.31,4.93-3.19.31-.68.48-1.43.48-2.22v-11.79l1.69-1.96,4.34-5.03,10.78-12.48c.95-1.1,1.12-2.46.74-3.64ZM76.17,74.71c-.64.77-1.61,1.27-2.69,1.27s-2.05-.49-2.69-1.27c-.5-.6-.8-1.38-.8-2.22,0-1.93,1.57-3.49,3.49-3.49s3.49,1.57,3.49,3.49c0,.84-.3,1.62-.8,2.22Z"/>
        </g>
    </g>
    <g id="icons_50" data-name="icons 50">
        <g class="cls-4">
            <path class="cls-2"
                  d="M54.8,73.53v-5.22h-9.43l.08-.14,1.16-1.95,5.95-10.03-5.41-6.26c-.25.24-.48.51-.67.82l-6.52,11-1.09,1.84-1.13,1.91-2.84,4.78,3.44,6.04h17.05c-.38-.85-.6-1.79-.6-2.78h0ZM85.19,65.53l-1.19-2.01-1.12-1.88-5.38-9.06-5.51,6.39,4,6.75,1.12,1.88.43.72h-7.48v7.62c0,.13-.01.25-.02.38h14.53l3.44-6.04-2.81-4.74Z"/>
            <path d="M67.69,25.22c-4.34-2.81-9.95-2.11-13.49,1.38h15.21c-.51-.51-1.09-.97-1.72-1.38ZM90.45,63.23c-2.26-1.47-4.93-2.02-7.58-1.6l1.12,1.88,1.19,2.01,2.81,4.74-3.44,6.04h-10.05c.8,2.02,2.2,3.82,4.16,5.08,1.78,1.15,3.8,1.75,5.87,1.75.76,0,1.52-.08,2.28-.24,2.83-.6,5.25-2.27,6.82-4.7,3.25-5.01,1.81-11.73-3.19-14.97ZM77.11,67.59l-1.12-1.88c-.18.23-.35.47-.52.72-.39.61-.72,1.24-.97,1.89h3.03l-.43-.72ZM45.46,68.17l-.08.14h2.34c-.29-.73-.65-1.43-1.1-2.09l-1.16,1.95ZM34.91,70.27l2.84-4.78,1.13-1.91,1.09-1.84c-1.49-.32-3.03-.34-4.56-.02-2.83.6-5.25,2.27-6.82,4.7-3.25,5.01-1.81,11.73,3.19,14.97,1.78,1.15,3.8,1.75,5.87,1.75.76,0,1.52-.08,2.28-.24,2.83-.6,5.25-2.27,6.83-4.7.39-.61.72-1.24.97-1.89h-9.37l-3.44-6.04ZM91.07,36.86c1.95-2.25,1.29-5.41-.8-6.95.47,1.47.26,3.18-.93,4.55l-13.47,15.6-5.43,6.29-2.11,2.45v14.73c0,.99-.22,1.93-.6,2.78-1.06,2.35-3.42,3.99-6.16,3.99-1.74,0-3.31-.66-4.51-1.73,1.03,2.43,3.43,4.13,6.23,4.13,3.61,0,6.55-2.83,6.75-6.39,0-.13.02-.25.02-.38v-14.73l1.93-2.24,5.51-6.39,13.57-15.72ZM47.36,49.75l-12.3-14.25c.19.47.46.93.82,1.36l11.28,13.07,5.41,6.26,2.23,2.59v-.4l-2.09-2.42-5.35-6.2ZM57.2,73.53c0,1.06.38,2.02,1,2.78.8.97,2.01,1.59,3.36,1.59s2.56-.62,3.36-1.59c.63-.76,1-1.72,1-2.78,0-2.41-1.96-4.37-4.37-4.37s-4.37,1.96-4.37,4.37Z"/>
            <path class="cls-1"
                  d="M90.27,29.91c-.59-1.84-2.27-3.31-4.52-3.31h-48c-4.07,0-6.25,4.78-3.6,7.86l.9,1.04,12.3,14.25,5.35,6.2,2.09,2.42v15.16c0,.99.22,1.93.6,2.78.39.86.96,1.63,1.65,2.25,1.2,1.07,2.77,1.73,4.51,1.73,2.74,0,5.1-1.64,6.16-3.99.38-.85.6-1.79.6-2.78v-14.73l2.11-2.45,5.43-6.29,13.47-15.6c1.18-1.37,1.4-3.07.93-4.55ZM64.93,76.31c-.8.97-2.01,1.59-3.36,1.59s-2.56-.62-3.36-1.59c-.63-.76-1-1.72-1-2.78,0-2.41,1.96-4.37,4.37-4.37s4.37,1.96,4.37,4.37c0,1.06-.38,2.02-1,2.78Z"/>
        </g>
    </g>
    <g id="Layer_5" data-name="Layer 5">
        <g>
            <path class="cls-2"
                  d="M37.22,74.59v-6.52h-11.78l.1-.18,1.45-2.44,7.44-12.54-6.76-7.83c-.31.3-.6.63-.83,1.02l-8.15,13.74-1.36,2.3-1.42,2.39-3.55,5.98,4.3,7.55h21.32c-.48-1.06-.75-2.24-.75-3.48h0ZM75.21,64.58l-1.49-2.52-1.4-2.35-6.72-11.33-6.89,7.98,5.01,8.44,1.4,2.35.53.9h-9.36v9.52c0,.16-.02.32-.02.48h18.16l4.3-7.55-3.52-5.93Z"/>
            <path d="M53.33,14.2c-5.42-3.51-12.44-2.64-16.86,1.72h19.01c-.64-.63-1.36-1.21-2.15-1.72ZM81.79,61.71c-2.83-1.83-6.17-2.52-9.47-2l1.4,2.35,1.49,2.52,3.52,5.93-4.3,7.55h-12.56c1,2.52,2.75,4.77,5.2,6.35,2.22,1.44,4.75,2.18,7.33,2.18.95,0,1.9-.1,2.85-.3,3.53-.75,6.56-2.84,8.53-5.87,4.06-6.26,2.27-14.66-3.99-18.72ZM65.11,67.16l-1.4-2.35c-.22.29-.44.58-.64.89-.49.76-.89,1.55-1.22,2.36h3.79l-.53-.9ZM25.54,67.89l-.1.18h2.92c-.36-.91-.81-1.79-1.37-2.61l-1.45,2.44ZM12.36,70.51l3.55-5.98,1.42-2.39,1.36-2.3c-1.86-.41-3.79-.43-5.7-.02-3.54.75-6.57,2.84-8.53,5.87-4.06,6.26-2.27,14.66,3.99,18.72,2.22,1.44,4.75,2.18,7.33,2.18.95,0,1.9-.1,2.85-.3,3.54-.75,6.57-2.84,8.53-5.87.49-.76.89-1.55,1.22-2.36h-11.72l-4.3-7.55ZM82.56,28.74c2.43-2.82,1.61-6.77-1-8.68.59,1.84.32,3.97-1.16,5.68l-16.84,19.51-6.79,7.86-2.64,3.06v18.42c0,1.24-.27,2.41-.75,3.48-1.33,2.94-4.27,4.98-7.7,4.98-2.17,0-4.14-.82-5.64-2.17,1.28,3.04,4.29,5.17,7.79,5.17,4.51,0,8.19-3.53,8.43-7.98,0-.16.02-.32.02-.48v-18.42l2.42-2.8,6.89-7.98,16.96-19.64ZM27.92,44.86l-15.38-17.81c.24.59.57,1.16,1.03,1.69l14.1,16.34,6.76,7.83,2.79,3.24v-.5l-2.62-3.03-6.69-7.75ZM40.22,74.59c0,1.32.47,2.53,1.25,3.48,1,1.21,2.51,1.98,4.2,1.98s3.2-.77,4.2-1.98c.78-.94,1.25-2.16,1.25-3.48,0-3.01-2.45-5.46-5.46-5.46s-5.46,2.45-5.46,5.46Z"/>
            <path class="cls-1"
                  d="M81.56,20.06c-.74-2.3-2.83-4.14-5.65-4.14H15.91c-5.08,0-7.82,5.97-4.5,9.82l1.13,1.31,15.38,17.81,6.69,7.75,2.62,3.03v18.95c0,1.24.27,2.41.75,3.48.49,1.08,1.2,2.04,2.07,2.82,1.5,1.34,3.47,2.17,5.64,2.17,3.43,0,6.38-2.05,7.7-4.98.48-1.06.75-2.24.75-3.48v-18.42l2.64-3.06,6.79-7.86,16.84-19.51c1.48-1.71,1.75-3.84,1.16-5.68ZM49.88,78.06c-1,1.21-2.51,1.98-4.2,1.98s-3.2-.77-4.2-1.98c-.78-.94-1.25-2.16-1.25-3.48,0-3.01,2.45-5.46,5.46-5.46s5.46,2.45,5.46,5.46c0,1.32-.47,2.53-1.25,3.48Z"/>
        </g>
    </g>
</svg>