<svg id="icons" xmlns="http://www.w3.org/2000/svg" viewBox="0 0 100 100">
    <defs>
        <style>.cls-1{fill:#4d8dfc;}.cls-2{fill:#fff;}</style>
    </defs>
    <rect x="20.58" y="33.07" width="58.85" height="33.86"/>
    <path class="cls-1" d="M79.42,68.43h-3a1.5,1.5,0,0,1,0-3h1.5v-1.5a1.5,1.5,0,1,1,3,0v3A1.5,1.5,0,0,1,79.42,68.43Z"/>
    <path class="cls-1" d="M52.94,68.43H47.06a1.5,1.5,0,0,1,0-3h5.88a1.5,1.5,0,0,1,0,3Z"/>
    <path class="cls-1" d="M23.58,68.43h-3a1.5,1.5,0,0,1-1.5-1.5v-3a1.5,1.5,0,1,1,3,0v1.5h1.5a1.5,1.5,0,0,1,0,3Z"/>
    <path class="cls-1" d="M20.58,53.05a1.5,1.5,0,0,1-1.5-1.5v-3.1a1.5,1.5,0,0,1,3,0v3.1A1.5,1.5,0,0,1,20.58,53.05Z"/>
    <path class="cls-1"
          d="M20.58,37.57a1.5,1.5,0,0,1-1.5-1.5v-3a1.5,1.5,0,0,1,1.5-1.5h3a1.5,1.5,0,0,1,0,3h-1.5v1.5A1.5,1.5,0,0,1,20.58,37.57Z"/>
    <path class="cls-1" d="M52.94,34.57H47.06a1.5,1.5,0,0,1,0-3h5.88a1.5,1.5,0,0,1,0,3Z"/>
    <path class="cls-1"
          d="M79.42,37.57a1.5,1.5,0,0,1-1.5-1.5v-1.5h-1.5a1.5,1.5,0,0,1,0-3h3a1.5,1.5,0,0,1,1.5,1.5v3A1.5,1.5,0,0,1,79.42,37.57Z"/>
    <path class="cls-1" d="M79.42,53.05a1.5,1.5,0,0,1-1.5-1.5v-3.1a1.5,1.5,0,0,1,3,0v3.1A1.5,1.5,0,0,1,79.42,53.05Z"/>
    <path class="cls-2"
          d="M51.52,51.56A1.54,1.54,0,0,1,49.94,53a1.52,1.52,0,0,1-1.58-1.58,5.14,5.14,0,0,1,1.76-3.14c.66-.68,1.79-1.77,1.79-3.12a2,2,0,0,0-2.24-2,4.39,4.39,0,0,0-1.78.36c-.48.23-.79.61-1.41.61A1.47,1.47,0,0,1,45,42.79c0-1.64,3.05-2.35,4.93-2.35,3.09,0,5.13,1.9,5.13,4.75a5.83,5.83,0,0,1-1.79,4.09c-.74.81-1.13,1.15-1.54,1.58A1.26,1.26,0,0,0,51.52,51.56Zm-1.6,8A1.84,1.84,0,0,1,48,57.79a1.82,1.82,0,0,1,1.88-1.74,1.84,1.84,0,0,1,1.9,1.74A1.86,1.86,0,0,1,49.92,59.56Z"/>
</svg>