<svg xmlns="http://www.w3.org/2000/svg" viewBox="0 0 100 100"><defs><style>.cls-1{opacity:0.25;}.cls-2{opacity:0.5;}.cls-3{fill:#ffa627;}</style></defs><g id="icons_multi"><g class="cls-1"><g class="cls-2"><path d="M47.6,54.75,62.74,72.29V72l-15.8-18.3A3.66,3.66,0,0,0,47.6,54.75Zm43.51-5.56a3.73,3.73,0,0,1-.74,3.64L73.56,72.3V84.09a5.41,5.41,0,0,1-9,4A5.42,5.42,0,0,0,74.94,86V74.22L91.75,54.75A3.8,3.8,0,0,0,91.11,49.19ZM77.66,58.64a3.49,3.49,0,1,0-3.5-3.49A3.49,3.49,0,0,0,77.66,58.64Zm-9.29,0a3.49,3.49,0,1,0-3.49-3.49A3.5,3.5,0,0,0,68.37,58.64Zm-9.43,0a3.49,3.49,0,1,0-3.5-3.49A3.49,3.49,0,0,0,58.94,58.64Z"/><path class="cls-3" d="M91.11,49.19a3.76,3.76,0,0,0-3.61-2.65H49.1a3.8,3.8,0,0,0-2.88,6.29l.72.83L62.74,72V84.09a5.41,5.41,0,1,0,10.82,0V72.3L90.37,52.83A3.73,3.73,0,0,0,91.11,49.19ZM77.66,58.64a3.49,3.49,0,1,1,3.49-3.49A3.5,3.5,0,0,1,77.66,58.64Zm-5.79-3.49a3.5,3.5,0,1,1-3.5-3.49A3.5,3.5,0,0,1,71.87,55.15ZM58.94,51.66a3.49,3.49,0,1,1-3.5,3.49A3.5,3.5,0,0,1,58.94,51.66Z"/></g><path d="M35.25,43.19,54.18,65.11v-.4L34.43,41.83A4.57,4.57,0,0,0,35.25,43.19Zm54.4-6.95a4.69,4.69,0,0,1-.93,4.55l-21,24.34V79.87a6.76,6.76,0,0,1-11.28,5,6.77,6.77,0,0,0,13-2.63V67.53l21-24.34A4.76,4.76,0,0,0,89.65,36.24ZM72.82,48.06a4.37,4.37,0,1,0-4.36-4.37A4.37,4.37,0,0,0,72.82,48.06Zm-11.6,0a4.37,4.37,0,1,0-4.36-4.37A4.37,4.37,0,0,0,61.22,48.06Zm-11.8,0a4.37,4.37,0,1,0-4.36-4.37A4.37,4.37,0,0,0,49.42,48.06Z"/><path class="cls-3" d="M89.65,36.24a4.72,4.72,0,0,0-4.53-3.31h-48a4.75,4.75,0,0,0-3.59,7.86l.9,1L54.18,64.71V79.87a6.77,6.77,0,0,0,13.53,0V65.13l21-24.34A4.69,4.69,0,0,0,89.65,36.24ZM72.82,48.06a4.37,4.37,0,1,1,4.37-4.37A4.37,4.37,0,0,1,72.82,48.06Zm-7.23-4.37a4.37,4.37,0,1,1-4.37-4.36A4.37,4.37,0,0,1,65.59,43.69ZM49.42,39.33a4.37,4.37,0,1,1-4.36,4.36A4.37,4.37,0,0,1,49.42,39.33Z"/></g></g><g id="icons"><path d="M19.57,29.74l23.65,27.4v-.5L18.54,28.05A6,6,0,0,0,19.57,29.74Zm68-8.68a5.81,5.81,0,0,1-1.16,5.68L60.14,57.17V75.59A8.45,8.45,0,0,1,46,81.88a8.46,8.46,0,0,0,16.25-3.29V60.17L88.56,29.74A5.94,5.94,0,0,0,87.56,21.06Zm-21,14.77a5.46,5.46,0,1,0-5.45-5.46A5.47,5.47,0,0,0,66.53,35.83Zm-14.5,0a5.46,5.46,0,1,0-5.46-5.46A5.47,5.47,0,0,0,52,35.83Zm-14.75,0a5.46,5.46,0,1,0-5.45-5.46A5.47,5.47,0,0,0,37.28,35.83Z"/><path class="cls-3" d="M87.56,21.06a5.88,5.88,0,0,0-5.65-4.14h-60a5.94,5.94,0,0,0-4.5,9.82l1.13,1.31L43.22,56.64v19a8.46,8.46,0,0,0,16.92,0V57.17L86.4,26.74A5.81,5.81,0,0,0,87.56,21.06Zm-21,14.77A5.46,5.46,0,1,1,72,30.37,5.46,5.46,0,0,1,66.53,35.83Zm-9-5.46A5.46,5.46,0,1,1,52,24.91,5.47,5.47,0,0,1,57.49,30.37ZM37.28,24.91a5.46,5.46,0,1,1-5.45,5.46A5.47,5.47,0,0,1,37.28,24.91Z"/></g></svg>