<svg id="icons" xmlns="http://www.w3.org/2000/svg" viewBox="0 0 200 100"><defs><style>.cls-1{fill:#cb2600;}.cls-2{fill:#67a900;}.cls-3{fill:#2c80ed;}.cls-4{fill:none;stroke:#fff;stroke-miterlimit:10;stroke-width:5px;opacity:0.5;}</style></defs><path d="M30.83,67.32v0a3.44,3.44,0,0,1-3,1.92,3.27,3.27,0,0,1-3.2-3,3.61,3.61,0,0,1,.47-1.6l8.13-13L25.76,39.8a3.87,3.87,0,0,1-.38-1.6,3.19,3.19,0,0,1,3.15-3,4,4,0,0,1,3.24,2.16l5.31,8.74,5.3-8.74a4.17,4.17,0,0,1,3.29-2.16,3.12,3.12,0,0,1,3.1,3,4,4,0,0,1-.43,1.55L40.93,51.58l8.12,13a3.48,3.48,0,0,1,.47,1.6,3.29,3.29,0,0,1-3.14,3,3.46,3.46,0,0,1-3.06-1.87L37.08,57Z"/><path class="cls-1" d="M29.47,65.27v0a3.46,3.46,0,0,1-3,1.92,3.27,3.27,0,0,1-3.19-3,3.48,3.48,0,0,1,.47-1.6l8.12-13L24.39,37.75a3.86,3.86,0,0,1-.37-1.6,3.19,3.19,0,0,1,3.15-3,3.92,3.92,0,0,1,3.23,2.16l5.31,8.74L41,35.35a4.15,4.15,0,0,1,3.28-2.16,3.11,3.11,0,0,1,3.1,3A4,4,0,0,1,47,37.75L39.56,49.53l8.13,13a3.6,3.6,0,0,1,.46,1.6,3.29,3.29,0,0,1-3.14,3A3.48,3.48,0,0,1,42,65.27L35.71,54.94Z"/><path d="M97.35,66.09V55.81L89.08,39.66a3.9,3.9,0,0,1-.28-1.36,3.34,3.34,0,0,1,3.34-3.06,3,3,0,0,1,2.67,1.41l5.87,11.65,5.82-11.65a3.09,3.09,0,0,1,2.73-1.41,3.33,3.33,0,0,1,3.33,3.06,4.88,4.88,0,0,1-.32,1.36L104,55.81V66.09a3.24,3.24,0,0,1-3.34,3.1A3.21,3.21,0,0,1,97.35,66.09Z"/><path class="cls-2" d="M96,64.05V53.76L87.72,37.61a3.9,3.9,0,0,1-.28-1.36,3.33,3.33,0,0,1,3.33-3.06,3.07,3.07,0,0,1,2.68,1.41l5.87,11.65,5.82-11.65a3.08,3.08,0,0,1,2.72-1.41,3.34,3.34,0,0,1,3.34,3.06,4.91,4.91,0,0,1-.33,1.36l-8.22,16.15V64.05a3.34,3.34,0,0,1-6.67,0Z"/><path d="M172.83,68.77H156.72a3.27,3.27,0,0,1-3.38-3.19,5.85,5.85,0,0,1,.66-2.07c4.6-7.61,8.64-14.09,13.29-21.79H156.67a3.08,3.08,0,0,1-3.24-3,3.15,3.15,0,0,1,3.24-3.06h15.92A3.25,3.25,0,0,1,176,38.81a3.68,3.68,0,0,1-.66,2L162,62.71h10.85a3,3,0,1,1,0,6.06Z"/><path class="cls-3" d="M171.46,66.72h-16.1A3.27,3.27,0,0,1,152,63.53a6.06,6.06,0,0,1,.66-2.07c4.6-7.6,8.64-14.09,13.29-21.79H155.31a3.08,3.08,0,0,1-3.24-3,3.15,3.15,0,0,1,3.24-3.05h15.92a3.24,3.24,0,0,1,3.42,3.14,3.76,3.76,0,0,1-.65,2L160.61,60.66h10.85a3,3,0,1,1,0,6.06Z"/><path class="cls-4" d="M63,71.2a12,12,0,0,1-12,12h-30a12,12,0,0,1-12-12"/><path class="cls-4" d="M8.93,29.07a12,12,0,0,1,12-12H51a12,12,0,0,1,12,12"/><path class="cls-4" d="M127,71.2a12,12,0,0,1-12,12H85a12,12,0,0,1-12-12"/><path class="cls-4" d="M73,29.07a12,12,0,0,1,12-12h30a12,12,0,0,1,12,12"/><path class="cls-4" d="M191.07,71.2a12,12,0,0,1-12,12H149a12,12,0,0,1-12-12"/><path class="cls-4" d="M137,29.07a12,12,0,0,1,12-12h30a12,12,0,0,1,12,12"/></svg>