<svg id="icons" xmlns="http://www.w3.org/2000/svg" viewBox="0 0 100 100"><defs><style>.cls-1{fill:#fff;}</style></defs><path d="M53.37,73A15.12,15.12,0,0,1,32,51.63L44.55,39.07,37.48,32,24.92,44.56A25.12,25.12,0,0,0,60.44,80.08L73,67.52l-7.07-7.07ZM58.52,25.1,51.45,18l-7.52,7.52L51,32.62ZM79.9,46.48,72.38,54l7.07,7.07L87,53.55Z"/><path class="cls-1" d="M51.37,70A15.12,15.12,0,0,1,30,48.63L42.55,36.07,35.48,29,22.92,41.56A25.12,25.12,0,0,0,58.44,77.08L71,64.52l-7.07-7.07ZM56.52,22.1,49.45,15l-7.52,7.52L49,29.62ZM77.9,43.48,70.38,51l7.07,7.07L85,50.55Z"/></svg>