<svg id="icons" xmlns="http://www.w3.org/2000/svg" viewBox="0 0 100 100"><defs><style>.cls-1{fill:#4d8dfc;}.cls-2{fill:#fff;}</style></defs><path d="M59.58,46.93,45.73,33.08a4.24,4.24,0,0,0-6,6l10,10h-32a4.25,4.25,0,0,0,0,8.49H49l-9.24,9.24a4.24,4.24,0,1,0,6,6L59.58,58.93l6-6Z"/><path class="cls-1" d="M57.58,43.93,43.73,30.08a4.24,4.24,0,0,0-6,6l10,10h-32a4.25,4.25,0,0,0,0,8.49H47l-9.24,9.24a4.24,4.24,0,1,0,6,6L57.58,55.93l6-6Z"/><path d="M83.58,13.06H39.1v5H83.58a2.79,2.79,0,0,1,2.75,2.75V85.19a2.79,2.79,0,0,1-2.75,2.75H39.1v5H83.58a7.78,7.78,0,0,0,7.75-7.75V20.81A7.78,7.78,0,0,0,83.58,13.06Z"/><path class="cls-2" d="M82.58,10.06H38.1v7H80.58a2.79,2.79,0,0,1,2.75,2.75V80.19a2.79,2.79,0,0,1-2.75,2.75H38.1v7H82.58a7.78,7.78,0,0,0,7.75-7.75V17.81A7.78,7.78,0,0,0,82.58,10.06Z"/></svg>