<svg id="icons" xmlns="http://www.w3.org/2000/svg" viewBox="0 0 200 100">
    <defs>
        <style>.cls-1{fill:#fff;}.cls-2{fill:#cb2600;}.cls-3{fill:#67a900;}.cls-4{fill:#2c80ed;}</style>
    </defs>
    <path d="M82.86,76.85A22.52,22.52,0,1,1,96.93,36.79L85.76,46.44l29.41,4.35-.06-29.73L104.79,30a32.76,32.76,0,1,0,8.9,35.46L103.22,63.9A22.54,22.54,0,0,1,82.86,76.85Z"/>
    <path class="cls-1"
          d="M113.11,17.06,102.79,26a32.76,32.76,0,1,0,8.9,35.46L101.22,59.9a22.54,22.54,0,1,1-6.29-27.11L83.76,42.44"/>
    <polygon points="123.16 19.86 94.41 38.39 94.41 67.77 123.16 86.3 151.91 67.77 151.91 38.39 123.16 19.86"/>
    <polygon class="cls-2" points="121.16 83.3 92.41 64.77 92.41 35.39 121.16 53.92 121.16 83.3"/>
    <polygon class="cls-3" points="121.16 83.3 149.91 64.77 149.91 35.39 121.16 53.92 121.16 83.3"/>
    <polygon class="cls-4" points="121.16 53.92 149.91 35.39 121.16 16.86 92.41 35.39 121.16 53.92"/>
    <polyline class="cls-1" points="83.76 42.44 113.17 46.78 113.11 17.06"/>
</svg>