<svg id="icons" xmlns="http://www.w3.org/2000/svg" viewBox="0 0 100 100">
    <defs>
        <style>.cls-1{fill:#fff;}.cls-2{fill:#ffa627;}</style>
    </defs>
    <path d="M50.9,88.57c-20.28,0-32.66-14.47-32.66-35.73,0-20.71,11.83-35.29,33.54-35.29,22.25,0,34,15.45,34,34.41,0,10.31-3.5,17.87-13.26,17.87-4.82,0-8-1.75-10.08-4.71-4.06,4.27-7.89,5.81-12.06,5.81-9.32,0-14.58-7.79-14.58-18.09,0-10.74,5.71-18.09,16.44-18.09S66.14,42,67.12,52.29c.33,4,1,9.65,5.37,9.65,3.62,0,4.71-3.73,4.71-9.21,0-15.57-8.65-27.29-25.32-27.29-16.33,0-25.09,11.29-25.09,27.62s8.76,27.62,25.65,27.62c7.78,0,11.06-2.41,13.8-3.18,2-.54,4.5-.44,5.27,2.41.77,3.07-1.65,4.61-4.17,5.7A45.81,45.81,0,0,1,50.9,88.57Zm.88-45.92c-5.26,0-7.46,3.94-7.46,10.52,0,6.36,2.08,10.08,6.8,10.08,3,0,5.81-1.42,8.55-4a45.15,45.15,0,0,1-1.09-7.13C58.25,48.13,57.92,42.65,51.78,42.65Z"/>
    <path class="cls-1"
          d="M49.79,14.56c-21.71,0-33.54,14.58-33.54,35.3,0,15,6.18,26.64,17,32.17l3.41-7.68C28.81,69.85,24.8,61.12,24.8,50.08c0-16.34,8.76-27.63,25.09-27.63,16.67,0,25.32,11.73,25.32,27.3,0,5.48-1.09,9.21-4.71,9.21-4.38,0-5-5.71-5.37-9.65C64.15,39,61,31.77,50.22,31.77S33.78,39.12,33.78,49.86c0,10.3,5.26,18.08,14.58,18.08,4.17,0,8-1.53,12.06-5.81,2.08,3,5.26,4.72,10.08,4.72,9.76,0,13.26-7.57,13.26-17.87C83.76,30,72,14.56,49.79,14.56Zm-.66,45.71c-4.72,0-6.8-3.73-6.8-10.08,0-6.58,2.2-10.53,7.46-10.53,6.14,0,6.47,5.48,6.8,9.43a45.15,45.15,0,0,0,1.09,7.13C54.94,58.84,52.09,60.27,49.13,60.27Z"/>
    <path class="cls-2"
          d="M64.25,74.52c-2.74.76-6,3.18-13.8,3.18a29.86,29.86,0,0,1-10.11-1.63L37,83.65a35.89,35.89,0,0,0,11.94,1.94,45.81,45.81,0,0,0,16.44-3c2.52-1.09,4.94-2.63,4.17-5.7C68.75,74.08,66.23,74,64.25,74.52Z"/>
</svg>