<svg id="icons" xmlns="http://www.w3.org/2000/svg" viewBox="0 0 100 100">
    <defs>
        <style>.cls-1{fill:#4d8dfc;}</style>
    </defs>
    <path d="M58.47,14.88A13.53,13.53,0,0,0,39.78,33.64l1.46-2.48,1.63-2.73,3.51-5.92H55L59,29.37l1.51,2.54L62,34.29c.17-.23.34-.45.5-.69a13.54,13.54,0,0,0-4-18.72Zm-7.79,20-1.34,2.26L48,39.41a13.41,13.41,0,0,0,3.1.37,13.8,13.8,0,0,0,2.38-.23l-1.39-2.33ZM92.8,70.93A13.52,13.52,0,0,0,77.45,60.4l1.4,2.35,1.49,2.52,3.52,5.93-4.3,7.55H67a13.36,13.36,0,0,0,5.2,6.36,13.51,13.51,0,0,0,7.33,2.18,13.73,13.73,0,0,0,2.85-.3A13.54,13.54,0,0,0,92.8,70.93ZM70.25,67.85l-1.4-2.35c-.22.29-.44.58-.64.89A14,14,0,0,0,67,68.75h3.8ZM32.13,66.13l-1.45,2.45-.11.17H33.5A13.61,13.61,0,0,0,32.13,66.13ZM17.49,71.2l3.55-6,1.42-2.39,1.36-2.29a13.53,13.53,0,1,0-2.91,26.75,13.8,13.8,0,0,0,2.85-.3,13.42,13.42,0,0,0,8.53-5.88,13.58,13.58,0,0,0,1.23-2.36H21.79Z"/>
    <path class="cls-1"
          d="M80.34,65.27l-1.49-2.52-1.4-2.35L62,34.29l-1.41-2.38L59,29.37,55,22.51h-8.6l-3.51,5.92-1.63,2.73-1.46,2.48-16,26.9-1.36,2.29L21,65.22l-3.55,6,4.3,7.55H79.56l4.3-7.55ZM69.73,68.75H30.57l.11-.17,1.45-2.45L48,39.41l1.36-2.29,1.34-2.26,1.39,2.36,1.39,2.33,15.39,26,1.4,2.35.53.9Z"/>
</svg>