<?xml version="1.0" encoding="UTF-8"?>
<svg xmlns="http://www.w3.org/2000/svg" viewBox="0 0 100 100">
  <defs>
    <style>
      .cls-1 {
        fill: #4d8dfc;
      }

      .cls-2 {
        fill: #ffa627;
      }

      .cls-3 {
        opacity: .5;
      }

      .cls-4 {
        opacity: .7;
      }
    </style>
  </defs>
  <g id="Layer_25" data-name="Layer 25">
    <g class="cls-3">
      <path d="M82.07,68.37c.03.42.2.84.52,1.16l6.98,6.93h.65l-8.15-8.1Z"/>
      <path d="M96.33,62.37v15.91c0,.12-.01.24-.04.36,0,.05-.02.09-.04.13-.01.07-.04.13-.06.2-.02.06-.05.11-.08.16-.02.05-.05.1-.08.15-.13.19-.29.36-.49.49l-.15.08c-.05.03-.1.06-.16.08l-.2.06s-.09.03-.13.04c-.12.03-.24.04-.36.04h-16.1c-.17,0-.34-.03-.49-.08,0,.07-.02.14-.02.21,0,.99.8,1.79,1.79,1.79h16.1c.12,0,.24-.01.36-.04.05,0,.09-.02.13-.04l.2-.06c.06-.02.11-.05.16-.08l.15-.08c.19-.13.36-.3.49-.49.03-.05.06-.1.08-.15.03-.05.06-.1.08-.16.03-.06.05-.13.06-.2.02-.04.03-.09.04-.13.03-.12.04-.24.04-.36v-16.12c0-.81-.54-1.49-1.28-1.71Z"/>
      <path d="M78.45,36c-.17,0-.33-.03-.49-.08,0,.07-.02.14-.02.21,0,.99.8,1.79,1.79,1.79h8.58l1.92-1.92h-11.78Z"/>
      <path d="M97.59,35.77s-.02-.09-.04-.13c-.01-.07-.04-.13-.06-.2-.02-.06-.05-.11-.08-.16-.02-.06-.05-.11-.09-.17-.13-.2-.3-.37-.5-.5l-.14-.06c-.05-.03-.1-.06-.16-.08l-.17-.06v15.88c0,.48-.19.94-.52,1.28-.48.48-1.17.62-1.78.44v.21c0,.48.19.93.52,1.27.7.7,1.83.7,2.53,0,.34-.34.53-.8.52-1.28v-16.09c0-.12-.01-.24-.04-.36Z"/>
      <path d="M83.91,47.44c-.49.49-1.18.63-1.79.45-.06.53.11,1.07.51,1.47.71.71,1.85.71,2.56,0l7.58-7.62v-3.21l-8.86,8.9Z"/>
      <path d="M66.25,36h-11.78l1.93,1.92h11.12c.48,0,.93-.19,1.27-.53.34-.34.53-.8.52-1.28,0-.82-.55-1.5-1.3-1.71-.04.4-.21.79-.51,1.07-.33.34-.79.53-1.27.53Z"/>
      <path d="M63.39,47.41c-.71.71-1.85.71-2.56,0l-8.88-8.88v11.78c0,.99-.8,1.79-1.79,1.79-.18,0-.35-.03-.51-.08v.21c0,.99.8,1.79,1.79,1.79s1.79-.8,1.79-1.79v-11.78l8.88,8.88c.71.71,1.85.71,2.56,0,.71-.71.71-1.85,0-2.56l-.76-.76c.03.5-.14,1.01-.52,1.4Z"/>
      <path d="M69.26,63.59s0-.13-.06-.2c-.06-.06-.06-.11-.08-.16-.03-.05-.05-.1-.08-.15-.13-.2-.3-.36-.49-.49l-.15-.08-.16-.08-.18-.06v15.9c0,.99-.8,1.79-1.79,1.79-.18,0-.36-.03-.52-.09v.2c0,.48.19.94.52,1.28.34.34.8.53,1.28.52.99,0,1.79-.8,1.79-1.79v-16.1c0-.12-.01-.24-.03-.35,0-.05,0-.1-.04-.14Z"/>
      <path d="M50.15,63.95c-.14,0-.27-.04-.4-.07-.01.1-.02.2-.01.31.05.91.78,1.63,1.69,1.69h8.58l1.92-1.92h-11.78Z"/>
      <path d="M55.61,75.39c-.49.49-1.18.63-1.79.45-.06.53.11,1.07.51,1.47.71.71,1.85.71,2.56,0l7.57-7.63v-3.21l-8.85,8.92Z"/>
      <path class="cls-2" d="M94.54,60.36c-.99,0-1.79.8-1.79,1.79v11.78l-8.88-8.88c-.71-.71-1.85-.71-2.56,0-.71.71-.71,1.85,0,2.56l.76.76,8.15,8.1h-11.78c-.48,0-.93.19-1.27.53-.34.34-.53.8-.52,1.28,0,.82.55,1.5,1.3,1.71.16.05.32.08.49.08h16.1c.12,0,.24-.01.36-.04.05,0,.09-.02.13-.04l.2-.06c.06-.02.11-.05.16-.08l.15-.08c.19-.13.36-.3.49-.49.03-.05.06-.1.08-.15.03-.05.06-.1.08-.16.03-.06.05-.13.06-.2.02-.04.03-.09.04-.13.03-.12.04-.24.04-.36v-16.12c0-.99-.8-1.79-1.79-1.79ZM96.31,33.85s-.02-.09-.04-.13c-.01-.07-.04-.13-.06-.2-.02-.06-.05-.11-.08-.16-.02-.06-.05-.11-.09-.17-.13-.2-.3-.37-.5-.5l-.14-.06c-.05-.03-.1-.06-.16-.08l-.19-.06-.14-.04c-.12-.03-.24-.04-.36-.04h-16.09c-.99,0-1.79.8-1.79,1.79,0,.82.55,1.5,1.3,1.72.16.05.32.08.49.08h11.78l-8.88,8.88c-.71.71-.71,1.85,0,2.56.22.22.49.37.77.45.62.18,1.31.04,1.79-.45l8.86-8.9v11.78c0,.48.19.93.52,1.27.22.22.48.36.76.44.61.18,1.3.04,1.78-.44.34-.34.53-.8.52-1.28v-16.09c0-.12-.01-.24-.04-.36ZM66.25,32.4h-16.1c-.12,0-.24.01-.36.04l-.13.04-.2.06c-.06.02-.11.05-.16.08l-.15.08c-.19.13-.36.3-.49.49-.03.05-.06.1-.08.15-.03.05-.06.1-.08.16-.03.06-.05.13-.06.2-.02.04-.03.09-.04.13-.03.12-.04.24-.04.36v16.12c0,.81.54,1.49,1.28,1.71.16.05.33.08.51.08.99,0,1.79-.8,1.79-1.79v-11.78l8.88,8.88c.71.71,1.85.71,2.56,0,.38-.38.55-.89.52-1.4-.03-.42-.2-.84-.52-1.16l-6.98-6.93-1.93-1.92h11.78c.48,0,.93-.19,1.27-.53.29-.29.47-.67.51-1.07,0-.07.02-.14.02-.21,0-.99-.8-1.79-1.79-1.79Z"/>
      <path class="cls-1" d="M68.03,61.81c0-.05,0-.1-.04-.14-.04-.04,0-.13-.06-.2-.06-.06-.06-.11-.08-.16-.03-.05-.05-.1-.08-.15-.13-.2-.3-.36-.49-.49l-.15-.08-.16-.08-.2-.06s-.09-.03-.14-.04c-.12-.03-.23-.04-.35-.04h-16.12c-.99.06-1.75.91-1.69,1.9.05.77.58,1.41,1.29,1.61.13.04.26.07.4.07h11.78l-1.92,1.92-6.96,6.96c-.71.71-.71,1.85,0,2.56.22.22.49.37.77.45.62.18,1.31.04,1.79-.45l8.85-8.92v11.78c0,.48.19.94.52,1.28.21.21.47.35.76.44.17.05.34.09.52.09.99,0,1.79-.8,1.79-1.79v-16.1c0-.12-.01-.24-.03-.35Z"/>
    </g>
  </g>
  <g id="icons_50" data-name="icons 50">
    <g class="cls-4">
      <path d="M72.34,68.16c.03.53.24,1.05.65,1.46l8.73,8.66h.82l-10.19-10.12Z"/>
      <path d="M90.17,60.66v19.89c0,.15-.02.3-.05.45-.01.06-.03.11-.05.17-.02.09-.04.17-.08.25-.03.07-.06.14-.1.2-.03.06-.06.13-.1.18-.16.24-.37.45-.61.62l-.18.1c-.06.04-.13.07-.2.1l-.25.08c-.05.02-.11.04-.17.05-.15.03-.3.05-.45.05h-20.12c-.22,0-.42-.04-.62-.1,0,.09-.02.17-.02.26,0,1.24,1,2.24,2.24,2.24h20.12c.15,0,.3-.02.45-.05.06-.01.11-.03.17-.05l.25-.08c.07-.03.14-.06.2-.1l.18-.1c.24-.17.45-.37.61-.62.04-.06.07-.12.1-.18.04-.06.08-.13.1-.2.04-.08.06-.16.08-.25.02-.05.04-.11.05-.17.03-.15.05-.3.05-.45v-20.15c0-1.01-.68-1.86-1.6-2.13Z"/>
      <path d="M67.82,27.7c-.21,0-.42-.04-.61-.1,0,.09-.03.17-.03.26,0,1.24,1,2.24,2.24,2.24h10.72l2.4-2.4h-14.72Z"/>
      <path d="M91.74,27.42c-.01-.06-.03-.11-.05-.17-.02-.09-.04-.17-.08-.25-.03-.07-.06-.14-.1-.2-.03-.07-.07-.14-.11-.21-.17-.25-.38-.46-.62-.62l-.18-.07c-.06-.04-.13-.07-.2-.1l-.21-.07v19.85c0,.6-.23,1.18-.66,1.6-.6.6-1.46.78-2.22.55v.26c0,.59.24,1.16.66,1.58.87.87,2.29.88,3.17,0,.42-.42.66-1,.66-1.6v-20.11c0-.15-.02-.3-.05-.45Z"/>
      <path d="M74.63,42c-.61.61-1.47.79-2.24.56-.07.66.14,1.34.64,1.84.88.88,2.32.88,3.2,0l9.47-9.52v-4.01l-11.07,11.13Z"/>
      <path d="M52.57,27.71h-14.72l2.42,2.4h13.9c.6,0,1.17-.24,1.58-.66.43-.42.67-1,.66-1.6,0-1.02-.69-1.87-1.62-2.14-.05.51-.27.98-.63,1.34-.42.43-.99.67-1.58.66Z"/>
      <path d="M48.99,41.97c-.88.88-2.32.88-3.2,0l-11.1-11.1v14.72c0,1.24-1,2.24-2.24,2.24-.22,0-.44-.04-.64-.1v.26c0,1.24,1,2.24,2.24,2.24s2.24-1,2.24-2.24v-14.72l11.1,11.1c.88.88,2.32.88,3.2,0,.88-.88.88-2.32,0-3.2l-.95-.94c.04.63-.17,1.27-.65,1.74Z"/>
      <path d="M56.33,62.19c-.06-.06,0-.17-.07-.25-.07-.08-.07-.14-.1-.2-.03-.06-.06-.13-.1-.18-.16-.25-.37-.45-.62-.62l-.18-.1-.2-.1-.22-.07v19.87c0,1.24-1,2.24-2.24,2.24-.23,0-.44-.04-.66-.11v.25c0,.6.23,1.17.66,1.6.43.42,1,.66,1.6.66,1.24,0,2.24-1,2.24-2.24v-20.13c0-.15-.01-.29-.04-.44,0-.06,0-.12-.06-.18Z"/>
      <path d="M32.44,62.64c-.17-.01-.34-.05-.49-.09-.01.12-.02.25-.02.38.07,1.14.97,2.04,2.11,2.11h10.72l2.4-2.4h-14.72Z"/>
      <path d="M39.26,76.94c-.61.61-1.47.79-2.24.56-.07.66.14,1.34.64,1.84.88.88,2.32.88,3.2,0l9.46-9.53v-4.01l-11.06,11.14Z"/>
      <path class="cls-2" d="M87.93,58.16c-1.24,0-2.24,1-2.24,2.24v14.72l-11.1-11.1c-.88-.88-2.32-.88-3.2,0-.88.88-.88,2.32,0,3.2l.95.94,10.19,10.12h-14.72c-.6,0-1.17.24-1.58.66-.43.42-.66,1-.66,1.6,0,1.02.69,1.87,1.62,2.14.2.06.4.1.62.1h20.12c.15,0,.3-.02.45-.05.06-.01.11-.03.17-.05l.25-.08c.07-.03.14-.06.2-.1l.18-.1c.24-.17.45-.37.61-.62.04-.06.07-.12.1-.18.04-.06.08-.13.1-.2.04-.08.06-.16.08-.25.02-.05.04-.11.05-.17.03-.15.05-.3.05-.45v-20.15c0-1.24-1-2.24-2.24-2.24ZM90.14,25.02c-.01-.06-.03-.11-.05-.17-.02-.09-.04-.17-.08-.25-.03-.07-.06-.14-.1-.2-.03-.07-.07-.14-.11-.21-.17-.25-.38-.46-.62-.62l-.18-.07c-.06-.04-.13-.07-.2-.1l-.24-.08-.18-.05c-.15-.03-.3-.05-.45-.05h-20.11c-1.24,0-2.24,1-2.24,2.24,0,1.02.69,1.88,1.63,2.14.2.06.4.1.61.1h14.72l-11.1,11.1c-.88.88-.88,2.32,0,3.2.28.28.61.46.96.56.77.23,1.63.05,2.24-.56l11.07-11.13v14.72c0,.59.24,1.16.66,1.58.27.27.6.45.94.55.76.23,1.62.05,2.22-.55.42-.42.66-1,.66-1.6v-20.11c0-.15-.02-.3-.05-.45ZM52.57,23.2h-20.12c-.15,0-.3.02-.45.05l-.17.05-.25.08c-.07.03-.14.06-.2.1l-.18.1c-.24.17-.45.37-.61.62-.04.06-.07.12-.1.18-.04.06-.08.13-.1.2-.03.08-.06.16-.08.25-.02.05-.04.11-.05.17-.03.15-.05.3-.05.45v20.15c0,1.01.68,1.86,1.6,2.14.2.06.42.1.64.1,1.24,0,2.24-1,2.24-2.24v-14.72l11.1,11.1c.88.88,2.32.88,3.2,0,.48-.48.69-1.12.65-1.74-.03-.53-.24-1.05-.65-1.46l-8.73-8.66-2.42-2.4h14.72c.6,0,1.17-.24,1.58-.66.37-.36.58-.84.63-1.34,0-.09.02-.17.02-.26,0-1.24-1-2.24-2.24-2.24Z"/>
      <path class="cls-1" d="M54.78,59.96c0-.06,0-.12-.06-.18-.06-.06,0-.17-.07-.25-.07-.08-.07-.14-.1-.2-.03-.06-.06-.13-.1-.18-.16-.25-.37-.45-.62-.62l-.18-.1-.2-.1-.25-.08c-.06-.02-.12-.04-.18-.05-.14-.03-.29-.05-.44-.05h-20.14c-1.24.07-2.18,1.14-2.11,2.38.06.96.72,1.76,1.62,2.02.16.05.32.08.49.09h14.72l-2.4,2.4-8.7,8.7c-.88.88-.88,2.32,0,3.2.28.28.61.46.96.56.77.23,1.63.05,2.24-.56l11.06-11.14v14.72c0,.6.23,1.17.66,1.6.27.26.59.44.94.55.21.06.43.11.66.11,1.24,0,2.24-1,2.24-2.24v-20.13c0-.15-.01-.29-.04-.44Z"/>
    </g>
  </g>
  <g id="Layer_5" data-name="Layer 5">
    <g>
      <path d="M59.18,67.65c.04.66.3,1.31.81,1.82l10.91,10.83h1.02l-12.74-12.65Z"/>
      <path d="M81.46,58.28v24.86c0,.19-.02.38-.06.56-.02.07-.04.14-.06.21-.02.11-.06.21-.1.31-.03.09-.08.17-.13.25-.03.08-.07.16-.12.23-.2.3-.46.56-.76.77l-.23.12c-.08.05-.16.09-.25.13l-.31.1c-.07.02-.14.04-.21.06-.18.04-.37.06-.56.06h-25.15c-.27,0-.53-.05-.77-.12-.01.11-.03.21-.03.32,0,1.55,1.25,2.8,2.8,2.8h25.15c.19,0,.38-.02.56-.06.07-.02.14-.04.21-.06l.31-.1c.09-.04.17-.08.25-.13l.23-.12c.3-.21.56-.47.76-.77.05-.07.09-.15.12-.23.05-.08.1-.16.13-.25.04-.1.08-.2.1-.31.02-.07.04-.14.06-.21.04-.18.06-.37.06-.56v-25.19c0-1.27-.85-2.32-2-2.67Z"/>
      <path d="M53.52,17.07c-.27,0-.52-.05-.77-.12-.01.11-.03.21-.03.32,0,1.55,1.25,2.8,2.8,2.8h13.4l3-3h-18.4Z"/>
      <path d="M83.42,16.72c-.02-.07-.04-.14-.06-.21-.02-.11-.06-.21-.1-.31-.03-.09-.08-.17-.13-.25-.04-.09-.09-.18-.14-.26-.21-.31-.47-.57-.78-.78l-.22-.09c-.08-.05-.16-.09-.25-.13l-.26-.09v24.82c0,.75-.29,1.47-.82,2-.75.75-1.83.97-2.78.69v.33c0,.74.29,1.46.82,1.98,1.09,1.09,2.87,1.09,3.96,0,.53-.53.83-1.25.82-2v-25.14c0-.19-.02-.38-.06-.56Z"/>
      <path d="M62.04,34.95c-.76.76-1.84.98-2.8.7-.09.82.17,1.67.8,2.3,1.1,1.1,2.9,1.1,4,0l11.84-11.9v-5.01l-13.84,13.91Z"/>
      <path d="M34.46,17.08h-18.4l3.02,3h17.38c.75,0,1.46-.3,1.98-.83.53-.53.83-1.25.82-2,0-1.28-.86-2.34-2.03-2.68-.07.63-.33,1.23-.79,1.68-.52.53-1.23.83-1.98.83Z"/>
      <path d="M29.99,34.91c-1.1,1.1-2.9,1.1-4,0l-13.87-13.87v18.4c0,1.55-1.25,2.8-2.8,2.8-.28,0-.54-.05-.8-.13v.33c0,1.55,1.25,2.8,2.8,2.8s2.8-1.25,2.8-2.8v-18.4l13.87,13.87c1.1,1.1,2.9,1.1,4,0,1.1-1.1,1.1-2.9,0-4l-1.19-1.18c.05.78-.21,1.58-.81,2.18Z"/>
      <path d="M39.16,60.18c-.07-.07,0-.21-.09-.31-.09-.1-.09-.17-.13-.25-.04-.08-.08-.16-.13-.23-.2-.31-.46-.57-.77-.77l-.23-.13-.25-.13-.28-.09v24.84c0,1.55-1.25,2.8-2.8,2.8-.28,0-.55-.05-.82-.13v.31c0,.75.29,1.47.82,2,.53.53,1.25.82,2,.82,1.55,0,2.8-1.25,2.8-2.8v-25.16c0-.18-.02-.37-.05-.55,0-.08,0-.15-.07-.22Z"/>
      <path d="M9.3,60.75c-.21-.01-.42-.06-.62-.11-.02.16-.03.31-.02.48.08,1.42,1.22,2.55,2.64,2.64h13.4l3-3H9.3Z"/>
      <path d="M17.83,78.62c-.76.76-1.84.98-2.8.7-.09.82.17,1.67.8,2.3,1.1,1.1,2.9,1.1,4,0l11.83-11.92v-5.01l-13.83,13.93Z"/>
      <path class="cls-2" d="M78.66,55.15c-1.54,0-2.8,1.25-2.8,2.8v18.4l-13.87-13.87c-1.1-1.1-2.9-1.1-4,0-1.1,1.1-1.1,2.9,0,4l1.19,1.18,12.74,12.65h-18.4c-.75,0-1.46.3-1.98.83-.53.53-.83,1.25-.82,2,0,1.28.86,2.34,2.03,2.68.25.07.5.12.77.12h25.15c.19,0,.38-.02.56-.06.07-.02.14-.04.21-.06l.31-.1c.09-.04.17-.08.25-.13l.23-.12c.3-.21.56-.47.76-.77.05-.07.09-.15.12-.23.05-.08.1-.16.13-.25.04-.1.08-.2.1-.31.02-.07.04-.14.06-.21.04-.18.06-.37.06-.56v-25.19c0-1.55-1.26-2.8-2.8-2.8ZM81.42,13.72c-.02-.07-.04-.14-.06-.21-.02-.11-.06-.21-.1-.31-.03-.09-.08-.17-.13-.25-.04-.09-.09-.18-.14-.26-.21-.31-.47-.57-.78-.78l-.22-.09c-.08-.05-.16-.09-.25-.13l-.3-.1-.22-.06c-.18-.04-.37-.06-.56-.06h-25.14c-1.55,0-2.8,1.25-2.8,2.8,0,1.28.86,2.35,2.03,2.68.25.07.5.12.77.12h18.4l-13.88,13.88c-1.1,1.1-1.1,2.9,0,4,.35.35.76.57,1.2.7.96.28,2.04.06,2.8-.7l13.84-13.91v18.4c0,.74.29,1.46.82,1.98.34.34.75.56,1.18.69.95.28,2.03.06,2.78-.69.53-.53.83-1.25.82-2V14.28c0-.19-.02-.38-.06-.56ZM34.46,11.45H9.31c-.19,0-.38.02-.56.06l-.21.06-.31.1c-.09.04-.17.08-.25.13l-.23.12c-.3.21-.56.47-.76.77-.05.07-.09.15-.12.23-.05.08-.1.16-.13.25-.04.1-.08.2-.1.31-.02.07-.04.14-.06.21-.04.18-.06.37-.06.56v25.19c0,1.27.85,2.32,2,2.67.26.08.52.13.8.13,1.55,0,2.8-1.25,2.8-2.8v-18.4l13.87,13.87c1.1,1.1,2.9,1.1,4,0,.6-.6.86-1.4.81-2.18-.04-.66-.3-1.31-.81-1.82l-10.91-10.83-3.02-3h18.4c.75,0,1.46-.3,1.98-.83.46-.45.73-1.05.79-1.68.01-.11.03-.21.03-.32,0-1.55-1.25-2.8-2.8-2.8Z"/>
      <path class="cls-1" d="M37.23,57.4c0-.08,0-.15-.07-.22-.07-.07,0-.21-.09-.31-.09-.1-.09-.17-.13-.25-.04-.08-.08-.16-.13-.23-.2-.31-.46-.57-.77-.77l-.23-.13-.25-.13-.31-.1c-.07-.03-.15-.05-.22-.06-.18-.04-.36-.06-.55-.06H9.3c-1.55.09-2.73,1.42-2.64,2.97.07,1.21.9,2.2,2.02,2.52.2.06.4.1.62.11h18.4l-3,3-10.87,10.87c-1.1,1.1-1.1,2.9,0,4,.35.35.76.57,1.2.7.96.28,2.04.06,2.8-.7l13.83-13.93v18.4c0,.75.29,1.47.82,2,.33.33.74.55,1.18.69.26.08.54.13.82.13,1.55,0,2.8-1.25,2.8-2.8v-25.16c0-.18-.02-.37-.05-.55Z"/>
    </g>
  </g>
</svg>