<svg xmlns="http://www.w3.org/2000/svg" viewBox="0 0 100 100"><defs><style>.cls-1{opacity:0.5;}.cls-2{fill:#ffa627;}</style></defs><g id="Layer_25" data-name="Layer 25"><g class="cls-1"><g class="cls-1"><polygon points="75.8 51.27 81.33 32.61 78.7 35.23 74.1 50.76 75.8 51.27"/><polygon points="57.39 56.48 56.2 57.66 67.55 61.03 67.97 59.61 57.39 56.48"/><polygon points="88.42 56.55 85.95 55.81 64.64 77.06 63.3 81.6 88.42 56.55"/><polygon class="cls-2" points="75.8 51.27 74.1 50.76 78.7 35.23 80.05 30.69 54.92 55.74 57.39 56.48 67.97 59.61 67.55 61.03 62.02 79.68 64.64 77.06 85.95 55.81 87.14 54.63 75.8 51.27"/></g><polygon points="69.83 42.04 76.74 18.73 73.46 22 67.71 41.41 69.83 42.04"/><polygon points="46.82 48.56 45.33 50.04 59.52 54.25 60.04 52.48 46.82 48.56"/><polygon points="85.61 48.65 82.52 47.73 55.88 74.29 54.2 79.97 85.61 48.65"/><polygon class="cls-2" points="69.83 42.04 67.71 41.41 73.46 22 75.14 16.33 43.73 47.64 46.82 48.56 60.04 52.48 59.52 54.25 52.6 77.56 55.88 74.29 82.52 47.73 84.01 46.25 69.83 42.04"/></g></g><g id="Layer_5" data-name="Layer 5"><polygon points="50.12 41.52 58.76 12.37 54.66 16.46 47.47 40.73 50.12 41.52"/><polygon points="21.36 49.66 19.5 51.52 37.23 56.77 37.88 54.56 21.36 49.66"/><polygon points="69.85 49.77 65.99 48.63 32.69 81.83 30.59 88.92 69.85 49.77"/><polygon class="cls-2" points="50.12 41.52 47.47 40.73 54.66 16.46 56.76 9.37 17.5 48.52 21.36 49.66 37.88 54.56 37.23 56.77 28.59 85.92 32.69 81.83 65.99 48.63 67.85 46.77 50.12 41.52"/></g></svg>