<svg id="icons" xmlns="http://www.w3.org/2000/svg" viewBox="0 0 100 100"><defs><style>.cls-1{fill:#e6e6e6;}.cls-2,.cls-3{opacity:0.25;}.cls-4{fill:#fff;opacity:0.5;}</style></defs><circle cx="52" cy="53" r="30.34"/><circle class="cls-1" cx="50" cy="50" r="30.34"/><path class="cls-2" d="M20.33,43.65A30.35,30.35,0,0,0,50,80.34a30.53,30.53,0,0,0,6.09-.61A43.57,43.57,0,0,1,20.33,43.65Z"/><g class="cls-3"><path d="M47.48,41.72l-4.09,2.49a5.47,5.47,0,0,1-3,1.09c-1.56,0-3.32-.78-3.32-3a3.19,3.19,0,0,1,1.61-2.9l10.25-6a3.81,3.81,0,0,1,2-.57,3.6,3.6,0,0,1,3.84,3.47V66.9a3.65,3.65,0,0,1-7.26,0Z"/></g><ellipse class="cls-4" cx="62.77" cy="34.82" rx="6.64" ry="12.87" transform="translate(-2.4 64.9) rotate(-53.8)"/></svg>