<svg xmlns="http://www.w3.org/2000/svg" viewBox="0 0 100 100"><defs><style>.cls-1{opacity:0.5;}.cls-2{fill:#fffffc;}.cls-3{fill:#ffa627;}.cls-4{opacity:0.7;}</style></defs><g id="Layer_25" data-name="Layer 25"><g class="cls-1"><path class="cls-2" d="M53.64,61.36a4,4,0,1,0,2.2-7.45A4.17,4.17,0,0,0,55,54a4.05,4.05,0,0,0-1.35,7.36Z"/><path class="cls-2" d="M88.16,70.74a4,4,0,0,0-.84.09,4.07,4.07,0,0,0-3.12,4.81,4,4,0,1,0,4-4.9Z"/><path class="cls-2" d="M56.68,45.08A4,4,0,0,0,58,37.73a4,4,0,0,0-2.19-.65,4.19,4.19,0,0,0-.86.09,4,4,0,1,0,1.69,7.91Z"/><path class="cls-2" d="M88.16,53.91a4,4,0,0,0-.84.09,4,4,0,1,0,4.24,6.16,4,4,0,0,0,.56-3A4.06,4.06,0,0,0,88.16,53.91Z"/><path d="M51.89,47.21a7.25,7.25,0,1,0-3.14-4.57A7.22,7.22,0,0,0,51.89,47.21Zm3.1-10a4.19,4.19,0,0,1,.86-.09,4.05,4.05,0,0,1,3.95,3.2A4,4,0,1,1,55,37.17Z"/><path d="M51.89,64a7.25,7.25,0,1,0-3.14-4.57A7.22,7.22,0,0,0,51.89,64ZM55,54a4.17,4.17,0,0,1,.85-.09,4,4,0,1,1-2.2,7.45A4.05,4.05,0,0,1,55,54Z"/><path d="M86.65,67.7a7.25,7.25,0,0,0-2.43,13.18A7.25,7.25,0,1,0,86.65,67.7ZM91.56,77a4.05,4.05,0,0,1-7.36-1.36,4.07,4.07,0,0,1,3.12-4.81,4,4,0,0,1,.84-.09,4.06,4.06,0,0,1,4,3.21A4,4,0,0,1,91.56,77Z"/><path d="M86.65,50.87a7.25,7.25,0,1,0,7.6,11,7.17,7.17,0,0,0,1-5.45A7.26,7.26,0,0,0,86.65,50.87Zm4.91,9.29a4,4,0,1,1,.56-3A4,4,0,0,1,91.56,60.16Z"/><path d="M84.45,39.53a4,4,0,0,1,2.87-2.36,4.05,4.05,0,0,1,3.05.56,4,4,0,1,1-5.92,5H81.1a7.25,7.25,0,1,0,0-3.2h3.35Z"/><path d="M59.25,77a4,4,0,0,1-2.57,1.79,4,4,0,0,1-4.8-3.11A4.05,4.05,0,0,1,55,70.83a4.17,4.17,0,0,1,.85-.09,4.06,4.06,0,0,1,3.9,3H63c0-.16,0-.32-.07-.48A7.27,7.27,0,1,0,62.75,77h-3.5Z"/><path class="cls-3" d="M82.75,42.73h1.7A4,4,0,0,0,89,45.08a4,4,0,0,0,1.36-7.35,4.05,4.05,0,0,0-3.05-.56,4,4,0,0,0-2.87,2.36H77l-1.54,1.15L65.8,73.76H59.74a4.06,4.06,0,0,0-3.9-3,4.17,4.17,0,0,0-.85.09,4.05,4.05,0,0,0-3.11,4.81A4,4,0,0,0,59.25,77H67l1.54-1.15,9.68-33.08h4.54Z"/></g></g><g id="icons_50" data-name="icons 50"><g class="cls-4"><path class="cls-2" d="M37,59.2a5.06,5.06,0,0,0,7.71-5.3,5.08,5.08,0,0,0-5-4,4.83,4.83,0,0,0-1.06.11,5.06,5.06,0,0,0-3.89,6A5,5,0,0,0,37,59.2Z"/><path class="cls-2" d="M80.2,70.94a5.43,5.43,0,0,0-1,.11A5.06,5.06,0,1,0,81.26,81a5,5,0,0,0,3.19-2.2,5,5,0,0,0,.7-3.8A5.06,5.06,0,0,0,80.2,70.94Z"/><path class="cls-2" d="M40.85,38.87a5.06,5.06,0,0,0,1.7-9.2,5,5,0,0,0-2.74-.82,4.88,4.88,0,0,0-1.07.12,5.06,5.06,0,0,0,2.11,9.9Z"/><path class="cls-2" d="M80.2,49.9a4.75,4.75,0,0,0-1,.11,5.06,5.06,0,1,0,5.3,7.7,5,5,0,0,0,.7-3.81A5.06,5.06,0,0,0,80.2,49.9Z"/><path d="M34.87,41.52A9,9,0,0,0,39.78,43a9.61,9.61,0,0,0,1.91-.2,9.06,9.06,0,1,0-6.82-1.26ZM38.74,29a4.88,4.88,0,0,1,1.07-.12,5,5,0,0,1,2.74.82,5.06,5.06,0,1,1-3.81-.7Z"/><path d="M34.87,62.56a9.06,9.06,0,1,0-3.93-5.71A9,9,0,0,0,34.87,62.56ZM38.74,50a4.83,4.83,0,0,1,1.06-.11,5.06,5.06,0,0,1,1.05,10A5.06,5.06,0,0,1,38.74,50Z"/><path d="M78.31,67.14a9.08,9.08,0,0,0-7,10.75,9.08,9.08,0,0,0,8.84,7.17,8.79,8.79,0,0,0,1.91-.2,9.06,9.06,0,1,0-3.78-17.72Zm6.14,11.61a5.06,5.06,0,0,1-7,1.5,5.06,5.06,0,0,1,1.7-9.2,5.43,5.43,0,0,1,1-.11,5.06,5.06,0,0,1,5,4A5,5,0,0,1,84.45,78.75Z"/><path d="M78.31,46.1A9.06,9.06,0,0,0,80.2,64a8.67,8.67,0,0,0,1.89-.2A9.06,9.06,0,1,0,78.31,46.1Zm6.14,11.61a5,5,0,0,1-3.19,2.2A5.06,5.06,0,1,1,79.15,50a4.75,4.75,0,0,1,1-.11,5.06,5.06,0,0,1,5,4A5,5,0,0,1,84.45,57.71Z"/><path d="M75.56,31.92a5,5,0,0,1,3.59-3,4.79,4.79,0,0,1,1.06-.12,5.06,5.06,0,0,1,4.94,4,5,5,0,0,1-.7,3.81,5.05,5.05,0,0,1-8.89-.75H71.37A9.08,9.08,0,0,0,80.2,43a9.34,9.34,0,0,0,1.89-.2A9.06,9.06,0,1,0,71.38,31.92h4.18Z"/><path d="M44.07,78.71a5.06,5.06,0,1,1-5.33-7.66,5.53,5.53,0,0,1,1.06-.11,5.06,5.06,0,0,1,4.87,3.77h4.08c0-.2,0-.4-.09-.6a9.06,9.06,0,0,0-17.72,3.78,9.06,9.06,0,0,0,10.75,7,9.06,9.06,0,0,0,6.75-6.15H44.07Z"/><path class="cls-3" d="M73.44,35.92h2.12a5.05,5.05,0,0,0,8.89.75,5,5,0,0,0,.7-3.81,5.06,5.06,0,0,0-4.94-4,4.79,4.79,0,0,0-1.06.12,5,5,0,0,0-3.59,3h-9.3l-1.92,1.43L52.24,74.71H44.67a5.06,5.06,0,0,0-4.87-3.77,5.53,5.53,0,0,0-1.06.11,5.06,5.06,0,1,0,5.33,7.66h9.67l1.92-1.44,12.1-41.35h5.68Z"/></g></g><g id="Layer_5" data-name="Layer 5"><path class="cls-2" d="M15.3,56.27a6.33,6.33,0,1,0,3.45-11.64,6.58,6.58,0,0,0-1.32.14,6.33,6.33,0,0,0-2.13,11.5Z"/><path class="cls-2" d="M69.26,70.94a6.08,6.08,0,0,0-1.33.14,6.33,6.33,0,1,0,1.33-.14Z"/><path class="cls-2" d="M20.07,30.84a6.33,6.33,0,0,0-1.31-12.51,6.68,6.68,0,0,0-1.33.14,6.32,6.32,0,1,0,2.64,12.37Z"/><path class="cls-2" d="M69.26,44.63a6.76,6.76,0,0,0-1.33.14,6.32,6.32,0,1,0,1.33-.14Z"/><path d="M12.58,34.16A11.33,11.33,0,1,0,7.67,27,11.3,11.3,0,0,0,12.58,34.16Zm4.85-15.69a6.68,6.68,0,0,1,1.33-.14,6.33,6.33,0,1,1-1.33.14Z"/><path d="M12.58,60.46a11.22,11.22,0,0,0,6.14,1.83A12.13,12.13,0,0,0,21.11,62a11.33,11.33,0,1,0-8.53-1.58Zm4.85-15.69a6.58,6.58,0,0,1,1.32-.14,6.33,6.33,0,1,1-1.32.14Z"/><path d="M66.89,66.19a11.32,11.32,0,0,0,2.34,22.4,11.49,11.49,0,0,0,2.39-.25,11.32,11.32,0,0,0-4.73-22.15ZM74.56,80.7a6.32,6.32,0,1,1-6.63-9.62,6.08,6.08,0,0,1,1.33-.14,6.32,6.32,0,0,1,5.3,9.76Z"/><path d="M66.89,39.88a11.33,11.33,0,0,0,2.36,22.41A12.08,12.08,0,0,0,71.62,62a11.33,11.33,0,0,0-4.73-22.16ZM74.56,54.4a6.33,6.33,0,1,1-6.63-9.63,6.76,6.76,0,0,1,1.33-.14,6.33,6.33,0,0,1,5.3,9.77Z"/><path d="M63.45,22.16a6.33,6.33,0,0,1,4.48-3.69,6.85,6.85,0,0,1,1.34-.14,6.33,6.33,0,0,1,5.29,9.77,6.25,6.25,0,0,1-4,2.74,6.32,6.32,0,0,1-7.12-3.68H58.21a11.36,11.36,0,1,0,0-5h5.23Z"/><path d="M24.08,80.64a6.32,6.32,0,1,1-6.65-9.56,5.92,5.92,0,0,1,1.32-.14,6.32,6.32,0,0,1,6.09,4.7h5.1a6.69,6.69,0,0,0-.12-.74,11.36,11.36,0,1,0-.28,5.74H24.08Z"/><path class="cls-3" d="M60.8,27.16h2.65a6.32,6.32,0,0,0,7.12,3.68A6.33,6.33,0,0,0,72.7,19.35a6.31,6.31,0,0,0-3.43-1,6.85,6.85,0,0,0-1.34.14,6.33,6.33,0,0,0-4.48,3.69H51.82L49.42,24,34.3,75.64H24.84a6.32,6.32,0,0,0-6.09-4.7,5.92,5.92,0,0,0-1.32.14,6.32,6.32,0,1,0,6.65,9.56h12.1l2.4-1.79L53.7,27.16h7.1Z"/></g></svg>