<svg id="icons" xmlns="http://www.w3.org/2000/svg" viewBox="0 0 200 100">
    <defs>
        <style>
            .cls-1{fill:gray;}.cls-2{opacity:0.25;}.cls-3{fill:#fff;opacity:0.5;}.cls-4{fill:#e6e6e6;}.cls-5{fill:#ccc;}
        </style>
    </defs>
    <path d="M154.44,21.4a25.24,25.24,0,0,0-23.26,35.06,23.94,23.94,0,0,0,1.67,3.27A25.24,25.24,0,1,0,154.44,21.4ZM49.56,18.13a25.24,25.24,0,0,0,0,50.48h0a25.24,25.24,0,1,0,0-50.48ZM101.32,40.3A25.26,25.26,0,0,0,78.57,76.49a25.5,25.5,0,0,0,1.82,3.17A25.25,25.25,0,1,0,101.32,40.3Z"/>
    <circle class="cls-1" cx="152.44" cy="43.64" r="25.24"/>
    <path class="cls-2" d="M127.76,38.34a25.21,25.21,0,0,0,30,30A37,37,0,0,1,127.76,38.34Z"/>
    <path class="cls-2"
          d="M154.42,40.62c3.83.7,6.41,3.39,6.41,7.36s-2.76,8.8-9.17,8.8c-1.73,0-7.61-.48-7.61-3.54A2.37,2.37,0,0,1,146.47,51c1.55,0,2.51,1.36,5,1.36a3.87,3.87,0,0,0,4.23-4.12c0-2.43-1.62-3.38-4.19-3.38-1,0-1,.4-1.88.4a2.39,2.39,0,0,1-2.39-2.43,1.34,1.34,0,0,1,.25-.88L153,35.25h-5.93a2.41,2.41,0,0,1-2.54-2.32,2.48,2.48,0,0,1,2.54-2.43h10.27A2.51,2.51,0,0,1,160,33a2.59,2.59,0,0,1-.59,1.66Z"/>
    <ellipse class="cls-3" cx="163.44" cy="31.39" rx="5.53" ry="10.71"
             transform="translate(41.58 144.73) rotate(-53.8)"/>
    <circle class="cls-4" cx="47.56" cy="40.37" r="25.24"/>
    <path class="cls-2" d="M22.89,35.07a25.21,25.21,0,0,0,30,30A37,37,0,0,1,22.89,35.07Z"/>
    <path class="cls-2"
          d="M45.25,33.43l-2.9,1.77a3.92,3.92,0,0,1-2.17.77,2.11,2.11,0,0,1-2.36-2.13A2.25,2.25,0,0,1,39,31.78l7.29-4.27a2.61,2.61,0,0,1,1.43-.41,2.56,2.56,0,0,1,2.73,2.47V51.32a2.59,2.59,0,0,1-5.16,0Z"/>
    <ellipse class="cls-3" cx="58.57" cy="28.12" rx="5.53" ry="10.71" transform="translate(1.29 58.77) rotate(-53.8)"/>
    <circle class="cls-5" cx="99.32" cy="62.54" r="25.24"/>
    <path class="cls-2"
          d="M74.65,57.25a24.85,24.85,0,0,0-.57,5.29A25.25,25.25,0,0,0,99.32,87.79a25.69,25.69,0,0,0,5.3-.57A37,37,0,0,1,74.65,57.25Z"/>
    <path class="cls-2"
          d="M105.41,75.85H93.31a2.46,2.46,0,0,1-2.62-2.43,4.14,4.14,0,0,1,.3-1.73c1.47-3.24,4.16-5.6,6.77-7.95,2-1.84,5-3.94,5-6.66a3.18,3.18,0,0,0-3.46-3.35,7.67,7.67,0,0,0-3.09.59,6.6,6.6,0,0,1-2.62,1,2.38,2.38,0,0,1-2.5-2.24c0-2.69,5.26-3.83,8.24-3.83,5.38,0,8.5,3.31,8.5,7.47a9.46,9.46,0,0,1-2.9,7c-2.47,2.57-5.71,4.85-7.69,7.58h8.2A2.38,2.38,0,0,1,108,73.53,2.41,2.41,0,0,1,105.41,75.85Z"/>
    <ellipse class="cls-3" cx="110.32" cy="50.29" rx="5.53" ry="10.71"
             transform="translate(4.58 109.61) rotate(-53.8)"/>
</svg>