<svg id="icons" xmlns="http://www.w3.org/2000/svg" viewBox="0 0 100 100"><defs><style>.cls-1{fill:#4d8dfc;}</style></defs><path class="cls-1" d="M55.75,19.37a8.53,8.53,0,0,0-13,8.94,8.6,8.6,0,0,0,1.39,3.15,8.47,8.47,0,0,0,2.32,2.22,8,8,0,0,0,1.68.84,8.48,8.48,0,0,0,4.74.35c.16,0,.31-.08.46-.12a8.5,8.5,0,0,0,4.23-2.67,10.35,10.35,0,0,0,.69-.91,8.54,8.54,0,0,0-2.52-11.8ZM84.21,66.88a8.47,8.47,0,0,0-4.63-1.38,9.25,9.25,0,0,0-1.8.19l-.22.06a8.47,8.47,0,0,0-4.3,2.55,7.67,7.67,0,0,0-.85,1.1,8.34,8.34,0,0,0-1,2.14,8.49,8.49,0,0,0-.19,4.28c0,.24.12.48.19.72a8.53,8.53,0,1,0,12.8-9.66ZM29.1,71.54a8.8,8.8,0,0,0-1.35-2.64,8.54,8.54,0,0,0-2.17-2,8.72,8.72,0,0,0-1.9-.91A8.41,8.41,0,0,0,21,65.5a9.17,9.17,0,0,0-1.8.19A8.53,8.53,0,1,0,29.1,76.54a8.6,8.6,0,0,0,.19-4.28C29.23,72,29.17,71.77,29.1,71.54Z"/><path d="M86.93,62.68a13.22,13.22,0,0,0-12-1.34L60.22,36.52a13.85,13.85,0,0,0,2.24-2.63,13.54,13.54,0,0,0-4-18.72A13.53,13.53,0,0,0,41.46,36L26.27,61.61a13.53,13.53,0,1,0-5.35,26,13.87,13.87,0,0,0,2.85-.3A13.51,13.51,0,0,0,34.24,76.54h32c0,.11,0,.21,0,.32A13.53,13.53,0,0,0,79.54,87.57a13.8,13.8,0,0,0,2.85-.3,13.53,13.53,0,0,0,4.54-24.59Zm-5.58,19.7a8.51,8.51,0,0,1-9.94-5.84c-.07-.24-.14-.48-.19-.72a8.49,8.49,0,0,1,.19-4.28,8.34,8.34,0,0,1,1-2.14,7.67,7.67,0,0,1,.85-1.1,8.47,8.47,0,0,1,4.3-2.55l.22-.06a9.25,9.25,0,0,1,1.8-.19,8.53,8.53,0,0,1,1.77,16.88ZM44,21.88a8.53,8.53,0,0,1,14.32,9.29,10.35,10.35,0,0,1-.69.91,8.5,8.5,0,0,1-4.23,2.67c-.15,0-.3.09-.46.12a8.48,8.48,0,0,1-4.74-.35,8,8,0,0,1-1.68-.84,8.47,8.47,0,0,1-2.32-2.22,8.5,8.5,0,0,1-.2-9.58Zm1.62,17a13.29,13.29,0,0,0,5.51,1.19,13.8,13.8,0,0,0,2.85-.3,14,14,0,0,0,2-.62L70.63,63.88a13.3,13.3,0,0,0-2.42,2.8,13.54,13.54,0,0,0-1.95,4.86h-32a13.44,13.44,0,0,0-3.79-7.15ZM29.29,72.26a8.6,8.6,0,0,1-.19,4.28,8.53,8.53,0,1,1-9.94-10.85A9.17,9.17,0,0,1,21,65.5a8.41,8.41,0,0,1,2.72.47,8.72,8.72,0,0,1,1.9.91,8.54,8.54,0,0,1,2.17,2,8.8,8.8,0,0,1,1.35,2.64C29.17,71.77,29.23,72,29.29,72.26Z"/></svg>