<svg id="icons" xmlns="http://www.w3.org/2000/svg" viewBox="0 0 100 100"><defs><style>.cls-1{fill:#4d8dfc;}.cls-2{fill:#fff;}</style></defs><rect x="27.07" y="27.07" width="45.85" height="45.85"/><rect class="cls-1" x="17.31" y="31.19" width="65.38" height="37.62"/><path class="cls-2" d="M75.43,22.07H24.57a2.5,2.5,0,0,0-2.5,2.5V75.43a2.5,2.5,0,0,0,2.5,2.5H75.43a2.5,2.5,0,0,0,2.5-2.5V24.57A2.5,2.5,0,0,0,75.43,22.07Zm-48.36,5H72.93V72.93H27.07Z"/><path class="cls-2" d="M50.13,54l-3.2,3.2a2.8,2.8,0,0,1-4,.08,2.86,2.86,0,0,1,.12-4l3.19-3.2,4.1-4.1,3.2-3.2a2.9,2.9,0,0,1,4-.11,2.83,2.83,0,0,1-.08,4l-3.19,3.2Z"/></svg>