<svg xmlns="http://www.w3.org/2000/svg" viewBox="0 0 100 100">
    <defs>
        <style>.cls-1{opacity:0.5;}.cls-2{fill:#fff;}.cls-3{opacity:0.7;}.cls-4{fill:#4d8dfc;}</style>
    </defs>
    <g id="Layer_25" data-name="Layer 25">
        <g class="cls-1">
            <path d="M49.6,43.75,64.74,61.29V61l-15.8-18.3A3.66,3.66,0,0,0,49.6,43.75Zm43.51-5.56a3.73,3.73,0,0,1-.74,3.64L75.56,61.3V73.09a5.41,5.41,0,0,1-9,4A5.42,5.42,0,0,0,76.94,75V63.22L93.75,43.75A3.8,3.8,0,0,0,93.11,38.19Zm-23,38.39a3.49,3.49,0,1,0-3.49-3.49A3.49,3.49,0,0,0,70.15,76.58Z"/>
            <path class="cls-2"
                  d="M93.11,38.19a3.76,3.76,0,0,0-3.61-2.65H51.1a3.8,3.8,0,0,0-2.88,6.29l.72.83L64.74,61V73.09a5.41,5.41,0,1,0,10.82,0V61.3L92.37,41.83A3.73,3.73,0,0,0,93.11,38.19ZM66.66,73.09a3.49,3.49,0,1,1,3.49,3.49A3.49,3.49,0,0,1,66.66,73.09Z"/>
        </g>
    </g>
    <g id="icons_50" data-name="icons 50">
        <g class="cls-3">
            <path d="M32.25,37.19,51.18,59.11v-.4L31.43,35.83A4.57,4.57,0,0,0,32.25,37.19Zm54.4-6.95a4.69,4.69,0,0,1-.93,4.55l-21,24.34V73.87a6.76,6.76,0,0,1-11.28,5,6.77,6.77,0,0,0,13-2.63V61.53l21-24.34A4.76,4.76,0,0,0,86.65,30.24Zm-28.71,48a4.37,4.37,0,1,0-4.36-4.36A4.37,4.37,0,0,0,57.94,78.23Z"/>
            <path class="cls-2"
                  d="M86.65,30.24a4.72,4.72,0,0,0-4.53-3.31h-48a4.75,4.75,0,0,0-3.59,7.86l.9,1L51.18,58.71V73.87a6.77,6.77,0,0,0,13.53,0V59.13l21-24.34A4.69,4.69,0,0,0,86.65,30.24ZM53.58,73.87a4.37,4.37,0,1,1,4.36,4.36A4.37,4.37,0,0,1,53.58,73.87Z"/>
        </g>
    </g>
    <g id="Layer_5" data-name="Layer 5">
        <path d="M9.57,28.74l23.65,27.4v-.5L8.54,27.05A6,6,0,0,0,9.57,28.74Zm68-8.68a5.81,5.81,0,0,1-1.16,5.68L50.14,56.17V74.59A8.45,8.45,0,0,1,36,80.88a8.46,8.46,0,0,0,16.25-3.29V59.17L78.56,28.74A5.94,5.94,0,0,0,77.56,20.06Zm-35.88,60a5.46,5.46,0,1,0-5.46-5.46A5.47,5.47,0,0,0,41.68,80.05Z"/>
        <path class="cls-2"
              d="M77.56,20.06a5.88,5.88,0,0,0-5.65-4.14h-60a5.94,5.94,0,0,0-4.5,9.82l1.13,1.31L33.22,55.64v19a8.46,8.46,0,0,0,16.92,0V56.17L76.4,25.74A5.81,5.81,0,0,0,77.56,20.06ZM36.22,74.59a5.46,5.46,0,1,1,5.46,5.46A5.47,5.47,0,0,1,36.22,74.59Z"/>
    </g>
    <g id="icons">
        <path class="cls-4" d="M37,42.3a8.45,8.45,0,0,0,6.42,1.18A8.53,8.53,0,0,0,46.32,28,8.53,8.53,0,0,0,37,42.3Z"/>
    </g>
</svg>