<svg id="icons" xmlns="http://www.w3.org/2000/svg" viewBox="0 0 100 100"><circle cx="51.47" cy="26.55" r="11.03" style="fill:#4d8dfc;stroke:#000;stroke-linecap:round;stroke-miterlimit:10;stroke-width:5px"/><line x1="22.16" y1="74.06" x2="79.93" y2="74.06" style="fill:none;stroke:#000;stroke-linecap:round;stroke-miterlimit:10;stroke-width:5px"/><path d="M84.06,19.92h-60a5.94,5.94,0,0,0-4.49,9.82l25.81,29.9v19a8.46,8.46,0,1,0,16.91,0V60.17L88.56,29.74A5.94,5.94,0,0,0,84.06,19.92Z"/><line x1="36.87" y1="49.28" x2="22.16" y2="74.06" style="fill:none;stroke:#000;stroke-linecap:round;stroke-miterlimit:10;stroke-width:5px"/><line x1="79.93" y1="74.06" x2="65.93" y2="50.46" style="fill:none;stroke:#000;stroke-linecap:round;stroke-miterlimit:10;stroke-width:5px"/><circle cx="79.93" cy="74.06" r="11.03" style="fill:#4d8dfc;stroke:#000;stroke-linecap:round;stroke-miterlimit:10;stroke-width:5px"/><circle cx="21.31" cy="74.06" r="11.03" style="fill:#4d8dfc;stroke:#000;stroke-linecap:round;stroke-miterlimit:10;stroke-width:5px"/><path d="M81.91,16.92h-60a5.94,5.94,0,0,0-4.5,9.82l25.81,29.9v19H60.14V57.17L86.4,26.74A5.94,5.94,0,0,0,81.91,16.92Z" style="fill:#ffa627"/><circle cx="51.68" cy="75.59" r="6.96"/><path d="M51.68,70.13a5.46,5.46,0,1,1-5.46,5.46,5.47,5.47,0,0,1,5.46-5.46m0-3a8.46,8.46,0,1,0,8.46,8.46,8.46,8.46,0,0,0-8.46-8.46Z" style="fill:#ffa627"/></svg>