<?xml version="1.0" encoding="UTF-8"?>
<svg id="icons" xmlns="http://www.w3.org/2000/svg" viewBox="0 0 100 100">
  <defs>
    <style>
      .cls-1 {
        fill: #fffffc;
      }

      .cls-2 {
        fill: #ffa627;
      }
    </style>
  </defs>
  <path class="cls-2" d="M58.34,50.18c-.48-2.23-1.79-4.14-3.7-5.38-1.4-.91-3-1.38-4.62-1.38-.6,0-1.2.06-1.8.19-4.49.96-7.4,5.31-6.62,9.8l-2.04,2.1-1.91,1.97-8.08,8.3-1.91,1.96-2.04,2.09c-.41-.06-.82-.1-1.23-.1-.59,0-1.18.06-1.78.19-4.6.98-7.55,5.52-6.56,10.12.98,4.6,5.52,7.55,10.12,6.56,2.23-.48,4.14-1.79,5.38-3.7,1.18-1.82,1.61-3.97,1.24-6.1l2.04-2.1,1.91-1.97,8.07-8.29,1.91-1.96,2.04-2.09c.99.14,2.01.12,3.02-.09,2.23-.47,4.14-1.79,5.38-3.7,1.24-1.91,1.66-4.19,1.19-6.42Z"/>
  <path class="cls-2" d="M70.26,32.82c1.91,1.24,4.19,1.66,6.42,1.18,2.23-.48,4.14-1.79,5.38-3.7,1.24-1.91,1.66-4.19,1.18-6.42-.48-2.23-1.79-4.14-3.7-5.38-1.4-.91-3-1.38-4.62-1.38-.6,0-1.2.06-1.8.19-2.23.47-4.14,1.79-5.38,3.7-1.24,1.91-1.66,4.19-1.18,6.42.47,2.23,1.79,4.14,3.7,5.38Z"/>
  <path class="cls-1" d="M74.9,69.73c-.59,0-1.18.06-1.78.19-2.23.48-4.14,1.79-5.38,3.7-1.24,1.91-1.66,4.19-1.18,6.42.47,2.23,1.79,4.14,3.7,5.38,1.91,1.24,4.19,1.66,6.42,1.18,2.23-.48,4.14-1.79,5.38-3.7,1.24-1.91,1.66-4.19,1.18-6.42-.85-4-4.4-6.75-8.34-6.75Z"/>
  <path class="cls-1" d="M19.75,32.82c1.91,1.24,4.19,1.66,6.42,1.18,4.6-.98,7.55-5.52,6.56-10.12-.48-2.23-1.79-4.14-3.7-5.38-1.4-.91-3-1.38-4.62-1.38-.6,0-1.2.06-1.8.19-2.23.47-4.14,1.79-5.38,3.7-1.24,1.91-1.66,4.19-1.19,6.42s1.79,4.14,3.7,5.38Z"/>
  <path d="M67.54,37.01c2.22,1.44,4.75,2.18,7.33,2.18.95,0,1.9-.1,2.85-.3,7.3-1.56,11.97-8.76,10.41-16.06-1.56-7.3-8.75-11.97-16.06-10.41-3.54.75-6.56,2.84-8.53,5.87-1.97,3.03-2.63,6.65-1.88,10.19s2.84,6.56,5.87,8.53ZM67.74,21.01c1.24-1.91,3.15-3.23,5.38-3.7.6-.13,1.2-.19,1.8-.19,1.63,0,3.22.47,4.62,1.38,1.91,1.24,3.23,3.15,3.7,5.38.48,2.23.05,4.51-1.18,6.42-1.24,1.91-3.15,3.23-5.38,3.7-2.23.48-4.51.06-6.42-1.18s-3.23-3.15-3.7-5.38c-.48-2.23-.05-4.51,1.18-6.42ZM63.23,49.14c-.75-3.54-2.84-6.56-5.87-8.53-3.03-1.97-6.65-2.63-10.18-1.88-7.3,1.56-11.97,8.76-10.41,16.06.2.94.5,1.84.88,2.7l1.91-1.97,2.04-2.1c-.78-4.49,2.12-8.84,6.62-9.8.6-.13,1.2-.19,1.8-.19,1.63,0,3.23.47,4.62,1.38,1.91,1.24,3.23,3.15,3.7,5.38s.05,4.51-1.19,6.42c-1.24,1.91-3.15,3.23-5.38,3.7-1.01.22-2.03.24-3.02.09l-2.04,2.09-1.91,1.96c1.64.68,3.38,1.04,5.16,1.04.95,0,1.9-.1,2.85-.3,3.54-.75,6.56-2.84,8.53-5.87,1.97-3.03,2.63-6.65,1.88-10.19ZM36.74,72.74l-1.91,1.97-2.04,2.1c.37,2.12-.06,4.28-1.24,6.1-1.24,1.91-3.15,3.23-5.38,3.7-4.6.98-9.14-1.96-10.12-6.56-.98-4.6,1.96-9.14,6.56-10.12.6-.13,1.19-.19,1.78-.19.42,0,.83.04,1.23.1l2.04-2.09,1.91-1.96c-2.45-1.02-5.22-1.34-8-.75-7.3,1.56-11.97,8.76-10.41,16.06,1.36,6.35,6.99,10.71,13.23,10.71.93,0,1.88-.1,2.83-.3,3.54-.75,6.56-2.84,8.53-5.87,1.97-3.03,2.63-6.65,1.88-10.18-.2-.95-.5-1.85-.88-2.7ZM88.13,75.44c-1.56-7.3-8.76-11.96-16.06-10.41-7.3,1.56-11.97,8.76-10.41,16.06.75,3.54,2.84,6.56,5.87,8.53,2.22,1.44,4.75,2.18,7.33,2.18.95,0,1.9-.1,2.85-.3,3.54-.75,6.57-2.84,8.53-5.87,1.97-3.03,2.63-6.65,1.88-10.18ZM82.06,82.9c-1.24,1.91-3.15,3.23-5.38,3.7-2.23.48-4.51.05-6.42-1.18-1.91-1.24-3.23-3.15-3.7-5.38-.48-2.23-.05-4.51,1.18-6.42,1.24-1.91,3.15-3.23,5.38-3.7.6-.13,1.19-.19,1.78-.19,3.94,0,7.49,2.75,8.34,6.75.48,2.23.05,4.51-1.18,6.42ZM24.39,39.19c.93,0,1.88-.1,2.83-.3,7.3-1.56,11.97-8.76,10.41-16.06-.75-3.54-2.84-6.57-5.87-8.53-3.03-1.97-6.65-2.63-10.18-1.88-3.54.75-6.56,2.84-8.53,5.87-1.97,3.03-2.63,6.65-1.88,10.19,1.36,6.35,6.98,10.71,13.23,10.71ZM17.23,21.01c1.24-1.91,3.15-3.23,5.38-3.7.6-.13,1.2-.19,1.8-.19,1.63,0,3.22.47,4.62,1.38,1.91,1.24,3.23,3.15,3.7,5.38.98,4.6-1.96,9.14-6.56,10.12-2.23.48-4.51.06-6.42-1.18-1.91-1.24-3.23-3.15-3.7-5.38s-.05-4.51,1.19-6.42Z"/>
</svg>