<svg id="icons" xmlns="http://www.w3.org/2000/svg" viewBox="0 0 200 100"><defs><style>.cls-1{fill:none;stroke:#000;stroke-miterlimit:10;stroke-width:5px;opacity:0.5;}.cls-2{fill:#cb2600;}.cls-3{fill:#b3b3b3;}.cls-4{fill:#2c80ed;}</style></defs><circle cx="42.28" cy="50.03" r="29.75"/><line class="cls-1" x1="46.38" y1="52.08" x2="155.63" y2="52.08"/><path d="M37.41,67.18v-.05a3.45,3.45,0,0,1-3,1.93A3.28,3.28,0,0,1,31.2,66a3.57,3.57,0,0,1,.47-1.59l8.13-13L32.33,39.66a3.86,3.86,0,0,1-.37-1.6,3.18,3.18,0,0,1,3.14-3,3.92,3.92,0,0,1,3.24,2.16L43.65,46,49,37.26a4.14,4.14,0,0,1,3.28-2.16,3.11,3.11,0,0,1,3.1,3,4.14,4.14,0,0,1-.42,1.55L47.5,51.45l8.13,13A3.56,3.56,0,0,1,56.09,66,3.3,3.3,0,0,1,53,69.06a3.47,3.47,0,0,1-3.06-1.88L43.65,56.85Z"/><path class="cls-2" d="M36,65.13v0A3.45,3.45,0,0,1,33,67,3.27,3.27,0,0,1,29.84,64a3.57,3.57,0,0,1,.47-1.59l8.12-13L31,37.61a3.72,3.72,0,0,1-.38-1.6,3.18,3.18,0,0,1,3.15-2.95A3.93,3.93,0,0,1,37,35.22L42.28,44l5.31-8.73a4.13,4.13,0,0,1,3.29-2.16,3.11,3.11,0,0,1,3.1,3,4,4,0,0,1-.43,1.55L46.13,49.4l8.13,13A3.57,3.57,0,0,1,54.73,64,3.3,3.3,0,0,1,51.58,67a3.45,3.45,0,0,1-3-1.88L42.28,54.8Z"/><path d="M153.66,66V55.67L145.4,39.52a3.69,3.69,0,0,1-.29-1.36,3.34,3.34,0,0,1,3.34-3.06,3.06,3.06,0,0,1,2.67,1.41L157,48.16l5.82-11.65a3.08,3.08,0,0,1,2.72-1.41,3.34,3.34,0,0,1,3.34,3.06,4.82,4.82,0,0,1-.33,1.36l-8.22,16.15V66a3.34,3.34,0,0,1-6.67,0Z"/><path class="cls-3" d="M152.3,63.91V53.62L144,37.47a3.9,3.9,0,0,1-.28-1.36,3.32,3.32,0,0,1,3.33-3,3.05,3.05,0,0,1,2.68,1.4l5.87,11.65,5.82-11.65a3.09,3.09,0,0,1,2.73-1.4,3.32,3.32,0,0,1,3.33,3,4.82,4.82,0,0,1-.33,1.36L159,53.62V63.91a3.24,3.24,0,0,1-3.33,3.1A3.21,3.21,0,0,1,152.3,63.91Z"/><path d="M110.47,68.63H94.37A3.27,3.27,0,0,1,91,65.44a6.06,6.06,0,0,1,.66-2.07c4.6-7.6,8.64-14.08,13.29-21.78H94.32a3.08,3.08,0,0,1-3.24-3,3.15,3.15,0,0,1,3.24-3h15.92a3.24,3.24,0,0,1,3.42,3.14,3.73,3.73,0,0,1-.65,2L99.62,62.57h10.85a3,3,0,1,1,0,6.06Z"/><path class="cls-4" d="M109.1,66.58H93a3.26,3.26,0,0,1-3.38-3.19,6,6,0,0,1,.65-2.07c4.61-7.6,8.64-14.08,13.29-21.78H93a3.09,3.09,0,0,1-3.24-3A3.15,3.15,0,0,1,93,33.48h15.92a3.25,3.25,0,0,1,3.43,3.14,3.65,3.65,0,0,1-.66,2L98.26,60.53H109.1a3,3,0,1,1,0,6Z"/></svg>