<svg id="icons" xmlns="http://www.w3.org/2000/svg" viewBox="0 0 100 100"><defs><style>.cls-1{fill:#ffa627;}</style></defs><path d="M86.64,50.5H78c-.09-.69-.2-1.38-.35-2.08a26.19,26.19,0,0,0-23-20.58V18.51h-5v9.3A26.08,26.08,0,0,0,26,50.5H17.66v5h8.2a25.62,25.62,0,0,0,.53,3.85A26.18,26.18,0,0,0,49.65,80v7.52h5V79.94a27.31,27.31,0,0,0,2.81-.44,26.19,26.19,0,0,0,20.68-24h8.5ZM56.42,74.61c-.58.12-1.18.22-1.77.29V65.25h-5v9.68A21.29,21.29,0,0,1,31.28,58.31a22.59,22.59,0,0,1-.39-2.81h9v-5H31.09A21.17,21.17,0,0,1,47.58,33.16q1-.21,2.07-.33v7.92h5V32.88A21.29,21.29,0,0,1,72.72,49.47c.08.34.14.69.2,1H64.4v5h8.72A21.23,21.23,0,0,1,56.42,74.61Z"/><path class="cls-1" d="M84.64,47.5H76c-.09-.69-.2-1.38-.35-2.08a26.19,26.19,0,0,0-23-20.58V15.51h-5v9.3A26.08,26.08,0,0,0,24,47.5H15.66v5h8.2a25.62,25.62,0,0,0,.53,3.85A26.18,26.18,0,0,0,47.65,77v7.52h5V76.94a27.31,27.31,0,0,0,2.81-.44,26.19,26.19,0,0,0,20.68-24h8.5ZM54.42,71.61c-.58.12-1.18.22-1.77.29V62.25h-5v9.68A21.29,21.29,0,0,1,29.28,55.31a22.59,22.59,0,0,1-.39-2.81h9v-5H29.09A21.17,21.17,0,0,1,45.58,30.16q1-.21,2.07-.33v7.92h5V29.88A21.29,21.29,0,0,1,70.72,46.47c.08.34.14.69.2,1H62.4v5h8.72A21.23,21.23,0,0,1,54.42,71.61Z"/></svg>