<svg xmlns="http://www.w3.org/2000/svg" viewBox="0 0 100 100"><defs><style>.cls-1{fill:#ffa627;}.cls-2{fill:#4d8dfc;}</style></defs><g id="icons"><path class="cls-1" d="M79.67,65a5,5,0,0,0-5,5v5h-5a5,5,0,0,0-2.37,9.37,4.87,4.87,0,0,0,2.37.63h10a5,5,0,0,0,5-5V70A4.91,4.91,0,0,0,84,67.58,5,5,0,0,0,79.67,65ZM55.38,75H44a5,5,0,0,0-2.38,9.37A4.91,4.91,0,0,0,44,85H55.38a5,5,0,0,0,5-5,4.9,4.9,0,0,0-.62-2.38A5,5,0,0,0,55.38,75ZM29.67,75h-5V70A4.91,4.91,0,0,0,24,67.58,5,5,0,0,0,14.67,70V80a5,5,0,0,0,2.63,4.37,4.87,4.87,0,0,0,2.37.63h10a5,5,0,0,0,5-5A4.91,4.91,0,0,0,34,77.58,5,5,0,0,0,29.67,75ZM17.3,60.05a5,5,0,0,0,7.37-4.38V44.24A4.9,4.9,0,0,0,24,41.87a5,5,0,0,0-9.37,2.37V55.67A5,5,0,0,0,17.3,60.05ZM29.67,15h-10a5,5,0,0,0-5,5V30a5,5,0,0,0,2.63,4.37,4.87,4.87,0,0,0,2.37.63,5,5,0,0,0,5-5V25h5a5,5,0,0,0,5-5A4.91,4.91,0,0,0,34,17.58,5,5,0,0,0,29.67,15Zm25.71,0H44a5,5,0,0,0-2.38,9.37A4.91,4.91,0,0,0,44,25H55.38a5,5,0,0,0,5-5,4.9,4.9,0,0,0-.62-2.38A5,5,0,0,0,55.38,15ZM84,17.58A5,5,0,0,0,79.67,15h-10a5,5,0,0,0-2.37,9.37,4.87,4.87,0,0,0,2.37.63h5v5a5,5,0,0,0,2.63,4.37,4.87,4.87,0,0,0,2.37.63,5,5,0,0,0,5-5V20A4.91,4.91,0,0,0,84,17.58ZM79.67,39.24a5,5,0,0,0-5,5V55.67a5,5,0,0,0,10,0V44.24A4.9,4.9,0,0,0,84,41.87,5,5,0,0,0,79.67,39.24Z"/><path class="cls-2" d="M54.31,42.8a8.44,8.44,0,0,0-4.62-1.38,9.17,9.17,0,0,0-1.8.19A8.54,8.54,0,0,0,45,57.12,8.53,8.53,0,0,0,54.31,42.8Z"/><path d="M84,67.58A4.91,4.91,0,0,1,84.67,70V80a5,5,0,0,1-5,5h-10a4.87,4.87,0,0,1-2.37-.63A5,5,0,0,0,71.67,87h10a5,5,0,0,0,5-5V72A5,5,0,0,0,84,67.58Zm-24.28,10A4.9,4.9,0,0,1,60.38,80a5,5,0,0,1-5,5H44a4.91,4.91,0,0,1-2.38-.63A5,5,0,0,0,46,87H57.38a5,5,0,0,0,2.38-9.38ZM26.67,75V72A5,5,0,0,0,24,67.58,4.91,4.91,0,0,1,24.67,70v5ZM34,77.58A4.91,4.91,0,0,1,34.67,80a5,5,0,0,1-5,5h-10a4.87,4.87,0,0,1-2.37-.63A5,5,0,0,0,21.67,87h10A5,5,0,0,0,34,77.58ZM21.67,62.67a5,5,0,0,0,5-5V46.24A5,5,0,0,0,24,41.87a4.9,4.9,0,0,1,.63,2.37V55.67a5,5,0,0,1-7.37,4.38A5,5,0,0,0,21.67,62.67Zm0-25.71a5,5,0,0,0,5-5V27h5A5,5,0,0,0,34,17.58,4.91,4.91,0,0,1,34.67,20a5,5,0,0,1-5,5h-5v5a5,5,0,0,1-5,5,4.87,4.87,0,0,1-2.37-.63A5,5,0,0,0,21.67,37ZM46,27H57.38a5,5,0,0,0,2.38-9.38A4.9,4.9,0,0,1,60.38,20a5,5,0,0,1-5,5H44a4.91,4.91,0,0,1-2.38-.63A5,5,0,0,0,46,27Zm25.71,0h3V25h-5a4.87,4.87,0,0,1-2.37-.63A5,5,0,0,0,71.67,27ZM84,17.58A4.91,4.91,0,0,1,84.67,20V30a5,5,0,0,1-5,5,4.87,4.87,0,0,1-2.37-.63A5,5,0,0,0,86.67,32V22A5,5,0,0,0,84,17.58Zm0,24.29a4.9,4.9,0,0,1,.63,2.37V55.67a5,5,0,0,1-7.37,4.38,5,5,0,0,0,9.37-2.38V46.24A5,5,0,0,0,84,41.87ZM57,38.6a13.53,13.53,0,1,0-7.36,24.89,13,13,0,0,0,2.82-.3A13.54,13.54,0,0,0,57,38.6Zm-.2,16a8.53,8.53,0,1,1-8.94-13,9.17,9.17,0,0,1,1.8-.19A8.54,8.54,0,0,1,56.83,54.6Z"/></g></svg>