<svg xmlns="http://www.w3.org/2000/svg" viewBox="0 0 100 100"><defs><style>.cls-1{opacity:0.5;}.cls-2{fill:#ffa627;}.cls-3{fill:#fffffc;}.cls-4{opacity:0.7;}</style></defs><g id="Layer_25" data-name="Layer 25"><g class="cls-1"><path d="M53.17,50.16a1.58,1.58,0,0,1-1.41.44,1.56,1.56,0,0,0,.43,1.48,1.59,1.59,0,0,0,2.26,0l6.15-6.15v-3.2Z"/><path d="M85.4,66.36V40.79a1.6,1.6,0,0,0-1.28-1.57V67.64Z"/><path d="M73.64,52.55a1.6,1.6,0,0,0,1.13-2.73L74,49a1.62,1.62,0,0,1-.47,1.15,1.59,1.59,0,0,1-2.26,0L63.8,42.73V71.5a1.6,1.6,0,0,1-1.6,1.6,1.66,1.66,0,0,1-.32,0v.35a1.6,1.6,0,0,0,3.2,0V44.65l7.43,7.43A1.6,1.6,0,0,0,73.64,52.55Z"/><path d="M95.1,62.13a1.62,1.62,0,0,0-.86-.44,1.58,1.58,0,0,1-.42.78L83.65,72.63a1.16,1.16,0,0,1-.24.2.67.67,0,0,1-.12.06.83.83,0,0,1-.16.09L83,73l-.14,0a1.73,1.73,0,0,1-.32,0,1.63,1.63,0,0,1-.31,0l-.14,0-.16,0a.83.83,0,0,1-.16-.09.39.39,0,0,1-.11-.06,1.22,1.22,0,0,1-.25-.2L72,63.28a1.61,1.61,0,0,0,.47,1.11L82.67,74.55a1.22,1.22,0,0,0,.25.2.39.39,0,0,0,.11.06.83.83,0,0,0,.16.09l.16,0,.14,0a1.63,1.63,0,0,0,.31,0,1.73,1.73,0,0,0,.32,0l.14,0,.15,0a.83.83,0,0,0,.16-.09.67.67,0,0,0,.12-.06,1.16,1.16,0,0,0,.24-.2L95.1,64.39A1.61,1.61,0,0,0,95.1,62.13Z"/><path class="cls-2" d="M73.49,47.9,63.33,37.74a1.22,1.22,0,0,0-.25-.2.39.39,0,0,0-.11-.06.83.83,0,0,0-.16-.09l-.16,0-.14,0a1.62,1.62,0,0,0-.62,0l-.15,0-.15,0a.83.83,0,0,0-.16.09l-.12.06a1.16,1.16,0,0,0-.24.2L50.91,47.9a1.59,1.59,0,0,0,0,2.26,1.56,1.56,0,0,0,.85.44,1.58,1.58,0,0,0,1.41-.44l7.43-7.43V71.5a1.61,1.61,0,0,0,1.28,1.57,1.66,1.66,0,0,0,.32,0,1.6,1.6,0,0,0,1.6-1.6V42.73l7.43,7.43a1.59,1.59,0,0,0,2.26,0A1.62,1.62,0,0,0,74,49,1.58,1.58,0,0,0,73.49,47.9Z"/><path class="cls-3" d="M93.82,60.21a1.6,1.6,0,0,0-2.27,0l-7.43,7.43V38.87a1.6,1.6,0,1,0-3.2,0V67.64l-7.43-7.43a1.6,1.6,0,0,0-2.26,2.26l.81.81,9.35,9.35a1.22,1.22,0,0,0,.25.2.39.39,0,0,0,.11.06.83.83,0,0,0,.16.09l.16,0,.14,0a1.63,1.63,0,0,0,.31,0,1.73,1.73,0,0,0,.32,0L83,73l.15,0a.83.83,0,0,0,.16-.09.67.67,0,0,0,.12-.06,1.16,1.16,0,0,0,.24-.2L93.82,62.47a1.62,1.62,0,0,0,0-2.26Z"/></g></g><g id="icons_50" data-name="icons 50"><g class="cls-4"><path d="M36.21,45.67a2,2,0,0,1-1.76.55,2,2,0,0,0,3.36,1.85l7.69-7.69v-4Z"/><path d="M76.5,65.91V34a2,2,0,0,0-1.6-2V67.51Z"/><path d="M61.8,48.65a2,2,0,0,0,1.41-3.41l-1-1a2,2,0,0,1-3.41,1.45L49.5,36.38v36a2,2,0,0,1-2,2,1.75,1.75,0,0,1-.4,0v.44a2,2,0,0,0,4,0v-36l9.29,9.29A2,2,0,0,0,61.8,48.65Z"/><path d="M88.62,60.62a2,2,0,0,0-1.07-.55,2,2,0,0,1-.53,1l-12.7,12.7A1.79,1.79,0,0,1,74,74l-.14.08-.2.11-.2.06-.18,0a1.92,1.92,0,0,1-.78,0l-.17,0-.2-.06-.2-.11L71.79,74a1.42,1.42,0,0,1-.3-.25L59.8,62.07a2,2,0,0,0,.59,1.38l12.7,12.7a1.42,1.42,0,0,0,.3.25l.15.08.2.11.2.06.17,0a1.92,1.92,0,0,0,.78,0l.18,0,.2-.06.2-.11.14-.08a1.79,1.79,0,0,0,.31-.25l12.7-12.7A2,2,0,0,0,88.62,60.62Z"/><path class="cls-2" d="M61.61,42.84l-12.7-12.7a1.42,1.42,0,0,0-.3-.25l-.15-.08-.2-.11-.19-.06-.18-.05a2,2,0,0,0-.78,0l-.18.05-.2.06-.2.11-.14.08a1.79,1.79,0,0,0-.31.25l-12.7,12.7a2,2,0,0,0,2.83,2.83l9.29-9.29v36a2,2,0,0,0,1.6,2,1.75,1.75,0,0,0,.4,0,2,2,0,0,0,2-2v-36l9.29,9.29a2,2,0,1,0,2.82-2.83Z"/><path class="cls-3" d="M87,58.22a2,2,0,0,0-2.83,0L74.9,67.51v-36a2,2,0,1,0-4,0v36l-9.29-9.29a2,2,0,0,0-2.82,2.83l1,1L71.49,73.75a1.42,1.42,0,0,0,.3.25l.15.08.2.11.2.06.17,0a1.92,1.92,0,0,0,.78,0l.18,0,.2-.06.2-.11L74,74a1.79,1.79,0,0,0,.31-.25L87,61.05a2,2,0,0,0,0-2.83Z"/></g></g><g id="Layer_5" data-name="Layer 5"><path d="M14,39.8a2.51,2.51,0,0,1-2.2.69A2.5,2.5,0,0,0,16,42.8l9.61-9.61v-5Z"/><path d="M64.38,65.1V25.15a2.5,2.5,0,0,0-2-2.45V67.1Z"/><path d="M46,43.53a2.5,2.5,0,0,0,1.77-4.27L46.5,38a2.5,2.5,0,0,1-.73,1.81,2.51,2.51,0,0,1-3.54,0L30.62,28.19v45a2.5,2.5,0,0,1-2.5,2.5,2.73,2.73,0,0,1-.5,0v.55a2.5,2.5,0,1,0,5,0V31.19L44.23,42.8A2.53,2.53,0,0,0,46,43.53Z"/><path d="M79.52,58.49a2.52,2.52,0,0,0-1.33-.69A2.5,2.5,0,0,1,77.52,59L61.65,74.9a2.37,2.37,0,0,1-.39.32s-.12.06-.18.1l-.25.13-.24.07-.22.07a2.72,2.72,0,0,1-.49,0,2.63,2.63,0,0,1-.49,0l-.22-.07-.25-.07-.25-.13-.18-.1a2,2,0,0,1-.38-.32L43.5,60.3A2.48,2.48,0,0,0,44.23,62L60.11,77.9a2,2,0,0,0,.38.32l.18.1.25.13.25.07.22.07a2.63,2.63,0,0,0,.49,0,2.72,2.72,0,0,0,.49,0l.22-.07.24-.07.25-.13c.06,0,.13-.06.18-.1a2.37,2.37,0,0,0,.39-.32L79.52,62A2.5,2.5,0,0,0,79.52,58.49Z"/><path class="cls-2" d="M45.77,36.26,29.89,20.39a2,2,0,0,0-.38-.32L29.33,20a2,2,0,0,0-.25-.14l-.25-.07-.22-.07a2.69,2.69,0,0,0-1,0l-.22.07-.24.07-.26.13c-.05,0-.12.06-.17.1a2.37,2.37,0,0,0-.39.32L10.48,36.26A2.5,2.5,0,0,0,14,39.8L25.62,28.19v45a2.5,2.5,0,0,0,2,2.45,2.73,2.73,0,0,0,.5,0,2.5,2.5,0,0,0,2.5-2.5V28.19L42.23,39.8a2.51,2.51,0,0,0,3.54,0,2.51,2.51,0,0,0,0-3.54Z"/><path class="cls-3" d="M77.52,55.49a2.5,2.5,0,0,0-3.53,0L62.38,67.1V22.15a2.5,2.5,0,0,0-5,0V67.1L45.77,55.49A2.5,2.5,0,0,0,42.23,59L43.5,60.3,58.11,74.9a2,2,0,0,0,.38.32l.18.1.25.13.25.07.22.07a2.63,2.63,0,0,0,.49,0,2.72,2.72,0,0,0,.49,0l.22-.07.24-.07.25-.13c.06,0,.13-.06.18-.1a2.37,2.37,0,0,0,.39-.32L77.52,59a2.51,2.51,0,0,0,0-3.54Z"/></g></svg>