<svg xmlns="http://www.w3.org/2000/svg" viewBox="0 0 100 100"><defs><style>.cls-1{opacity:0.25;}.cls-2{fill:#ffa627;}.cls-3{fill:#4d8dfc;}.cls-4{opacity:0.5;}</style></defs><g id="Layer_25" data-name="Layer 25"><g class="cls-1"><path class="cls-2" d="M85.23,76.92a3.2,3.2,0,0,0-3.2,3.2v3.2h-3.2a3.19,3.19,0,0,0-1.52,6,3.13,3.13,0,0,0,1.52.4h6.4a3.2,3.2,0,0,0,3.2-3.2v-6.4A3.13,3.13,0,0,0,88,78.6,3.18,3.18,0,0,0,85.23,76.92Zm-15.54,6.4H62.37a3.19,3.19,0,0,0-1.52,6,3.16,3.16,0,0,0,1.52.4h7.32a3.2,3.2,0,0,0,3.2-3.2,3.24,3.24,0,0,0-.4-1.52A3.19,3.19,0,0,0,69.69,83.32Zm-16.46,0H50v-3.2a3.13,3.13,0,0,0-.4-1.52,3.19,3.19,0,0,0-6,1.52v6.4a3.18,3.18,0,0,0,1.68,2.8,3.13,3.13,0,0,0,1.52.4h6.4a3.2,3.2,0,0,0,3.2-3.2A3.13,3.13,0,0,0,56,85,3.18,3.18,0,0,0,53.23,83.32Zm-7.92-9.54a3.24,3.24,0,0,0,1.52.4A3.2,3.2,0,0,0,50,71V63.66a3.16,3.16,0,0,0-.4-1.52,3.19,3.19,0,0,0-6,1.52V71A3.19,3.19,0,0,0,45.31,73.78Zm7.92-28.86h-6.4a3.2,3.2,0,0,0-3.2,3.2v6.4a3.18,3.18,0,0,0,1.68,2.8,3.13,3.13,0,0,0,1.52.4,3.2,3.2,0,0,0,3.2-3.2v-3.2h3.2a3.2,3.2,0,0,0,3.2-3.2A3.13,3.13,0,0,0,56,46.6,3.18,3.18,0,0,0,53.23,44.92Zm16.46,0H62.37a3.19,3.19,0,0,0-1.52,6,3.16,3.16,0,0,0,1.52.4h7.32a3.2,3.2,0,0,0,3.2-3.2,3.24,3.24,0,0,0-.4-1.52A3.19,3.19,0,0,0,69.69,44.92ZM88,46.6a3.18,3.18,0,0,0-2.8-1.68h-6.4a3.19,3.19,0,0,0-1.52,6,3.13,3.13,0,0,0,1.52.4H82v3.2a3.18,3.18,0,0,0,1.68,2.8,3.13,3.13,0,0,0,1.52.4,3.2,3.2,0,0,0,3.2-3.2v-6.4A3.13,3.13,0,0,0,88,46.6Zm-2.8,13.86a3.2,3.2,0,0,0-3.2,3.2V71a3.19,3.19,0,0,0,1.68,2.8,3.24,3.24,0,0,0,1.52.4,3.2,3.2,0,0,0,3.2-3.2V63.66a3.16,3.16,0,0,0-.4-1.52A3.2,3.2,0,0,0,85.23,60.46Z"/><path class="cls-3" d="M69,62.74a5.45,5.45,0,0,0-3-.88,5.62,5.62,0,0,0-1.15.12,5.46,5.46,0,1,0,6.48,4.2A5.4,5.4,0,0,0,69,62.74Z"/><path d="M88,78.6a3.13,3.13,0,0,1,.4,1.52v6.4a3.2,3.2,0,0,1-3.2,3.2h-6.4a3.13,3.13,0,0,1-1.52-.4A3.2,3.2,0,0,0,80.11,91h6.4a3.2,3.2,0,0,0,3.2-3.2V81.4A3.17,3.17,0,0,0,88,78.6ZM72.49,85a3.24,3.24,0,0,1,.4,1.52,3.2,3.2,0,0,1-3.2,3.2H62.37a3.16,3.16,0,0,1-1.52-.4A3.2,3.2,0,0,0,63.65,91H71a3.19,3.19,0,0,0,1.52-6ZM51.31,83.32V81.4a3.17,3.17,0,0,0-1.68-2.8,3.13,3.13,0,0,1,.4,1.52v3.2ZM56,85a3.13,3.13,0,0,1,.4,1.52,3.2,3.2,0,0,1-3.2,3.2h-6.4a3.13,3.13,0,0,1-1.52-.4A3.2,3.2,0,0,0,48.11,91h6.4A3.19,3.19,0,0,0,56,85Zm-7.92-9.54a3.2,3.2,0,0,0,3.2-3.2V64.94a3.18,3.18,0,0,0-1.68-2.8,3.16,3.16,0,0,1,.4,1.52V71a3.2,3.2,0,0,1-3.2,3.2,3.24,3.24,0,0,1-1.52-.4A3.2,3.2,0,0,0,48.11,75.46Zm0-16.46a3.2,3.2,0,0,0,3.2-3.2V52.6h3.2a3.19,3.19,0,0,0,1.52-6,3.13,3.13,0,0,1,.4,1.52,3.2,3.2,0,0,1-3.2,3.2H50v3.2a3.2,3.2,0,0,1-3.2,3.2,3.13,3.13,0,0,1-1.52-.4A3.2,3.2,0,0,0,48.11,59Zm15.54-6.4H71a3.19,3.19,0,0,0,1.52-6,3.24,3.24,0,0,1,.4,1.52,3.2,3.2,0,0,1-3.2,3.2H62.37a3.16,3.16,0,0,1-1.52-.4A3.2,3.2,0,0,0,63.65,52.6Zm16.46,0H82V51.32h-3.2a3.13,3.13,0,0,1-1.52-.4A3.2,3.2,0,0,0,80.11,52.6Zm7.92-6a3.13,3.13,0,0,1,.4,1.52v6.4a3.2,3.2,0,0,1-3.2,3.2,3.13,3.13,0,0,1-1.52-.4,3.19,3.19,0,0,0,6-1.52V49.4A3.17,3.17,0,0,0,88,46.6Zm0,15.54a3.16,3.16,0,0,1,.4,1.52V71a3.2,3.2,0,0,1-3.2,3.2,3.24,3.24,0,0,1-1.52-.4,3.19,3.19,0,0,0,6-1.52V64.94A3.18,3.18,0,0,0,88,62.14ZM70.74,60.05A8.66,8.66,0,1,0,66,76a8.7,8.7,0,0,0,1.81-.19,8.66,8.66,0,0,0,2.9-15.74Zm-.13,10.24A5.46,5.46,0,1,1,64.89,62,5.62,5.62,0,0,1,66,61.86a5.46,5.46,0,0,1,4.57,8.43Z"/></g></g><g id="icons_50" data-name="icons 50"><g class="cls-4"><path class="cls-2" d="M82.87,71.16a4,4,0,0,0-4,4v4h-4a4,4,0,0,0-1.9,7.5,4,4,0,0,0,1.9.5h8a4,4,0,0,0,4-4v-8a4.05,4.05,0,0,0-4-4Zm-19.43,8H54.3a4,4,0,0,0-1.9,7.5,4,4,0,0,0,1.9.5h9.14a4,4,0,0,0,4-4,4.05,4.05,0,0,0-4-4Zm-20.57,0h-4v-4a4.05,4.05,0,0,0-4-4,4,4,0,0,0-4,4v8a4.05,4.05,0,0,0,4,4h8a4,4,0,0,0,4-4,4.05,4.05,0,0,0-4-4ZM33,67.23a4,4,0,0,0,1.9.5,4,4,0,0,0,4-4V54.59a4.05,4.05,0,0,0-4-4,4,4,0,0,0-4,4v9.14A4,4,0,0,0,33,67.23Zm9.9-36.07h-8a4,4,0,0,0-4,4v8a4,4,0,0,0,8,0v-4h4a4,4,0,0,0,4-4,4.05,4.05,0,0,0-4-4Zm20.57,0H54.3a4,4,0,0,0-1.9,7.5,4,4,0,0,0,1.9.5h9.14a4,4,0,0,0,4-4,4.05,4.05,0,0,0-4-4Zm22.93,2.1a4,4,0,0,0-3.5-2.1h-8a4,4,0,0,0-1.9,7.5,4,4,0,0,0,1.9.5h4v4a4,4,0,0,0,8,0v-8A4,4,0,0,0,86.37,33.26Zm-3.5,17.33a4,4,0,0,0-4,4v9.14a4,4,0,1,0,8,0V54.59a4.05,4.05,0,0,0-4-4Z"/><path class="cls-3" d="M62.58,53.43a6.81,6.81,0,0,0-3.7-1.1,7,7,0,0,0-1.43.15,6.82,6.82,0,1,0,5.13,1Z"/><path d="M86.37,73.26a4,4,0,0,1,.5,1.9v8a4,4,0,0,1-4,4h-8a4,4,0,0,1-1.9-.5,4,4,0,0,0,3.5,2.1h8a4,4,0,0,0,4-4v-8A4,4,0,0,0,86.37,73.26Zm-19.43,8a4,4,0,0,1,.5,1.9,4,4,0,0,1-4,4H54.3a4,4,0,0,1-1.9-.5,4,4,0,0,0,3.5,2.1H65a4,4,0,0,0,1.9-7.5Zm-26.47-2.1v-2.4a4,4,0,0,0-2.1-3.5,4,4,0,0,1,.5,1.9v4Zm5.9,2.1a4,4,0,0,1,.5,1.9,4,4,0,0,1-4,4h-8a4,4,0,0,1-1.9-.5,4,4,0,0,0,3.5,2.1h8a4,4,0,0,0,1.9-7.5Zm-9.9-11.93a4,4,0,0,0,4-4V56.19a4,4,0,0,0-2.1-3.5,4,4,0,0,1,.5,1.9v9.14a4,4,0,0,1-4,4,4,4,0,0,1-1.9-.5A4,4,0,0,0,36.47,69.33Zm0-20.57a4,4,0,0,0,4-4v-4h4a4,4,0,0,0,1.9-7.5,4,4,0,0,1,.5,1.9,4,4,0,0,1-4,4h-4v4a4,4,0,0,1-4,4,4,4,0,0,1-1.9-.5A4,4,0,0,0,36.47,48.76Zm19.43-8H65a4,4,0,0,0,1.9-7.5,4,4,0,0,1,.5,1.9,4,4,0,0,1-4,4H54.3a4,4,0,0,1-1.9-.5A4,4,0,0,0,55.9,40.76Zm20.57,0h2.4v-1.6h-4a4,4,0,0,1-1.9-.5A4,4,0,0,0,76.47,40.76Zm9.9-7.5a4,4,0,0,1,.5,1.9v8a4,4,0,0,1-4,4,4,4,0,0,1-1.9-.5,4,4,0,0,0,7.5-1.9v-8A4,4,0,0,0,86.37,33.26Zm0,19.43a4,4,0,0,1,.5,1.9v9.14a4,4,0,0,1-4,4,4,4,0,0,1-1.9-.5,4,4,0,0,0,7.5-1.9V56.19A4,4,0,0,0,86.37,52.69ZM64.76,50.08A10.83,10.83,0,1,0,58.87,70a11,11,0,0,0,2.26-.24,10.82,10.82,0,0,0,3.63-19.67ZM64.6,62.87a6.83,6.83,0,1,1-7.15-10.39,7,7,0,0,1,1.43-.15A6.83,6.83,0,0,1,64.6,62.87Z"/></g></g><g id="icons"><path class="cls-2" d="M79.67,65a5,5,0,0,0-5,5v5h-5a5,5,0,0,0-2.37,9.37,4.87,4.87,0,0,0,2.37.63h10a5,5,0,0,0,5-5V70A4.91,4.91,0,0,0,84,67.58,5,5,0,0,0,79.67,65ZM55.38,75H44a5,5,0,0,0-2.38,9.37A4.91,4.91,0,0,0,44,85H55.38a5,5,0,0,0,5-5,4.9,4.9,0,0,0-.62-2.38A5,5,0,0,0,55.38,75ZM29.67,75h-5V70A4.91,4.91,0,0,0,24,67.58,5,5,0,0,0,14.67,70V80a5,5,0,0,0,2.63,4.37,4.87,4.87,0,0,0,2.37.63h10a5,5,0,0,0,5-5A4.91,4.91,0,0,0,34,77.58,5,5,0,0,0,29.67,75ZM17.3,60.05a5,5,0,0,0,7.37-4.38V44.24A4.9,4.9,0,0,0,24,41.87a5,5,0,0,0-9.37,2.37V55.67A5,5,0,0,0,17.3,60.05ZM29.67,15h-10a5,5,0,0,0-5,5V30a5,5,0,0,0,2.63,4.37,4.87,4.87,0,0,0,2.37.63,5,5,0,0,0,5-5V25h5a5,5,0,0,0,5-5A4.91,4.91,0,0,0,34,17.58,5,5,0,0,0,29.67,15Zm25.71,0H44a5,5,0,0,0-2.38,9.37A4.91,4.91,0,0,0,44,25H55.38a5,5,0,0,0,5-5,4.9,4.9,0,0,0-.62-2.38A5,5,0,0,0,55.38,15ZM84,17.58A5,5,0,0,0,79.67,15h-10a5,5,0,0,0-2.37,9.37,4.87,4.87,0,0,0,2.37.63h5v5a5,5,0,0,0,2.63,4.37,4.87,4.87,0,0,0,2.37.63,5,5,0,0,0,5-5V20A4.91,4.91,0,0,0,84,17.58ZM79.67,39.24a5,5,0,0,0-5,5V55.67a5,5,0,0,0,10,0V44.24A4.9,4.9,0,0,0,84,41.87,5,5,0,0,0,79.67,39.24Z"/><path class="cls-3" d="M54.31,42.8a8.44,8.44,0,0,0-4.62-1.38,9.17,9.17,0,0,0-1.8.19A8.54,8.54,0,0,0,45,57.12,8.53,8.53,0,0,0,54.31,42.8Z"/><path d="M84,67.58A4.91,4.91,0,0,1,84.67,70V80a5,5,0,0,1-5,5h-10a4.87,4.87,0,0,1-2.37-.63A5,5,0,0,0,71.67,87h10a5,5,0,0,0,5-5V72A5,5,0,0,0,84,67.58Zm-24.28,10A4.9,4.9,0,0,1,60.38,80a5,5,0,0,1-5,5H44a4.91,4.91,0,0,1-2.38-.63A5,5,0,0,0,46,87H57.38a5,5,0,0,0,2.38-9.38ZM26.67,75V72A5,5,0,0,0,24,67.58,4.91,4.91,0,0,1,24.67,70v5ZM34,77.58A4.91,4.91,0,0,1,34.67,80a5,5,0,0,1-5,5h-10a4.87,4.87,0,0,1-2.37-.63A5,5,0,0,0,21.67,87h10A5,5,0,0,0,34,77.58ZM21.67,62.67a5,5,0,0,0,5-5V46.24A5,5,0,0,0,24,41.87a4.9,4.9,0,0,1,.63,2.37V55.67a5,5,0,0,1-7.37,4.38A5,5,0,0,0,21.67,62.67Zm0-25.71a5,5,0,0,0,5-5V27h5A5,5,0,0,0,34,17.58,4.91,4.91,0,0,1,34.67,20a5,5,0,0,1-5,5h-5v5a5,5,0,0,1-5,5,4.87,4.87,0,0,1-2.37-.63A5,5,0,0,0,21.67,37ZM46,27H57.38a5,5,0,0,0,2.38-9.38A4.9,4.9,0,0,1,60.38,20a5,5,0,0,1-5,5H44a4.91,4.91,0,0,1-2.38-.63A5,5,0,0,0,46,27Zm25.71,0h3V25h-5a4.87,4.87,0,0,1-2.37-.63A5,5,0,0,0,71.67,27ZM84,17.58A4.91,4.91,0,0,1,84.67,20V30a5,5,0,0,1-5,5,4.87,4.87,0,0,1-2.37-.63A5,5,0,0,0,86.67,32V22A5,5,0,0,0,84,17.58Zm0,24.29a4.9,4.9,0,0,1,.63,2.37V55.67a5,5,0,0,1-7.37,4.38,5,5,0,0,0,9.37-2.38V46.24A5,5,0,0,0,84,41.87ZM57,38.6a13.53,13.53,0,1,0-7.36,24.89,13,13,0,0,0,2.82-.3A13.54,13.54,0,0,0,57,38.6Zm-.2,16a8.53,8.53,0,1,1-8.94-13,9.17,9.17,0,0,1,1.8-.19A8.54,8.54,0,0,1,56.83,54.6Z"/></g></svg>