<svg id="icons" xmlns="http://www.w3.org/2000/svg" viewBox="0 0 100 100">
    <defs>
        <style>.cls-1{fill:#fff;}.cls-2{fill:#3ec188;}</style>
    </defs>
    <path class="cls-1"
          d="M21.15,44.13l7.66-7.65a4.15,4.15,0,0,1,5.73-.16,4.08,4.08,0,0,1-.1,5.79l-7.66,7.65,8.15,8.15a4,4,0,0,1-.17,5.73,4.11,4.11,0,0,1-5.74.17l-8.14-8.15L15.25,50Z"/>
    <path class="cls-2"
          d="M15.25,54.23V80.7a4,4,0,0,1-4,4.17A4.11,4.11,0,0,1,7.32,80.7V19.43a4.15,4.15,0,0,1,3.93-4.16,4.06,4.06,0,0,1,4,4.16v34.8Z"/>
    <path class="cls-1"
          d="M52.31,54H25.83a4,4,0,0,1-4.16-4,4.1,4.1,0,0,1,4.16-3.93h51A4.15,4.15,0,0,1,80.93,50a4.07,4.07,0,0,1-4.15,4H52.31Z"/>
    <path class="cls-1"
          d="M80,56l-7.66,7.66a4.16,4.16,0,0,1-5.73.16A4.07,4.07,0,0,1,66.75,58l7.65-7.66-8.14-8.14a4,4,0,0,1,.16-5.74,4.12,4.12,0,0,1,5.74-.16l8.14,8.14,5.63,5.63Z"/>
    <path class="cls-2"
          d="M85.93,45.87V19.39a4,4,0,0,1,4-4.16,4.11,4.11,0,0,1,3.93,4.16V80.67a4.15,4.15,0,0,1-3.93,4.15,4.06,4.06,0,0,1-4-4.15V45.87Z"/>
</svg>