<svg id="icons" xmlns="http://www.w3.org/2000/svg" viewBox="0 0 100 100"><defs><style>.cls-1{stroke:#000;stroke-miterlimit:10;stroke-width:5px;}.cls-1,.cls-2{stroke-linecap:round;}.cls-2{fill:none;stroke:#4d8dfc;stroke-linejoin:bevel;stroke-width:10px;}.cls-3{fill:#ffa627;}</style></defs><circle class="cls-1" cx="51.97" cy="26.55" r="11.03"/><circle class="cls-1" cx="80.43" cy="74.06" r="11.03"/><circle class="cls-1" cx="21.81" cy="74.06" r="11.03"/><polyline class="cls-2" points="37.14 49.66 22.66 74.06 80.43 74.06 65.99 49.72"/><path d="M84.06,19.92h-60a5.94,5.94,0,0,0-4.49,9.82l25.81,29.9v19a8.46,8.46,0,1,0,16.91,0V60.17L88.56,29.74A5.94,5.94,0,0,0,84.06,19.92Z"/><path class="cls-3" d="M81.91,16.92h-60a5.94,5.94,0,0,0-4.5,9.82l25.81,29.9v19H60.14V57.17L86.4,26.74A5.94,5.94,0,0,0,81.91,16.92Z"/><circle cx="51.68" cy="75.59" r="6.96"/><path class="cls-3" d="M51.68,70.13a5.46,5.46,0,1,1-5.46,5.46,5.47,5.47,0,0,1,5.46-5.46m0-3a8.46,8.46,0,1,0,8.46,8.46,8.46,8.46,0,0,0-8.46-8.46Z"/></svg>