<svg id="icons" xmlns="http://www.w3.org/2000/svg" viewBox="0 0 100 100"><defs><style>.cls-1{fill:#fff;}</style></defs><path d="M51.93,85.59a32.28,32.28,0,0,1-17.65-5.26h0a32.58,32.58,0,0,1,10.93-59.2,33.08,33.08,0,0,1,6.85-.73A32.59,32.59,0,0,1,58.8,84.86,32.67,32.67,0,0,1,51.93,85.59Zm.13-58.18a25.93,25.93,0,0,0-5.39.58,25.57,25.57,0,0,0-8.58,46.47h0a25.58,25.58,0,1,0,14-47Z"/><path class="cls-1" d="M49.93,82.59a32.28,32.28,0,0,1-17.65-5.26h0a32.58,32.58,0,0,1,10.93-59.2,33.08,33.08,0,0,1,6.85-.73A32.59,32.59,0,0,1,56.8,81.86,32.67,32.67,0,0,1,49.93,82.59Zm.13-58.18a25.93,25.93,0,0,0-5.39.58,25.57,25.57,0,0,0-8.58,46.47h0a25.58,25.58,0,1,0,14-47Z"/></svg>