<?xml version="1.0" encoding="UTF-8"?>
<svg id="icons" xmlns="http://www.w3.org/2000/svg" viewBox="0 0 100 100">
  <defs>
    <style>
      .cls-1 {
        fill: #fff;
      }

      .cls-2 {
        fill: #4d8dfc;
      }

      .cls-3 {
        fill: #ffa627;
      }

      .cls-4 {
        opacity: .5;
      }
    </style>
  </defs>
  <g class="cls-4">
    <g>
      <path d="M76.44,89.2s-.04,0-.06,0c-.87-.03-1.61-.65-1.78-1.5-2.82-13.78-6.96-34.31-9.02-45.91-2.52,8.64-6.55,22.74-9.52,33.2-.23.82-.98,1.4-1.83,1.37-.85,0-1.59-.58-1.8-1.4l-4.66-17.81-2,6.24c-.25.78-.97,1.31-1.79,1.31h-7.95c-1.04,0-1.88-.84-1.88-1.88s.84-1.88,1.88-1.88h6.58l3.56-11.09c.26-.8,1-1.31,1.84-1.31.84.02,1.56.6,1.77,1.4l4.55,17.4c1.09-3.84,2.54-8.91,4-13.98,1.48-5.15,2.96-10.3,4.09-14.16.57-1.94,1.04-3.55,1.39-4.67.63-2.06,1.04-3.42,2.78-3.04.93.21,1.55,1.13,1.46,2.07.06,2.37,4.84,26.71,8.67,45.67l4.87-17.73c.22-.82.97-1.38,1.81-1.38h9.76c1.04,0,1.88.84,1.88,1.88s-.84,1.88-1.88,1.88h-8.32l-6.58,23.95c-.22.82-.97,1.38-1.81,1.38ZM68.04,33.59s0,.07-.01.1c0-.03.01-.06.01-.1Z"/>
      <path d="M57.79,58.13c-1.59-.77-2.47-2.57-2-4.34.44-1.67.87-3.31,1.29-4.88.53-2.01,2.59-3.2,4.6-2.67,2.01.53,3.2,2.59,2.67,4.6-.42,1.57-.85,3.2-1.29,4.87-.53,2.01-2.59,3.21-4.59,2.68-.24-.06-.47-.15-.68-.25Z"/>
      <path d="M73.33,75.72c-1.76,0-3.33-1.24-3.68-3.02l-.99-4.95c-.41-2.04.92-4.02,2.95-4.42,2.04-.41,4.02.92,4.42,2.95l.99,4.94c.41,2.04-.91,4.02-2.95,4.43-.25.05-.5.07-.74.07Z"/>
    </g>
    <g>
      <path class="cls-1" d="M74.94,87.7s-.04,0-.06,0c-.87-.03-1.61-.65-1.78-1.5-2.82-13.78-6.96-34.31-9.02-45.91-2.52,8.64-6.55,22.74-9.52,33.2-.23.82-.98,1.4-1.83,1.37-.85,0-1.59-.58-1.8-1.4l-4.66-17.81-2,6.24c-.25.78-.97,1.31-1.79,1.31h-7.95c-1.04,0-1.88-.84-1.88-1.88s.84-1.88,1.88-1.88h6.58l3.56-11.09c.26-.8,1-1.31,1.84-1.31.84.02,1.56.6,1.77,1.4l4.55,17.4c1.09-3.84,2.54-8.91,4-13.98,1.48-5.15,2.96-10.3,4.09-14.16.57-1.94,1.04-3.55,1.39-4.67.63-2.06,1.04-3.42,2.78-3.04.93.21,1.55,1.13,1.46,2.07.06,2.37,4.84,26.71,8.67,45.67l4.87-17.73c.22-.82.97-1.38,1.81-1.38h9.76c1.04,0,1.88.84,1.88,1.88s-.84,1.88-1.88,1.88h-8.32l-6.58,23.95c-.22.82-.97,1.38-1.81,1.38ZM66.54,32.09s0,.07-.01.1c0-.03.01-.06.01-.1Z"/>
      <path class="cls-2" d="M56.28,56.63c-1.59-.77-2.47-2.57-2-4.34.44-1.67.87-3.31,1.29-4.88.53-2.01,2.59-3.2,4.6-2.67,2.01.53,3.2,2.59,2.67,4.6-.42,1.57-.85,3.2-1.29,4.87-.53,2.01-2.59,3.21-4.59,2.68-.24-.06-.47-.15-.68-.25Z"/>
      <path class="cls-3" d="M71.83,74.22c-1.76,0-3.33-1.24-3.68-3.02l-.99-4.95c-.41-2.04.92-4.02,2.95-4.42,2.04-.41,4.02.92,4.42,2.95l.99,4.94c.41,2.04-.91,4.02-2.95,4.43-.25.05-.5.07-.74.07Z"/>
    </g>
  </g>
  <g>
    <g>
      <path d="M60.26,89.2s-.06,0-.08,0c-1.16-.04-2.13-.87-2.37-2-3.74-18.32-9.25-45.61-12-61.02-3.34,11.48-8.71,30.23-12.66,44.13-.31,1.08-1.3,1.86-2.43,1.82-1.13-.01-2.11-.78-2.39-1.87l-6.19-23.67-2.66,8.3c-.33,1.03-1.29,1.74-2.38,1.74H6.54c-1.38,0-2.5-1.12-2.5-2.5s1.12-2.5,2.5-2.5h8.74l4.73-14.75c.34-1.06,1.33-1.75,2.45-1.74,1.11.03,2.07.79,2.35,1.87l6.05,23.13c1.46-5.11,3.38-11.84,5.31-18.58,1.96-6.85,3.94-13.69,5.44-18.82.75-2.57,1.39-4.72,1.84-6.21.83-2.74,1.39-4.55,3.7-4.04,1.23.27,2.05,1.51,1.94,2.75.07,3.14,6.43,35.5,11.52,60.7l6.47-23.57c.3-1.09,1.29-1.84,2.41-1.84h12.97c1.38,0,2.5,1.12,2.5,2.5s-1.12,2.5-2.5,2.5h-11.06l-8.74,31.84c-.3,1.09-1.29,1.84-2.41,1.84ZM49.1,15.29s-.01.09-.02.14c0-.04.01-.08.02-.14Z"/>
      <path d="M35.46,47.9c-2.11-1.02-3.28-3.42-2.66-5.78.59-2.23,1.16-4.4,1.72-6.49.71-2.67,3.45-4.26,6.12-3.55,2.68.71,4.26,3.45,3.55,6.12-.55,2.08-1.13,4.25-1.71,6.47-.7,2.67-3.44,4.27-6.11,3.56-.32-.08-.62-.19-.9-.33Z"/>
      <path d="M56.13,71.28c-2.33,0-4.42-1.64-4.9-4.02l-1.31-6.58c-.54-2.71,1.22-5.34,3.93-5.88,2.71-.55,5.34,1.22,5.88,3.93l1.31,6.57c.54,2.71-1.21,5.34-3.92,5.88-.33.07-.66.1-.99.1Z"/>
    </g>
    <g>
      <path class="cls-1" d="M58.26,87.2s-.06,0-.08,0c-1.16-.04-2.13-.87-2.37-2-3.74-18.32-9.25-45.61-12-61.02-3.34,11.48-8.71,30.23-12.66,44.13-.31,1.08-1.3,1.86-2.43,1.82-1.13-.01-2.11-.78-2.39-1.87l-6.19-23.67-2.66,8.3c-.33,1.03-1.29,1.74-2.38,1.74H4.54c-1.38,0-2.5-1.12-2.5-2.5s1.12-2.5,2.5-2.5h8.74l4.73-14.75c.34-1.06,1.33-1.75,2.45-1.74,1.11.03,2.07.79,2.35,1.87l6.05,23.13c1.46-5.11,3.38-11.84,5.31-18.58,1.96-6.85,3.94-13.69,5.44-18.82.75-2.57,1.39-4.72,1.84-6.21.83-2.74,1.39-4.55,3.7-4.04,1.23.27,2.05,1.51,1.94,2.75.07,3.14,6.43,35.5,11.52,60.7l6.47-23.57c.3-1.09,1.29-1.84,2.41-1.84h12.97c1.38,0,2.5,1.12,2.5,2.5s-1.12,2.5-2.5,2.5h-11.06l-8.74,31.84c-.3,1.09-1.29,1.84-2.41,1.84ZM47.1,13.29s-.01.09-.02.14c0-.04.01-.08.02-.14Z"/>
      <path class="cls-2" d="M33.46,45.9c-2.11-1.02-3.28-3.42-2.66-5.78.59-2.23,1.16-4.4,1.72-6.49.71-2.67,3.45-4.26,6.12-3.55,2.68.71,4.26,3.45,3.55,6.12-.55,2.08-1.13,4.25-1.71,6.47-.7,2.67-3.44,4.27-6.11,3.56-.32-.08-.62-.19-.9-.33Z"/>
      <path class="cls-3" d="M54.13,69.28c-2.33,0-4.42-1.64-4.9-4.02l-1.31-6.58c-.54-2.71,1.22-5.34,3.93-5.88,2.71-.55,5.34,1.22,5.88,3.93l1.31,6.57c.54,2.71-1.21,5.34-3.92,5.88-.33.07-.66.1-.99.1Z"/>
    </g>
  </g>
</svg>