<svg xmlns="http://www.w3.org/2000/svg" viewBox="0 0 100 100"><defs><style>.cls-1{fill:#ffa627;}</style></defs><g id="icons"><path d="M52.65,65.25V71.9c.59-.07,1.19-.17,1.77-.29l.23-.06v-6.3Z"/><path d="M29.25,66.83a26.22,26.22,0,0,0,18.4,12.88V77A26.2,26.2,0,0,1,29.25,66.83Z"/><path d="M17.66,52.5v3h6.58a25.63,25.63,0,0,1-.38-3Z"/><path d="M76,47.5h1.42A26.12,26.12,0,0,0,72.76,38a26.17,26.17,0,0,1,2.85,7.47C75.76,46.12,75.87,46.81,76,47.5Z"/><path d="M54.65,25.12V18.51h-2v6.33C53.33,24.91,54,25,54.65,25.12Z"/><path d="M54.65,40.75V32.88a21.3,21.3,0,0,1,13.91,7.83A21.35,21.35,0,0,0,52.65,29.88v7.87h-3v3Z"/><path d="M30.89,55.5h9v-5h-2v2h-9a22.59,22.59,0,0,0,.39,2.81,21,21,0,0,0,4.16,8.75,21.06,21.06,0,0,1-2.16-5.75A22.59,22.59,0,0,1,30.89,55.5Z"/><path d="M70.66,55.5a19.92,19.92,0,0,0,.46-3H64.4v3Z"/><path d="M84.64,50.5v2h-8.5a26.19,26.19,0,0,1-20.68,24,27.31,27.31,0,0,1-2.81.44v7.55h-3v3h5V79.94a27.31,27.31,0,0,0,2.81-.44,26.19,26.19,0,0,0,20.68-24h8.5v-5Z"/><path d="M47.58,33.16h.07V29.83q-1,.12-2.07.33A21.17,21.17,0,0,0,29.09,47.5h2.74A21,21,0,0,1,47.58,33.16Z"/><path class="cls-1" d="M52.65,76.94a27.31,27.31,0,0,0,2.81-.44,26.19,26.19,0,0,0,20.68-24h8.5v-5H76c-.09-.69-.2-1.38-.35-2.08a26.23,26.23,0,0,0-21-20.3c-.66-.12-1.32-.21-2-.28V15.51h-5v9.3A26.08,26.08,0,0,0,24,47.5H15.66v5h8.2a25.63,25.63,0,0,0,.38,3c.05.28.09.57.15.85a25.92,25.92,0,0,0,4.86,10.48A26.2,26.2,0,0,0,47.65,77v7.52h5Zm-5-14.69v9.68a21.31,21.31,0,0,1-14.21-7.87,21,21,0,0,1-4.16-8.75,22.59,22.59,0,0,1-.39-2.81h9v-5H29.09A21.17,21.17,0,0,1,45.58,30.16q1-.21,2.07-.33v7.92h5V29.88A21.35,21.35,0,0,1,68.56,40.71a20.88,20.88,0,0,1,2.16,5.76c.08.34.14.69.2,1H62.4v5h8.72a19.92,19.92,0,0,1-.46,3,21.19,21.19,0,0,1-16,16l-.23.06c-.58.12-1.18.22-1.77.29V62.25Z"/></g></svg>