<svg id="icons" xmlns="http://www.w3.org/2000/svg" viewBox="0 0 100 100"><defs><style>.cls-1{fill:#4d8dfc;}.cls-2{fill:#fff;}</style></defs><rect class="cls-1" x="17.31" y="31.19" width="65.38" height="37.62"/><path class="cls-2" d="M70.58,29.42a2.5,2.5,0,0,0-1.77-.73H31.19a2.5,2.5,0,0,0-2.5,2.5V68.81a2.5,2.5,0,0,0,2.5,2.5H68.81a2.49,2.49,0,0,0,2.5-2.5V31.19A2.5,2.5,0,0,0,70.58,29.42ZM33.69,33.69H66.31V66.31H33.69Z"/><polygon points="33.69 33.69 66.31 33.69 66.31 66.31 49.22 66.31 49.22 66.31 33.69 66.31 33.69 33.69"/><path class="cls-2" d="M47.32,52.79H42.8A2.8,2.8,0,0,1,39.9,50a2.86,2.86,0,0,1,2.9-2.74H57.64A2.89,2.89,0,0,1,60.54,50a2.83,2.83,0,0,1-2.9,2.79H47.32Z"/></svg>