<svg xmlns="http://www.w3.org/2000/svg" viewBox="0 0 100 100"><defs><style>.cls-1{opacity:0.25;}.cls-2{opacity:0.5;}.cls-3{fill:#ffa627;}</style></defs><g id="icons_multi"><g class="cls-1"><g class="cls-2"><path d="M67.63,53.45a7.19,7.19,0,0,1,7,8.91c1.23-.65,2-1.86,2-4.1a10.22,10.22,0,0,0-20.44,0c0,3.59,1.86,4.55,4.66,4.77a7.35,7.35,0,0,1-.4-2.36A7.22,7.22,0,0,1,67.63,53.45Z"/><path d="M82.73,60.75a15,15,0,0,0-3.14-9.22,15,15,0,0,1,1.88,7.3c0,8.33-15.1,29.38-15.1,29.38S65.18,86.55,63.46,84c2.36,3.64,4.17,6.16,4.17,6.16S82.73,69.08,82.73,60.75Z"/><path class="cls-3" d="M79.59,51.53a15.1,15.1,0,0,0-28.32,7.3c0,6,7.8,18.55,12.19,25.14,1.72,2.58,2.91,4.24,2.91,4.24s15.1-21,15.1-29.38A15,15,0,0,0,79.59,51.53Zm-5,10.83c-1.85,1-4.87.68-8.27.68-2.05,0-4,.12-5.56,0-2.8-.22-4.66-1.18-4.66-4.77a10.22,10.22,0,0,1,20.44,0C76.59,60.5,75.87,61.71,74.64,62.36Z"/></g><path d="M60.79,42.08a9,9,0,0,1,9,9,8.73,8.73,0,0,1-.27,2.12c1.53-.81,2.44-2.33,2.44-5.13a12.78,12.78,0,1,0-25.56,0c0,4.5,2.33,5.69,5.84,6a9,9,0,0,1,8.52-12Z"/><path d="M79.66,51.2a18.74,18.74,0,0,0-3.92-11.51,18.78,18.78,0,0,1,2.34,9.11c0,10.42-18.87,36.73-18.87,36.73s-1.49-2.08-3.64-5.3c3,4.55,5.22,7.7,5.22,7.7S79.66,61.62,79.66,51.2Z"/><path class="cls-3" d="M75.74,39.69a18.87,18.87,0,0,0-35.4,9.11c0,7.49,9.75,23.19,15.23,31.43,2.15,3.22,3.64,5.3,3.64,5.3S78.08,59.22,78.08,48.8A18.78,18.78,0,0,0,75.74,39.69ZM69.55,53.22c-2.32,1.24-6.08.85-10.34.85-2.56,0-4.94.14-6.94,0-3.51-.28-5.84-1.47-5.84-6a12.78,12.78,0,1,1,25.56,0C72,50.89,71.08,52.41,69.55,53.22Z"/></g></g><g id="icons"><path d="M52,28.86A11.28,11.28,0,0,1,63.27,40.15a11.05,11.05,0,0,1-.33,2.65c1.91-1,3-2.92,3-6.42a16,16,0,0,0-31.94,0C34,42,37,43.49,41.33,43.84A11.27,11.27,0,0,1,52,28.86Z"/><path d="M75.58,40.27a23.43,23.43,0,0,0-4.91-14.39,23.42,23.42,0,0,1,2.94,11.39c0,13-23.6,45.91-23.6,45.91s-1.86-2.6-4.54-6.63C49.16,82.24,52,86.18,52,86.18S75.58,53.3,75.58,40.27Z"/><path class="cls-3" d="M70.67,25.88A23.59,23.59,0,0,0,26.42,37.27c0,9.36,12.19,29,19,39.28,2.68,4,4.54,6.63,4.54,6.63s23.6-32.88,23.6-45.91A23.42,23.42,0,0,0,70.67,25.88ZM62.94,42.8C60,44.34,55.33,43.86,50,43.86c-3.2,0-6.18.17-8.68,0C37,43.49,34,42,34,36.38a16,16,0,0,1,31.94,0C66,39.88,64.85,41.78,62.94,42.8Z"/></g></svg>