<svg id="icons" xmlns="http://www.w3.org/2000/svg" viewBox="0 0 100 100">
    <defs>
        <style>.cls-1{fill:#2c80ed;}</style>
    </defs>
    <path d="M58.73,68.63H42.63a3.27,3.27,0,0,1-3.39-3.19,6.06,6.06,0,0,1,.66-2.07c4.6-7.6,8.64-14.08,13.29-21.78H42.58a3.09,3.09,0,0,1-3.24-3,3.15,3.15,0,0,1,3.24-3H58.5a3.24,3.24,0,0,1,3.42,3.14,3.65,3.65,0,0,1-.65,2L47.88,62.57H58.73a3,3,0,1,1,0,6.06Z"/>
    <path class="cls-1"
          d="M57.37,66.58H41.26a3.26,3.26,0,0,1-3.38-3.19,6,6,0,0,1,.65-2.07c4.61-7.6,8.65-14.08,13.29-21.78H41.21a3.09,3.09,0,0,1-3.24-3,3.15,3.15,0,0,1,3.24-3.05H57.13a3.25,3.25,0,0,1,3.43,3.14,3.65,3.65,0,0,1-.66,2L46.52,60.53H57.37a3,3,0,1,1,0,6Z"/>
</svg>