<?xml version="1.0" encoding="UTF-8"?>
<svg id="icons" xmlns="http://www.w3.org/2000/svg" viewBox="0 0 100 100">
  <defs>
    <style>
      .cls-1 {
        fill: #fff;
      }

      .cls-2 {
        fill: #4d8dfc;
      }
    </style>
  </defs>
  <path class="cls-1" d="M79.67,64.96c-2.76,0-5,2.24-5,5v5h-5c-2.76,0-5,2.24-5,5,0,1.9,1.07,3.53,2.63,4.38.71.39,1.51.62,2.37.62h10c2.76,0,5-2.24,5-5v-10c0-.86-.24-1.67-.63-2.38-.85-1.56-2.48-2.62-4.37-2.62ZM55.38,74.96h-11.43c-2.76,0-5,2.24-5,5,0,1.9,1.07,3.53,2.62,4.37.71.39,1.51.63,2.38.63h11.43c2.76,0,5-2.24,5-5,0-.86-.24-1.67-.63-2.37-.85-1.56-2.48-2.63-4.37-2.63ZM29.67,74.96h-5v-5c0-.86-.24-1.67-.63-2.38-.85-1.56-2.48-2.62-4.37-2.62-2.76,0-5,2.24-5,5v10c0,1.9,1.07,3.53,2.63,4.38.71.39,1.51.62,2.37.62h10c2.76,0,5-2.24,5-5,0-.86-.24-1.67-.63-2.38-.85-1.56-2.48-2.62-4.37-2.62ZM17.3,60.05c.71.39,1.51.62,2.37.62,2.76,0,5-2.24,5-5v-11.43c0-.86-.24-1.67-.63-2.38-.85-1.56-2.48-2.62-4.37-2.62-2.76,0-5,2.24-5,5v11.43c0,1.9,1.07,3.53,2.63,4.38ZM29.67,14.96h-10c-2.76,0-5,2.24-5,5v10c0,1.9,1.07,3.53,2.63,4.38.71.39,1.51.62,2.37.62,2.76,0,5-2.24,5-5v-5h5c2.76,0,5-2.24,5-5,0-.86-.24-1.67-.63-2.38-.85-1.56-2.48-2.62-4.37-2.62ZM55.38,14.96h-11.43c-2.76,0-5,2.24-5,5,0,1.9,1.07,3.53,2.62,4.37.71.39,1.51.63,2.38.63h11.43c2.76,0,5-2.24,5-5,0-.86-.24-1.67-.63-2.37-.85-1.56-2.48-2.63-4.37-2.63ZM84.04,17.58c-.85-1.56-2.48-2.62-4.37-2.62h-10c-2.76,0-5,2.24-5,5,0,1.9,1.07,3.53,2.63,4.38.71.39,1.51.62,2.37.62h5v5c0,1.9,1.07,3.53,2.63,4.38.71.39,1.51.62,2.37.62,2.76,0,5-2.24,5-5v-10c0-.86-.24-1.67-.63-2.38ZM79.67,39.24c-2.76,0-5,2.24-5,5v11.43c0,1.9,1.07,3.53,2.63,4.38.71.39,1.51.62,2.37.62,2.76,0,5-2.24,5-5v-11.43c0-.86-.24-1.67-.63-2.38-.85-1.56-2.48-2.62-4.37-2.62Z"/>
  <path class="cls-2" d="M54.31,42.8c-1.4-.91-3-1.38-4.62-1.38-.6,0-1.2.06-1.8.19-4.6.98-7.55,5.52-6.56,10.12.48,2.23,1.79,4.14,3.7,5.38s4.19,1.66,6.42,1.18c2.23-.47,4.14-1.79,5.38-3.7,1.24-1.91,1.66-4.19,1.18-6.42-.47-2.23-1.79-4.14-3.7-5.38Z"/>
  <path d="M84.04,67.58c.39.71.63,1.51.63,2.38v10c0,2.76-2.24,5-5,5h-10c-.86,0-1.66-.24-2.37-.62.85,1.56,2.48,2.62,4.37,2.62h10c2.76,0,5-2.24,5-5v-10c0-1.9-1.07-3.53-2.63-4.38ZM59.76,77.58c.39.71.63,1.51.63,2.37,0,2.76-2.24,5-5,5h-11.43c-.86,0-1.67-.24-2.38-.63.85,1.56,2.48,2.63,4.37,2.63h11.43c2.76,0,5-2.24,5-5,0-1.9-1.07-3.53-2.62-4.37ZM26.67,74.96v-3c0-1.9-1.07-3.53-2.63-4.38.39.71.63,1.51.63,2.38v5h2ZM34.04,77.58c.39.71.63,1.51.63,2.38,0,2.76-2.24,5-5,5h-10c-.86,0-1.66-.24-2.37-.62.85,1.56,2.48,2.62,4.37,2.62h10c2.76,0,5-2.24,5-5,0-1.9-1.07-3.53-2.63-4.38ZM21.67,62.67c2.76,0,5-2.24,5-5v-11.43c0-1.9-1.07-3.53-2.63-4.38.39.71.63,1.51.63,2.38v11.43c0,2.76-2.24,5-5,5-.86,0-1.66-.24-2.37-.62.85,1.56,2.48,2.62,4.37,2.62ZM21.67,36.96c2.76,0,5-2.24,5-5v-5h5c2.76,0,5-2.24,5-5,0-1.9-1.07-3.53-2.63-4.38.39.71.63,1.51.63,2.38,0,2.76-2.24,5-5,5h-5v5c0,2.76-2.24,5-5,5-.86,0-1.66-.24-2.37-.62.85,1.56,2.48,2.62,4.37,2.62ZM45.96,26.96h11.43c2.76,0,5-2.24,5-5,0-1.9-1.07-3.53-2.62-4.37.39.71.63,1.51.63,2.37,0,2.76-2.24,5-5,5h-11.43c-.86,0-1.67-.24-2.38-.63.85,1.56,2.48,2.63,4.37,2.63ZM71.67,26.96h3v-2h-5c-.86,0-1.66-.24-2.37-.62.85,1.56,2.48,2.62,4.37,2.62ZM84.04,17.58c.39.71.63,1.51.63,2.38v10c0,2.76-2.24,5-5,5-.86,0-1.66-.24-2.37-.62.85,1.56,2.48,2.62,4.37,2.62,2.76,0,5-2.24,5-5v-10c0-1.9-1.07-3.53-2.63-4.38ZM84.04,41.87c.39.71.63,1.51.63,2.38v11.43c0,2.76-2.24,5-5,5-.86,0-1.66-.24-2.37-.62.85,1.56,2.48,2.62,4.37,2.62,2.76,0,5-2.24,5-5v-11.43c0-1.9-1.07-3.53-2.63-4.38ZM57.03,38.6c-3.03-1.97-6.65-2.63-10.19-1.88-7.3,1.56-11.97,8.76-10.41,16.06,1.36,6.35,6.98,10.71,13.23,10.71.93,0,1.88-.1,2.83-.3,3.54-.75,6.56-2.84,8.53-5.87,1.97-3.03,2.63-6.65,1.88-10.19s-2.84-6.56-5.87-8.53ZM56.83,54.6c-1.24,1.91-3.15,3.23-5.38,3.7-2.23.48-4.51.06-6.42-1.18s-3.23-3.15-3.7-5.38c-.98-4.6,1.96-9.14,6.56-10.12.6-.13,1.2-.19,1.8-.19,1.63,0,3.22.47,4.62,1.38,1.91,1.24,3.23,3.15,3.7,5.38.48,2.23.05,4.51-1.18,6.42Z"/>
</svg>