<svg id="icons" xmlns="http://www.w3.org/2000/svg" viewBox="0 0 100 100"><defs><style>.cls-1{fill:#ffa627;}.cls-2{fill:#4d8dfc;}</style></defs><path d="M59.55,85.44a2.75,2.75,0,0,0-.82,2,2.8,2.8,0,0,0,2.8,2.8H86.68a2.6,2.6,0,0,0,.56-.06,1.66,1.66,0,0,0,.21-.06l.31-.1a2,2,0,0,0,.25-.13l.23-.12A2.89,2.89,0,0,0,89,89a1.67,1.67,0,0,0,.12-.23,1.19,1.19,0,0,0,.13-.25,1.6,1.6,0,0,0,.1-.31,1.66,1.66,0,0,0,.06-.21,2.67,2.67,0,0,0,.06-.56V62.25a2.8,2.8,0,0,0-5.6,0v18.4L70,66.78a2.8,2.8,0,1,0-4,4L79.93,84.61H61.53A2.75,2.75,0,0,0,59.55,85.44Z"/><path d="M84.71,45.73a2.8,2.8,0,0,0,4.78-2V18.59a2.67,2.67,0,0,0-.06-.56,1.66,1.66,0,0,0-.06-.21,1.6,1.6,0,0,0-.1-.31,1.19,1.19,0,0,0-.13-.25A1.67,1.67,0,0,0,89,17a2.89,2.89,0,0,0-.78-.78L88,16.13a2,2,0,0,0-.25-.13l-.3-.1-.22-.06a2.6,2.6,0,0,0-.56-.06H61.53a2.8,2.8,0,0,0,0,5.6h18.4L66.05,35.26a2.8,2.8,0,0,0,4,4L83.89,25.35v18.4A2.79,2.79,0,0,0,84.71,45.73Z"/><path d="M44.45,20.56a2.75,2.75,0,0,0,.82-2,2.8,2.8,0,0,0-2.8-2.8H17.32a2.6,2.6,0,0,0-.56.06l-.21.06-.31.1a2,2,0,0,0-.25.13l-.23.12A2.89,2.89,0,0,0,15,17a1.67,1.67,0,0,0-.12.23,1.19,1.19,0,0,0-.13.25,1.6,1.6,0,0,0-.1.31,1.66,1.66,0,0,0-.06.21,2.67,2.67,0,0,0-.06.56V43.75a2.8,2.8,0,0,0,5.6,0V25.35L34,39.22a2.8,2.8,0,0,0,4-4L24.07,21.39h18.4A2.75,2.75,0,0,0,44.45,20.56Z"/><path d="M40.49,89.4a2.83,2.83,0,0,0,2,.82,2.8,2.8,0,0,0,2.8-2.8V62.26a3.31,3.31,0,0,0-.05-.55c0-.08,0-.15-.07-.22s0-.21-.09-.31-.09-.17-.13-.25-.08-.16-.13-.23a2.69,2.69,0,0,0-.77-.77l-.23-.13-.25-.13-.31-.1a1.41,1.41,0,0,0-.22-.06,2.57,2.57,0,0,0-.55-.06H17.31a2.81,2.81,0,0,0,0,5.61h18.4L21.84,78.93a2.8,2.8,0,0,0,4,4L39.67,69v18.4A2.83,2.83,0,0,0,40.49,89.4Z"/><path class="cls-1" d="M57.55,82.44a2.75,2.75,0,0,0-.82,2,2.8,2.8,0,0,0,2.8,2.8H84.68a2.6,2.6,0,0,0,.56-.06,1.66,1.66,0,0,0,.21-.06l.31-.1a2,2,0,0,0,.25-.13l.23-.12A2.89,2.89,0,0,0,87,86a1.67,1.67,0,0,0,.12-.23,1.19,1.19,0,0,0,.13-.25,1.6,1.6,0,0,0,.1-.31,1.66,1.66,0,0,0,.06-.21,2.67,2.67,0,0,0,.06-.56V59.25a2.8,2.8,0,0,0-5.6,0v18.4L68,63.78a2.8,2.8,0,1,0-4,4L77.93,81.61H59.53A2.75,2.75,0,0,0,57.55,82.44Z"/><path class="cls-1" d="M82.71,42.73a2.8,2.8,0,0,0,4.78-2V15.59a2.67,2.67,0,0,0-.06-.56,1.66,1.66,0,0,0-.06-.21,1.6,1.6,0,0,0-.1-.31,1.19,1.19,0,0,0-.13-.25A1.67,1.67,0,0,0,87,14a2.89,2.89,0,0,0-.78-.78L86,13.13a2,2,0,0,0-.25-.13l-.3-.1-.22-.06a2.6,2.6,0,0,0-.56-.06H59.53a2.8,2.8,0,0,0,0,5.6h18.4L64.05,32.26a2.8,2.8,0,0,0,4,4L81.89,22.35v18.4A2.79,2.79,0,0,0,82.71,42.73Z"/><path class="cls-1" d="M42.45,17.56a2.75,2.75,0,0,0,.82-2,2.8,2.8,0,0,0-2.8-2.8H15.32a2.6,2.6,0,0,0-.56.06l-.21.06-.31.1a2,2,0,0,0-.25.13l-.23.12A2.89,2.89,0,0,0,13,14a1.67,1.67,0,0,0-.12.23,1.19,1.19,0,0,0-.13.25,1.6,1.6,0,0,0-.1.31,1.66,1.66,0,0,0-.06.21,2.67,2.67,0,0,0-.06.56V40.75a2.8,2.8,0,0,0,5.6,0V22.35L32,36.22a2.8,2.8,0,0,0,4-4L22.07,18.39h18.4A2.75,2.75,0,0,0,42.45,17.56Z"/><path class="cls-2" d="M38.49,86.4a2.83,2.83,0,0,0,2,.82,2.8,2.8,0,0,0,2.8-2.8V59.26a3.31,3.31,0,0,0-.05-.55c0-.08,0-.15-.07-.22s0-.21-.09-.31-.09-.17-.13-.25-.08-.16-.13-.23a2.69,2.69,0,0,0-.77-.77l-.23-.13-.25-.13-.31-.1a1.41,1.41,0,0,0-.22-.06,2.57,2.57,0,0,0-.55-.06H15.31a2.81,2.81,0,0,0,0,5.61h18.4L19.84,75.93a2.8,2.8,0,0,0,4,4L37.67,66v18.4A2.83,2.83,0,0,0,38.49,86.4Z"/></svg>