<svg id="icons" xmlns="http://www.w3.org/2000/svg" viewBox="0 0 100 100"><defs><style>.cls-1{fill:#3ec188;}.cls-2{fill:#fff;}.cls-3{fill:#ed1e79;}</style></defs><path d="M29.93,58h-6a5,5,0,0,1,0-10h6a5,5,0,1,1,0,10Z"/><path d="M59.36,58H44.64a5,5,0,0,1,0-10H59.36a5,5,0,0,1,0,10Z"/><path d="M80.07,58h-6a5,5,0,0,1,0-10h6a5,5,0,0,1,0,10Z"/><path class="cls-1" d="M27.93,55h-6a5,5,0,0,1,0-10h6a5,5,0,1,1,0,10Z"/><path class="cls-2" d="M57.36,55H42.64a5,5,0,0,1,0-10H57.36a5,5,0,0,1,0,10Z"/><path class="cls-3" d="M78.07,55h-6a5,5,0,0,1,0-10h6a5,5,0,0,1,0,10Z"/></svg>