<svg id="icons" xmlns="http://www.w3.org/2000/svg" viewBox="0 0 100 100"><defs><style>.cls-1{fill:#4d8dfc;}.cls-2{fill:#fff;}</style></defs><rect x="20.58" y="33.07" width="58.85" height="33.86"/><path class="cls-1" d="M79.42,68.43H20.58a1.5,1.5,0,0,1-1.5-1.5V33.07a1.5,1.5,0,0,1,1.5-1.5H79.42a1.5,1.5,0,0,1,1.5,1.5V66.93A1.5,1.5,0,0,1,79.42,68.43Zm-57.34-3H77.92V34.57H22.08Z"/><path d="M79.42,48.66a2.49,2.49,0,0,1-1.77-.73L64.56,34.84a2.51,2.51,0,0,1,0-3.54L77.65,18.21a2.5,2.5,0,0,1,3.54,0L94.28,31.3a2.51,2.51,0,0,1,0,3.54L81.19,47.93A2.49,2.49,0,0,1,79.42,48.66ZM69.87,33.07l9.55,9.55L89,33.07l-9.56-9.56Z"/><rect class="cls-2" x="70.17" y="23.81" width="18.51" height="18.51" transform="translate(-0.12 65.85) rotate(-45)"/></svg>