<svg xmlns="http://www.w3.org/2000/svg" viewBox="0 0 100 100"><defs><style>.cls-1{fill:#ffa627;}.cls-2{fill:#fffffc;}</style></defs><g id="icons"><path d="M19.57,29.74l23.65,27.4v-.5L18.54,28.05A6,6,0,0,0,19.57,29.74Zm68-8.68a5.81,5.81,0,0,1-1.16,5.68L60.14,57.17V75.59A8.45,8.45,0,0,1,46,81.88a8.46,8.46,0,0,0,16.25-3.29V60.17L88.56,29.74A5.94,5.94,0,0,0,87.56,21.06Zm-21,14.77a5.46,5.46,0,1,0-5.45-5.46A5.47,5.47,0,0,0,66.53,35.83Zm-14.5,0a5.46,5.46,0,1,0-5.46-5.46A5.47,5.47,0,0,0,52,35.83Zm-14.75,0a5.46,5.46,0,1,0-5.45-5.46A5.47,5.47,0,0,0,37.28,35.83Z"/><path class="cls-1" d="M87.56,21.06a5.88,5.88,0,0,0-5.65-4.14h-60a5.94,5.94,0,0,0-4.5,9.82l1.13,1.31L43.22,56.64v19a8.46,8.46,0,0,0,16.92,0V57.17L86.4,26.74A5.81,5.81,0,0,0,87.56,21.06Z"/><path d="M51.68,79.05a3.49,3.49,0,0,1-3.46-3.46V54.78l-27-31.31a.85.85,0,0,1-.15-1,.88.88,0,0,1,.86-.55h60a.88.88,0,0,1,.89.67.83.83,0,0,1-.18.88L55.14,55.31V75.59A3.47,3.47,0,0,1,51.68,79.05Z"/><path class="cls-2" d="M55.14,55.31V75.59a3.47,3.47,0,0,1-3.46,3.46,3.49,3.49,0,0,1-3.46-3.46V54.78"/></g></svg>