<svg id="icons" xmlns="http://www.w3.org/2000/svg" viewBox="0 0 100 100">
    <defs>
        <style>.cls-1{fill:#cb2600;}</style>
    </defs>
    <path d="M44.39,67.18v-.05a3.45,3.45,0,0,1-3,1.93A3.27,3.27,0,0,1,38.19,66a3.44,3.44,0,0,1,.47-1.59l8.12-13L39.32,39.66a3.72,3.72,0,0,1-.38-1.6,3.19,3.19,0,0,1,3.15-3,4,4,0,0,1,3.24,2.16L50.63,46l5.31-8.74a4.15,4.15,0,0,1,3.28-2.16,3.12,3.12,0,0,1,3.11,3,4,4,0,0,1-.43,1.55L54.48,51.45l8.13,13A3.56,3.56,0,0,1,63.07,66a3.29,3.29,0,0,1-3.14,3.06,3.45,3.45,0,0,1-3-1.88L50.63,56.85Z"/>
    <path class="cls-1"
          d="M43,65.13v0A3.43,3.43,0,0,1,40,67,3.28,3.28,0,0,1,36.82,64a3.57,3.57,0,0,1,.47-1.59l8.13-13L38,37.61a3.87,3.87,0,0,1-.38-1.6,3.18,3.18,0,0,1,3.15-2.95A3.93,3.93,0,0,1,44,35.22L49.27,44l5.3-8.73a4.15,4.15,0,0,1,3.29-2.16,3.11,3.11,0,0,1,3.1,3,4,4,0,0,1-.43,1.55L53.12,49.4l8.12,13A3.44,3.44,0,0,1,61.71,64,3.3,3.3,0,0,1,58.57,67a3.47,3.47,0,0,1-3.06-1.88L49.27,54.8Z"/>
</svg>