<svg id="icons" xmlns="http://www.w3.org/2000/svg" viewBox="0 0 100 100">
    <defs>
        <style>.cls-1{fill:#ffa627;}.cls-2{fill:#fff;}</style>
    </defs>
    <path d="M8.7,36.49v33a7.78,7.78,0,0,0,7.75,7.75h5.2v-5h-5.2a2.79,2.79,0,0,1-2.75-2.75v-33a2.79,2.79,0,0,1,2.75-2.75h5.2v-5h-5.2A7.78,7.78,0,0,0,8.7,36.49ZM84,28.74H39.52v5H84a2.79,2.79,0,0,1,2.75,2.75v33A2.79,2.79,0,0,1,84,72.26H39.52v5H84a7.77,7.77,0,0,0,7.75-7.75v-33A7.77,7.77,0,0,0,84,28.74Z"/>
    <path d="M55.31,47.62a6,6,0,0,0-3.28-1,6.18,6.18,0,0,0-1.28.13,6.06,6.06,0,1,0,4.56.84Z"/>
    <path class="cls-1" d="M47.11,55.38a6.06,6.06,0,1,0,3.31-11.14,6.25,6.25,0,0,0-1.28.13,6.06,6.06,0,0,0-2,11Z"/>
    <path d="M75.42,47.62a6,6,0,0,0-3.28-1,6.08,6.08,0,0,0-1.27.13,6.05,6.05,0,1,0,4.55.84Z"/>
    <path class="cls-1"
          d="M67.23,55.38a6,6,0,0,0,4.56.84,6.06,6.06,0,0,0-1.25-12,6.18,6.18,0,0,0-1.28.13,6.06,6.06,0,0,0-2,11Z"/>
    <polygon
            points="39.52 19.61 39.52 13.06 21.65 13.06 21.65 19.61 27.31 19.61 27.31 86.39 21.65 86.39 21.65 92.94 39.52 92.94 39.52 86.39 33.86 86.39 33.86 19.61 39.52 19.61"/>
    <polygon class="cls-2"
             points="38.52 16.61 38.52 10.06 20.65 10.06 20.65 16.61 26.31 16.61 26.31 83.39 20.65 83.39 20.65 89.94 38.52 89.94 38.52 83.39 32.86 83.39 32.86 16.61 38.52 16.61"/>
    <path class="cls-2"
          d="M7.7,33.49v33a7.78,7.78,0,0,0,7.75,7.75h5.2v-5h-5.2a2.79,2.79,0,0,1-2.75-2.75v-33a2.79,2.79,0,0,1,2.75-2.75h5.2v-5h-5.2A7.78,7.78,0,0,0,7.7,33.49ZM83,25.74H38.52v5H83a2.79,2.79,0,0,1,2.75,2.75v33A2.79,2.79,0,0,1,83,69.26H38.52v5H83a7.77,7.77,0,0,0,7.75-7.75v-33A7.77,7.77,0,0,0,83,25.74Z"/>
</svg>