<svg id="icons" xmlns="http://www.w3.org/2000/svg" viewBox="0 0 200 100"><defs><style>.cls-1{fill:none;stroke:#000;stroke-miterlimit:10;stroke-width:5px;opacity:0.5;}.cls-2{fill:#b3b3b3;}.cls-3{fill:#67a900;}.cls-4{fill:#2c80ed;}</style></defs><circle cx="42.28" cy="50.03" r="29.75"/><line class="cls-1" x1="46.38" y1="52.08" x2="155.63" y2="52.08"/><path d="M150.75,67.18v-.05a3.43,3.43,0,0,1-3,1.93,3.28,3.28,0,0,1-3.2-3.06,3.57,3.57,0,0,1,.47-1.59l8.13-13-7.47-11.79a3.87,3.87,0,0,1-.38-1.6,3.19,3.19,0,0,1,3.15-3,4,4,0,0,1,3.24,2.16L157,46l5.3-8.74a4.17,4.17,0,0,1,3.29-2.16,3.12,3.12,0,0,1,3.1,3,4,4,0,0,1-.43,1.55l-7.41,11.79,8.12,13a3.44,3.44,0,0,1,.47,1.59,3.3,3.3,0,0,1-3.14,3.06,3.47,3.47,0,0,1-3.06-1.88L157,56.85Z"/><path class="cls-2" d="M149.39,65.13v0a3.45,3.45,0,0,1-3,1.93A3.27,3.27,0,0,1,143.19,64a3.44,3.44,0,0,1,.47-1.59l8.12-13-7.47-11.79a3.86,3.86,0,0,1-.37-1.6,3.18,3.18,0,0,1,3.15-2.95,3.9,3.9,0,0,1,3.23,2.16L155.63,44l5.31-8.73a4.13,4.13,0,0,1,3.28-2.16,3.1,3.1,0,0,1,3.1,3,4,4,0,0,1-.42,1.55L159.48,49.4l8.13,13a3.56,3.56,0,0,1,.46,1.59A3.3,3.3,0,0,1,164.93,67a3.48,3.48,0,0,1-3.06-1.88L155.63,54.8Z"/><path d="M99,66V55.67L90.77,39.52a3.9,3.9,0,0,1-.28-1.36,3.33,3.33,0,0,1,3.33-3.06,3.06,3.06,0,0,1,2.68,1.41l5.87,11.65,5.82-11.65a3.11,3.11,0,0,1,2.73-1.41,3.33,3.33,0,0,1,3.33,3.06,4.82,4.82,0,0,1-.33,1.36L105.7,55.67V66a3.24,3.24,0,0,1-3.33,3.1A3.21,3.21,0,0,1,99,66Z"/><path class="cls-3" d="M97.67,63.91V53.62L89.41,37.47a3.69,3.69,0,0,1-.29-1.36,3.33,3.33,0,0,1,3.34-3,3,3,0,0,1,2.67,1.4L101,46.11l5.82-11.65a3.07,3.07,0,0,1,2.72-1.4,3.33,3.33,0,0,1,3.34,3,4.82,4.82,0,0,1-.33,1.36l-8.22,16.15V63.91A3.25,3.25,0,0,1,101,67,3.21,3.21,0,0,1,97.67,63.91Z"/><path d="M51.75,68.63H35.64a3.27,3.27,0,0,1-3.38-3.19,5.85,5.85,0,0,1,.66-2.07c4.6-7.6,8.64-14.08,13.29-21.78H35.59a3.08,3.08,0,0,1-3.23-3,3.14,3.14,0,0,1,3.23-3H51.51a3.25,3.25,0,0,1,3.43,3.14,3.65,3.65,0,0,1-.66,2L40.9,62.57H51.75a3,3,0,1,1,0,6.06Z"/><path class="cls-4" d="M50.38,66.58H34.28a3.27,3.27,0,0,1-3.39-3.19,6.06,6.06,0,0,1,.66-2.07c4.6-7.6,8.64-14.08,13.29-21.78H34.23a3.09,3.09,0,0,1-3.24-3,3.15,3.15,0,0,1,3.24-3.05H50.15a3.24,3.24,0,0,1,3.42,3.14,3.65,3.65,0,0,1-.65,2L39.53,60.53H50.38a3,3,0,1,1,0,6Z"/></svg>