<svg id="icons" xmlns="http://www.w3.org/2000/svg" viewBox="0 0 100 100"><defs><style>.cls-1{fill:#fff;}</style></defs><path d="M43.48,40.17h17a3.64,3.64,0,0,0,3.68-3.69,3.74,3.74,0,0,0-3.68-3.68h-17a3.74,3.74,0,0,0-3.68,3.68A3.64,3.64,0,0,0,43.48,40.17Zm27,9.63h-37a3.74,3.74,0,0,0-3.68,3.68,3.64,3.64,0,0,0,3.68,3.69h37a3.64,3.64,0,0,0,3.68-3.69A3.74,3.74,0,0,0,70.52,49.8ZM52,23.17h0a3.63,3.63,0,0,0,3.68-3.69A3.74,3.74,0,0,0,52,15.8h0a3.74,3.74,0,0,0-3.68,3.68A3.63,3.63,0,0,0,52,23.17ZM80.52,66.8h-57a3.74,3.74,0,0,0-3.68,3.68,3.63,3.63,0,0,0,3.68,3.68h57a3.63,3.63,0,0,0,3.68-3.68A3.74,3.74,0,0,0,80.52,66.8Zm10,17h-77A3.75,3.75,0,0,0,9.8,87.48a3.63,3.63,0,0,0,3.68,3.68h77a3.63,3.63,0,0,0,3.68-3.68A3.75,3.75,0,0,0,90.52,83.79Z"/><path class="cls-1" d="M41.48,37.17h17a3.64,3.64,0,0,0,3.68-3.69,3.74,3.74,0,0,0-3.68-3.68h-17a3.74,3.74,0,0,0-3.68,3.68A3.64,3.64,0,0,0,41.48,37.17Zm27,9.63h-37a3.74,3.74,0,0,0-3.68,3.68,3.64,3.64,0,0,0,3.68,3.69h37a3.64,3.64,0,0,0,3.68-3.69A3.74,3.74,0,0,0,68.52,46.8ZM50,20.17h0a3.63,3.63,0,0,0,3.68-3.69A3.74,3.74,0,0,0,50,12.8h0a3.74,3.74,0,0,0-3.68,3.68A3.63,3.63,0,0,0,50,20.17ZM78.52,63.8h-57a3.74,3.74,0,0,0-3.68,3.68,3.63,3.63,0,0,0,3.68,3.68h57a3.63,3.63,0,0,0,3.68-3.68A3.74,3.74,0,0,0,78.52,63.8Zm10,17h-77A3.75,3.75,0,0,0,7.8,84.48a3.63,3.63,0,0,0,3.68,3.68h77a3.63,3.63,0,0,0,3.68-3.68A3.75,3.75,0,0,0,88.52,80.79Z"/></svg>