<svg id="icons" xmlns="http://www.w3.org/2000/svg" viewBox="0 0 100 100"><path d="M60.67,58.32A23.8,23.8,0,0,1,37.53,39.57,23.68,23.68,0,0,1,55.76,11.46a23.69,23.69,0,1,1,4.91,46.86Z" style="fill:#ffa627"/><path d="M60.73,13.43h0A21.27,21.27,0,0,1,81.42,30.2a21.19,21.19,0,0,1-16.3,25.15,21.56,21.56,0,0,1-4.45.47A21.28,21.28,0,0,1,40,39.05,21.19,21.19,0,0,1,56.28,13.9a21.56,21.56,0,0,1,4.45-.47m0-5a26.2,26.2,0,0,0-.06,52.39,26.48,26.48,0,0,0,5.49-.58A26.19,26.19,0,0,0,60.73,8.43Z"/><rect x="12.29" y="31.32" width="39.14" height="39.14" style="fill:#ffa627"/><path d="M48.93,33.82V68H14.79V33.82H48.93m5-5H9.79V73H53.93V28.82Z"/><polygon points="34.18 89.81 58.67 48.53 83.16 89.81 34.18 89.81" style="fill:#ffa627"/><path d="M58.67,53.43l20.1,33.88H38.57l20.1-33.88m0-9.8L29.79,92.31H87.55L58.67,43.63Z"/></svg>