<?xml version="1.0" encoding="UTF-8"?>
<svg xmlns="http://www.w3.org/2000/svg" viewBox="0 0 100 100">
  <defs>
    <style>
      .cls-1 {
        fill: #fff;
      }

      .cls-2 {
        fill: #4d8dfc;
      }

      .cls-3 {
        opacity: .5;
      }

      .cls-4 {
        opacity: .7;
      }
    </style>
  </defs>
  <g id="Layer_25" data-name="Layer 25">
    <g class="cls-3">
      <path class="cls-1" d="M76.13,36.52c-.92-.59-1.94-.88-2.96-.88-1.79,0-3.55.88-4.59,2.49-.79,1.22-1.06,2.68-.76,4.11.13.6.36,1.17.67,1.68.15-.04.31-.06.46-.07.65-.06,1.32.07,1.93.43.41.24.74.56.99.93.27.39.44.84.52,1.3.63.09,1.27.07,1.91-.06.1-.02.2-.05.29-.08,1.06-.29,2-.88,2.71-1.71.16-.18.31-.38.44-.58.79-1.22,1.06-2.68.76-4.11s-1.15-2.65-2.37-3.44ZM96.72,70.37c-.3-1.43-1.15-2.65-2.37-3.44-.9-.58-1.92-.88-2.96-.88-.38,0-.77.04-1.15.12-.05.01-.1.03-.15.04-1.07.26-2.02.83-2.75,1.63-.2.22-.38.45-.54.7-.28.43-.49.89-.64,1.37-.27.88-.32,1.82-.12,2.74.03.16.08.31.12.46.37,1.23,1.16,2.28,2.25,2.98,1.22.79,2.68,1.06,4.11.76,1.43-.3,2.65-1.15,3.44-2.37.79-1.22,1.06-2.68.76-4.11ZM59.08,69.91c-.19-.61-.48-1.18-.86-1.69-.07-.09-.14-.18-.21-.27-.33-.07-.65-.19-.95-.37-.47-.28-.83-.67-1.09-1.11-.12-.05-.23-.09-.35-.13-.56-.19-1.15-.3-1.74-.3-.38,0-.77.04-1.15.12-1.43.3-2.65,1.15-3.44,2.37s-1.06,2.68-.76,4.11c.3,1.43,1.15,2.65,2.37,3.44s2.68,1.06,4.11.76c1.43-.3,2.65-1.15,3.44-2.37.28-.43.49-.89.64-1.37.27-.88.32-1.82.12-2.74-.03-.16-.08-.31-.12-.46Z"/>
      <path d="M99.85,69.71c-.48-2.26-1.82-4.2-3.76-5.46-1.94-1.26-4.26-1.69-6.52-1.2-.4.08-.78.2-1.16.34l-9.42-15.88c.54-.49,1.03-1.05,1.44-1.69,1.26-1.94,1.69-4.26,1.2-6.52-.48-2.26-1.82-4.2-3.76-5.46-4.01-2.6-9.38-1.45-11.98,2.56-1.26,1.94-1.69,4.26-1.2,6.52.25,1.16.72,2.24,1.39,3.18l.41-.7c.16-.27.37-.5.59-.71.4-.37.88-.64,1.4-.77-.31-.51-.54-1.08-.67-1.68-.3-1.43-.03-2.89.76-4.11,1.04-1.61,2.8-2.49,4.59-2.49,1.02,0,2.05.28,2.96.88,1.22.79,2.07,2.02,2.37,3.44s.03,2.89-.76,4.11c-.13.21-.28.4-.44.58-.71.83-1.64,1.42-2.71,1.71-.1.03-.19.06-.29.08-.64.14-1.28.15-1.91.06.09.53.06,1.07-.13,1.59-.07.19-.15.38-.26.56l-.55.93c.56.11,1.13.17,1.7.17.61,0,1.22-.06,1.82-.19.45-.1.88-.23,1.3-.39l9.39,15.83c-.59.52-1.11,1.11-1.55,1.79-.62.96-1.04,2.02-1.25,3.11h-20.5c-.01-.07-.02-.14-.03-.21-.22-1.03-.62-1.98-1.17-2.84-.35.43-.8.75-1.3.95-.37.15-.77.23-1.18.23-.11,0-.23-.01-.34-.02-.11-.01-.23-.03-.34-.06.08.09.14.18.21.27.38.5.67,1.07.86,1.69.05.15.09.3.12.46.2.92.15,1.86-.12,2.74-.15.48-.36.94-.64,1.37-.79,1.22-2.02,2.07-3.44,2.37-1.43.31-2.89.04-4.11-.76s-2.07-2.02-2.37-3.44c-.3-1.43-.03-2.89.76-4.11s2.02-2.07,3.44-2.37c.38-.08.77-.12,1.15-.12.59,0,1.18.11,1.74.3.12.04.24.08.35.13-.07-.12-.15-.25-.2-.38-.2-.45-.28-.95-.25-1.45.03-.5.16-.99.43-1.45l.05-.08c-1.27-.32-2.61-.36-3.93-.08-2.26.48-4.2,1.82-5.46,3.76-1.26,1.94-1.69,4.26-1.2,6.52s1.82,4.2,3.76,5.46c1.42.92,3.04,1.4,4.69,1.4.61,0,1.22-.06,1.83-.19,2.26-.48,4.2-1.82,5.46-3.76.62-.96,1.04-2.02,1.25-3.11h20.5c.01.07.02.14.03.21.48,2.26,1.82,4.2,3.76,5.46,1.42.92,3.04,1.4,4.69,1.4.61,0,1.22-.06,1.82-.19,2.26-.48,4.2-1.82,5.46-3.76,1.26-1.94,1.69-4.26,1.2-6.52ZM92.52,76.85c-1.43.31-2.89.04-4.11-.76-1.09-.71-1.87-1.75-2.25-2.98-.05-.15-.09-.3-.12-.46-.2-.92-.15-1.86.12-2.74.15-.48.36-.94.64-1.37.16-.25.35-.48.54-.7.73-.81,1.68-1.37,2.75-1.63.05-.01.1-.03.15-.04.38-.08.77-.12,1.15-.12,1.04,0,2.06.3,2.96.88,1.22.79,2.07,2.02,2.37,3.44s.03,2.89-.76,4.11c-.79,1.22-2.02,2.07-3.44,2.37Z"/>
      <path class="cls-2" d="M72.39,46.51c-.08-.46-.25-.91-.52-1.3-.25-.37-.58-.69-.99-.93-.6-.36-1.28-.49-1.93-.43-.16.01-.31.04-.46.07-.52.13-1,.39-1.4.77-.22.21-.43.43-.59.71l-.41.7-10.1,17.03-.05.08c-.27.46-.4.95-.43,1.45-.03.5.05.99.25,1.45.06.13.13.26.2.38.26.44.62.83,1.09,1.11.3.18.62.3.95.37.11.02.23.05.34.06.11.01.23.02.34.02.4,0,.8-.08,1.18-.23.5-.2.94-.52,1.3-.95.1-.12.2-.25.28-.4l10.01-16.87.55-.93c.11-.18.19-.37.26-.56.19-.52.22-1.07.13-1.59Z"/>
    </g>
  </g>
  <g id="icons_50" data-name="icons 50">
    <g class="cls-4">
      <path class="cls-1" d="M65.01,28.58c-1.14-.74-2.43-1.1-3.7-1.1-2.24,0-4.43,1.1-5.74,3.11-.99,1.53-1.33,3.35-.95,5.14.16.75.45,1.46.83,2.1.19-.05.38-.07.58-.09.81-.08,1.65.08,2.41.53.51.3.92.7,1.24,1.16.34.49.55,1.05.65,1.63.78.11,1.59.09,2.39-.08.12-.03.25-.06.37-.1,1.33-.36,2.5-1.1,3.38-2.14.2-.23.38-.47.55-.73.99-1.53,1.33-3.35.95-5.14s-1.43-3.31-2.96-4.3ZM90.74,70.89c-.38-1.78-1.43-3.31-2.96-4.3-1.12-.73-2.4-1.1-3.7-1.1-.48,0-.96.05-1.44.15-.06.01-.12.03-.18.05-1.34.32-2.53,1.03-3.44,2.04-.25.27-.48.56-.68.87-.35.54-.61,1.12-.8,1.71-.34,1.1-.4,2.27-.15,3.42.04.2.09.39.15.58.47,1.53,1.45,2.84,2.81,3.73,1.53.99,3.35,1.33,5.14.95,1.78-.38,3.31-1.43,4.3-2.96.99-1.53,1.33-3.35.95-5.14ZM43.69,70.31c-.23-.77-.6-1.48-1.08-2.11-.09-.11-.17-.23-.27-.34-.41-.09-.81-.24-1.18-.46-.59-.35-1.04-.83-1.37-1.38-.14-.06-.29-.12-.44-.17-.7-.24-1.43-.37-2.17-.37-.48,0-.96.05-1.44.15-1.78.38-3.31,1.43-4.3,2.96s-1.33,3.35-.95,5.14c.38,1.78,1.43,3.31,2.96,4.3s3.35,1.33,5.14.95c1.78-.38,3.31-1.43,4.3-2.96.35-.54.61-1.12.8-1.71.34-1.1.4-2.27.15-3.42-.04-.2-.09-.39-.15-.58Z"/>
      <path d="M94.65,70.05c-.6-2.83-2.27-5.25-4.7-6.82-2.43-1.57-5.32-2.11-8.15-1.5-.5.11-.98.26-1.44.43l-11.78-19.85c.68-.62,1.29-1.32,1.8-2.11,1.57-2.43,2.11-5.32,1.5-8.15-.6-2.83-2.27-5.25-4.7-6.83-5.01-3.25-11.73-1.81-14.97,3.19-1.57,2.43-2.11,5.32-1.5,8.15.31,1.45.91,2.8,1.74,3.98l.52-.87c.2-.34.46-.63.74-.88.5-.47,1.1-.8,1.75-.96-.39-.64-.67-1.34-.83-2.1-.38-1.78-.04-3.61.95-5.14,1.31-2.01,3.5-3.11,5.74-3.11,1.27,0,2.56.35,3.7,1.1,1.53.99,2.58,2.52,2.96,4.3s.04,3.61-.95,5.14c-.17.26-.36.5-.55.73-.89,1.04-2.05,1.78-3.38,2.14-.12.03-.24.07-.37.1-.8.17-1.6.19-2.39.08.11.66.07,1.34-.16,1.99-.09.24-.19.47-.33.7l-.69,1.17c.7.14,1.41.22,2.12.22.76,0,1.52-.08,2.28-.24.56-.12,1.1-.29,1.62-.49l11.74,19.79c-.73.65-1.39,1.39-1.94,2.24-.78,1.2-1.3,2.52-1.56,3.89h-25.62c-.02-.09-.02-.17-.04-.26-.27-1.28-.78-2.48-1.46-3.55-.44.54-1,.94-1.62,1.18-.47.18-.97.28-1.47.28-.14,0-.28-.01-.43-.03-.14-.02-.28-.04-.42-.07.09.11.18.22.27.34.48.63.84,1.34,1.08,2.11.06.19.11.38.15.58.25,1.15.19,2.33-.15,3.42-.18.6-.45,1.17-.8,1.71-.99,1.53-2.52,2.58-4.3,2.96-1.78.38-3.61.04-5.14-.95s-2.58-2.52-2.96-4.3c-.38-1.78-.04-3.61.95-5.14s2.52-2.58,4.3-2.96c.48-.1.96-.15,1.44-.15.74,0,1.47.14,2.17.37.15.05.29.1.44.17-.09-.16-.18-.31-.25-.48-.24-.57-.35-1.19-.31-1.81.03-.62.2-1.24.54-1.81l.06-.1c-1.59-.4-3.26-.45-4.91-.1-2.83.6-5.25,2.27-6.82,4.7-1.57,2.43-2.11,5.32-1.5,8.15s2.27,5.25,4.7,6.82c1.78,1.15,3.8,1.75,5.87,1.75.76,0,1.52-.08,2.28-.24,2.83-.6,5.25-2.27,6.82-4.7.78-1.2,1.3-2.52,1.56-3.89h25.62c.02.09.02.17.04.26.6,2.83,2.27,5.25,4.7,6.82,1.78,1.15,3.8,1.75,5.87,1.75.76,0,1.52-.08,2.28-.24,2.83-.6,5.25-2.27,6.82-4.7,1.57-2.43,2.11-5.32,1.5-8.15ZM85.49,78.99c-1.78.38-3.61.04-5.14-.95-1.36-.88-2.34-2.19-2.81-3.73-.06-.19-.11-.38-.15-.58-.25-1.16-.19-2.33.15-3.42.18-.6.45-1.17.8-1.71.2-.31.43-.6.68-.87.91-1.01,2.1-1.72,3.44-2.04.06-.01.12-.03.18-.05.48-.1.96-.15,1.44-.15,1.3,0,2.58.38,3.7,1.1,1.53.99,2.58,2.52,2.96,4.3s.04,3.61-.95,5.14c-.99,1.53-2.52,2.58-4.3,2.96Z"/>
      <path class="cls-2" d="M60.34,41.06c-.1-.58-.31-1.14-.65-1.63-.32-.46-.73-.86-1.24-1.16-.76-.45-1.6-.61-2.41-.53-.2.02-.39.04-.58.09-.65.16-1.25.49-1.75.96-.28.26-.53.54-.74.88l-.52.87-12.63,21.29-.06.1c-.34.57-.5,1.19-.54,1.81-.03.62.07,1.24.31,1.81.07.17.16.32.25.48.33.55.78,1.03,1.37,1.38.38.22.78.37,1.18.46.14.03.28.06.42.07.14.02.29.03.43.03.51,0,1.01-.1,1.47-.28.62-.24,1.18-.65,1.62-1.18.13-.15.24-.32.35-.49l12.51-21.09.69-1.17c.13-.23.24-.46.33-.7.23-.65.27-1.33.16-1.99Z"/>
    </g>
  </g>
  <g id="Layer_5" data-name="Layer 5">
    <g>
      <path class="cls-1" d="M50.11,18.39c-1.43-.93-3.04-1.37-4.63-1.37-2.8,0-5.54,1.37-7.17,3.89-1.24,1.91-1.66,4.19-1.19,6.42.2.94.56,1.82,1.04,2.62.24-.06.48-.09.73-.11,1.02-.09,2.07.11,3.01.67.64.38,1.15.88,1.55,1.45.42.61.69,1.31.81,2.03.98.14,1.99.12,2.99-.1.16-.03.31-.08.46-.12,1.66-.45,3.12-1.37,4.23-2.67.25-.29.48-.59.69-.91,1.24-1.91,1.66-4.19,1.19-6.42s-1.79-4.14-3.7-5.38ZM82.27,71.28c-.48-2.23-1.79-4.14-3.7-5.38-1.4-.91-3-1.38-4.62-1.38-.6,0-1.2.06-1.8.19-.08.02-.15.04-.23.06-1.68.41-3.16,1.29-4.3,2.55-.31.34-.6.7-.85,1.09-.44.67-.77,1.39-1,2.14-.42,1.37-.5,2.84-.19,4.28.05.24.12.48.19.72.58,1.92,1.81,3.55,3.51,4.66,1.91,1.24,4.19,1.66,6.42,1.18,2.23-.48,4.14-1.79,5.38-3.7,1.24-1.91,1.66-4.19,1.19-6.42ZM23.46,70.56c-.29-.96-.75-1.85-1.35-2.63-.11-.14-.22-.29-.33-.42-.51-.11-1.01-.29-1.48-.58-.74-.44-1.3-1.04-1.71-1.73-.18-.08-.36-.14-.55-.21-.88-.3-1.79-.47-2.72-.47-.6,0-1.2.06-1.8.19-2.23.48-4.14,1.79-5.38,3.7s-1.66,4.19-1.19,6.42c.48,2.23,1.79,4.14,3.7,5.38s4.19,1.66,6.42,1.18c2.23-.48,4.14-1.79,5.38-3.7.44-.67.77-1.39,1-2.14.42-1.37.5-2.84.19-4.28-.05-.24-.12-.48-.19-.72Z"/>
      <path d="M87.16,70.24c-.75-3.53-2.84-6.56-5.87-8.53-3.03-1.97-6.65-2.64-10.18-1.88-.62.13-1.22.32-1.81.53l-14.72-24.82c.85-.77,1.61-1.65,2.25-2.63,1.97-3.03,2.63-6.65,1.88-10.18-.75-3.54-2.84-6.57-5.87-8.53-6.26-4.06-14.66-2.27-18.72,3.99-1.97,3.03-2.63,6.65-1.88,10.18.39,1.82,1.13,3.5,2.17,4.97l.65-1.09c.25-.43.57-.78.92-1.11.63-.58,1.38-1,2.19-1.2-.48-.8-.84-1.68-1.04-2.62-.48-2.23-.05-4.51,1.19-6.42,1.63-2.52,4.38-3.89,7.17-3.89,1.59,0,3.2.44,4.63,1.37,1.91,1.24,3.23,3.15,3.7,5.38s.05,4.51-1.19,6.42c-.21.32-.44.62-.69.91-1.11,1.3-2.57,2.22-4.23,2.67-.15.04-.3.09-.46.12-1,.21-2.01.24-2.99.1.14.82.09,1.67-.2,2.49-.11.3-.24.59-.41.88l-.86,1.46c.87.18,1.76.27,2.65.27.95,0,1.9-.1,2.85-.3.7-.15,1.37-.36,2.03-.61l14.67,24.74c-.92.81-1.74,1.74-2.42,2.8-.98,1.5-1.63,3.15-1.95,4.86H28.59c-.02-.11-.03-.22-.05-.32-.34-1.6-.97-3.1-1.83-4.44-.55.67-1.25,1.18-2.02,1.48-.59.23-1.21.35-1.84.35-.18,0-.36-.02-.53-.03-.18-.02-.35-.05-.53-.09.12.14.23.28.33.42.59.79,1.05,1.67,1.35,2.63.07.24.14.48.19.72.31,1.44.23,2.91-.19,4.28-.23.75-.56,1.47-1,2.14-1.24,1.91-3.15,3.23-5.38,3.7-2.23.48-4.51.06-6.42-1.18s-3.23-3.15-3.7-5.38c-.48-2.23-.05-4.51,1.19-6.42s3.15-3.23,5.38-3.7c.6-.13,1.2-.19,1.8-.19.93,0,1.84.17,2.72.47.18.06.37.13.55.21-.12-.19-.23-.39-.32-.6-.31-.71-.44-1.48-.39-2.26.04-.78.25-1.55.67-2.27l.08-.13c-1.99-.51-4.08-.56-6.14-.12-3.54.75-6.57,2.84-8.53,5.87-1.97,3.03-2.63,6.65-1.88,10.19s2.84,6.57,5.87,8.53c2.22,1.44,4.75,2.18,7.33,2.18.95,0,1.9-.1,2.85-.3,3.53-.75,6.56-2.84,8.53-5.87.98-1.5,1.63-3.15,1.95-4.86h32.03c.02.11.03.22.05.32.75,3.54,2.84,6.57,5.87,8.53,2.22,1.44,4.75,2.18,7.33,2.18.95,0,1.9-.1,2.85-.3,3.54-.75,6.57-2.84,8.53-5.87,1.97-3.03,2.63-6.65,1.88-10.19ZM75.71,81.41c-2.23.48-4.51.06-6.42-1.18-1.7-1.1-2.93-2.74-3.51-4.66-.07-.24-.14-.48-.19-.72-.31-1.44-.23-2.91.19-4.28.23-.75.56-1.47,1-2.14.25-.39.54-.75.85-1.09,1.14-1.26,2.62-2.14,4.3-2.55.08-.02.15-.04.23-.06.6-.13,1.2-.19,1.8-.19,1.63,0,3.23.47,4.62,1.38,1.91,1.24,3.23,3.15,3.7,5.38s.05,4.51-1.19,6.42c-1.24,1.91-3.15,3.23-5.38,3.7Z"/>
      <path class="cls-2" d="M44.27,33.99c-.12-.73-.39-1.42-.81-2.03-.4-.57-.91-1.07-1.55-1.45-.94-.56-2-.76-3.01-.67-.24.02-.49.05-.73.11-.81.2-1.56.61-2.19,1.2-.35.32-.67.68-.92,1.11l-.65,1.09-15.78,26.61-.08.13c-.42.71-.63,1.49-.67,2.27-.04.78.09,1.55.39,2.26.09.21.2.4.32.6.41.68.97,1.29,1.71,1.73.47.28.97.46,1.48.58.18.04.35.07.53.09.18.02.36.03.53.03.63,0,1.26-.12,1.84-.35.77-.31,1.47-.81,2.02-1.48.16-.19.31-.4.44-.62l15.64-26.37.86-1.46c.17-.28.3-.58.41-.88.29-.81.34-1.67.2-2.49Z"/>
    </g>
  </g>
</svg>