<svg id="icons" xmlns="http://www.w3.org/2000/svg" viewBox="0 0 100 100"><defs><style>.cls-1{fill:#fff;}.cls-2{opacity:0.5;}</style></defs><path d="M50.29,20a4.54,4.54,0,0,0-.29-.93,4.69,4.69,0,0,0-.45-.86,5.19,5.19,0,0,0-.63-.76,5,5,0,0,0-4.51-1.37,4.36,4.36,0,0,0-.93.29,4.83,4.83,0,0,0-.87.46,5,5,0,0,0-.76.62,4.92,4.92,0,0,0-.77,1H20a2.5,2.5,0,0,0-2.5,2.5V85a2.5,2.5,0,0,0,5,0V23.53H41.08a5.12,5.12,0,0,0,.77,1A5.07,5.07,0,0,0,45.39,26a4.66,4.66,0,0,0,1-.1,5,5,0,0,0,.93-.28,5.46,5.46,0,0,0,.86-.46,4.57,4.57,0,0,0,.76-.62A5,5,0,0,0,50.39,21,4.73,4.73,0,0,0,50.29,20Z"/><path d="M84,18.53h-21l-.16-.29a4.94,4.94,0,0,0-.62-.75,5.78,5.78,0,0,0-.76-.63,4.69,4.69,0,0,0-.86-.45,4.45,4.45,0,0,0-.94-.29,4.92,4.92,0,0,0-2,0,4.45,4.45,0,0,0-.94.29,4.69,4.69,0,0,0-.86.45,5.19,5.19,0,0,0-.76.63A5,5,0,0,0,53.61,21a5.34,5.34,0,0,0,.1,1,5,5,0,0,0,.29.93,4.51,4.51,0,0,0,.46.87,5,5,0,0,0,8.31,0l.17-.27H81.47V85a2.5,2.5,0,0,0,5,0V21A2.5,2.5,0,0,0,84,18.53Z"/><path class="cls-1" d="M48.29,17a4.54,4.54,0,0,0-.29-.93,4.69,4.69,0,0,0-.45-.86,5.19,5.19,0,0,0-.63-.76,5,5,0,0,0-4.51-1.37,4.36,4.36,0,0,0-.93.29,4.83,4.83,0,0,0-.87.46,5,5,0,0,0-.76.62,4.92,4.92,0,0,0-.77,1H18a2.5,2.5,0,0,0-2.5,2.5V82a2.5,2.5,0,0,0,5,0V20.53H39.08a5.12,5.12,0,0,0,.77,1A5.07,5.07,0,0,0,43.39,23a4.66,4.66,0,0,0,1-.1,5,5,0,0,0,.93-.28,5.46,5.46,0,0,0,.86-.46,4.57,4.57,0,0,0,.76-.62A5,5,0,0,0,48.39,18,4.73,4.73,0,0,0,48.29,17Z"/><path class="cls-1" d="M82,15.53h-21l-.16-.29a4.94,4.94,0,0,0-.62-.75,5.78,5.78,0,0,0-.76-.63,4.69,4.69,0,0,0-.86-.45,4.45,4.45,0,0,0-.94-.29,4.92,4.92,0,0,0-2,0,4.45,4.45,0,0,0-.94.29,4.69,4.69,0,0,0-.86.45,5.19,5.19,0,0,0-.76.63A5,5,0,0,0,51.61,18a5.34,5.34,0,0,0,.1,1,5,5,0,0,0,.29.93,4.51,4.51,0,0,0,.46.87,5,5,0,0,0,8.31,0l.17-.27H79.47V82a2.5,2.5,0,0,0,5,0V18A2.5,2.5,0,0,0,82,15.53Z"/><g class="cls-2"><path class="cls-1" d="M48.86,39.69A59.52,59.52,0,0,1,51,47.39c.06.24.31.24.5.06,2-2.16,4.49-5.61,7.32-8.31,1.85-1.72,3.2-2.28,4.25-2.28A2.05,2.05,0,0,1,64.86,39c0,1.11-1.23,2.65-2.09,3.45a1.76,1.76,0,0,1-.92.43c-.31,0-.43-.43-.5-1-.12-.86-.55-1.29-1-1.29-2,0-7.26,6.77-8.74,8.5a1.37,1.37,0,0,0-.06.86c.37,1.6.92,4,1.35,5.29,1,3.08,1.73,3.88,2.71,3.88,1.6,0,2.89-2,3.57-3.08.37-.74.55-1.17.86-1.17s.25.25.25.86c0,2.77-3.51,7.33-6,7.33-1.3,0-2.89-1.42-3.7-3.45s-1.47-4.56-2-6.71a.27.27,0,0,0-.49-.06c-2.46,3.14-7.57,10.34-10.77,10.34a2.14,2.14,0,0,1-2.15-2.4,7.32,7.32,0,0,1,2.34-4.43c.49-.37.92-.25.86.24-.19,2,.8,2.53,1.48,2.53,1.16,0,4.12-3,8.12-7.88a.83.83,0,0,0,.18-.74,76.2,76.2,0,0,0-1.91-7.38c-.43-1.24-1.1-2-1.59-2-1.24,0-2.84,2.34-3.45,3.63-.31.61-.68,1-.86,1s-.37-.49-.19-1.41c.8-3.45,4-7.27,6.22-7.27C47.26,37,48.18,37.91,48.86,39.69Z"/></g></svg>