<svg xmlns="http://www.w3.org/2000/svg" viewBox="0 0 100 100"><defs><style>.cls-1{opacity:0.25;}.cls-2{fill:#ffa627;}.cls-3{opacity:0.5;}</style></defs><g id="Layer_25" data-name="Layer 25"><g class="cls-1"><path class="cls-2" d="M53.07,50.5a5.44,5.44,0,0,0-5.2-3.86,5.54,5.54,0,0,0-1.15.12,5.48,5.48,0,0,0-3.45,2.37,5.42,5.42,0,0,0-.75,4.11A5.46,5.46,0,0,0,49,57.44l.15,0a5.32,5.32,0,0,0,2.75-1.63,6.28,6.28,0,0,0,.55-.7A5.45,5.45,0,0,0,53.2,51C53.16,50.81,53.12,50.65,53.07,50.5Z"/><path class="cls-2" d="M70.52,79.35A5.42,5.42,0,0,0,69,77.93,5.69,5.69,0,0,0,68,77.4a5.54,5.54,0,0,0-1.88-.35,5.62,5.62,0,0,0-1.15.12l-.3.08A5.41,5.41,0,0,0,61.93,79a4.21,4.21,0,0,0-.44.58,5.46,5.46,0,1,0,9.16,5.94,5.45,5.45,0,0,0-.13-6.13Z"/><path class="cls-2" d="M88.34,47.52a5.39,5.39,0,0,0-3-.88,5.71,5.71,0,0,0-1.16.12,5.49,5.49,0,0,0-3.44,2.37,5.68,5.68,0,0,0-.64,1.37A5.52,5.52,0,0,0,80,53.24c0,.16.08.31.13.46A5.3,5.3,0,0,0,81,55.39a5.45,5.45,0,0,0,5.49,2A5.41,5.41,0,0,0,90,55.07,5.47,5.47,0,0,0,88.34,47.52Z"/><path d="M90.09,44.84a8.65,8.65,0,0,0-12,2.55,8.45,8.45,0,0,0-1.25,3.11H56.36a8.65,8.65,0,0,0-15.77-3.11,8.67,8.67,0,0,0,7.25,13.38,8.67,8.67,0,0,0,1.82-.2,7.72,7.72,0,0,0,1.16-.34l9.42,15.88A9,9,0,0,0,58.8,77.8a8.67,8.67,0,1,0,13.45-1.35L82,60.06a8.58,8.58,0,0,0,3.39.71,8.74,8.74,0,0,0,1.82-.2,8.57,8.57,0,0,0,5.46-3.76A8.66,8.66,0,0,0,90.09,44.84Zm-37,8.86a5.51,5.51,0,0,1-.64,1.37,6.28,6.28,0,0,1-.55.7,5.32,5.32,0,0,1-2.75,1.63l-.15,0a5.46,5.46,0,0,1-6.47-4.2,5.42,5.42,0,0,1,.75-4.11,5.48,5.48,0,0,1,3.45-2.37,5.54,5.54,0,0,1,1.15-.12,5.44,5.44,0,0,1,5.2,3.86c0,.15.09.31.13.46A5.52,5.52,0,0,1,53.08,53.7ZM70.65,85.48a5.46,5.46,0,1,1-9.16-5.94,4.21,4.21,0,0,1,.44-.58,5.41,5.41,0,0,1,2.7-1.71l.3-.08a5.62,5.62,0,0,1,1.15-.12A5.54,5.54,0,0,1,68,77.4a5.69,5.69,0,0,1,1.08.53,5.45,5.45,0,0,1,1.61,7.55Zm-1-10.86A8.61,8.61,0,0,0,64.26,74a8.16,8.16,0,0,0-1.3.4L53.57,58.6a8.59,8.59,0,0,0,2.79-4.9H76.87l0,.21a8.62,8.62,0,0,0,2.4,4.37ZM90,55.07a5.47,5.47,0,0,1-6.34,2.2A5.41,5.41,0,0,1,81,55.39a5.3,5.3,0,0,1-.86-1.69c0-.15-.09-.3-.13-.46a5.52,5.52,0,0,1,.12-2.74,5.68,5.68,0,0,1,.64-1.37,5.49,5.49,0,0,1,3.44-2.37,5.71,5.71,0,0,1,1.16-.12,5.39,5.39,0,0,1,3,.88A5.47,5.47,0,0,1,90,55.07Z"/></g></g><g id="icons_50" data-name="icons 50"><g class="cls-3"><path class="cls-2" d="M42.69,38.3a6.82,6.82,0,0,0-6.51-4.83,6.42,6.42,0,0,0-1.44.16A6.83,6.83,0,0,0,37.59,47l.18,0a6.78,6.78,0,0,0,3.44-2,6.36,6.36,0,0,0,.68-.87,6.85,6.85,0,0,0,1-5.14A5.47,5.47,0,0,0,42.69,38.3Z"/><path class="cls-2" d="M64.5,74.36a6.83,6.83,0,0,0-1.86-1.77,6.25,6.25,0,0,0-1.35-.66A6.49,6.49,0,0,0,59,71.48a7.06,7.06,0,0,0-1.44.16c-.13,0-.25.06-.37.09a6.83,6.83,0,0,0-3.38,2.14,6.72,6.72,0,0,0-.56.73,6.83,6.83,0,1,0,12.41,2.29A6.94,6.94,0,0,0,64.5,74.36Z"/><path class="cls-2" d="M86.78,34.57a6.84,6.84,0,0,0-3.7-1.1,6.42,6.42,0,0,0-1.44.16,6.77,6.77,0,0,0-4.3,3,6.66,6.66,0,0,0-.8,1.71,6.75,6.75,0,0,0-.15,3.43q.06.29.15.57a6.8,6.8,0,0,0,1.08,2.11A6.69,6.69,0,0,0,79.35,46a6.83,6.83,0,0,0,7.43-11.46Z"/><path d="M89,31.22a10.82,10.82,0,0,0-15,3.19,10.9,10.9,0,0,0-1.56,3.89H46.79A10.82,10.82,0,1,0,36.15,51.13a11,11,0,0,0,2.27-.24,11.56,11.56,0,0,0,1.45-.43L51.65,70.32a10.4,10.4,0,0,0-1.8,2.1,10.82,10.82,0,0,0,9.06,16.72,11,11,0,0,0,2.28-.24,10.84,10.84,0,0,0,8.33-12.85,10.84,10.84,0,0,0-2.87-5.32L78.8,50.25a10.7,10.7,0,0,0,4.24.88,11,11,0,0,0,2.28-.24A10.82,10.82,0,0,0,89,31.22ZM42.69,42.3a6.72,6.72,0,0,1-.8,1.72,6.36,6.36,0,0,1-.68.87,6.78,6.78,0,0,1-3.44,2l-.18,0a6.83,6.83,0,0,1-2.85-13.35,6.42,6.42,0,0,1,1.44-.16,6.82,6.82,0,0,1,6.51,4.83,5.47,5.47,0,0,1,.15.58A6.71,6.71,0,0,1,42.69,42.3ZM64.66,82a6.82,6.82,0,1,1-7.52-10.3c.12,0,.24-.07.37-.09A7.06,7.06,0,0,1,59,71.48a6.49,6.49,0,0,1,2.34.45,6.25,6.25,0,0,1,1.35.66,6.83,6.83,0,0,1,1.86,1.77,6.94,6.94,0,0,1,1.11,2.53A6.8,6.8,0,0,1,64.66,82Zm-1.3-13.58a10.67,10.67,0,0,0-6.69-.72,10.09,10.09,0,0,0-1.62.49L43.31,48.43A10.74,10.74,0,0,0,46.8,42.3H72.43c0,.09,0,.17,0,.26a10.75,10.75,0,0,0,3,5.46ZM88.79,44a6.86,6.86,0,0,1-9.44,2,6.69,6.69,0,0,1-1.73-1.62,6.8,6.8,0,0,1-1.08-2.11q-.09-.28-.15-.57a6.75,6.75,0,0,1,.15-3.43,6.66,6.66,0,0,1,.8-1.71,6.77,6.77,0,0,1,4.3-3,6.42,6.42,0,0,1,1.44-.16A6.83,6.83,0,0,1,88.79,44Z"/></g></g><g id="icons"><path class="cls-2" d="M29.46,24.05a8.51,8.51,0,0,0-8.14-6,8.56,8.56,0,0,0-7.17,3.89,8.53,8.53,0,0,0,8.93,13l.23-.07a8.4,8.4,0,0,0,4.3-2.55,8.17,8.17,0,0,0,.85-1.09,8.34,8.34,0,0,0,1-2.14,8.49,8.49,0,0,0,.19-4.28C29.6,24.53,29.53,24.29,29.46,24.05Z"/><path class="cls-2" d="M56.72,69.13a8.47,8.47,0,0,0-2.32-2.22,8.28,8.28,0,0,0-1.69-.83A8.27,8.27,0,0,0,48,65.72c-.16,0-.31.08-.46.12a8.5,8.5,0,0,0-4.23,2.67,10.35,10.35,0,0,0-.69.91,8.53,8.53,0,1,0,15.51,2.86A8.6,8.6,0,0,0,56.72,69.13Z"/><path class="cls-2" d="M84.57,19.39a8.54,8.54,0,0,0-11.8,2.52,8.34,8.34,0,0,0-1,2.14,8.49,8.49,0,0,0-.19,4.28c.06.25.12.48.19.72a8.63,8.63,0,0,0,1.35,2.63,8.41,8.41,0,0,0,2.17,2,8.29,8.29,0,0,0,1.9.91,8.48,8.48,0,0,0,9.9-3.43A8.54,8.54,0,0,0,84.57,19.39Z"/><path d="M87.29,15.2a13.54,13.54,0,0,0-20.67,8.85h-32a13.52,13.52,0,1,0-13.31,16,13.16,13.16,0,0,0,2.85-.31,13.35,13.35,0,0,0,1.8-.53L40.65,64.07a13.85,13.85,0,0,0-2.24,2.63A13.54,13.54,0,0,0,49.73,87.6a13.73,13.73,0,0,0,2.85-.3,13.51,13.51,0,0,0,6.83-22.71L74.6,39a13.45,13.45,0,0,0,5.3,1.1,13.16,13.16,0,0,0,2.85-.31,13.37,13.37,0,0,0,8.53-5.87A13.54,13.54,0,0,0,87.29,15.2ZM29.46,29.05a8.34,8.34,0,0,1-1,2.14,8.17,8.17,0,0,1-.85,1.09,8.4,8.4,0,0,1-4.3,2.55l-.23.07a8.53,8.53,0,0,1-3.55-16.69A8.51,8.51,0,0,1,26,19.39a8.51,8.51,0,0,1,3.51,4.66c.07.24.14.48.19.72A8.49,8.49,0,0,1,29.46,29.05ZM56.92,78.7A8.53,8.53,0,0,1,42.6,69.42a10.35,10.35,0,0,1,.69-.91,8.5,8.5,0,0,1,4.23-2.67c.15,0,.3-.09.46-.12a8.27,8.27,0,0,1,4.73.36,8.28,8.28,0,0,1,1.69.83,8.47,8.47,0,0,1,2.32,2.22,8.6,8.6,0,0,1,1.39,3.15A8.49,8.49,0,0,1,56.92,78.7Zm-1.62-17a13.39,13.39,0,0,0-8.36-.9,14,14,0,0,0-2,.61L30.24,36.71a13.3,13.3,0,0,0,2.42-2.8,13.45,13.45,0,0,0,1.94-4.86h32c0,.11,0,.22,0,.32a13.49,13.49,0,0,0,3.75,6.83ZM87.09,31.19a8.48,8.48,0,0,1-9.9,3.43,8.29,8.29,0,0,1-1.9-.91,8.41,8.41,0,0,1-2.17-2,8.63,8.63,0,0,1-1.35-2.63c-.07-.24-.13-.47-.19-.72a8.49,8.49,0,0,1,.19-4.28,8.34,8.34,0,0,1,1-2.14,8.53,8.53,0,0,1,14.32,9.28Z"/></g></svg>