<?xml version="1.0" encoding="UTF-8"?>
<svg id="icons" xmlns="http://www.w3.org/2000/svg" viewBox="0 0 100 100">
  <defs>
    <style>
      .cls-1 {
        fill: #fff;
      }

      .cls-2 {
        fill: #4d8dfc;
      }
    </style>
  </defs>
  <path class="cls-2" d="M21.3,57.27c1.42.92,3.11,1.23,4.76.88,3.41-.73,5.59-4.09,4.87-7.51-.63-2.97-3.26-5.01-6.18-5.01-.44,0-.88.05-1.32.14-3.41.73-5.59,4.09-4.87,7.51.35,1.65,1.33,3.07,2.75,3.99Z"/>
  <path class="cls-2" d="M75.26,71.94c-.44,0-.88.04-1.32.14-3.41.73-5.59,4.09-4.87,7.51.35,1.65,1.33,3.07,2.75,3.99,1.42.92,3.1,1.23,4.76.88,1.65-.35,3.07-1.33,3.99-2.74.92-1.42,1.23-3.11.88-4.76-.63-2.97-3.26-5.01-6.18-5.01Z"/>
  <path class="cls-2" d="M26.07,31.84c3.41-.73,5.59-4.09,4.87-7.51-.35-1.65-1.33-3.07-2.75-3.99-1.04-.67-2.22-1.02-3.43-1.02-.44,0-.89.05-1.33.14-3.41.73-5.59,4.09-4.87,7.51.73,3.41,4.1,5.59,7.51,4.87Z"/>
  <path class="cls-2" d="M75.26,45.63c-.44,0-.88.04-1.32.14-3.41.73-5.59,4.09-4.87,7.51.73,3.41,4.09,5.6,7.51,4.87,1.65-.35,3.07-1.33,3.99-2.75.92-1.42,1.23-3.11.88-4.76-.63-2.97-3.26-5.01-6.18-5.01Z"/>
  <path d="M18.58,35.16c1.86,1.2,3.98,1.83,6.14,1.83.79,0,1.59-.08,2.38-.25,6.11-1.3,10.02-7.33,8.71-13.44-.63-2.96-2.38-5.5-4.92-7.14-2.54-1.65-5.57-2.2-8.52-1.57-6.11,1.3-10.02,7.33-8.71,13.44.63,2.96,2.38,5.49,4.92,7.14ZM23.43,19.47c.44-.09.89-.14,1.33-.14,1.21,0,2.39.35,3.43,1.02,1.42.92,2.39,2.34,2.75,3.99.73,3.41-1.46,6.78-4.87,7.51-3.41.73-6.78-1.45-7.51-4.87-.73-3.41,1.46-6.78,4.87-7.51Z"/>
  <path d="M18.58,61.46c1.86,1.2,3.98,1.83,6.14,1.83.79,0,1.59-.08,2.38-.25,2.96-.63,5.49-2.38,7.14-4.92,1.65-2.54,2.21-5.57,1.57-8.52-1.3-6.11-7.33-10.02-13.44-8.71-6.11,1.3-10.02,7.33-8.71,13.44.63,2.96,2.38,5.49,4.92,7.14ZM23.43,45.77c.44-.09.88-.14,1.32-.14,2.92,0,5.55,2.04,6.18,5.01.73,3.41-1.46,6.78-4.87,7.51-1.65.35-3.34.04-4.76-.88-1.42-.92-2.39-2.33-2.75-3.99-.73-3.41,1.46-6.78,4.87-7.51Z"/>
  <path d="M72.89,67.19c-6.11,1.3-10.02,7.33-8.71,13.44.63,2.96,2.38,5.5,4.92,7.14,1.86,1.2,3.98,1.83,6.14,1.83.79,0,1.59-.08,2.39-.25,2.96-.63,5.5-2.38,7.14-4.92s2.2-5.57,1.57-8.52c-1.3-6.11-7.32-10.02-13.44-8.71ZM80.56,81.7c-.92,1.42-2.34,2.39-3.99,2.74-1.66.35-3.34.04-4.76-.88-1.42-.92-2.39-2.34-2.75-3.99-.73-3.41,1.46-6.78,4.87-7.51.44-.09.88-.14,1.32-.14,2.92,0,5.55,2.04,6.18,5.01.35,1.65.04,3.34-.88,4.76Z"/>
  <path d="M72.89,40.88c-6.11,1.3-10.02,7.33-8.71,13.44,1.13,5.31,5.85,8.96,11.08,8.96.78,0,1.57-.08,2.36-.25,2.96-.63,5.5-2.38,7.14-4.92,1.65-2.54,2.2-5.57,1.57-8.52-1.3-6.11-7.33-10.02-13.44-8.71ZM80.56,55.4c-.92,1.42-2.34,2.39-3.99,2.75-3.41.73-6.78-1.46-7.51-4.87-.73-3.41,1.46-6.78,4.87-7.51.44-.09.88-.14,1.32-.14,2.92,0,5.55,2.04,6.18,5.01.35,1.65.04,3.34-.88,4.76Z"/>
  <path d="M69.45,23.16c.79-1.82,2.4-3.24,4.48-3.69.44-.09.89-.14,1.33-.14,1.21,0,2.39.35,3.43,1.02,1.42.92,2.39,2.34,2.74,3.99.35,1.65.04,3.34-.88,4.76s-2.34,2.39-3.99,2.75c-3,.64-5.96-.97-7.13-3.69h-5.23c1.19,5.24,5.86,8.83,11.04,8.83.78,0,1.57-.08,2.36-.25,2.96-.63,5.5-2.38,7.14-4.92s2.2-5.57,1.57-8.52c-.63-2.96-2.38-5.5-4.92-7.14-2.54-1.65-5.57-2.2-8.52-1.57-4.45.95-7.72,4.41-8.67,8.58h5.23Z"/>
  <path d="M30.08,81.64c-.88,1.39-2.29,2.44-4.02,2.8-1.66.35-3.34.04-4.76-.88-1.42-.92-2.39-2.34-2.75-3.99-.73-3.41,1.46-6.78,4.87-7.51.44-.09.88-.14,1.32-.14,2.82,0,5.35,1.91,6.09,4.71h5.1c-.04-.25-.07-.5-.12-.74-1.3-6.11-7.33-10.02-13.44-8.71-6.11,1.3-10.02,7.33-8.71,13.44.63,2.96,2.38,5.5,4.92,7.14,1.86,1.2,3.98,1.83,6.14,1.83.79,0,1.59-.08,2.39-.25,4.13-.88,7.25-3.93,8.44-7.7h-5.46Z"/>
  <path class="cls-1" d="M66.8,28.16h2.65c1.17,2.72,4.13,4.33,7.13,3.69,1.65-.35,3.07-1.33,3.99-2.75s1.23-3.11.88-4.76c-.35-1.65-1.33-3.07-2.74-3.99-1.04-.67-2.22-1.02-3.43-1.02-.44,0-.89.05-1.33.14-2.08.44-3.7,1.87-4.48,3.69h-11.63l-2.4,1.8-15.12,51.69h-9.46c-.74-2.8-3.27-4.71-6.09-4.71-.44,0-.88.05-1.32.14-3.41.73-5.59,4.09-4.87,7.51.35,1.65,1.33,3.07,2.75,3.99,1.42.92,3.1,1.23,4.76.88,1.73-.37,3.14-1.42,4.02-2.8h12.09l2.4-1.8,15.12-51.69h7.1Z"/>
</svg>