<svg xmlns="http://www.w3.org/2000/svg" viewBox="0 0 100 100"><defs><style>.cls-1{opacity:0.5;}.cls-2{fill:#ffa627;}.cls-3{opacity:0.7;}</style></defs><g id="Layer_25" data-name="Layer 25"><g class="cls-1"><path d="M74.11,66.3v4.26c.38,0,.76-.11,1.13-.19l.15,0v-4Z"/><path d="M59.13,67.31a16.83,16.83,0,0,0,11.78,8.25V73.8A16.79,16.79,0,0,1,59.13,67.31Z"/><path d="M51.72,58.14v1.92h4.21a15.74,15.74,0,0,1-.24-1.92Z"/><path d="M89,54.94h.91a16.64,16.64,0,0,0-3-6.11,16.58,16.58,0,0,1,1.83,4.78C88.9,54.05,89,54.5,89,54.94Z"/><path d="M75.39,40.62V36.39H74.11v4C74.54,40.48,75,40.54,75.39,40.62Z"/><path d="M75.39,50.62v-5a13.68,13.68,0,0,1,8.9,5,13.66,13.66,0,0,0-10.18-6.93v5H72.19v1.92Z"/><path d="M60.19,60.06H66v-3.2H64.67v1.28H58.91a13.88,13.88,0,0,0,.24,1.8,13.48,13.48,0,0,0,2.67,5.6,13.38,13.38,0,0,1-1.39-3.68A13.88,13.88,0,0,1,60.19,60.06Z"/><path d="M85.64,60.06a13.68,13.68,0,0,0,.29-1.92h-4.3v1.92Z"/><path d="M94.59,56.86v1.28H89.14A16.76,16.76,0,0,1,75.91,73.5a16,16,0,0,1-1.8.28v4.83H72.19v1.92h3.2V75.7a16,16,0,0,0,1.8-.28A16.76,16.76,0,0,0,90.42,60.06h5.45v-3.2Z"/><path d="M70.87,45.76h0V43.63c-.44,0-.89.12-1.32.21A13.47,13.47,0,0,0,61,49.73a13.65,13.65,0,0,0-2,5.21h1.76a13.43,13.43,0,0,1,10.08-9.18Z"/><path class="cls-2" d="M74.11,73.78a16,16,0,0,0,1.8-.28A16.76,16.76,0,0,0,89.14,58.14h5.45v-3.2H89c-.06-.44-.13-.89-.22-1.33A16.58,16.58,0,0,0,87,48.83a16.79,16.79,0,0,0-11.59-8.21c-.42-.08-.85-.14-1.28-.18v-6h-3.2v6a15.19,15.19,0,0,0-2,.3A16.76,16.76,0,0,0,55.79,54.94H50.44v3.2h5.25a15.74,15.74,0,0,0,.24,1.92c0,.18,0,.36.09.54A16.81,16.81,0,0,0,70.91,73.8v4.81h3.2Zm-3.2-9.4v6.2a13.62,13.62,0,0,1-9.09-5,13.48,13.48,0,0,1-2.67-5.6,13.88,13.88,0,0,1-.24-1.8h5.76v-3.2H59a13.65,13.65,0,0,1,2-5.21,13.47,13.47,0,0,1,8.55-5.89c.43-.09.88-.16,1.32-.21V48.7h3.2v-5a13.66,13.66,0,0,1,10.18,6.93,13.33,13.33,0,0,1,1.39,3.69c0,.22.09.44.12.66H80.35v3.2h5.58A13.59,13.59,0,0,1,75.39,70.33l-.15,0c-.37.08-.75.14-1.13.19V64.38Z"/></g></g><g id="icons_50" data-name="icons 50"><g class="cls-3"><path d="M62.35,65.5v5.32c.48-.06.95-.13,1.42-.23l.18,0v-5Z"/><path d="M43.63,66.77a21,21,0,0,0,14.72,10.3V74.88A21,21,0,0,1,43.63,66.77Z"/><path d="M34.36,55.3v2.4h5.26a21.85,21.85,0,0,1-.3-2.4Z"/><path d="M81,51.3h1.13a20.81,20.81,0,0,0-3.69-7.64,21,21,0,0,1,2.28,6C80.84,50.19,80.93,50.75,81,51.3Z"/><path d="M64,33.4V28.11h-1.6v5.06C62.89,33.23,63.42,33.3,64,33.4Z"/><path d="M64,45.9V39.6a17.07,17.07,0,0,1,11.13,6.26A17.13,17.13,0,0,0,62.35,37.2v6.3H60v2.4Z"/><path d="M44.94,57.7h7.21v-4h-1.6v1.6H43.34a17.38,17.38,0,0,0,.31,2.25,16.9,16.9,0,0,0,3.33,7A16.86,16.86,0,0,1,45.25,60,17.38,17.38,0,0,1,44.94,57.7Z"/><path d="M76.76,57.7a16.18,16.18,0,0,0,.37-2.4H71.75v2.4Z"/><path d="M87.94,53.7v1.6h-6.8A21,21,0,0,1,64.6,74.5a19.45,19.45,0,0,1-2.25.35v6H60v2.4h4v-6a19.45,19.45,0,0,0,2.25-.35A21,21,0,0,0,82.74,57.7h6.8v-4Z"/><path d="M58.29,39.83h.06V37.16c-.55.07-1.11.15-1.66.27A17,17,0,0,0,43.5,51.3h2.19a16.84,16.84,0,0,1,12.6-11.47Z"/><path class="cls-2" d="M62.35,74.85a19.45,19.45,0,0,0,2.25-.35A21,21,0,0,0,81.14,55.3h6.8v-4H81c-.07-.55-.16-1.11-.28-1.66A21,21,0,0,0,64,33.4c-.53-.1-1.06-.17-1.6-.23V25.71h-4v7.44a19.43,19.43,0,0,0-2.49.37A21,21,0,0,0,39.45,51.3H32.76v4h6.56a21.85,21.85,0,0,0,.3,2.4c0,.23.07.45.12.68a20.76,20.76,0,0,0,3.89,8.39,21,21,0,0,0,14.72,8.11v6h4Zm-4-11.75v7.75A17.07,17.07,0,0,1,47,64.55a16.9,16.9,0,0,1-3.33-7,17.38,17.38,0,0,1-.31-2.25h7.21v-4h-7A17,17,0,0,1,56.69,37.43c.55-.12,1.11-.2,1.66-.27V43.5h4V37.2a17.13,17.13,0,0,1,12.73,8.66,16.93,16.93,0,0,1,1.73,4.61c.06.28.11.55.15.83H70.15v4h7a16.18,16.18,0,0,1-.37,2.4A17,17,0,0,1,64,70.54l-.18,0c-.47.1-.94.17-1.42.23V63.1Z"/></g></g><g id="Layer_5" data-name="Layer 5"><path d="M46.65,64.25V70.9c.59-.07,1.19-.17,1.77-.29l.23-.06v-6.3Z"/><path d="M23.25,65.83a26.22,26.22,0,0,0,18.4,12.88V76A26.2,26.2,0,0,1,23.25,65.83Z"/><path d="M11.66,51.5v3h6.58a25.63,25.63,0,0,1-.38-3Z"/><path d="M70,46.5h1.42A26.12,26.12,0,0,0,66.76,37a26.17,26.17,0,0,1,2.85,7.47C69.76,45.12,69.87,45.81,70,46.5Z"/><path d="M48.65,24.12V17.51h-2v6.33C47.33,23.91,48,24,48.65,24.12Z"/><path d="M48.65,39.75V31.88a21.3,21.3,0,0,1,13.91,7.83A21.35,21.35,0,0,0,46.65,28.88v7.87h-3v3Z"/><path d="M24.89,54.5h9v-5h-2v2h-9a22.59,22.59,0,0,0,.39,2.81,21,21,0,0,0,4.16,8.75,21.06,21.06,0,0,1-2.16-5.75A22.59,22.59,0,0,1,24.89,54.5Z"/><path d="M64.66,54.5a19.92,19.92,0,0,0,.46-3H58.4v3Z"/><path d="M78.64,49.5v2h-8.5a26.19,26.19,0,0,1-20.68,24,27.31,27.31,0,0,1-2.81.44v7.55h-3v3h5V78.94a27.31,27.31,0,0,0,2.81-.44,26.19,26.19,0,0,0,20.68-24h8.5v-5Z"/><path d="M41.58,32.16h.07V28.83q-1,.12-2.07.33A21.17,21.17,0,0,0,23.09,46.5h2.74A21,21,0,0,1,41.58,32.16Z"/><path class="cls-2" d="M46.65,75.94a27.31,27.31,0,0,0,2.81-.44,26.19,26.19,0,0,0,20.68-24h8.5v-5H70c-.09-.69-.2-1.38-.35-2.08a26.23,26.23,0,0,0-21-20.3c-.66-.12-1.32-.21-2-.28V14.51h-5v9.3A26.08,26.08,0,0,0,18,46.5H9.66v5h8.2a25.63,25.63,0,0,0,.38,3c.05.28.09.57.15.85a25.92,25.92,0,0,0,4.86,10.48A26.2,26.2,0,0,0,41.65,76v7.52h5Zm-5-14.69v9.68a21.31,21.31,0,0,1-14.21-7.87,21,21,0,0,1-4.16-8.75,22.59,22.59,0,0,1-.39-2.81h9v-5H23.09A21.17,21.17,0,0,1,39.58,29.16q1-.21,2.07-.33v7.92h5V28.88A21.35,21.35,0,0,1,62.56,39.71a20.88,20.88,0,0,1,2.16,5.76c.08.34.14.69.2,1H56.4v5h8.72a19.92,19.92,0,0,1-.46,3,21.19,21.19,0,0,1-16,16l-.23.06c-.58.12-1.18.22-1.77.29V61.25Z"/></g></svg>