<?xml version="1.0" encoding="UTF-8"?>
<svg id="Layer_5" data-name="Layer 5" xmlns="http://www.w3.org/2000/svg" viewBox="0 0 100 100">
  <defs>
    <style>
      .cls-1 {
        fill: #4d8dfc;
      }
    </style>
  </defs>
  <path class="cls-1" d="M56.11,18.39c-1.43-.93-3.04-1.37-4.63-1.37-2.8,0-5.54,1.37-7.17,3.89-1.24,1.91-1.66,4.19-1.19,6.42.25,1.15.72,2.22,1.39,3.15.62.87,1.4,1.63,2.32,2.22.53.35,1.1.62,1.68.84,1.5.56,3.13.69,4.74.35.16-.03.31-.08.46-.12,1.66-.45,3.12-1.38,4.23-2.67.25-.29.48-.59.69-.91,1.24-1.91,1.66-4.19,1.19-6.42-.48-2.23-1.79-4.14-3.7-5.38ZM84.57,65.9c-1.4-.91-3-1.38-4.62-1.38-.6,0-1.2.06-1.8.19-.08.02-.15.04-.23.06-1.68.41-3.16,1.29-4.3,2.55-.31.34-.6.7-.85,1.09-.44.67-.77,1.39-1,2.14-.42,1.37-.5,2.84-.19,4.28.05.24.12.48.19.72.58,1.92,1.81,3.55,3.51,4.66,1.91,1.24,4.19,1.66,6.42,1.19,2.23-.48,4.14-1.79,5.38-3.7,2.56-3.95,1.43-9.24-2.52-11.8ZM29.46,70.56c-.29-.96-.75-1.85-1.35-2.63-.59-.79-1.32-1.47-2.17-2.03-.6-.39-1.24-.68-1.91-.91-.88-.3-1.79-.47-2.72-.47-.6,0-1.2.06-1.8.19-2.23.48-4.14,1.79-5.38,3.7-1.24,1.91-1.66,4.19-1.19,6.42s1.79,4.14,3.7,5.38c1.91,1.24,4.2,1.66,6.42,1.19,2.23-.48,4.14-1.79,5.38-3.7.44-.67.77-1.39,1-2.14.42-1.37.5-2.84.19-4.28-.05-.24-.12-.48-.19-.72Z"/>
  <path d="M87.29,61.71c-3.03-1.97-6.65-2.63-10.19-1.88-.62.13-1.22.32-1.8.53l-14.72-24.81c.85-.77,1.61-1.65,2.25-2.63,1.97-3.03,2.63-6.65,1.88-10.19s-2.84-6.57-5.87-8.53c-6.26-4.06-14.66-2.27-18.72,3.99-1.97,3.03-2.63,6.65-1.88,10.19.54,2.55,1.79,4.84,3.58,6.65l-15.19,25.61c-2.55-1.1-5.37-1.4-8.15-.8-3.53.75-6.56,2.84-8.53,5.87-1.97,3.03-2.63,6.65-1.88,10.18.75,3.54,2.84,6.57,5.87,8.53,2.22,1.44,4.75,2.18,7.33,2.18.95,0,1.9-.1,2.85-.3,3.54-.75,6.56-2.84,8.53-5.87.99-1.52,1.62-3.18,1.94-4.86h32.04c.02.11.03.22.05.32.75,3.54,2.84,6.57,5.87,8.53,2.22,1.44,4.75,2.18,7.33,2.18.95,0,1.9-.1,2.85-.3,3.54-.75,6.57-2.84,8.53-5.87,4.06-6.26,2.27-14.66-3.99-18.72ZM81.71,81.41c-2.23.47-4.51.05-6.42-1.19-1.7-1.1-2.93-2.74-3.51-4.66-.07-.24-.14-.48-.19-.72-.31-1.44-.23-2.91.19-4.28.23-.75.56-1.47,1-2.14.25-.39.54-.75.85-1.09,1.14-1.26,2.62-2.14,4.3-2.55.08-.02.15-.04.23-.06.6-.13,1.2-.19,1.8-.19,1.63,0,3.22.47,4.62,1.38,3.95,2.56,5.08,7.85,2.52,11.8-1.24,1.91-3.15,3.23-5.38,3.7ZM44.31,20.91c1.63-2.52,4.38-3.89,7.17-3.89,1.59,0,3.2.44,4.63,1.37,1.91,1.24,3.23,3.15,3.7,5.38.48,2.23.05,4.51-1.19,6.42-.21.32-.44.62-.69.91-1.11,1.3-2.57,2.22-4.23,2.67-.15.04-.3.09-.46.12-1.61.34-3.24.21-4.74-.35-.58-.22-1.15-.49-1.68-.84-.92-.6-1.7-1.35-2.32-2.22-.66-.93-1.14-2-1.39-3.15-.48-2.23-.05-4.51,1.19-6.42ZM45.93,37.9c1.74.79,3.61,1.19,5.51,1.19.95,0,1.9-.1,2.85-.3.7-.15,1.37-.36,2.03-.61l14.67,24.73c-.92.81-1.74,1.74-2.42,2.8-.98,1.5-1.63,3.15-1.95,4.86h-32.04c-.5-2.66-1.79-5.18-3.79-7.15l15.14-25.52ZM29.65,71.28c.31,1.44.23,2.91-.19,4.28-.23.75-.56,1.47-1,2.14-1.24,1.91-3.15,3.23-5.38,3.7-2.23.47-4.51.05-6.42-1.19-1.91-1.24-3.23-3.15-3.7-5.38s-.05-4.51,1.19-6.42c1.24-1.91,3.15-3.23,5.38-3.7.6-.13,1.2-.19,1.8-.19.93,0,1.84.17,2.72.47.66.23,1.3.52,1.91.91.85.55,1.57,1.24,2.17,2.03.59.79,1.05,1.67,1.35,2.63.07.24.14.48.19.72Z"/>
</svg>