<svg xmlns="http://www.w3.org/2000/svg" viewBox="0 0 100 100"><defs><style>.cls-1{opacity:0.5;}.cls-2{fill:#4d8dfc;}.cls-3{fill:#ffa627;}.cls-4{opacity:0.7;}</style></defs><g id="Layer_25" data-name="Layer 25"><g class="cls-1"><path class="cls-2" d="M68.06,72.49V68.31H60.52l.07-.11.93-1.56,4.76-8L62,53.6a3.41,3.41,0,0,0-.53.66l-5.22,8.8-.87,1.47-.91,1.53-2.27,3.82,2.75,4.83H68.55a5.34,5.34,0,0,1-.49-2.22Zm24.32-6.4-1-1.61L90.53,63l-4.3-7.25-4.41,5.11,3.2,5.4.89,1.51.35.57h-6v6.1c0,.1,0,.2,0,.3H91.88l2.75-4.83Z"/><path d="M78.38,33.84a8.69,8.69,0,0,0-10.8,1.1H79.75A9.3,9.3,0,0,0,78.38,33.84ZM96.59,64.25A8.54,8.54,0,0,0,90.53,63l.89,1.51,1,1.61,2.25,3.79-2.75,4.83h-8a8.63,8.63,0,0,0,8,5.47,8.67,8.67,0,0,0,1.82-.2,8.57,8.57,0,0,0,5.46-3.76A8.66,8.66,0,0,0,96.59,64.25ZM85.91,67.74,85,66.23c-.14.19-.28.37-.41.57a8.66,8.66,0,0,0-.78,1.51h2.43Zm-25.32.46-.07.11h1.87a9.15,9.15,0,0,0-.87-1.67Zm-8.44,1.68,2.27-3.82.91-1.53.87-1.47a8.66,8.66,0,1,0,0,16.92,8.52,8.52,0,0,0,5.46-3.76,7.73,7.73,0,0,0,.78-1.51H54.9ZM97.08,43.15a3.8,3.8,0,0,0-.64-5.56,3.73,3.73,0,0,1-.74,3.64L84.92,53.71l-4.34,5-1.69,2V72.49a5.49,5.49,0,0,1-.48,2.22,5.41,5.41,0,0,1-8.54,1.81,5.41,5.41,0,0,0,10.38-1.81c0-.1,0-.2,0-.3V62.62l1.55-1.79,4.41-5.11Zm-35,10.31-9.84-11.4a3.66,3.66,0,0,0,.66,1.09L62,53.6l4.33,5,1.78,2.07v-.32l-1.67-1.94Zm7.87,19A3.5,3.5,0,1,0,73.48,69,3.48,3.48,0,0,0,70,72.49Z"/><path class="cls-3" d="M96.44,37.59a3.76,3.76,0,0,0-3.62-2.65H54.42a3.8,3.8,0,0,0-2.87,6.29l.72.83,9.84,11.4,4.28,5,1.67,1.94V72.49a5.51,5.51,0,0,0,1.81,4,5.41,5.41,0,0,0,8.54-1.81,5.49,5.49,0,0,0,.48-2.22V60.7l1.69-2,4.34-5L95.7,41.23A3.73,3.73,0,0,0,96.44,37.59ZM76.17,74.71a3.49,3.49,0,1,1,.8-2.22A3.47,3.47,0,0,1,76.17,74.71Z"/></g></g><g id="icons_50" data-name="icons 50"><g class="cls-4"><path class="cls-2" d="M54.8,73.53V68.31H45.38l.08-.14,1.16-2,6-10-5.41-6.26a3.55,3.55,0,0,0-.66.82L40,61.74l-1.09,1.84-1.13,1.91-2.84,4.78,3.44,6h17a6.76,6.76,0,0,1-.6-2.78Zm30.39-8-1.19-2-1.12-1.89L77.5,52.57,72,59l4,6.75,1.11,1.88.43.72H70.06v7.62c0,.13,0,.26,0,.38H84.57l3.43-6Z"/><path d="M67.69,25.22A10.84,10.84,0,0,0,54.2,26.6H69.41A11.07,11.07,0,0,0,67.69,25.22Zm22.76,38a10.71,10.71,0,0,0-7.57-1.6L84,63.52l1.19,2L88,70.27l-3.43,6h-10a10.79,10.79,0,0,0,10,6.83,11,11,0,0,0,2.28-.24,10.82,10.82,0,0,0,3.63-19.67ZM77.11,67.59,76,65.71c-.18.23-.36.47-.52.71a11.65,11.65,0,0,0-1,1.89h3Zm-31.65.58-.08.14h2.33a11.23,11.23,0,0,0-1.09-2.09Zm-10.55,2.1,2.84-4.78,1.13-1.91L40,61.74a10.82,10.82,0,1,0-2.32,21.4,11.11,11.11,0,0,0,2.28-.24,10.73,10.73,0,0,0,6.82-4.7,10.23,10.23,0,0,0,1-1.89H38.35ZM91.07,36.86a4.75,4.75,0,0,0-.8-6.95,4.67,4.67,0,0,1-.92,4.55L75.88,50.06l-5.43,6.29L68.33,58.8V73.53a6.76,6.76,0,0,1-11.27,5,6.76,6.76,0,0,0,13-2.26c0-.12,0-.25,0-.38V61.2L72,59l5.51-6.39ZM47.36,49.75,35.06,35.5a4.84,4.84,0,0,0,.82,1.36L47.16,49.93l5.41,6.26,2.23,2.59v-.4L52.71,56ZM57.2,73.53a4.36,4.36,0,0,0,7.73,2.78,4.3,4.3,0,0,0,1-2.78,4.37,4.37,0,0,0-8.73,0Z"/><path class="cls-3" d="M90.27,29.91a4.69,4.69,0,0,0-4.52-3.31h-48a4.76,4.76,0,0,0-3.6,7.86l.91,1,12.3,14.25L52.71,56l2.09,2.43V73.53a6.77,6.77,0,0,0,13.53,0V58.8l2.12-2.45,5.43-6.29,13.47-15.6A4.67,4.67,0,0,0,90.27,29.91ZM64.93,76.31a4.36,4.36,0,1,1,1-2.78A4.3,4.3,0,0,1,64.93,76.31Z"/></g></g><g id="Layer_5" data-name="Layer 5"><path class="cls-2" d="M37.22,74.59V68.06H25.44l.1-.17L27,65.45l7.44-12.54-6.76-7.83a4.87,4.87,0,0,0-.83,1L18.69,59.85l-1.37,2.3-1.41,2.39-3.55,6,4.3,7.55H38a8.38,8.38,0,0,1-.76-3.47Zm38-10-1.49-2.51-1.4-2.36L65.6,48.39l-6.89,8,5,8.44,1.39,2.35.54.9H56.29v9.53c0,.16,0,.32,0,.47H74.43l4.3-7.55Z"/><path d="M53.33,14.2a13.55,13.55,0,0,0-16.86,1.72h19A13.52,13.52,0,0,0,53.33,14.2ZM81.79,61.71a13.48,13.48,0,0,0-9.47-2l1.4,2.36,1.49,2.51,3.52,5.93-4.3,7.55H61.87A13.5,13.5,0,0,0,74.4,86.6a13.8,13.8,0,0,0,2.85-.3,13.53,13.53,0,0,0,4.54-24.59ZM65.11,67.16l-1.39-2.35c-.23.29-.45.58-.65.89a13.5,13.5,0,0,0-1.21,2.36h3.79Zm-39.57.73-.1.17h2.92A13.27,13.27,0,0,0,27,65.45ZM12.36,70.51l3.55-6,1.41-2.39,1.37-2.3A13.51,13.51,0,0,0,4.45,65.7,13.54,13.54,0,0,0,15.78,86.6a13.8,13.8,0,0,0,2.85-.3,13.49,13.49,0,0,0,8.53-5.87,14.37,14.37,0,0,0,1.22-2.37H16.66Zm70.2-41.77a5.94,5.94,0,0,0-1-8.68,5.81,5.81,0,0,1-1.16,5.68L63.57,45.25l-6.79,7.86-2.64,3.06V74.59A8.45,8.45,0,0,1,40,80.88a8.45,8.45,0,0,0,16.23-2.82c0-.15,0-.31,0-.47V59.17l2.42-2.8,6.89-8ZM27.92,44.86,12.54,27.05a6,6,0,0,0,1,1.69l14.1,16.34,6.76,7.83,2.79,3.23v-.5l-2.61-3Zm12.3,29.73a5.37,5.37,0,0,0,1.26,3.47,5.43,5.43,0,0,0,8.4,0,5.37,5.37,0,0,0,1.26-3.47,5.46,5.46,0,1,0-10.92,0Z"/><path class="cls-3" d="M81.56,20.06a5.88,5.88,0,0,0-5.65-4.14h-60a5.94,5.94,0,0,0-4.5,9.82l1.13,1.31L27.92,44.86l6.69,7.75,2.61,3v19a8.46,8.46,0,0,0,16.92,0V56.17l2.64-3.06,6.79-7.86L80.4,25.74A5.81,5.81,0,0,0,81.56,20.06Zm-31.68,58a5.43,5.43,0,0,1-8.4,0,5.37,5.37,0,0,1-1.26-3.47,5.46,5.46,0,1,1,10.92,0A5.37,5.37,0,0,1,49.88,78.06Z"/></g></svg>