<?xml version="1.0" encoding="UTF-8"?>
<svg id="icons" xmlns="http://www.w3.org/2000/svg" viewBox="0 0 100 100">
    <defs>
        <style>
            .cls-1 {
            fill: #fff;
            }
        </style>
    </defs>
    <path d="M82.18,30.43v46.02c0,2.76-2.24,5-5,5H29.37c.94,1.5,2.59,2.5,4.49,2.5h44.53c2.93,0,5.3-2.38,5.3-5.3v-44.53c0-1.43-.57-2.73-1.5-3.69ZM77.18,28.82v-4.5h-26.07v26.07h26.07v-21.57ZM51.12,76.45v-26.07h-26.07v26.07h3.5"/>
    <path class="cls-1"
          d="M77.18,19.32H25.05c-2.76,0-5,2.24-5,5v52.14c0,2.76,2.24,5,5,5h52.14c2.76,0,5-2.24,5-5V24.32c0-2.76-2.24-5-5-5ZM25.05,76.45v-26.07h26.07v-26.07h26.07v26.07h-26.07v26.07"/>
</svg>