<svg xmlns="http://www.w3.org/2000/svg" viewBox="0 0 100 100"><defs><style>.cls-1{fill:#4d8dfc;}</style></defs><g id="icons"><path class="cls-1" d="M56.11,19.39A8.43,8.43,0,0,0,51.49,18a8.53,8.53,0,0,0-7.18,3.89,8.57,8.57,0,0,0,.2,9.58,8.61,8.61,0,0,0,2.32,2.22,8.59,8.59,0,0,0,6.42,1.19l.46-.13a8.43,8.43,0,0,0,4.23-2.67,7.77,7.77,0,0,0,.69-.91,8.52,8.52,0,0,0-2.52-11.8ZM84.57,66.9a8.51,8.51,0,0,0-6.42-1.18l-.23.06a8.47,8.47,0,0,0-4.3,2.55,8.17,8.17,0,0,0-.85,1.09,8.66,8.66,0,0,0-1,2.14,8.5,8.5,0,0,0-.19,4.28c.06.25.12.49.19.72a8.53,8.53,0,0,0,15.32,2.15A8.55,8.55,0,0,0,84.57,66.9ZM29.46,71.56a8.31,8.31,0,0,0-1.35-2.63,8.72,8.72,0,0,0-2.16-2A8.52,8.52,0,0,0,24,66a8.27,8.27,0,0,0-4.51-.28,8.52,8.52,0,1,0,10.12,6.56C29.6,72,29.53,71.8,29.46,71.56Z"/><path d="M87.29,62.71A13.46,13.46,0,0,0,77.1,60.83a13.79,13.79,0,0,0-1.8.53L60.58,36.55a14,14,0,0,0,2.25-2.64,13.53,13.53,0,1,0-21,2.12L26.63,61.63a13.53,13.53,0,1,0-5.35,26,13.8,13.8,0,0,0,2.85-.3A13.5,13.5,0,0,0,34.6,76.56h32c0,.11,0,.22,0,.33A13.55,13.55,0,0,0,79.9,87.6a13.8,13.8,0,0,0,2.85-.3,13.53,13.53,0,0,0,4.54-24.59Zm-5.58,19.7a8.55,8.55,0,0,1-9.94-5.85c-.07-.23-.13-.47-.19-.72a8.5,8.5,0,0,1,.19-4.28,8.66,8.66,0,0,1,1-2.14,8.17,8.17,0,0,1,.85-1.09,8.47,8.47,0,0,1,4.3-2.55l.23-.06a8.53,8.53,0,1,1,3.56,16.69Zm-37.4-60.5A8.53,8.53,0,0,1,51.49,18a8.52,8.52,0,0,1,7.14,13.17,7.77,7.77,0,0,1-.69.91,8.43,8.43,0,0,1-4.23,2.67l-.46.13a8.59,8.59,0,0,1-6.42-1.19,8.61,8.61,0,0,1-2.32-2.22,8.57,8.57,0,0,1-.2-9.58Zm1.62,17a13.45,13.45,0,0,0,5.51,1.19,13,13,0,0,0,4.88-.92L71,63.91a13.84,13.84,0,0,0-2.43,2.79,13.61,13.61,0,0,0-1.95,4.86h-32a13.6,13.6,0,0,0-3.8-7.15ZM29.65,72.28a8.53,8.53,0,1,1-10.12-6.56A8.27,8.27,0,0,1,24,66a8.52,8.52,0,0,1,1.91.9,8.72,8.72,0,0,1,2.16,2,8.31,8.31,0,0,1,1.35,2.63C29.53,71.8,29.6,72,29.65,72.28Z"/></g></svg>