<svg xmlns="http://www.w3.org/2000/svg" viewBox="0 0 100 100">
    <defs>
        <style>.cls-1{fill:#fff;}.cls-2{fill:#4d8dfc;}</style>
    </defs>
    <g id="icons">
        <path d="M38.57,44.57c0,.16,0,.33,0,.5s0,.47.08.71.05.35.08.53.07.45.11.67l.12.54c0,.21.09.43.15.64l.15.54c.06.21.12.42.19.63l.18.53c.07.21.15.41.23.61s.14.35.22.53.17.39.26.59.16.34.25.51.2.39.31.58l.27.49c.11.19.23.38.35.57l.3.46c.13.2.27.39.41.58l.31.42.3.37-.25-.47c-.09-.17-.17-.34-.25-.51s-.18-.39-.26-.59-.15-.35-.22-.53-.16-.4-.23-.61l-.18-.53c-.07-.21-.13-.42-.19-.63l-.15-.54c-.06-.21-.11-.43-.15-.64L40.88,50c0-.22-.08-.45-.11-.67s-.06-.35-.08-.53,0-.47-.08-.71,0-.34,0-.5,0-.54,0-.81,0-.27,0-.41c0-.41,0-.81,0-1.22a1.79,1.79,0,0,0,0-.23c0-.33.06-.66.1-1,0-.14,0-.29.06-.44s.07-.45.11-.67c.24,0,.48-.08.73-.12l.38-.05c.37,0,.74-.08,1.11-.1h.11c.41,0,.82,0,1.23,0l.37,0c.28,0,.57,0,.85,0l.47,0,.74.08.51.08.7.11.51.11.67.16.51.14.66.2.51.18c.21.07.43.15.64.24l.49.2.63.28.48.23.62.33.45.25.61.38.43.27.61.44.38.28.66.53.3.25c.31.28.61.56.9.85s.58.6.85.91l.28.33.2.25-.06-.12L59.1,49l-.36-.58L58.45,48,58,47.42c-.1-.14-.19-.28-.3-.41s-.33-.41-.5-.62L57,46.06c-.27-.31-.55-.61-.85-.91s-.59-.57-.9-.85l-.3-.25-.66-.53-.38-.28-.61-.44-.43-.27-.61-.38-.45-.25-.62-.33-.48-.23L50,41.06l-.49-.2c-.21-.09-.43-.17-.64-.24l-.51-.18-.66-.2-.51-.14-.67-.16L46,39.83l-.7-.11-.51-.08-.74-.08-.47,0c-.28,0-.57,0-.85,0l-.37,0c-.41,0-.82,0-1.23,0h-.11c-.37,0-.74,0-1.11.1l-.38.05c-.25,0-.49.07-.73.12,0,.22-.08.45-.11.67s0,.3-.06.44c0,.34-.07.67-.1,1a1.79,1.79,0,0,1,0,.23c0,.41,0,.81,0,1.22,0,.14,0,.27,0,.41S38.55,44.3,38.57,44.57ZM79.25,31.21a24.4,24.4,0,0,1-13.62,35.3l0,.06h0A24.44,24.44,0,0,1,23,73.93a24.45,24.45,0,0,0,44.57-4.35h0l0-.06a24.42,24.42,0,0,0,11.62-38.3ZM56.1,72.7a19.11,19.11,0,0,0,3.62-5h-.48c-.36,0-.72,0-1.08,0H56.91l-.53,0-.73,0-.43-.05a24.42,24.42,0,0,1-2.94-.51L52.05,67c-.25-.06-.51-.13-.76-.21l-.44-.12-.69-.22-.5-.17L49,66l-.53-.21-.61-.26-.55-.26L46.77,65c-.19-.1-.38-.19-.56-.3l-.54-.29-.56-.35c-.17-.1-.34-.2-.5-.31s-.39-.26-.58-.39l-.46-.32c-.2-.14-.4-.3-.59-.45l-.42-.32-.64-.54-.32-.28c-.32-.29-.63-.58-.93-.88s-.69-.72-1-1.09l-.31-.36c-.22-.26-.43-.52-.64-.79l-.33-.43c-.19-.26-.38-.52-.56-.79s-.2-.29-.29-.44-.38-.6-.56-.9c-.07-.12-.15-.23-.21-.35-.25-.43-.47-.86-.69-1.29l-.12-.26c-.17-.36-.33-.71-.48-1.07-.07-.16-.13-.32-.19-.47-.12-.3-.23-.6-.34-.91s-.12-.34-.17-.51-.2-.61-.29-.92-.09-.33-.13-.49c-.1-.37-.19-.75-.27-1.12,0-.1,0-.2-.07-.31-.09-.47-.17-1-.24-1.43,0-.13,0-.27,0-.41,0-.35-.08-.69-.1-1,0-.18,0-.36,0-.54s0-.63,0-1,0-.37,0-.55,0-.66,0-1c0-.16,0-.33,0-.49v-.16A19.48,19.48,0,1,0,56.1,72.7Z"/>
        <path class="cls-1"
              d="M79.25,31.21a24.09,24.09,0,0,0-4-5.24,24.44,24.44,0,0,0-40.54,9.66h-.06v.06A24.48,24.48,0,1,0,65.56,66.58h0l0-.06a24.4,24.4,0,0,0,13.62-35.3ZM28.55,72.7a19.45,19.45,0,0,1,5-31.17v.16c0,.16,0,.33,0,.49q0,.49,0,1c0,.18,0,.37,0,.55s0,.63,0,1,0,.36,0,.54c0,.35.06.69.1,1,0,.14,0,.28,0,.41.07.48.15,1,.24,1.43,0,.11,0,.21.07.31.08.37.17.75.27,1.12,0,.16.09.32.13.49s.19.61.29.92.11.34.17.51.22.61.34.91c.06.15.12.31.19.47.15.36.31.71.48,1.07l.12.26c.22.43.44.86.69,1.29.06.12.14.23.21.35.18.3.36.61.56.9s.19.29.29.44.37.53.56.79l.33.43c.21.27.42.53.64.79l.31.36c.33.37.66.74,1,1.09s.61.59.93.88l.32.28.64.54.42.32c.19.15.39.31.59.45l.46.32c.19.13.38.27.58.39s.33.21.5.31l.56.35.54.29c.18.11.37.2.56.3l.56.28.55.26.61.26L49,66l.64.25.5.17.69.22.44.12c.25.08.51.15.76.21l.23.06a24.42,24.42,0,0,0,2.94.51l.43.05.73,0,.53,0h1.25c.36,0,.72,0,1.08,0h.48a19.11,19.11,0,0,1-3.62,5A19.49,19.49,0,0,1,28.55,72.7ZM59.43,49.64l.25.47.24.51a6.28,6.28,0,0,1,.27.59c.08.17.15.35.22.53s.15.4.22.6.13.36.19.54.13.41.19.62l.15.55.15.64.12.54c0,.22.07.44.11.66s.06.36.08.54.05.47.07.7,0,.34.05.51,0,.53,0,.79,0,.29,0,.43c0,.4,0,.81,0,1.22a1.94,1.94,0,0,1,0,.24c0,.33,0,.66-.09,1,0,.15,0,.3-.07.45s-.06.45-.1.67l-.68.1-.44.07-.83.08-.64,0-1,0-.62,0-.6,0-.63-.06-.58-.06-.63-.1-.57-.09-.61-.13-.57-.14-.6-.16L52,61.77l-.58-.2-.57-.21-.55-.23-.57-.25-.53-.26-.57-.3-.5-.28-.57-.35-.46-.29L46.47,59l-.41-.3c-.21-.16-.42-.34-.63-.51l-.32-.27c-.31-.27-.61-.55-.91-.85s-.57-.59-.84-.9l-.28-.33-.2-.25-.3-.37-.31-.42c-.14-.19-.28-.38-.41-.58l-.3-.46c-.12-.19-.24-.38-.35-.57l-.27-.49c-.11-.19-.21-.38-.31-.58s-.17-.34-.25-.51-.18-.39-.26-.59-.15-.35-.22-.53-.16-.4-.23-.61l-.18-.53c-.07-.21-.13-.42-.19-.63l-.15-.54c-.06-.21-.11-.43-.15-.64L38.88,47c0-.22-.08-.45-.11-.67s-.06-.35-.08-.53,0-.47-.08-.71,0-.34,0-.5,0-.54,0-.81,0-.27,0-.41c0-.41,0-.81,0-1.22a1.79,1.79,0,0,0,0-.23c0-.33.06-.66.1-1,0-.14,0-.29.06-.44s.07-.45.11-.67c.24,0,.48-.08.73-.12l.38-.05c.37,0,.74-.08,1.11-.1h.11c.41,0,.82,0,1.23,0l.37,0c.28,0,.57,0,.85,0l.47,0,.74.08.51.08.7.11.51.11.67.16.51.14.66.2.51.18c.21.07.43.15.64.24l.49.2.63.28.48.23.62.33.45.25.61.38.43.27.61.44.38.28.66.53.3.25c.31.28.61.56.9.85s.58.6.85.91l.28.33c.17.21.34.41.5.62s.2.27.3.41l.42.58.29.46.36.58.27.48Zm7.29,11a.91.91,0,0,0,0-.17c0-.14,0-.29,0-.43q0-.52,0-1c0-.17,0-.34,0-.51,0-.33,0-.67,0-1l0-.5c0-.36-.07-.72-.11-1.09,0-.12,0-.24,0-.37q-.09-.72-.24-1.44l-.06-.27c-.08-.39-.17-.77-.27-1.15,0-.16-.09-.32-.14-.48-.08-.32-.18-.63-.28-.94l-.17-.5c-.11-.31-.22-.61-.34-.91s-.13-.32-.19-.47c-.15-.36-.31-.72-.48-1.07l-.12-.26q-.33-.66-.69-1.29l-.21-.36c-.18-.3-.37-.6-.56-.9l-.29-.43c-.19-.27-.37-.53-.57-.79s-.21-.29-.32-.43-.43-.53-.65-.79l-.3-.36c-.33-.38-.67-.74-1-1.09s-.7-.68-1.07-1l-.32-.28c-.27-.23-.55-.46-.83-.67l-.34-.27c-.36-.27-.72-.53-1.09-.78l-.09-.06c-.4-.26-.81-.51-1.22-.75l-.35-.2-.95-.5L53,36.92c-.38-.19-.77-.36-1.16-.52l-.15-.07c-.44-.18-.89-.35-1.34-.5L50,35.71l-1-.32-.41-.11L47.36,35l-.21,0c-.47-.09-.95-.17-1.42-.23l-.35,0-1.1-.11-.43,0c-.39,0-.78,0-1.17-.05H42.3l-.53,0-1.05,0h-.14A19.48,19.48,0,1,1,66.72,60.67Z"/>
        <path class="cls-2"
              d="M41.77,34.49l.53,0h.38c.39,0,.78,0,1.17.05l.43,0,1.1.11.35,0c.47.06,1,.14,1.42.23l.21,0,1.19.28.41.11,1,.32.36.12c.45.15.9.32,1.34.5l.15.07c.39.16.78.33,1.16.52l.38.19.95.5.35.2c.41.24.82.49,1.22.75l.09.06c.37.25.73.51,1.09.78l.34.27c.28.21.56.44.83.67l.32.28c.37.32.72.65,1.07,1s.69.71,1,1.09l.3.36c.22.26.44.52.65.79s.22.28.32.43.38.52.57.79l.29.43c.19.3.38.6.56.9l.21.36q.36.63.69,1.29l.12.26c.17.35.33.71.48,1.07.06.15.12.31.19.47s.23.6.34.91l.17.5c.1.31.2.62.28.94,0,.16.1.32.14.48.1.38.19.76.27,1.15l.06.27q.15.72.24,1.44c0,.13,0,.25,0,.37,0,.37.08.73.11,1.09l0,.5c0,.33,0,.67,0,1,0,.17,0,.34,0,.51q0,.52,0,1c0,.14,0,.29,0,.43a.91.91,0,0,1,0,.17A19.48,19.48,0,1,0,40.58,34.53h.14Z"/>
    </g>
</svg>