<svg id="icons" xmlns="http://www.w3.org/2000/svg" viewBox="0 0 100 100"><defs><style>.cls-1{fill:#ed1e79;}.cls-2{fill:#fff;}.cls-3{fill:#999;}.cls-4{fill:#3ec188;}</style></defs><rect class="cls-1" x="6.84" y="39.08" width="5.9" height="5.9" rx="1.77"/><rect class="cls-2" x="15.1" y="39.08" width="5.9" height="5.9" rx="1.77"/><rect class="cls-3" x="23.35" y="39.08" width="5.9" height="5.9" rx="1.77"/><rect class="cls-3" x="6.84" y="47.51" width="5.9" height="5.9" rx="1.77"/><rect class="cls-1" x="15.1" y="47.51" width="5.9" height="5.9" rx="1.77"/><rect class="cls-2" x="23.35" y="47.51" width="5.9" height="5.9" rx="1.77"/><rect class="cls-2" x="6.84" y="55.94" width="5.9" height="5.9" rx="1.77"/><rect class="cls-3" x="15.1" y="55.94" width="5.9" height="5.9" rx="1.77"/><rect class="cls-3" x="23.35" y="55.94" width="5.9" height="5.9" rx="1.77"/><rect class="cls-1" x="38.97" y="6.63" width="5.9" height="5.9" rx="1.77"/><rect class="cls-2" x="47.23" y="6.63" width="5.9" height="5.9" rx="1.77"/><rect class="cls-3" x="55.48" y="6.63" width="5.9" height="5.9" rx="1.77"/><rect class="cls-3" x="38.97" y="15.05" width="5.9" height="5.9" rx="1.77"/><rect class="cls-3" x="47.23" y="15.05" width="5.9" height="5.9" rx="1.77"/><rect class="cls-2" x="55.48" y="15.05" width="5.9" height="5.9" rx="1.77"/><rect class="cls-2" x="38.97" y="23.48" width="5.9" height="5.9" rx="1.77"/><rect class="cls-3" x="47.23" y="23.48" width="5.9" height="5.9" rx="1.77"/><rect class="cls-1" x="55.48" y="23.48" width="5.9" height="5.9" rx="1.77"/><rect class="cls-2" x="69.55" y="6.8" width="22.41" height="22.41" rx="6.71"/><rect class="cls-2" x="6.84" y="70.83" width="22.41" height="22.41" rx="6.71"/><rect class="cls-2" x="6.84" y="6.8" width="22.41" height="22.41" rx="6.71"/><path class="cls-4" d="M65.46,84.84A18.47,18.47,0,1,1,77,52L67.85,59.9,92,63.46l0-24.38-8.47,7.33a26.86,26.86,0,1,0,7.3,29.08l-8.59-1.27A18.49,18.49,0,0,1,65.46,84.84Z"/></svg>