<svg id="icons" xmlns="http://www.w3.org/2000/svg" viewBox="0 0 100 100"><defs><style>.cls-1{fill:#fff;}.cls-2{fill:#ed1e79;}</style></defs><path class="cls-1" d="M65.4,84.82a18.47,18.47,0,0,1,0-36.94A18.31,18.31,0,0,1,76.94,52l-9.16,7.92L91.9,63.44l-.05-24.38-8.47,7.33a26.86,26.86,0,1,0,7.31,29.08L82.1,74.2A18.49,18.49,0,0,1,65.4,84.82Z"/><path class="cls-2" d="M65.21,15.49a49.85,49.85,0,0,1,24.35,6.32,26.15,26.15,0,0,0-6-8.16A55.16,55.16,0,0,0,14.16,86.57a26.22,26.22,0,0,0,8.06,4.93,50.15,50.15,0,0,1,43-76ZM92,32.07A42.93,42.93,0,0,0,32.27,93.2h6.85A37.94,37.94,0,1,1,92,38.76V32.65C92,32.46,92,32.26,92,32.07ZM49.14,6.78H35.36A66.47,66.47,0,0,0,5.54,37.38V52.8A61.25,61.25,0,0,1,49.14,6.78Z"/></svg>