<svg id="icons" xmlns="http://www.w3.org/2000/svg" viewBox="0 0 100 100"><defs><style>.cls-1{fill:#4d8dfc;}.cls-2{fill:#fff;}</style></defs><rect x="20.58" y="33.07" width="58.85" height="33.86"/><path class="cls-1" d="M79.42,68.43H20.58a1.5,1.5,0,0,1-1.5-1.5V33.07a1.5,1.5,0,0,1,1.5-1.5H79.42a1.5,1.5,0,0,1,1.5,1.5V66.93A1.5,1.5,0,0,1,79.42,68.43Zm-57.34-3H77.92V34.57H22.08Z"/><path d="M50.22,65.59a2.49,2.49,0,0,1-1.77-.73L35.36,51.77a2.52,2.52,0,0,1,0-3.54L48.45,35.14a2.52,2.52,0,0,1,3.54,0L65.08,48.23a2.5,2.5,0,0,1,0,3.54L52,64.86A2.49,2.49,0,0,1,50.22,65.59ZM40.66,50l9.56,9.56L59.78,50l-9.56-9.56Z"/><rect class="cls-2" x="40.96" y="40.74" width="18.51" height="18.51" transform="translate(-20.65 50.16) rotate(-45)"/></svg>