<?xml version="1.0" encoding="UTF-8"?>
<svg id="icons" xmlns="http://www.w3.org/2000/svg" viewBox="0 0 100 100">
  <defs>
    <style>
      .cls-1 {
        fill: #ffa627;
      }
    </style>
  </defs>
  <path d="M52.65,65.25v6.65c.59-.08,1.18-.17,1.77-.29.08-.02.15-.04.23-.06v-6.3h-2Z"/>
  <path d="M29.25,66.83c3.9,6.85,10.69,11.58,18.41,12.88v-2.74c-7.32-.66-13.98-4.4-18.41-10.14Z"/>
  <path d="M17.66,52.5v3h6.58c-.18-1-.32-2.01-.38-3h-6.2Z"/>
  <path d="M75.96,47.5h1.41c-.9-3.57-2.49-6.79-4.61-9.55,1.29,2.27,2.28,4.78,2.85,7.47.15.69.26,1.39.35,2.08Z"/>
  <path d="M54.65,25.12v-6.61h-2v6.33c.67.07,1.34.16,2,.28Z"/>
  <path d="M54.65,40.75v-7.87c5.53.7,10.5,3.59,13.9,7.83-3.24-5.86-9.15-9.97-15.9-10.83v7.87h-3v3h5Z"/>
  <path d="M30.89,55.5h9.01v-5h-2v2h-9.01c.07.94.19,1.87.39,2.81.7,3.28,2.16,6.25,4.16,8.75-.98-1.77-1.72-3.7-2.16-5.75-.2-.93-.31-1.87-.39-2.81Z"/>
  <path d="M70.66,55.5c.22-.98.38-1.98.46-3h-6.72v3h6.26Z"/>
  <path d="M84.64,50.5v2h-8.5c-.7,11.44-8.91,21.49-20.67,24-.94.2-1.88.35-2.81.44v7.55h-3v3h5v-7.55c.93-.1,1.87-.24,2.81-.44,11.76-2.51,19.97-12.55,20.67-24h8.5v-5h-2Z"/>
  <path d="M47.58,33.16s.05,0,.07-.01v-3.32c-.69.08-1.39.19-2.07.33-5.54,1.18-10.28,4.45-13.36,9.2-1.63,2.51-2.67,5.28-3.13,8.14h2.74c.56-1.79,1.34-3.52,2.39-5.14,3.08-4.75,7.82-8.01,13.36-9.2Z"/>
  <path class="cls-1" d="M52.65,76.94c.93-.1,1.87-.24,2.81-.44,11.76-2.51,19.97-12.55,20.67-24h8.5v-5h-8.68c-.09-.69-.2-1.38-.35-2.08-.58-2.7-1.56-5.2-2.85-7.47-3.84-6.76-10.52-11.46-18.11-12.83-.66-.12-1.33-.22-2-.28v-9.33h-5v9.3c-1.04.09-2.07.24-3.12.47-11.15,2.38-19.11,11.53-20.51,22.23h-8.37v5h8.2c.06.99.2,2,.38,3,.05.28.09.57.15.85.84,3.95,2.55,7.49,4.86,10.49,4.42,5.74,11.09,9.48,18.41,10.14v7.52h5v-7.55ZM47.65,62.25v9.68c-5.66-.63-10.75-3.55-14.21-7.88-2-2.5-3.46-5.47-4.16-8.75-.2-.93-.31-1.87-.39-2.81h9.01v-5h-8.81c.46-2.87,1.5-5.63,3.13-8.14,3.08-4.75,7.82-8.01,13.36-9.2.69-.15,1.38-.26,2.07-.33v7.92h5v-7.87c6.75.86,12.66,4.97,15.9,10.83.98,1.77,1.73,3.7,2.17,5.76.07.35.14.69.19,1.04h-8.51v5h8.72c-.08,1.02-.24,2.02-.46,3-1.74,7.75-7.78,14.2-16.01,16.05-.08.02-.15.04-.23.06-.59.12-1.18.22-1.77.29v-9.65h-5Z"/>
</svg>