<svg id="icons" xmlns="http://www.w3.org/2000/svg" viewBox="0 0 200 100"><defs><style>.cls-1{fill:#fff;}</style></defs><path d="M59.59,44l-3.76,2.29a5.08,5.08,0,0,1-2.81,1c-1.43,0-3.05-.72-3.05-2.76a2.93,2.93,0,0,1,1.47-2.67l9.44-5.53a3.43,3.43,0,0,1,1.85-.52A3.31,3.31,0,0,1,66.26,39V67.18a3.35,3.35,0,0,1-6.67,0Z"/><path d="M107.91,69.85H92.24a3.17,3.17,0,0,1-3.38-3.14,5.45,5.45,0,0,1,.38-2.24c1.9-4.19,5.38-7.24,8.76-10.29,2.62-2.38,6.43-5.1,6.43-8.62A4.11,4.11,0,0,0,100,41.22,10.08,10.08,0,0,0,96,42c-1,.43-2,1.29-3.39,1.29a3.07,3.07,0,0,1-3.23-2.9c0-3.48,6.81-5,10.67-5,6.95,0,11,4.29,11,9.67a12.21,12.21,0,0,1-3.77,9c-3.19,3.34-7.38,6.29-9.95,9.82h10.62a3.08,3.08,0,0,1,3.29,2.95A3.13,3.13,0,0,1,107.91,69.85Z"/><path d="M142.65,49.32c4.95.9,8.29,4.38,8.29,9.53s-3.57,11.38-11.86,11.38c-2.24,0-9.86-.62-9.86-4.57a3.08,3.08,0,0,1,3.14-3c2,0,3.24,1.77,6.48,1.77,4.15,0,5.48-2.86,5.48-5.34,0-3.14-2.09-4.38-5.43-4.38-1.24,0-1.24.52-2.43.52a3.1,3.1,0,0,1-3.1-3.14A1.69,1.69,0,0,1,133.7,51l7.09-8.63h-7.66a3.12,3.12,0,0,1-3.29-3,3.21,3.21,0,0,1,3.29-3.14h13.28a3.25,3.25,0,0,1,3.48,3.24,3.33,3.33,0,0,1-.76,2.14Z"/><path class="cls-1" d="M57.59,41l-3.76,2.29a5.08,5.08,0,0,1-2.81,1c-1.43,0-3.05-.72-3.05-2.76a2.93,2.93,0,0,1,1.47-2.67l9.44-5.53a3.43,3.43,0,0,1,1.85-.52A3.31,3.31,0,0,1,64.26,36V64.18a3.35,3.35,0,0,1-6.67,0Z"/><path class="cls-1" d="M105.91,66.85H90.24a3.17,3.17,0,0,1-3.38-3.14,5.45,5.45,0,0,1,.38-2.24c1.9-4.19,5.38-7.24,8.76-10.29,2.62-2.38,6.43-5.1,6.43-8.62A4.11,4.11,0,0,0,98,38.22,10.08,10.08,0,0,0,94,39c-1,.43-2,1.29-3.39,1.29a3.07,3.07,0,0,1-3.23-2.9c0-3.48,6.81-5,10.67-5,6.95,0,11,4.29,11,9.67a12.21,12.21,0,0,1-3.77,9c-3.19,3.34-7.38,6.29-9.95,9.82h10.62a3.08,3.08,0,0,1,3.29,3A3.13,3.13,0,0,1,105.91,66.85Z"/><path class="cls-1" d="M140.65,46.32c4.95.9,8.29,4.38,8.29,9.53s-3.57,11.38-11.86,11.38c-2.24,0-9.86-.62-9.86-4.57a3.08,3.08,0,0,1,3.14-3c2,0,3.24,1.77,6.48,1.77,4.15,0,5.48-2.86,5.48-5.34,0-3.14-2.09-4.38-5.43-4.38-1.24,0-1.24.52-2.43.52a3.1,3.1,0,0,1-3.1-3.14A1.69,1.69,0,0,1,131.7,48l7.09-8.63h-7.66a3.12,3.12,0,0,1-3.29-3,3.21,3.21,0,0,1,3.29-3.14h13.28a3.25,3.25,0,0,1,3.48,3.24,3.33,3.33,0,0,1-.76,2.14Z"/></svg>