<svg id="icons" xmlns="http://www.w3.org/2000/svg" viewBox="0 0 100 100"><defs><style>.cls-1{fill:#fff;}</style></defs><path class="cls-1" d="M77.53,64h0c-.25,0-.5,0-.74,0L51.18,38.43a6.45,6.45,0,0,0-6.65-1.51l4-11.7A6.74,6.74,0,0,0,47.08,19l-8.37-8.36A6.69,6.69,0,0,0,32.5,9.18l-5,1.72A2,2,0,0,0,26,12.22a2,2,0,0,0,.73,1.84l5.4,5.38a4.9,4.9,0,0,1,0,6.91l-5.77,5.77a4.89,4.89,0,0,1-6.92,0l-5.36-5.37A2.07,2.07,0,0,0,12.22,26a2.06,2.06,0,0,0-1.32,1.48l-1.71,5a6.68,6.68,0,0,0,1.44,6.21L19,47.08a6.68,6.68,0,0,0,6.19,1.45l11.73-4a6.42,6.42,0,0,0,1.5,6.65L64,76.78c0,.25,0,.5,0,.75A13.54,13.54,0,1,0,77.53,64Zm0,20.64a7.1,7.1,0,1,1,7.09-7.1A7.11,7.11,0,0,1,77.53,84.63Z"/></svg>