<svg id="icons" xmlns="http://www.w3.org/2000/svg" viewBox="0 0 100 100">
    <defs>
        <style>.cls-1{fill:#fff;}</style>
    </defs>
    <path d="M81.9,46.52A30.65,30.65,0,0,0,52,22.27a31.27,31.27,0,0,0-6.45.68A30.64,30.64,0,0,0,35.28,78.62h0a30.46,30.46,0,0,0,16.6,4.94,30.92,30.92,0,0,0,6.46-.69A30.65,30.65,0,0,0,81.9,46.52ZM31.76,39.83A23.85,23.85,0,0,1,46.92,29.39,24.3,24.3,0,0,1,52,28.85a23.85,23.85,0,0,1,13,3.88l.49.33L51.94,46.62l-6.29,6.29L32.07,66.49a24.12,24.12,0,0,1-.31-26.66ZM72.11,66a24,24,0,0,1-33.25,7.1h0c-.17-.1-.32-.22-.49-.33L51.94,59.2l6.29-6.29L71.81,39.33A24.1,24.1,0,0,1,72.11,66Z"/>
    <path class="cls-1"
          d="M80,43.7a30.65,30.65,0,0,0-29.9-24.26,31.28,31.28,0,0,0-6.45.69A30.64,30.64,0,0,0,33.39,75.8h0A30.46,30.46,0,0,0,50,80.73a30.81,30.81,0,0,0,6.45-.68A30.65,30.65,0,0,0,80,43.7ZM29.88,37A23.87,23.87,0,0,1,45,26.57,24.3,24.3,0,0,1,50.12,26a23.85,23.85,0,0,1,13,3.88c.17.1.32.22.48.33L50.06,43.8l-6.29,6.29L30.19,63.67A24.13,24.13,0,0,1,29.88,37ZM70.23,63.17A24,24,0,0,1,37,70.27h0c-.17-.1-.33-.22-.49-.33L50.06,56.38l6.29-6.29L69.93,36.51a24.1,24.1,0,0,1,.3,26.66Z"/>
</svg>