<svg xmlns="http://www.w3.org/2000/svg" viewBox="0 0 100 100"><defs><style>.cls-1{opacity:0.5;}.cls-2{fill:#fffffc;}.cls-3{fill:#ffa627;}.cls-4{opacity:0.7;}</style></defs><g id="Layer_25" data-name="Layer 25"><g class="cls-1"><path class="cls-2" d="M69.8,44.52a4,4,0,0,0,3,.56,4,4,0,0,0-.85-8,4.09,4.09,0,0,0-3.4,1.84A4.09,4.09,0,0,0,68,42,4,4,0,0,0,69.8,44.52Z"/><path class="cls-2" d="M88.16,70.74a4,4,0,0,0-.84.09,4.07,4.07,0,0,0-3.12,4.81,4,4,0,1,0,4-4.9Z"/><path class="cls-2" d="M53.64,44.52a4,4,0,0,0,3,.56,4,4,0,0,0-.84-8,4.17,4.17,0,0,0-.85.09A4,4,0,0,0,51.88,42,4,4,0,0,0,53.64,44.52Z"/><path class="cls-2" d="M86,44.52a4,4,0,0,0,6.16-4.24,4,4,0,0,0-4-3.2,4,4,0,0,0-.84.09A4,4,0,0,0,86,44.52Z"/><path d="M51.89,47.21a7.25,7.25,0,1,0-3.14-4.57A7.22,7.22,0,0,0,51.89,47.21Zm3.1-10a4.17,4.17,0,0,1,.85-.09,4,4,0,0,1,.84,8A4,4,0,0,1,51.88,42,4,4,0,0,1,55,37.17Z"/><path d="M68.6,55.76A4,4,0,0,1,71.16,54a4.09,4.09,0,0,1,.85-.09,4,4,0,0,1,2.19.65,4,4,0,0,1,1.52,1.8h3.35A7.24,7.24,0,0,0,65.92,54a7.07,7.07,0,0,0-1,2.34h3.35A3.41,3.41,0,0,1,68.6,55.76Z"/><path d="M86.65,67.7a7.25,7.25,0,0,0-2.43,13.18A7.25,7.25,0,1,0,86.65,67.7ZM91.56,77a4.05,4.05,0,0,1-7.36-1.36,4.07,4.07,0,0,1,3.12-4.81,4,4,0,0,1,.84-.09,4.06,4.06,0,0,1,4,3.21A4,4,0,0,1,91.56,77Z"/><path d="M68.06,47.21a7.24,7.24,0,1,0-3.15-4.57A7.2,7.2,0,0,0,68.06,47.21Zm.54-8.29A4,4,0,1,1,68,42,4.09,4.09,0,0,1,68.6,38.92Z"/><path d="M84.22,47.21a7.25,7.25,0,1,0-3.15-4.57A7.27,7.27,0,0,0,84.22,47.21Zm3.1-10a4,4,0,0,1,.84-.09,4,4,0,0,1,4,3.2A4,4,0,0,1,84.2,42,4.06,4.06,0,0,1,87.32,37.17Z"/><path d="M92.11,51.88a7.24,7.24,0,0,0-11,4.48h3.35A4,4,0,0,1,87.32,54a4.05,4.05,0,0,1,3.05.56,4,4,0,1,1-5.92,5H81.1A7.24,7.24,0,0,0,94.25,61.9a7.26,7.26,0,0,0-2.14-10Z"/><path d="M57.44,67.73v3.36a4,4,0,0,1,2.11,2.1H62.9A7.23,7.23,0,0,0,57.44,67.73Z"/><path d="M65.92,70.85a7.15,7.15,0,0,0-1,2.34h3.35a3.8,3.8,0,0,1,.31-.6,4.15,4.15,0,0,1,1.8-1.52V67.73A7.21,7.21,0,0,0,65.92,70.85Z"/><path d="M68.28,59.56H64.93A7.26,7.26,0,0,0,70.4,65V61.67A4.08,4.08,0,0,1,68.28,59.56Z"/><path d="M51.88,58.8A4,4,0,0,1,55,54a4.19,4.19,0,0,1,.86-.09,4,4,0,0,1,2.19.65,4.09,4.09,0,0,1,1.52,1.8H62.9a7.24,7.24,0,0,0-8.57-5.49A7.25,7.25,0,0,0,51.89,64a7.36,7.36,0,0,0,2.35,1V61.67A4,4,0,0,1,51.88,58.8Z"/><path d="M62.9,59.56H59.55a4.08,4.08,0,0,1-2.11,2.12V65A7.26,7.26,0,0,0,62.9,59.56Z"/><path d="M56.68,78.75a4,4,0,0,1-4.8-3.11,4,4,0,0,1,2.36-4.56V67.73a7.24,7.24,0,1,0,8.66,8.66H59.55A4,4,0,0,1,56.68,78.75Z"/><path d="M76,74a4,4,0,0,1-3.11,4.8,4.05,4.05,0,0,1-4.57-2.36H64.93a7.25,7.25,0,1,0,8.67-8.66v3.36A4,4,0,0,1,76,74Z"/><path d="M73.6,61.68V65a7.26,7.26,0,0,0,5.46-5.47H75.71A4,4,0,0,1,73.6,61.68Z"/><path class="cls-3" d="M89,61.92a4,4,0,0,0-.84-8,4.09,4.09,0,0,0-.85.09,4,4,0,0,0-2.87,2.36H75.72a4,4,0,0,0-1.52-1.8A4,4,0,0,0,72,53.91a4.09,4.09,0,0,0-.85.09,4,4,0,0,0-2.56,1.76,3.41,3.41,0,0,0-.31.6H59.56A4.09,4.09,0,0,0,58,54.56a4,4,0,0,0-2.19-.65A4.19,4.19,0,0,0,55,54a4,4,0,0,0-.75,7.67v9.41a4,4,0,0,0-2.36,4.56,4,4,0,0,0,7.67.75h8.73a4.05,4.05,0,0,0,4.57,2.36,4,4,0,0,0,.75-7.66V61.68a4,4,0,0,0,2.11-2.12h8.74A4,4,0,0,0,89,61.92ZM70.4,65v6a4.15,4.15,0,0,0-1.8,1.52,3.8,3.8,0,0,0-.31.6H59.55a4,4,0,0,0-2.11-2.1V61.68a4.08,4.08,0,0,0,2.11-2.12h8.73a4.08,4.08,0,0,0,2.12,2.11Z"/></g></g><g id="icons_50" data-name="icons 50"><g class="cls-4"><path class="cls-2" d="M57.25,38.16a5,5,0,0,0,3.81.71,5.06,5.06,0,0,0-1.06-10,4.83,4.83,0,0,0-1.06.11,5.06,5.06,0,0,0-1.69,9.19Z"/><path class="cls-2" d="M80.2,70.94a5.43,5.43,0,0,0-1,.11A5.06,5.06,0,1,0,81.26,81a5.06,5.06,0,0,0-1.06-10Z"/><path class="cls-2" d="M37,38.16a5,5,0,0,0,3.81.71,5.06,5.06,0,0,0-1.05-10,4.83,4.83,0,0,0-1.06.11A5.06,5.06,0,0,0,37,38.16Z"/><path class="cls-2" d="M77.45,38.16a5.06,5.06,0,1,0,2.75-9.3,4.75,4.75,0,0,0-1,.11,5.05,5.05,0,0,0-1.7,9.19Z"/><path d="M34.87,41.52A9,9,0,0,0,39.78,43a9.61,9.61,0,0,0,1.91-.2,9.06,9.06,0,1,0-6.82-1.26ZM38.74,29a4.83,4.83,0,0,1,1.06-.11,5.06,5.06,0,0,1,1.05,10A5.06,5.06,0,0,1,38.74,29Z"/><path d="M55.75,52.21A5,5,0,0,1,58.94,50,4.92,4.92,0,0,1,60,49.9a5.07,5.07,0,0,1,2.74.81A5,5,0,0,1,64.65,53h4.18a9.05,9.05,0,0,0-17.66,0h4.19A5.34,5.34,0,0,1,55.75,52.21Z"/><path d="M78.31,67.14a9.08,9.08,0,0,0-7,10.75,9.11,9.11,0,0,0,8.84,7.18,8.8,8.8,0,0,0,1.91-.21,9.06,9.06,0,1,0-3.78-17.72Zm6.14,11.62a5.07,5.07,0,0,1-7,1.49,5.06,5.06,0,0,1,1.7-9.2,5.43,5.43,0,0,1,1-.11,5.06,5.06,0,0,1,5,4A5,5,0,0,1,84.45,78.76Z"/><path d="M55.07,41.52A9,9,0,0,0,60,43a9.46,9.46,0,0,0,1.91-.2,9.06,9.06,0,0,0-3.78-17.72,9.06,9.06,0,0,0-3,16.46Zm.68-10.36A5,5,0,0,1,58.94,29,4.83,4.83,0,0,1,60,28.86a5.06,5.06,0,0,1,1.06,10,5.08,5.08,0,0,1-6-3.9A5.07,5.07,0,0,1,55.75,31.16Z"/><path d="M75.28,41.52A9,9,0,0,0,80.18,43a9.46,9.46,0,0,0,1.91-.2,9.07,9.07,0,1,0-6.81-1.26ZM79.15,29a4.75,4.75,0,0,1,1-.11,5.06,5.06,0,0,1,5,4,5,5,0,0,1-.7,3.81,5.06,5.06,0,1,1-5.3-7.7Z"/><path d="M85.13,47.36A9,9,0,0,0,71.38,53h4.18a5.07,5.07,0,0,1,3.59-3,4.8,4.8,0,0,1,1.07-.11,5.09,5.09,0,0,1,2.74.81,5,5,0,0,1,2.19,3.19,5.06,5.06,0,0,1-3.89,6A5.07,5.07,0,0,1,75.56,57H71.37A9.08,9.08,0,0,0,80.2,64a8.67,8.67,0,0,0,1.89-.2,9.05,9.05,0,0,0,3-16.46Z"/><path d="M41.8,67.17v4.2A5.1,5.1,0,0,1,44.44,74h4.19A9.07,9.07,0,0,0,41.8,67.17Z"/><path d="M52.4,71.07A9,9,0,0,0,51.17,74h4.19a5.34,5.34,0,0,1,.39-.75A5.12,5.12,0,0,1,58,71.35V67.17A9,9,0,0,0,52.4,71.07Z"/><path d="M55.35,57H51.17A9.07,9.07,0,0,0,58,63.79V59.6A5.06,5.06,0,0,1,55.35,57Z"/><path d="M34.85,56a5.07,5.07,0,0,1,3.89-6,4.86,4.86,0,0,1,1.07-.11A5.05,5.05,0,0,1,44.45,53h4.18A9.05,9.05,0,1,0,37.8,63.8V59.6A5,5,0,0,1,34.85,56Z"/><path d="M48.62,57H44.44a5.14,5.14,0,0,1-2.64,2.65v4.18A9,9,0,0,0,48.62,57Z"/><path d="M40.85,81a5.06,5.06,0,0,1-3.05-9.6V67.17a9.05,9.05,0,0,0-6.86,10.72,9,9,0,0,0,10.75,7A9,9,0,0,0,48.62,78H44.44A5,5,0,0,1,40.85,81Z"/><path d="M65,75a5.06,5.06,0,0,1-7.7,5.3A5,5,0,0,1,55.35,78H51.17A9.08,9.08,0,0,0,60,85.07a8.8,8.8,0,0,0,1.91-.21A9,9,0,0,0,62,67.18v4.19A5.05,5.05,0,0,1,65,75Z"/><path d="M62,59.61v4.18A9.07,9.07,0,0,0,68.83,57H64.64A5.06,5.06,0,0,1,62,59.61Z"/><path class="cls-3" d="M81.26,59.91a5.07,5.07,0,0,0,1.7-9.2,5.09,5.09,0,0,0-2.74-.81,4.8,4.8,0,0,0-1.07.11,5.07,5.07,0,0,0-3.59,3H64.65a5,5,0,0,0-1.9-2.25A5.07,5.07,0,0,0,60,49.9a4.92,4.92,0,0,0-1.07.11,5,5,0,0,0-3.19,2.2,5.34,5.34,0,0,0-.39.75H44.45a5.05,5.05,0,0,0-4.64-3.06,4.86,4.86,0,0,0-1.07.11,5.05,5.05,0,0,0-.94,9.59V71.35A5.06,5.06,0,1,0,44.44,78H55.35a5,5,0,0,0,1.9,2.25A5.05,5.05,0,1,0,62,71.37V59.61A5.06,5.06,0,0,0,64.64,57H75.56A5.07,5.07,0,0,0,81.26,59.91ZM58,63.79v7.56a5.12,5.12,0,0,0-2.25,1.9,5.34,5.34,0,0,0-.39.75H44.44a5.1,5.1,0,0,0-2.64-2.63V59.61A5.14,5.14,0,0,0,44.44,57H55.35A5.06,5.06,0,0,0,58,59.6Z"/></g></g><g id="Layer_5" data-name="Layer 5"><path class="cls-2" d="M40.56,30A6.32,6.32,0,1,0,44,18.33a6,6,0,0,0-1.32.14A6.32,6.32,0,0,0,40.56,30Z"/><path class="cls-2" d="M69.26,70.94a6.08,6.08,0,0,0-1.33.14,6.33,6.33,0,1,0,1.33-.14Z"/><path class="cls-2" d="M15.3,30a6.32,6.32,0,1,0,3.45-11.63,5.92,5.92,0,0,0-1.32.14A6.32,6.32,0,0,0,15.3,30Z"/><path class="cls-2" d="M65.81,30a6.32,6.32,0,0,0,9.63-6.62,6.33,6.33,0,0,0-6.18-5,6.08,6.08,0,0,0-1.33.14A6.33,6.33,0,0,0,65.81,30Z"/><path d="M12.58,34.16A11.3,11.3,0,0,0,18.72,36a11.33,11.33,0,1,0-11-9A11.28,11.28,0,0,0,12.58,34.16Zm4.85-15.69a5.92,5.92,0,0,1,1.32-.14,6.33,6.33,0,1,1-1.32.14Z"/><path d="M38.69,47.52a6.32,6.32,0,0,1,4-2.75A6.68,6.68,0,0,1,44,44.63a6.33,6.33,0,0,1,5.8,3.83H55a11.32,11.32,0,0,0-22.08,0h5.23A7.07,7.07,0,0,1,38.69,47.52Z"/><path d="M66.89,66.19a11.32,11.32,0,0,0,2.34,22.4,11.49,11.49,0,0,0,2.39-.25,11.32,11.32,0,0,0-4.73-22.15ZM74.56,80.7a6.32,6.32,0,1,1-6.63-9.62,6.08,6.08,0,0,1,1.33-.14,6.32,6.32,0,0,1,5.3,9.76Z"/><path d="M37.84,34.16A11.32,11.32,0,1,0,32.92,27,11.28,11.28,0,0,0,37.84,34.16Zm.85-12.95a6.31,6.31,0,0,1,4-2.74A6,6,0,0,1,44,18.33a6.32,6.32,0,1,1-5.31,2.88Z"/><path d="M63.09,34.16A11.3,11.3,0,0,0,69.23,36a11.5,11.5,0,0,0,2.39-.26,11.31,11.31,0,1,0-8.53-1.57Zm4.84-15.69a6.08,6.08,0,0,1,1.33-.14,6.32,6.32,0,0,1,1.31,12.51A6.32,6.32,0,0,1,63.07,26,6.33,6.33,0,0,1,67.93,18.47Z"/><path d="M75.42,41.46a11.31,11.31,0,0,0-17.2,7h5.23a6.35,6.35,0,0,1,4.48-3.69,6.85,6.85,0,0,1,1.34-.14,6.33,6.33,0,1,1-5.82,8.83H58.21a11.35,11.35,0,0,0,11,8.83A12.08,12.08,0,0,0,71.62,62a11.33,11.33,0,0,0,3.8-20.58Z"/><path d="M21.25,66.23v5.25a6.33,6.33,0,0,1,3.3,3.28h5.24A11.34,11.34,0,0,0,21.25,66.23Z"/><path d="M34.5,71.1A11.29,11.29,0,0,0,33,74.76h5.23a7.07,7.07,0,0,1,.5-.94,6.28,6.28,0,0,1,2.81-2.37V66.22A11.25,11.25,0,0,0,34.5,71.1Z"/><path d="M38.19,53.46H33A11.32,11.32,0,0,0,41.5,62V56.76A6.35,6.35,0,0,1,38.19,53.46Z"/><path d="M12.56,52.28a6.33,6.33,0,0,1,4.87-7.51,6.68,6.68,0,0,1,1.33-.14,6.33,6.33,0,0,1,5.8,3.83h5.23A11.32,11.32,0,1,0,16.25,62V56.76A6.31,6.31,0,0,1,12.56,52.28Z"/><path d="M29.78,53.46H24.55a6.39,6.39,0,0,1-3.3,3.31V62A11.34,11.34,0,0,0,29.78,53.46Z"/><path d="M20.07,83.45a6.33,6.33,0,0,1-3.82-12V66.22A11.32,11.32,0,1,0,29.78,79.76H24.55A6.35,6.35,0,0,1,20.07,83.45Z"/><path d="M50.19,75.94a6.33,6.33,0,0,1-9.63,6.63,6.23,6.23,0,0,1-2.37-2.81H33A11.32,11.32,0,1,0,46.5,66.23v5.25A6.32,6.32,0,0,1,50.19,75.94Z"/><path d="M46.5,56.77V62A11.32,11.32,0,0,0,55,53.46H49.8A6.35,6.35,0,0,1,46.5,56.77Z"/><path class="cls-3" d="M70.57,57.15a6.33,6.33,0,0,0-1.3-12.52,6.85,6.85,0,0,0-1.34.14,6.35,6.35,0,0,0-4.48,3.69H49.81A6.33,6.33,0,0,0,44,44.63a6.68,6.68,0,0,0-1.33.14,6.32,6.32,0,0,0-4,2.75,7.07,7.07,0,0,0-.5.94H24.56a6.33,6.33,0,0,0-5.8-3.83,6.68,6.68,0,0,0-1.33.14,6.32,6.32,0,0,0-1.18,12V71.45a6.33,6.33,0,1,0,8.3,8.31H38.19a6.23,6.23,0,0,0,2.37,2.81A6.31,6.31,0,1,0,46.5,71.48V56.77a6.35,6.35,0,0,0,3.3-3.31H63.45A6.34,6.34,0,0,0,70.57,57.15ZM41.5,62v9.46a6.28,6.28,0,0,0-2.81,2.37,7.07,7.07,0,0,0-.5.94H24.55a6.33,6.33,0,0,0-3.3-3.28V56.77a6.39,6.39,0,0,0,3.3-3.31H38.19a6.35,6.35,0,0,0,3.31,3.3Z"/></g></svg>