<svg id="icons" xmlns="http://www.w3.org/2000/svg" viewBox="0 0 100 100">
    <defs>
        <style>.cls-1{fill:#fff;}</style>
    </defs>
    <path d="M51.77,76.77A22.52,22.52,0,1,0,37.7,36.71l11.17,9.65L19.46,50.71,19.52,21l10.32,8.93a32.76,32.76,0,1,1-8.9,35.46l10.47-1.55A22.54,22.54,0,0,0,51.77,76.77Z"/>
    <path class="cls-1"
          d="M49.77,72.77A22.52,22.52,0,1,0,35.7,32.71l11.17,9.65L17.46,46.71,17.52,17l10.32,8.93a32.76,32.76,0,1,1-8.9,35.46l10.47-1.55A22.54,22.54,0,0,0,49.77,72.77Z"/>
</svg>