<svg xmlns="http://www.w3.org/2000/svg" viewBox="0 0 100 100">
    <defs>
        <style>.cls-1{fill:#fff;}.cls-2{fill:#4d8dfc;}</style>
    </defs>
    <g id="icons">
        <path class="cls-1"
              d="M56.11,19.39A8.43,8.43,0,0,0,51.49,18a8.53,8.53,0,0,0-7.18,3.89,8.45,8.45,0,0,0-1.18,6.42,8.55,8.55,0,0,0,1,2.62,6,6,0,0,1,.72-.11A5,5,0,0,1,50.27,35a8.55,8.55,0,0,0,3-.09l.46-.13a8.43,8.43,0,0,0,4.23-2.67,8.7,8.7,0,0,0,.69-.91,8.52,8.52,0,0,0-2.52-11.8ZM88.27,72.28a8.52,8.52,0,0,0-10.12-6.56l-.23.06a8.47,8.47,0,0,0-4.3,2.55,8.17,8.17,0,0,0-.85,1.09,8.66,8.66,0,0,0-1,2.14,8.5,8.5,0,0,0-.19,4.28c.06.25.12.49.19.72a8.53,8.53,0,0,0,16.5-4.28Zm-58.81-.72a8.31,8.31,0,0,0-1.35-2.63c-.11-.14-.21-.29-.33-.42a4.85,4.85,0,0,1-3.19-2.31L24,66a8.41,8.41,0,0,0-2.72-.47,8.31,8.31,0,0,0-1.79.19,8.53,8.53,0,1,0,8.93,13,8.34,8.34,0,0,0,1-2.14,8.49,8.49,0,0,0,.19-4.28C29.6,72,29.53,71.8,29.46,71.56Z"/>
        <path d="M93.16,71.24A13.53,13.53,0,0,0,77.1,60.83a13.79,13.79,0,0,0-1.8.53L60.58,36.55a14,14,0,0,0,2.25-2.64,13.53,13.53,0,1,0-22.42.44l.65-1.09A4.73,4.73,0,0,1,42,32.15,5,5,0,0,1,44.17,31a8.55,8.55,0,0,1-1-2.62,8.45,8.45,0,0,1,1.18-6.42A8.53,8.53,0,0,1,51.49,18a8.52,8.52,0,0,1,7.14,13.17,8.7,8.7,0,0,1-.69.91,8.43,8.43,0,0,1-4.23,2.67l-.46.13a8.55,8.55,0,0,1-3,.09,5,5,0,0,1-.21,2.49,5.31,5.31,0,0,1-.4.88l-.87,1.46a13.85,13.85,0,0,0,2.65.27,13.09,13.09,0,0,0,2.85-.31,12.53,12.53,0,0,0,2-.61L71,63.91a14.12,14.12,0,0,0-2.42,2.79,13.61,13.61,0,0,0-1.95,4.86h-32c0-.1,0-.21-.05-.32a13.37,13.37,0,0,0-1.83-4.44,5,5,0,0,1-3.87,1.83l-.53,0a4.89,4.89,0,0,1-.53-.09c.12.13.22.28.33.42a8.31,8.31,0,0,1,1.35,2.63c.07.24.14.48.19.72a8.49,8.49,0,0,1-.19,4.28,8.34,8.34,0,0,1-1,2.14,8.53,8.53,0,1,1-8.93-13,8.31,8.31,0,0,1,1.79-.19A8.41,8.41,0,0,1,24,66l.55.2a4.83,4.83,0,0,1-.32-.59,5.14,5.14,0,0,1-.39-2.26,4.93,4.93,0,0,1,.67-2.27l.08-.13A13.53,13.53,0,0,0,13.94,85.42a13.43,13.43,0,0,0,7.34,2.18,13.87,13.87,0,0,0,2.85-.3,13.49,13.49,0,0,0,8.53-5.87,13.66,13.66,0,0,0,2-4.87h32c0,.11,0,.22,0,.33A13.55,13.55,0,0,0,79.9,87.6a13.8,13.8,0,0,0,2.85-.3A13.53,13.53,0,0,0,93.16,71.24ZM81.71,82.41a8.55,8.55,0,0,1-9.94-5.85c-.07-.23-.13-.47-.19-.72a8.5,8.5,0,0,1,.19-4.28,8.66,8.66,0,0,1,1-2.14,8.17,8.17,0,0,1,.85-1.09,8.47,8.47,0,0,1,4.3-2.55l.23-.06a8.45,8.45,0,0,1,1.79-.19,8.52,8.52,0,0,1,8.33,6.75,8.53,8.53,0,0,1-6.56,10.13Z"/>
        <path class="cls-2"
              d="M50.27,35a5.06,5.06,0,0,0-.82-2,4.92,4.92,0,0,0-4.56-2.12,6,6,0,0,0-.72.11A5,5,0,0,0,42,32.15a4.73,4.73,0,0,0-.92,1.11l-.65,1.09L24.63,61l-.08.13a4.93,4.93,0,0,0-.67,2.27,5.14,5.14,0,0,0,.39,2.26,4.83,4.83,0,0,0,.32.59,5,5,0,0,0,3.72,2.4l.53,0a5,5,0,0,0,3.87-1.83,4.61,4.61,0,0,0,.44-.62L48.79,39.82l.87-1.46a5.31,5.31,0,0,0,.4-.88A5,5,0,0,0,50.27,35Z"/>
    </g>
</svg>