<?xml version="1.0" encoding="UTF-8"?>
<svg id="icons" xmlns="http://www.w3.org/2000/svg" viewBox="0 0 100 100">
  <defs>
    <style>
      .cls-1 {
        fill: #4d8dfc;
      }

      .cls-2 {
        fill: #ffa627;
      }
    </style>
  </defs>
  <path class="cls-1" d="M43.22,75.59v-6.52h-11.78l.1-.18,1.45-2.44,7.44-12.54-6.76-7.83c-.31.3-.6.63-.83,1.02l-8.15,13.74-1.36,2.3-1.42,2.39-3.55,5.98,4.3,7.55h21.32c-.48-1.06-.75-2.24-.75-3.48h0ZM81.21,65.58l-1.49-2.52-1.4-2.35-6.72-11.33-6.89,7.98,5.01,8.44,1.4,2.35.53.9h-9.36v9.52c0,.16-.02.32-.02.48h18.16l4.3-7.55-3.52-5.93Z"/>
  <path d="M59.33,15.2c-5.42-3.51-12.44-2.64-16.86,1.72h19.01c-.64-.63-1.36-1.21-2.15-1.72ZM87.79,62.71c-2.83-1.83-6.17-2.52-9.47-2l1.4,2.35,1.49,2.52,3.52,5.93-4.3,7.55h-12.56c1,2.52,2.75,4.77,5.2,6.35,2.22,1.44,4.75,2.18,7.33,2.18.95,0,1.9-.1,2.85-.3,3.53-.75,6.56-2.84,8.53-5.87,4.06-6.26,2.27-14.66-3.99-18.72ZM71.11,68.16l-1.4-2.35c-.22.29-.44.58-.64.89-.49.76-.89,1.55-1.22,2.36h3.79l-.53-.9ZM31.54,68.89l-.1.18h2.92c-.36-.91-.81-1.79-1.37-2.61l-1.45,2.44ZM18.36,71.51l3.55-5.98,1.42-2.39,1.36-2.3c-1.86-.41-3.79-.43-5.7-.02-3.54.75-6.57,2.84-8.53,5.87-4.06,6.26-2.27,14.66,3.99,18.72,2.22,1.44,4.75,2.18,7.33,2.18.95,0,1.9-.1,2.85-.3,3.54-.75,6.57-2.84,8.53-5.87.49-.76.89-1.55,1.22-2.36h-11.72l-4.3-7.55ZM88.56,29.74c2.43-2.82,1.61-6.77-1-8.68.59,1.84.32,3.97-1.16,5.68l-16.84,19.51-6.79,7.86-2.64,3.06v18.42c0,1.24-.27,2.41-.75,3.48-1.33,2.94-4.27,4.98-7.7,4.98-2.17,0-4.14-.82-5.64-2.17,1.28,3.04,4.29,5.17,7.79,5.17,4.51,0,8.19-3.53,8.43-7.98,0-.16.02-.32.02-.48v-18.42l2.42-2.8,6.89-7.98,16.96-19.64ZM33.92,45.86l-15.38-17.81c.24.59.57,1.16,1.03,1.69l14.1,16.34,6.76,7.83,2.79,3.24v-.5l-2.62-3.03-6.69-7.75ZM46.22,75.59c0,1.32.47,2.53,1.25,3.48,1,1.21,2.51,1.98,4.2,1.98s3.2-.77,4.2-1.98c.78-.94,1.25-2.16,1.25-3.48,0-3.01-2.45-5.46-5.46-5.46s-5.46,2.45-5.46,5.46Z"/>
  <path class="cls-2" d="M87.56,21.06c-.74-2.3-2.83-4.14-5.65-4.14H21.91c-5.08,0-7.82,5.97-4.5,9.82l1.13,1.31,15.38,17.81,6.69,7.75,2.62,3.03v18.95c0,1.24.27,2.41.75,3.48.49,1.08,1.2,2.04,2.07,2.82,1.5,1.34,3.47,2.17,5.64,2.17,3.43,0,6.38-2.05,7.7-4.98.48-1.06.75-2.24.75-3.48v-18.42l2.64-3.06,6.79-7.86,16.84-19.51c1.48-1.71,1.75-3.84,1.16-5.68ZM55.88,79.06c-1,1.21-2.51,1.98-4.2,1.98s-3.2-.77-4.2-1.98c-.78-.94-1.25-2.16-1.25-3.48,0-3.01,2.45-5.46,5.46-5.46s5.46,2.45,5.46,5.46c0,1.32-.47,2.53-1.25,3.48Z"/>
</svg>