<svg id="icons" xmlns="http://www.w3.org/2000/svg" viewBox="0 0 100 100"><defs><style>.cls-1{fill:#fff;}</style></defs><path class="cls-1" d="M70.6,67.91c.73,1,.44,2,.44,2.92a7.37,7.37,0,0,1-7.3,7c-6.14,0-9.79-10.08-13.59-15.64-3.94,5.56-7.6,15.64-13.73,15.64a7.37,7.37,0,0,1-7.31-7c0-.88-.28-1.9.44-2.92l10.52-13L27.21,52.28c-3.65-.73-7.45-3.07-7.45-7a6.73,6.73,0,0,1,6.58-7A5.38,5.38,0,0,1,28,38.4c5.4,1.9,10.81,4.24,16.21,6.13L42.84,31.39a3.8,3.8,0,0,1-.14-1.17c0-2.77,1.76-7.89,7.3-7.89s7.3,5.12,7.3,7.89a3.8,3.8,0,0,1-.14,1.17L55.85,44.53c5.4-1.89,10.8-4.23,16.22-6.13a5.31,5.31,0,0,1,1.6-.15,6.73,6.73,0,0,1,6.57,7c0,3.94-3.8,6.28-7.45,7L59.93,54.91Z"/></svg>