<?xml version="1.0" encoding="UTF-8"?>
<svg xmlns="http://www.w3.org/2000/svg" viewBox="0 0 100 100">
  <defs>
    <style>
      .cls-1 {
        fill: #fffffc;
      }

      .cls-2 {
        fill: #ffa627;
      }

      .cls-3 {
        opacity: .5;
      }

      .cls-4 {
        opacity: .7;
      }
    </style>
  </defs>
  <g id="Layer_25" data-name="Layer 25">
    <g class="cls-3">
      <path d="M65.09,53.46c0,.11.02.21.03.32.01.15.03.3.05.45.01.11.03.23.05.34.02.14.04.29.07.43.02.12.05.23.07.35.03.14.06.27.1.41.03.12.06.23.1.35.04.13.08.27.12.4.04.11.08.23.12.34.05.13.1.26.15.39.04.11.09.22.14.34.05.13.11.25.17.38.05.11.1.22.16.33.06.13.13.25.2.37.06.1.11.21.18.31.07.12.15.25.23.37.06.1.12.2.19.3.08.13.17.25.26.37.06.09.13.18.19.27.06.08.13.16.19.24-.05-.1-.11-.2-.16-.3-.05-.11-.11-.22-.16-.33-.06-.13-.12-.25-.17-.38-.05-.11-.09-.22-.14-.34-.05-.13-.1-.26-.15-.39-.04-.11-.08-.23-.12-.34-.04-.13-.08-.27-.12-.4-.03-.12-.07-.23-.1-.35-.04-.14-.07-.27-.1-.41-.03-.12-.05-.23-.07-.35-.03-.14-.05-.28-.07-.43-.02-.11-.04-.23-.05-.34-.02-.15-.03-.3-.05-.45,0-.11-.02-.21-.03-.32-.01-.17-.02-.34-.02-.52,0-.09,0-.18,0-.26,0-.26,0-.52.02-.78,0-.05,0-.1.01-.14.01-.21.03-.43.06-.64.01-.1.03-.19.04-.28.02-.14.04-.29.07-.43.16-.03.31-.05.47-.07.08-.01.16-.03.24-.04.24-.03.47-.05.71-.06.03,0,.05,0,.08,0,.26-.02.52-.02.79-.02.08,0,.16,0,.23,0,.18,0,.36,0,.55.02.1,0,.2.02.3.03.16.01.32.03.48.05.11.01.21.03.32.05.15.02.3.05.45.08.11.02.22.05.33.07.14.03.29.06.43.1.11.03.22.06.33.09.14.04.28.08.42.13.11.04.22.07.32.11.14.05.27.1.41.15.11.04.21.08.32.13.14.06.27.12.4.18.1.05.2.1.3.15.13.07.27.14.4.21.1.05.19.11.29.16.13.08.26.16.39.24.09.06.18.11.27.17.13.09.26.19.4.28.08.06.16.12.24.18.14.11.28.23.42.34.06.05.13.1.19.16.2.17.39.35.58.54.19.19.37.38.54.58.06.07.12.14.18.22.04.05.08.1.13.16-.01-.02-.03-.05-.04-.07-.06-.1-.11-.21-.17-.31-.07-.12-.15-.25-.23-.37-.06-.1-.12-.2-.19-.29-.08-.13-.17-.25-.26-.37-.06-.09-.13-.18-.19-.27-.1-.13-.21-.26-.32-.39-.06-.07-.12-.15-.18-.22-.17-.2-.35-.39-.54-.58-.19-.19-.38-.37-.58-.54-.06-.05-.13-.11-.19-.16-.14-.12-.28-.23-.42-.34-.08-.06-.16-.12-.24-.18-.13-.1-.26-.19-.4-.28-.09-.06-.18-.12-.27-.17-.13-.08-.26-.17-.39-.24-.1-.06-.19-.11-.29-.16-.13-.07-.26-.14-.4-.21-.1-.05-.2-.1-.3-.15-.13-.06-.27-.12-.4-.18-.1-.04-.21-.09-.32-.13-.14-.05-.27-.11-.41-.15-.11-.04-.21-.08-.32-.11-.14-.05-.28-.09-.42-.13-.11-.03-.22-.06-.33-.09-.14-.04-.29-.07-.43-.1-.11-.02-.22-.05-.33-.07-.15-.03-.3-.05-.45-.08-.11-.02-.21-.04-.32-.05-.16-.02-.32-.03-.48-.05-.1,0-.2-.02-.3-.03-.18-.01-.36-.02-.55-.02-.08,0-.16,0-.24,0-.26,0-.52,0-.79.02-.03,0-.05,0-.08,0-.24.02-.47.04-.71.06-.08,0-.16.02-.24.04-.16.02-.31.05-.47.07-.03.14-.05.29-.07.43-.01.1-.03.19-.04.28-.03.21-.04.43-.06.64,0,.05-.01.1-.01.14-.01.26-.02.52-.02.78,0,.09,0,.18,0,.26,0,.17,0,.34.02.52ZM91.13,44.91c3.39,5.98,2.55,13.71-2.54,18.8-1.73,1.73-3.85,3.03-6.18,3.79v.04s-.04,0-.04,0c-.76,2.33-2.06,4.45-3.79,6.18-3.06,3.05-7.07,4.58-11.08,4.58s-8.02-1.53-11.08-4.58c-.47-.47-.9-.96-1.3-1.48.69,1.23,1.55,2.37,2.58,3.4,3.05,3.05,7.07,4.58,11.08,4.58s8.02-1.53,11.08-4.58c1.73-1.73,3.02-3.85,3.79-6.18h.04s0-.04,0-.04c2.33-.76,4.45-2.06,6.18-3.79,5.65-5.65,6.06-14.58,1.26-20.72ZM76.32,71.47c.94-.94,1.72-2.03,2.32-3.22-.02,0-.04,0-.06,0-.08,0-.17,0-.25.01-.23.01-.46.02-.7.02-.03,0-.07,0-.1,0-.09,0-.18,0-.27,0-.14,0-.28,0-.42-.01-.11,0-.23-.01-.34-.02-.15-.01-.31-.02-.46-.03-.09,0-.18-.02-.28-.03-.63-.07-1.26-.18-1.88-.33-.05-.01-.1-.02-.15-.03-.16-.04-.33-.09-.49-.13-.09-.03-.19-.05-.28-.08-.15-.04-.29-.09-.44-.14-.11-.04-.21-.07-.32-.11-.14-.05-.27-.1-.41-.16-.11-.04-.23-.09-.34-.14-.13-.05-.26-.11-.38-.17-.12-.05-.24-.11-.35-.16-.12-.06-.24-.12-.36-.18-.12-.06-.24-.12-.36-.19-.11-.06-.23-.13-.34-.19-.12-.07-.24-.14-.36-.22-.11-.07-.21-.13-.32-.2-.12-.08-.25-.16-.37-.25-.1-.07-.2-.14-.29-.21-.13-.09-.25-.19-.38-.29-.09-.07-.18-.13-.26-.2-.14-.11-.27-.23-.41-.35-.07-.06-.14-.12-.21-.18-.2-.18-.4-.37-.59-.56-.23-.23-.44-.46-.65-.7-.07-.08-.13-.15-.2-.23-.14-.17-.28-.33-.41-.5-.07-.09-.14-.18-.21-.28-.12-.17-.24-.33-.36-.51-.06-.09-.13-.19-.19-.28-.12-.19-.24-.38-.36-.58-.04-.07-.09-.15-.13-.22-.15-.27-.3-.55-.44-.82-.03-.05-.05-.11-.08-.17-.11-.23-.21-.45-.31-.69-.04-.1-.08-.2-.12-.3-.08-.19-.15-.38-.22-.58-.04-.11-.08-.22-.11-.33-.06-.2-.12-.39-.18-.59-.03-.1-.06-.21-.09-.31-.06-.24-.12-.47-.17-.71-.01-.07-.03-.13-.04-.2-.06-.3-.11-.61-.15-.92-.01-.09-.02-.18-.03-.26-.03-.22-.05-.44-.07-.67,0-.11-.02-.23-.02-.34-.01-.2-.02-.4-.02-.61,0-.12,0-.23,0-.35,0-.21,0-.42.02-.63,0-.1,0-.21.01-.31,0-.03,0-.07,0-.1-1.19.59-2.28,1.38-3.22,2.32-2.36,2.36-3.65,5.49-3.65,8.82s1.3,6.46,3.65,8.82c4.86,4.86,12.77,4.86,17.63,0Z"/>
      <path class="cls-2" d="M91.13,44.91c-.68-1.2-1.52-2.34-2.54-3.36-6.11-6.11-16.05-6.11-22.16,0-1.73,1.73-3.03,3.85-3.79,6.18h-.04s0,.04,0,.04c-2.33.76-4.45,2.06-6.18,3.79-2.96,2.96-4.59,6.89-4.59,11.08,0,3.52,1.16,6.87,3.29,9.6.4.51.83,1.01,1.3,1.48,3.05,3.05,7.07,4.58,11.08,4.58s8.02-1.53,11.08-4.58c1.73-1.73,3.02-3.85,3.79-6.18h.04s0-.04,0-.04c2.33-.76,4.45-2.06,6.18-3.79,5.09-5.09,5.92-12.82,2.54-18.8ZM58.68,71.47c-2.36-2.36-3.65-5.49-3.65-8.82s1.3-6.46,3.65-8.82c.94-.94,2.03-1.72,3.22-2.32,0,.03,0,.07,0,.1,0,.1,0,.21-.01.31,0,.21-.02.42-.02.63,0,.12,0,.23,0,.35,0,.2.01.41.02.61,0,.11.01.23.02.34.02.22.04.45.07.67.01.09.02.18.03.26.04.31.09.61.15.92.01.07.03.13.04.2.05.24.11.48.17.71.03.11.06.21.09.31.06.2.12.39.18.59.04.11.07.22.11.33.07.19.14.39.22.58.04.1.08.2.12.3.1.23.2.46.31.69.03.06.05.11.08.17.14.28.28.55.44.82.04.08.09.15.13.22.12.2.23.39.36.58.06.09.13.19.19.28.12.17.24.34.36.51.07.09.14.18.21.28.13.17.27.34.41.5.07.08.13.16.2.23.21.24.43.47.65.7.19.19.39.38.59.56.07.06.14.12.21.18.14.12.27.23.41.35.09.07.18.14.26.2.13.1.25.19.38.29.1.07.2.14.29.21.12.08.24.17.37.25.11.07.21.13.32.2.12.07.24.15.36.22.11.07.23.13.34.19.12.06.24.13.36.19.12.06.24.12.36.18.12.06.23.11.35.16.13.06.26.11.38.17.11.05.23.09.34.14.14.05.27.11.41.16.11.04.21.07.32.11.15.05.29.1.44.14.09.03.19.05.28.08.16.05.33.09.49.13.05.01.1.02.15.03.62.15,1.25.26,1.88.33.09.01.18.02.28.03.15.01.31.02.46.03.11,0,.23.02.34.02.14,0,.28,0,.42.01.09,0,.18,0,.27,0,.03,0,.07,0,.1,0,.23,0,.46-.01.7-.02.08,0,.17,0,.25-.01.02,0,.04,0,.06,0-.59,1.19-1.38,2.28-2.32,3.22-4.86,4.86-12.77,4.86-17.63,0ZM78.45,56.71c.05.1.11.2.16.3.05.11.11.22.16.33.06.13.12.25.17.38.05.11.09.22.14.34.05.13.1.26.15.39.04.11.08.23.12.35.04.13.08.26.12.4.03.12.07.23.1.35.03.14.07.27.1.41.03.12.05.23.07.35.03.14.05.28.07.42.02.11.04.23.05.34.02.15.03.3.05.45,0,.11.02.22.03.33.01.17.02.34.02.51,0,.09,0,.18,0,.27,0,.26,0,.52-.02.78,0,.05-.01.1-.01.16-.01.21-.03.42-.06.63-.01.1-.03.19-.04.29-.02.14-.04.28-.07.43-.14.03-.29.05-.43.07-.09.01-.19.03-.28.04-.18.02-.35.03-.53.05-.14.01-.27.02-.41.03-.2,0-.41.02-.61.02-.13,0-.26,0-.39-.01-.13,0-.26,0-.39-.01-.14,0-.27-.02-.41-.04-.12-.01-.25-.02-.37-.04-.14-.02-.27-.04-.4-.06-.12-.02-.24-.04-.36-.06-.13-.03-.26-.06-.4-.08-.12-.03-.24-.05-.36-.09-.13-.03-.26-.07-.38-.11-.12-.04-.24-.07-.36-.11-.12-.04-.25-.08-.37-.13-.12-.04-.24-.09-.36-.14-.12-.05-.24-.1-.36-.15-.12-.05-.24-.11-.36-.16-.11-.05-.23-.11-.34-.16-.12-.06-.24-.13-.36-.19-.11-.06-.21-.12-.32-.18-.12-.07-.25-.15-.37-.23-.1-.06-.2-.12-.29-.19-.13-.09-.25-.18-.38-.27-.09-.06-.17-.12-.26-.19-.14-.11-.27-.22-.4-.33-.07-.06-.14-.11-.21-.17-.2-.17-.39-.35-.58-.54-.19-.19-.37-.38-.54-.58-.06-.07-.12-.14-.18-.21-.04-.05-.09-.11-.13-.16-.06-.08-.13-.16-.19-.24-.07-.09-.13-.18-.19-.27-.09-.12-.18-.24-.26-.37-.07-.1-.13-.2-.19-.3-.08-.12-.15-.24-.23-.37-.06-.1-.12-.21-.18-.31-.07-.12-.13-.25-.2-.37-.05-.11-.11-.22-.16-.33-.06-.13-.12-.25-.17-.38-.05-.11-.09-.22-.14-.34-.05-.13-.1-.26-.15-.39-.04-.11-.08-.23-.12-.34-.04-.13-.08-.27-.12-.4-.03-.12-.07-.23-.1-.35-.03-.14-.07-.27-.1-.41-.03-.12-.05-.23-.07-.35-.03-.14-.05-.28-.07-.43-.02-.11-.04-.23-.05-.34-.02-.15-.03-.3-.05-.45,0-.11-.02-.21-.03-.32-.01-.17-.02-.34-.02-.52,0-.09,0-.18,0-.26,0-.26,0-.52.02-.78,0-.05,0-.1.01-.14.01-.21.03-.43.06-.64.01-.1.03-.19.04-.28.02-.14.04-.29.07-.43.16-.03.31-.05.47-.07.08-.01.16-.03.24-.04.24-.03.47-.05.71-.06.03,0,.05,0,.08,0,.26-.02.52-.02.79-.02.08,0,.16,0,.24,0,.18,0,.36,0,.55.02.1,0,.2.02.3.03.16.01.32.03.48.05.11.01.21.03.32.05.15.02.3.05.45.08.11.02.22.05.33.07.14.03.29.06.43.1.11.03.22.06.33.09.14.04.28.08.42.13.11.04.22.07.32.11.14.05.28.1.41.15.11.04.21.08.32.13.14.06.27.12.4.18.1.05.2.1.3.15.13.07.27.14.4.21.1.05.19.11.29.16.13.08.26.16.39.24.09.06.18.11.27.17.13.09.26.19.4.28.08.06.16.12.24.18.14.11.28.23.42.34.06.05.13.1.19.16.2.17.39.35.58.54.19.19.37.38.54.58.06.07.12.14.18.22.11.13.22.26.32.39.07.09.13.18.19.27.09.12.18.25.26.37.07.1.13.2.19.29.08.12.15.24.23.37.06.1.12.21.17.31.01.02.03.05.04.07ZM83.11,63.77s0-.07,0-.11c0-.09,0-.18.01-.27.01-.22.02-.45.02-.67,0-.11,0-.22,0-.32,0-.21-.01-.43-.02-.64,0-.11-.01-.21-.02-.32-.02-.23-.04-.47-.07-.7,0-.08-.02-.16-.03-.24-.04-.31-.09-.62-.16-.92-.01-.06-.03-.12-.04-.17-.05-.25-.11-.49-.17-.74-.03-.1-.06-.2-.09-.31-.06-.2-.12-.4-.18-.6-.04-.11-.07-.22-.11-.32-.07-.2-.14-.39-.22-.58-.04-.1-.08-.2-.12-.3-.1-.23-.2-.46-.31-.68-.03-.06-.05-.11-.08-.17-.14-.28-.28-.55-.44-.82-.04-.08-.09-.15-.14-.23-.11-.19-.23-.39-.36-.58-.06-.09-.13-.19-.19-.28-.12-.17-.24-.34-.36-.5-.07-.09-.14-.18-.21-.28-.13-.17-.27-.34-.41-.51-.07-.08-.13-.15-.19-.23-.21-.24-.43-.47-.65-.7-.22-.22-.45-.43-.68-.64-.07-.06-.14-.12-.21-.18-.17-.15-.35-.29-.53-.43-.07-.06-.15-.12-.22-.17-.23-.17-.46-.34-.7-.5-.02-.01-.04-.03-.05-.04-.26-.17-.52-.33-.78-.48-.07-.04-.15-.08-.22-.13-.2-.11-.4-.22-.61-.32-.08-.04-.16-.08-.24-.12-.24-.12-.49-.23-.74-.33-.03-.01-.06-.03-.1-.04-.28-.12-.57-.22-.86-.32-.08-.03-.15-.05-.23-.07-.22-.07-.44-.14-.66-.2-.09-.02-.17-.05-.26-.07-.25-.07-.5-.13-.76-.18-.05,0-.09-.02-.14-.03-.3-.06-.6-.11-.91-.15-.07-.01-.15-.02-.22-.03-.23-.03-.47-.05-.7-.07-.09,0-.19-.01-.28-.02-.25-.02-.5-.03-.75-.03-.06,0-.12,0-.18,0-.02,0-.04,0-.06,0-.11,0-.23,0-.34.01-.22,0-.45,0-.67.02-.03,0-.06,0-.09,0,.59-1.19,1.38-2.28,2.32-3.22,4.86-4.86,12.77-4.86,17.63,0,4.86,4.86,4.86,12.77,0,17.63-.94.94-2.03,1.72-3.22,2.32Z"/>
      <path class="cls-1" d="M67.14,47.01c.11,0,.23-.01.34-.01.02,0,.04,0,.06,0,.06,0,.12,0,.18,0,.25,0,.5.01.75.03.09,0,.19.01.28.02.23.02.47.04.7.07.07,0,.15.02.22.03.3.04.61.09.91.15.05,0,.09.02.14.03.25.05.51.11.76.18.09.02.17.05.26.07.22.06.44.13.66.2.08.02.15.05.23.07.29.1.58.21.86.32.03.01.06.03.1.04.25.1.5.22.74.33.08.04.16.08.24.12.2.1.41.21.61.32.07.04.15.08.22.13.27.15.53.31.78.48.02.01.04.03.05.04.24.16.47.32.7.5.07.06.15.11.22.17.18.14.35.28.53.43.07.06.14.12.21.18.23.21.46.42.68.64.23.23.44.46.65.7.07.08.13.15.19.23.14.17.28.33.41.51.07.09.14.18.21.28.12.17.24.33.36.5.06.09.13.19.19.28.12.19.24.38.36.58.05.08.09.15.14.23.15.27.3.55.44.82.03.06.05.11.08.17.11.23.21.45.31.68.04.1.08.2.12.3.08.19.15.39.22.58.04.11.07.22.11.32.06.2.12.4.18.6.03.1.06.2.09.31.06.24.12.49.17.74.01.06.03.12.04.17.06.31.11.61.16.92.01.08.02.16.03.24.03.23.05.46.07.7,0,.11.01.21.02.32.01.21.02.42.02.64,0,.11,0,.22,0,.32,0,.22,0,.45-.02.67,0,.09,0,.18-.01.27,0,.04,0,.07,0,.11,1.19-.59,2.28-1.38,3.22-2.32,4.86-4.86,4.86-12.77,0-17.63-4.86-4.86-12.77-4.86-17.63,0-.94.94-1.72,2.03-2.32,3.22.03,0,.06,0,.09,0,.22-.01.45-.02.67-.02Z"/>
    </g>
  </g>
  <g id="icons_50" data-name="icons 50">
    <g class="cls-4">
      <path d="M51.08,49.17c0,.13.02.27.04.4.02.19.03.38.06.57.02.14.04.28.07.43.03.18.06.36.09.53.03.15.06.29.09.43.04.17.08.34.12.51.04.15.08.29.12.43.05.17.1.33.15.5.05.14.1.29.15.43.06.16.12.33.18.49.06.14.11.28.17.42.07.16.14.32.21.48.06.14.13.27.2.41.08.16.16.31.25.46.07.13.14.26.22.39.09.15.19.31.28.46.08.12.15.25.24.37.11.16.22.31.33.46.08.11.16.22.24.33.08.1.16.2.24.3-.07-.12-.13-.25-.2-.37-.07-.13-.13-.27-.2-.41-.07-.16-.15-.32-.21-.48-.06-.14-.12-.28-.17-.42-.06-.16-.12-.32-.18-.49-.05-.14-.1-.28-.15-.43-.05-.17-.1-.33-.15-.5-.04-.14-.08-.29-.12-.43-.04-.17-.08-.34-.12-.51-.03-.14-.07-.29-.09-.43-.03-.18-.06-.36-.09-.53-.02-.14-.05-.28-.07-.43-.02-.19-.04-.38-.06-.57-.01-.13-.03-.27-.04-.4-.01-.21-.02-.43-.02-.65,0-.11-.01-.22-.01-.33,0-.32,0-.65.03-.97,0-.06.01-.12.02-.18.02-.27.04-.53.07-.8.01-.12.04-.24.05-.36.03-.18.05-.36.08-.54.19-.04.39-.06.58-.09.1-.01.2-.03.3-.05.3-.04.59-.06.89-.08.03,0,.06,0,.09,0,.33-.02.66-.03.98-.03.1,0,.2,0,.29,0,.23,0,.46.01.68.03.13,0,.25.02.37.03.2.02.4.04.6.06.13.02.27.04.4.06.19.03.37.06.56.09.14.03.27.06.41.09.18.04.36.08.54.13.14.04.27.07.41.11.18.05.35.1.53.16.14.04.27.09.4.14.17.06.34.13.51.19.13.05.26.11.39.16.17.07.34.15.5.23.13.06.25.12.38.18.17.08.33.17.5.26.12.07.24.13.36.2.17.1.33.2.49.3.11.07.23.14.34.22.17.11.33.23.49.35.1.07.2.14.3.22.18.14.35.28.52.43.08.07.16.13.24.2.25.22.49.44.73.68.23.23.46.48.68.72.08.09.15.18.22.27.05.06.11.13.16.2-.02-.03-.03-.06-.05-.09-.07-.13-.14-.26-.22-.39-.09-.16-.19-.31-.28-.46-.08-.12-.15-.25-.23-.37-.11-.16-.22-.31-.33-.46-.08-.11-.16-.22-.24-.33-.13-.17-.27-.33-.4-.49-.08-.09-.15-.18-.22-.27-.22-.25-.44-.49-.68-.72-.24-.24-.48-.46-.73-.68-.08-.07-.16-.13-.24-.2-.17-.15-.35-.29-.52-.43-.1-.08-.2-.15-.3-.22-.16-.12-.33-.24-.49-.35-.11-.07-.23-.14-.34-.22-.16-.1-.33-.21-.49-.3-.12-.07-.24-.13-.36-.2-.16-.09-.33-.18-.5-.26-.13-.06-.25-.12-.38-.18-.17-.08-.33-.15-.5-.23-.13-.06-.26-.11-.39-.16-.17-.07-.34-.13-.51-.19-.13-.05-.27-.09-.4-.14-.17-.06-.35-.11-.53-.16-.14-.04-.27-.08-.41-.11-.18-.05-.36-.09-.54-.13-.14-.03-.27-.06-.41-.09-.19-.04-.37-.07-.56-.09-.13-.02-.27-.04-.4-.06-.2-.03-.4-.04-.6-.06-.12-.01-.25-.03-.37-.03-.23-.02-.45-.02-.68-.03-.1,0-.2,0-.29,0-.33,0-.65,0-.98.03-.03,0-.06,0-.09,0-.3.02-.59.05-.89.08-.1.01-.2.03-.3.05-.19.03-.39.06-.58.09-.03.18-.06.36-.08.54-.02.12-.04.24-.05.36-.03.27-.05.53-.07.8,0,.06-.01.12-.02.18-.02.33-.03.65-.03.97,0,.11,0,.22.01.33,0,.22.01.43.02.65ZM83.63,38.49c4.23,7.47,3.19,17.14-3.17,23.5-2.16,2.16-4.82,3.78-7.73,4.74v.04s-.06.01-.06.01c-.95,2.91-2.58,5.57-4.74,7.73-3.82,3.82-8.83,5.73-13.85,5.73s-10.03-1.91-13.85-5.73c-.59-.59-1.12-1.2-1.62-1.85.87,1.54,1.94,2.97,3.23,4.25,3.82,3.82,8.83,5.73,13.85,5.73s10.03-1.91,13.85-5.73c2.16-2.16,3.78-4.81,4.74-7.73h.04s.01-.06.01-.06c2.91-.95,5.57-2.58,7.73-4.74,7.06-7.06,7.58-18.22,1.57-25.9ZM65.11,71.68c1.18-1.18,2.15-2.54,2.9-4.02-.02,0-.05,0-.07,0-.1,0-.21,0-.31.01-.29.01-.58.03-.87.03-.04,0-.08,0-.12,0-.11,0-.23,0-.34,0-.18,0-.35,0-.53-.01-.14,0-.29-.02-.43-.03-.19-.01-.39-.02-.58-.04-.12-.01-.23-.03-.34-.04-.79-.09-1.58-.23-2.35-.41-.06-.01-.12-.03-.18-.04-.21-.05-.41-.11-.61-.17-.12-.03-.23-.06-.35-.1-.18-.06-.37-.12-.55-.18-.13-.04-.27-.09-.4-.14-.17-.06-.34-.13-.51-.2-.14-.06-.28-.11-.43-.17-.16-.07-.32-.14-.48-.21-.15-.07-.29-.13-.44-.2-.15-.07-.3-.15-.45-.23-.15-.08-.3-.16-.45-.24-.14-.08-.29-.16-.43-.24-.15-.09-.3-.18-.45-.27-.13-.08-.27-.16-.4-.25-.16-.1-.31-.21-.46-.31-.12-.09-.25-.17-.37-.26-.16-.12-.32-.24-.47-.36-.11-.08-.22-.17-.33-.26-.17-.14-.34-.29-.51-.43-.09-.08-.18-.15-.26-.22-.25-.23-.5-.46-.74-.7-.28-.28-.55-.57-.81-.87-.08-.09-.16-.19-.24-.29-.18-.21-.35-.42-.52-.63-.09-.11-.18-.23-.26-.34-.15-.21-.3-.42-.45-.63-.08-.12-.16-.23-.24-.35-.16-.24-.3-.48-.45-.72-.06-.09-.11-.19-.17-.28-.19-.34-.38-.68-.55-1.03-.03-.07-.06-.14-.1-.21-.14-.28-.27-.57-.39-.86-.05-.12-.1-.25-.15-.38-.1-.24-.19-.48-.27-.72-.05-.14-.09-.27-.14-.41-.08-.24-.15-.49-.22-.74-.04-.13-.08-.26-.11-.39-.08-.3-.15-.59-.21-.89-.02-.08-.04-.16-.06-.25-.08-.38-.14-.76-.19-1.14-.02-.11-.03-.22-.04-.33-.03-.28-.06-.56-.09-.84-.01-.14-.02-.29-.03-.43-.01-.25-.02-.51-.03-.76,0-.15,0-.29,0-.44,0-.26,0-.53.02-.79,0-.13,0-.26.02-.39,0-.04,0-.08,0-.13-1.49.74-2.85,1.72-4.02,2.9-2.94,2.94-4.56,6.86-4.56,11.02s1.62,8.08,4.56,11.02c6.08,6.08,15.96,6.08,22.04,0Z"/>
      <path class="cls-2" d="M83.63,38.49c-.85-1.5-1.89-2.92-3.17-4.2-7.64-7.64-20.06-7.63-27.7,0-2.16,2.16-3.78,4.81-4.74,7.73h-.04s-.01.06-.01.06c-2.91.96-5.57,2.58-7.73,4.74-3.7,3.7-5.74,8.62-5.74,13.85,0,4.4,1.45,8.58,4.11,12,.5.64,1.04,1.26,1.62,1.85,3.82,3.82,8.83,5.73,13.85,5.73s10.03-1.91,13.85-5.73c2.16-2.16,3.78-4.81,4.74-7.73h.04s.01-.06.01-.06c2.91-.95,5.57-2.58,7.73-4.74,6.36-6.36,7.4-16.03,3.17-23.5ZM43.07,71.68c-2.94-2.94-4.56-6.86-4.56-11.02s1.62-8.08,4.56-11.02c1.18-1.18,2.54-2.15,4.02-2.9,0,.04,0,.08,0,.13,0,.13-.01.26-.02.39-.01.26-.02.53-.02.79,0,.15,0,.29,0,.44,0,.25.02.51.03.76,0,.14.02.29.03.43.02.28.05.56.09.84.01.11.02.22.04.33.05.38.12.77.19,1.14.02.08.04.16.06.25.06.3.13.6.21.89.03.13.07.26.11.39.07.25.14.49.22.74.04.14.09.27.14.41.09.24.18.48.27.72.05.13.1.25.15.38.12.29.25.57.39.86.03.07.06.14.1.21.17.35.36.69.55,1.03.05.09.11.19.17.28.14.24.29.49.45.72.08.12.16.23.24.35.15.21.3.42.45.63.09.12.17.23.26.34.17.21.34.42.52.63.08.1.16.19.24.29.26.3.53.59.81.87.24.24.49.48.74.7.09.08.17.15.26.22.17.15.34.29.51.43.11.09.22.17.33.26.16.12.31.24.47.36.12.09.25.17.37.26.15.11.31.21.46.31.13.09.27.17.4.25.15.09.3.18.45.27.14.08.28.16.43.24.15.08.3.16.45.24.15.08.3.15.45.23.15.07.29.14.44.2.16.07.32.14.48.21.14.06.28.11.43.17.17.07.34.13.51.2.13.05.27.09.4.14.18.06.37.12.55.18.12.04.23.07.35.1.2.06.41.12.61.17.06.02.12.03.18.04.77.18,1.56.32,2.35.41.12.01.23.03.34.04.19.02.39.03.58.04.14,0,.29.02.43.03.18,0,.35.01.53.01.11,0,.23,0,.34,0,.04,0,.08,0,.12,0,.29,0,.58-.01.87-.03.1,0,.21,0,.31-.01.02,0,.05,0,.07,0-.74,1.49-1.72,2.85-2.9,4.02-6.08,6.08-15.96,6.08-22.04,0ZM67.77,53.23c.07.12.14.25.2.38.07.14.13.27.2.41.07.16.15.31.21.47.06.14.12.28.17.42.06.16.12.32.18.48.05.14.1.29.15.43.05.16.1.33.15.5.04.14.08.29.12.44.04.17.08.34.12.51.03.14.07.29.09.44.03.18.06.35.09.53.02.14.05.29.07.43.02.19.04.37.06.56.01.14.03.27.04.41.01.21.02.42.02.63,0,.11.01.23.01.34,0,.32,0,.65-.03.97,0,.07-.01.13-.02.2-.02.26-.04.52-.07.78-.01.12-.04.24-.05.36-.03.18-.05.36-.08.53-.18.03-.36.06-.54.09-.12.02-.23.04-.35.05-.22.03-.44.04-.66.06-.17.01-.34.03-.51.03-.25.01-.51.02-.76.02-.16,0-.33-.01-.49-.02-.16,0-.32,0-.48-.02-.17-.01-.34-.03-.51-.05-.15-.02-.31-.03-.46-.05-.17-.02-.34-.05-.5-.08-.15-.02-.3-.05-.45-.08-.17-.03-.33-.07-.49-.11-.15-.03-.3-.07-.45-.11-.16-.04-.32-.09-.48-.13-.15-.04-.3-.09-.45-.14-.16-.05-.31-.1-.46-.16-.15-.05-.3-.11-.45-.17-.15-.06-.3-.12-.45-.18-.15-.07-.3-.13-.46-.21-.14-.07-.28-.13-.42-.2-.15-.08-.3-.16-.46-.24-.13-.07-.27-.15-.4-.22-.15-.09-.31-.19-.46-.28-.12-.08-.25-.15-.37-.23-.16-.11-.31-.22-.47-.33-.11-.08-.22-.16-.32-.24-.17-.13-.34-.27-.5-.41-.09-.07-.17-.14-.26-.21-.25-.22-.49-.44-.72-.68-.23-.23-.46-.48-.68-.72-.08-.09-.15-.18-.22-.27-.06-.07-.11-.13-.16-.2-.08-.1-.16-.2-.24-.3-.08-.11-.16-.22-.24-.33-.11-.15-.22-.31-.33-.46-.08-.12-.16-.25-.24-.37-.1-.15-.19-.3-.28-.46-.08-.13-.15-.26-.22-.39-.08-.15-.17-.31-.25-.46-.07-.13-.13-.27-.2-.41-.07-.16-.15-.32-.21-.48-.06-.14-.12-.28-.17-.42-.06-.16-.12-.32-.18-.49-.05-.14-.1-.28-.15-.43-.05-.17-.1-.33-.15-.5-.04-.14-.08-.29-.12-.43-.04-.17-.08-.34-.12-.51-.03-.14-.07-.29-.09-.43-.03-.18-.06-.36-.09-.53-.02-.14-.05-.28-.07-.43-.02-.19-.04-.38-.06-.57-.01-.13-.03-.27-.04-.4-.01-.21-.02-.43-.02-.65,0-.11-.01-.22-.01-.33,0-.32,0-.65.03-.97,0-.06.01-.12.02-.18.02-.27.04-.53.07-.8.01-.12.04-.24.05-.36.03-.18.05-.36.08-.54.19-.04.39-.06.58-.09.1-.01.2-.03.3-.05.3-.04.59-.06.89-.08.03,0,.06,0,.09,0,.33-.02.66-.03.98-.03.1,0,.2,0,.29,0,.23,0,.46.01.68.03.13,0,.25.02.37.03.2.02.4.04.6.06.13.02.27.04.4.06.19.03.37.06.56.09.14.03.27.06.41.09.18.04.36.08.54.13.14.04.27.07.41.11.18.05.35.1.53.16.14.04.27.09.4.14.17.06.34.13.51.19.13.05.26.11.39.16.17.07.34.15.5.23.13.06.25.12.38.18.17.08.33.17.5.26.12.07.24.13.36.2.17.1.33.2.49.3.11.07.23.14.34.22.17.11.33.23.49.35.1.07.2.14.3.22.18.14.35.28.52.43.08.07.16.13.24.2.25.22.49.44.73.68.23.23.46.48.68.72.08.09.15.18.22.27.14.16.27.32.4.49.08.11.16.22.24.33.11.15.22.31.33.46.08.12.16.24.23.37.1.15.19.31.28.46.08.13.15.26.22.39.02.03.03.06.05.09ZM73.61,62.06s0-.09,0-.14c0-.11,0-.23.01-.34.01-.28.02-.56.02-.84,0-.14,0-.27,0-.41,0-.27-.02-.53-.03-.8,0-.13-.01-.27-.03-.4-.02-.29-.05-.58-.09-.87-.01-.1-.02-.2-.03-.3-.05-.39-.12-.77-.2-1.16-.01-.07-.03-.14-.05-.22-.07-.31-.14-.61-.22-.92-.03-.13-.07-.26-.11-.38-.07-.25-.15-.5-.23-.75-.04-.14-.09-.27-.14-.41-.09-.24-.18-.49-.27-.73-.05-.12-.1-.25-.15-.37-.12-.29-.25-.57-.39-.85-.03-.07-.06-.14-.1-.21-.17-.35-.35-.69-.55-1.03-.05-.1-.11-.19-.17-.28-.14-.24-.29-.48-.45-.72-.08-.12-.16-.23-.24-.35-.15-.21-.3-.42-.45-.63-.09-.12-.17-.23-.26-.34-.17-.21-.34-.42-.52-.63-.08-.1-.16-.19-.24-.29-.26-.3-.53-.59-.82-.87-.28-.28-.56-.54-.85-.8-.09-.08-.18-.15-.26-.23-.22-.18-.44-.36-.66-.54-.09-.07-.18-.14-.28-.21-.29-.21-.58-.42-.87-.62-.02-.02-.04-.03-.07-.05-.32-.21-.65-.41-.98-.61-.09-.05-.19-.1-.28-.16-.25-.14-.5-.27-.76-.4-.1-.05-.2-.1-.31-.15-.3-.15-.61-.29-.92-.42-.04-.02-.08-.04-.12-.05-.35-.15-.71-.28-1.07-.4-.09-.03-.19-.06-.28-.09-.28-.09-.55-.17-.83-.25-.11-.03-.22-.06-.33-.09-.31-.08-.63-.16-.95-.22-.06-.01-.11-.03-.17-.04-.38-.08-.75-.14-1.13-.19-.09-.01-.19-.02-.28-.03-.29-.04-.58-.07-.88-.09-.12,0-.23-.02-.35-.03-.31-.02-.62-.03-.93-.04-.08,0-.15,0-.23,0-.03,0-.05,0-.08,0-.14,0-.29.01-.43.02-.28,0-.56.01-.83.03-.04,0-.08,0-.11,0,.74-1.49,1.72-2.85,2.9-4.02,6.08-6.08,15.97-6.07,22.04,0,6.08,6.08,6.08,15.96,0,22.04-1.18,1.18-2.54,2.15-4.02,2.9Z"/>
      <path class="cls-1" d="M53.64,41.11c.14,0,.29-.02.43-.02.03,0,.05,0,.08,0,.08,0,.15,0,.23,0,.31,0,.62.02.93.04.12,0,.23.02.35.03.29.02.59.05.88.09.09.01.19.02.28.03.38.05.76.12,1.13.19.06.01.11.03.17.04.32.07.63.14.95.22.11.03.22.06.33.09.28.08.56.16.83.25.09.03.19.06.28.09.36.12.72.26,1.07.4.04.02.08.04.12.05.31.13.62.27.92.42.1.05.2.1.31.15.26.13.51.26.76.4.09.05.19.1.28.16.33.19.66.39.98.61.02.02.04.03.07.05.3.2.59.41.87.62.09.07.18.14.28.21.22.17.44.35.66.54.09.08.18.15.26.23.29.26.58.52.85.8.28.28.55.57.82.87.08.09.16.19.24.29.18.21.35.42.52.63.09.11.18.23.26.34.15.21.3.42.45.63.08.12.16.23.24.35.15.24.3.48.45.72.06.1.12.19.17.28.19.34.38.68.55,1.03.03.07.06.14.1.21.13.28.26.57.39.85.05.12.1.25.15.37.1.24.19.48.27.73.05.13.09.27.14.41.08.25.16.5.23.75.04.13.07.25.11.38.08.3.15.61.22.92.02.07.03.14.05.22.08.38.14.77.2,1.16.01.1.02.2.03.3.04.29.07.58.09.87.01.13.02.27.03.4.02.27.03.53.03.8,0,.14,0,.27,0,.41,0,.28,0,.56-.02.84,0,.11,0,.23-.01.34,0,.05,0,.09,0,.14,1.49-.74,2.85-1.72,4.02-2.9,6.08-6.08,6.08-15.96,0-22.04-6.08-6.07-15.96-6.08-22.04,0-1.18,1.18-2.15,2.54-2.9,4.02.04,0,.07,0,.11,0,.28-.02.56-.02.83-.03Z"/>
    </g>
  </g>
  <g id="Layer_5" data-name="Layer 5">
    <g>
      <path d="M32.57,43.57c.01.17.03.33.05.5.02.24.04.47.07.71.02.18.05.35.08.53.04.22.07.45.11.67.04.18.08.36.12.54.05.21.1.43.15.64.05.18.1.36.15.54.06.21.12.42.19.62.06.18.12.36.18.53.07.2.15.41.23.61.07.18.14.35.22.52.09.2.18.4.27.59.08.17.16.34.25.51.1.2.2.39.31.58.09.16.18.33.27.49.11.19.23.38.35.57.1.15.19.31.3.46.13.2.27.39.41.58.1.14.2.28.3.42.1.13.2.25.3.37-.08-.16-.17-.31-.25-.47-.09-.17-.17-.34-.25-.51-.09-.2-.18-.39-.27-.59-.07-.17-.15-.35-.22-.52-.08-.2-.16-.41-.23-.61-.06-.18-.12-.36-.18-.53-.07-.21-.13-.42-.19-.62-.05-.18-.1-.36-.15-.54-.05-.21-.1-.43-.15-.64-.04-.18-.08-.36-.12-.54-.04-.22-.08-.44-.11-.67-.03-.18-.06-.35-.08-.53-.03-.24-.05-.47-.07-.71-.02-.17-.04-.33-.05-.5-.02-.27-.02-.54-.03-.81,0-.14-.01-.28-.01-.41,0-.41,0-.81.03-1.22,0-.08.01-.15.02-.23.02-.33.05-.67.09-1,.02-.15.05-.3.07-.44.03-.22.07-.45.11-.67.24-.04.49-.08.73-.12.13-.02.25-.04.38-.06.37-.05.74-.08,1.11-.1.04,0,.08,0,.12-.01.41-.02.82-.03,1.23-.03.12,0,.24,0,.37.01.28,0,.57.01.85.03.16.01.31.03.47.04.25.02.5.04.74.08.17.02.34.05.5.08.23.04.47.07.7.12.17.03.34.07.51.11.23.05.45.1.67.16.17.04.34.09.51.14.22.06.44.13.66.2.17.05.34.11.5.17.22.08.43.16.64.24.17.07.33.13.49.2.21.09.42.19.63.28.16.07.32.15.47.23.21.11.42.22.62.33.15.08.3.16.45.25.21.12.41.25.62.38.14.09.28.18.42.27.21.14.41.29.62.44.13.09.25.18.38.28.22.17.44.35.65.53.1.08.2.16.3.25.31.27.61.55.91.85.29.29.57.6.85.9.1.11.19.23.28.34.07.08.13.16.2.24-.02-.04-.04-.08-.06-.11-.09-.16-.18-.33-.27-.49-.11-.19-.23-.39-.36-.58-.1-.15-.19-.31-.29-.46-.13-.2-.27-.39-.41-.58-.1-.14-.2-.28-.3-.42-.16-.21-.33-.41-.5-.61-.09-.11-.18-.23-.28-.34-.27-.31-.55-.61-.85-.9-.29-.29-.6-.58-.91-.85-.1-.09-.2-.17-.3-.25-.22-.18-.43-.36-.65-.53-.12-.1-.25-.18-.38-.28-.2-.15-.41-.3-.62-.44-.14-.09-.28-.18-.42-.27-.2-.13-.41-.26-.62-.38-.15-.09-.3-.17-.45-.25-.21-.11-.41-.22-.62-.33-.16-.08-.32-.15-.48-.23-.21-.1-.42-.19-.63-.28-.16-.07-.33-.14-.49-.2-.21-.08-.43-.16-.64-.24-.17-.06-.33-.12-.5-.17-.22-.07-.44-.14-.66-.2-.17-.05-.34-.1-.51-.14-.22-.06-.45-.11-.67-.16-.17-.04-.34-.08-.51-.11-.23-.04-.47-.08-.7-.12-.17-.03-.33-.06-.5-.08-.25-.03-.5-.05-.74-.08-.16-.01-.31-.03-.47-.04-.28-.02-.57-.03-.85-.03-.12,0-.24-.01-.37-.01-.41,0-.82,0-1.23.03-.04,0-.08,0-.12.01-.37.02-.74.06-1.11.1-.13.02-.25.04-.38.06-.24.03-.49.07-.73.12-.04.22-.07.45-.11.67-.02.15-.05.3-.07.44-.04.33-.07.67-.09,1,0,.08-.02.15-.02.23-.02.41-.03.81-.03,1.22,0,.14,0,.28.01.41,0,.27.01.54.03.81ZM73.25,30.21c5.29,9.34,3.98,21.43-3.96,29.38-2.7,2.7-6.02,4.73-9.66,5.92v.05s-.07.01-.07.01c-1.19,3.64-3.22,6.96-5.92,9.66-4.77,4.77-11.04,7.16-17.31,7.16s-12.54-2.39-17.31-7.16c-.73-.73-1.41-1.51-2.03-2.31,1.08,1.92,2.43,3.71,4.03,5.31,4.77,4.77,11.04,7.16,17.31,7.16s12.54-2.39,17.31-7.16c2.7-2.7,4.73-6.02,5.92-9.66h.05s.01-.07.01-.07c3.64-1.19,6.96-3.22,9.66-5.92,8.83-8.83,9.47-22.78,1.96-32.38ZM50.1,71.7c1.47-1.47,2.69-3.17,3.62-5.03-.03,0-.06,0-.09,0-.13,0-.26.01-.39.02-.36.02-.72.03-1.09.03-.05,0-.1,0-.15,0-.14,0-.28,0-.43-.01-.22,0-.44,0-.66-.02-.18,0-.36-.02-.54-.03-.24-.02-.48-.03-.72-.05-.14-.01-.29-.03-.43-.05-.99-.11-1.97-.28-2.94-.51-.08-.02-.15-.03-.23-.05-.26-.06-.51-.14-.77-.21-.15-.04-.29-.08-.44-.12-.23-.07-.46-.15-.69-.23-.17-.06-.34-.11-.5-.17-.21-.08-.43-.16-.64-.24-.18-.07-.36-.14-.53-.21-.2-.08-.4-.17-.6-.26-.18-.08-.37-.17-.55-.25-.19-.09-.38-.19-.57-.28-.19-.1-.37-.19-.56-.3-.18-.1-.36-.2-.53-.3-.19-.11-.38-.23-.57-.34-.17-.1-.33-.21-.5-.31-.19-.13-.39-.26-.58-.39-.15-.11-.31-.21-.46-.32-.2-.15-.4-.3-.59-.45-.14-.11-.28-.21-.41-.32-.22-.18-.43-.36-.64-.54-.11-.09-.22-.18-.33-.28-.32-.28-.63-.58-.93-.88-.35-.35-.69-.72-1.02-1.09-.1-.12-.2-.24-.31-.36-.22-.26-.44-.52-.64-.79-.11-.14-.22-.29-.33-.43-.19-.26-.38-.52-.56-.79-.1-.15-.2-.29-.29-.44-.19-.3-.38-.6-.56-.91-.07-.12-.14-.23-.21-.35-.24-.42-.47-.85-.68-1.29-.04-.09-.08-.17-.12-.26-.17-.35-.33-.71-.48-1.07-.07-.16-.13-.31-.19-.47-.12-.3-.23-.6-.34-.91-.06-.17-.12-.34-.17-.51-.1-.31-.19-.61-.28-.92-.05-.16-.09-.33-.14-.49-.1-.37-.18-.74-.26-1.12-.02-.1-.05-.2-.07-.31-.09-.47-.18-.95-.24-1.43-.02-.14-.03-.27-.05-.41-.04-.35-.08-.69-.11-1.04-.01-.18-.02-.36-.03-.54-.02-.32-.03-.63-.04-.95,0-.18,0-.37,0-.55,0-.33.01-.66.03-.99,0-.16.01-.33.02-.49,0-.05,0-.11,0-.16-1.86.93-3.56,2.15-5.03,3.62-3.68,3.68-5.71,8.57-5.71,13.78s2.03,10.1,5.71,13.78c7.6,7.59,19.95,7.59,27.55,0Z"/>
      <path class="cls-2" d="M73.25,30.21c-1.06-1.88-2.37-3.65-3.96-5.25-9.55-9.54-25.08-9.54-34.62,0-2.7,2.7-4.73,6.02-5.92,9.66h-.05s-.01.07-.01.07c-3.64,1.2-6.96,3.22-9.66,5.92-4.62,4.62-7.17,10.77-7.17,17.31,0,5.5,1.81,10.73,5.14,15,.63.8,1.3,1.58,2.03,2.31,4.77,4.77,11.04,7.16,17.31,7.16s12.54-2.39,17.31-7.16c2.7-2.7,4.73-6.02,5.92-9.66h.05s.01-.07.01-.07c3.64-1.19,6.96-3.22,9.66-5.92,7.95-7.95,9.25-20.04,3.96-29.38ZM22.55,71.7c-3.68-3.68-5.71-8.57-5.71-13.78s2.03-10.1,5.71-13.78c1.47-1.47,3.17-2.69,5.03-3.62,0,.05,0,.11,0,.16-.01.16-.01.33-.02.49-.01.33-.02.66-.03.99,0,.18,0,.37,0,.55,0,.32.02.63.04.95.01.18.02.36.03.54.03.35.07.7.11,1.04.02.14.03.28.05.41.07.48.15.96.24,1.43.02.1.05.2.07.31.08.37.17.75.26,1.12.04.16.09.33.14.49.09.31.18.62.28.92.06.17.11.34.17.51.11.3.22.61.34.91.06.16.12.31.19.47.15.36.31.72.48,1.07.04.09.08.17.12.26.21.44.44.87.68,1.29.07.12.14.23.21.35.18.31.37.61.56.91.1.15.2.29.29.44.18.27.37.53.56.79.11.14.22.29.33.43.21.27.42.53.64.79.1.12.2.24.31.36.33.37.67.74,1.02,1.09.3.3.61.6.93.88.11.1.22.19.33.28.21.18.42.37.64.54.14.11.27.21.41.32.2.15.39.3.59.45.15.11.31.22.46.32.19.13.38.26.58.39.16.11.33.21.5.31.19.12.38.23.57.34.18.1.36.2.53.3.18.1.37.2.56.3.19.1.38.19.57.28.18.09.37.17.55.25.2.09.4.18.6.26.18.07.35.14.53.21.21.08.43.17.64.24.17.06.33.11.5.17.23.08.46.15.69.23.15.04.29.08.44.12.25.07.51.15.77.21.08.02.15.03.23.05.97.23,1.95.4,2.94.51.14.02.29.04.43.05.24.02.48.04.72.05.18.01.36.03.54.03.22,0,.44.01.66.02.14,0,.28.01.43.01.05,0,.1,0,.15,0,.36,0,.72-.02,1.09-.03.13,0,.26,0,.39-.02.03,0,.06,0,.09,0-.93,1.86-2.15,3.56-3.62,5.03-7.6,7.59-19.96,7.59-27.55,0ZM53.43,48.64c.08.16.17.31.25.47.09.17.17.34.25.51.09.2.18.39.27.59.07.17.15.35.22.53.08.2.15.4.23.6.06.18.13.36.18.54.07.21.13.41.19.62.05.18.1.36.15.54.05.21.1.43.15.64.04.18.08.36.12.54.04.22.08.44.11.66.03.18.06.36.08.54.03.23.05.47.07.7.02.17.04.34.05.51.02.26.02.53.03.79,0,.14.01.28.01.43,0,.4,0,.81-.03,1.22,0,.08-.02.16-.02.25-.02.33-.05.65-.09.98-.02.15-.05.3-.07.45-.03.22-.07.44-.11.67-.23.04-.45.07-.68.11-.15.02-.29.05-.44.07-.28.03-.55.05-.83.08-.21.02-.43.03-.64.04-.32.01-.64.03-.95.02-.2,0-.41-.01-.61-.02-.2,0-.4-.01-.6-.02-.21-.01-.42-.04-.63-.06-.19-.02-.38-.03-.57-.06-.21-.03-.42-.06-.63-.1-.19-.03-.38-.06-.57-.1-.21-.04-.41-.09-.62-.13-.19-.04-.38-.09-.57-.13-.2-.05-.4-.11-.6-.17-.19-.05-.38-.11-.57-.17-.19-.06-.39-.13-.58-.2-.19-.07-.38-.14-.57-.21-.19-.07-.37-.15-.56-.23-.19-.08-.38-.17-.57-.26-.18-.08-.35-.17-.53-.25-.19-.1-.38-.2-.57-.3-.17-.09-.33-.18-.5-.28-.19-.11-.38-.23-.57-.35-.15-.1-.31-.19-.46-.29-.2-.13-.39-.28-.59-.42-.14-.1-.27-.19-.41-.3-.21-.17-.42-.34-.63-.52-.11-.09-.22-.17-.32-.27-.31-.27-.61-.55-.91-.85-.29-.29-.57-.6-.85-.91-.1-.11-.18-.22-.27-.33-.07-.08-.14-.17-.2-.25-.1-.12-.21-.24-.3-.37-.1-.14-.2-.28-.3-.42-.14-.19-.28-.38-.41-.58-.1-.15-.2-.31-.3-.46-.12-.19-.24-.38-.35-.57-.09-.16-.18-.33-.27-.49-.11-.19-.21-.38-.31-.58-.09-.17-.17-.34-.25-.51-.09-.2-.18-.39-.27-.59-.07-.17-.15-.35-.22-.52-.08-.2-.16-.41-.23-.61-.06-.18-.12-.36-.18-.53-.07-.21-.13-.42-.19-.62-.05-.18-.1-.36-.15-.54-.05-.21-.1-.43-.15-.64-.04-.18-.08-.36-.12-.54-.04-.22-.08-.44-.11-.67-.03-.18-.06-.35-.08-.53-.03-.24-.05-.47-.07-.71-.02-.17-.04-.33-.05-.5-.02-.27-.02-.54-.03-.81,0-.14-.01-.28-.01-.41,0-.41,0-.81.03-1.22,0-.08.01-.15.02-.23.02-.33.05-.67.09-1,.02-.15.05-.3.07-.44.03-.22.07-.45.11-.67.24-.04.49-.08.73-.12.13-.02.25-.04.38-.06.37-.05.74-.08,1.11-.1.04,0,.08,0,.12-.01.41-.02.82-.03,1.23-.03.12,0,.24,0,.37.01.28,0,.57.01.85.03.16.01.31.03.47.04.25.02.5.04.74.08.17.02.34.05.5.08.23.04.47.07.7.12.17.03.34.07.51.11.23.05.45.1.67.16.17.04.34.09.51.14.22.06.44.13.66.2.17.05.34.11.5.17.22.08.43.16.64.24.17.07.33.13.49.2.21.09.42.19.63.28.16.07.32.15.48.23.21.11.42.22.62.33.15.08.3.16.45.25.21.12.41.25.62.38.14.09.28.18.42.27.21.14.41.29.62.44.13.09.25.18.38.28.22.17.44.35.65.53.1.08.2.16.3.25.31.27.61.55.91.85.29.29.57.6.85.9.1.11.19.23.28.34.17.2.34.41.5.61.1.14.2.28.3.42.14.19.28.38.41.58.1.15.2.3.29.46.12.19.24.38.36.58.09.16.18.32.27.49.02.04.04.08.06.11ZM60.72,59.67c0-.06,0-.12,0-.17,0-.14.01-.29.02-.43.02-.35.03-.7.03-1.05,0-.17,0-.34,0-.51,0-.33-.02-.66-.04-1,0-.17-.02-.33-.03-.5-.03-.36-.07-.73-.11-1.09-.02-.12-.03-.25-.04-.37-.07-.48-.15-.97-.24-1.44-.02-.09-.04-.18-.06-.27-.08-.39-.17-.77-.27-1.15-.04-.16-.09-.32-.13-.48-.09-.31-.18-.62-.28-.93-.06-.17-.11-.34-.17-.51-.11-.31-.22-.61-.34-.91-.06-.16-.12-.31-.19-.47-.15-.36-.31-.72-.48-1.07-.04-.09-.08-.18-.12-.26-.21-.44-.44-.86-.68-1.29-.07-.12-.14-.24-.21-.36-.18-.3-.36-.6-.56-.9-.1-.15-.2-.29-.3-.44-.18-.27-.37-.53-.56-.79-.11-.14-.22-.29-.33-.43-.21-.27-.42-.53-.65-.79-.1-.12-.2-.24-.3-.36-.33-.37-.67-.74-1.02-1.09-.34-.34-.7-.67-1.06-1-.11-.1-.22-.19-.33-.28-.27-.23-.54-.45-.82-.67-.11-.09-.23-.18-.35-.27-.36-.27-.72-.53-1.09-.78-.03-.02-.06-.04-.08-.06-.4-.27-.81-.52-1.22-.76-.12-.07-.23-.13-.35-.2-.31-.17-.63-.34-.95-.5-.13-.06-.25-.13-.38-.19-.38-.18-.77-.36-1.16-.52-.05-.02-.1-.05-.15-.07-.44-.18-.89-.35-1.34-.5-.12-.04-.24-.08-.36-.12-.34-.11-.69-.22-1.04-.32-.14-.04-.27-.08-.41-.11-.39-.1-.79-.2-1.18-.28-.07-.02-.14-.03-.22-.05-.47-.09-.94-.17-1.42-.24-.12-.02-.23-.03-.35-.04-.36-.05-.73-.08-1.1-.11-.14-.01-.29-.02-.43-.03-.39-.02-.78-.04-1.16-.05-.09,0-.19,0-.28,0-.03,0-.07,0-.1,0-.18,0-.36.02-.54.02-.35,0-.7.01-1.04.04-.05,0-.09,0-.14,0,.93-1.86,2.15-3.56,3.62-5.03,7.6-7.59,19.96-7.59,27.55,0,7.59,7.6,7.59,19.96,0,27.55-1.47,1.47-3.17,2.69-5.03,3.62Z"/>
    </g>
    <path class="cls-1" d="M35.77,33.49c.18,0,.36-.02.54-.02.03,0,.07,0,.1,0,.09,0,.19,0,.28,0,.39,0,.78.02,1.16.05.14,0,.29.02.43.03.37.03.73.07,1.1.11.12.01.23.03.35.04.47.07.95.15,1.42.24.07.01.14.03.22.05.4.08.79.18,1.18.28.14.04.27.07.41.11.35.1.69.2,1.04.32.12.04.24.08.36.12.45.16.9.32,1.34.5.05.02.1.05.15.07.39.16.77.34,1.16.52.13.06.26.13.38.19.32.16.63.33.95.5.12.07.23.13.35.2.41.24.82.49,1.22.76.03.02.06.04.08.06.37.25.73.51,1.09.78.12.09.23.18.35.27.28.22.55.44.82.67.11.09.22.19.33.28.36.32.72.65,1.06,1,.35.35.69.72,1.02,1.09.1.12.2.24.3.36.22.26.44.52.65.79.11.14.22.29.33.43.19.26.38.52.56.79.1.15.2.29.3.44.19.3.38.6.56.9.07.12.14.24.21.36.24.42.47.85.68,1.29.04.09.08.18.12.26.17.35.33.71.48,1.07.07.16.12.31.19.47.12.3.23.6.34.91.06.17.12.34.17.51.1.31.2.62.28.93.05.16.09.32.13.48.1.38.19.76.27,1.15.02.09.04.18.06.27.1.48.18.96.24,1.44.02.12.03.25.04.37.04.36.08.73.11,1.09.01.17.02.33.03.5.02.33.03.66.04,1,0,.17,0,.34,0,.51,0,.35-.01.7-.03,1.05,0,.14,0,.29-.02.43,0,.06,0,.12,0,.17,1.86-.93,3.56-2.15,5.03-3.62,7.59-7.59,7.59-19.96,0-27.55-7.59-7.59-19.96-7.59-27.55,0-1.47,1.47-2.69,3.17-3.62,5.03.05,0,.09,0,.14,0,.35-.02.7-.03,1.04-.04Z"/>
  </g>
</svg>