<svg id="icons" xmlns="http://www.w3.org/2000/svg" viewBox="0 0 100 100"><defs><style>.cls-1{fill:#ed1e79;}.cls-2{fill:#fff;}.cls-3{fill:#999;}</style></defs><rect class="cls-1" x="6.78" y="39.06" width="5.9" height="5.9" rx="1.77"/><rect class="cls-2" x="15.03" y="39.06" width="5.9" height="5.9" rx="1.77"/><rect class="cls-3" x="23.29" y="39.06" width="5.9" height="5.9" rx="1.77"/><rect class="cls-3" x="6.78" y="47.49" width="5.9" height="5.9" rx="1.77"/><rect class="cls-1" x="15.03" y="47.49" width="5.9" height="5.9" rx="1.77"/><rect class="cls-2" x="23.29" y="47.49" width="5.9" height="5.9" rx="1.77"/><rect class="cls-2" x="6.78" y="55.92" width="5.9" height="5.9" rx="1.77"/><rect class="cls-3" x="15.03" y="55.92" width="5.9" height="5.9" rx="1.77"/><rect class="cls-3" x="23.29" y="55.92" width="5.9" height="5.9" rx="1.77"/><rect class="cls-1" x="6.78" y="70.64" width="5.9" height="5.9" rx="1.77"/><rect class="cls-2" x="15.03" y="70.64" width="5.9" height="5.9" rx="1.77"/><rect class="cls-3" x="23.29" y="70.64" width="5.9" height="5.9" rx="1.77"/><rect class="cls-3" x="6.78" y="79.07" width="5.9" height="5.9" rx="1.77"/><rect class="cls-1" x="15.03" y="79.07" width="5.9" height="5.9" rx="1.77"/><rect class="cls-2" x="23.29" y="79.07" width="5.9" height="5.9" rx="1.77"/><rect class="cls-2" x="6.78" y="87.49" width="5.9" height="5.9" rx="1.77"/><rect class="cls-3" x="15.03" y="87.49" width="5.9" height="5.9" rx="1.77"/><rect class="cls-3" x="23.29" y="87.49" width="5.9" height="5.9" rx="1.77"/><rect class="cls-1" x="38.91" y="6.61" width="5.9" height="5.9" rx="1.77"/><rect class="cls-2" x="47.17" y="6.61" width="5.9" height="5.9" rx="1.77"/><rect class="cls-3" x="55.42" y="6.61" width="5.9" height="5.9" rx="1.77"/><rect class="cls-3" x="38.91" y="15.03" width="5.9" height="5.9" rx="1.77"/><rect class="cls-3" x="47.17" y="15.03" width="5.9" height="5.9" rx="1.77"/><rect class="cls-2" x="55.42" y="15.03" width="5.9" height="5.9" rx="1.77"/><rect class="cls-2" x="38.91" y="23.46" width="5.9" height="5.9" rx="1.77"/><rect class="cls-3" x="47.17" y="23.46" width="5.9" height="5.9" rx="1.77"/><rect class="cls-1" x="55.42" y="23.46" width="5.9" height="5.9" rx="1.77"/><rect class="cls-1" x="69.87" y="23.29" width="5.9" height="5.9" rx="1.77"/><rect class="cls-2" x="69.87" y="15.03" width="5.9" height="5.9" rx="1.77"/><rect class="cls-3" x="69.87" y="6.78" width="5.9" height="5.9" rx="1.77"/><rect class="cls-3" x="78.29" y="23.29" width="5.9" height="5.9" rx="1.77"/><rect class="cls-3" x="78.29" y="15.03" width="5.9" height="5.9" rx="1.77"/><rect class="cls-2" x="78.29" y="6.78" width="5.9" height="5.9" rx="1.77"/><rect class="cls-2" x="86.72" y="23.29" width="5.9" height="5.9" rx="1.77"/><rect class="cls-3" x="86.72" y="15.03" width="5.9" height="5.9" rx="1.77"/><rect class="cls-1" x="86.72" y="6.78" width="5.9" height="5.9" rx="1.77"/><rect class="cls-1" x="23.46" y="6.78" width="5.9" height="5.9" rx="1.77"/><rect class="cls-2" x="23.46" y="15.03" width="5.9" height="5.9" rx="1.77"/><rect class="cls-3" x="23.46" y="23.29" width="5.9" height="5.9" rx="1.77"/><rect class="cls-3" x="15.03" y="6.78" width="5.9" height="5.9" rx="1.77"/><rect class="cls-3" x="15.03" y="15.03" width="5.9" height="5.9" rx="1.77"/><rect class="cls-2" x="15.03" y="23.29" width="5.9" height="5.9" rx="1.77"/><rect class="cls-2" x="6.6" y="6.78" width="5.9" height="5.9" rx="1.77"/><rect class="cls-3" x="6.6" y="15.03" width="5.9" height="5.9" rx="1.77"/><rect class="cls-1" x="6.6" y="23.29" width="5.9" height="5.9" rx="1.77"/><path class="cls-1" d="M65.4,84.82a18.47,18.47,0,0,1,0-36.94A18.31,18.31,0,0,1,76.94,52l-9.16,7.92L91.9,63.44l-.05-24.38-8.47,7.33a26.86,26.86,0,1,0,7.31,29.08L82.1,74.2A18.49,18.49,0,0,1,65.4,84.82Z"/></svg>