<?xml version="1.0" encoding="UTF-8"?>
<svg id="icons" xmlns="http://www.w3.org/2000/svg" viewBox="0 0 100 100">
    <defs>
        <style>
            .cls-1 {
            fill: #fff;
            }

            .cls-2 {
            fill: #4d8dfc;
            }
        </style>
    </defs>
    <path class="cls-1"
          d="M56.11,19.39c-1.43-.93-3.04-1.37-4.63-1.37-2.8,0-5.54,1.37-7.17,3.89-1.24,1.91-1.66,4.19-1.19,6.42.2.94.56,1.82,1.04,2.62.24-.06.48-.09.73-.11,1.02-.09,2.07.11,3.01.67.64.38,1.15.88,1.55,1.45.42.61.69,1.31.81,2.03.98.14,1.99.12,2.99-.1.16-.03.31-.08.46-.12,1.66-.45,3.12-1.37,4.23-2.67.25-.29.48-.59.69-.91,1.24-1.91,1.66-4.19,1.19-6.42s-1.79-4.14-3.7-5.38ZM88.27,72.28c-.48-2.23-1.79-4.14-3.7-5.38-1.4-.91-3-1.38-4.62-1.38-.6,0-1.2.06-1.8.19-.08.02-.15.04-.23.06-1.68.41-3.16,1.29-4.3,2.55-.31.34-.6.7-.85,1.09-.44.67-.77,1.39-1,2.14-.42,1.37-.5,2.84-.19,4.28.05.24.12.48.19.72.58,1.92,1.81,3.55,3.51,4.66,1.91,1.24,4.19,1.66,6.42,1.18,2.23-.48,4.14-1.79,5.38-3.7,1.24-1.91,1.66-4.19,1.19-6.42ZM29.46,71.56c-.29-.96-.75-1.85-1.35-2.63-.11-.14-.22-.29-.33-.42-.51-.11-1.01-.29-1.48-.58-.74-.44-1.3-1.04-1.71-1.73-.18-.08-.36-.14-.55-.21-.88-.3-1.79-.47-2.72-.47-.6,0-1.2.06-1.8.19-2.23.48-4.14,1.79-5.38,3.7s-1.66,4.19-1.19,6.42c.48,2.23,1.79,4.14,3.7,5.38s4.19,1.66,6.42,1.18c2.23-.48,4.14-1.79,5.38-3.7.44-.67.77-1.39,1-2.14.42-1.37.5-2.84.19-4.28-.05-.24-.12-.48-.19-.72Z"/>
    <path d="M93.16,71.24c-.75-3.53-2.84-6.56-5.87-8.53-3.03-1.97-6.65-2.64-10.18-1.88-.62.13-1.22.32-1.81.53l-14.72-24.82c.85-.77,1.61-1.65,2.25-2.63,1.97-3.03,2.63-6.65,1.88-10.18-.75-3.54-2.84-6.57-5.87-8.53-6.26-4.06-14.66-2.27-18.72,3.99-1.97,3.03-2.63,6.65-1.88,10.18.39,1.82,1.13,3.5,2.17,4.97l.65-1.09c.25-.43.57-.78.92-1.11.63-.58,1.38-1,2.19-1.2-.48-.8-.84-1.68-1.04-2.62-.48-2.23-.05-4.51,1.19-6.42,1.63-2.52,4.38-3.89,7.17-3.89,1.59,0,3.2.44,4.63,1.37,1.91,1.24,3.23,3.15,3.7,5.38s.05,4.51-1.19,6.42c-.21.32-.44.62-.69.91-1.11,1.3-2.57,2.22-4.23,2.67-.15.04-.3.09-.46.12-1,.21-2.01.24-2.99.1.14.82.09,1.67-.2,2.49-.11.3-.24.59-.41.88l-.86,1.46c.87.18,1.76.27,2.65.27.95,0,1.9-.1,2.85-.3.7-.15,1.37-.36,2.03-.61l14.67,24.74c-.92.81-1.74,1.74-2.42,2.8-.98,1.5-1.63,3.15-1.95,4.86h-32.03c-.02-.11-.03-.22-.05-.32-.34-1.6-.97-3.1-1.83-4.44-.55.67-1.25,1.18-2.02,1.48-.59.23-1.21.35-1.84.35-.18,0-.36-.02-.53-.03-.18-.02-.35-.05-.53-.09.12.14.23.28.33.42.59.79,1.05,1.67,1.35,2.63.07.24.14.48.19.72.31,1.44.23,2.91-.19,4.28-.23.75-.56,1.47-1,2.14-1.24,1.91-3.15,3.23-5.38,3.7-2.23.48-4.51.06-6.42-1.18s-3.23-3.15-3.7-5.38c-.48-2.23-.05-4.51,1.19-6.42s3.15-3.23,5.38-3.7c.6-.13,1.2-.19,1.8-.19.93,0,1.84.17,2.72.47.18.06.37.13.55.21-.12-.19-.23-.39-.32-.6-.31-.71-.44-1.48-.39-2.26.04-.78.25-1.55.67-2.27l.08-.13c-1.99-.51-4.08-.56-6.14-.12-3.54.75-6.57,2.84-8.53,5.87-1.97,3.03-2.63,6.65-1.88,10.19s2.84,6.57,5.87,8.53c2.22,1.44,4.75,2.18,7.33,2.18.95,0,1.9-.1,2.85-.3,3.53-.75,6.56-2.84,8.53-5.87.98-1.5,1.63-3.15,1.95-4.86h32.03c.02.11.03.22.05.32.75,3.54,2.84,6.57,5.87,8.53,2.22,1.44,4.75,2.18,7.33,2.18.95,0,1.9-.1,2.85-.3,3.54-.75,6.57-2.84,8.53-5.87,1.97-3.03,2.63-6.65,1.88-10.19ZM81.71,82.41c-2.23.48-4.51.06-6.42-1.18-1.7-1.1-2.93-2.74-3.51-4.66-.07-.24-.14-.48-.19-.72-.31-1.44-.23-2.91.19-4.28.23-.75.56-1.47,1-2.14.25-.39.54-.75.85-1.09,1.14-1.26,2.62-2.14,4.3-2.55.08-.02.15-.04.23-.06.6-.13,1.2-.19,1.8-.19,1.63,0,3.23.47,4.62,1.38,1.91,1.24,3.23,3.15,3.7,5.38s.05,4.51-1.19,6.42c-1.24,1.91-3.15,3.23-5.38,3.7Z"/>
    <path class="cls-2"
          d="M50.27,34.99c-.12-.73-.39-1.42-.81-2.03-.4-.57-.91-1.07-1.55-1.45-.94-.56-2-.76-3.01-.67-.24.02-.49.05-.73.11-.81.2-1.56.61-2.19,1.2-.35.32-.67.68-.92,1.11l-.65,1.09-15.78,26.61-.08.13c-.42.71-.63,1.49-.67,2.27-.04.78.09,1.55.39,2.26.09.21.2.4.32.6.41.68.97,1.29,1.71,1.73.47.28.97.46,1.48.58.18.04.35.07.53.09.18.02.36.03.53.03.63,0,1.26-.12,1.84-.35.77-.31,1.47-.81,2.02-1.48.16-.19.31-.4.44-.62l15.64-26.37.86-1.46c.17-.28.3-.58.41-.88.29-.81.34-1.67.2-2.49Z"/>
</svg>