<svg id="icons" xmlns="http://www.w3.org/2000/svg" viewBox="0 0 100 100"><defs><style>.cls-1{fill:#4d8dfc;}.cls-2{fill:#fff;}</style></defs><rect x="20.58" y="33.07" width="58.85" height="33.86"/><path class="cls-1" d="M79.42,68.43H20.58a1.5,1.5,0,0,1-1.5-1.5V33.07a1.5,1.5,0,0,1,1.5-1.5H79.42a1.5,1.5,0,0,1,1.5,1.5V66.93A1.5,1.5,0,0,1,79.42,68.43Zm-57.34-3H77.92V34.57H22.08Z"/><path d="M50,65.59a2.51,2.51,0,0,1-1.77-.73L35.14,51.77a2.52,2.52,0,0,1,0-3.54L48.23,35.14A2.51,2.51,0,0,1,50,34.41h0a2.51,2.51,0,0,1,1.77.73L64.86,48.23a2.52,2.52,0,0,1,0,3.54L51.77,64.86A2.51,2.51,0,0,1,50,65.59ZM40.44,50,50,59.56,59.55,50,50,40.44Z"/><rect class="cls-2" x="40.74" y="40.74" width="18.51" height="18.51" transform="translate(-20.71 50) rotate(-45)"/></svg>