<svg id="icons" xmlns="http://www.w3.org/2000/svg" viewBox="0 0 100 100">
    <defs>
        <style>.cls-1{fill:#fff;}.cls-2{fill:#4d8dfc;}</style>
    </defs>
    <rect x="29.23" y="29.23" width="41.54" height="41.54"/>
    <path class="cls-1"
          d="M70.77,71.77H29.23a1,1,0,0,1-1-1V29.23a1,1,0,0,1,1-1H70.77a1,1,0,0,1,1,1V70.77A1,1,0,0,1,70.77,71.77Zm-40.54-2H69.77V30.23H30.23Z"/>
    <path class="cls-2" d="M45.57,56.84a8.15,8.15,0,1,0,4.45-15A8.38,8.38,0,0,0,48.3,42a8.15,8.15,0,0,0-2.73,14.81Z"/>
</svg>