<svg xmlns="http://www.w3.org/2000/svg" viewBox="0 0 100 100"><defs><style>.cls-1{opacity:0.25;}.cls-2{fill:#fff;}.cls-3{fill:#ffa627;}.cls-4{opacity:0.5;}</style></defs><g id="Layer_25" data-name="Layer 25"><g class="cls-1"><path class="cls-2" d="M78.84,56.71a5.46,5.46,0,1,0,3-10.05,5,5,0,0,0-1.15.13,5.46,5.46,0,0,0-1.83,9.92Z"/><path class="cls-3" d="M71.21,67.82a5.47,5.47,0,0,0-5.33-4.32,5.69,5.69,0,0,0-1.15.12,5.46,5.46,0,0,0-4.23,6.27l-1.31,1.34L58,72.49,52.8,77.8l-1.22,1.25-1.31,1.34a6.83,6.83,0,0,0-.79-.06,5.67,5.67,0,0,0-1.14.12,5.46,5.46,0,0,0,2.28,10.68,5.36,5.36,0,0,0,3.44-2.37,5.42,5.42,0,0,0,.8-3.9l1.3-1.34,1.23-1.26L62.55,77l1.23-1.25,1.3-1.34a5.44,5.44,0,0,0,5.37-2.43A5.37,5.37,0,0,0,71.21,67.82Z"/><path class="cls-2" d="M81.81,80.33a5.52,5.52,0,0,0-1.14.12,5.44,5.44,0,0,0-3.44,2.37,5.46,5.46,0,1,0,9.16,5.94,5.46,5.46,0,0,0-4.58-8.43Z"/><path class="cls-2" d="M46.51,56.71a5.46,5.46,0,0,0,5.94-9.17,5.4,5.4,0,0,0-3-.88,5.07,5.07,0,0,0-1.15.13,5.41,5.41,0,0,0-3.44,2.36,5.47,5.47,0,0,0,1.61,7.56Z"/><path d="M77.1,59.39a8.61,8.61,0,0,0,4.69,1.4,9.48,9.48,0,0,0,1.83-.19,8.68,8.68,0,1,0-6.52-1.21Zm.13-10.24a5.39,5.39,0,0,1,3.44-2.36,5,5,0,0,1,1.15-.13,5.47,5.47,0,1,1-5.35,6.6A5.38,5.38,0,0,1,77.23,49.15Zm-2.89,18A8.66,8.66,0,0,0,57.4,70.77,8.47,8.47,0,0,0,58,72.49l1.22-1.26,1.31-1.34a5.46,5.46,0,0,1,4.23-6.27,5.69,5.69,0,0,1,1.15-.12,5.46,5.46,0,1,1-.8,10.86l-1.3,1.34L62.55,77a8.54,8.54,0,0,0,3.3.67,8.75,8.75,0,0,0,1.83-.19,8.66,8.66,0,0,0,6.66-10.28Zm-17,15.11-1.23,1.26-1.3,1.34a5.42,5.42,0,0,1-.8,3.9,5.36,5.36,0,0,1-3.44,2.37,5.46,5.46,0,0,1-2.28-10.68,5.67,5.67,0,0,1,1.14-.12,6.83,6.83,0,0,1,.79.06l1.31-1.34L52.8,77.8A8.66,8.66,0,1,0,58,84,9,9,0,0,0,57.39,82.26ZM90.28,84a8.7,8.7,0,1,0-6.66,10.27A8.65,8.65,0,0,0,90.28,84Zm-3.89,4.77a5.46,5.46,0,1,1-5.72-8.31,5.46,5.46,0,0,1,6.48,4.2A5.45,5.45,0,0,1,86.39,88.76Zm-36.91-28a9.35,9.35,0,0,0,1.81-.19,8.66,8.66,0,0,0,2.9-15.74A8.66,8.66,0,0,0,41,53.93,8.68,8.68,0,0,0,49.48,60.79ZM44.9,49.15a5.41,5.41,0,0,1,3.44-2.36,5.07,5.07,0,0,1,1.15-.13A5.46,5.46,0,0,1,54.82,51a5.46,5.46,0,1,1-9.92-1.84Z"/></g></g><g id="icons_50" data-name="icons 50"><g class="cls-4"><path class="cls-2" d="M75.14,45.64a6.82,6.82,0,1,0,3.72-12.55,7,7,0,0,0-1.44.15,6.82,6.82,0,0,0-2.28,12.4Z"/><path class="cls-3" d="M65.6,59.53a6.83,6.83,0,0,0-6.66-5.4,7,7,0,0,0-1.43.15,6.83,6.83,0,0,0-5.3,7.84L50.58,63.8l-1.53,1.57L42.59,72l-1.53,1.57-1.63,1.67a6.5,6.5,0,0,0-1-.07,6.29,6.29,0,0,0-1.42.15,6.83,6.83,0,1,0,7.15,10.38,6.75,6.75,0,0,0,1-4.87l1.63-1.68,1.53-1.57L54.78,71l1.53-1.57,1.63-1.67a6.82,6.82,0,0,0,7.66-8.18Z"/><path class="cls-2" d="M78.85,75.18a6.38,6.38,0,0,0-1.43.15,6.83,6.83,0,1,0,1.43-.15Z"/><path class="cls-2" d="M34.73,45.64a6.75,6.75,0,0,0,5.14,1,6.82,6.82,0,0,0,2.28-12.4,6.7,6.7,0,0,0-3.69-1.1,7,7,0,0,0-1.44.15,6.82,6.82,0,0,0-2.29,12.4Z"/><path d="M73,49a10.75,10.75,0,0,0,5.87,1.75,10.48,10.48,0,0,0,2.28-.25,10.82,10.82,0,1,0-4.52-21.17A10.82,10.82,0,0,0,73,49Zm.16-12.8a6.77,6.77,0,0,1,4.3-3,7,7,0,0,1,1.44-.15,6.82,6.82,0,1,1-6.69,8.25A6.8,6.8,0,0,1,73.12,36.2Zm-3.6,22.5a10.83,10.83,0,0,0-21.18,4.52,10.43,10.43,0,0,0,.71,2.15l1.53-1.57,1.63-1.68a6.83,6.83,0,0,1,5.3-7.84,7,7,0,0,1,1.43-.15,6.83,6.83,0,1,1-1,13.58l-1.63,1.67L54.78,71a10.66,10.66,0,0,0,4.13.84,11.11,11.11,0,0,0,2.28-.24A10.84,10.84,0,0,0,69.52,58.7ZM48.32,77.59l-1.53,1.57-1.63,1.68a6.82,6.82,0,0,1-5.29,7.84A6.83,6.83,0,0,1,37,75.33a6.29,6.29,0,0,1,1.42-.15,6.5,6.5,0,0,1,1,.07l1.63-1.67L42.59,72a10.82,10.82,0,1,0-4.15,20.82,11,11,0,0,0,2.26-.24A10.82,10.82,0,0,0,49,79.74,10.43,10.43,0,0,0,48.32,77.59Zm41.12,2.15A10.83,10.83,0,1,0,73,91.09a10.74,10.74,0,0,0,5.87,1.74,11.11,11.11,0,0,0,2.28-.24,10.84,10.84,0,0,0,8.33-12.85Zm-4.86,6a6.83,6.83,0,1,1-7.16-10.38,6.38,6.38,0,0,1,1.43-.15,6.83,6.83,0,0,1,5.73,10.53Zm-46.14-35a10.34,10.34,0,0,0,2.26-.24,10.82,10.82,0,1,0-2.26.24ZM32.71,36.2a6.79,6.79,0,0,1,4.31-3,7,7,0,0,1,1.44-.15,6.7,6.7,0,0,1,3.69,1.1,6.82,6.82,0,1,1-9.44,2Z"/></g></g><g id="icons"><path class="cls-2" d="M70.26,32.82a8.55,8.55,0,1,0-3.7-5.38A8.45,8.45,0,0,0,70.26,32.82Z"/><path class="cls-3" d="M58.34,50.18A8.54,8.54,0,0,0,50,43.42a9.17,9.17,0,0,0-1.8.19,8.54,8.54,0,0,0-6.62,9.8l-2,2.1-1.91,2-8.08,8.29-1.91,2-2,2.1a8.52,8.52,0,0,0-1.24-.1,8.35,8.35,0,0,0-1.78.19,8.53,8.53,0,1,0,10.18,6.89l2-2.1,1.91-2,8.08-8.29,1.91-2,2-2.09a8.55,8.55,0,0,0,8.4-3.8A8.45,8.45,0,0,0,58.34,50.18Z"/><path class="cls-2" d="M74.9,69.73a8.35,8.35,0,0,0-1.78.19,8.52,8.52,0,1,0,1.78-.19Z"/><path class="cls-2" d="M19.75,32.82a8.55,8.55,0,1,0-3.7-5.38A8.45,8.45,0,0,0,19.75,32.82Z"/><path d="M67.54,37a13.42,13.42,0,0,0,7.33,2.18,13.8,13.8,0,0,0,2.85-.3A13.53,13.53,0,1,0,67.54,37Zm.2-16a8.55,8.55,0,1,1-1.18,6.43A8.5,8.5,0,0,1,67.74,21ZM63.23,49.14a13.53,13.53,0,1,0-26.46,5.64,13.76,13.76,0,0,0,.88,2.7l1.91-2,2-2.1a8.54,8.54,0,0,1,6.62-9.8,9.17,9.17,0,0,1,1.8-.19A8.53,8.53,0,0,1,51.78,60.3a8.54,8.54,0,0,1-3,.1l-2,2.09-1.91,2a13.41,13.41,0,0,0,8,.74,13.53,13.53,0,0,0,10.41-16ZM36.74,72.74l-1.91,2-2,2.1a8.53,8.53,0,0,1-6.62,9.8,8.53,8.53,0,0,1-3.56-16.69,8.35,8.35,0,0,1,1.78-.19,8.52,8.52,0,0,1,1.24.1l2-2.1,1.91-2a13.4,13.4,0,0,0-8-.74A13.53,13.53,0,1,0,37.63,75.44,14,14,0,0,0,36.74,72.74Zm51.39,2.7A13.53,13.53,0,1,0,74.87,91.8a13.8,13.8,0,0,0,2.85-.3A13.54,13.54,0,0,0,88.13,75.44ZM82.06,82.9a8.53,8.53,0,1,1-8.94-13,8.35,8.35,0,0,1,1.78-.19,8.54,8.54,0,0,1,8.34,6.75A8.45,8.45,0,0,1,82.06,82.9ZM24.39,39.19a13.53,13.53,0,1,0-2.82-26.77,13.53,13.53,0,0,0,2.82,26.77ZM17.23,21a8.55,8.55,0,1,1-1.18,6.43A8.5,8.5,0,0,1,17.23,21Z"/></g></svg>