<svg xmlns="http://www.w3.org/2000/svg" viewBox="0 0 100 100"><defs><style>.cls-1{opacity:0.25;}.cls-2{fill:#ffa627;}.cls-3{fill:#fff;}.cls-4{opacity:0.5;}</style></defs><g id="Layer_25" data-name="Layer 25"><g class="cls-1"><path d="M47.17,61.16a1.58,1.58,0,0,1-1.41.44,1.56,1.56,0,0,0,.43,1.48,1.59,1.59,0,0,0,2.26,0l6.15-6.15v-3.2Z"/><path d="M79.4,77.36V51.79a1.6,1.6,0,0,0-1.28-1.57V78.64Z"/><path d="M67.64,63.55a1.6,1.6,0,0,0,1.13-2.73L68,60a1.62,1.62,0,0,1-.47,1.15,1.59,1.59,0,0,1-2.26,0L57.8,53.73V82.5a1.6,1.6,0,0,1-1.6,1.6,1.66,1.66,0,0,1-.32,0v.35a1.6,1.6,0,0,0,3.2,0V55.65l7.43,7.43A1.6,1.6,0,0,0,67.64,63.55Z"/><path d="M89.1,73.13a1.62,1.62,0,0,0-.86-.44,1.58,1.58,0,0,1-.42.78L77.65,83.63a1.16,1.16,0,0,1-.24.2.67.67,0,0,1-.12.06.83.83,0,0,1-.16.09L77,84l-.14,0a1.73,1.73,0,0,1-.32,0,1.63,1.63,0,0,1-.31,0l-.14,0-.16,0a.83.83,0,0,1-.16-.09.39.39,0,0,1-.11-.06,1.22,1.22,0,0,1-.25-.2L66,74.28a1.61,1.61,0,0,0,.47,1.11L76.67,85.55a1.22,1.22,0,0,0,.25.2.39.39,0,0,0,.11.06.83.83,0,0,0,.16.09l.16,0,.14,0a1.63,1.63,0,0,0,.31,0,1.73,1.73,0,0,0,.32,0l.14,0,.15,0a.83.83,0,0,0,.16-.09.67.67,0,0,0,.12-.06,1.16,1.16,0,0,0,.24-.2L89.1,75.39A1.61,1.61,0,0,0,89.1,73.13Z"/><path class="cls-2" d="M67.49,58.9,57.33,48.74a1.22,1.22,0,0,0-.25-.2.39.39,0,0,0-.11-.06.83.83,0,0,0-.16-.09l-.16,0-.14,0a1.62,1.62,0,0,0-.62,0l-.15,0-.15,0a.83.83,0,0,0-.16.09l-.12.06a1.16,1.16,0,0,0-.24.2L44.91,58.9a1.59,1.59,0,0,0,0,2.26,1.56,1.56,0,0,0,.85.44,1.58,1.58,0,0,0,1.41-.44l7.43-7.43V82.5a1.61,1.61,0,0,0,1.28,1.57,1.66,1.66,0,0,0,.32,0,1.6,1.6,0,0,0,1.6-1.6V53.73l7.43,7.43a1.59,1.59,0,0,0,2.26,0A1.62,1.62,0,0,0,68,60,1.58,1.58,0,0,0,67.49,58.9Z"/><path class="cls-3" d="M87.82,71.21a1.6,1.6,0,0,0-2.27,0l-7.43,7.43V49.87a1.6,1.6,0,1,0-3.2,0V78.64l-7.43-7.43a1.6,1.6,0,0,0-2.26,2.26l.81.81,9.35,9.35a1.22,1.22,0,0,0,.25.2.39.39,0,0,0,.11.06.83.83,0,0,0,.16.09l.16,0,.14,0a1.63,1.63,0,0,0,.31,0,1.73,1.73,0,0,0,.32,0L77,84l.15,0a.83.83,0,0,0,.16-.09.67.67,0,0,0,.12-.06,1.16,1.16,0,0,0,.24-.2L87.82,73.47a1.62,1.62,0,0,0,0-2.26Z"/></g></g><g id="icons_50" data-name="icons 50"><g class="cls-4"><path d="M35.21,51.67a2,2,0,0,1-1.76.55,2,2,0,0,0,3.36,1.85l7.69-7.69v-4Z"/><path d="M75.5,71.91V40a2,2,0,0,0-1.6-2V73.51Z"/><path d="M60.8,54.65a2,2,0,0,0,1.41-3.41l-1-1a2,2,0,0,1-3.41,1.45L48.5,42.38v36a2,2,0,0,1-2,2,1.75,1.75,0,0,1-.4,0v.44a2,2,0,0,0,4,0v-36l9.29,9.29A2,2,0,0,0,60.8,54.65Z"/><path d="M87.62,66.62a2,2,0,0,0-1.07-.55,2,2,0,0,1-.53,1l-12.7,12.7A1.79,1.79,0,0,1,73,80l-.14.08-.2.11-.2.06-.18,0a1.92,1.92,0,0,1-.78,0l-.17,0-.2-.06-.2-.11L70.79,80a1.42,1.42,0,0,1-.3-.25L58.8,68.07a2,2,0,0,0,.59,1.38l12.7,12.7a1.42,1.42,0,0,0,.3.25l.15.08.2.11.2.06.17,0a1.92,1.92,0,0,0,.78,0l.18,0,.2-.06.2-.11.14-.08a1.79,1.79,0,0,0,.31-.25l12.7-12.7A2,2,0,0,0,87.62,66.62Z"/><path class="cls-2" d="M60.61,48.84l-12.7-12.7a1.42,1.42,0,0,0-.3-.25l-.15-.08-.2-.11-.19-.06-.18,0a2,2,0,0,0-.78,0l-.18,0-.2.06-.2.11-.14.08a1.79,1.79,0,0,0-.31.25l-12.7,12.7a2,2,0,0,0,2.83,2.83l9.29-9.29v36a2,2,0,0,0,1.6,2,1.75,1.75,0,0,0,.4,0,2,2,0,0,0,2-2v-36l9.29,9.29a2,2,0,1,0,2.82-2.83Z"/><path class="cls-3" d="M86,64.22a2,2,0,0,0-2.83,0L73.9,73.51v-36a2,2,0,0,0-4,0v36l-9.29-9.29a2,2,0,1,0-2.82,2.83l1,1L70.49,79.75a1.42,1.42,0,0,0,.3.25l.15.08.2.11.2.06.17,0a1.92,1.92,0,0,0,.78,0l.18,0,.2-.06.2-.11L73,80a1.79,1.79,0,0,0,.31-.25L86,67.05a2,2,0,0,0,0-2.83Z"/></g></g><g id="icons"><path d="M20,40.8a2.51,2.51,0,0,1-2.2.69A2.5,2.5,0,0,0,22,43.8l9.61-9.61v-5Z"/><path d="M70.38,66.1V26.15a2.5,2.5,0,0,0-2-2.45V68.1Z"/><path d="M52,44.53a2.5,2.5,0,0,0,1.77-4.27L52.5,39a2.5,2.5,0,0,1-.73,1.81,2.51,2.51,0,0,1-3.54,0L36.62,29.19v45a2.5,2.5,0,0,1-2.5,2.5,2.73,2.73,0,0,1-.5,0v.55a2.5,2.5,0,0,0,5,0V32.19L50.23,43.8A2.53,2.53,0,0,0,52,44.53Z"/><path d="M85.52,59.49a2.52,2.52,0,0,0-1.33-.69A2.5,2.5,0,0,1,83.52,60L67.65,75.9a2.37,2.37,0,0,1-.39.32c-.05,0-.12.06-.18.1l-.25.13-.24.07-.22.07a2.72,2.72,0,0,1-.49,0,2.63,2.63,0,0,1-.49,0l-.22-.07-.25-.07-.25-.13-.18-.1a2,2,0,0,1-.38-.32L49.5,61.3A2.48,2.48,0,0,0,50.23,63L66.11,78.9a2,2,0,0,0,.38.32l.18.1.25.13.25.07.22.07a2.63,2.63,0,0,0,.49,0,2.72,2.72,0,0,0,.49,0l.22-.07.24-.07.25-.13c.06,0,.13-.06.18-.1a2.37,2.37,0,0,0,.39-.32L85.52,63A2.5,2.5,0,0,0,85.52,59.49Z"/><path class="cls-2" d="M51.77,37.26,35.89,21.39a2,2,0,0,0-.38-.32,1.51,1.51,0,0,0-.18-.09,2,2,0,0,0-.25-.14l-.25-.07-.22-.07a2.69,2.69,0,0,0-1,0l-.22.07-.24.07-.26.13s-.12.06-.17.1a2.37,2.37,0,0,0-.39.32L16.48,37.26A2.5,2.5,0,0,0,20,40.8L31.62,29.19v45a2.5,2.5,0,0,0,2,2.45,2.73,2.73,0,0,0,.5,0,2.5,2.5,0,0,0,2.5-2.5V29.19L48.23,40.8a2.51,2.51,0,0,0,3.54,0,2.51,2.51,0,0,0,0-3.54Z"/><path class="cls-3" d="M83.52,56.49a2.5,2.5,0,0,0-3.53,0L68.38,68.1V23.15a2.5,2.5,0,0,0-5,0V68.1L51.77,56.49A2.5,2.5,0,0,0,48.23,60L49.5,61.3,64.11,75.9a2,2,0,0,0,.38.32l.18.1.25.13.25.07.22.07a2.63,2.63,0,0,0,.49,0,2.72,2.72,0,0,0,.49,0l.22-.07.24-.07.25-.13c.06,0,.13-.06.18-.1a2.37,2.37,0,0,0,.39-.32L83.52,60a2.51,2.51,0,0,0,0-3.54Z"/></g></svg>