<svg xmlns="http://www.w3.org/2000/svg" viewBox="0 0 100 100"><defs><style>.cls-1{fill:#4d8dfc;}.cls-2{fill:#fff;}.cls-3{fill:#ffa627;}</style></defs><g id="icons"><polyline class="cls-1" points="69.67 57.6 83.37 65.59 50.63 84.7 17.88 65.59 31.58 57.6"/><path d="M50.62,87.2a2.49,2.49,0,0,1-1.26-.34L16.62,67.75a2.49,2.49,0,0,1,0-4.31l13.7-8,2.52,4.32-10,5.83L50.62,81.81,78.41,65.59l-10-5.83,2.52-4.32,13.7,8a2.49,2.49,0,0,1,0,4.31L51.88,86.86A2.43,2.43,0,0,1,50.62,87.2Z"/><polyline class="cls-2" points="69.66 41.28 83.37 49.28 50.63 68.39 17.88 49.28 32.23 40.91"/><path d="M50.62,70.89a2.49,2.49,0,0,1-1.26-.34L16.62,51.44a2.49,2.49,0,0,1,0-4.31L31,38.75l2.52,4.32L22.84,49.28,50.62,65.5,78.41,49.28l-10-5.84,2.52-4.32,13.71,8a2.49,2.49,0,0,1,0,4.31L51.88,70.55A2.43,2.43,0,0,1,50.62,70.89Z"/><polygon class="cls-3" points="50.63 52.13 17.88 33.02 50.63 13.91 83.37 33.02 50.63 52.13"/><path d="M50.62,54.63a2.49,2.49,0,0,1-1.26-.34L16.62,35.18a2.5,2.5,0,0,1,0-4.32L49.36,11.75a2.52,2.52,0,0,1,2.52,0L84.63,30.86a2.5,2.5,0,0,1,0,4.32L51.88,54.29A2.43,2.43,0,0,1,50.62,54.63ZM22.84,33,50.62,49.24,78.41,33,50.62,16.8Z"/></g></svg>