<?xml version="1.0" encoding="UTF-8"?>
<svg id="icons" xmlns="http://www.w3.org/2000/svg" viewBox="0 0 100 100">
  <defs>
    <style>
      .cls-1 {
        fill: #ffa627;
      }
    </style>
  </defs>
  <path class="cls-1" d="M63.93,74.44c-.4,0-.8-.09-1.16-.29l-13.09-6.88-13.09,6.88c-.37.19-.76.29-1.16.29-.52,0-1.03-.16-1.47-.48-.77-.56-1.16-1.51-.99-2.45l2.5-14.58-10.59-10.33c-.68-.66-.93-1.66-.63-2.56s1.08-1.56,2.02-1.7l14.64-2.13,6.55-13.27c.42-.85,1.29-1.39,2.24-1.39s1.82.54,2.24,1.39l6.55,13.27,14.64,2.13c.94.14,1.72.8,2.02,1.7s.05,1.9-.63,2.56l-10.59,10.33,2.5,14.58c.16.94-.22,1.89-.99,2.45-.44.32-.95.48-1.47.48Z"/>
  <path d="M49.67,28.06l7.13,14.44,15.94,2.32-11.53,11.24,2.72,15.88-14.26-7.5-14.26,7.5,2.72-15.88-11.53-11.24,15.94-2.32,7.13-14.44M49.67,23.06c-1.9,0-3.64,1.08-4.48,2.79l-5.97,12.09-13.34,1.94c-1.88.27-3.45,1.59-4.04,3.4-.59,1.81-.1,3.8,1.27,5.13l9.65,9.41-2.28,13.28c-.32,1.88.45,3.77,1.99,4.89.87.63,1.9.95,2.94.95.8,0,1.59-.19,2.33-.57l11.93-6.27,11.93,6.27c.73.38,1.53.57,2.33.57,1.04,0,2.07-.32,2.94-.95,1.54-1.12,2.31-3.01,1.99-4.89l-2.28-13.28,9.65-9.41c1.36-1.33,1.85-3.32,1.27-5.13-.59-1.81-2.15-3.13-4.04-3.4l-13.34-1.94-5.97-12.09c-.84-1.71-2.58-2.79-4.48-2.79h0Z"/>
</svg>