<svg id="icons" xmlns="http://www.w3.org/2000/svg" viewBox="0 0 100 100">
    <defs>
        <style>.cls-1{fill:#ed1e79;}</style>
    </defs>
    <path d="M59.07,53,75.38,36.69a5,5,0,0,0-7.07-7.07L52,45.93,35.69,29.62a5,5,0,0,0-7.07,7.07L44.93,53,28.62,69.31a5,5,0,1,0,7.07,7.07L52,60.07,68.31,76.38a5,5,0,0,0,7.07-7.07Z"/>
    <path class="cls-1"
          d="M57.07,50,73.38,33.69a5,5,0,0,0-7.07-7.07L50,42.93,33.69,26.62a5,5,0,0,0-7.07,7.07L42.93,50,26.62,66.31a5,5,0,1,0,7.07,7.07L50,57.07,66.31,73.38a5,5,0,0,0,7.07-7.07Z"/>
</svg>