<svg id="icons" xmlns="http://www.w3.org/2000/svg" viewBox="0 0 200 100">
    <defs>
        <style>.cls-1{fill:#fff;}</style>
    </defs>
    <path d="M57.5,67.6a3.45,3.45,0,0,1-3,2.17,3.1,3.1,0,0,1-3.33-3,4,4,0,0,1,.14-1l9-26.31c.6-1.81,1.52-3.15,3.74-3.15s3.15,1.3,3.79,3.15l9,26.31a4,4,0,0,1,.14,1,3,3,0,0,1-3.33,3A3.55,3.55,0,0,1,70.5,67.6l-1.62-4.67H59Zm7.35-17.86A30.2,30.2,0,0,1,64,45.21a29,29,0,0,1-.83,4.53l-2.45,7.91h6.47Z"/>
    <path d="M94.52,38.78a3.21,3.21,0,0,1,6.38,0v8.14a9.39,9.39,0,0,1,5-1.29c5.88,0,8.28,3.33,8.28,7.68v7.77c0,4.85-3.28,8.6-9.85,8.6-6.24,0-9.85-3.42-9.85-7.77Zm6.38,23.13c0,1.71,1.35,2.77,3.52,2.77s3.42-1.2,3.42-3.14V53.08c0-1.67-.93-2.64-3.19-2.64a5.5,5.5,0,0,0-3.75,1.29Z"/>
    <path d="M132.28,54.6c0-5,3-8.83,9.57-8.83,2.73,0,7.91.65,7.91,4,0,1.11-.55,2.36-2.86,2.36a4.12,4.12,0,0,1-1.53-.28,7.47,7.47,0,0,0-3.15-.78c-2.54,0-3.56,1.34-3.56,3.51v6.25c0,2.17,1,3.51,3.56,3.51a7.31,7.31,0,0,0,3.15-.79,3.35,3.35,0,0,1,1.43-.27c2.41,0,3,1.29,3,2.35,0,3.33-5.18,4-7.95,4-6.52,0-9.53-3.89-9.53-8.83Z"/>
    <path class="cls-1"
          d="M55.5,64.6a3.45,3.45,0,0,1-3,2.17,3.1,3.1,0,0,1-3.33-3,4,4,0,0,1,.14-1l9-26.31c.6-1.81,1.52-3.15,3.74-3.15s3.15,1.3,3.79,3.15l9,26.31a4,4,0,0,1,.14,1,3,3,0,0,1-3.33,3A3.55,3.55,0,0,1,68.5,64.6l-1.62-4.67H57Zm7.35-17.86A30.2,30.2,0,0,1,62,42.21a29,29,0,0,1-.83,4.53l-2.45,7.91h6.47Z"/>
    <path class="cls-1"
          d="M92.52,35.78a3.21,3.21,0,0,1,6.38,0v8.14a9.39,9.39,0,0,1,5-1.29c5.88,0,8.28,3.33,8.28,7.68v7.77c0,4.85-3.28,8.6-9.85,8.6-6.24,0-9.85-3.42-9.85-7.77ZM98.9,58.91c0,1.71,1.35,2.77,3.52,2.77s3.42-1.2,3.42-3.14V50.08c0-1.67-.93-2.64-3.19-2.64a5.5,5.5,0,0,0-3.75,1.29Z"/>
    <path class="cls-1"
          d="M130.28,51.6c0-5,3-8.83,9.57-8.83,2.73,0,7.91.65,7.91,4,0,1.11-.55,2.36-2.86,2.36a4.12,4.12,0,0,1-1.53-.28,7.47,7.47,0,0,0-3.15-.78c-2.54,0-3.56,1.34-3.56,3.51v6.25c0,2.17,1,3.51,3.56,3.51a7.31,7.31,0,0,0,3.15-.79,3.35,3.35,0,0,1,1.43-.27c2.41,0,3,1.29,3,2.35,0,3.33-5.18,4-7.95,4-6.52,0-9.53-3.89-9.53-8.83Z"/>
</svg>