<?xml version="1.0" encoding="UTF-8"?>
<svg id="icons" xmlns="http://www.w3.org/2000/svg" viewBox="0 0 100 100">
  <defs>
    <style>
      .cls-1 {
        fill: #fff;
      }

      .cls-2 {
        fill: #4d8dfc;
      }
    </style>
  </defs>
  <g>
    <path d="M15.57,29.74l23.65,27.4v-.5L14.54,28.05c.24.59.57,1.16,1.03,1.69ZM83.56,21.06c.59,1.84.32,3.97-1.16,5.68l-26.27,30.43v18.42c0,4.67-3.79,8.46-8.46,8.46-2.17,0-4.14-.82-5.64-2.17,1.28,3.04,4.29,5.17,7.79,5.17,4.67,0,8.46-3.79,8.46-8.46v-18.42l26.27-30.43c2.43-2.82,1.61-6.77-1-8.68ZM47.68,81.05c3.01,0,5.46-2.45,5.46-5.46s-2.45-5.46-5.46-5.46-5.46,2.45-5.46,5.46,2.45,5.46,5.46,5.46Z"/>
    <path class="cls-1" d="M83.56,21.06c-.74-2.3-2.83-4.14-5.65-4.14H17.91c-5.08,0-7.82,5.97-4.5,9.82l1.13,1.31,24.68,28.59v18.95c0,2.5,1.09,4.74,2.82,6.29,1.5,1.34,3.47,2.17,5.64,2.17,4.67,0,8.46-3.79,8.46-8.46v-18.42l26.27-30.43c1.48-1.71,1.75-3.84,1.16-5.68ZM42.22,75.59c0-3.01,2.45-5.46,5.46-5.46s5.46,2.45,5.46,5.46-2.45,5.46-5.46,5.46-5.46-2.45-5.46-5.46Z"/>
  </g>
  <path class="cls-2" d="M43.27,42.3c1.91,1.24,4.19,1.66,6.42,1.18,4.6-.98,7.55-5.52,6.56-10.12-.48-2.23-1.79-4.14-3.7-5.38-1.4-.91-3-1.38-4.62-1.38-.6,0-1.2.06-1.8.19-2.23.47-4.14,1.79-5.38,3.7-1.24,1.91-1.66,4.19-1.19,6.42s1.79,4.14,3.7,5.38Z"/>
</svg>