<svg id="icons" xmlns="http://www.w3.org/2000/svg" viewBox="0 0 100 100">
    <defs>
        <style>.cls-1{fill:#fff;}</style>
    </defs>
    <path d="M75.81,41.14a3.75,3.75,0,0,1,3.68,3.68,3.63,3.63,0,0,1-3.68,3.69H23.45a3.63,3.63,0,0,1-3.68-3.69,3.75,3.75,0,0,1,3.68-3.68Zm0,17a3.75,3.75,0,0,1,3.68,3.68,3.63,3.63,0,0,1-3.68,3.69H23.45a3.63,3.63,0,0,1-3.68-3.69,3.75,3.75,0,0,1,3.68-3.68Z"/>
    <path class="cls-1"
          d="M74.49,38.49a3.75,3.75,0,0,1,3.68,3.69,3.63,3.63,0,0,1-3.68,3.68H22.12a3.63,3.63,0,0,1-3.68-3.68,3.75,3.75,0,0,1,3.68-3.69Zm0,17a3.75,3.75,0,0,1,3.68,3.68,3.63,3.63,0,0,1-3.68,3.69H22.12a3.64,3.64,0,0,1-3.68-3.69,3.75,3.75,0,0,1,3.68-3.68Z"/>
</svg>