<svg xmlns="http://www.w3.org/2000/svg" viewBox="0 0 100 100"><defs><style>.cls-1{fill:#ffa627;}</style></defs><g id="icons"><path class="cls-1" d="M60.68,58.27A20.27,20.27,0,0,1,41,42.28a20.18,20.18,0,0,1,15.53-24,20.19,20.19,0,1,1,4.19,40Z"/><path d="M60.73,20.37h0A17.77,17.77,0,0,1,78,34.38a17.7,17.7,0,0,1-13.61,21,18,18,0,0,1-3.72.39,17.69,17.69,0,0,1-3.66-35,17.2,17.2,0,0,1,3.71-.4m0-5a22.7,22.7,0,0,0,0,45.4,22.15,22.15,0,0,0,4.76-.51,22.7,22.7,0,0,0-4.71-44.89Z"/><rect class="cls-1" x="19.09" y="35.54" width="33.25" height="33.25"/><path d="M49.84,38V66.29H21.59V38H49.84m5-5H16.59V71.29H54.84V33Z"/><polygon class="cls-1" points="34.2 82.13 54.84 47.34 75.48 82.13 34.2 82.13"/><path d="M54.84,52.24,71.09,79.63H38.59L54.84,52.24m0-9.8-25,42.19H79.87l-25-42.19Z"/></g></svg>