<svg id="icons" xmlns="http://www.w3.org/2000/svg" viewBox="0 0 100 100">
    <defs>
        <style>.cls-1{fill:#3ec188;}</style>
    </defs>
    <path class="cls-1"
          d="M85.85,42.59A36,36,0,1,0,50.6,86.07a36.18,36.18,0,0,0,7.58-.81A36,36,0,0,0,85.85,42.59ZM70.2,55.31H56.14v15a5.2,5.2,0,0,1-5.41,5.12,5.34,5.34,0,0,1-5.42-5.12v-15h-14a5.23,5.23,0,0,1-5.42-5.22A5.34,5.34,0,0,1,31.26,45H45.31V30a5.35,5.35,0,0,1,5.42-5.22A5.29,5.29,0,0,1,56.14,30V45H70.2a5.4,5.4,0,0,1,5.41,5.12A5.29,5.29,0,0,1,70.2,55.31Z"/>
</svg>