<svg xmlns="http://www.w3.org/2000/svg" viewBox="0 0 100 100"><defs><style>.cls-1{opacity:0.5;}.cls-2{fill:#ffa627;}.cls-3{fill:#4d8dfc;}.cls-4{opacity:0.7;}</style></defs><g id="Layer_25" data-name="Layer 25"><g class="cls-1"><path class="cls-2" d="M91.23,65.92a3.2,3.2,0,0,0-3.2,3.2v3.2h-3.2a3.19,3.19,0,0,0-1.52,6,3.13,3.13,0,0,0,1.52.4h6.4a3.2,3.2,0,0,0,3.2-3.2v-6.4A3.13,3.13,0,0,0,94,67.6,3.18,3.18,0,0,0,91.23,65.92Zm-15.54,6.4H68.37a3.19,3.19,0,0,0-1.52,6,3.16,3.16,0,0,0,1.52.4h7.32a3.2,3.2,0,0,0,3.2-3.2,3.24,3.24,0,0,0-.4-1.52A3.19,3.19,0,0,0,75.69,72.32Zm-16.46,0H56v-3.2a3.13,3.13,0,0,0-.4-1.52,3.19,3.19,0,0,0-6,1.52v6.4a3.18,3.18,0,0,0,1.68,2.8,3.13,3.13,0,0,0,1.52.4h6.4a3.2,3.2,0,0,0,3.2-3.2A3.13,3.13,0,0,0,62,74,3.18,3.18,0,0,0,59.23,72.32Zm-7.92-9.54a3.24,3.24,0,0,0,1.52.4A3.2,3.2,0,0,0,56,60V52.66a3.16,3.16,0,0,0-.4-1.52,3.19,3.19,0,0,0-6,1.52V60A3.19,3.19,0,0,0,51.31,62.78Zm7.92-28.86h-6.4a3.2,3.2,0,0,0-3.2,3.2v6.4a3.18,3.18,0,0,0,1.68,2.8,3.13,3.13,0,0,0,1.52.4,3.2,3.2,0,0,0,3.2-3.2v-3.2h3.2a3.2,3.2,0,0,0,3.2-3.2A3.13,3.13,0,0,0,62,35.6,3.18,3.18,0,0,0,59.23,33.92Zm16.46,0H68.37a3.19,3.19,0,0,0-1.52,6,3.16,3.16,0,0,0,1.52.4h7.32a3.2,3.2,0,0,0,3.2-3.2,3.24,3.24,0,0,0-.4-1.52A3.19,3.19,0,0,0,75.69,33.92ZM94,35.6a3.18,3.18,0,0,0-2.8-1.68h-6.4a3.19,3.19,0,0,0-1.52,6,3.13,3.13,0,0,0,1.52.4H88v3.2a3.18,3.18,0,0,0,1.68,2.8,3.13,3.13,0,0,0,1.52.4,3.2,3.2,0,0,0,3.2-3.2v-6.4A3.13,3.13,0,0,0,94,35.6Zm-2.8,13.86a3.2,3.2,0,0,0-3.2,3.2V60a3.19,3.19,0,0,0,1.68,2.8,3.24,3.24,0,0,0,1.52.4,3.2,3.2,0,0,0,3.2-3.2V52.66a3.16,3.16,0,0,0-.4-1.52A3.2,3.2,0,0,0,91.23,49.46Z"/><path class="cls-3" d="M75,51.74a5.45,5.45,0,0,0-3-.88,5.62,5.62,0,0,0-1.15.12,5.46,5.46,0,1,0,6.48,4.2A5.4,5.4,0,0,0,75,51.74Z"/><path d="M94,67.6a3.13,3.13,0,0,1,.4,1.52v6.4a3.2,3.2,0,0,1-3.2,3.2h-6.4a3.13,3.13,0,0,1-1.52-.4A3.2,3.2,0,0,0,86.11,80h6.4a3.2,3.2,0,0,0,3.2-3.2V70.4A3.17,3.17,0,0,0,94,67.6ZM78.49,74a3.24,3.24,0,0,1,.4,1.52,3.2,3.2,0,0,1-3.2,3.2H68.37a3.16,3.16,0,0,1-1.52-.4A3.2,3.2,0,0,0,69.65,80H77a3.19,3.19,0,0,0,1.52-6ZM57.31,72.32V70.4a3.17,3.17,0,0,0-1.68-2.8,3.13,3.13,0,0,1,.4,1.52v3.2ZM62,74a3.13,3.13,0,0,1,.4,1.52,3.2,3.2,0,0,1-3.2,3.2h-6.4a3.13,3.13,0,0,1-1.52-.4A3.2,3.2,0,0,0,54.11,80h6.4A3.19,3.19,0,0,0,62,74Zm-7.92-9.54a3.2,3.2,0,0,0,3.2-3.2V53.94a3.18,3.18,0,0,0-1.68-2.8,3.16,3.16,0,0,1,.4,1.52V60a3.2,3.2,0,0,1-3.2,3.2,3.24,3.24,0,0,1-1.52-.4A3.2,3.2,0,0,0,54.11,64.46Zm0-16.46a3.2,3.2,0,0,0,3.2-3.2V41.6h3.2a3.19,3.19,0,0,0,1.52-6,3.13,3.13,0,0,1,.4,1.52,3.2,3.2,0,0,1-3.2,3.2H56v3.2a3.2,3.2,0,0,1-3.2,3.2,3.13,3.13,0,0,1-1.52-.4A3.2,3.2,0,0,0,54.11,48Zm15.54-6.4H77a3.19,3.19,0,0,0,1.52-6,3.24,3.24,0,0,1,.4,1.52,3.2,3.2,0,0,1-3.2,3.2H68.37a3.16,3.16,0,0,1-1.52-.4A3.2,3.2,0,0,0,69.65,41.6Zm16.46,0H88V40.32h-3.2a3.13,3.13,0,0,1-1.52-.4A3.2,3.2,0,0,0,86.11,41.6Zm7.92-6a3.13,3.13,0,0,1,.4,1.52v6.4a3.2,3.2,0,0,1-3.2,3.2,3.13,3.13,0,0,1-1.52-.4,3.19,3.19,0,0,0,6-1.52V38.4A3.17,3.17,0,0,0,94,35.6Zm0,15.54a3.16,3.16,0,0,1,.4,1.52V60a3.2,3.2,0,0,1-3.2,3.2,3.24,3.24,0,0,1-1.52-.4,3.19,3.19,0,0,0,6-1.52V53.94A3.18,3.18,0,0,0,94,51.14ZM76.74,49.05A8.66,8.66,0,1,0,72,65a8.7,8.7,0,0,0,1.81-.19,8.66,8.66,0,0,0,2.9-15.74Zm-.13,10.24A5.46,5.46,0,1,1,70.89,51,5.62,5.62,0,0,1,72,50.86a5.46,5.46,0,0,1,4.57,8.43Z"/></g></g><g id="icons_50" data-name="icons 50"><g class="cls-4"><path class="cls-2" d="M83.87,65.16a4,4,0,0,0-4,4v4h-4a4,4,0,0,0-1.9,7.5,4,4,0,0,0,1.9.5h8a4,4,0,0,0,4-4v-8a4.05,4.05,0,0,0-4-4Zm-19.43,8H55.3a4,4,0,0,0-1.9,7.5,4,4,0,0,0,1.9.5h9.14a4,4,0,0,0,4-4,4.05,4.05,0,0,0-4-4Zm-20.57,0h-4v-4a4.05,4.05,0,0,0-4-4,4,4,0,0,0-4,4v8a4.05,4.05,0,0,0,4,4h8a4,4,0,0,0,4-4,4.05,4.05,0,0,0-4-4ZM34,61.23a4,4,0,0,0,1.9.5,4,4,0,0,0,4-4V48.59a4.05,4.05,0,0,0-4-4,4,4,0,0,0-4,4v9.14A4,4,0,0,0,34,61.23Zm9.9-36.07h-8a4,4,0,0,0-4,4v8a4,4,0,0,0,8,0v-4h4a4,4,0,0,0,4-4,4.05,4.05,0,0,0-4-4Zm20.57,0H55.3a4,4,0,0,0-1.9,7.5,4,4,0,0,0,1.9.5h9.14a4,4,0,0,0,4-4,4.05,4.05,0,0,0-4-4Zm22.93,2.1a4,4,0,0,0-3.5-2.1h-8a4,4,0,0,0-1.9,7.5,4,4,0,0,0,1.9.5h4v4a4,4,0,0,0,8,0v-8A4,4,0,0,0,87.37,27.26Zm-3.5,17.33a4,4,0,0,0-4,4v9.14a4,4,0,0,0,8,0V48.59a4.05,4.05,0,0,0-4-4Z"/><path class="cls-3" d="M63.58,47.43a6.81,6.81,0,0,0-3.7-1.1,7,7,0,0,0-1.43.15,6.82,6.82,0,1,0,5.13,1Z"/><path d="M87.37,67.26a4,4,0,0,1,.5,1.9v8a4,4,0,0,1-4,4h-8a4,4,0,0,1-1.9-.5,4,4,0,0,0,3.5,2.1h8a4,4,0,0,0,4-4v-8A4,4,0,0,0,87.37,67.26Zm-19.43,8a4,4,0,0,1,.5,1.9,4,4,0,0,1-4,4H55.3a4,4,0,0,1-1.9-.5,4,4,0,0,0,3.5,2.1H66a4,4,0,0,0,1.9-7.5Zm-26.47-2.1v-2.4a4,4,0,0,0-2.1-3.5,4,4,0,0,1,.5,1.9v4Zm5.9,2.1a4,4,0,0,1,.5,1.9,4,4,0,0,1-4,4h-8a4,4,0,0,1-1.9-.5,4,4,0,0,0,3.5,2.1h8a4,4,0,0,0,1.9-7.5Zm-9.9-11.93a4,4,0,0,0,4-4V50.19a4,4,0,0,0-2.1-3.5,4,4,0,0,1,.5,1.9v9.14a4,4,0,0,1-4,4,4,4,0,0,1-1.9-.5A4,4,0,0,0,37.47,63.33Zm0-20.57a4,4,0,0,0,4-4v-4h4a4,4,0,0,0,1.9-7.5,4,4,0,0,1,.5,1.9,4,4,0,0,1-4,4h-4v4a4,4,0,0,1-4,4,4,4,0,0,1-1.9-.5A4,4,0,0,0,37.47,42.76Zm19.43-8H66a4,4,0,0,0,1.9-7.5,4,4,0,0,1,.5,1.9,4,4,0,0,1-4,4H55.3a4,4,0,0,1-1.9-.5A4,4,0,0,0,56.9,34.76Zm20.57,0h2.4v-1.6h-4a4,4,0,0,1-1.9-.5A4,4,0,0,0,77.47,34.76Zm9.9-7.5a4,4,0,0,1,.5,1.9v8a4,4,0,0,1-4,4,4,4,0,0,1-1.9-.5,4,4,0,0,0,7.5-1.9v-8A4,4,0,0,0,87.37,27.26Zm0,19.43a4,4,0,0,1,.5,1.9v9.14a4,4,0,0,1-4,4,4,4,0,0,1-1.9-.5,4,4,0,0,0,7.5-1.9V50.19A4,4,0,0,0,87.37,46.69ZM65.76,44.08A10.83,10.83,0,1,0,59.87,64a11,11,0,0,0,2.26-.24,10.82,10.82,0,0,0,3.63-19.67ZM65.6,56.87a6.83,6.83,0,1,1-7.15-10.39,7,7,0,0,1,1.43-.15A6.83,6.83,0,0,1,65.6,56.87Z"/></g></g><g id="Layer_5" data-name="Layer 5"><path class="cls-2" d="M73.67,64a5,5,0,0,0-5,5v5h-5a5,5,0,0,0-2.37,9.37,4.87,4.87,0,0,0,2.37.63h10a5,5,0,0,0,5-5V69A4.91,4.91,0,0,0,78,66.58,5,5,0,0,0,73.67,64ZM49.38,74H38a5,5,0,0,0-2.38,9.37A4.91,4.91,0,0,0,38,84H49.38a5,5,0,0,0,5-5,4.9,4.9,0,0,0-.62-2.38A5,5,0,0,0,49.38,74ZM23.67,74h-5V69A4.91,4.91,0,0,0,18,66.58,5,5,0,0,0,8.67,69V79a5,5,0,0,0,2.63,4.37,4.87,4.87,0,0,0,2.37.63h10a5,5,0,0,0,5-5A4.91,4.91,0,0,0,28,76.58,5,5,0,0,0,23.67,74ZM11.3,59.05a5,5,0,0,0,7.37-4.38V43.24A4.9,4.9,0,0,0,18,40.87a5,5,0,0,0-9.37,2.37V54.67A5,5,0,0,0,11.3,59.05ZM23.67,14h-10a5,5,0,0,0-5,5V29a5,5,0,0,0,2.63,4.37,4.87,4.87,0,0,0,2.37.63,5,5,0,0,0,5-5V24h5a5,5,0,0,0,5-5A4.91,4.91,0,0,0,28,16.58,5,5,0,0,0,23.67,14Zm25.71,0H38a5,5,0,0,0-2.38,9.37A4.91,4.91,0,0,0,38,24H49.38a5,5,0,0,0,5-5,4.9,4.9,0,0,0-.62-2.38A5,5,0,0,0,49.38,14ZM78,16.58A5,5,0,0,0,73.67,14h-10a5,5,0,0,0-2.37,9.37,4.87,4.87,0,0,0,2.37.63h5v5a5,5,0,0,0,2.63,4.37,4.87,4.87,0,0,0,2.37.63,5,5,0,0,0,5-5V19A4.91,4.91,0,0,0,78,16.58ZM73.67,38.24a5,5,0,0,0-5,5V54.67a5,5,0,0,0,10,0V43.24A4.9,4.9,0,0,0,78,40.87,5,5,0,0,0,73.67,38.24Z"/><path class="cls-3" d="M48.31,41.8a8.44,8.44,0,0,0-4.62-1.38,9.17,9.17,0,0,0-1.8.19A8.54,8.54,0,0,0,39,56.12,8.53,8.53,0,0,0,48.31,41.8Z"/><path d="M78,66.58A4.91,4.91,0,0,1,78.67,69V79a5,5,0,0,1-5,5h-10a4.87,4.87,0,0,1-2.37-.63A5,5,0,0,0,65.67,86h10a5,5,0,0,0,5-5V71A5,5,0,0,0,78,66.58Zm-24.28,10A4.9,4.9,0,0,1,54.38,79a5,5,0,0,1-5,5H38a4.91,4.91,0,0,1-2.38-.63A5,5,0,0,0,40,86H51.38a5,5,0,0,0,2.38-9.38ZM20.67,74V71A5,5,0,0,0,18,66.58,4.91,4.91,0,0,1,18.67,69v5ZM28,76.58A4.91,4.91,0,0,1,28.67,79a5,5,0,0,1-5,5h-10a4.87,4.87,0,0,1-2.37-.63A5,5,0,0,0,15.67,86h10A5,5,0,0,0,28,76.58ZM15.67,61.67a5,5,0,0,0,5-5V45.24A5,5,0,0,0,18,40.87a4.9,4.9,0,0,1,.63,2.37V54.67a5,5,0,0,1-7.37,4.38A5,5,0,0,0,15.67,61.67Zm0-25.71a5,5,0,0,0,5-5V26h5A5,5,0,0,0,28,16.58,4.91,4.91,0,0,1,28.67,19a5,5,0,0,1-5,5h-5v5a5,5,0,0,1-5,5,4.87,4.87,0,0,1-2.37-.63A5,5,0,0,0,15.67,36ZM40,26H51.38a5,5,0,0,0,2.38-9.38A4.9,4.9,0,0,1,54.38,19a5,5,0,0,1-5,5H38a4.91,4.91,0,0,1-2.38-.63A5,5,0,0,0,40,26Zm25.71,0h3V24h-5a4.87,4.87,0,0,1-2.37-.63A5,5,0,0,0,65.67,26ZM78,16.58A4.91,4.91,0,0,1,78.67,19V29a5,5,0,0,1-5,5,4.87,4.87,0,0,1-2.37-.63A5,5,0,0,0,80.67,31V21A5,5,0,0,0,78,16.58Zm0,24.29a4.9,4.9,0,0,1,.63,2.37V54.67a5,5,0,0,1-7.37,4.38,5,5,0,0,0,9.37-2.38V45.24A5,5,0,0,0,78,40.87ZM51,37.6a13.53,13.53,0,1,0-7.36,24.89,13,13,0,0,0,2.82-.3A13.54,13.54,0,0,0,51,37.6Zm-.2,16a8.53,8.53,0,1,1-8.94-13,9.17,9.17,0,0,1,1.8-.19A8.54,8.54,0,0,1,50.83,53.6Z"/></g></svg>