<svg id="icons" xmlns="http://www.w3.org/2000/svg" viewBox="0 0 100 100">
    <defs>
        <style>.cls-1{fill:#fff;}</style>
    </defs>
    <path class="cls-1"
          d="M27.22,32.72a2.5,2.5,0,0,1-2.5-2.5v-3a2.5,2.5,0,0,1,2.5-2.5h3a2.5,2.5,0,0,1,0,5h-.5v.5A2.5,2.5,0,0,1,27.22,32.72Z"/>
    <path class="cls-1" d="M52.2,29.72H47.8a2.5,2.5,0,0,1,0-5h4.4a2.5,2.5,0,0,1,0,5Z"/>
    <path class="cls-1"
          d="M72.78,32.72a2.5,2.5,0,0,1-2.5-2.5v-.5h-.5a2.5,2.5,0,0,1,0-5h3a2.49,2.49,0,0,1,2.5,2.5v3A2.49,2.49,0,0,1,72.78,32.72Z"/>
    <path class="cls-1" d="M72.78,54.7a2.5,2.5,0,0,1-2.5-2.5V47.8a2.5,2.5,0,0,1,5,0v4.4A2.49,2.49,0,0,1,72.78,54.7Z"/>
    <path class="cls-1" d="M72.78,75.28h-3a2.5,2.5,0,0,1,0-5h.5v-.5a2.5,2.5,0,0,1,5,0v3A2.49,2.49,0,0,1,72.78,75.28Z"/>
    <path class="cls-1" d="M52.2,75.28H47.8a2.5,2.5,0,0,1,0-5h4.4a2.5,2.5,0,0,1,0,5Z"/>
    <path class="cls-1" d="M30.22,75.28h-3a2.49,2.49,0,0,1-2.5-2.5v-3a2.5,2.5,0,0,1,5,0v.5h.5a2.5,2.5,0,0,1,0,5Z"/>
    <path class="cls-1" d="M27.22,54.7a2.5,2.5,0,0,1-2.5-2.5V47.8a2.5,2.5,0,0,1,5,0v4.4A2.5,2.5,0,0,1,27.22,54.7Z"/>
    <path class="cls-1"
          d="M51.52,51.56A1.54,1.54,0,0,1,49.94,53a1.52,1.52,0,0,1-1.58-1.58,5.14,5.14,0,0,1,1.76-3.14c.66-.68,1.79-1.77,1.79-3.12a2,2,0,0,0-2.24-2,4.39,4.39,0,0,0-1.78.36c-.48.23-.79.61-1.41.61A1.47,1.47,0,0,1,45,42.79c0-1.64,3.05-2.35,4.93-2.35,3.09,0,5.13,1.9,5.13,4.75a5.85,5.85,0,0,1-1.79,4.09c-.74.81-1.13,1.15-1.54,1.58A1.26,1.26,0,0,0,51.52,51.56Zm-1.6,8A1.84,1.84,0,0,1,48,57.79a1.82,1.82,0,0,1,1.88-1.74,1.84,1.84,0,0,1,1.9,1.74A1.86,1.86,0,0,1,49.92,59.56Z"/>
</svg>