<svg xmlns="http://www.w3.org/2000/svg" viewBox="0 0 100 100"><defs><style>.cls-1{opacity:0.25;}.cls-2{fill:#ffa627;}.cls-3{opacity:0.5;}</style></defs><g id="Layer_25" data-name="Layer 25"><g class="cls-1"><path d="M87.27,55.07V84.52a3.2,3.2,0,0,1-3.2,3.2H53.47a3.37,3.37,0,0,0,2.87,1.6H84.83a3.4,3.4,0,0,0,3.4-3.4V57.43A3.39,3.39,0,0,0,87.27,55.07Zm-3.2-1V51.15H67.39V67.83H84.07Zm0,30.49H67.39V67.83H50.7V84.52H84.07Z"/><path class="cls-2" d="M84.07,48H50.7a3.2,3.2,0,0,0-3.2,3.2V84.52a3.2,3.2,0,0,0,3.2,3.2H84.07a3.2,3.2,0,0,0,3.2-3.2V51.15A3.2,3.2,0,0,0,84.07,48ZM50.7,84.52V67.83H67.39V51.15H84.07V67.83H67.39V84.52"/></g></g><g id="icons_50" data-name="icons 50"><g class="cls-3"><path d="M85.12,43.67V80.49a4,4,0,0,1-4,4H42.87a4.22,4.22,0,0,0,3.59,2H82.08a4.24,4.24,0,0,0,4.24-4.24V46.62A4.25,4.25,0,0,0,85.12,43.67Zm-4-1.29v-3.6H60.27V59.63H81.12Zm0,38.11H60.27V59.63H39.41V80.49H81.12Z"/><path class="cls-2" d="M81.12,34.78H39.41a4,4,0,0,0-4,4V80.49a4,4,0,0,0,4,4H81.12a4,4,0,0,0,4-4V38.78A4,4,0,0,0,81.12,34.78ZM39.41,80.49V59.63H60.27V38.78H81.12V59.63H60.27V80.49"/></g></g><g id="icons"><path d="M82.18,30.43v46a5,5,0,0,1-5,5H29.37A5.27,5.27,0,0,0,33.85,84H78.38a5.3,5.3,0,0,0,5.3-5.3V34.12A5.29,5.29,0,0,0,82.18,30.43Zm-5-1.61v-4.5H51.12V50.38H77.18Zm0,47.63H51.12V50.38H25.05V76.45H77.18Z"/><path class="cls-2" d="M77.18,19.32H25.05a5,5,0,0,0-5,5V76.45a5,5,0,0,0,5,5H77.18a5,5,0,0,0,5-5V24.32A5,5,0,0,0,77.18,19.32ZM25.05,76.45V50.38H51.12V24.32H77.18V50.38H51.12V76.45"/></g></svg>