<svg id="icons" xmlns="http://www.w3.org/2000/svg" viewBox="0 0 100 100">
    <defs>
        <style>.cls-1{fill:#fff;}.cls-2{fill:#999;}.cls-3{fill:#ed1e79;}</style>
    </defs>
    <path class="cls-1"
          d="M65.46,84.82A18.47,18.47,0,1,1,77,52l-9.15,7.92L92,63.44l0-24.38-8.47,7.33a26.86,26.86,0,1,0,7.3,29.08L82.16,74.2A18.49,18.49,0,0,1,65.46,84.82Z"/>
    <rect class="cls-2" x="38.2" y="6.78" width="22.41" height="22.41" rx="6.71"/>
    <rect class="cls-1" x="6.84" y="6.78" width="22.41" height="22.41" rx="6.71"/>
    <rect class="cls-1" x="6.84" y="70.81" width="22.41" height="22.41" rx="6.71"/>
    <path class="cls-3"
          d="M17.69,57.24a7.46,7.46,0,1,1,0-14.91A7.36,7.36,0,0,1,22.34,44l-3.69,3.2,9.73,1.43,0-9.84-3.42,3a10.84,10.84,0,1,0,2.95,11.74L24.42,53A7.45,7.45,0,0,1,17.69,57.24Z"/>
    <path class="cls-3"
          d="M80.83,25.52a7.46,7.46,0,1,1,4.66-13.26l-3.7,3.2,9.74,1.43,0-9.83-3.42,3a10.84,10.84,0,1,0,3,11.74l-3.47-.51A7.46,7.46,0,0,1,80.83,25.52Z"/>
</svg>