<svg xmlns="http://www.w3.org/2000/svg" viewBox="0 0 100 100">
    <defs>
        <style>.cls-1{opacity:0.5;}.cls-2{fill:#fff;}</style>
    </defs>
    <g id="icons">
        <g class="cls-1">
            <polyline points="83.98 65.67 92.14 70.43 72.64 81.81 53.14 70.43 61.3 65.67"/>
            <path class="cls-2"
                  d="M72.64,83.3a1.53,1.53,0,0,1-.75-.2L52.39,71.72a1.49,1.49,0,0,1-.74-1.29,1.47,1.47,0,0,1,.74-1.28l8.15-4.76L62.05,67l-6,3.47,16.55,9.66,16.54-9.66-6-3.47,1.5-2.58,8.16,4.77a1.47,1.47,0,0,1,.74,1.28,1.49,1.49,0,0,1-.74,1.29L73.39,83.1A1.53,1.53,0,0,1,72.64,83.3Z"/>
            <polyline class="cls-2" points="83.97 55.95 92.14 60.72 72.64 72.1 53.14 60.72 61.69 55.73"/>
            <path d="M72.64,73.59a1.44,1.44,0,0,1-.75-.21L52.39,62a1.47,1.47,0,0,1-.74-1.28,1.49,1.49,0,0,1,.74-1.29l8.55-5L62.44,57l-6.35,3.71,16.55,9.65,16.54-9.65-6-3.48,1.5-2.57,8.17,4.76a1.49,1.49,0,0,1,.74,1.29A1.47,1.47,0,0,1,92.89,62L73.39,73.38A1.44,1.44,0,0,1,72.64,73.59Z"/>
            <polygon class="cls-2" points="72.64 62.41 53.14 51.03 72.64 39.65 92.14 51.03 72.64 62.41"/>
            <path d="M72.64,63.9a1.53,1.53,0,0,1-.75-.2L52.39,52.32A1.49,1.49,0,0,1,51.65,51a1.47,1.47,0,0,1,.74-1.28l19.5-11.39a1.49,1.49,0,0,1,1.5,0l19.5,11.39A1.47,1.47,0,0,1,93.63,51a1.49,1.49,0,0,1-.74,1.29L73.39,63.7A1.53,1.53,0,0,1,72.64,63.9ZM56.09,51l16.55,9.66L89.18,51,72.64,41.37Z"/>
        </g>
        <polyline points="61.16 57.6 74.85 65.59 42.11 84.7 9.37 65.59 23.06 57.6"/>
        <path class="cls-2"
              d="M42.11,87.2a2.49,2.49,0,0,1-1.26-.34L8.11,67.75a2.49,2.49,0,0,1,0-4.31l13.69-8,2.52,4.32-10,5.83L42.11,81.81,69.89,65.59l-10-5.83,2.52-4.32,13.69,8a2.49,2.49,0,0,1,0,4.31L43.37,86.86A2.46,2.46,0,0,1,42.11,87.2Z"/>
        <polyline class="cls-2" points="61.14 41.28 74.85 49.28 42.11 68.39 9.37 49.28 23.72 40.91"/>
        <path d="M42.11,70.89a2.49,2.49,0,0,1-1.26-.34L8.11,51.44a2.49,2.49,0,0,1,0-4.31l14.35-8.38L25,43.07,14.33,49.29,42.11,65.5,69.89,49.29l-10-5.85,2.52-4.32,13.71,8a2.49,2.49,0,0,1,0,4.31L43.37,70.55A2.46,2.46,0,0,1,42.11,70.89Z"/>
        <polygon class="cls-2" points="42.11 52.13 9.37 33.02 42.11 13.91 74.85 33.02 42.11 52.13"/>
        <path d="M42.11,54.63a2.49,2.49,0,0,1-1.26-.34L8.11,35.18a2.5,2.5,0,0,1,0-4.32L40.85,11.75a2.52,2.52,0,0,1,2.52,0L76.11,30.86a2.5,2.5,0,0,1,0,4.32L43.37,54.29A2.46,2.46,0,0,1,42.11,54.63ZM14.33,33,42.11,49.24,69.89,33,42.11,16.8Z"/>
    </g>
</svg>