<?xml version="1.0" encoding="UTF-8"?>
<svg id="icons" xmlns="http://www.w3.org/2000/svg" viewBox="0 0 100 100">
  <defs>
    <style>
      .cls-1 {
        fill: #ffa627;
      }
    </style>
  </defs>
  <path d="M51.99,28.86c6.23,0,11.28,5.05,11.28,11.28,0,.92-.12,1.8-.33,2.65,1.91-1.02,3.04-2.91,3.04-6.42,0-8.82-7.15-15.97-15.97-15.97s-15.97,7.15-15.97,15.97c0,5.62,2.9,7.11,7.29,7.46-.4-1.16-.63-2.4-.63-3.69,0-6.23,5.05-11.28,11.28-11.28Z"/>
  <path d="M75.58,40.27c0-5.42-1.83-10.41-4.9-14.39,1.87,3.38,2.93,7.26,2.93,11.39,0,13.03-23.59,45.91-23.59,45.91,0,0-1.87-2.6-4.55-6.63,3.69,5.69,6.52,9.63,6.52,9.63,0,0,23.59-32.88,23.59-45.91Z"/>
  <path class="cls-1" d="M70.67,25.88c-4.02-7.27-11.76-12.2-20.66-12.2-13.03,0-23.59,10.56-23.59,23.59,0,9.37,12.19,28.99,19.05,39.29,2.68,4.03,4.55,6.63,4.55,6.63,0,0,23.59-32.88,23.59-45.91,0-4.13-1.07-8.01-2.93-11.39ZM62.94,42.8c-2.9,1.55-7.61,1.06-12.93,1.06-3.2,0-6.18.17-8.68-.02-4.39-.34-7.29-1.84-7.29-7.46,0-8.82,7.15-15.97,15.97-15.97s15.97,7.15,15.97,15.97c0,3.5-1.13,5.4-3.04,6.42Z"/>
</svg>