<?xml version="1.0" encoding="UTF-8"?>
<svg xmlns="http://www.w3.org/2000/svg" viewBox="0 0 100 100">
  <defs>
    <style>
      .cls-1 {
        fill: #fff;
      }

      .cls-2 {
        fill: #4d8dfc;
      }

      .cls-3 {
        opacity: .5;
      }

      .cls-4 {
        opacity: .7;
      }
    </style>
  </defs>
  <g id="Layer_25" data-name="Layer 25">
    <g class="cls-3">
      <path class="cls-2" d="M58.21,68.23c-.37-.5-.83-.94-1.39-1.3-.39-.25-.8-.44-1.22-.58-.56-.19-1.14-.3-1.74-.3-.38,0-.77.04-1.15.12-1.43.3-2.65,1.15-3.44,2.37-.79,1.22-1.06,2.68-.76,4.11s1.15,2.65,2.37,3.44c1.22.79,2.68,1.06,4.11.76,1.43-.3,2.65-1.15,3.44-2.37.28-.44.49-.9.63-1.37.32-1.06.31-2.17,0-3.2-.18-.6-.48-1.17-.86-1.68Z"/>
      <path class="cls-2" d="M94.34,66.93c-.89-.58-1.92-.88-2.96-.88-.38,0-.77.04-1.15.12-.05.01-.1.03-.15.04-1.07.26-2.02.83-2.75,1.63-.2.22-.38.45-.54.7-.28.43-.49.89-.64,1.37-.27.88-.32,1.82-.12,2.74.03.16.08.31.12.46.37,1.23,1.16,2.28,2.25,2.98,1.22.79,2.68,1.06,4.11.76,1.43-.3,2.65-1.15,3.44-2.37,1.64-2.53.92-5.91-1.61-7.55Z"/>
      <path d="M76.59,34.94h2.66c-.42-.41-.87-.78-1.37-1.1-3.47-2.25-7.96-1.69-10.79,1.1h9.51Z"/>
      <path d="M67.88,69.91h-5.53c-.32-1.71-1.14-3.31-2.43-4.58l4.88-8.22,3.08,3.57v-.32l-2.97-3.44-2.14-2.48-10.69-12.38c.15.38.36.74.66,1.08l9.88,11.44c-.07.08-.13.16-.18.25l-5.18,8.72c-1.63-.7-3.44-.89-5.21-.51-2.26.48-4.2,1.82-5.46,3.76-1.26,1.94-1.69,4.26-1.2,6.52.48,2.26,1.82,4.2,3.76,5.46,1.42.92,3.04,1.4,4.69,1.4.61,0,1.22-.06,1.82-.19,2.26-.48,4.2-1.82,5.46-3.76.63-.98,1.04-2.03,1.24-3.11h5.56c-.02-.21-.04-.41-.04-.62v-2.58ZM59.07,73.11c-.14.47-.35.94-.63,1.37-.79,1.22-2.02,2.07-3.44,2.37-1.43.31-2.89.03-4.11-.76-1.22-.79-2.07-2.02-2.37-3.44s-.03-2.89.76-4.11c.79-1.22,2.02-2.07,3.44-2.37.38-.08.77-.12,1.15-.12.59,0,1.18.11,1.74.3.42.14.84.33,1.22.58.55.36,1.01.8,1.39,1.3.39.51.68,1.08.86,1.68.31,1.03.32,2.14,0,3.2Z"/>
      <path d="M96.09,64.25c-1.94-1.26-4.26-1.69-6.52-1.2-.4.08-.78.2-1.16.34l-3.66-6.17,12.14-14.07c1.56-1.8,1.03-4.33-.64-5.56.38,1.18.2,2.54-.74,3.64l-12.06,13.98-2.14,2.48-2.6,3.02v11.79h0c0,.21-.02.42-.04.63-.31,2.69-2.6,4.79-5.37,4.79-1.39,0-2.65-.53-3.61-1.39.82,1.94,2.75,3.31,4.99,3.31,2.99,0,5.41-2.42,5.41-5.41v-1.3h2.78c.01.07.02.14.03.21.48,2.26,1.82,4.2,3.76,5.46,1.42.92,3.04,1.4,4.69,1.4.61,0,1.22-.06,1.82-.19,2.26-.48,4.2-1.82,5.46-3.76,2.6-4.01,1.45-9.38-2.56-11.98ZM84.11,66.8c-.62.96-1.04,2.02-1.25,3.11h-2.77v-7.29l2.46-2.85,3.11,5.24c-.59.52-1.11,1.11-1.55,1.79ZM95.96,74.48c-.79,1.22-2.02,2.07-3.44,2.37-1.43.31-2.89.03-4.11-.76-1.09-.71-1.87-1.75-2.25-2.98-.05-.15-.09-.3-.12-.46-.2-.92-.15-1.86.12-2.74.15-.48.36-.94.64-1.37.16-.25.35-.48.54-.7.73-.81,1.68-1.37,2.75-1.63.05-.01.1-.03.15-.04.38-.08.77-.12,1.15-.12,1.04,0,2.06.3,2.96.88,2.53,1.64,3.25,5.03,1.61,7.55Z"/>
      <path d="M76.73,73.11c.04-.2.06-.41.06-.62,0-1.02-.44-1.94-1.14-2.58-.62-.57-1.45-.92-2.35-.92s-1.73.35-2.35.92c-.7.64-1.14,1.56-1.14,2.58,0,.21.02.42.06.62.3,1.63,1.72,2.87,3.43,2.87s3.14-1.24,3.43-2.87Z"/>
      <path class="cls-1" d="M78.67,73.11c.02-.21.04-.41.04-.62h0v-11.79l2.6-3.02,2.14-2.48,12.06-13.98c.95-1.1,1.12-2.46.74-3.64-.47-1.47-1.81-2.65-3.62-2.65h-38.4c-3.25,0-5,3.82-2.88,6.28l.72.84,10.69,12.38,2.14,2.48,2.97,3.44v12.13c0,.21.02.42.04.62.16,1.35.81,2.54,1.77,3.4.96.86,2.22,1.39,3.61,1.39,2.78,0,5.06-2.09,5.37-4.79ZM69.86,73.11c-.04-.2-.06-.41-.06-.62,0-1.02.44-1.94,1.14-2.58.62-.57,1.44-.92,2.35-.92s1.73.35,2.35.92c.7.64,1.14,1.56,1.14,2.58,0,.21-.02.42-.06.62-.3,1.63-1.72,2.87-3.43,2.87s-3.14-1.24-3.43-2.87Z"/>
    </g>
  </g>
  <g id="icons_50" data-name="icons 50">
    <g class="cls-4">
      <path class="cls-2" d="M42.61,68.21c-.47-.62-1.04-1.18-1.73-1.62-.48-.31-1-.55-1.53-.73-.7-.24-1.43-.37-2.17-.37-.48,0-.96.05-1.44.15-1.78.38-3.31,1.43-4.3,2.96-.99,1.53-1.33,3.35-.95,5.14.38,1.78,1.43,3.31,2.96,4.3,1.53.99,3.35,1.33,5.14.95,1.78-.38,3.31-1.43,4.3-2.96.35-.54.61-1.12.79-1.71.4-1.32.39-2.71,0-4-.23-.75-.59-1.46-1.08-2.1Z"/>
      <path class="cls-2" d="M87.78,66.59c-1.12-.73-2.4-1.1-3.7-1.1-.48,0-.96.05-1.44.15-.06.01-.12.03-.18.05-1.34.32-2.53,1.03-3.44,2.04-.25.27-.48.56-.68.87-.35.54-.61,1.12-.8,1.71-.34,1.1-.4,2.27-.15,3.42.04.2.09.39.15.58.47,1.53,1.45,2.84,2.81,3.73,1.53.99,3.36,1.33,5.14.95,1.78-.38,3.31-1.43,4.3-2.96,2.05-3.16,1.14-7.39-2.01-9.44Z"/>
      <path d="M65.59,26.6h3.32c-.52-.51-1.09-.97-1.72-1.38-4.34-2.81-9.95-2.11-13.49,1.38h11.88Z"/>
      <path d="M54.7,70.31h-6.91c-.4-2.13-1.43-4.14-3.03-5.72l6.1-10.27,3.85,4.46v-.4l-3.71-4.29-2.68-3.1-13.36-15.48c.19.47.46.93.82,1.36l12.34,14.3c-.08.09-.16.2-.23.31l-6.47,10.91c-2.04-.88-4.3-1.12-6.52-.64-2.83.6-5.25,2.27-6.83,4.7-1.57,2.43-2.11,5.32-1.5,8.15.6,2.83,2.27,5.25,4.7,6.83,1.78,1.15,3.8,1.75,5.87,1.75.76,0,1.52-.08,2.28-.24,2.83-.6,5.25-2.27,6.82-4.7.79-1.22,1.3-2.54,1.55-3.89h6.95c-.03-.26-.05-.52-.05-.78v-3.22ZM43.69,74.31c-.18.59-.44,1.17-.79,1.71-.99,1.53-2.52,2.58-4.3,2.96-1.78.38-3.61.04-5.14-.95-1.53-.99-2.58-2.52-2.96-4.3-.38-1.78-.04-3.61.95-5.14.99-1.53,2.52-2.58,4.3-2.96.48-.1.96-.15,1.44-.15.74,0,1.47.14,2.17.37.53.18,1.04.41,1.53.73.69.45,1.26,1,1.73,1.62.48.64.85,1.35,1.08,2.1.39,1.29.4,2.68,0,4Z"/>
      <path d="M89.95,63.23c-2.43-1.57-5.32-2.11-8.15-1.5-.5.11-.97.26-1.44.43l-4.57-7.71,15.18-17.59c1.95-2.25,1.29-5.41-.8-6.95.47,1.47.26,3.18-.93,4.55l-15.08,17.47-2.68,3.1-3.25,3.77v14.73h0c0,.27-.02.53-.05.78-.39,3.37-3.25,5.99-6.72,5.99-1.73,0-3.31-.66-4.51-1.73,1.03,2.43,3.43,4.13,6.23,4.13,3.74,0,6.77-3.03,6.77-6.77v-1.62h3.48c.02.09.02.17.04.26.6,2.83,2.27,5.25,4.7,6.82,1.78,1.15,3.8,1.75,5.87,1.75.76,0,1.52-.08,2.28-.24,2.83-.6,5.25-2.27,6.83-4.7,3.25-5.01,1.81-11.73-3.19-14.97ZM74.98,66.42c-.78,1.2-1.3,2.52-1.56,3.89h-3.46v-9.11l3.08-3.56,3.89,6.55c-.73.65-1.39,1.39-1.94,2.24ZM89.79,76.03c-.99,1.53-2.52,2.58-4.3,2.96-1.78.38-3.61.04-5.14-.95-1.36-.88-2.34-2.19-2.81-3.73-.06-.19-.11-.38-.15-.58-.25-1.15-.19-2.33.15-3.42.18-.6.45-1.17.8-1.71.2-.31.43-.6.68-.87.91-1.01,2.1-1.72,3.44-2.04.06-.01.12-.03.18-.05.48-.1.96-.15,1.44-.15,1.3,0,2.58.37,3.7,1.1,3.16,2.05,4.06,6.28,2.01,9.44Z"/>
      <path d="M65.76,74.31c.05-.25.07-.51.07-.78,0-1.27-.55-2.42-1.43-3.22-.78-.71-1.81-1.15-2.94-1.15s-2.16.44-2.94,1.15c-.87.8-1.43,1.94-1.43,3.22,0,.27.03.53.07.78.37,2.04,2.15,3.59,4.29,3.59s3.92-1.55,4.29-3.59Z"/>
      <path class="cls-1" d="M68.18,74.31c.03-.26.05-.52.05-.78h0v-14.73l3.25-3.77,2.68-3.1,15.08-17.47c1.18-1.37,1.4-3.07.93-4.55-.59-1.84-2.27-3.31-4.52-3.31h-48c-4.07,0-6.25,4.78-3.6,7.86l.9,1.04,13.36,15.48,2.68,3.1,3.71,4.29v15.16c0,.26.02.52.05.78.19,1.69,1.01,3.18,2.21,4.25,1.2,1.07,2.77,1.73,4.51,1.73,3.47,0,6.33-2.62,6.72-5.99ZM57.17,74.31c-.05-.25-.07-.51-.07-.78,0-1.27.55-2.42,1.43-3.22.78-.71,1.81-1.15,2.94-1.15s2.16.44,2.94,1.15c.87.8,1.43,1.94,1.43,3.22,0,.27-.03.53-.07.78-.37,2.04-2.15,3.59-4.29,3.59s-3.92-1.55-4.29-3.59Z"/>
    </g>
  </g>
  <g id="Layer_5" data-name="Layer 5">
    <g>
      <path class="cls-2" d="M22.11,68.93c-.58-.78-1.3-1.47-2.16-2.03-.6-.39-1.25-.68-1.91-.91-.88-.3-1.79-.47-2.72-.47-.6,0-1.2.06-1.8.19-2.23.48-4.14,1.79-5.38,3.7-1.24,1.91-1.66,4.19-1.19,6.42s1.79,4.14,3.7,5.38c1.91,1.24,4.19,1.66,6.42,1.19,2.23-.48,4.14-1.79,5.38-3.7.44-.68.77-1.4.99-2.14.51-1.65.49-3.39,0-5-.29-.94-.74-1.83-1.34-2.63Z"/>
      <path class="cls-2" d="M78.57,66.9c-1.4-.91-3-1.38-4.62-1.38-.6,0-1.2.06-1.8.19-.08.02-.15.04-.23.06-1.68.41-3.16,1.29-4.3,2.55-.31.34-.6.7-.85,1.09-.44.67-.77,1.39-1,2.14-.42,1.37-.5,2.84-.19,4.28.05.24.12.48.19.72.58,1.92,1.81,3.56,3.51,4.66,1.91,1.24,4.19,1.66,6.42,1.19,2.23-.48,4.14-1.79,5.38-3.7,2.56-3.95,1.43-9.24-2.52-11.8Z"/>
      <path d="M50.83,16.92h4.15c-.65-.64-1.36-1.22-2.15-1.72-5.42-3.51-12.44-2.64-16.86,1.72h14.86Z"/>
      <path d="M37.22,71.56h-8.64c-.5-2.67-1.79-5.18-3.79-7.15l7.62-12.84,4.81,5.57v-.5l-4.63-5.37-3.35-3.88L12.54,28.05c.24.59.57,1.16,1.03,1.69l15.43,17.88c-.1.12-.2.24-.28.38l-8.09,13.63c-2.55-1.1-5.37-1.4-8.15-.8-3.54.75-6.57,2.84-8.53,5.87-1.97,3.03-2.63,6.65-1.88,10.18.75,3.54,2.84,6.56,5.87,8.53,2.22,1.44,4.75,2.18,7.33,2.18.95,0,1.9-.1,2.85-.3,3.54-.75,6.57-2.84,8.53-5.87.99-1.52,1.62-3.18,1.94-4.86h8.69c-.04-.32-.06-.65-.06-.98v-4.02ZM23.46,76.56c-.23.74-.55,1.46-.99,2.14-1.24,1.91-3.15,3.23-5.38,3.7-2.23.48-4.51.05-6.42-1.19-1.91-1.24-3.23-3.15-3.7-5.38s-.05-4.51,1.19-6.42c1.24-1.91,3.15-3.23,5.38-3.7.6-.13,1.2-.19,1.8-.19.93,0,1.84.17,2.72.47.66.23,1.31.52,1.91.91.86.56,1.58,1.25,2.16,2.03.6.8,1.06,1.69,1.34,2.63.49,1.61.51,3.35,0,5Z"/>
      <path d="M81.29,62.71c-3.03-1.97-6.65-2.63-10.19-1.88-.62.13-1.22.32-1.8.53l-5.72-9.64,18.98-21.98c2.43-2.82,1.61-6.77-1-8.68.59,1.84.32,3.97-1.16,5.68l-18.85,21.84-3.35,3.88-4.07,4.71v18.42h0c0,.33-.02.66-.06.98-.48,4.21-4.06,7.48-8.4,7.48-2.17,0-4.14-.82-5.64-2.17,1.28,3.04,4.29,5.17,7.79,5.17,4.67,0,8.46-3.79,8.46-8.46v-2.02h4.35c.02.11.03.22.05.32.75,3.53,2.84,6.56,5.87,8.53,2.22,1.44,4.75,2.18,7.33,2.18.95,0,1.9-.1,2.85-.3,3.54-.75,6.57-2.84,8.53-5.87,4.06-6.26,2.27-14.66-3.99-18.72ZM62.57,66.7c-.98,1.5-1.63,3.15-1.95,4.86h-4.33v-11.39l3.84-4.45,4.86,8.19c-.92.81-1.74,1.74-2.42,2.8ZM81.09,78.71c-1.24,1.91-3.15,3.23-5.38,3.7-2.23.48-4.51.05-6.42-1.19-1.7-1.1-2.93-2.74-3.51-4.66-.07-.24-.14-.48-.19-.72-.31-1.44-.23-2.91.19-4.28.23-.75.56-1.47,1-2.14.25-.39.54-.75.85-1.09,1.14-1.26,2.62-2.14,4.3-2.55.08-.02.15-.04.23-.06.6-.13,1.2-.19,1.8-.19,1.63,0,3.23.47,4.62,1.38,3.95,2.56,5.08,7.85,2.52,11.8Z"/>
      <path d="M51.05,76.56c.06-.32.09-.64.09-.98,0-1.59-.69-3.03-1.78-4.02-.97-.89-2.26-1.43-3.67-1.43s-2.7.55-3.67,1.43c-1.09,1-1.78,2.43-1.78,4.02,0,.33.03.66.09.98.46,2.54,2.69,4.48,5.36,4.48s4.9-1.94,5.37-4.48Z"/>
      <path class="cls-1" d="M54.08,76.56c.04-.32.06-.65.06-.98h0v-18.42l4.07-4.71,3.35-3.88,18.85-21.84c1.48-1.71,1.75-3.84,1.16-5.68-.74-2.3-2.83-4.14-5.65-4.14H15.91c-5.08,0-7.82,5.97-4.5,9.82l1.13,1.31,16.7,19.35,3.35,3.88,4.63,5.37v18.95c0,.33.02.66.06.98.24,2.11,1.26,3.97,2.76,5.32,1.5,1.34,3.47,2.17,5.64,2.17,4.34,0,7.91-3.27,8.4-7.48ZM40.31,76.56c-.06-.32-.09-.64-.09-.98,0-1.59.69-3.03,1.78-4.02.97-.89,2.26-1.43,3.67-1.43s2.7.55,3.67,1.43c1.09,1,1.78,2.43,1.78,4.02,0,.33-.03.66-.09.98-.46,2.54-2.69,4.48-5.37,4.48s-4.9-1.94-5.36-4.48Z"/>
    </g>
  </g>
</svg>