<svg id="icons" xmlns="http://www.w3.org/2000/svg" viewBox="0 0 100 100"><defs><style>.cls-1{fill:#fff;}</style></defs><path class="cls-1" d="M72.78,75.28H27.22a2.49,2.49,0,0,1-2.5-2.5V27.22a2.5,2.5,0,0,1,2.5-2.5H72.78a2.49,2.49,0,0,1,2.5,2.5V72.78A2.49,2.49,0,0,1,72.78,75.28ZM27.44,72.56H72.56V27.44H27.44Z"/><path d="M72.78,42.81h0A2.47,2.47,0,0,1,71,42.07L57.93,29a2.49,2.49,0,0,1,0-3.53L71,12.36a2.56,2.56,0,0,1,3.53,0L87.64,25.45a2.49,2.49,0,0,1,0,3.53L74.55,42.07A2.5,2.5,0,0,1,72.78,42.81ZM63.23,27.22l9.55,9.55,9.56-9.55-9.56-9.56Z"/><rect class="cls-1" x="63.53" y="17.96" width="18.51" height="18.51" transform="translate(2.07 59.44) rotate(-45)"/></svg>