<?xml version="1.0" encoding="UTF-8"?>
<svg xmlns="http://www.w3.org/2000/svg" viewBox="0 0 100 100">
  <defs>
    <style>
      .cls-1 {
        fill: #fff;
      }

      .cls-2 {
        fill: #4d8dfc;
      }

      .cls-3 {
        opacity: .5;
      }

      .cls-4 {
        opacity: .7;
      }
    </style>
  </defs>
  <g id="Layer_25" data-name="Layer 25">
    <g class="cls-3">
      <path d="M53.6,43.75l15.14,17.54v-.32l-15.8-18.3c.15.38.36.74.66,1.08ZM97.11,38.19c.38,1.18.2,2.54-.74,3.64l-16.81,19.47v11.79c0,2.99-2.42,5.41-5.41,5.41-1.39,0-2.65-.53-3.61-1.39.82,1.94,2.75,3.31,4.99,3.31,2.99,0,5.41-2.42,5.41-5.41v-11.79l16.81-19.47c1.56-1.8,1.03-4.33-.64-5.56ZM83.66,47.64c1.93,0,3.49-1.57,3.49-3.49s-1.57-3.49-3.49-3.49-3.49,1.57-3.49,3.49,1.57,3.49,3.49,3.49ZM74.37,47.64c1.93,0,3.49-1.57,3.49-3.49s-1.57-3.49-3.49-3.49-3.49,1.57-3.49,3.49,1.57,3.49,3.49,3.49ZM64.94,47.64c1.93,0,3.49-1.57,3.49-3.49s-1.57-3.49-3.49-3.49-3.49,1.57-3.49,3.49,1.57,3.49,3.49,3.49Z"/>
      <path class="cls-1" d="M97.11,38.19c-.47-1.47-1.81-2.65-3.62-2.65h-38.4c-3.25,0-5,3.82-2.88,6.28l.72.84,15.8,18.3v12.13c0,1.6.7,3.04,1.8,4.03.96.86,2.22,1.39,3.61,1.39,2.99,0,5.41-2.42,5.41-5.41v-11.79l16.81-19.47c.95-1.1,1.12-2.46.74-3.64ZM83.66,47.64c-1.93,0-3.49-1.57-3.49-3.49s1.57-3.49,3.49-3.49,3.49,1.57,3.49,3.49-1.57,3.49-3.49,3.49ZM77.87,44.15c0,1.93-1.57,3.49-3.49,3.49s-3.49-1.57-3.49-3.49,1.57-3.49,3.49-3.49,3.49,1.57,3.49,3.49ZM64.94,40.66c1.93,0,3.49,1.57,3.49,3.49s-1.57,3.49-3.49,3.49-3.49-1.57-3.49-3.49,1.57-3.49,3.49-3.49Z"/>
    </g>
  </g>
  <g id="icons_50" data-name="icons 50">
    <g class="cls-4">
      <path d="M36.25,37.19l18.92,21.92v-.4l-19.75-22.87c.19.47.46.93.82,1.36ZM90.65,30.24c.47,1.47.26,3.18-.93,4.55l-21.01,24.34v14.73c0,3.74-3.03,6.77-6.77,6.77-1.74,0-3.31-.66-4.51-1.73,1.03,2.43,3.43,4.13,6.23,4.13,3.74,0,6.77-3.03,6.77-6.77v-14.73l21.01-24.34c1.95-2.25,1.29-5.41-.8-6.95ZM73.82,42.06c2.41,0,4.37-1.96,4.37-4.37s-1.96-4.37-4.37-4.37-4.37,1.96-4.37,4.37,1.96,4.37,4.37,4.37ZM62.22,42.06c2.41,0,4.37-1.96,4.37-4.37s-1.96-4.37-4.37-4.37-4.37,1.96-4.37,4.37,1.96,4.37,4.37,4.37ZM50.42,42.06c2.41,0,4.37-1.96,4.37-4.37s-1.96-4.37-4.37-4.37-4.37,1.96-4.37,4.37,1.96,4.37,4.37,4.37Z"/>
      <path class="cls-1" d="M90.65,30.24c-.59-1.84-2.27-3.31-4.52-3.31h-48c-4.07,0-6.25,4.78-3.6,7.86l.9,1.04,19.75,22.87v15.16c0,2,.87,3.79,2.26,5.03,1.2,1.07,2.77,1.73,4.51,1.73,3.74,0,6.77-3.03,6.77-6.77v-14.73l21.01-24.34c1.18-1.37,1.4-3.07.93-4.55ZM73.82,42.06c-2.41,0-4.37-1.96-4.37-4.37s1.96-4.37,4.37-4.37,4.37,1.96,4.37,4.37-1.96,4.37-4.37,4.37ZM66.59,37.69c0,2.41-1.96,4.37-4.37,4.37s-4.37-1.96-4.37-4.37,1.96-4.37,4.37-4.37,4.37,1.96,4.37,4.37ZM50.42,33.33c2.41,0,4.37,1.96,4.37,4.37s-1.96,4.37-4.37,4.37-4.37-1.96-4.37-4.37,1.96-4.37,4.37-4.37Z"/>
    </g>
  </g>
  <g id="Layer_5" data-name="Layer 5">
    <g>
      <path d="M13.57,28.74l23.65,27.4v-.5L12.54,27.05c.24.59.57,1.16,1.03,1.69ZM81.56,20.06c.59,1.84.32,3.97-1.16,5.68l-26.27,30.43v18.42c0,4.67-3.79,8.46-8.46,8.46-2.17,0-4.14-.82-5.64-2.17,1.28,3.04,4.29,5.17,7.79,5.17,4.67,0,8.46-3.79,8.46-8.46v-18.42l26.27-30.43c2.43-2.82,1.61-6.77-1-8.68ZM60.53,34.83c3.01,0,5.46-2.45,5.46-5.46s-2.45-5.46-5.46-5.46-5.46,2.45-5.46,5.46,2.45,5.46,5.46,5.46ZM46.03,34.83c3.01,0,5.46-2.45,5.46-5.46s-2.45-5.46-5.46-5.46-5.46,2.45-5.46,5.46,2.45,5.46,5.46,5.46ZM31.28,34.83c3.01,0,5.46-2.45,5.46-5.46s-2.45-5.46-5.46-5.46-5.46,2.45-5.46,5.46,2.45,5.46,5.46,5.46Z"/>
      <path class="cls-1" d="M81.56,20.06c-.74-2.3-2.83-4.14-5.65-4.14H15.91c-5.08,0-7.82,5.97-4.5,9.82l1.13,1.31,24.68,28.59v18.95c0,2.5,1.09,4.74,2.82,6.29,1.5,1.34,3.47,2.17,5.64,2.17,4.67,0,8.46-3.79,8.46-8.46v-18.42l26.27-30.43c1.48-1.71,1.75-3.84,1.16-5.68ZM60.53,34.83c-3.01,0-5.46-2.45-5.46-5.46s2.45-5.46,5.46-5.46,5.46,2.45,5.46,5.46-2.45,5.46-5.46,5.46ZM51.49,29.37c0,3.01-2.45,5.46-5.46,5.46s-5.46-2.45-5.46-5.46,2.45-5.46,5.46-5.46,5.46,2.45,5.46,5.46ZM31.28,23.91c3.01,0,5.46,2.45,5.46,5.46s-2.45,5.46-5.46,5.46-5.46-2.45-5.46-5.46,2.45-5.46,5.46-5.46Z"/>
    </g>
    <path d="M45.68,78.05c-1.08,0-1.85-.48-2.3-.89-.43-.39-1.16-1.24-1.16-2.57v-20.81L15.2,22.47c-.1-.11-.39-.46-.14-1s.7-.55.85-.55h60c.56,0,.8.36.89.67.16.49-.08.76-.18.88l-27.48,31.84v20.28c0,1.91-1.55,3.46-3.46,3.46Z"/>
    <path class="cls-2" d="M49.14,54.31v20.28c0,1.91-1.55,3.46-3.46,3.46-1.08,0-1.85-.48-2.3-.89-.43-.39-1.16-1.24-1.16-2.57v-20.81"/>
  </g>
</svg>