<svg xmlns="http://www.w3.org/2000/svg" viewBox="0 0 100 100"><defs><style>.cls-1{fill:#4d8dfc;}</style></defs><g id="Layer_5" data-name="Layer 5"><path d="M59.33,14.2a13.54,13.54,0,0,0-18.71,4,13.51,13.51,0,0,0,0,14.76l1.46-2.47,1.63-2.74,3.5-5.92h8.6l4.07,6.86,1.51,2.54,1.41,2.38c.17-.23.34-.45.5-.69a13.52,13.52,0,0,0-4-18.71Zm-7.79,20L50.2,36.44l-1.35,2.28a13.39,13.39,0,0,0,3.09.37,13.7,13.7,0,0,0,2.38-.23l-1.38-2.33ZM93.66,70.24A13.51,13.51,0,0,0,78.32,59.71l1.4,2.36,1.49,2.51,3.52,5.93-4.3,7.55H67.86A13.53,13.53,0,0,0,80.4,86.6a13.8,13.8,0,0,0,2.85-.3A13.53,13.53,0,0,0,93.66,70.24ZM71.11,67.16l-1.39-2.35c-.23.29-.45.58-.65.89a14.28,14.28,0,0,0-1.22,2.36h3.8ZM33,65.45l-1.45,2.44-.1.17h2.93A13.29,13.29,0,0,0,33,65.45ZM18.36,70.51l3.55-6,1.41-2.38,1.37-2.3A13.53,13.53,0,1,0,21.78,86.6a13.8,13.8,0,0,0,2.85-.3,13.49,13.49,0,0,0,8.53-5.87,13.29,13.29,0,0,0,1.22-2.37H22.66Z"/><path class="cls-1" d="M81.21,64.58l-1.49-2.51-1.4-2.36L62.83,33.6l-1.41-2.38-1.51-2.54-4.07-6.86h-8.6l-3.5,5.92-1.63,2.74L40.65,33l-16,26.9-1.37,2.3-1.41,2.38-3.55,6,4.3,7.55H80.43l4.3-7.55ZM70.59,68.06H31.44l.1-.17L33,65.45,48.85,38.72l1.35-2.28,1.34-2.27,1.4,2.36,1.38,2.33,15.4,26,1.39,2.35.54.9Z"/></g></svg>