<?xml version="1.0" encoding="UTF-8"?>
<svg xmlns="http://www.w3.org/2000/svg" viewBox="0 0 100 100">
  <defs>
    <style>
      .cls-1 {
        fill: #fffffc;
      }

      .cls-2 {
        fill: #ffa627;
      }

      .cls-3 {
        opacity: .5;
      }

      .cls-4 {
        opacity: .7;
      }
    </style>
  </defs>
  <g id="Layer_25" data-name="Layer 25">
    <g class="cls-3">
      <path d="M53.17,50.16c-.38.38-.91.53-1.41.44-.11.52.03,1.08.43,1.48.62.62,1.64.62,2.26,0l6.15-6.15v-3.2l-7.43,7.43Z"/>
      <path d="M85.4,66.36v-25.57c0-.77-.55-1.42-1.28-1.57v28.42l1.28-1.28Z"/>
      <path d="M73.64,52.55c.41,0,.82-.16,1.13-.47.62-.62.62-1.64,0-2.26l-.81-.81c0,.42-.15.84-.47,1.16-.31.31-.72.47-1.13.47s-.82-.16-1.13-.47l-7.43-7.43v28.77c0,.88-.72,1.6-1.6,1.6-.11,0-.22-.01-.32-.03v.35c0,.88.72,1.6,1.6,1.6s1.6-.72,1.6-1.6v-28.77l7.43,7.43c.31.31.72.47,1.13.47Z"/>
      <path d="M95.1,62.13c-.24-.24-.54-.39-.85-.44-.06.29-.2.56-.43.78l-10.16,10.16c-.07.08-.16.14-.25.2-.04.02-.08.04-.11.06-.05.03-.1.06-.16.08-.05.02-.1.03-.16.05-.05.01-.09.03-.14.04-.1.02-.21.03-.31.03s-.21-.01-.31-.03c-.05,0-.09-.03-.14-.04-.05-.02-.11-.03-.16-.05-.06-.02-.11-.06-.16-.08-.04-.02-.08-.04-.12-.06-.09-.06-.17-.13-.25-.2l-9.35-9.35c0,.4.16.8.47,1.11l10.16,10.16c.07.08.16.14.25.2.04.02.08.04.12.06.05.03.1.06.16.08.05.02.11.03.16.05.05.01.09.03.14.04.1.02.21.03.31.03s.21-.01.31-.03c.05,0,.09-.03.14-.04.05-.02.11-.03.16-.05.06-.02.11-.06.16-.08.04-.02.08-.04.11-.06.09-.06.17-.13.25-.2l10.16-10.16c.62-.62.62-1.64,0-2.26Z"/>
      <path class="cls-2" d="M73.49,47.9l-10.16-10.16c-.07-.08-.16-.14-.25-.2-.04-.02-.08-.04-.11-.06-.05-.03-.11-.06-.16-.09-.05-.02-.1-.03-.16-.05-.05-.01-.09-.03-.14-.04-.21-.04-.42-.04-.63,0-.05,0-.09.03-.14.04-.05.02-.11.03-.16.05-.06.02-.11.06-.16.08-.04.02-.08.04-.11.06-.09.06-.17.13-.25.2l-10.16,10.16c-.62.62-.62,1.64,0,2.26.24.24.54.39.85.44.5.09,1.03-.06,1.41-.44l7.43-7.43v28.77c0,.77.55,1.42,1.28,1.57.1.02.21.03.32.03.88,0,1.6-.72,1.6-1.6v-28.77l7.43,7.43c.31.31.72.47,1.13.47s.82-.16,1.13-.47c.32-.32.47-.74.47-1.16,0-.4-.16-.8-.47-1.11Z"/>
      <path class="cls-1" d="M93.82,60.21c-.62-.62-1.64-.62-2.26,0l-7.43,7.43v-28.77c0-.88-.72-1.6-1.6-1.6s-1.6.72-1.6,1.6v28.77l-7.43-7.43c-.62-.62-1.64-.62-2.26,0s-.62,1.64,0,2.26l.81.81,9.35,9.35c.07.08.16.14.25.2.04.02.08.04.12.06.05.03.1.06.16.08.05.02.1.03.16.05.05.01.09.03.14.04.1.02.21.03.31.03s.21-.01.31-.03c.05,0,.09-.03.14-.04.05-.02.11-.03.16-.05.06-.02.11-.06.16-.08.04-.02.08-.04.11-.06.09-.06.17-.13.25-.2l10.16-10.16c.22-.22.36-.5.43-.78.11-.52-.03-1.08-.43-1.48Z"/>
    </g>
  </g>
  <g id="icons_50" data-name="icons 50">
    <g class="cls-4">
      <path d="M36.21,45.67c-.48.48-1.14.66-1.76.55-.14.64.03,1.35.53,1.85.78.78,2.05.78,2.83,0l7.69-7.69v-4l-9.29,9.29Z"/>
      <path d="M76.5,65.91v-31.96c0-.97-.69-1.77-1.6-1.96v35.52l1.6-1.6Z"/>
      <path d="M61.8,48.65c.51,0,1.02-.2,1.41-.59.78-.78.78-2.05,0-2.83l-1.02-1.02c0,.52-.18,1.05-.58,1.45-.39.39-.9.59-1.41.59s-1.02-.2-1.41-.59l-9.29-9.29v35.96c0,1.1-.9,2-2,2-.14,0-.27-.01-.4-.04v.44c0,1.1.9,2,2,2s2-.9,2-2v-35.96l9.29,9.29c.39.39.9.59,1.41.59Z"/>
      <path d="M88.62,60.62c-.3-.3-.68-.48-1.07-.55-.08.36-.25.7-.53.98l-12.7,12.7c-.09.09-.2.18-.31.25-.05.03-.1.05-.14.08-.07.04-.13.08-.2.11-.06.03-.13.04-.2.06-.06.02-.12.04-.18.05-.13.03-.26.04-.39.04s-.26-.01-.39-.04c-.06-.01-.12-.03-.18-.05-.07-.02-.13-.03-.2-.06-.07-.03-.13-.07-.2-.11-.05-.03-.1-.05-.14-.08-.11-.07-.21-.16-.31-.25l-11.68-11.68c0,.5.2,1,.58,1.38l12.7,12.7c.09.09.2.18.31.25.05.03.1.05.14.08.07.04.13.08.2.11.06.03.13.04.2.06.06.02.11.04.18.05.13.03.26.04.39.04s.26-.01.39-.04c.06-.01.12-.03.18-.05.07-.02.13-.03.2-.06.07-.03.13-.07.2-.11.05-.03.1-.05.14-.08.11-.07.21-.16.31-.25l12.7-12.7c.78-.78.78-2.05,0-2.83Z"/>
      <path class="cls-2" d="M61.61,42.84l-12.7-12.7c-.09-.09-.2-.18-.31-.25-.05-.03-.09-.05-.14-.08-.07-.04-.13-.08-.2-.11-.06-.03-.13-.04-.2-.06-.06-.02-.12-.04-.18-.05-.26-.05-.52-.05-.78,0-.06.01-.12.03-.18.05-.07.02-.13.03-.2.06-.07.03-.14.07-.2.11-.05.03-.1.05-.14.08-.11.07-.21.16-.31.25l-12.7,12.7c-.78.78-.78,2.05,0,2.83.3.3.68.48,1.07.55.62.11,1.28-.07,1.76-.55l9.29-9.29v35.96c0,.97.69,1.77,1.6,1.96.13.03.26.04.4.04,1.1,0,2-.9,2-2v-35.96l9.29,9.29c.39.39.9.59,1.41.59s1.02-.2,1.41-.59c.4-.4.59-.92.58-1.45,0-.5-.2-1-.58-1.38Z"/>
      <path class="cls-1" d="M87.02,58.22c-.78-.78-2.05-.78-2.83,0l-9.29,9.29V31.55c0-1.1-.9-2-2-2s-2,.9-2,2v35.96l-9.29-9.29c-.78-.78-2.05-.78-2.83,0s-.78,2.05,0,2.83l1.02,1.02,11.68,11.68c.09.09.2.18.31.25.05.03.1.05.14.08.07.04.13.08.2.11.06.03.13.04.2.06.06.02.11.04.18.05.13.03.26.04.39.04s.26-.01.39-.04c.06-.01.12-.03.18-.05.07-.02.13-.03.2-.06.07-.03.13-.07.2-.11.05-.03.1-.05.14-.08.11-.07.21-.16.31-.25l12.7-12.7c.28-.28.45-.62.53-.98.14-.64-.03-1.35-.53-1.85Z"/>
    </g>
  </g>
  <g id="Layer_5" data-name="Layer 5">
    <g>
      <path d="M14.01,39.8c-.6.6-1.43.83-2.2.69-.18.81.04,1.68.67,2.31.98.98,2.56.98,3.54,0l9.61-9.61v-5l-11.61,11.61Z"/>
      <path d="M64.38,65.1V25.15c0-1.21-.86-2.22-2-2.45v44.4l2-2Z"/>
      <path d="M46,43.53c.64,0,1.28-.24,1.77-.73.98-.98.98-2.56,0-3.54l-1.27-1.27c.01.65-.23,1.31-.73,1.81-.49.49-1.13.73-1.77.73s-1.28-.24-1.77-.73l-11.61-11.61v44.95c0,1.38-1.12,2.5-2.5,2.5-.17,0-.34-.02-.5-.05v.55c0,1.38,1.12,2.5,2.5,2.5s2.5-1.12,2.5-2.5V31.19l11.61,11.61c.49.49,1.13.73,1.77.73Z"/>
      <path d="M79.52,58.49c-.38-.38-.84-.6-1.33-.69-.1.45-.32.88-.67,1.23l-15.88,15.88c-.12.12-.25.22-.38.31-.06.04-.12.06-.18.1-.08.05-.16.1-.25.13-.08.03-.16.05-.25.08-.07.02-.14.05-.22.07-.16.03-.33.05-.49.05s-.33-.02-.49-.05c-.08-.02-.15-.04-.22-.07-.08-.02-.17-.04-.25-.08-.09-.04-.17-.09-.25-.13-.06-.03-.12-.06-.18-.1-.14-.09-.27-.2-.38-.31l-14.6-14.6c0,.63.25,1.25.73,1.73l15.88,15.88c.12.12.25.22.38.31.06.04.12.06.18.1.08.05.16.1.25.13.08.03.16.05.25.08.07.02.14.05.22.07.16.03.33.05.49.05s.33-.02.49-.05c.08-.02.15-.04.22-.07.08-.02.17-.04.25-.08.09-.04.17-.09.25-.13.06-.03.12-.06.18-.1.14-.09.27-.2.38-.31l15.88-15.88c.98-.98.98-2.56,0-3.54Z"/>
      <path class="cls-2" d="M45.77,36.26l-15.88-15.87c-.12-.12-.25-.22-.38-.31-.06-.04-.12-.06-.18-.1-.08-.05-.16-.1-.25-.13-.08-.03-.16-.05-.24-.08-.07-.02-.15-.05-.22-.07-.32-.06-.66-.06-.98,0-.08.02-.15.04-.22.07-.08.02-.17.04-.24.08-.09.04-.17.09-.25.13-.06.03-.12.06-.18.1-.14.09-.27.2-.38.31l-15.88,15.87c-.98.98-.98,2.56,0,3.54.38.38.84.6,1.33.69.78.14,1.6-.09,2.2-.69l11.61-11.61v44.95c0,1.21.86,2.22,2,2.45.16.03.33.05.5.05,1.38,0,2.5-1.12,2.5-2.5V28.19l11.61,11.61c.49.49,1.13.73,1.77.73s1.28-.24,1.77-.73c.5-.5.74-1.15.73-1.81,0-.63-.25-1.25-.73-1.73Z"/>
      <path class="cls-1" d="M77.52,55.49c-.98-.98-2.56-.98-3.54,0l-11.61,11.61V22.15c0-1.38-1.12-2.5-2.5-2.5s-2.5,1.12-2.5,2.5v44.95l-11.61-11.61c-.98-.98-2.56-.98-3.54,0s-.98,2.56,0,3.54l1.27,1.27,14.6,14.6c.12.12.25.22.38.31.06.04.12.06.18.1.08.05.16.1.25.13.08.03.16.05.25.08.07.02.14.05.22.07.16.03.33.05.49.05s.33-.02.49-.05c.08-.02.15-.04.22-.07.08-.02.17-.04.25-.08.09-.04.17-.09.25-.13.06-.03.12-.06.18-.1.14-.09.27-.2.38-.31l15.88-15.88c.35-.35.57-.78.67-1.23.18-.81-.04-1.68-.67-2.31Z"/>
    </g>
  </g>
</svg>