<svg xmlns="http://www.w3.org/2000/svg" viewBox="0 0 100 100"><defs><style>.cls-1{opacity:0.5;}.cls-2{fill:#ffa627;}.cls-3{fill:#fffffc;}.cls-4{opacity:0.7;}</style></defs><g id="Layer_25" data-name="Layer 25"><g class="cls-1"><path d="M65.09,53.46l0,.32c0,.15,0,.3,0,.45s0,.23,0,.35,0,.28.08.42,0,.23.07.35.06.27.1.41l.09.35.12.4.12.34.15.39c0,.11.09.22.14.33s.11.26.17.38l.15.33.2.37.18.32.22.36c.07.1.13.2.19.3l.27.37a2.48,2.48,0,0,0,.19.26l.19.24-.16-.3-.15-.33c-.06-.12-.12-.25-.17-.38s-.1-.22-.14-.33l-.15-.39L67,58.43l-.12-.4-.09-.35c0-.14-.07-.27-.1-.41s-.05-.23-.07-.35,0-.28-.08-.42,0-.23,0-.35,0-.3,0-.45l0-.32c0-.17,0-.34,0-.52V54.6a6.77,6.77,0,0,1,0-.78s0-.1,0-.15q0-.31.06-.63c0-.1,0-.19,0-.29s0-.29.07-.43l.46-.07.25,0c.23,0,.47-.05.71-.06H68l.79,0h.23l.55,0,.3,0,.48,0,.32.05.44.07.33.07.43.1.33.09.42.13.32.11.42.16.31.13a2.87,2.87,0,0,1,.4.18l.31.14.4.21.28.17c.14.07.27.16.4.24l.27.17.39.28.25.18.41.34.2.16.58.54c.19.19.37.39.54.58l.18.22.13.16,0-.08-.18-.31L78,56l-.19-.29-.27-.37L77.36,55,77,54.63l-.18-.22c-.17-.19-.35-.39-.54-.58l-.58-.54-.2-.16-.41-.34-.25-.18-.39-.28-.27-.17c-.13-.08-.26-.17-.4-.24l-.28-.17-.4-.21-.31-.14a2.87,2.87,0,0,0-.4-.18l-.31-.13-.42-.16-.32-.11L71,50.69l-.33-.09-.43-.1-.33-.07-.44-.07-.32,0-.48-.05-.3,0-.55,0h-.23l-.79,0h-.07c-.24,0-.48,0-.71.06l-.25,0-.46.07c0,.14,0,.29-.07.43s0,.19,0,.29,0,.42-.06.63c0,0,0,.1,0,.15a6.77,6.77,0,0,0,0,.78v.26C65.08,53.12,65.08,53.29,65.09,53.46Zm26-8.55A15.61,15.61,0,0,1,82.41,67.5v0h0a15.67,15.67,0,0,1-25.95,6.18,15.13,15.13,0,0,1-1.3-1.48,16,16,0,0,0,2.58,3.4,15.65,15.65,0,0,0,26-6.18h0v0a15.62,15.62,0,0,0,7.44-24.51ZM76.32,71.47a12.25,12.25,0,0,0,2.31-3.22h-.3l-.7,0h-.79l-.35,0-.46,0-.28,0a15.1,15.1,0,0,1-1.88-.33l-.15,0-.49-.13L73,67.61l-.44-.15-.32-.11-.41-.15-.34-.14-.38-.17-.35-.16-.37-.18a3.9,3.9,0,0,1-.35-.19l-.35-.19L69.28,66l-.32-.2-.37-.25-.29-.2L67.92,65l-.27-.21-.41-.34L67,64.28c-.2-.19-.4-.37-.59-.57s-.44-.46-.65-.69-.13-.16-.2-.23l-.41-.51L65,62l-.36-.51-.19-.28-.36-.58-.13-.22c-.16-.27-.3-.55-.44-.83,0-.05-.05-.11-.08-.16l-.31-.69-.12-.3c-.07-.19-.15-.39-.21-.58l-.12-.33c-.06-.19-.12-.39-.17-.59s-.07-.21-.09-.31-.12-.48-.17-.72c0-.06,0-.13,0-.19-.06-.31-.11-.61-.15-.92l0-.26c0-.22-.05-.45-.07-.67s0-.23,0-.34l0-.61v-.35c0-.21,0-.43,0-.64s0-.21,0-.31v-.1A12.47,12.47,0,1,0,76.32,71.47Z"/><path class="cls-2" d="M91.13,44.91a15.64,15.64,0,0,0-28.48,2.83h0v0a15.65,15.65,0,0,0-7.48,24.47,15.13,15.13,0,0,0,1.3,1.48,15.65,15.65,0,0,0,26-6.18h0v0a15.61,15.61,0,0,0,8.72-22.59ZM58.68,71.47A12.44,12.44,0,0,1,61.9,51.52v.1c0,.1,0,.21,0,.31s0,.43,0,.64v.35l0,.61c0,.11,0,.22,0,.34s0,.45.07.67l0,.26c0,.31.09.61.15.92,0,.06,0,.13,0,.19.05.24.1.48.17.72s.06.21.09.31.11.4.17.59l.12.33c.06.19.14.39.21.58l.12.3.31.69s.05.11.08.16c.14.28.28.56.44.83l.13.22.36.58.19.28L65,62l.21.27.41.51c.07.07.13.15.2.23s.42.47.65.69.39.38.59.57l.21.18.41.34.27.21.38.29.29.2.37.25.32.2.36.22.35.19a3.9,3.9,0,0,0,.35.19l.37.18.35.16.38.17.34.14.41.15.32.11.44.15.28.08.49.13.15,0a15.1,15.1,0,0,0,1.88.33l.28,0,.46,0,.35,0h.79l.7,0h.3a12.25,12.25,0,0,1-2.31,3.22A12.49,12.49,0,0,1,58.68,71.47ZM78.45,56.71q.08.13.15.3a3.18,3.18,0,0,1,.16.32c.06.13.12.25.17.38s.1.23.14.34l.15.39.12.34.12.4.09.35c0,.13.07.27.1.41s0,.23.07.34,0,.29.08.43,0,.23,0,.34,0,.3,0,.45,0,.22,0,.33a4.18,4.18,0,0,1,0,.5,2.72,2.72,0,0,1,0,.28c0,.26,0,.52,0,.78,0,0,0,.1,0,.15,0,.21,0,.42-.06.63s0,.19,0,.29,0,.28-.07.42l-.43.07L79,65a4.53,4.53,0,0,1-.53.05l-.41,0-.61,0-.39,0h-.38l-.41,0-.37,0-.4-.06-.36-.06-.4-.09-.36-.08L74,64.58l-.36-.11-.37-.12-.36-.14-.36-.15-.36-.16-.34-.16-.37-.2-.31-.17-.37-.23a2.9,2.9,0,0,1-.29-.19c-.13-.08-.26-.18-.38-.27l-.26-.19a4.12,4.12,0,0,1-.4-.33L69.28,62c-.2-.17-.39-.35-.58-.54s-.37-.38-.54-.58L68,60.66a1.83,1.83,0,0,0-.13-.16l-.19-.24a2.48,2.48,0,0,1-.19-.26l-.27-.37c-.06-.1-.12-.2-.19-.3L66.79,59l-.18-.32-.2-.37L66.26,58c-.06-.12-.12-.25-.17-.38s-.1-.22-.14-.33l-.15-.39-.12-.34-.12-.4-.09-.35c0-.14-.07-.27-.1-.41s-.05-.23-.07-.35,0-.28-.08-.42,0-.23,0-.35,0-.3,0-.45l0-.32c0-.17,0-.34,0-.52v-.26a6.77,6.77,0,0,1,0-.78s0-.1,0-.15q0-.31.06-.63c0-.1,0-.19,0-.29s0-.29.07-.43l.46-.07.25,0c.23,0,.47,0,.71-.06h.07l.79,0h.23l.55,0,.3,0,.48.05.32,0,.44.07.33.07.43.1.33.09.42.13.32.11.42.16.31.13a2.87,2.87,0,0,1,.4.18l.31.14.4.21.28.17c.14.07.27.16.4.24l.27.17.39.28.25.18.41.34.2.16.58.54c.19.19.37.39.54.58l.18.22.32.39.19.27.27.37L78,56l.22.37.18.31Zm4.66,7.06a.45.45,0,0,0,0-.11c0-.1,0-.19,0-.28s0-.45,0-.67v-.33l0-.63c0-.11,0-.22,0-.32s0-.47-.07-.7l0-.24a9.3,9.3,0,0,0-.16-.92,1.16,1.16,0,0,0,0-.18c0-.24-.1-.49-.17-.73s-.06-.21-.08-.31-.12-.4-.19-.6-.07-.21-.11-.32-.14-.39-.22-.58-.07-.2-.12-.3-.2-.46-.3-.69c0,0,0-.11-.08-.17-.14-.28-.29-.55-.44-.82,0-.08-.09-.15-.14-.23s-.23-.38-.35-.57-.13-.19-.19-.28l-.36-.51L79.84,53c-.13-.17-.27-.33-.41-.5s-.13-.16-.2-.23c-.21-.24-.42-.47-.65-.7s-.45-.43-.68-.64l-.21-.18-.53-.43-.22-.17c-.23-.17-.46-.34-.7-.49l0,0-.78-.49L75.18,49l-.6-.32-.25-.13-.74-.33-.1,0c-.28-.12-.57-.22-.85-.32l-.23-.08-.67-.2-.26-.07c-.25-.07-.5-.13-.76-.18l-.14,0-.9-.15-.23,0-.7-.08-.27,0-.75,0h-.59l-.67,0h-.09A12.47,12.47,0,1,1,83.11,63.77Z"/><path class="cls-3" d="M67.14,47h.59l.75,0,.27,0,.7.08.23,0,.9.15.14,0c.26,0,.51.11.76.18l.26.07.67.2.23.08c.28.1.57.2.85.32l.1,0,.74.33.25.13.6.32.23.12.78.49,0,0c.24.15.47.32.7.49l.22.17.53.43.21.18c.23.21.46.42.68.64s.44.46.65.7c.07.07.13.15.2.23s.28.33.41.5l.21.28.36.51c.06.09.13.18.19.28s.24.38.35.57.1.15.14.23c.15.27.3.54.44.82,0,.06,0,.12.08.17.1.23.21.46.3.69s.08.2.12.3.15.38.22.58.08.21.11.32.13.4.19.6,0,.2.08.31.12.49.17.73a1.16,1.16,0,0,1,0,.18,9.3,9.3,0,0,1,.16.92l0,.24c0,.23,0,.46.07.7s0,.21,0,.32l0,.63v.33c0,.22,0,.45,0,.67s0,.18,0,.28a.45.45,0,0,1,0,.11A12.47,12.47,0,1,0,66.38,47h.09Z"/></g></g><g id="icons_50" data-name="icons 50"><g class="cls-4"><path d="M51.08,49.17c0,.14,0,.27,0,.41s0,.37.06.56l.06.43.09.53c0,.15.06.29.1.44a4.7,4.7,0,0,0,.12.51c0,.14.08.29.12.43l.15.5.15.43c.05.16.12.33.18.49s.11.28.17.42.14.31.22.47.12.28.19.41.16.31.25.46.14.27.22.4.18.3.28.45.15.25.24.37.21.31.33.47.15.22.24.33l.24.29-.2-.37c-.07-.13-.13-.27-.19-.41s-.15-.31-.22-.47-.12-.28-.17-.42-.13-.33-.18-.49l-.15-.43-.15-.5c0-.14-.09-.29-.12-.43a4.7,4.7,0,0,1-.12-.51c0-.15-.07-.29-.1-.44L52.84,53l-.06-.43c0-.19,0-.38-.06-.56s0-.27,0-.41,0-.43,0-.64,0-.22,0-.33c0-.33,0-.65,0-1,0-.06,0-.12,0-.18,0-.26,0-.53.07-.8s0-.23.05-.35l.09-.54.58-.09.31,0,.88-.08h.1l1,0H56l.69,0,.37,0,.6.06.4.06.56.1.41.09.54.12.41.12.52.16.4.13.52.2.39.16.51.23.38.18.49.26.36.2.5.31.33.21.5.36.3.22c.18.13.35.28.53.42s.16.13.24.2c.24.22.49.45.72.68s.46.48.68.73a2.88,2.88,0,0,1,.22.27c.06.06.11.13.16.19l0-.09-.21-.39-.29-.46L67,51.92l-.33-.46-.25-.33c-.13-.17-.26-.33-.4-.49a2.88,2.88,0,0,0-.22-.27c-.22-.25-.44-.49-.68-.73s-.48-.46-.72-.68c-.08-.07-.17-.13-.24-.2s-.35-.29-.53-.42l-.3-.22-.5-.36-.33-.21-.5-.31-.36-.2-.49-.26-.38-.18-.51-.23-.39-.16-.52-.2-.4-.13-.52-.16L58,45.6l-.54-.12-.41-.09-.56-.1-.4-.06-.6-.06-.37,0q-.35,0-.69,0h-.29l-1,0h-.1l-.89.08-.3,0-.58.09-.09.54c0,.12,0,.23-.05.35s0,.54-.07.8c0,.06,0,.12,0,.18,0,.33,0,.65,0,1,0,.11,0,.22,0,.33S51.07,49,51.08,49.17ZM83.63,38.49a19.53,19.53,0,0,1-10.9,28.24v0h0a19.58,19.58,0,0,1-32.44,7.73,19,19,0,0,1-1.62-1.85,19.59,19.59,0,0,0,30.92,4.25,19.56,19.56,0,0,0,4.74-7.73h0v0a19.54,19.54,0,0,0,9.3-30.64ZM65.11,71.68a15.38,15.38,0,0,0,2.9-4h-.08l-.31,0-.87,0h-1l-.43,0-.58,0-.34,0a20.61,20.61,0,0,1-2.35-.41l-.19,0L61.26,67l-.35-.1-.55-.18L60,66.54l-.51-.19L59,66.18,58.54,66l-.44-.21-.46-.22-.44-.24-.43-.24-.46-.27-.4-.25-.46-.31L55.08,64l-.47-.36-.33-.26-.51-.43-.26-.22c-.26-.23-.51-.47-.75-.71s-.55-.57-.81-.87a3.47,3.47,0,0,1-.25-.29c-.17-.21-.35-.42-.51-.63l-.26-.34c-.16-.21-.31-.42-.45-.64l-.24-.35-.45-.72c0-.09-.11-.18-.16-.28-.2-.34-.38-.68-.55-1a2,2,0,0,1-.1-.21l-.39-.86-.15-.37-.27-.73c-.05-.13-.09-.27-.14-.41s-.15-.49-.22-.73-.08-.27-.11-.4c-.08-.29-.15-.59-.21-.89L47.43,52c-.07-.38-.14-.77-.19-1.15,0-.11,0-.22,0-.33l-.09-.83c0-.15,0-.29,0-.43s0-.51,0-.76,0-.3,0-.44,0-.53,0-.8,0-.26,0-.39a.49.49,0,0,1,0-.12,15.58,15.58,0,1,0,18,24.93Z"/><path class="cls-2" d="M83.63,38.49A19.54,19.54,0,0,0,48,42H48v0a19.56,19.56,0,0,0-9.35,30.58,19,19,0,0,0,1.62,1.85,19.56,19.56,0,0,0,32.44-7.73h0v0a19.53,19.53,0,0,0,10.9-28.24ZM43.07,71.68a15.54,15.54,0,0,1,4-24.93.49.49,0,0,0,0,.12c0,.13,0,.26,0,.39s0,.53,0,.8,0,.29,0,.44,0,.5,0,.76,0,.28,0,.43l.09.83c0,.11,0,.22,0,.33,0,.38.12.77.19,1.15l.06.24c.06.3.13.6.21.89,0,.13.07.27.11.4s.14.49.22.73.09.28.14.41l.27.73.15.37.39.86a2,2,0,0,0,.1.21c.17.35.35.69.55,1,0,.1.11.19.16.28l.45.72.24.35c.14.22.29.43.45.64l.26.34c.16.21.34.42.51.63a3.47,3.47,0,0,0,.25.29q.39.45.81.87c.24.24.49.48.75.71l.26.22.51.43.33.26.47.36.37.26.46.31.4.25.46.27.43.24.44.24.46.22.44.21.48.21.42.17.51.19.41.14.55.18.35.1.61.16.19,0a20.61,20.61,0,0,0,2.35.41l.34,0,.58,0,.43,0h1l.87,0,.31,0H68a15.38,15.38,0,0,1-2.9,4A15.6,15.6,0,0,1,43.07,71.68Zm24.7-18.45c.07.13.14.25.2.38s.13.27.2.4l.21.48c.06.14.12.28.17.42s.13.32.19.48.1.29.14.44a4.58,4.58,0,0,1,.15.49,3.6,3.6,0,0,1,.12.44c0,.17.09.34.13.51l.09.43.09.54c0,.14.05.28.06.42s0,.38.06.57,0,.27,0,.4,0,.43,0,.64,0,.22,0,.34c0,.32,0,.65,0,1a1.36,1.36,0,0,1,0,.2c0,.26,0,.52-.07.78s0,.24-.05.36l-.09.53-.54.09-.35.05c-.22,0-.44,0-.67.06l-.51,0-.76,0-.49,0-.48,0-.51-.05-.46,0-.5-.08-.46-.08-.49-.1-.46-.11-.48-.13-.45-.14-.47-.16-.45-.17-.44-.18L60,62.22l-.42-.2-.46-.24-.39-.22c-.16-.09-.31-.19-.46-.29L57.87,61l-.47-.34-.32-.23-.51-.42-.25-.21c-.25-.22-.49-.44-.73-.68s-.46-.47-.68-.72l-.22-.27-.16-.2-.24-.29c-.09-.11-.16-.22-.24-.33s-.23-.31-.33-.47-.16-.24-.24-.37-.19-.3-.28-.45-.15-.26-.22-.4-.17-.3-.25-.46-.13-.27-.19-.41-.15-.31-.22-.47-.12-.28-.17-.42-.13-.33-.18-.49L51.82,53l-.15-.5c0-.14-.09-.29-.12-.43a4.7,4.7,0,0,1-.12-.51c0-.15-.07-.29-.1-.44l-.09-.53-.06-.43c0-.19,0-.38-.06-.56s0-.27,0-.41,0-.43,0-.64,0-.22,0-.33c0-.33,0-.65,0-1,0-.06,0-.12,0-.18,0-.26,0-.53.07-.8s0-.23.05-.35l.09-.54.58-.09.3,0,.89-.08h.1l1,0h.29q.35,0,.69,0l.37,0,.6.06.4.06.56.1.41.09.54.12.41.12.52.16.4.13.52.2.39.16.51.23.38.18.49.26.36.2.5.31.33.21.5.36.3.22c.18.13.35.28.53.42s.16.13.24.2c.24.22.49.45.72.68s.46.48.68.73a2.88,2.88,0,0,1,.22.27c.14.16.27.32.4.49l.25.33.33.46.23.37.29.46.21.39Zm5.84,8.83v-.14c0-.11,0-.23,0-.34,0-.28,0-.57,0-.85v-.4c0-.27,0-.53,0-.8s0-.27,0-.4q0-.43-.09-.87c0-.1,0-.2,0-.3,0-.39-.11-.77-.19-1.15,0-.08,0-.15,0-.22-.07-.31-.14-.62-.22-.92,0-.13-.07-.26-.1-.38s-.15-.5-.23-.75l-.14-.41-.27-.72L72.11,53c-.12-.29-.25-.57-.39-.85a2,2,0,0,0-.1-.21c-.17-.35-.35-.7-.54-1-.06-.1-.12-.19-.17-.29s-.29-.48-.45-.72-.15-.23-.23-.35L69.78,49l-.27-.34c-.16-.22-.34-.43-.51-.64l-.24-.28c-.27-.3-.54-.59-.82-.88s-.56-.54-.85-.79l-.27-.23-.65-.54L65.89,45c-.29-.22-.58-.42-.87-.62L65,44.37c-.32-.21-.65-.41-1-.6l-.28-.16-.76-.4-.3-.15c-.31-.15-.61-.29-.93-.42l-.12,0c-.35-.15-.71-.28-1.07-.41l-.29-.09c-.27-.09-.55-.18-.83-.25l-.33-.09c-.31-.09-.62-.16-.94-.23l-.17,0-1.14-.19-.28,0q-.44-.06-.87-.09l-.35,0q-.47,0-.93,0h-.74l-.83,0h-.12A15.58,15.58,0,1,1,73.61,62.06Z"/><path class="cls-3" d="M53.64,41.11h.74q.46,0,.93,0l.35,0q.44,0,.87.09l.28,0,1.14.19.17,0c.32.07.63.14.94.23l.33.09c.28.07.56.16.83.25l.29.09c.36.13.72.26,1.07.41l.12,0c.32.13.62.27.93.42l.3.15.76.4.28.16c.33.19.66.39,1,.6l.07.05c.29.2.58.4.87.62l.28.21.65.54.27.23c.29.25.57.52.85.79s.55.58.82.88L69,48c.17.21.35.42.51.64l.27.34.45.63c.08.12.16.23.23.35s.3.48.45.72.11.19.17.29c.19.33.37.68.54,1a2,2,0,0,1,.1.21c.14.28.27.56.39.85l.15.38.27.72.14.41c.08.25.15.5.23.75s.07.25.1.38c.08.3.15.61.22.92,0,.07,0,.14,0,.22.08.38.14.76.19,1.15,0,.1,0,.2,0,.3q.06.43.09.87c0,.13,0,.27,0,.4s0,.53,0,.8v.4c0,.28,0,.56,0,.85,0,.11,0,.23,0,.34v.14A15.59,15.59,0,1,0,52.69,41.15h.12Z"/></g></g><g id="Layer_5" data-name="Layer 5"><path d="M32.57,43.57c0,.16,0,.33,0,.5s0,.47.08.71.05.35.08.53.07.45.11.67l.12.54c0,.21.09.43.15.64l.15.54c.06.21.12.42.19.63l.18.53c.07.21.15.41.23.61s.14.35.22.53.17.39.26.59.16.34.25.51.2.39.31.58l.27.49c.11.19.23.38.35.57l.3.46c.13.2.27.39.41.58l.31.42.3.37-.25-.47c-.09-.17-.17-.34-.25-.51s-.18-.39-.26-.59-.15-.35-.22-.53-.16-.4-.23-.61l-.18-.53c-.07-.21-.13-.42-.19-.63l-.15-.54c-.06-.21-.11-.43-.15-.64L34.88,49c0-.22-.08-.45-.11-.67s-.06-.35-.08-.53,0-.47-.08-.71,0-.34,0-.5,0-.54,0-.81,0-.27,0-.41c0-.41,0-.81,0-1.22a1.79,1.79,0,0,0,0-.23c0-.33.06-.66.1-1,0-.14,0-.29.06-.44s.07-.45.11-.67c.24,0,.48-.08.73-.12l.38-.05c.37,0,.74-.08,1.11-.1h.11c.41,0,.82,0,1.23,0l.37,0c.28,0,.57,0,.85,0l.47,0,.74.08.51.08.7.11.51.11.67.16.51.14.66.2.51.18c.21.07.43.15.64.24l.49.2.63.28.48.23.62.33.45.25.61.38.43.27.61.44.38.28.66.53.3.25c.31.28.61.56.9.85s.58.6.85.91l.28.33.2.25-.06-.12L53.1,48l-.36-.58L52.45,47,52,46.42c-.1-.14-.19-.28-.3-.41s-.33-.41-.5-.62L51,45.06c-.27-.31-.55-.61-.85-.91s-.59-.57-.9-.85l-.3-.25-.66-.53-.38-.28-.61-.44-.43-.27-.61-.38-.45-.25-.62-.33-.48-.23L44,40.06l-.49-.2c-.21-.09-.43-.17-.64-.24l-.51-.18-.66-.2-.51-.14-.67-.16L40,38.83l-.7-.11-.51-.08-.74-.08-.47,0c-.28,0-.57,0-.85,0l-.37,0c-.41,0-.82,0-1.23,0h-.11c-.37,0-.74,0-1.11.1l-.38.05c-.25,0-.49.07-.73.12,0,.22-.08.45-.11.67s0,.3-.06.44c0,.34-.07.67-.1,1a1.79,1.79,0,0,1,0,.23c0,.41,0,.81,0,1.22,0,.14,0,.27,0,.41S32.55,43.3,32.57,43.57ZM73.25,30.21a24.4,24.4,0,0,1-13.62,35.3l0,.06h0A24.44,24.44,0,0,1,17,72.93a24.45,24.45,0,0,0,44.57-4.35h0l0-.06a24.42,24.42,0,0,0,11.62-38.3ZM50.1,71.7a19.11,19.11,0,0,0,3.62-5h-.48c-.36,0-.72,0-1.08,0H50.91l-.53,0-.73,0-.43-.05a24.42,24.42,0,0,1-2.94-.51L46.05,66c-.25-.06-.51-.13-.76-.21l-.44-.12-.69-.22-.5-.17L43,65l-.53-.21-.61-.26-.55-.26L40.77,64c-.19-.1-.38-.19-.56-.3l-.54-.29-.56-.35c-.17-.1-.34-.2-.5-.31s-.39-.26-.58-.39l-.46-.32c-.2-.14-.4-.3-.59-.45l-.42-.32-.64-.54-.32-.28c-.32-.29-.63-.58-.93-.88s-.69-.72-1-1.09l-.31-.36c-.22-.26-.43-.52-.64-.79l-.33-.43c-.19-.26-.38-.52-.56-.79s-.2-.29-.29-.44-.38-.6-.56-.9c-.07-.12-.15-.23-.21-.35-.25-.43-.47-.86-.69-1.29l-.12-.26c-.17-.36-.33-.71-.48-1.07-.07-.16-.13-.32-.19-.47-.12-.3-.23-.6-.34-.91s-.12-.34-.17-.51-.2-.61-.29-.92-.09-.33-.13-.49c-.1-.37-.19-.75-.27-1.12,0-.1-.05-.2-.07-.31-.09-.47-.17-1-.24-1.43,0-.13,0-.27-.05-.41,0-.35-.08-.69-.1-1,0-.18,0-.36,0-.54s0-.63,0-1,0-.37,0-.55,0-.66,0-1c0-.16,0-.33,0-.49v-.16A19.48,19.48,0,1,0,50.1,71.7Z"/><path class="cls-2" d="M73.25,30.21a24.09,24.09,0,0,0-4-5.24,24.44,24.44,0,0,0-40.54,9.66h-.06v.06A24.48,24.48,0,1,0,59.56,65.58h0l0-.06a24.4,24.4,0,0,0,13.62-35.3ZM22.55,71.7a19.45,19.45,0,0,1,5-31.17v.16c0,.16,0,.33,0,.49q0,.49,0,1c0,.18,0,.37,0,.55s0,.63,0,1,0,.36,0,.54c0,.35.06.69.1,1,0,.14,0,.28.05.41.07.48.15,1,.24,1.43,0,.11.05.21.07.31.08.37.17.75.27,1.12,0,.16.09.32.13.49s.19.61.29.92.11.34.17.51.22.61.34.91c.06.15.12.31.19.47.15.36.31.71.48,1.07l.12.26c.22.43.44.86.69,1.29.06.12.14.23.21.35.18.3.36.61.56.9s.19.29.29.44.37.53.56.79l.33.43c.21.27.42.53.64.79l.31.36c.33.37.66.74,1,1.09s.61.59.93.88l.32.28.64.54.42.32c.19.15.39.31.59.45l.46.32c.19.13.38.27.58.39s.33.21.5.31l.56.35.54.29c.18.11.37.2.56.3l.56.28.55.26.61.26L43,65l.64.25.5.17.69.22.44.12c.25.08.51.15.76.21l.23.06a24.42,24.42,0,0,0,2.94.51l.43.05.73,0,.53,0h1.25c.36,0,.72,0,1.08,0h.48a19.11,19.11,0,0,1-3.62,5A19.49,19.49,0,0,1,22.55,71.7ZM53.43,48.64l.25.47.24.51a6.28,6.28,0,0,1,.27.59c.08.17.15.35.22.53s.15.4.22.6.13.36.19.54.13.41.19.62l.15.55.15.64.12.54c0,.22.07.44.11.66s.06.36.08.54.05.47.07.7,0,.34.05.51,0,.53,0,.79,0,.29,0,.43c0,.4,0,.81,0,1.22a1.94,1.94,0,0,1,0,.24c0,.33,0,.66-.09,1,0,.15,0,.3-.07.45s-.06.45-.1.67l-.68.1-.44.07-.83.08-.64,0-1,0-.62,0-.6,0-.63-.06-.58-.06-.63-.1-.57-.09-.61-.13-.57-.14-.6-.16L46,60.77l-.58-.2-.57-.21-.55-.23-.57-.25-.53-.26-.57-.3-.5-.28-.57-.35-.46-.29L40.47,58l-.41-.3c-.21-.16-.42-.34-.63-.51l-.32-.27c-.31-.27-.61-.55-.91-.85s-.57-.59-.84-.9l-.28-.33-.2-.25-.3-.37-.31-.42c-.14-.19-.28-.38-.41-.58l-.3-.46c-.12-.19-.24-.38-.35-.57l-.27-.49c-.11-.19-.21-.38-.31-.58s-.17-.34-.25-.51-.18-.39-.26-.59-.15-.35-.22-.53-.16-.4-.23-.61l-.18-.53c-.07-.21-.13-.42-.19-.63l-.15-.54c-.06-.21-.11-.43-.15-.64L32.88,46c0-.22-.08-.45-.11-.67s-.06-.35-.08-.53,0-.47-.08-.71,0-.34,0-.5,0-.54,0-.81,0-.27,0-.41c0-.41,0-.81,0-1.22a1.79,1.79,0,0,0,0-.23c0-.33.06-.66.1-1,0-.14,0-.29.06-.44s.07-.45.11-.67c.24,0,.48-.08.73-.12l.38-.05c.37,0,.74-.08,1.11-.1h.11c.41,0,.82,0,1.23,0l.37,0c.28,0,.57,0,.85,0l.47,0,.74.08.51.08.7.11.51.11.67.16.51.14.66.2.51.18c.21.07.43.15.64.24l.49.2.63.28.48.23.62.33.45.25.61.38.43.27.61.44.38.28.66.53.3.25c.31.28.61.56.9.85s.58.6.85.91l.28.33c.17.21.34.41.5.62s.2.27.3.41l.42.58.29.46.36.58.27.48Zm7.29,11a.91.91,0,0,0,0-.17c0-.14,0-.29,0-.43q0-.52,0-1c0-.17,0-.34,0-.51,0-.33,0-.67,0-1l0-.5c0-.36-.07-.72-.11-1.09,0-.12,0-.24-.05-.37q-.09-.72-.24-1.44l-.06-.27c-.08-.39-.17-.77-.27-1.15,0-.16-.09-.32-.14-.48-.08-.32-.18-.63-.28-.94l-.17-.5c-.11-.31-.22-.61-.34-.91s-.13-.32-.19-.47c-.15-.36-.31-.72-.48-1.07l-.12-.26q-.33-.66-.69-1.29l-.21-.36c-.18-.3-.37-.6-.56-.9l-.29-.43c-.19-.27-.37-.53-.57-.79s-.21-.29-.32-.43-.43-.53-.65-.79l-.3-.36c-.33-.38-.67-.74-1-1.09s-.7-.68-1.07-1l-.32-.28c-.27-.23-.55-.46-.83-.67l-.34-.27c-.36-.27-.72-.53-1.09-.78l-.09-.06c-.4-.26-.81-.51-1.22-.75l-.35-.2-.95-.5L47,35.92c-.38-.19-.77-.36-1.16-.52l-.15-.07c-.44-.18-.89-.35-1.34-.5L44,34.71l-1-.32-.41-.11L41.36,34l-.21,0c-.47-.09-.95-.17-1.42-.23l-.35,0-1.1-.11-.43,0c-.39,0-.78,0-1.17-.05H36.3l-.53,0-1.05,0h-.14A19.48,19.48,0,1,1,60.72,59.67Z"/><path class="cls-3" d="M35.77,33.49l.53,0h.38c.39,0,.78,0,1.17.05l.43,0,1.1.11.35,0c.47.06,1,.14,1.42.23l.21,0,1.19.28.41.11,1,.32.36.12c.45.15.9.32,1.34.5l.15.07c.39.16.78.33,1.16.52l.38.19.95.5.35.2c.41.24.82.49,1.22.75l.09.06c.37.25.73.51,1.09.78l.34.27c.28.21.56.44.83.67l.32.28c.37.32.72.65,1.07,1s.69.71,1,1.09l.3.36c.22.26.44.52.65.79s.22.28.32.43.38.52.57.79l.29.43c.19.3.38.6.56.9l.21.36q.36.63.69,1.29l.12.26c.17.35.33.71.48,1.07.06.15.12.31.19.47s.23.6.34.91l.17.5c.1.31.2.62.28.94.05.16.1.32.14.48.1.38.19.76.27,1.15l.06.27q.15.72.24,1.44c0,.13,0,.25.05.37,0,.37.08.73.11,1.09l0,.5c0,.33,0,.67,0,1,0,.17,0,.34,0,.51q0,.52,0,1c0,.14,0,.29,0,.43a.91.91,0,0,1,0,.17A19.48,19.48,0,1,0,34.58,33.53h.14Z"/></g></svg>