<svg xmlns="http://www.w3.org/2000/svg" viewBox="0 0 100 100"><defs><style>.cls-1{opacity:0.25;}.cls-2{fill:#fff;}.cls-3{fill:#ffa627;}.cls-4{opacity:0.5;}</style></defs><g id="Layer_25" data-name="Layer 25"><g class="cls-1"><path class="cls-2" d="M63.8,55.52a4,4,0,0,0,3,.56,4,4,0,0,0-.85-8,4.09,4.09,0,0,0-3.4,1.84A4.09,4.09,0,0,0,62,53,4,4,0,0,0,63.8,55.52Z"/><path class="cls-2" d="M82.16,81.74a4,4,0,0,0-.84.09,4.07,4.07,0,0,0-3.12,4.81,4,4,0,1,0,4-4.9Z"/><path class="cls-2" d="M47.64,55.52a4,4,0,0,0,3,.56,4,4,0,0,0-.84-8,4.17,4.17,0,0,0-.85.09A4,4,0,0,0,45.88,53,4,4,0,0,0,47.64,55.52Z"/><path class="cls-2" d="M80,55.52a4,4,0,0,0,6.16-4.24,4,4,0,0,0-4-3.2,4,4,0,0,0-.84.09A4,4,0,0,0,80,55.52Z"/><path d="M45.89,58.21a7.25,7.25,0,1,0-3.14-4.57A7.22,7.22,0,0,0,45.89,58.21Zm3.1-10a4.17,4.17,0,0,1,.85-.09,4,4,0,0,1,.84,8A4,4,0,0,1,45.88,53,4,4,0,0,1,49,48.17Z"/><path d="M62.6,66.76A4,4,0,0,1,65.16,65a4.09,4.09,0,0,1,.85-.09,4,4,0,0,1,2.19.65,4,4,0,0,1,1.52,1.8h3.35A7.24,7.24,0,0,0,59.92,65a7.07,7.07,0,0,0-1,2.34h3.35A3.41,3.41,0,0,1,62.6,66.76Z"/><path d="M80.65,78.7a7.25,7.25,0,0,0-2.43,13.18A7.25,7.25,0,1,0,80.65,78.7ZM85.56,88a4.05,4.05,0,0,1-7.36-1.36,4.07,4.07,0,0,1,3.12-4.81,4,4,0,0,1,.84-.09,4.06,4.06,0,0,1,4,3.21A4,4,0,0,1,85.56,88Z"/><path d="M62.06,58.21a7.24,7.24,0,1,0-3.15-4.57A7.2,7.2,0,0,0,62.06,58.21Zm.54-8.29A4,4,0,1,1,62,53,4.09,4.09,0,0,1,62.6,49.92Z"/><path d="M78.22,58.21a7.25,7.25,0,1,0-3.15-4.57A7.27,7.27,0,0,0,78.22,58.21Zm3.1-10a4,4,0,0,1,.84-.09,4,4,0,0,1,4,3.2A4,4,0,0,1,78.2,53,4.06,4.06,0,0,1,81.32,48.17Z"/><path d="M86.11,62.88a7.24,7.24,0,0,0-11,4.48h3.35A4,4,0,0,1,81.32,65a4.05,4.05,0,0,1,3.05.56,4,4,0,1,1-5.92,5H75.1A7.24,7.24,0,0,0,88.25,72.9a7.26,7.26,0,0,0-2.14-10Z"/><path d="M51.44,78.73v3.36a4,4,0,0,1,2.11,2.1H56.9A7.23,7.23,0,0,0,51.44,78.73Z"/><path d="M59.92,81.85a7.15,7.15,0,0,0-1,2.34h3.35a3.8,3.8,0,0,1,.31-.6,4.15,4.15,0,0,1,1.8-1.52V78.73A7.21,7.21,0,0,0,59.92,81.85Z"/><path d="M62.28,70.56H58.93A7.26,7.26,0,0,0,64.4,76V72.67A4.08,4.08,0,0,1,62.28,70.56Z"/><path d="M45.88,69.8A4,4,0,0,1,49,65a4.19,4.19,0,0,1,.86-.09,4,4,0,0,1,2.19.65,4.09,4.09,0,0,1,1.52,1.8H56.9a7.24,7.24,0,0,0-8.57-5.49A7.25,7.25,0,0,0,45.89,75a7.36,7.36,0,0,0,2.35,1V72.67A4,4,0,0,1,45.88,69.8Z"/><path d="M56.9,70.56H53.55a4.08,4.08,0,0,1-2.11,2.12V76A7.26,7.26,0,0,0,56.9,70.56Z"/><path d="M50.68,89.75a4,4,0,0,1-4.8-3.11,4,4,0,0,1,2.36-4.56V78.73a7.24,7.24,0,1,0,8.66,8.66H53.55A4,4,0,0,1,50.68,89.75Z"/><path d="M70,85a4,4,0,0,1-3.11,4.8,4.05,4.05,0,0,1-4.57-2.36H58.93a7.25,7.25,0,1,0,8.67-8.66v3.36A4,4,0,0,1,70,85Z"/><path d="M67.6,72.68V76a7.26,7.26,0,0,0,5.46-5.47H69.71A4,4,0,0,1,67.6,72.68Z"/><path class="cls-3" d="M83,72.92a4,4,0,0,0-.84-8,4.09,4.09,0,0,0-.85.09,4,4,0,0,0-2.87,2.36H69.72a4,4,0,0,0-1.52-1.8A4,4,0,0,0,66,64.91a4.09,4.09,0,0,0-.85.09,4,4,0,0,0-2.56,1.76,3.41,3.41,0,0,0-.31.6H53.56A4.09,4.09,0,0,0,52,65.56a4,4,0,0,0-2.19-.65A4.19,4.19,0,0,0,49,65a4,4,0,0,0-.75,7.67v9.41a4,4,0,0,0-2.36,4.56,4,4,0,0,0,7.67.75h8.73a4.05,4.05,0,0,0,4.57,2.36,4,4,0,0,0,.75-7.66V72.68a4,4,0,0,0,2.11-2.12h8.74A4,4,0,0,0,83,72.92ZM64.4,76v6a4.15,4.15,0,0,0-1.8,1.52,3.8,3.8,0,0,0-.31.6H53.55a4,4,0,0,0-2.11-2.1V72.68a4.08,4.08,0,0,0,2.11-2.12h8.73a4.08,4.08,0,0,0,2.12,2.11Z"/></g></g><g id="icons_50" data-name="icons 50"><g class="cls-4"><path class="cls-2" d="M56.25,44.16a5,5,0,0,0,3.81.71,5.06,5.06,0,0,0-1.06-10,4.83,4.83,0,0,0-1.06.11,5.06,5.06,0,0,0-1.69,9.19Z"/><path class="cls-2" d="M79.2,76.94a5.43,5.43,0,0,0-1,.11A5.06,5.06,0,1,0,80.26,87a5.06,5.06,0,0,0-1.06-10Z"/><path class="cls-2" d="M36,44.16a5,5,0,0,0,3.81.71,5.06,5.06,0,0,0-1.05-10,4.83,4.83,0,0,0-1.06.11A5.06,5.06,0,0,0,36,44.16Z"/><path class="cls-2" d="M76.45,44.16a5.06,5.06,0,1,0,2.75-9.3,4.75,4.75,0,0,0-1,.11,5.05,5.05,0,0,0-1.7,9.19Z"/><path d="M33.87,47.52A9,9,0,0,0,38.78,49a9.61,9.61,0,0,0,1.91-.2,9.06,9.06,0,1,0-6.82-1.26ZM37.74,35a4.83,4.83,0,0,1,1.06-.11,5.06,5.06,0,0,1,1.05,10A5.06,5.06,0,0,1,37.74,35Z"/><path d="M54.75,58.21A5,5,0,0,1,57.94,56,4.92,4.92,0,0,1,59,55.9a5.07,5.07,0,0,1,2.74.81A5,5,0,0,1,63.65,59h4.18a9.05,9.05,0,0,0-17.66,0h4.19A5.34,5.34,0,0,1,54.75,58.21Z"/><path d="M77.31,73.14a9.08,9.08,0,0,0-7,10.75,9.11,9.11,0,0,0,8.84,7.18,8.8,8.8,0,0,0,1.91-.21,9.06,9.06,0,1,0-3.78-17.72Zm6.14,11.62a5.07,5.07,0,0,1-7,1.49,5.06,5.06,0,0,1,1.7-9.2,5.43,5.43,0,0,1,1-.11,5.06,5.06,0,0,1,5,4A5,5,0,0,1,83.45,84.76Z"/><path d="M54.07,47.52A9,9,0,0,0,59,49a9.46,9.46,0,0,0,1.91-.2,9.06,9.06,0,1,0-3.78-17.72,9.06,9.06,0,0,0-3,16.46Zm.68-10.36A5,5,0,0,1,57.94,35,4.83,4.83,0,0,1,59,34.86a5.06,5.06,0,0,1,1.06,10,5.08,5.08,0,0,1-6-3.9A5.07,5.07,0,0,1,54.75,37.16Z"/><path d="M74.28,47.52A9,9,0,0,0,79.18,49a9.46,9.46,0,0,0,1.91-.2,9.07,9.07,0,1,0-6.81-1.26ZM78.15,35a4.75,4.75,0,0,1,1-.11,5.06,5.06,0,0,1,5,4,5,5,0,0,1-.7,3.81,5.06,5.06,0,1,1-5.3-7.7Z"/><path d="M84.13,53.36A9,9,0,0,0,70.38,59h4.18a5.07,5.07,0,0,1,3.59-3,4.8,4.8,0,0,1,1.07-.11,5.09,5.09,0,0,1,2.74.81,5,5,0,0,1,2.19,3.19,5.06,5.06,0,0,1-3.89,6A5.07,5.07,0,0,1,74.56,63H70.37A9.08,9.08,0,0,0,79.2,70a8.67,8.67,0,0,0,1.89-.2,9.05,9.05,0,0,0,3-16.46Z"/><path d="M40.8,73.17v4.2A5.1,5.1,0,0,1,43.44,80h4.19A9.07,9.07,0,0,0,40.8,73.17Z"/><path d="M51.4,77.07A9,9,0,0,0,50.17,80h4.19a5.34,5.34,0,0,1,.39-.75A5.12,5.12,0,0,1,57,77.35V73.17A9,9,0,0,0,51.4,77.07Z"/><path d="M54.35,63H50.17A9.07,9.07,0,0,0,57,69.79V65.6A5.06,5.06,0,0,1,54.35,63Z"/><path d="M33.85,62a5.07,5.07,0,0,1,3.89-6,4.86,4.86,0,0,1,1.07-.11A5.05,5.05,0,0,1,43.45,59h4.18A9.05,9.05,0,1,0,36.8,69.8V65.6A5,5,0,0,1,33.85,62Z"/><path d="M47.62,63H43.44a5.14,5.14,0,0,1-2.64,2.65v4.18A9,9,0,0,0,47.62,63Z"/><path d="M39.85,87a5.06,5.06,0,0,1-3.05-9.6V73.17a9.05,9.05,0,0,0-6.86,10.72,9,9,0,0,0,10.75,7A9,9,0,0,0,47.62,84H43.44A5,5,0,0,1,39.85,87Z"/><path d="M64,81a5.06,5.06,0,0,1-7.7,5.3A5,5,0,0,1,54.35,84H50.17A9.08,9.08,0,0,0,59,91.07a8.8,8.8,0,0,0,1.91-.21A9,9,0,0,0,61,73.18v4.19A5.05,5.05,0,0,1,64,81Z"/><path d="M61,65.61v4.18A9.07,9.07,0,0,0,67.83,63H63.64A5.06,5.06,0,0,1,61,65.61Z"/><path class="cls-3" d="M80.26,65.91a5.07,5.07,0,0,0,1.7-9.2,5.09,5.09,0,0,0-2.74-.81,4.8,4.8,0,0,0-1.07.11,5.07,5.07,0,0,0-3.59,3H63.65a5,5,0,0,0-1.9-2.25A5.07,5.07,0,0,0,59,55.9a4.92,4.92,0,0,0-1.07.11,5,5,0,0,0-3.19,2.2,5.34,5.34,0,0,0-.39.75H43.45a5.05,5.05,0,0,0-4.64-3.06,4.86,4.86,0,0,0-1.07.11,5.05,5.05,0,0,0-.94,9.59V77.35A5.06,5.06,0,1,0,43.44,84H54.35a5,5,0,0,0,1.9,2.25A5.05,5.05,0,1,0,61,77.37V65.61A5.06,5.06,0,0,0,63.64,63H74.56A5.07,5.07,0,0,0,80.26,65.91ZM57,69.79v7.56a5.12,5.12,0,0,0-2.25,1.9,5.34,5.34,0,0,0-.39.75H43.44a5.1,5.1,0,0,0-2.64-2.63V65.61A5.14,5.14,0,0,0,43.44,63H54.35A5.06,5.06,0,0,0,57,65.6Z"/></g></g><g id="icons"><path class="cls-2" d="M46.56,31A6.32,6.32,0,1,0,50,19.33a6,6,0,0,0-1.32.14A6.32,6.32,0,0,0,46.56,31Z"/><path class="cls-2" d="M75.26,71.94a6.08,6.08,0,0,0-1.33.14,6.33,6.33,0,1,0,1.33-.14Z"/><path class="cls-2" d="M21.3,31a6.32,6.32,0,1,0,3.45-11.63,5.92,5.92,0,0,0-1.32.14A6.32,6.32,0,0,0,21.3,31Z"/><path class="cls-2" d="M71.81,31a6.32,6.32,0,0,0,9.63-6.62,6.33,6.33,0,0,0-6.18-5,6.08,6.08,0,0,0-1.33.14A6.33,6.33,0,0,0,71.81,31Z"/><path d="M18.58,35.16A11.3,11.3,0,0,0,24.72,37a11.33,11.33,0,1,0-11-9A11.28,11.28,0,0,0,18.58,35.16Zm4.85-15.69a5.92,5.92,0,0,1,1.32-.14,6.33,6.33,0,1,1-1.32.14Z"/><path d="M44.69,48.52a6.32,6.32,0,0,1,4-2.75A6.68,6.68,0,0,1,50,45.63a6.33,6.33,0,0,1,5.8,3.83H61a11.32,11.32,0,0,0-22.08,0h5.23A7.07,7.07,0,0,1,44.69,48.52Z"/><path d="M72.89,67.19a11.32,11.32,0,0,0,2.34,22.4,11.49,11.49,0,0,0,2.39-.25,11.32,11.32,0,0,0-4.73-22.15ZM80.56,81.7a6.32,6.32,0,1,1-6.63-9.62,6.08,6.08,0,0,1,1.33-.14,6.32,6.32,0,0,1,5.3,9.76Z"/><path d="M43.84,35.16A11.32,11.32,0,1,0,38.92,28,11.28,11.28,0,0,0,43.84,35.16Zm.85-12.95a6.31,6.31,0,0,1,4-2.74A6,6,0,0,1,50,19.33a6.32,6.32,0,1,1-5.31,2.88Z"/><path d="M69.09,35.16A11.3,11.3,0,0,0,75.23,37a11.5,11.5,0,0,0,2.39-.26,11.31,11.31,0,1,0-8.53-1.57Zm4.84-15.69a6.08,6.08,0,0,1,1.33-.14,6.32,6.32,0,0,1,1.31,12.51A6.32,6.32,0,0,1,69.07,27,6.33,6.33,0,0,1,73.93,19.47Z"/><path d="M81.42,42.46a11.31,11.31,0,0,0-17.2,7h5.23a6.35,6.35,0,0,1,4.48-3.69,6.85,6.85,0,0,1,1.34-.14,6.33,6.33,0,1,1-5.82,8.83H64.21a11.35,11.35,0,0,0,11,8.83A12.08,12.08,0,0,0,77.62,63a11.33,11.33,0,0,0,3.8-20.58Z"/><path d="M27.25,67.23v5.25a6.33,6.33,0,0,1,3.3,3.28h5.24A11.34,11.34,0,0,0,27.25,67.23Z"/><path d="M40.5,72.1A11.29,11.29,0,0,0,39,75.76h5.23a7.07,7.07,0,0,1,.5-.94,6.28,6.28,0,0,1,2.81-2.37V67.22A11.25,11.25,0,0,0,40.5,72.1Z"/><path d="M44.19,54.46H39A11.32,11.32,0,0,0,47.5,63V57.76A6.35,6.35,0,0,1,44.19,54.46Z"/><path d="M18.56,53.28a6.33,6.33,0,0,1,4.87-7.51,6.68,6.68,0,0,1,1.33-.14,6.33,6.33,0,0,1,5.8,3.83h5.23A11.32,11.32,0,1,0,22.25,63V57.76A6.31,6.31,0,0,1,18.56,53.28Z"/><path d="M35.78,54.46H30.55a6.39,6.39,0,0,1-3.3,3.31V63A11.34,11.34,0,0,0,35.78,54.46Z"/><path d="M26.07,84.45a6.33,6.33,0,0,1-3.82-12V67.22A11.32,11.32,0,1,0,35.78,80.76H30.55A6.35,6.35,0,0,1,26.07,84.45Z"/><path d="M56.19,76.94a6.33,6.33,0,0,1-9.63,6.63,6.23,6.23,0,0,1-2.37-2.81H39A11.32,11.32,0,1,0,52.5,67.23v5.25A6.32,6.32,0,0,1,56.19,76.94Z"/><path d="M52.5,57.77V63A11.32,11.32,0,0,0,61,54.46H55.8A6.35,6.35,0,0,1,52.5,57.77Z"/><path class="cls-3" d="M76.57,58.15a6.33,6.33,0,0,0-1.3-12.52,6.85,6.85,0,0,0-1.34.14,6.35,6.35,0,0,0-4.48,3.69H55.81A6.33,6.33,0,0,0,50,45.63a6.68,6.68,0,0,0-1.33.14,6.32,6.32,0,0,0-4,2.75,7.07,7.07,0,0,0-.5.94H30.56a6.33,6.33,0,0,0-5.8-3.83,6.68,6.68,0,0,0-1.33.14,6.32,6.32,0,0,0-1.18,12V72.45a6.33,6.33,0,1,0,8.3,8.31H44.19a6.23,6.23,0,0,0,2.37,2.81A6.31,6.31,0,1,0,52.5,72.48V57.77a6.35,6.35,0,0,0,3.3-3.31H69.45A6.34,6.34,0,0,0,76.57,58.15ZM47.5,63v9.46a6.28,6.28,0,0,0-2.81,2.37,7.07,7.07,0,0,0-.5.94H30.55a6.33,6.33,0,0,0-3.3-3.28V57.77a6.39,6.39,0,0,0,3.3-3.31H44.19a6.35,6.35,0,0,0,3.31,3.3Z"/></g></svg>