<svg xmlns="http://www.w3.org/2000/svg" viewBox="0 0 100 100">
    <defs>
        <style>.cls-1{fill:#fff;}.cls-2{fill:#4d8dfc;}</style>
    </defs>
    <g id="icons">
        <path class="cls-1"
              d="M61.76,23.52a5,5,0,0,1,1.54,6.9l-3.7,5.82a7.76,7.76,0,0,0,1.26-.16,8.46,8.46,0,0,0,5.38-3.7A8.54,8.54,0,0,0,59.09,19.2a9.15,9.15,0,0,0-1.79.19,8.55,8.55,0,0,0-6.57,10.13,9.05,9.05,0,0,0,.42,1.37l3.71-5.83A5,5,0,0,1,61.76,23.52Z"/>
        <path class="cls-1"
              d="M72.56,57.66a8.44,8.44,0,0,0-4.62-1.38,9.17,9.17,0,0,0-1.8.19,8.53,8.53,0,1,0,6.42,1.19Z"/>
        <path class="cls-2"
              d="M21.75,70.61a8.54,8.54,0,0,0,2.52,11.8,8.53,8.53,0,0,0,13-8.94,8,8,0,0,0-.42-1.37l-3.7,5.83a5,5,0,0,1-8.44-5.36l3.7-5.83a9.07,9.07,0,0,0-1.26.17A8.46,8.46,0,0,0,21.75,70.61Z"/>
        <path d="M59.09,19.2a8.53,8.53,0,0,1,1.77,16.88,7.76,7.76,0,0,1-1.26.16L58,38.71,56.56,41a13,13,0,0,0,2.49.24A13.8,13.8,0,0,0,61.9,41a13.4,13.4,0,0,0,8.53-5.87h0a13.54,13.54,0,1,0-22.31.57l1.47-2.32,1.56-2.46a9.05,9.05,0,0,1-.42-1.37A8.55,8.55,0,0,1,57.3,19.39,9.15,9.15,0,0,1,59.09,19.2ZM81.16,62a13.53,13.53,0,1,0-1.88,10.19A13.51,13.51,0,0,0,81.16,62Zm-6.08,7.47a8.53,8.53,0,1,1-8.94-13,9.17,9.17,0,0,1,1.8-.19,8.54,8.54,0,0,1,7.14,13.18ZM39.87,67.32,38.4,69.64,36.83,72.1a8,8,0,0,1,.42,1.37,8.53,8.53,0,0,1-13,8.94,8.53,8.53,0,0,1,2.86-15.5,9.07,9.07,0,0,1,1.26-.17L30,64.27,31.43,62a13.57,13.57,0,0,0-13.87,5.94,13.55,13.55,0,0,0,11.32,20.9,13.09,13.09,0,0,0,2.85-.31,13.53,13.53,0,0,0,8.14-21.16Z"/>
        <path class="cls-2"
              d="M61.76,23.52a5,5,0,0,0-6.9,1.54l-3.71,5.83-1.56,2.46-1.47,2.32L31.43,62,30,64.27l-1.57,2.47-3.7,5.83a5,5,0,1,0,8.44,5.36l3.7-5.83,1.57-2.46,1.47-2.32L56.56,41,58,38.71l1.57-2.47,3.7-5.82A5,5,0,0,0,61.76,23.52Z"/>
        <path class="cls-1"
              d="M31.22,71.7a4.24,4.24,0,0,0-2.3-.69,4.5,4.5,0,0,0-.89.1A4.16,4.16,0,0,0,25.36,73a4.24,4.24,0,1,0,7.7,1.42A4.2,4.2,0,0,0,31.22,71.7Z"/>
    </g>
</svg>