<svg id="icons" xmlns="http://www.w3.org/2000/svg" viewBox="0 0 200 100">
    <defs>
        <style>.cls-1{fill:#cb2600;}.cls-2{fill:#67a900;}.cls-3{fill:#2c80ed;}.cls-4{fill:#fff;}</style>
    </defs>
    <polygon points="78.84 19.86 50.09 38.39 50.09 67.77 78.84 86.3 107.59 67.77 107.59 38.39 78.84 19.86"/>
    <polygon class="cls-1" points="76.84 83.3 48.09 64.77 48.09 35.39 76.84 53.92 76.84 83.3"/>
    <polygon class="cls-2" points="76.84 83.3 105.59 64.77 105.59 35.39 76.84 53.92 76.84 83.3"/>
    <polygon class="cls-3" points="76.84 53.92 105.59 35.39 76.84 16.86 48.09 35.39 76.84 53.92"/>
    <path d="M119.6,76.85a22.52,22.52,0,1,1,14.07-40.06L122.5,46.44l29.41,4.35,0-29.73L141.53,30a32.76,32.76,0,1,0,8.9,35.46L140,63.9A22.54,22.54,0,0,1,119.6,76.85Z"/>
    <path class="cls-4"
          d="M117.6,72.85a22.52,22.52,0,1,1,14.07-40.06L120.5,42.44l29.41,4.35,0-29.73L139.53,26a32.76,32.76,0,1,0,8.9,35.46L138,59.9A22.54,22.54,0,0,1,117.6,72.85Z"/>
</svg>