<svg xmlns="http://www.w3.org/2000/svg" viewBox="0 0 100 100">
    <defs>
        <style>.cls-1{fill:#fff;}.cls-2{fill:#4d8dfc;}</style>
    </defs>
    <g id="icons">
        <path d="M20,40.8a2.51,2.51,0,0,1-2.2.69A2.5,2.5,0,0,0,22,43.8l9.61-9.61v-5Z"/>
        <path d="M70.38,66.1V26.15a2.5,2.5,0,0,0-2-2.45V68.1Z"/>
        <path d="M52,44.53a2.5,2.5,0,0,0,1.77-4.27L52.5,39a2.5,2.5,0,0,1-.73,1.81,2.51,2.51,0,0,1-3.54,0L36.62,29.19v45a2.5,2.5,0,0,1-2.5,2.5,2.73,2.73,0,0,1-.5,0v.55a2.5,2.5,0,0,0,5,0V32.19L50.23,43.8A2.53,2.53,0,0,0,52,44.53Z"/>
        <path d="M85.52,59.49a2.52,2.52,0,0,0-1.33-.69A2.5,2.5,0,0,1,83.52,60L67.65,75.9a2.37,2.37,0,0,1-.39.32c-.05,0-.12.06-.18.1l-.25.13-.24.07-.22.07a2.72,2.72,0,0,1-.49,0,2.63,2.63,0,0,1-.49,0l-.22-.07-.25-.07-.25-.13-.18-.1a2,2,0,0,1-.38-.32L49.5,61.3A2.48,2.48,0,0,0,50.23,63L66.11,78.9a2,2,0,0,0,.38.32l.18.1.25.13.25.07.22.07a2.63,2.63,0,0,0,.49,0,2.72,2.72,0,0,0,.49,0l.22-.07.24-.07.25-.13c.06,0,.13-.06.18-.1a2.37,2.37,0,0,0,.39-.32L85.52,63A2.5,2.5,0,0,0,85.52,59.49Z"/>
        <path class="cls-1"
              d="M51.77,37.26,35.89,21.39a2,2,0,0,0-.38-.32,1.51,1.51,0,0,0-.18-.09,2,2,0,0,0-.25-.14l-.25-.07-.22-.07a2.69,2.69,0,0,0-1,0l-.22.07-.24.07-.26.13s-.12.06-.17.1a2.37,2.37,0,0,0-.39.32L16.48,37.26A2.5,2.5,0,0,0,20,40.8L31.62,29.19v45a2.5,2.5,0,0,0,2,2.45,2.73,2.73,0,0,0,.5,0,2.5,2.5,0,0,0,2.5-2.5V29.19L48.23,40.8a2.51,2.51,0,0,0,3.54,0,2.51,2.51,0,0,0,0-3.54Z"/>
        <path class="cls-2"
              d="M83.52,56.49a2.5,2.5,0,0,0-3.53,0L68.38,68.1V23.15a2.5,2.5,0,0,0-5,0V68.1L51.77,56.49A2.5,2.5,0,0,0,48.23,60L49.5,61.3,64.11,75.9a2,2,0,0,0,.38.32l.18.1.25.13.25.07.22.07a2.63,2.63,0,0,0,.49,0,2.72,2.72,0,0,0,.49,0l.22-.07.24-.07.25-.13c.06,0,.13-.06.18-.1a2.37,2.37,0,0,0,.39-.32L83.52,60a2.51,2.51,0,0,0,0-3.54Z"/>
    </g>
</svg>