<svg id="icons" xmlns="http://www.w3.org/2000/svg" viewBox="0 0 100 100"><defs><style>.cls-1{fill:#4d8dfc;}.cls-2{fill:#fff;}</style></defs><rect x="19.81" y="19.81" width="60.38" height="60.38"/><rect class="cls-1" x="17.31" y="31.19" width="65.38" height="37.62"/><path class="cls-2" d="M82.69,14.81H17.31a2.5,2.5,0,0,0-2.5,2.5V82.69a2.5,2.5,0,0,0,2.5,2.5H82.69a2.5,2.5,0,0,0,2.5-2.5V17.31A2.5,2.5,0,0,0,82.69,14.81Zm-62.88,5H80.19V80.19H19.81Z"/><path class="cls-2" d="M47.32,52.79H39.8A2.8,2.8,0,0,1,36.9,50a2.86,2.86,0,0,1,2.9-2.74h7.52v-8a2.87,2.87,0,0,1,2.9-2.8,2.84,2.84,0,0,1,2.9,2.8v8h7.52A2.89,2.89,0,0,1,63.54,50a2.83,2.83,0,0,1-2.9,2.79H53.12v8a2.79,2.79,0,0,1-2.9,2.74,2.86,2.86,0,0,1-2.9-2.74Z"/></svg>