<?xml version="1.0" encoding="UTF-8"?>
<svg xmlns="http://www.w3.org/2000/svg" viewBox="0 0 100 100">
  <defs>
    <style>
      .cls-1 {
        fill: #fff;
      }

      .cls-2 {
        fill: #4d8dfc;
      }

      .cls-3 {
        opacity: .5;
      }

      .cls-4 {
        opacity: .7;
      }
    </style>
  </defs>
  <g id="Layer_25" data-name="Layer 25">
    <g class="cls-3">
      <path class="cls-1" d="M77.21,56.82c-.3-1.43-1.15-2.65-2.37-3.44-.9-.58-1.92-.88-2.96-.88-.38,0-.77.04-1.15.12-2.88.61-4.73,3.4-4.23,6.27l-1.31,1.34-1.23,1.26-5.17,5.31-1.22,1.25-1.3,1.34c-.26-.04-.52-.06-.79-.06-.38,0-.76.04-1.14.12-2.94.63-4.83,3.53-4.2,6.48.63,2.94,3.53,4.83,6.48,4.2,1.43-.3,2.65-1.15,3.44-2.37.75-1.16,1.03-2.54.79-3.9l1.31-1.34,1.23-1.26,5.17-5.31,1.22-1.26,1.3-1.34c.63.09,1.28.08,1.93-.06,1.43-.3,2.65-1.15,3.44-2.37.79-1.22,1.06-2.68.76-4.11Z"/>
      <path class="cls-1" d="M84.84,45.71c1.22.79,2.68,1.06,4.11.76,1.43-.3,2.65-1.15,3.44-2.37.79-1.22,1.06-2.68.76-4.11-.3-1.43-1.15-2.65-2.37-3.44-.9-.58-1.92-.88-2.96-.88-.38,0-.77.04-1.15.12-1.43.3-2.65,1.15-3.44,2.37-.79,1.22-1.06,2.68-.76,4.11.3,1.43,1.15,2.65,2.37,3.44Z"/>
      <path class="cls-2" d="M87.81,69.33c-.38,0-.76.04-1.14.12-1.43.3-2.65,1.15-3.44,2.37-.79,1.22-1.06,2.68-.76,4.11.3,1.43,1.15,2.65,2.37,3.44,1.22.79,2.68,1.06,4.11.76,1.43-.3,2.65-1.15,3.44-2.37.79-1.22,1.06-2.68.76-4.11-.55-2.56-2.82-4.32-5.34-4.32Z"/>
      <path class="cls-2" d="M52.51,45.71c1.22.79,2.68,1.06,4.11.76,2.94-.63,4.83-3.53,4.2-6.48-.3-1.43-1.15-2.65-2.37-3.44-.89-.58-1.92-.88-2.96-.88-.38,0-.77.04-1.15.12-1.43.3-2.65,1.15-3.44,2.37-.79,1.22-1.06,2.68-.76,4.11s1.15,2.65,2.37,3.44Z"/>
      <path d="M83.1,48.39c1.42.92,3.04,1.4,4.69,1.4.61,0,1.22-.06,1.82-.19,4.67-1,7.66-5.61,6.66-10.28-1-4.67-5.6-7.66-10.28-6.66-2.26.48-4.2,1.82-5.46,3.76-1.26,1.94-1.69,4.26-1.2,6.52s1.82,4.2,3.76,5.46ZM83.23,38.15c.79-1.22,2.02-2.07,3.44-2.37.38-.08.77-.12,1.15-.12,1.04,0,2.06.3,2.96.88,1.22.79,2.06,2.02,2.37,3.44.3,1.43.03,2.89-.76,4.11-.79,1.22-2.02,2.07-3.44,2.37-1.43.3-2.89.04-4.11-.76s-2.07-2.02-2.37-3.44c-.3-1.43-.03-2.89.76-4.11ZM80.34,56.15c-.48-2.26-1.82-4.2-3.76-5.46-1.94-1.26-4.26-1.69-6.52-1.2-4.67,1-7.66,5.61-6.66,10.28.13.6.32,1.18.56,1.73l1.23-1.26,1.31-1.34c-.5-2.87,1.36-5.66,4.23-6.27.38-.08.77-.12,1.15-.12,1.04,0,2.06.3,2.96.88,1.22.79,2.07,2.02,2.37,3.44s.04,2.89-.76,4.11c-.79,1.22-2.02,2.07-3.44,2.37-.65.14-1.3.15-1.93.06l-1.3,1.34-1.22,1.26c1.05.44,2.17.67,3.3.67.61,0,1.22-.06,1.82-.19,2.26-.48,4.2-1.82,5.46-3.76,1.26-1.94,1.69-4.26,1.2-6.52ZM63.39,71.26l-1.23,1.26-1.31,1.34c.24,1.36-.04,2.74-.79,3.9-.79,1.22-2.02,2.07-3.44,2.37-2.94.63-5.85-1.26-6.48-4.2-.63-2.94,1.26-5.85,4.2-6.48.38-.08.76-.12,1.14-.12.27,0,.53.02.79.06l1.3-1.34,1.22-1.25c-1.57-.65-3.34-.86-5.12-.48-4.67,1-7.66,5.61-6.66,10.28.87,4.06,4.47,6.85,8.47,6.85.6,0,1.2-.06,1.81-.19,2.26-.48,4.2-1.82,5.46-3.76,1.26-1.94,1.69-4.26,1.2-6.52-.13-.61-.32-1.18-.56-1.73ZM96.28,72.99c-1-4.67-5.61-7.65-10.28-6.66-4.67,1-7.66,5.61-6.66,10.28.48,2.26,1.82,4.2,3.76,5.46,1.42.92,3.04,1.4,4.69,1.4.61,0,1.22-.06,1.82-.19,2.26-.48,4.2-1.82,5.46-3.76,1.26-1.94,1.69-4.26,1.2-6.52ZM92.39,77.76c-.79,1.22-2.02,2.07-3.44,2.37-1.43.31-2.89.03-4.11-.76-1.22-.79-2.07-2.02-2.37-3.44-.3-1.43-.03-2.89.76-4.11.79-1.22,2.02-2.07,3.44-2.37.38-.08.76-.12,1.14-.12,2.52,0,4.79,1.76,5.34,4.32.3,1.43.03,2.89-.76,4.11ZM55.48,49.79c.6,0,1.2-.06,1.81-.19,4.67-1,7.66-5.61,6.66-10.28-.48-2.26-1.82-4.2-3.76-5.46-1.94-1.26-4.26-1.69-6.52-1.2-2.26.48-4.2,1.82-5.46,3.76-1.26,1.94-1.69,4.26-1.2,6.52.87,4.06,4.47,6.85,8.47,6.85ZM50.9,38.15c.79-1.22,2.02-2.07,3.44-2.37.38-.08.77-.12,1.15-.12,1.04,0,2.06.3,2.96.88,1.22.79,2.07,2.02,2.37,3.44.63,2.94-1.26,5.85-4.2,6.48-1.43.3-2.89.04-4.11-.76-1.22-.79-2.07-2.02-2.37-3.44s-.03-2.89.76-4.11Z"/>
    </g>
  </g>
  <g id="icons_50" data-name="icons 50">
    <g class="cls-4">
      <path class="cls-1" d="M66.6,53.53c-.38-1.78-1.43-3.31-2.96-4.3-1.12-.73-2.4-1.1-3.7-1.1-.48,0-.96.05-1.44.15-3.59.77-5.92,4.25-5.29,7.84l-1.63,1.68-1.53,1.57-6.46,6.64-1.53,1.57-1.63,1.68c-.32-.05-.65-.08-.99-.08-.47,0-.95.05-1.43.15-3.68.79-6.04,4.42-5.25,8.1.78,3.68,4.42,6.04,8.1,5.25,1.78-.38,3.31-1.43,4.3-2.96.94-1.46,1.29-3.18.99-4.88l1.63-1.68,1.53-1.57,6.46-6.63,1.53-1.57,1.63-1.67c.79.12,1.61.1,2.41-.08,1.78-.38,3.31-1.43,4.3-2.96.99-1.53,1.33-3.35.95-5.14Z"/>
      <path class="cls-1" d="M76.14,39.64c1.53.99,3.35,1.33,5.14.95,1.78-.38,3.31-1.43,4.3-2.96.99-1.53,1.33-3.35.95-5.14-.38-1.78-1.43-3.31-2.96-4.3-1.12-.73-2.4-1.1-3.7-1.1-.48,0-.96.05-1.44.15-1.78.38-3.31,1.43-4.3,2.96-.99,1.53-1.33,3.35-.95,5.14.38,1.78,1.43,3.31,2.96,4.3Z"/>
      <path class="cls-2" d="M79.85,69.18c-.47,0-.95.05-1.42.15-1.78.38-3.31,1.43-4.3,2.96-.99,1.53-1.33,3.35-.95,5.14.38,1.78,1.43,3.31,2.96,4.3,1.53.99,3.35,1.33,5.14.95,1.78-.38,3.31-1.43,4.3-2.96.99-1.53,1.33-3.35.95-5.14-.68-3.2-3.52-5.4-6.67-5.4Z"/>
      <path class="cls-2" d="M35.73,39.64c1.53.99,3.35,1.33,5.14.95,3.68-.79,6.04-4.42,5.25-8.1-.38-1.78-1.43-3.31-2.96-4.3-1.12-.73-2.4-1.1-3.7-1.1-.48,0-.96.05-1.44.15-1.78.38-3.31,1.43-4.3,2.96-.99,1.53-1.33,3.35-.95,5.14s1.43,3.31,2.96,4.3Z"/>
      <path d="M73.96,43c1.78,1.15,3.8,1.75,5.87,1.75.76,0,1.52-.08,2.28-.24,5.84-1.25,9.57-7.01,8.33-12.85-1.25-5.84-7-9.58-12.85-8.33-2.83.6-5.25,2.27-6.82,4.7-1.57,2.43-2.11,5.32-1.5,8.15s2.27,5.25,4.7,6.83ZM74.12,30.2c.99-1.53,2.52-2.58,4.3-2.96.48-.1.96-.15,1.44-.15,1.3,0,2.58.38,3.7,1.1,1.53.99,2.58,2.52,2.96,4.3.38,1.78.04,3.61-.95,5.14-.99,1.53-2.52,2.58-4.3,2.96-1.79.38-3.61.04-5.14-.95s-2.58-2.52-2.96-4.3c-.38-1.78-.04-3.61.95-5.14ZM70.52,52.7c-.6-2.83-2.27-5.25-4.7-6.82-2.43-1.57-5.32-2.11-8.15-1.5-5.84,1.25-9.57,7.01-8.33,12.85.16.75.4,1.47.71,2.16l1.53-1.57,1.63-1.68c-.62-3.59,1.7-7.07,5.29-7.84.48-.1.96-.15,1.44-.15,1.3,0,2.58.38,3.7,1.1,1.53.99,2.58,2.52,2.96,4.3s.04,3.61-.95,5.14c-.99,1.53-2.52,2.58-4.3,2.96-.81.17-1.62.19-2.41.08l-1.63,1.67-1.53,1.57c1.31.55,2.71.83,4.13.83.76,0,1.52-.08,2.28-.24,2.83-.6,5.25-2.27,6.82-4.7,1.57-2.43,2.11-5.32,1.5-8.15ZM49.32,71.59l-1.53,1.57-1.63,1.68c.3,1.7-.05,3.42-.99,4.88-.99,1.53-2.52,2.58-4.3,2.96-3.68.79-7.32-1.57-8.1-5.25-.79-3.68,1.57-7.31,5.25-8.1.48-.1.95-.15,1.43-.15.33,0,.66.03.99.08l1.63-1.68,1.53-1.57c-1.96-.82-4.18-1.07-6.4-.6-5.84,1.25-9.57,7.01-8.33,12.85,1.08,5.08,5.59,8.57,10.59,8.57.75,0,1.5-.08,2.26-.24,2.83-.6,5.25-2.27,6.82-4.7,1.57-2.43,2.11-5.32,1.5-8.15-.16-.76-.4-1.48-.71-2.16ZM90.44,73.74c-1.25-5.84-7.01-9.57-12.85-8.33-5.84,1.25-9.57,7.01-8.33,12.85.6,2.83,2.27,5.25,4.7,6.82,1.78,1.15,3.8,1.75,5.87,1.75.76,0,1.52-.08,2.28-.24,2.83-.6,5.25-2.27,6.83-4.7,1.57-2.43,2.11-5.32,1.5-8.15ZM85.58,79.71c-.99,1.53-2.52,2.58-4.3,2.96-1.79.38-3.61.04-5.14-.95-1.53-.99-2.58-2.52-2.96-4.3-.38-1.78-.04-3.61.95-5.14.99-1.53,2.52-2.58,4.3-2.96.48-.1.95-.15,1.42-.15,3.15,0,5.99,2.2,6.67,5.4.38,1.78.04,3.61-.95,5.14ZM39.44,44.74c.75,0,1.5-.08,2.26-.24,5.84-1.25,9.57-7.01,8.33-12.85-.6-2.83-2.27-5.25-4.7-6.83-2.43-1.57-5.32-2.11-8.15-1.5-2.83.6-5.25,2.27-6.83,4.7-1.57,2.43-2.11,5.32-1.5,8.15,1.08,5.08,5.59,8.57,10.59,8.57ZM33.71,30.2c.99-1.53,2.52-2.58,4.3-2.96.48-.1.96-.15,1.44-.15,1.3,0,2.58.38,3.7,1.1,1.53.99,2.58,2.52,2.96,4.3.79,3.68-1.57,7.31-5.25,8.1-1.79.38-3.61.04-5.14-.95-1.53-.99-2.58-2.52-2.96-4.3s-.04-3.61.95-5.14Z"/>
    </g>
  </g>
  <g id="Layer_5" data-name="Layer 5">
    <g>
      <path class="cls-1" d="M52.34,49.18c-.48-2.23-1.79-4.14-3.7-5.38-1.4-.91-3-1.38-4.62-1.38-.6,0-1.2.06-1.8.19-4.49.96-7.4,5.31-6.62,9.8l-2.04,2.1-1.91,1.97-8.08,8.3-1.91,1.96-2.04,2.09c-.41-.06-.82-.1-1.23-.1-.59,0-1.18.06-1.78.19-4.6.98-7.55,5.52-6.56,10.12.98,4.6,5.52,7.55,10.12,6.56,2.23-.48,4.14-1.79,5.38-3.7,1.18-1.82,1.61-3.97,1.24-6.1l2.04-2.1,1.91-1.97,8.07-8.29,1.91-1.96,2.04-2.09c.99.14,2.01.12,3.02-.09,2.23-.47,4.14-1.79,5.38-3.7,1.24-1.91,1.66-4.19,1.19-6.42Z"/>
      <path class="cls-1" d="M64.26,31.82c1.91,1.24,4.19,1.66,6.42,1.18,2.23-.48,4.14-1.79,5.38-3.7,1.24-1.91,1.66-4.19,1.18-6.42-.48-2.23-1.79-4.14-3.7-5.38-1.4-.91-3-1.38-4.62-1.38-.6,0-1.2.06-1.8.19-2.23.47-4.14,1.79-5.38,3.7-1.24,1.91-1.66,4.19-1.18,6.42.47,2.23,1.79,4.14,3.7,5.38Z"/>
      <path class="cls-2" d="M68.9,68.73c-.59,0-1.18.06-1.78.19-2.23.48-4.14,1.79-5.38,3.7-1.24,1.91-1.66,4.19-1.18,6.42.47,2.23,1.79,4.14,3.7,5.38,1.91,1.24,4.19,1.66,6.42,1.18,2.23-.48,4.14-1.79,5.38-3.7,1.24-1.91,1.66-4.19,1.18-6.42-.85-4-4.4-6.75-8.34-6.75Z"/>
      <path class="cls-2" d="M13.75,31.82c1.91,1.24,4.19,1.66,6.42,1.18,4.6-.98,7.55-5.52,6.56-10.12-.48-2.23-1.79-4.14-3.7-5.38-1.4-.91-3-1.38-4.62-1.38-.6,0-1.2.06-1.8.19-2.23.47-4.14,1.79-5.38,3.7-1.24,1.91-1.66,4.19-1.19,6.42s1.79,4.14,3.7,5.38Z"/>
      <path d="M61.54,36.01c2.22,1.44,4.75,2.18,7.33,2.18.95,0,1.9-.1,2.85-.3,7.3-1.56,11.97-8.76,10.41-16.06-1.56-7.3-8.75-11.97-16.06-10.41-3.54.75-6.56,2.84-8.53,5.87-1.97,3.03-2.63,6.65-1.88,10.19s2.84,6.56,5.87,8.53ZM61.74,20.01c1.24-1.91,3.15-3.23,5.38-3.7.6-.13,1.2-.19,1.8-.19,1.63,0,3.22.47,4.62,1.38,1.91,1.24,3.23,3.15,3.7,5.38.48,2.23.05,4.51-1.18,6.42-1.24,1.91-3.15,3.23-5.38,3.7-2.23.48-4.51.06-6.42-1.18s-3.23-3.15-3.7-5.38c-.48-2.23-.05-4.51,1.18-6.42ZM57.23,48.14c-.75-3.54-2.84-6.56-5.87-8.53-3.03-1.97-6.65-2.63-10.18-1.88-7.3,1.56-11.97,8.76-10.41,16.06.2.94.5,1.84.88,2.7l1.91-1.97,2.04-2.1c-.78-4.49,2.12-8.84,6.62-9.8.6-.13,1.2-.19,1.8-.19,1.63,0,3.23.47,4.62,1.38,1.91,1.24,3.23,3.15,3.7,5.38s.05,4.51-1.19,6.42c-1.24,1.91-3.15,3.23-5.38,3.7-1.01.22-2.03.24-3.02.09l-2.04,2.09-1.91,1.96c1.64.68,3.38,1.04,5.16,1.04.95,0,1.9-.1,2.85-.3,3.54-.75,6.56-2.84,8.53-5.87,1.97-3.03,2.63-6.65,1.88-10.19ZM30.74,71.74l-1.91,1.97-2.04,2.1c.37,2.12-.06,4.28-1.24,6.1-1.24,1.91-3.15,3.23-5.38,3.7-4.6.98-9.14-1.96-10.12-6.56-.98-4.6,1.96-9.14,6.56-10.12.6-.13,1.19-.19,1.78-.19.42,0,.83.04,1.23.1l2.04-2.09,1.91-1.96c-2.45-1.02-5.22-1.34-8-.75-7.3,1.56-11.97,8.76-10.41,16.06,1.36,6.35,6.99,10.71,13.23,10.71.93,0,1.88-.1,2.83-.3,3.54-.75,6.56-2.84,8.53-5.87,1.97-3.03,2.63-6.65,1.88-10.18-.2-.95-.5-1.85-.88-2.7ZM82.13,74.44c-1.56-7.3-8.76-11.96-16.06-10.41-7.3,1.56-11.97,8.76-10.41,16.06.75,3.54,2.84,6.56,5.87,8.53,2.22,1.44,4.75,2.18,7.33,2.18.95,0,1.9-.1,2.85-.3,3.54-.75,6.57-2.84,8.53-5.87,1.97-3.03,2.63-6.65,1.88-10.18ZM76.06,81.9c-1.24,1.91-3.15,3.23-5.38,3.7-2.23.48-4.51.05-6.42-1.18-1.91-1.24-3.23-3.15-3.7-5.38-.48-2.23-.05-4.51,1.18-6.42,1.24-1.91,3.15-3.23,5.38-3.7.6-.13,1.19-.19,1.78-.19,3.94,0,7.49,2.75,8.34,6.75.48,2.23.05,4.51-1.18,6.42ZM18.39,38.19c.93,0,1.88-.1,2.83-.3,7.3-1.56,11.97-8.76,10.41-16.06-.75-3.54-2.84-6.57-5.87-8.53-3.03-1.97-6.65-2.63-10.18-1.88-3.54.75-6.56,2.84-8.53,5.87-1.97,3.03-2.63,6.65-1.88,10.19,1.36,6.35,6.98,10.71,13.23,10.71ZM11.23,20.01c1.24-1.91,3.15-3.23,5.38-3.7.6-.13,1.2-.19,1.8-.19,1.63,0,3.22.47,4.62,1.38,1.91,1.24,3.23,3.15,3.7,5.38.98,4.6-1.96,9.14-6.56,10.12-2.23.48-4.51.06-6.42-1.18-1.91-1.24-3.23-3.15-3.7-5.38s-.05-4.51,1.19-6.42Z"/>
    </g>
  </g>
</svg>