<svg id="icons" xmlns="http://www.w3.org/2000/svg" viewBox="0 0 100 100"><defs><style>.cls-1{fill:#4d8dfc;}.cls-2{fill:#fff;}</style></defs><path class="cls-1" d="M83.07,85.57H16.93a2.5,2.5,0,0,1-2.5-2.5V16.93a2.5,2.5,0,0,1,2.5-2.5H83.07a2.5,2.5,0,0,1,2.5,2.5V83.07A2.5,2.5,0,0,1,83.07,85.57Zm-63.64-5H80.57V19.43H19.43Z"/><polygon class="cls-1" points="65.28 31.38 80.28 16.38 83.8 19.93 68.84 34.89 65.28 31.38"/><rect x="29.23" y="29.23" width="41.54" height="41.54"/><path class="cls-2" d="M70.77,71.77H29.23a1,1,0,0,1-1-1V29.23a1,1,0,0,1,1-1H70.77a1,1,0,0,1,1,1V70.77A1,1,0,0,1,70.77,71.77Zm-40.54-2H69.77V30.23H30.23Z"/></svg>