<svg xmlns="http://www.w3.org/2000/svg" viewBox="0 0 100 100">
    <defs>
        <style>.cls-1{opacity:0.5;}.cls-2{fill:#fff;}.cls-3{opacity:0.7;}</style>
    </defs>
    <g id="Layer_25" data-name="Layer 25">
        <g class="cls-1">
            <path d="M73.63,42.45a7.19,7.19,0,0,1,7,8.91c1.23-.65,2-1.86,2-4.1a10.22,10.22,0,1,0-20.44,0c0,3.59,1.86,4.55,4.66,4.77a7.35,7.35,0,0,1-.4-2.36A7.22,7.22,0,0,1,73.63,42.45Z"/>
            <path d="M88.73,49.75a15,15,0,0,0-3.14-9.22,15,15,0,0,1,1.88,7.3c0,8.33-15.1,29.38-15.1,29.38S71.18,75.55,69.46,73c2.36,3.64,4.17,6.16,4.17,6.16S88.73,58.08,88.73,49.75Z"/>
            <path class="cls-2"
                  d="M85.59,40.53a15.1,15.1,0,0,0-28.32,7.3c0,6,7.8,18.55,12.19,25.14,1.72,2.58,2.91,4.24,2.91,4.24s15.1-21,15.1-29.38A15,15,0,0,0,85.59,40.53Zm-5,10.83c-1.85,1-4.87.68-8.27.68-2.05,0-4,.12-5.56,0-2.8-.22-4.66-1.18-4.66-4.77a10.22,10.22,0,1,1,20.44,0C82.59,49.5,81.87,50.71,80.64,51.36Z"/>
        </g>
    </g>
    <g id="icons_50" data-name="icons 50">
        <g class="cls-3">
            <path d="M61.79,36.08a9,9,0,0,1,9,9,8.73,8.73,0,0,1-.27,2.12c1.53-.81,2.44-2.33,2.44-5.13a12.78,12.78,0,1,0-25.56,0c0,4.5,2.33,5.69,5.84,6a9,9,0,0,1,8.52-12Z"/>
            <path d="M80.66,45.2a18.74,18.74,0,0,0-3.92-11.51,18.78,18.78,0,0,1,2.34,9.11c0,10.42-18.87,36.73-18.87,36.73s-1.49-2.08-3.64-5.3c3,4.55,5.22,7.7,5.22,7.7S80.66,55.62,80.66,45.2Z"/>
            <path class="cls-2"
                  d="M76.74,33.69a18.87,18.87,0,0,0-35.4,9.11c0,7.49,9.75,23.19,15.23,31.43,2.15,3.22,3.64,5.3,3.64,5.3S79.08,53.22,79.08,42.8A18.78,18.78,0,0,0,76.74,33.69ZM70.55,47.22c-2.32,1.24-6.08.85-10.34.85-2.56,0-4.94.14-6.94,0-3.51-.28-5.84-1.47-5.84-6a12.78,12.78,0,1,1,25.56,0C73,44.89,72.08,46.41,70.55,47.22Z"/>
        </g>
    </g>
    <g id="Layer_5" data-name="Layer 5">
        <path d="M46,27.86A11.28,11.28,0,0,1,57.27,39.15a11.05,11.05,0,0,1-.33,2.65c1.91-1,3-2.92,3-6.42a16,16,0,1,0-31.94,0C28,41,31,42.49,35.33,42.84A11.27,11.27,0,0,1,46,27.86Z"/>
        <path d="M69.58,39.27a23.43,23.43,0,0,0-4.91-14.39,23.42,23.42,0,0,1,2.94,11.39c0,13-23.6,45.91-23.6,45.91s-1.86-2.6-4.54-6.63C43.16,81.24,46,85.18,46,85.18S69.58,52.3,69.58,39.27Z"/>
        <path class="cls-2"
              d="M64.67,24.88A23.59,23.59,0,0,0,20.42,36.27c0,9.36,12.19,29,19,39.28,2.68,4,4.54,6.63,4.54,6.63s23.6-32.88,23.6-45.91A23.42,23.42,0,0,0,64.67,24.88ZM56.94,41.8C54,43.34,49.33,42.86,44,42.86c-3.2,0-6.18.17-8.68,0C31,42.49,28,41,28,35.38a16,16,0,1,1,31.94,0C60,38.88,58.85,40.78,56.94,41.8Z"/>
    </g>
</svg>