<svg id="icons" xmlns="http://www.w3.org/2000/svg" viewBox="0 0 100 100"><defs><style>.cls-1{fill:#ed1e79;}.cls-2{fill:#fff;}</style></defs><path d="M94.53,69.51v-33a7.78,7.78,0,0,0-7.75-7.75h-5.2v5h5.2a2.79,2.79,0,0,1,2.75,2.75v33a2.79,2.79,0,0,1-2.75,2.75h-5.2v5h5.2A7.78,7.78,0,0,0,94.53,69.51ZM19.22,77.26H63.71v-5H19.22a2.79,2.79,0,0,1-2.75-2.75v-33a2.79,2.79,0,0,1,2.75-2.75H63.71v-5H19.22a7.78,7.78,0,0,0-7.75,7.75v33A7.78,7.78,0,0,0,19.22,77.26Z"/><path d="M47.92,58.38a6,6,0,0,0,3.28,1,6.18,6.18,0,0,0,1.28-.13,6.06,6.06,0,1,0-4.56-.84Z"/><path class="cls-1" d="M53.11,44.62a6,6,0,0,0-4.55-.84A6.06,6.06,0,0,0,43.9,51a6,6,0,0,0,5.91,4.79,6.08,6.08,0,0,0,1.27-.13,6.06,6.06,0,0,0,2-11Z"/><path d="M27.8,58.38a6.06,6.06,0,1,0-2.63-3.82A6.07,6.07,0,0,0,27.8,58.38Z"/><path class="cls-1" d="M33,44.62a6.06,6.06,0,1,0-3.31,11.14A6.25,6.25,0,0,0,31,55.63a6.06,6.06,0,0,0,2-11Z"/><polygon points="63.71 86.39 63.71 92.94 81.58 92.94 81.58 86.39 75.92 86.39 75.92 19.61 81.58 19.61 81.58 13.06 63.71 13.06 63.71 19.61 69.37 19.61 69.37 86.39 63.71 86.39"/><polygon class="cls-2" points="61.71 83.39 61.71 89.94 79.58 89.94 79.58 83.39 73.92 83.39 73.92 16.61 79.58 16.61 79.58 10.06 61.71 10.06 61.71 16.61 67.37 16.61 67.37 83.39 61.71 83.39"/><path class="cls-2" d="M92.53,66.51v-33a7.78,7.78,0,0,0-7.75-7.75h-5.2v5h5.2a2.79,2.79,0,0,1,2.75,2.75v33a2.79,2.79,0,0,1-2.75,2.75h-5.2v5h5.2A7.78,7.78,0,0,0,92.53,66.51ZM17.22,74.26H61.71v-5H17.22a2.79,2.79,0,0,1-2.75-2.75v-33a2.79,2.79,0,0,1,2.75-2.75H61.71v-5H17.22a7.78,7.78,0,0,0-7.75,7.75v33A7.78,7.78,0,0,0,17.22,74.26Z"/></svg>