<svg xmlns="http://www.w3.org/2000/svg" viewBox="0 0 100 100">
    <defs>
        <style>.cls-1{fill:#4d8dfc;}.cls-2{fill:#fff;}</style>
    </defs>
    <g id="icons">
        <path class="cls-1" d="M46.56,31A6.32,6.32,0,1,0,50,19.33a6,6,0,0,0-1.32.14A6.32,6.32,0,0,0,46.56,31Z"/>
        <path class="cls-1" d="M75.26,71.94a6.08,6.08,0,0,0-1.33.14,6.33,6.33,0,1,0,1.33-.14Z"/>
        <path class="cls-1" d="M21.3,31a6.32,6.32,0,1,0,3.45-11.63,5.92,5.92,0,0,0-1.32.14A6.32,6.32,0,0,0,21.3,31Z"/>
        <path class="cls-1"
              d="M71.81,31a6.32,6.32,0,0,0,9.63-6.62,6.33,6.33,0,0,0-6.18-5,6.08,6.08,0,0,0-1.33.14A6.33,6.33,0,0,0,71.81,31Z"/>
        <path d="M18.58,35.16A11.3,11.3,0,0,0,24.72,37a11.33,11.33,0,1,0-11-9A11.28,11.28,0,0,0,18.58,35.16Zm4.85-15.69a5.92,5.92,0,0,1,1.32-.14,6.33,6.33,0,1,1-1.32.14Z"/>
        <path d="M44.69,48.52a6.32,6.32,0,0,1,4-2.75A6.68,6.68,0,0,1,50,45.63a6.33,6.33,0,0,1,5.8,3.83H61a11.32,11.32,0,0,0-22.08,0h5.23A7.07,7.07,0,0,1,44.69,48.52Z"/>
        <path d="M72.89,67.19a11.32,11.32,0,0,0,2.34,22.4,11.49,11.49,0,0,0,2.39-.25,11.32,11.32,0,0,0-4.73-22.15ZM80.56,81.7a6.32,6.32,0,1,1-6.63-9.62,6.08,6.08,0,0,1,1.33-.14,6.32,6.32,0,0,1,5.3,9.76Z"/>
        <path d="M43.84,35.16A11.32,11.32,0,1,0,38.92,28,11.28,11.28,0,0,0,43.84,35.16Zm.85-12.95a6.31,6.31,0,0,1,4-2.74A6,6,0,0,1,50,19.33a6.32,6.32,0,1,1-5.31,2.88Z"/>
        <path d="M69.09,35.16A11.3,11.3,0,0,0,75.23,37a11.5,11.5,0,0,0,2.39-.26,11.31,11.31,0,1,0-8.53-1.57Zm4.84-15.69a6.08,6.08,0,0,1,1.33-.14,6.32,6.32,0,0,1,1.31,12.51A6.32,6.32,0,0,1,69.07,27,6.33,6.33,0,0,1,73.93,19.47Z"/>
        <path d="M81.42,42.46a11.31,11.31,0,0,0-17.2,7h5.23a6.35,6.35,0,0,1,4.48-3.69,6.85,6.85,0,0,1,1.34-.14,6.33,6.33,0,1,1-5.82,8.83H64.21a11.35,11.35,0,0,0,11,8.83A12.08,12.08,0,0,0,77.62,63a11.33,11.33,0,0,0,3.8-20.58Z"/>
        <path d="M27.25,67.23v5.25a6.33,6.33,0,0,1,3.3,3.28h5.24A11.34,11.34,0,0,0,27.25,67.23Z"/>
        <path d="M40.5,72.1A11.29,11.29,0,0,0,39,75.76h5.23a7.07,7.07,0,0,1,.5-.94,6.28,6.28,0,0,1,2.81-2.37V67.22A11.25,11.25,0,0,0,40.5,72.1Z"/>
        <path d="M44.19,54.46H39A11.32,11.32,0,0,0,47.5,63V57.76A6.35,6.35,0,0,1,44.19,54.46Z"/>
        <path d="M18.56,53.28a6.33,6.33,0,0,1,4.87-7.51,6.68,6.68,0,0,1,1.33-.14,6.33,6.33,0,0,1,5.8,3.83h5.23A11.32,11.32,0,1,0,22.25,63V57.76A6.31,6.31,0,0,1,18.56,53.28Z"/>
        <path d="M35.78,54.46H30.55a6.39,6.39,0,0,1-3.3,3.31V63A11.34,11.34,0,0,0,35.78,54.46Z"/>
        <path d="M26.07,84.45a6.33,6.33,0,0,1-3.82-12V67.22A11.32,11.32,0,1,0,35.78,80.76H30.55A6.35,6.35,0,0,1,26.07,84.45Z"/>
        <path d="M56.19,76.94a6.33,6.33,0,0,1-9.63,6.63,6.23,6.23,0,0,1-2.37-2.81H39A11.32,11.32,0,1,0,52.5,67.23v5.25A6.32,6.32,0,0,1,56.19,76.94Z"/>
        <path d="M52.5,57.77V63A11.32,11.32,0,0,0,61,54.46H55.8A6.35,6.35,0,0,1,52.5,57.77Z"/>
        <path class="cls-2"
              d="M76.57,58.15a6.33,6.33,0,0,0-1.3-12.52,6.85,6.85,0,0,0-1.34.14,6.35,6.35,0,0,0-4.48,3.69H55.81A6.33,6.33,0,0,0,50,45.63a6.68,6.68,0,0,0-1.33.14,6.32,6.32,0,0,0-4,2.75,7.07,7.07,0,0,0-.5.94H30.56a6.33,6.33,0,0,0-5.8-3.83,6.68,6.68,0,0,0-1.33.14,6.32,6.32,0,0,0-1.18,12V72.45a6.33,6.33,0,1,0,8.3,8.31H44.19a6.23,6.23,0,0,0,2.37,2.81A6.31,6.31,0,1,0,52.5,72.48V57.77a6.35,6.35,0,0,0,3.3-3.31H69.45A6.34,6.34,0,0,0,76.57,58.15ZM47.5,63v9.46a6.28,6.28,0,0,0-2.81,2.37,7.07,7.07,0,0,0-.5.94H30.55a6.33,6.33,0,0,0-3.3-3.28V57.77a6.39,6.39,0,0,0,3.3-3.31H44.19a6.35,6.35,0,0,0,3.31,3.3Z"/>
    </g>
</svg>