<svg xmlns="http://www.w3.org/2000/svg" viewBox="0 0 100 100">
    <defs>
        <style>.cls-1{fill:#fff;}</style>
    </defs>
    <g id="icons">
        <path class="cls-1"
              d="M29.46,24.05a8.51,8.51,0,0,0-8.14-6,8.56,8.56,0,0,0-7.17,3.89,8.53,8.53,0,0,0,8.93,13l.23-.07a8.4,8.4,0,0,0,4.3-2.55,8.17,8.17,0,0,0,.85-1.09,8.34,8.34,0,0,0,1-2.14,8.49,8.49,0,0,0,.19-4.28C29.6,24.53,29.53,24.29,29.46,24.05Z"/>
        <path class="cls-1"
              d="M56.72,69.13a8.47,8.47,0,0,0-2.32-2.22,8.28,8.28,0,0,0-1.69-.83A8.27,8.27,0,0,0,48,65.72c-.16,0-.31.08-.46.12a8.5,8.5,0,0,0-4.23,2.67,10.35,10.35,0,0,0-.69.91,8.53,8.53,0,1,0,15.51,2.86A8.6,8.6,0,0,0,56.72,69.13Z"/>
        <path class="cls-1"
              d="M84.57,19.39a8.54,8.54,0,0,0-11.8,2.52,8.34,8.34,0,0,0-1,2.14,8.49,8.49,0,0,0-.19,4.28c.06.25.12.48.19.72a8.63,8.63,0,0,0,1.35,2.63,8.41,8.41,0,0,0,2.17,2,8.29,8.29,0,0,0,1.9.91,8.48,8.48,0,0,0,9.9-3.43A8.54,8.54,0,0,0,84.57,19.39Z"/>
        <path d="M87.29,15.2a13.54,13.54,0,0,0-20.67,8.85h-32a13.52,13.52,0,1,0-13.31,16,13.16,13.16,0,0,0,2.85-.31,13.35,13.35,0,0,0,1.8-.53L40.65,64.07a13.85,13.85,0,0,0-2.24,2.63A13.54,13.54,0,0,0,49.73,87.6a13.73,13.73,0,0,0,2.85-.3,13.51,13.51,0,0,0,6.83-22.71L74.6,39a13.45,13.45,0,0,0,5.3,1.1,13.16,13.16,0,0,0,2.85-.31,13.37,13.37,0,0,0,8.53-5.87A13.54,13.54,0,0,0,87.29,15.2ZM29.46,29.05a8.34,8.34,0,0,1-1,2.14,8.17,8.17,0,0,1-.85,1.09,8.4,8.4,0,0,1-4.3,2.55l-.23.07a8.53,8.53,0,0,1-3.55-16.69A8.51,8.51,0,0,1,26,19.39a8.51,8.51,0,0,1,3.51,4.66c.07.24.14.48.19.72A8.49,8.49,0,0,1,29.46,29.05ZM56.92,78.7A8.53,8.53,0,0,1,42.6,69.42a10.35,10.35,0,0,1,.69-.91,8.5,8.5,0,0,1,4.23-2.67c.15,0,.3-.09.46-.12a8.27,8.27,0,0,1,4.73.36,8.28,8.28,0,0,1,1.69.83,8.47,8.47,0,0,1,2.32,2.22,8.6,8.6,0,0,1,1.39,3.15A8.49,8.49,0,0,1,56.92,78.7Zm-1.62-17a13.39,13.39,0,0,0-8.36-.9,14,14,0,0,0-2,.61L30.24,36.71a13.3,13.3,0,0,0,2.42-2.8,13.45,13.45,0,0,0,1.94-4.86h32c0,.11,0,.22,0,.32a13.49,13.49,0,0,0,3.75,6.83ZM87.09,31.19a8.48,8.48,0,0,1-9.9,3.43,8.29,8.29,0,0,1-1.9-.91,8.41,8.41,0,0,1-2.17-2,8.63,8.63,0,0,1-1.35-2.63c-.07-.24-.13-.47-.19-.72a8.49,8.49,0,0,1,.19-4.28,8.34,8.34,0,0,1,1-2.14,8.53,8.53,0,0,1,14.32,9.28Z"/>
    </g>
</svg>