<svg xmlns="http://www.w3.org/2000/svg" viewBox="0 0 100 100"><defs><style>.cls-1{fill:#ffa627;}.cls-2{fill:#fffffc;}</style></defs><g id="icons"><path class="cls-1" d="M58.34,50.18A8.54,8.54,0,0,0,50,43.42a9.17,9.17,0,0,0-1.8.19,8.54,8.54,0,0,0-6.62,9.8l-2,2.1-1.91,2-8.08,8.29-1.91,2-2,2.1a8.52,8.52,0,0,0-1.24-.1,8.35,8.35,0,0,0-1.78.19,8.53,8.53,0,1,0,10.18,6.89l2-2.1,1.91-2,8.08-8.29,1.91-2,2-2.09a8.55,8.55,0,0,0,8.4-3.8A8.45,8.45,0,0,0,58.34,50.18Z"/><path class="cls-1" d="M70.26,32.82a8.55,8.55,0,1,0-3.7-5.38A8.45,8.45,0,0,0,70.26,32.82Z"/><path class="cls-2" d="M74.9,69.73a8.35,8.35,0,0,0-1.78.19,8.52,8.52,0,1,0,1.78-.19Z"/><path class="cls-2" d="M19.75,32.82a8.55,8.55,0,1,0-3.7-5.38A8.45,8.45,0,0,0,19.75,32.82Z"/><path d="M67.54,37a13.42,13.42,0,0,0,7.33,2.18,13.8,13.8,0,0,0,2.85-.3A13.53,13.53,0,1,0,67.54,37Zm.2-16a8.55,8.55,0,1,1-1.18,6.43A8.5,8.5,0,0,1,67.74,21ZM63.23,49.14a13.53,13.53,0,1,0-26.46,5.64,13.76,13.76,0,0,0,.88,2.7l1.91-2,2-2.1a8.54,8.54,0,0,1,6.62-9.8,9.17,9.17,0,0,1,1.8-.19A8.53,8.53,0,0,1,51.78,60.3a8.54,8.54,0,0,1-3,.1l-2,2.09-1.91,2a13.41,13.41,0,0,0,8,.74,13.53,13.53,0,0,0,10.41-16ZM36.74,72.74l-1.91,2-2,2.1a8.53,8.53,0,0,1-6.62,9.8,8.53,8.53,0,0,1-3.56-16.69,8.35,8.35,0,0,1,1.78-.19,8.52,8.52,0,0,1,1.24.1l2-2.1,1.91-2a13.4,13.4,0,0,0-8-.74A13.53,13.53,0,1,0,37.63,75.44,14,14,0,0,0,36.74,72.74Zm51.39,2.7A13.53,13.53,0,1,0,74.87,91.8a13.8,13.8,0,0,0,2.85-.3A13.54,13.54,0,0,0,88.13,75.44ZM82.06,82.9a8.53,8.53,0,1,1-8.94-13,8.35,8.35,0,0,1,1.78-.19,8.54,8.54,0,0,1,8.34,6.75A8.45,8.45,0,0,1,82.06,82.9ZM24.39,39.19a13.53,13.53,0,1,0-2.82-26.77,13.53,13.53,0,0,0,2.82,26.77ZM17.23,21a8.55,8.55,0,1,1-1.18,6.43A8.5,8.5,0,0,1,17.23,21Z"/></g></svg>