<svg xmlns="http://www.w3.org/2000/svg" viewBox="0 0 100 100"><defs><style>.cls-1{opacity:0.25;}.cls-2{opacity:0.5;}.cls-3{fill:#ffa627;}</style></defs><g id="icons_multi"><g class="cls-1"><g class="cls-2"><path d="M43.6,54.75,58.74,72.29V72l-15.8-18.3A3.66,3.66,0,0,0,43.6,54.75Zm43.51-5.56a3.73,3.73,0,0,1-.74,3.64L69.56,72.3V84.09a5.41,5.41,0,0,1-9,4A5.42,5.42,0,0,0,70.94,86V74.22L87.75,54.75A3.8,3.8,0,0,0,87.11,49.19Zm-23,38.39a3.49,3.49,0,1,0-3.49-3.49A3.49,3.49,0,0,0,64.15,87.58Z"/><path class="cls-3" d="M87.11,49.19a3.76,3.76,0,0,0-3.61-2.65H45.1a3.8,3.8,0,0,0-2.88,6.29l.72.83L58.74,72V84.09a5.41,5.41,0,1,0,10.82,0V72.3L86.37,52.83A3.73,3.73,0,0,0,87.11,49.19ZM60.66,84.09a3.49,3.49,0,1,1,3.49,3.49A3.49,3.49,0,0,1,60.66,84.09Z"/></g><path d="M31.25,43.19,50.18,65.11v-.4L30.43,41.83A4.57,4.57,0,0,0,31.25,43.19Zm54.4-6.95a4.69,4.69,0,0,1-.93,4.55l-21,24.34V79.87a6.76,6.76,0,0,1-11.28,5,6.77,6.77,0,0,0,13-2.63V67.53l21-24.34A4.76,4.76,0,0,0,85.65,36.24Zm-28.71,48a4.37,4.37,0,1,0-4.36-4.36A4.37,4.37,0,0,0,56.94,84.23Z"/><path class="cls-3" d="M85.65,36.24a4.72,4.72,0,0,0-4.53-3.31h-48a4.75,4.75,0,0,0-3.59,7.86l.9,1L50.18,64.71V79.87a6.77,6.77,0,0,0,13.53,0V65.13l21-24.34A4.69,4.69,0,0,0,85.65,36.24ZM52.58,79.87a4.37,4.37,0,1,1,4.36,4.36A4.37,4.37,0,0,1,52.58,79.87Z"/></g></g><g id="icons"><path d="M80.06,19.92h-60a5.94,5.94,0,0,0-4.49,9.82l25.81,29.9v19a8.46,8.46,0,1,0,16.91,0V60.17L84.56,29.74A5.94,5.94,0,0,0,80.06,19.92Z"/><path class="cls-3" d="M77.91,16.92h-60a5.94,5.94,0,0,0-4.5,9.82l25.81,29.9v19H56.14V57.17L82.4,26.74A5.94,5.94,0,0,0,77.91,16.92Z"/><path d="M47.68,82.55a7,7,0,1,1,7-7A7,7,0,0,1,47.68,82.55Z"/><path class="cls-3" d="M47.68,70.13a5.46,5.46,0,1,1-5.46,5.46,5.47,5.47,0,0,1,5.46-5.46m0-3a8.46,8.46,0,1,0,8.46,8.46,8.46,8.46,0,0,0-8.46-8.46Z"/><path d="M15.57,29.74l23.65,27.4v-.5L14.54,28.05A6,6,0,0,0,15.57,29.74Zm68-8.68a5.81,5.81,0,0,1-1.16,5.68L56.14,57.17V75.59A8.45,8.45,0,0,1,42,81.88a8.46,8.46,0,0,0,16.25-3.29V60.17L84.56,29.74A5.94,5.94,0,0,0,83.56,21.06Zm-35.88,60a5.46,5.46,0,1,0-5.46-5.46A5.47,5.47,0,0,0,47.68,81.05Z"/><path class="cls-3" d="M83.56,21.06a5.88,5.88,0,0,0-5.65-4.14h-60a5.94,5.94,0,0,0-4.5,9.82l1.13,1.31L39.22,56.64v19a8.46,8.46,0,0,0,16.92,0V57.17L82.4,26.74A5.81,5.81,0,0,0,83.56,21.06ZM42.22,75.59a5.46,5.46,0,1,1,5.46,5.46A5.47,5.47,0,0,1,42.22,75.59Z"/></g></svg>