<svg id="icons" xmlns="http://www.w3.org/2000/svg" viewBox="0 0 100 100">
    <defs>
        <style>.cls-1,.cls-2{fill:#fff;}.cls-1{opacity:0.5;}</style>
    </defs>
    <path d="M89.5,59.88h-44c-2.92,0-5.3,3-5.3,6.71v9c0,3.69,2.38,6.71,5.3,6.71h44c2.91,0,5.3-3,5.3-6.71v-9C94.8,62.9,92.41,59.88,89.5,59.88Z"/>
    <rect class="cls-1" x="7.46" y="24.88" width="85.34" height="22.4" rx="6.71"/>
    <path class="cls-2"
          d="M87.5,56.88h-44c-2.92,0-5.3,3-5.3,6.71v9c0,3.69,2.38,6.71,5.3,6.71h44c2.91,0,5.3-3,5.3-6.71v-9C92.8,59.9,90.41,56.88,87.5,56.88Z"/>
    <polygon class="cls-1"
             points="25.39 70.58 50.13 70.58 50.13 65.58 25.39 65.58 25.39 47.28 20.39 47.28 20.39 70.16 25.39 70.58"/>
</svg>