<?xml version="1.0" encoding="UTF-8"?>
<svg id="icons" xmlns="http://www.w3.org/2000/svg" viewBox="0 0 100 100">
  <defs>
    <style>
      .cls-1 {
        fill: #fff;
      }

      .cls-2 {
        fill: #ffa627;
      }
    </style>
  </defs>
  <path d="M65.12,29.26c-3.67,0-7.74,1.64-12.11,4.87-4.38-3.23-8.45-4.87-12.11-4.87-13.42,0-24.34,10.92-24.34,24.34s10.92,24.34,24.34,24.34c3.67,0,7.74-1.64,12.11-4.87,4.38,3.23,8.45,4.87,12.11,4.87,13.42,0,24.34-10.92,24.34-24.34s-10.92-24.34-24.34-24.34ZM65.12,72.83c-2.27,0-5.02-1.09-8.05-3.14,6.98-6.4,12.32-14.3,12.56-14.67.78-1.17.47-2.75-.7-3.54-1.17-.78-2.75-.47-3.54.7-.06.09-6.43,9.54-14,15.69-4,3.25-7.64,4.97-10.51,4.97-10.61,0-19.24-8.63-19.24-19.24s8.63-19.24,19.24-19.24c2.27,0,5.02,1.09,8.05,3.14-6.98,6.4-12.32,14.3-12.56,14.67-.78,1.17-.47,2.75.7,3.54,1.17.78,2.75.47,3.54-.7.06-.09,6.4-9.5,13.94-15.64.01,0,.02-.02.03-.03,0,0,.01-.01.02-.02,4-3.25,7.63-4.97,10.5-4.97,10.61,0,19.24,8.63,19.24,19.24s-8.63,19.24-19.24,19.24Z"/>
  <g>
    <path class="cls-1" d="M66.9,47.4c-1.17-.78-2.75-.47-3.54.7-.06.09-6.43,9.54-14,15.69-4,3.25-7.64,4.97-10.51,4.97-10.61,0-19.24-8.63-19.24-19.24s8.63-19.24,19.24-19.24c2.27,0,5.02,1.09,8.05,3.14.8.55,1.62,1.14,2.46,1.82.47.38,1.04.57,1.61.57s1.1-.18,1.55-.53c.01,0,.02-.02.03-.03.14-.11.28-.24.4-.39.89-1.09.72-2.7-.37-3.59-.54-.44-1.08-.85-1.61-1.24-4.38-3.23-8.45-4.87-12.11-4.87-13.42,0-24.34,10.92-24.34,24.34s10.92,24.34,24.34,24.34c3.67,0,7.74-1.64,12.11-4.87.53-.39,1.07-.8,1.61-1.24.84-.68,1.65-1.4,2.45-2.13,6.98-6.4,12.32-14.3,12.56-14.67.78-1.17.47-2.75-.7-3.54Z"/>
    <path class="cls-2" d="M63.08,25.18c-3.67,0-7.73,1.64-12.11,4.87-1.28.9-4.07,3.37-4.07,3.37-6.98,6.4-12.32,14.3-12.56,14.67-.78,1.17-.47,2.75.7,3.54,1.17.78,2.75.47,3.54-.7.06-.09,6.4-9.5,13.94-15.64-.13.1-.28.18-.42.26l.42-.26,1.55-1.2c3.41-2.5,6.5-3.81,9.01-3.81,10.61,0,19.24,8.63,19.24,19.24s-8.63,19.24-19.24,19.24c-2.27,0-5.02-1.09-8.05-3.14-.8.73-1.62,1.45-2.46,2.13-.54.44-1.08.85-1.61,1.24,4.38,3.23,8.45,4.87,12.11,4.87,13.42,0,24.34-10.92,24.34-24.34s-10.92-24.34-24.34-24.34Z"/>
  </g>
</svg>