<svg xmlns="http://www.w3.org/2000/svg" viewBox="0 0 100 100"><defs><style>.cls-1{fill:#ffa627;}</style></defs><g id="icons"><path d="M52,28.86A11.28,11.28,0,0,1,63.27,40.15a11.05,11.05,0,0,1-.33,2.65c1.91-1,3-2.92,3-6.42a16,16,0,0,0-31.94,0C34,42,37,43.49,41.33,43.84A11.27,11.27,0,0,1,52,28.86Z"/><path d="M75.58,40.27a23.43,23.43,0,0,0-4.91-14.39,23.42,23.42,0,0,1,2.94,11.39c0,13-23.6,45.91-23.6,45.91s-1.86-2.6-4.54-6.63C49.16,82.24,52,86.18,52,86.18S75.58,53.3,75.58,40.27Z"/><path class="cls-1" d="M70.67,25.88A23.59,23.59,0,0,0,26.42,37.27c0,9.36,12.19,29,19,39.28,2.68,4,4.54,6.63,4.54,6.63s23.6-32.88,23.6-45.91A23.42,23.42,0,0,0,70.67,25.88ZM62.94,42.8C60,44.34,55.33,43.86,50,43.86c-3.2,0-6.18.17-8.68,0C37,43.49,34,42,34,36.38a16,16,0,0,1,31.94,0C66,39.88,64.85,41.78,62.94,42.8Z"/></g></svg>