<svg xmlns="http://www.w3.org/2000/svg" viewBox="0 0 100 100"><defs><style>.cls-1{opacity:0.25;}.cls-2{opacity:0.5;}.cls-3{fill:#ffa627;}.cls-4{fill:#4d8dfc;}</style></defs><g id="icons_multi"><g class="cls-1"><g class="cls-2"><path d="M76.07,79.37a1.82,1.82,0,0,0,.52,1.16l7,6.93h.66Z"/><path d="M90.33,73.37V89.28a2,2,0,0,1,0,.35c0,.05,0,.09,0,.14a1.59,1.59,0,0,1-.07.2,1.19,1.19,0,0,1-.08.16.64.64,0,0,1-.08.14,1.9,1.9,0,0,1-.48.5l-.15.07a.83.83,0,0,1-.16.09L89,91l-.13,0a2.2,2.2,0,0,1-.36,0H72.45A1.62,1.62,0,0,1,72,91a1.49,1.49,0,0,0,0,.21A1.79,1.79,0,0,0,73.73,93h16.1a2.2,2.2,0,0,0,.36,0l.13,0,.2-.06a.83.83,0,0,0,.16-.09l.15-.07a1.9,1.9,0,0,0,.48-.5.64.64,0,0,0,.08-.14,1.19,1.19,0,0,0,.08-.16,1.59,1.59,0,0,0,.07-.2s0-.09,0-.14a2,2,0,0,0,0-.35V75.07A1.77,1.77,0,0,0,90.33,73.37Z"/><path d="M72.45,47a1.62,1.62,0,0,1-.49-.08,1.49,1.49,0,0,0,0,.21,1.79,1.79,0,0,0,1.79,1.79h8.58L84.23,47Z"/><path d="M91.59,46.77a.65.65,0,0,0,0-.13,1.17,1.17,0,0,0-.06-.2.51.51,0,0,0-.09-.16.7.7,0,0,0-.09-.17,2,2,0,0,0-.5-.5l-.14,0-.16-.09-.16,0V61.3a1.81,1.81,0,0,1-.53,1.28A1.77,1.77,0,0,1,88,63v.21a1.77,1.77,0,0,0,.53,1.27,1.79,1.79,0,0,0,2.53,0,1.81,1.81,0,0,0,.53-1.28V47.13A2.2,2.2,0,0,0,91.59,46.77Z"/><path d="M77.91,58.44a1.81,1.81,0,0,1-1.8.45,1.81,1.81,0,0,0,3.08,1.47l7.57-7.62v-3.2Z"/><path d="M60.25,47H48.48l1.93,1.92H61.53a1.73,1.73,0,0,0,1.27-.53,1.79,1.79,0,0,0-.77-3,1.77,1.77,0,0,1-.51,1.07A1.73,1.73,0,0,1,60.25,47Z"/><path d="M57.39,58.41a1.8,1.8,0,0,1-2.56,0L46,49.54V61.31a1.81,1.81,0,0,1-1.8,1.8,1.82,1.82,0,0,1-.51-.09v.21a1.8,1.8,0,1,0,3.59,0V51.46l8.87,8.87a1.81,1.81,0,0,0,2.56-2.56L57.91,57A1.77,1.77,0,0,1,57.39,58.41Z"/><path d="M63.26,74.59s0-.14-.06-.2a.79.79,0,0,1-.08-.16,1.09,1.09,0,0,0-.08-.15,1.9,1.9,0,0,0-.49-.49l-.15-.08-.16-.09-.18,0V89.26a1.79,1.79,0,0,1-1.79,1.79,1.59,1.59,0,0,1-.53-.08v.2a1.81,1.81,0,0,0,.53,1.28,1.76,1.76,0,0,0,1.28.52,1.79,1.79,0,0,0,1.79-1.79V75.08a2,2,0,0,0,0-.35A.16.16,0,0,0,63.26,74.59Z"/><path d="M44.15,75a1.59,1.59,0,0,1-.39-.07c0,.1,0,.2,0,.3a1.8,1.8,0,0,0,1.69,1.69H54L55.93,75Z"/><path d="M49.61,86.39a1.82,1.82,0,0,1-1.79.45,1.8,1.8,0,0,0,3.07,1.47l7.57-7.63V77.47Z"/><path class="cls-3" d="M88.54,71.36a1.79,1.79,0,0,0-1.79,1.79V84.93l-8.88-8.88a1.81,1.81,0,0,0-2.56,2.56l.76.76,8.16,8.09H72.45a1.73,1.73,0,0,0-1.26.54,1.71,1.71,0,0,0-.53,1.28A1.79,1.79,0,0,0,72,91a1.62,1.62,0,0,0,.49.08h16.1a2.2,2.2,0,0,0,.36,0L89,91l.2-.06a.83.83,0,0,0,.16-.09l.15-.07a1.9,1.9,0,0,0,.48-.5.64.64,0,0,0,.08-.14,1.19,1.19,0,0,0,.08-.16,1.59,1.59,0,0,0,.07-.2s0-.09,0-.14a2,2,0,0,0,0-.35V73.15A1.79,1.79,0,0,0,88.54,71.36Zm1.77-26.51a.65.65,0,0,0,0-.13,1.17,1.17,0,0,0-.06-.2.51.51,0,0,0-.09-.16.7.7,0,0,0-.09-.17,2,2,0,0,0-.5-.5l-.14,0-.16-.09L89,43.49l-.14,0a2.2,2.2,0,0,0-.36,0H72.45A1.79,1.79,0,0,0,72,46.92a1.62,1.62,0,0,0,.49.08H84.23l-8.88,8.88a1.8,1.8,0,0,0,0,2.56,1.75,1.75,0,0,0,.76.45,1.81,1.81,0,0,0,1.8-.45l8.85-8.9V61.31a1.8,1.8,0,0,0,3.06,1.27,1.81,1.81,0,0,0,.53-1.28V45.21A2.2,2.2,0,0,0,90.31,44.85ZM60.25,43.4H44.16a1.47,1.47,0,0,0-.36,0l-.13,0-.2.06-.16.08-.15.08a1.9,1.9,0,0,0-.49.49,1,1,0,0,0-.07.15.51.51,0,0,0-.09.16,1.52,1.52,0,0,0-.06.2.65.65,0,0,0,0,.13,2.2,2.2,0,0,0,0,.36V61.31A1.78,1.78,0,0,0,43.65,63a1.82,1.82,0,0,0,.51.09,1.81,1.81,0,0,0,1.8-1.8V49.54l8.87,8.87a1.8,1.8,0,0,0,2.56,0,1.83,1.83,0,0,0,0-2.56l-7-6.93L48.48,47H60.25a1.73,1.73,0,0,0,1.27-.53A1.77,1.77,0,0,0,62,45.4a1.49,1.49,0,0,0,0-.21A1.8,1.8,0,0,0,60.25,43.4Z"/><path class="cls-4" d="M62,72.81a.16.16,0,0,0-.05-.14s0-.14-.06-.2a.79.79,0,0,1-.08-.16,1.09,1.09,0,0,0-.08-.15,1.9,1.9,0,0,0-.49-.49l-.15-.08L61,71.5l-.2-.06-.14,0a1.39,1.39,0,0,0-.35,0H44.15a1.8,1.8,0,0,0-.39,3.52,1.59,1.59,0,0,0,.39.07H55.93L54,76.87l-7,7a1.8,1.8,0,0,0,0,2.56,1.89,1.89,0,0,0,.77.45,1.82,1.82,0,0,0,1.79-.45l8.85-8.92V89.25A1.81,1.81,0,0,0,59,90.53a1.84,1.84,0,0,0,.75.44,1.59,1.59,0,0,0,.53.08,1.79,1.79,0,0,0,1.79-1.79V73.16A2,2,0,0,0,62,72.81Z"/></g><path d="M71.34,74.16A2.32,2.32,0,0,0,72,75.62l8.73,8.66h.82Z"/><path d="M89.17,66.66V86.55a2.12,2.12,0,0,1,0,.44.84.84,0,0,1-.05.17,1,1,0,0,1-.08.25.75.75,0,0,1-.1.2,1,1,0,0,1-.1.18,2.25,2.25,0,0,1-.61.62l-.18.1-.2.1-.25.08-.17,0a2.12,2.12,0,0,1-.44.05H66.82a2.12,2.12,0,0,1-.62-.1,1.1,1.1,0,0,0,0,.26,2.24,2.24,0,0,0,2.24,2.24H88.54a2.12,2.12,0,0,0,.44,0l.17,0L89.4,91a1.24,1.24,0,0,0,.2-.1l.18-.1a2.25,2.25,0,0,0,.61-.62,1,1,0,0,0,.1-.18.75.75,0,0,0,.1-.2,1,1,0,0,0,.08-.25.84.84,0,0,0,0-.17,2.12,2.12,0,0,0,0-.44V68.79A2.23,2.23,0,0,0,89.17,66.66Z"/><path d="M66.82,33.7a2.12,2.12,0,0,1-.62-.1,2.28,2.28,0,0,0,0,.26,2.24,2.24,0,0,0,2.24,2.24H79.14l2.4-2.4Z"/><path d="M90.74,33.42c0-.06,0-.12,0-.17a1.83,1.83,0,0,0-.08-.25.78.78,0,0,0-.11-.2,1.06,1.06,0,0,0-.11-.21,2.44,2.44,0,0,0-.62-.62l-.18-.07-.2-.11-.21-.07V51.58a2.22,2.22,0,0,1-2.88,2.15V54a2.24,2.24,0,1,0,4.48,0V33.87A2.28,2.28,0,0,0,90.74,33.42Z"/><path d="M73.63,48a2.24,2.24,0,0,1-2.24.56,2.25,2.25,0,0,0,3.84,1.84l9.47-9.52v-4Z"/><path d="M51.57,33.71H36.85l2.42,2.4h13.9a2.27,2.27,0,0,0,2.24-2.27,2.23,2.23,0,0,0-1.62-2.14A2.23,2.23,0,0,1,53.15,33,2.19,2.19,0,0,1,51.57,33.71Z"/><path d="M48,48a2.27,2.27,0,0,1-3.2,0L33.7,36.87V51.59a2.24,2.24,0,0,1-2.24,2.24,2.2,2.2,0,0,1-.64-.1V54a2.24,2.24,0,1,0,4.48,0V39.27l11.09,11.1a2.26,2.26,0,0,0,3.2-3.2l-1-.94A2.24,2.24,0,0,1,48,48Z"/><path d="M55.33,68.19c-.06-.06,0-.17-.07-.25a.51.51,0,0,1-.11-.2,1.14,1.14,0,0,0-.1-.19,2.12,2.12,0,0,0-.62-.61l-.18-.11-.2-.1-.23-.07V86.53a2.24,2.24,0,0,1-2.24,2.24,2.06,2.06,0,0,1-.65-.11v.25a2.24,2.24,0,0,0,2.25,2.26,2.24,2.24,0,0,0,2.24-2.24V68.8a2.18,2.18,0,0,0,0-.44A.22.22,0,0,0,55.33,68.19Z"/><path d="M31.44,68.64a1.93,1.93,0,0,1-.49-.09,1.62,1.62,0,0,0,0,.38A2.25,2.25,0,0,0,33,71H43.76l2.4-2.4Z"/><path d="M38.26,82.94A2.28,2.28,0,0,1,36,83.5a2.25,2.25,0,0,0,3.84,1.84l9.47-9.53v-4Z"/><path class="cls-3" d="M86.93,64.16a2.23,2.23,0,0,0-2.24,2.23V81.11L73.59,70a2.26,2.26,0,0,0-3.2,3.2l1,.94,10.2,10.12H66.82a2.22,2.22,0,0,0-1.59.67,2.18,2.18,0,0,0-.65,1.6,2.22,2.22,0,0,0,1.62,2.14,2.12,2.12,0,0,0,.62.1H86.94a2.12,2.12,0,0,0,.44-.05l.17,0,.25-.08.2-.1.18-.1a2.25,2.25,0,0,0,.61-.62,1,1,0,0,0,.1-.18.75.75,0,0,0,.1-.2,1,1,0,0,0,.08-.25.84.84,0,0,0,.05-.17,2.12,2.12,0,0,0,0-.44V66.39A2.23,2.23,0,0,0,86.93,64.16ZM89.14,31c0-.06,0-.12,0-.17A1.83,1.83,0,0,0,89,30.6a.78.78,0,0,0-.11-.2,1.06,1.06,0,0,0-.11-.21,2.44,2.44,0,0,0-.62-.62L88,29.5l-.2-.11-.24-.08-.17,0a1.73,1.73,0,0,0-.45-.05H66.82a2.23,2.23,0,0,0-.62,4.38,2.12,2.12,0,0,0,.62.1H81.54L70.43,44.8a2.27,2.27,0,0,0,0,3.2,2.19,2.19,0,0,0,1,.56A2.24,2.24,0,0,0,73.63,48L84.7,36.87V51.59a2.25,2.25,0,0,0,.66,1.59,2.2,2.2,0,0,0,.94.55,2.22,2.22,0,0,0,2.88-2.15V31.47A2.28,2.28,0,0,0,89.14,31ZM51.57,29.2H31.45a2.3,2.3,0,0,0-.45.05l-.17.05-.25.08-.2.1-.18.1a2.21,2.21,0,0,0-.61.61,1.11,1.11,0,0,0-.09.19.78.78,0,0,0-.11.2,1.83,1.83,0,0,0-.08.25c0,.05,0,.11,0,.16a2.28,2.28,0,0,0,0,.45V51.59a2.23,2.23,0,0,0,1.6,2.14,2.2,2.2,0,0,0,.64.1,2.24,2.24,0,0,0,2.24-2.24V36.87L44.79,48A2.27,2.27,0,0,0,48,48a2.28,2.28,0,0,0,0-3.2l-8.72-8.66-2.42-2.4H51.57A2.19,2.19,0,0,0,53.15,33a2.23,2.23,0,0,0,.64-1.34c0-.09,0-.17,0-.26A2.24,2.24,0,0,0,51.57,29.2Z"/><path class="cls-4" d="M53.78,66a.22.22,0,0,0-.05-.17c-.06-.06,0-.17-.07-.25a.51.51,0,0,1-.11-.2,1.14,1.14,0,0,0-.1-.19,2.12,2.12,0,0,0-.62-.61l-.18-.11-.2-.1-.25-.08-.18,0a2.12,2.12,0,0,0-.44,0H31.44a2.25,2.25,0,0,0-.49,4.4,1.93,1.93,0,0,0,.49.09H46.16L43.76,71l-8.7,8.7a2.27,2.27,0,0,0,0,3.2,2.41,2.41,0,0,0,1,.56,2.28,2.28,0,0,0,2.24-.56L49.33,71.79V86.51a2.26,2.26,0,0,0,.65,1.6,2.18,2.18,0,0,0,1,.55,2.06,2.06,0,0,0,.65.11,2.24,2.24,0,0,0,2.24-2.24V66.4A2.18,2.18,0,0,0,53.78,66Z"/></g></g><g id="icons"><path d="M65.18,68.65A2.75,2.75,0,0,0,66,70.47L76.9,81.3h1Z"/><path d="M87.46,59.28V84.13a2.6,2.6,0,0,1-.06.56l-.06.21a1.6,1.6,0,0,1-.1.31,1,1,0,0,1-.13.25,1,1,0,0,1-.12.23,2.66,2.66,0,0,1-.76.77l-.23.12a1.19,1.19,0,0,1-.25.13l-.31.1a.83.83,0,0,1-.21.06,2.6,2.6,0,0,1-.56.06H59.52a2.76,2.76,0,0,1-.77-.12c0,.11,0,.22,0,.32a2.8,2.8,0,0,0,2.8,2.8H86.67a2.6,2.6,0,0,0,.56-.06.83.83,0,0,0,.21-.06l.31-.1a1.19,1.19,0,0,0,.25-.13l.23-.12a2.66,2.66,0,0,0,.76-.77,1,1,0,0,0,.12-.23,1,1,0,0,0,.13-.25,1.6,1.6,0,0,0,.1-.31l.06-.21a2.6,2.6,0,0,0,.06-.56V61.94A2.78,2.78,0,0,0,87.46,59.28Z"/><path d="M59.52,18.07a2.82,2.82,0,0,1-.77-.12c0,.11,0,.22,0,.33a2.79,2.79,0,0,0,2.8,2.79h13.4l3-3Z"/><path d="M89.42,17.72l-.06-.21a1.86,1.86,0,0,0-.1-.31,1.49,1.49,0,0,0-.13-.25c0-.09-.09-.17-.14-.26a3,3,0,0,0-.78-.78L88,15.82l-.25-.13-.26-.08V40.42a2.79,2.79,0,0,1-3.6,2.69v.33a2.76,2.76,0,0,0,.82,2,2.8,2.8,0,0,0,4.78-2V18.28A2.74,2.74,0,0,0,89.42,17.72Z"/><path d="M68,36a2.8,2.8,0,0,1-2.8.7A2.79,2.79,0,0,0,66,39a2.82,2.82,0,0,0,4,0l11.84-11.9V22Z"/><path d="M40.46,18.08H22.06l3,3H42.46a2.69,2.69,0,0,0,2-.83,2.8,2.8,0,0,0-1.21-4.67,2.79,2.79,0,0,1-2.77,2.5Z"/><path d="M36,35.91a2.82,2.82,0,0,1-4,0L18.12,22v18.4a2.8,2.8,0,0,1-2.8,2.8,2.68,2.68,0,0,1-.8-.13v.33a2.8,2.8,0,1,0,5.6,0V25L34,38.91a2.83,2.83,0,0,0,4-4L36.8,33.73A2.78,2.78,0,0,1,36,35.91Z"/><path d="M45.16,61.18c-.07-.07,0-.21-.09-.31a.75.75,0,0,1-.13-.25,1.71,1.71,0,0,0-.13-.23,2.82,2.82,0,0,0-.77-.77l-.23-.13-.25-.13-.28-.09V84.11a2.78,2.78,0,0,1-3.62,2.67v.31a2.82,2.82,0,0,0,.82,2,2.81,2.81,0,0,0,4.8-2V62a3.51,3.51,0,0,0-.05-.55A.27.27,0,0,0,45.16,61.18Z"/><path d="M15.3,61.75a2.6,2.6,0,0,1-.62-.11,2.54,2.54,0,0,0,0,.48,2.81,2.81,0,0,0,2.64,2.63H30.7l3-3Z"/><path d="M23.83,79.62a2.8,2.8,0,0,1-2.8.7,2.79,2.79,0,0,0,.8,2.3,2.82,2.82,0,0,0,4,0L37.66,70.71v-5Z"/><path class="cls-3" d="M84.66,56.15a2.79,2.79,0,0,0-2.8,2.79v18.4L68,63.47a2.83,2.83,0,1,0-4,4l1.19,1.18L77.92,81.3H59.52a2.82,2.82,0,0,0,0,5.63H84.67a2.6,2.6,0,0,0,.56-.06.83.83,0,0,0,.21-.06l.31-.1a1.19,1.19,0,0,0,.25-.13l.23-.12a2.66,2.66,0,0,0,.76-.77,1,1,0,0,0,.12-.23,1,1,0,0,0,.13-.25,1.6,1.6,0,0,0,.1-.31l.06-.21a2.6,2.6,0,0,0,.06-.56V58.94A2.79,2.79,0,0,0,84.66,56.15Zm2.76-41.43-.06-.21a1.86,1.86,0,0,0-.1-.31,1.49,1.49,0,0,0-.13-.25c0-.09-.09-.17-.14-.26a3,3,0,0,0-.78-.78L86,12.82l-.25-.13-.3-.1-.22-.06a2.6,2.6,0,0,0-.56-.06H59.52a2.8,2.8,0,0,0,0,5.6h18.4L64,32a2.84,2.84,0,0,0,0,4,2.86,2.86,0,0,0,4,0L81.88,22v18.4a2.76,2.76,0,0,0,.82,2,2.69,2.69,0,0,0,1.18.69,2.79,2.79,0,0,0,3.6-2.69V15.28A2.74,2.74,0,0,0,87.42,14.72Zm-47-2.27H15.31a2.6,2.6,0,0,0-.56.06l-.21.06-.31.1L14,12.8l-.23.12a2.93,2.93,0,0,0-.76.77,1.27,1.27,0,0,0-.12.23,1.49,1.49,0,0,0-.13.25,1.86,1.86,0,0,0-.1.31l-.06.21a2.74,2.74,0,0,0-.06.56V40.44a2.79,2.79,0,0,0,2,2.67,2.68,2.68,0,0,0,.8.13,2.8,2.8,0,0,0,2.8-2.8V22L32,35.91a2.82,2.82,0,0,0,4,0,2.86,2.86,0,0,0,0-4L25.08,21.08l-3-3h18.4a2.79,2.79,0,0,0,2.77-2.5c0-.11,0-.22,0-.33A2.8,2.8,0,0,0,40.46,12.45Z"/><path class="cls-4" d="M43.23,58.4a.27.27,0,0,0-.07-.22c-.07-.07,0-.21-.09-.31a.75.75,0,0,1-.13-.25,1.71,1.71,0,0,0-.13-.23,2.82,2.82,0,0,0-.77-.77l-.23-.13-.25-.13-.31-.1L41,56.2a2.57,2.57,0,0,0-.55-.06H15.3a2.81,2.81,0,0,0-.62,5.5,2.6,2.6,0,0,0,.62.11H33.7l-3,3L19.83,75.62a2.84,2.84,0,0,0,0,4,2.86,2.86,0,0,0,4,0L37.66,65.69v18.4a2.82,2.82,0,0,0,.82,2,2.77,2.77,0,0,0,1.18.69,2.78,2.78,0,0,0,3.62-2.67V59A3.51,3.51,0,0,0,43.23,58.4Z"/></g></svg>