<svg id="icons" xmlns="http://www.w3.org/2000/svg" viewBox="0 0 100 100"><defs><style>.cls-1{fill:#4d8dfc;}.cls-2{fill:#fff;}</style></defs><rect class="cls-1" x="17.31" y="31.19" width="65.38" height="37.62"/><path class="cls-2" d="M88.49,31.19v8a2.78,2.78,0,0,1-2.9,2.74,2.86,2.86,0,0,1-2.9-2.74v-8H75.17a2.8,2.8,0,0,1-2.9-2.79,2.86,2.86,0,0,1,2.9-2.74H88.49Z"/><path class="cls-2" d="M11.51,68.81v-8a2.78,2.78,0,0,1,2.9-2.74,2.86,2.86,0,0,1,2.9,2.74v8h7.52a2.8,2.8,0,0,1,2.9,2.79,2.86,2.86,0,0,1-2.9,2.74H11.51Z"/><path class="cls-2" d="M11.51,25.66H24.83a2.86,2.86,0,0,1,2.9,2.74,2.8,2.8,0,0,1-2.9,2.79H17.31v8a2.86,2.86,0,0,1-2.9,2.74,2.78,2.78,0,0,1-2.9-2.74V25.66Z"/><path class="cls-2" d="M88.49,74.34H75.17a2.86,2.86,0,0,1-2.9-2.74,2.8,2.8,0,0,1,2.9-2.79h7.52v-8a2.86,2.86,0,0,1,2.9-2.74,2.78,2.78,0,0,1,2.9,2.74V74.34Z"/></svg>