<?xml version="1.0" encoding="UTF-8"?>
<svg id="icons" xmlns="http://www.w3.org/2000/svg" viewBox="0 0 100 100">
  <defs>
    <style>
      .cls-1 {
        fill: #4d8dfc;
      }
    </style>
  </defs>
  <path d="M59.33,15.2c-6.26-4.06-14.66-2.27-18.72,3.99-1.97,3.03-2.63,6.65-1.88,10.19.35,1.66,1.01,3.2,1.91,4.57l1.47-2.47,1.62-2.74,3.51-5.92h8.6l4.07,6.86,1.51,2.54,1.41,2.38c.17-.23.34-.45.5-.69,1.97-3.03,2.63-6.65,1.88-10.19s-2.84-6.57-5.87-8.53ZM51.54,35.17l-1.34,2.26-1.35,2.28c1.01.24,2.05.37,3.1.37.79,0,1.59-.09,2.38-.23l-1.38-2.33-1.4-2.36ZM93.66,71.24c-.75-3.54-2.84-6.57-5.87-8.53-2.83-1.83-6.16-2.52-9.47-2l1.4,2.35,1.49,2.52,3.52,5.93-4.3,7.55h-12.56c1.03,2.59,2.81,4.81,5.2,6.35,2.22,1.44,4.75,2.18,7.33,2.18.95,0,1.9-.1,2.85-.3,3.54-.75,6.57-2.84,8.53-5.87,1.97-3.03,2.63-6.65,1.88-10.19ZM71.11,68.16l-1.4-2.35c-.22.29-.44.58-.64.89-.49.75-.9,1.54-1.22,2.36h3.8l-.53-.9ZM32.99,66.45l-1.45,2.44-.1.18h2.93c-.37-.92-.82-1.8-1.37-2.62ZM18.36,71.51l3.55-5.98,1.42-2.39,1.36-2.3c-1.86-.41-3.79-.43-5.71-.02-3.53.75-6.56,2.84-8.53,5.87-1.97,3.03-2.63,6.65-1.88,10.18.75,3.54,2.84,6.57,5.87,8.53,2.22,1.44,4.75,2.18,7.33,2.18.95,0,1.9-.1,2.85-.3,3.54-.75,6.56-2.84,8.53-5.87.49-.75.9-1.55,1.22-2.36h-11.72l-4.3-7.55Z"/>
  <path class="cls-1" d="M81.21,65.58l-1.49-2.52-1.4-2.35-15.49-26.11-1.41-2.38-1.51-2.54-4.07-6.86h-8.6l-3.51,5.92-1.62,2.74-1.47,2.47-15.96,26.9-1.36,2.3-1.42,2.39-3.55,5.98,4.3,7.55h57.77l4.3-7.55-3.52-5.93ZM70.59,69.06H31.44l.1-.18,1.45-2.44,15.85-26.73,1.35-2.28,1.34-2.26,1.4,2.36,1.38,2.33,15.39,25.95,1.4,2.35.53.9h-1.05Z"/>
</svg>