<svg id="icons" xmlns="http://www.w3.org/2000/svg" viewBox="0 0 100 100"><defs><style>.cls-1{fill:#fff;}</style></defs><path d="M48,73.32V58.26L35.9,34.61a5.8,5.8,0,0,1-.41-2c0-2.41,2.41-4.47,4.88-4.47a4.47,4.47,0,0,1,3.92,2.06l8.6,17,8.52-17a4.52,4.52,0,0,1,4-2.06c2.47,0,4.88,2.06,4.88,4.47a7.22,7.22,0,0,1-.48,2l-12,23.65V73.32a4.89,4.89,0,0,1-9.75,0Z"/><path class="cls-1" d="M46,70.32V55.26L33.9,31.61a5.8,5.8,0,0,1-.41-2c0-2.41,2.41-4.47,4.88-4.47a4.47,4.47,0,0,1,3.92,2.06l8.6,17,8.52-17a4.52,4.52,0,0,1,4-2.06c2.47,0,4.88,2.06,4.88,4.47a7.22,7.22,0,0,1-.48,2l-12,23.65V70.32a4.89,4.89,0,0,1-9.75,0Z"/></svg>