<?xml version="1.0" encoding="UTF-8"?>
<svg xmlns="http://www.w3.org/2000/svg" viewBox="0 0 100 100">
  <defs>
    <style>
      .cls-1 {
        fill: #fff;
      }

      .cls-2 {
        fill: #4d8dfc;
      }

      .cls-3 {
        opacity: .5;
      }

      .cls-4 {
        opacity: .7;
      }
    </style>
  </defs>
  <g id="Layer_25" data-name="Layer 25">
    <g class="cls-3">
      <path class="cls-1" d="M78.96,39.59c1.49.95,1.93,2.92.99,4.42l-2.37,3.73c.27-.02.54-.05.81-.1,1.43-.3,2.65-1.15,3.44-2.37,1.64-2.53.92-5.91-1.61-7.55-.9-.58-1.92-.88-2.96-.88-.38,0-.77.04-1.15.12-1.43.3-2.65,1.15-3.44,2.37s-1.06,2.68-.76,4.11c.06.3.16.59.27.88l2.37-3.73c.95-1.49,2.92-1.93,4.42-.99Z"/>
      <path class="cls-1" d="M85.87,61.44c-.89-.58-1.92-.88-2.96-.88-.38,0-.77.04-1.15.12-1.43.3-2.65,1.15-3.44,2.37-1.64,2.53-.92,5.91,1.61,7.55,2.53,1.64,5.91.91,7.55-1.61.79-1.22,1.06-2.68.76-4.11s-1.15-2.65-2.37-3.44Z"/>
      <path class="cls-2" d="M53.35,69.73c-1.64,2.53-.91,5.91,1.61,7.55,1.22.79,2.68,1.06,4.11.76,1.43-.3,2.65-1.15,3.44-2.37s1.06-2.68.76-4.11c-.06-.3-.16-.59-.27-.88l-2.37,3.73c-.61.96-1.65,1.49-2.7,1.49-.59,0-1.18-.16-1.71-.5-1.49-.95-1.93-2.92-.99-4.42l2.37-3.73c-.27.02-.54.05-.81.1-1.43.3-2.65,1.15-3.44,2.37Z"/>
      <path d="M77.25,36.83c1.04,0,2.06.3,2.96.88,2.53,1.64,3.25,5.03,1.61,7.55-.79,1.22-2.02,2.07-3.44,2.37-.27.06-.54.09-.81.1l-1,1.58-.94,1.48c.52.1,1.06.16,1.59.16.61,0,1.22-.06,1.82-.19,2.26-.48,4.2-1.82,5.46-3.76h0c2.6-4.01,1.45-9.38-2.56-11.98-1.94-1.26-4.26-1.69-6.52-1.2-2.26.48-4.2,1.82-5.46,3.76-1.26,1.94-1.69,4.26-1.2,6.52.26,1.2.76,2.3,1.46,3.27l.94-1.48,1-1.58c-.11-.28-.21-.57-.27-.88-.3-1.43-.03-2.89.76-4.11s2.02-2.07,3.44-2.37c.38-.08.77-.12,1.15-.12ZM91.37,64.21c-.48-2.26-1.82-4.2-3.76-5.46-1.94-1.26-4.26-1.69-6.52-1.2-2.26.48-4.2,1.82-5.46,3.76-2.6,4.01-1.45,9.38,2.56,11.98,1.45.94,3.08,1.39,4.7,1.39,2.84,0,5.62-1.39,7.28-3.95,1.26-1.94,1.69-4.26,1.2-6.52ZM87.48,68.99c-1.64,2.53-5.03,3.25-7.55,1.61-2.53-1.64-3.25-5.03-1.61-7.55.79-1.22,2.02-2.07,3.44-2.37.38-.08.77-.12,1.15-.12,1.04,0,2.06.3,2.96.88,1.22.79,2.07,2.02,2.37,3.44s.03,2.89-.76,4.11ZM64.95,67.62l-.94,1.48-1,1.58c.11.28.21.57.27.88.3,1.43.03,2.89-.76,4.11s-2.02,2.07-3.44,2.37c-1.42.3-2.89.03-4.11-.76-2.53-1.64-3.25-5.03-1.61-7.55.79-1.22,2.02-2.07,3.44-2.37.27-.06.54-.09.81-.1l1-1.58.94-1.49c-1.12-.21-2.28-.2-3.42.04-2.26.48-4.2,1.82-5.46,3.76-2.6,4.01-1.45,9.38,2.56,11.98,1.42.92,3.04,1.4,4.69,1.4.61,0,1.22-.06,1.82-.19,2.26-.48,4.2-1.82,5.46-3.76,1.26-1.94,1.69-4.26,1.2-6.52-.26-1.2-.76-2.3-1.46-3.27Z"/>
      <path class="cls-2" d="M78.96,39.59c-1.49-.95-3.47-.51-4.42.99l-2.37,3.73-1,1.58-.94,1.48-10.68,16.82-.94,1.49-1,1.58-2.37,3.73c-.95,1.49-.51,3.47.99,4.42.53.34,1.12.5,1.71.5,1.06,0,2.1-.53,2.7-1.49l2.37-3.73,1-1.58.94-1.48,10.68-16.82.94-1.48,1-1.58,2.37-3.73c.95-1.49.51-3.47-.99-4.42Z"/>
    </g>
  </g>
  <g id="icons_50" data-name="icons 50">
    <g class="cls-4">
      <path class="cls-1" d="M69.09,32.11c1.87,1.18,2.42,3.66,1.23,5.52l-2.96,4.66c.34-.02.67-.06,1.01-.13,1.78-.38,3.31-1.43,4.3-2.96,2.05-3.16,1.14-7.39-2.01-9.44-1.12-.73-2.4-1.1-3.7-1.1-.48,0-.96.05-1.44.15-1.78.38-3.31,1.43-4.3,2.96s-1.33,3.35-.95,5.14c.08.38.2.74.34,1.1l2.96-4.66c1.18-1.87,3.65-2.42,5.52-1.23Z"/>
      <path class="cls-1" d="M77.73,59.43c-1.12-.73-2.4-1.1-3.7-1.1-.48,0-.96.05-1.44.15-1.78.38-3.31,1.43-4.3,2.96-2.05,3.16-1.14,7.39,2.01,9.44,3.16,2.05,7.39,1.14,9.44-2.01.99-1.53,1.33-3.35.95-5.14-.38-1.78-1.43-3.31-2.96-4.3Z"/>
      <path class="cls-2" d="M37.09,69.79c-2.05,3.16-1.14,7.39,2.01,9.44,1.53.99,3.36,1.33,5.14.95,1.78-.38,3.31-1.43,4.3-2.96s1.33-3.35.95-5.14c-.08-.38-.2-.74-.34-1.1l-2.96,4.66c-.76,1.2-2.06,1.86-3.38,1.86-.73,0-1.47-.2-2.14-.62-1.87-1.18-2.42-3.66-1.23-5.52l2.96-4.66c-.34.02-.67.06-1.01.13-1.78.38-3.31,1.43-4.3,2.96Z"/>
      <path d="M66.96,28.66c1.3,0,2.58.38,3.7,1.1,3.16,2.05,4.06,6.28,2.01,9.44-.99,1.53-2.52,2.58-4.3,2.96-.34.07-.67.11-1.01.13l-1.25,1.98-1.18,1.85c.66.12,1.32.19,1.99.19.76,0,1.52-.08,2.28-.24,2.83-.6,5.25-2.27,6.83-4.7h0c3.25-5.01,1.81-11.73-3.19-14.97-2.43-1.57-5.32-2.11-8.15-1.5-2.83.6-5.25,2.27-6.82,4.7-1.57,2.43-2.11,5.32-1.5,8.15.32,1.5.95,2.88,1.82,4.09l1.18-1.86,1.25-1.97c-.14-.35-.26-.72-.34-1.1-.38-1.78-.04-3.61.95-5.14s2.52-2.58,4.3-2.96c.48-.1.96-.15,1.44-.15ZM84.61,62.89c-.6-2.83-2.27-5.25-4.7-6.82-2.43-1.57-5.32-2.11-8.15-1.5-2.83.6-5.25,2.27-6.83,4.7-3.25,5.01-1.81,11.73,3.19,14.97,1.82,1.18,3.85,1.74,5.87,1.74,3.55,0,7.03-1.74,9.1-4.93,1.57-2.43,2.11-5.32,1.5-8.15ZM79.75,68.87c-2.05,3.16-6.28,4.06-9.44,2.01-3.16-2.05-4.06-6.28-2.01-9.44.99-1.53,2.52-2.58,4.3-2.96.48-.1.96-.15,1.44-.15,1.3,0,2.58.38,3.7,1.1,1.53.99,2.58,2.52,2.96,4.3.38,1.78.04,3.61-.95,5.14ZM51.58,67.15l-1.18,1.85-1.25,1.97c.14.35.26.72.34,1.1.38,1.78.04,3.61-.95,5.14s-2.52,2.58-4.3,2.96c-1.78.38-3.61.04-5.14-.95-3.16-2.05-4.06-6.28-2.01-9.44.99-1.53,2.52-2.58,4.3-2.96.34-.07.67-.11,1.01-.13l1.25-1.98,1.18-1.86c-1.4-.27-2.84-.25-4.28.05-2.83.6-5.25,2.27-6.82,4.7-3.25,5.01-1.81,11.73,3.19,14.97,1.78,1.15,3.8,1.75,5.87,1.75.76,0,1.52-.08,2.28-.24,2.83-.6,5.25-2.27,6.83-4.7,1.57-2.43,2.11-5.32,1.5-8.15-.32-1.5-.95-2.88-1.82-4.09Z"/>
      <path class="cls-2" d="M69.09,32.11c-1.87-1.19-4.34-.63-5.52,1.23l-2.96,4.66-1.25,1.97-1.18,1.86-13.35,21.02-1.18,1.86-1.25,1.98-2.96,4.66c-1.18,1.86-.63,4.34,1.23,5.52.66.42,1.41.62,2.14.62,1.32,0,2.62-.66,3.38-1.86l2.96-4.66,1.25-1.97,1.18-1.85,13.35-21.03,1.18-1.85,1.25-1.98,2.96-4.66c1.18-1.86.63-4.34-1.23-5.52Z"/>
    </g>
  </g>
  <g id="Layer_5" data-name="Layer 5">
    <g>
      <path class="cls-1" d="M55.76,22.52c2.33,1.48,3.02,4.57,1.54,6.9l-3.7,5.83c.42-.03.84-.07,1.26-.16,2.23-.48,4.14-1.79,5.38-3.7,2.56-3.95,1.43-9.24-2.52-11.8-1.4-.91-3-1.38-4.62-1.38-.6,0-1.2.06-1.8.19-2.23.48-4.14,1.79-5.38,3.7s-1.66,4.19-1.19,6.42c.1.47.25.93.42,1.37l3.7-5.83c1.48-2.33,4.57-3.02,6.9-1.54Z"/>
      <path class="cls-1" d="M66.56,56.66c-1.4-.91-3-1.38-4.62-1.38-.6,0-1.2.06-1.8.19-2.23.48-4.14,1.79-5.38,3.7-2.56,3.95-1.43,9.24,2.52,11.8,3.95,2.56,9.24,1.43,11.8-2.52,1.24-1.91,1.66-4.19,1.18-6.42s-1.79-4.14-3.7-5.38Z"/>
      <path class="cls-2" d="M15.75,69.61c-2.56,3.95-1.43,9.24,2.52,11.8,1.91,1.24,4.2,1.66,6.42,1.19,2.23-.48,4.14-1.79,5.38-3.7s1.66-4.19,1.19-6.42c-.1-.47-.25-.93-.42-1.37l-3.7,5.83c-.95,1.5-2.57,2.32-4.23,2.32-.92,0-1.84-.25-2.67-.78-2.33-1.48-3.02-4.57-1.54-6.9l3.7-5.83c-.42.03-.84.07-1.26.16-2.23.48-4.14,1.79-5.38,3.7Z"/>
      <path d="M53.09,18.2c1.63,0,3.23.47,4.62,1.38,3.95,2.56,5.08,7.85,2.52,11.8-1.24,1.91-3.15,3.23-5.38,3.7-.42.09-.84.14-1.26.16l-1.57,2.47-1.47,2.32c.82.16,1.65.24,2.49.24.95,0,1.9-.1,2.85-.3,3.54-.75,6.57-2.84,8.53-5.87h0c4.06-6.26,2.27-14.66-3.99-18.72-3.03-1.97-6.65-2.63-10.19-1.88-3.54.75-6.57,2.84-8.53,5.87-1.97,3.03-2.63,6.65-1.88,10.19.4,1.88,1.18,3.6,2.28,5.11l1.47-2.32,1.56-2.46c-.17-.44-.32-.9-.42-1.37-.48-2.23-.05-4.51,1.19-6.42s3.15-3.23,5.38-3.7c.6-.13,1.2-.19,1.8-.19ZM75.16,60.99c-.75-3.53-2.84-6.56-5.87-8.53-3.03-1.97-6.65-2.63-10.18-1.88-3.54.75-6.57,2.84-8.53,5.87-4.06,6.26-2.27,14.66,3.99,18.72,2.27,1.47,4.82,2.17,7.34,2.17,4.44,0,8.79-2.18,11.38-6.17,1.97-3.03,2.63-6.65,1.88-10.19ZM69.08,68.46c-2.56,3.95-7.85,5.08-11.8,2.52-3.95-2.56-5.08-7.85-2.52-11.8,1.24-1.91,3.15-3.23,5.38-3.7.6-.13,1.2-.19,1.8-.19,1.63,0,3.23.47,4.62,1.38,1.91,1.24,3.23,3.15,3.7,5.38s.05,4.51-1.18,6.42ZM33.87,66.32l-1.47,2.32-1.56,2.46c.17.44.32.9.42,1.37.48,2.23.05,4.51-1.19,6.42s-3.15,3.23-5.38,3.7c-2.23.47-4.51.05-6.42-1.19-3.95-2.56-5.08-7.85-2.52-11.8,1.24-1.91,3.15-3.23,5.38-3.7.42-.09.84-.14,1.26-.16l1.57-2.47,1.47-2.32c-1.75-.33-3.56-.32-5.34.06-3.54.75-6.57,2.84-8.53,5.87-4.06,6.26-2.27,14.66,3.99,18.72,2.22,1.44,4.75,2.18,7.33,2.18.95,0,1.9-.1,2.85-.3,3.54-.75,6.56-2.84,8.53-5.87,1.97-3.03,2.63-6.65,1.88-10.19-.4-1.88-1.18-3.6-2.28-5.11Z"/>
      <path class="cls-2" d="M55.76,22.52c-2.33-1.48-5.42-.79-6.9,1.54l-3.7,5.83-1.56,2.46-1.47,2.32-16.69,26.28-1.47,2.32-1.57,2.47-3.7,5.83c-1.48,2.33-.79,5.42,1.54,6.9.83.53,1.76.78,2.67.78,1.65,0,3.27-.82,4.23-2.32l3.7-5.83,1.56-2.46,1.47-2.32,16.69-26.29,1.47-2.32,1.57-2.47,3.7-5.83c1.48-2.33.79-5.42-1.54-6.9Z"/>
    </g>
  </g>
  <g id="icons">
    <path class="cls-1" d="M25.22,70.71c-.69-.45-1.49-.68-2.3-.68-.3,0-.6.03-.89.09-1.11.24-2.06.89-2.67,1.84-1.27,1.96-.71,4.59,1.25,5.86,1.96,1.27,4.59.71,5.86-1.25.62-.95.82-2.08.59-3.19s-.89-2.06-1.84-2.67Z"/>
  </g>
</svg>