<svg xmlns="http://www.w3.org/2000/svg" viewBox="0 0 100 100">
    <defs>
        <style>.cls-1{fill:#4d8dfc;}.cls-2{fill:#fff;}</style>
    </defs>
    <g id="icons">
        <path class="cls-1"
              d="M21.3,57.27a6.33,6.33,0,1,0,3.45-11.64,6.58,6.58,0,0,0-1.32.14,6.33,6.33,0,0,0-2.13,11.5Z"/>
        <path class="cls-1" d="M75.26,71.94a6.08,6.08,0,0,0-1.33.14,6.33,6.33,0,1,0,1.33-.14Z"/>
        <path class="cls-1"
              d="M26.07,31.84a6.33,6.33,0,0,0-1.31-12.51,6.68,6.68,0,0,0-1.33.14,6.32,6.32,0,1,0,2.64,12.37Z"/>
        <path class="cls-1" d="M75.26,45.63a6.76,6.76,0,0,0-1.33.14,6.32,6.32,0,1,0,1.33-.14Z"/>
        <path d="M18.58,35.16A11.33,11.33,0,1,0,13.67,28,11.3,11.3,0,0,0,18.58,35.16Zm4.85-15.69a6.68,6.68,0,0,1,1.33-.14,6.33,6.33,0,1,1-1.33.14Z"/>
        <path d="M18.58,61.46a11.22,11.22,0,0,0,6.14,1.83A12.13,12.13,0,0,0,27.11,63a11.33,11.33,0,1,0-8.53-1.58Zm4.85-15.69a6.58,6.58,0,0,1,1.32-.14,6.33,6.33,0,1,1-1.32.14Z"/>
        <path d="M72.89,67.19a11.32,11.32,0,0,0,2.34,22.4,11.49,11.49,0,0,0,2.39-.25,11.32,11.32,0,0,0-4.73-22.15ZM80.56,81.7a6.32,6.32,0,1,1-6.63-9.62,6.08,6.08,0,0,1,1.33-.14,6.32,6.32,0,0,1,5.3,9.76Z"/>
        <path d="M72.89,40.88a11.33,11.33,0,0,0,2.36,22.41A12.08,12.08,0,0,0,77.62,63a11.33,11.33,0,0,0-4.73-22.16ZM80.56,55.4a6.33,6.33,0,1,1-6.63-9.63,6.76,6.76,0,0,1,1.33-.14,6.33,6.33,0,0,1,5.3,9.77Z"/>
        <path d="M69.45,23.16a6.33,6.33,0,0,1,4.48-3.69,6.85,6.85,0,0,1,1.34-.14,6.33,6.33,0,0,1,5.29,9.77,6.25,6.25,0,0,1-4,2.74,6.32,6.32,0,0,1-7.12-3.68H64.21a11.36,11.36,0,1,0,0-5h5.23Z"/>
        <path d="M30.08,81.64a6.32,6.32,0,1,1-6.65-9.56,5.92,5.92,0,0,1,1.32-.14,6.32,6.32,0,0,1,6.09,4.7h5.1a6.69,6.69,0,0,0-.12-.74,11.36,11.36,0,1,0-.28,5.74H30.08Z"/>
        <path class="cls-2"
              d="M66.8,28.16h2.65a6.32,6.32,0,0,0,7.12,3.68A6.33,6.33,0,0,0,78.7,20.35a6.31,6.31,0,0,0-3.43-1,6.85,6.85,0,0,0-1.34.14,6.33,6.33,0,0,0-4.48,3.69H57.82L55.42,25,40.3,76.64H30.84a6.32,6.32,0,0,0-6.09-4.7,5.92,5.92,0,0,0-1.32.14,6.32,6.32,0,1,0,6.65,9.56h12.1l2.4-1.79L59.7,28.16h7.1Z"/>
    </g>
</svg>