<?xml version="1.0" encoding="UTF-8"?>
<svg xmlns="http://www.w3.org/2000/svg" viewBox="0 0 100 100">
    <defs>
        <style>
            .cls-1 {
            fill: #fff;
            }

            .cls-2 {
            opacity: .5;
            }

            .cls-3 {
            opacity: .7;
            }
        </style>
    </defs>
    <g id="Layer_25" data-name="Layer 25">
        <g class="cls-2">
            <path d="M74.11,66.3v4.26c.38-.05.76-.11,1.13-.19.05-.01.1-.03.15-.04v-4.03h-1.28Z"/>
            <path d="M59.13,67.31c2.49,4.38,6.84,7.41,11.78,8.24v-1.75c-4.68-.42-8.95-2.81-11.78-6.49Z"/>
            <path d="M51.72,58.14v1.92h4.21c-.11-.64-.2-1.28-.24-1.92h-3.97Z"/>
            <path d="M89.03,54.94h.91c-.57-2.29-1.6-4.35-2.95-6.11.83,1.46,1.46,3.06,1.82,4.78.09.44.17.89.22,1.33Z"/>
            <path d="M75.39,40.62v-4.23h-1.28v4.05c.43.04.86.11,1.28.18Z"/>
            <path d="M75.39,50.62v-5.04c3.54.45,6.72,2.29,8.9,5.01-2.07-3.75-5.86-6.38-10.18-6.93v5.04h-1.92v1.92h3.2Z"/>
            <path d="M60.19,60.06h5.77v-3.2h-1.28v1.28h-5.77c.05.6.12,1.2.25,1.8.45,2.1,1.38,4,2.66,5.6-.63-1.13-1.1-2.37-1.38-3.68-.13-.6-.2-1.2-.25-1.8Z"/>
            <path d="M85.64,60.06c.14-.63.25-1.27.3-1.92h-4.3v1.92h4Z"/>
            <path d="M94.59,56.86v1.28h-5.44c-.45,7.32-5.7,13.75-13.23,15.36-.6.13-1.2.22-1.8.28v4.83h-1.92v1.92h3.2v-4.83c.6-.06,1.2-.15,1.8-.28,7.53-1.61,12.78-8.03,13.23-15.36h5.44v-3.2h-1.28Z"/>
            <path d="M70.87,45.76s.03,0,.05,0v-2.13c-.44.05-.89.12-1.33.21-3.54.76-6.58,2.85-8.55,5.89-1.04,1.61-1.71,3.38-2,5.21h1.75c.36-1.15.86-2.25,1.53-3.29,1.97-3.04,5.01-5.13,8.55-5.89Z"/>
            <path class="cls-1"
                  d="M74.11,73.78c.6-.06,1.2-.15,1.8-.28,7.53-1.61,12.78-8.03,13.23-15.36h5.44v-3.2h-5.56c-.06-.44-.13-.89-.22-1.33-.37-1.73-1-3.33-1.82-4.78-2.46-4.33-6.73-7.33-11.59-8.21-.42-.08-.85-.14-1.28-.18v-5.97h-3.2v5.95c-.66.06-1.33.16-1.99.3-7.14,1.52-12.23,7.38-13.12,14.23h-5.35v3.2h5.25c.04.64.13,1.28.24,1.92.03.18.06.36.09.54.54,2.53,1.63,4.79,3.11,6.71,2.83,3.68,7.1,6.07,11.78,6.49v4.81h3.2v-4.83ZM70.91,64.38v6.2c-3.62-.41-6.88-2.27-9.1-5.04-1.28-1.6-2.22-3.5-2.66-5.6-.13-.6-.2-1.2-.25-1.8h5.77v-3.2h-5.64c.3-1.83.96-3.6,2-5.21,1.97-3.04,5.01-5.13,8.55-5.89.44-.09.88-.16,1.33-.21v5.07h3.2v-5.04c4.32.55,8.1,3.18,10.18,6.93.63,1.14,1.11,2.37,1.39,3.69.05.22.09.44.12.66h-5.45v3.2h5.58c-.05.65-.15,1.29-.3,1.92-1.12,4.96-4.98,9.09-10.25,10.27-.05.01-.1.03-.15.04-.37.08-.75.14-1.13.19v-6.18h-3.2Z"/>
        </g>
    </g>
    <g id="icons_50" data-name="icons 50">
        <g class="cls-3">
            <path d="M62.35,65.5v5.32c.47-.06.95-.14,1.41-.23.06-.01.12-.03.19-.05v-5.04h-1.6Z"/>
            <path d="M43.63,66.77c3.12,5.48,8.55,9.26,14.72,10.3v-2.19c-5.85-.52-11.19-3.52-14.72-8.11Z"/>
            <path d="M34.36,55.3v2.4h5.26c-.14-.8-.25-1.6-.3-2.4h-4.96Z"/>
            <path d="M81,51.3h1.13c-.72-2.86-1.99-5.43-3.69-7.64,1.03,1.82,1.82,3.82,2.28,5.98.12.56.21,1.11.28,1.66Z"/>
            <path d="M63.95,33.4v-5.29h-1.6v5.06c.54.05,1.07.13,1.6.23Z"/>
            <path d="M63.95,45.9v-6.3c4.42.56,8.4,2.87,11.12,6.26-2.59-4.69-7.32-7.98-12.72-8.66v6.3h-2.4v2.4h4Z"/>
            <path d="M44.94,57.7h7.21v-4h-1.6v1.6h-7.21c.06.75.15,1.5.31,2.24.56,2.62,1.73,5,3.33,7-.78-1.42-1.38-2.96-1.73-4.6-.16-.75-.25-1.5-.31-2.24Z"/>
            <path d="M76.76,57.7c.18-.79.31-1.59.37-2.4h-5.38v2.4h5.01Z"/>
            <path d="M87.94,53.7v1.6h-6.8c-.56,9.16-7.13,17.19-16.54,19.2-.75.16-1.5.28-2.25.35v6.04h-2.4v2.4h4v-6.04c.75-.08,1.5-.19,2.25-.35,9.41-2.01,15.98-10.04,16.54-19.2h6.8v-4h-1.6Z"/>
            <path d="M58.29,39.83s.04,0,.06,0v-2.66c-.56.06-1.11.15-1.66.27-4.43.94-8.22,3.56-10.69,7.36-1.3,2.01-2.13,4.22-2.5,6.51h2.19c.45-1.43,1.07-2.82,1.91-4.11,2.46-3.8,6.26-6.41,10.69-7.36Z"/>
            <path class="cls-1"
                  d="M62.35,74.85c.75-.08,1.5-.19,2.25-.35,9.41-2.01,15.98-10.04,16.54-19.2h6.8v-4h-6.94c-.07-.55-.16-1.11-.28-1.66-.46-2.16-1.25-4.16-2.28-5.98-3.07-5.41-8.41-9.16-14.49-10.26-.53-.1-1.06-.17-1.6-.23v-7.46h-4v7.44c-.83.08-1.66.2-2.49.37-8.92,1.9-15.29,9.22-16.41,17.78h-6.69v4h6.56c.05.8.16,1.6.3,2.4.04.23.07.45.12.68.67,3.16,2.04,5.99,3.89,8.39,3.54,4.59,8.87,7.59,14.72,8.11v6.01h4v-6.04ZM58.35,63.1v7.75c-4.53-.51-8.6-2.84-11.37-6.3-1.6-2-2.77-4.38-3.33-7-.16-.75-.25-1.5-.31-2.24h7.21v-4h-7.05c.37-2.29,1.2-4.51,2.5-6.51,2.46-3.8,6.26-6.41,10.69-7.36.55-.12,1.1-.2,1.66-.27v6.34h4v-6.3c5.4.69,10.13,3.97,12.72,8.66.78,1.42,1.38,2.96,1.73,4.61.06.28.11.55.15.83h-6.81v4h6.98c-.06.81-.19,1.61-.37,2.4-1.39,6.2-6.23,11.36-12.81,12.84-.06.01-.12.03-.19.05-.47.1-.94.17-1.41.23v-7.72h-4Z"/>
        </g>
    </g>
    <g id="Layer_5" data-name="Layer 5">
        <g>
            <path d="M46.65,64.25v6.65c.59-.08,1.18-.17,1.77-.29.08-.02.15-.04.23-.06v-6.3h-2Z"/>
            <path d="M23.25,65.83c3.9,6.85,10.69,11.58,18.41,12.88v-2.74c-7.32-.66-13.98-4.4-18.41-10.14Z"/>
            <path d="M11.66,51.5v3h6.58c-.18-1-.32-2.01-.38-3h-6.2Z"/>
            <path d="M69.96,46.5h1.41c-.9-3.57-2.49-6.79-4.61-9.55,1.29,2.27,2.28,4.78,2.85,7.47.15.69.26,1.39.35,2.08Z"/>
            <path d="M48.65,24.12v-6.61h-2v6.33c.67.07,1.34.16,2,.28Z"/>
            <path d="M48.65,39.75v-7.87c5.53.7,10.5,3.59,13.9,7.83-3.24-5.86-9.15-9.97-15.9-10.83v7.87h-3v3h5Z"/>
            <path d="M24.89,54.5h9.01v-5h-2v2h-9.01c.07.94.19,1.87.39,2.81.7,3.28,2.16,6.25,4.16,8.75-.98-1.77-1.72-3.7-2.16-5.75-.2-.93-.31-1.87-.39-2.81Z"/>
            <path d="M64.66,54.5c.22-.98.38-1.98.46-3h-6.72v3h6.26Z"/>
            <path d="M78.64,49.5v2h-8.5c-.7,11.44-8.91,21.49-20.67,24-.94.2-1.88.35-2.81.44v7.55h-3v3h5v-7.55c.93-.1,1.87-.24,2.81-.44,11.76-2.51,19.97-12.55,20.67-24h8.5v-5h-2Z"/>
            <path d="M41.58,32.16s.05,0,.07-.01v-3.32c-.69.08-1.39.19-2.07.33-5.54,1.18-10.28,4.45-13.36,9.2-1.63,2.51-2.67,5.28-3.13,8.14h2.74c.56-1.79,1.34-3.52,2.39-5.14,3.08-4.75,7.82-8.01,13.36-9.2Z"/>
            <path class="cls-1"
                  d="M46.65,75.94c.93-.1,1.87-.24,2.81-.44,11.76-2.51,19.97-12.55,20.67-24h8.5v-5h-8.68c-.09-.69-.2-1.38-.35-2.08-.58-2.7-1.56-5.2-2.85-7.47-3.84-6.76-10.52-11.46-18.11-12.83-.66-.12-1.33-.22-2-.28v-9.33h-5v9.3c-1.04.09-2.07.24-3.12.47-11.15,2.38-19.11,11.53-20.51,22.23h-8.37v5h8.2c.06.99.2,2,.38,3,.05.28.09.57.15.85.84,3.95,2.55,7.49,4.86,10.49,4.42,5.74,11.09,9.48,18.41,10.14v7.52h5v-7.55ZM41.65,61.25v9.68c-5.66-.63-10.75-3.55-14.21-7.88-2-2.5-3.46-5.47-4.16-8.75-.2-.93-.31-1.87-.39-2.81h9.01v-5h-8.81c.46-2.87,1.5-5.63,3.13-8.14,3.08-4.75,7.82-8.01,13.36-9.2.69-.15,1.38-.26,2.07-.33v7.92h5v-7.87c6.75.86,12.66,4.97,15.9,10.83.98,1.77,1.73,3.7,2.17,5.76.07.35.14.69.19,1.04h-8.51v5h8.72c-.08,1.02-.24,2.02-.46,3-1.74,7.75-7.78,14.2-16.01,16.05-.08.02-.15.04-.23.06-.59.12-1.18.22-1.77.29v-9.65h-5Z"/>
        </g>
    </g>
</svg>