<svg xmlns="http://www.w3.org/2000/svg" viewBox="0 0 100 100"><g id="illustrations"><path d="M77.29,29a24.44,24.44,0,0,0-40.54,9.66h-.06v.06A24.48,24.48,0,1,0,67.56,69.58h0l0-.06A24.44,24.44,0,0,0,77.29,29ZM62.35,65.59l-.83.08-.64,0-1,0-.62,0-.6,0-.63-.06-.58-.06-.63-.1-.57-.09-.61-.13-.57-.14-.6-.16L54,64.77l-.58-.2q-.28-.09-.57-.21l-.55-.23-.57-.25-.53-.26-.57-.3-.5-.28-.57-.35-.46-.29L48.47,62l-.41-.3c-.21-.16-.42-.34-.63-.51l-.32-.27c-.31-.27-.61-.55-.91-.85s-.57-.59-.84-.9l-.28-.33c-.17-.21-.34-.41-.5-.62l-.31-.42c-.14-.19-.28-.38-.41-.58l-.3-.46c-.12-.19-.24-.38-.35-.57l-.27-.49c-.11-.19-.21-.38-.31-.58s-.17-.34-.25-.51-.18-.39-.26-.59-.15-.35-.22-.53-.16-.4-.23-.61l-.18-.53c-.07-.21-.13-.42-.19-.63l-.15-.54c-.06-.21-.11-.43-.15-.64L40.88,50c0-.22-.08-.45-.11-.67s-.06-.35-.08-.53,0-.47-.08-.71,0-.34,0-.5,0-.54,0-.81,0-.27,0-.41c0-.41,0-.81,0-1.22a1.79,1.79,0,0,0,0-.23c0-.33,0-.66.1-1,0-.14,0-.29.06-.44s.07-.45.11-.67c.24,0,.48-.08.73-.12l.38-.05c.37,0,.74-.08,1.11-.1h.11c.41,0,.82,0,1.23,0l.37,0c.28,0,.57,0,.85,0l.47,0,.74.08.51.08.7.11.51.11.67.16.51.14.66.2.51.18c.21.07.43.15.64.24l.49.2.63.28.48.23.62.33.45.25.61.38.43.27.61.44.38.28.66.53.3.25c.31.28.61.56.9.85s.58.6.85.91l.28.33c.17.21.34.41.5.62s.2.27.3.41l.42.58.29.46.36.58.27.48.31.59.24.51c.1.19.18.39.27.59s.15.35.22.53.15.4.22.6.13.36.19.54.13.41.19.62l.15.55.15.64.12.54c0,.22.07.44.11.66s.06.36.08.54.05.47.07.7,0,.34.05.51,0,.53,0,.79,0,.29,0,.43c0,.4,0,.81,0,1.22a1.94,1.94,0,0,1,0,.24c0,.33,0,.66-.09,1,0,.15,0,.3-.07.45s-.06.45-.1.67l-.68.1Z"/><path d="M73.52,27.73a22,22,0,0,0-36.78,10A21.94,21.94,0,0,1,63.57,64.52a22,22,0,0,0,9.95-36.79Z"/><path d="M60.06,68l1.09-4.14A19.44,19.44,0,0,0,37.37,40.11l-4.13,1.08,1.08-4.14A24.46,24.46,0,0,1,75.29,26h0a24.45,24.45,0,0,1-11.09,41ZM42.3,34.47a24.41,24.41,0,0,1,24.42,26.2A19.48,19.48,0,1,0,40.58,34.53C41.16,34.49,41.73,34.47,42.3,34.47Z" style="fill:#ffa627"/><path d="M42.44,58.82a21.93,21.93,0,0,1-5.7-21.13A22,22,0,1,0,63.57,64.52,22,22,0,0,1,42.44,58.82Z"/><path d="M42.33,83.4A24.46,24.46,0,0,1,36.1,35.27l4.14-1.08-1.08,4.13A19.44,19.44,0,0,0,62.93,62.1L67.07,61,66,65.15A24.38,24.38,0,0,1,42.33,83.4ZM33.58,41.53A19.48,19.48,0,1,0,56.1,72.7a19.11,19.11,0,0,0,3.62-5A24.41,24.41,0,0,1,33.58,41.53Z" style="fill:#ffa627"/><path d="M58,67.73A24.42,24.42,0,0,1,34.32,37.05l.37-1.41,1.41-.37a24.59,24.59,0,0,1,23.54,6.35h0A24.53,24.53,0,0,1,66,65.15l-.37,1.42-1.41.37A24.75,24.75,0,0,1,58,67.73ZM38.83,39.78A19.44,19.44,0,0,0,61.47,62.42,19.44,19.44,0,0,0,38.83,39.78Z" style="fill:#ffa627"/></g></svg>