<svg xmlns="http://www.w3.org/2000/svg" viewBox="0 0 100 100"><defs><style>.cls-1{fill:#fff;}.cls-2{fill:#ffa627;}</style></defs><g id="icons"><path d="M65.12,29.26c-3.66,0-7.73,1.64-12.11,4.87-4.38-3.23-8.44-4.87-12.11-4.87a24.34,24.34,0,1,0,0,48.67c3.67,0,7.73-1.64,12.11-4.87,4.38,3.23,8.45,4.87,12.11,4.87a24.34,24.34,0,1,0,0-48.67Zm0,43.57c-2.27,0-5-1.09-8-3.14A92.07,92.07,0,0,0,69.64,55a2.55,2.55,0,1,0-4.24-2.84c-.06.09-6.43,9.54-14,15.69-4,3.25-7.64,5-10.51,5a19.24,19.24,0,1,1,0-38.47c2.27,0,5,1.09,8,3.14A92.4,92.4,0,0,0,36.38,52.18,2.55,2.55,0,1,0,40.62,55c.06-.1,6.4-9.51,13.94-15.65l0,0h0c4-3.25,7.63-5,10.5-5a19.24,19.24,0,1,1,0,38.47Z"/><path class="cls-1" d="M66.9,47.4a2.55,2.55,0,0,0-3.54.7c-.06.09-6.43,9.54-14,15.68-4,3.25-7.64,5-10.51,5a19.24,19.24,0,1,1,0-38.47c2.27,0,5,1.09,8,3.14.81.55,1.63,1.15,2.47,1.83a2.53,2.53,0,0,0,3.15,0l0,0a2.79,2.79,0,0,0,.39-.38,2.55,2.55,0,0,0-.37-3.59c-.54-.44-1.08-.85-1.61-1.24-4.38-3.23-8.45-4.87-12.11-4.87a24.34,24.34,0,1,0,0,48.67c3.66,0,7.73-1.64,12.11-4.87.53-.39,1.07-.8,1.61-1.24.84-.68,1.66-1.4,2.46-2.13A91.45,91.45,0,0,0,67.6,50.93,2.55,2.55,0,0,0,66.9,47.4Z"/><path class="cls-2" d="M63.08,25.18c-3.66,0-7.73,1.64-12.11,4.87-1.28.9-4.07,3.37-4.07,3.37A92.4,92.4,0,0,0,34.34,48.1a2.55,2.55,0,1,0,4.24,2.83c.06-.09,6.4-9.5,13.94-15.64a2.26,2.26,0,0,1-.42.26l.42-.26,1.55-1.2c3.41-2.5,6.5-3.81,9-3.81a19.24,19.24,0,1,1,0,38.47c-2.27,0-5-1.09-8-3.14-.8.73-1.62,1.45-2.46,2.13C52,68.18,51.5,68.59,51,69c4.38,3.23,8.45,4.87,12.11,4.87a24.34,24.34,0,1,0,0-48.67Z"/></g></svg>