<svg id="icons" xmlns="http://www.w3.org/2000/svg" viewBox="0 0 100 100"><defs><style>.cls-1{fill:#ffa627;}.cls-2{fill:#4d8dfc;stroke:#000;stroke-linecap:round;stroke-miterlimit:10;stroke-width:5px;}</style></defs><path class="cls-1" d="M79.67,87h-10a5,5,0,0,1,0-10h5V72a5,5,0,0,1,10,0V82A5,5,0,0,1,79.67,87Z"/><path class="cls-1" d="M55.38,87H44a5,5,0,1,1,0-10H55.38a5,5,0,1,1,0,10Z"/><path class="cls-1" d="M29.67,87h-10a5,5,0,0,1-5-5V72a5,5,0,0,1,10,0v5h5a5,5,0,0,1,0,10Z"/><path class="cls-1" d="M19.67,62.67a5,5,0,0,1-5-5V46.24a5,5,0,1,1,10,0V57.67A5,5,0,0,1,19.67,62.67Z"/><path class="cls-1" d="M19.67,37a5,5,0,0,1-5-5V22a5,5,0,0,1,5-5h10a5,5,0,0,1,0,10h-5v5A5,5,0,0,1,19.67,37Z"/><path class="cls-1" d="M55.38,27H44a5,5,0,0,1,0-10H55.38a5,5,0,0,1,0,10Z"/><path class="cls-1" d="M79.67,37a5,5,0,0,1-5-5V27h-5a5,5,0,0,1,0-10h10a5,5,0,0,1,5,5V32A5,5,0,0,1,79.67,37Z"/><path class="cls-1" d="M79.67,62.67a5,5,0,0,1-5-5V46.24a5,5,0,1,1,10,0V57.67A5,5,0,0,1,79.67,62.67Z"/><circle class="cls-2" cx="49.67" cy="51.96" r="11.03"/></svg>