<svg id="icons" xmlns="http://www.w3.org/2000/svg" viewBox="0 0 100 100">
    <defs>
        <style>.cls-1{fill:#67a900;}</style>
    </defs>
    <path d="M47.3,66V55.67L39,39.52a3.9,3.9,0,0,1-.28-1.36,3.33,3.33,0,0,1,3.33-3.06,3.06,3.06,0,0,1,2.68,1.41l5.87,11.65,5.82-11.65a3.11,3.11,0,0,1,2.73-1.41,3.33,3.33,0,0,1,3.33,3.06,4.5,4.5,0,0,1-.33,1.36L54,55.67V66a3.24,3.24,0,0,1-3.33,3.1A3.21,3.21,0,0,1,47.3,66Z"/>
    <path class="cls-1"
          d="M45.93,63.91V53.62L37.67,37.47a3.69,3.69,0,0,1-.29-1.36,3.33,3.33,0,0,1,3.34-3,3,3,0,0,1,2.67,1.4l5.88,11.65,5.82-11.65a3.07,3.07,0,0,1,2.72-1.4,3.33,3.33,0,0,1,3.34,3,4.82,4.82,0,0,1-.33,1.36L52.6,53.62V63.91a3.34,3.34,0,0,1-6.67,0Z"/>
</svg>