<svg id="icons" xmlns="http://www.w3.org/2000/svg" viewBox="0 0 100 100">
    <defs>
        <style>.cls-1{fill:#fff;}</style>
    </defs>
    <path class="cls-1"
          d="M27.22,32.72a2.5,2.5,0,0,1-2.5-2.5v-3a2.5,2.5,0,0,1,2.5-2.5h3a2.5,2.5,0,0,1,0,5h-.5v.5A2.5,2.5,0,0,1,27.22,32.72Z"/>
    <path class="cls-1" d="M52.2,29.72H47.8a2.5,2.5,0,0,1,0-5h4.4a2.5,2.5,0,0,1,0,5Z"/>
    <path class="cls-1"
          d="M72.78,32.72a2.5,2.5,0,0,1-2.5-2.5v-.5h-.5a2.5,2.5,0,0,1,0-5h3a2.49,2.49,0,0,1,2.5,2.5v3A2.49,2.49,0,0,1,72.78,32.72Z"/>
    <path class="cls-1" d="M72.78,54.7a2.5,2.5,0,0,1-2.5-2.5V47.8a2.5,2.5,0,0,1,5,0v4.4A2.49,2.49,0,0,1,72.78,54.7Z"/>
    <path class="cls-1" d="M72.78,75.28h-3a2.5,2.5,0,0,1,0-5h.5v-.5a2.5,2.5,0,0,1,5,0v3A2.49,2.49,0,0,1,72.78,75.28Z"/>
    <path class="cls-1" d="M52.2,75.28H47.8a2.5,2.5,0,0,1,0-5h4.4a2.5,2.5,0,0,1,0,5Z"/>
    <path class="cls-1" d="M30.22,75.28h-3a2.49,2.49,0,0,1-2.5-2.5v-3a2.5,2.5,0,0,1,5,0v.5h.5a2.5,2.5,0,0,1,0,5Z"/>
    <path class="cls-1" d="M27.22,54.7a2.5,2.5,0,0,1-2.5-2.5V47.8a2.5,2.5,0,0,1,5,0v4.4A2.5,2.5,0,0,1,27.22,54.7Z"/>
</svg>