<svg xmlns="http://www.w3.org/2000/svg" viewBox="0 0 100 100"><defs><style>.cls-1{fill:#ffa627;}.cls-2{fill:#4d8dfc;stroke:#000;stroke-linecap:round;stroke-miterlimit:10;stroke-width:5px;}</style></defs><g id="icons"><path d="M81.67,87h-10a5,5,0,0,1,0-10h5V72a5,5,0,0,1,10,0V82A5,5,0,0,1,81.67,87Z"/><path d="M57.38,87H46a5,5,0,1,1,0-10H57.38a5,5,0,1,1,0,10Z"/><path d="M31.67,87h-10a5,5,0,0,1-5-5V72a5,5,0,0,1,10,0v5h5a5,5,0,0,1,0,10Z"/><path d="M21.67,62.67a5,5,0,0,1-5-5V46.24a5,5,0,1,1,10,0V57.67A5,5,0,0,1,21.67,62.67Z"/><path d="M21.67,37a5,5,0,0,1-5-5V22a5,5,0,0,1,5-5h10a5,5,0,0,1,0,10h-5v5A5,5,0,0,1,21.67,37Z"/><path d="M57.38,27H46a5,5,0,0,1,0-10H57.38a5,5,0,0,1,0,10Z"/><path d="M81.67,37a5,5,0,0,1-5-5V27h-5a5,5,0,0,1,0-10h10a5,5,0,0,1,5,5V32A5,5,0,0,1,81.67,37Z"/><path d="M81.67,62.67a5,5,0,0,1-5-5V46.24a5,5,0,1,1,10,0V57.67A5,5,0,0,1,81.67,62.67Z"/><path class="cls-1" d="M79.67,85h-10a5,5,0,0,1,0-10h5V70a5,5,0,0,1,10,0V80A5,5,0,0,1,79.67,85Z"/><path class="cls-1" d="M55.38,85H44a5,5,0,1,1,0-10H55.38a5,5,0,1,1,0,10Z"/><path class="cls-1" d="M29.67,85h-10a5,5,0,0,1-5-5V70a5,5,0,0,1,10,0v5h5a5,5,0,0,1,0,10Z"/><path class="cls-1" d="M19.67,60.67a5,5,0,0,1-5-5V44.24a5,5,0,1,1,10,0V55.67A5,5,0,0,1,19.67,60.67Z"/><path class="cls-1" d="M19.67,35a5,5,0,0,1-5-5V20a5,5,0,0,1,5-5h10a5,5,0,0,1,0,10h-5v5A5,5,0,0,1,19.67,35Z"/><path class="cls-1" d="M55.38,25H44a5,5,0,0,1,0-10H55.38a5,5,0,0,1,0,10Z"/><path class="cls-1" d="M79.67,35a5,5,0,0,1-5-5V25h-5a5,5,0,0,1,0-10h10a5,5,0,0,1,5,5V30A5,5,0,0,1,79.67,35Z"/><path class="cls-1" d="M79.67,60.67a5,5,0,0,1-5-5V44.24a5,5,0,1,1,10,0V55.67A5,5,0,0,1,79.67,60.67Z"/><circle class="cls-2" cx="49.67" cy="49.96" r="11.03"/></g></svg>