<svg id="icons" xmlns="http://www.w3.org/2000/svg" viewBox="0 0 100 100"><path d="M52,44.53a2.5,2.5,0,0,0,1.77-4.27L37.89,24.39a2,2,0,0,0-.38-.32,1.51,1.51,0,0,0-.18-.09,2,2,0,0,0-.25-.14l-.25-.07-.22-.07a2.69,2.69,0,0,0-1,0l-.22.07-.24.07-.26.13s-.12.06-.17.1a2.37,2.37,0,0,0-.39.32L18.48,40.26A2.5,2.5,0,1,0,22,43.8L33.62,32.19v45a2.5,2.5,0,0,0,5,0V32.19L50.23,43.8A2.53,2.53,0,0,0,52,44.53Zm33.52,15a2.5,2.5,0,0,0-3.53,0L70.38,71.1V26.15a2.5,2.5,0,0,0-5,0V71.1L53.77,59.49A2.5,2.5,0,0,0,50.23,63L66.11,78.9a2,2,0,0,0,.38.32l.18.1.25.13.25.07.22.07a2.63,2.63,0,0,0,.49,0,2.72,2.72,0,0,0,.49,0l.22-.07.24-.07.25-.13c.06,0,.13-.06.18-.1a2.37,2.37,0,0,0,.39-.32L85.52,63A2.5,2.5,0,0,0,85.52,59.49Z"/><path d="M50,41.53a2.5,2.5,0,0,0,1.77-4.27L35.89,21.39a2,2,0,0,0-.38-.32,1.51,1.51,0,0,0-.18-.09,2,2,0,0,0-.25-.14l-.25-.07-.22-.07a2.69,2.69,0,0,0-1,0l-.22.07-.24.07-.26.13s-.12.06-.17.1a2.37,2.37,0,0,0-.39.32L16.48,37.26A2.5,2.5,0,1,0,20,40.8L31.62,29.19v45a2.5,2.5,0,0,0,5,0V29.19L48.23,40.8A2.53,2.53,0,0,0,50,41.53Z" style="fill:#ffa627"/><path d="M83.52,56.49a2.5,2.5,0,0,0-3.53,0L68.38,68.1V23.15a2.5,2.5,0,0,0-5,0V68.1L51.77,56.49A2.5,2.5,0,0,0,48.23,60L64.11,75.9a2,2,0,0,0,.38.32l.18.1.25.13.25.07.22.07a2.63,2.63,0,0,0,.49,0,2.72,2.72,0,0,0,.49,0l.22-.07.24-.07.25-.13c.06,0,.13-.06.18-.1a2.37,2.37,0,0,0,.39-.32L83.52,60A2.5,2.5,0,0,0,83.52,56.49Z" style="fill:#fff"/></svg>