<?xml version="1.0" encoding="UTF-8"?>
<svg xmlns="http://www.w3.org/2000/svg" viewBox="0 0 100 100">
  <defs>
    <style>
      .cls-1 {
        fill: #fffffc;
      }

      .cls-2 {
        fill: #ffa627;
      }

      .cls-3 {
        opacity: .5;
      }

      .cls-4 {
        opacity: .7;
      }
    </style>
  </defs>
  <g id="Layer_25" data-name="Layer 25">
    <g class="cls-3">
      <path class="cls-2" d="M69.95,59.83l.83-1.4.83-1.39.29-.49v-8.21h-18.08v18.08h12.22l3.91-6.59ZM77.33,61.19l-1.08-1.81-1.16-1.95h0s-.77,1.3-.77,1.3l-.82,1.39h0s-.82,1.38-.82,1.38l-.78,1.32-2.13,3.6-.95,1.6-.95,1.6-3.17,5.34h20.8l-7.17-12.09-1-1.68Z"/>
      <path d="M81.88,62.57c7.84-1.67,12.85-9.39,11.17-17.23-1.46-6.82-7.48-11.5-14.19-11.5-1,0-2.02.1-3.04.32-5.71,1.22-9.91,5.64-11.13,10.98h-14.07v24.48h13.53l-5.07,8.54h32.04l-9.25-15.59s0,0,.01,0ZM64.7,74.96l3.17-5.34.95-1.6.95-1.6,2.13-3.6.78-1.32.82-1.38h0s.82-1.39.82-1.39l.77-1.3h0s1.16,1.95,1.16,1.95l1.08,1.81,1,1.68,7.17,12.09h-20.8ZM53.82,48.34h18.08v8.21l-.29.49-.83,1.39-.83,1.4-3.91,6.59h-12.22v-18.08ZM75.1,51.16v-6.02h-7.1c1.15-3.84,4.3-6.96,8.49-7.85.78-.17,1.58-.25,2.38-.25,5.3,0,9.95,3.77,11.06,8.96.63,2.96.07,5.99-1.57,8.52s-4.18,4.28-7.14,4.91c-.36.08-.73.13-1.1.18l-5.02-8.46Z"/>
      <path class="cls-2" d="M89.93,46c-1.11-5.19-5.76-8.96-11.06-8.96-.79,0-1.59.08-2.38.25-4.19.89-7.34,4.01-8.49,7.85h7.1v6.02l5.02,8.46c.37-.04.74-.1,1.1-.18,2.96-.63,5.49-2.38,7.14-4.91s2.2-5.56,1.57-8.52Z"/>
    </g>
  </g>
  <g id="icons_50" data-name="icons 50">
    <g class="cls-4">
      <path class="cls-2" d="M57.44,57.79l1.04-1.75,1.03-1.74.36-.62v-10.26h-22.6v22.6h15.28l4.89-8.24ZM66.66,59.49l-1.34-2.27-1.44-2.43h0s-.97,1.63-.97,1.63l-1.03,1.74h0s-1.02,1.73-1.02,1.73l-.98,1.65-2.67,4.5-1.19,2-1.19,2-3.96,6.67h26l-8.97-15.11-1.24-2.1Z"/>
      <path d="M72.35,61.21c9.81-2.09,16.06-11.74,13.97-21.54-1.82-8.53-9.35-14.37-17.74-14.37-1.25,0-2.53.13-3.81.4-7.14,1.52-12.39,7.05-13.91,13.73h-17.59v30.6h16.91l-6.33,10.67h40.05l-11.56-19.49s.01,0,.02,0ZM50.88,76.7l3.96-6.67,1.19-2,1.19-2,2.67-4.5.98-1.65,1.02-1.72h0s1.03-1.74,1.03-1.74l.97-1.63h0s1.44,2.44,1.44,2.44l1.34,2.27,1.24,2.1,8.97,15.11h-26ZM37.28,43.43h22.6v10.26l-.36.62-1.03,1.74-1.04,1.75-4.89,8.24h-15.28v-22.6ZM63.88,46.95v-7.52h-8.88c1.43-4.8,5.38-8.7,10.61-9.82.98-.21,1.98-.32,2.97-.32,6.63,0,12.44,4.71,13.82,11.21.79,3.7.09,7.48-1.97,10.65s-5.23,5.35-8.92,6.14c-.45.1-.91.17-1.37.22l-6.27-10.57Z"/>
      <path class="cls-2" d="M82.41,40.5c-1.39-6.49-7.2-11.21-13.82-11.21-.99,0-1.99.11-2.97.32-5.24,1.12-9.18,5.01-10.61,9.82h8.88v7.52l6.27,10.57c.46-.05.92-.12,1.37-.22,3.7-.79,6.87-2.97,8.92-6.14s2.76-6.96,1.97-10.65Z"/>
    </g>
  </g>
  <g id="Layer_5" data-name="Layer 5">
    <g>
      <path class="cls-2" d="M52.33,57.11l-1.68-2.83-1.81-3.04h0s-1.21,2.03-1.21,2.03l-1.29,2.17h0s-1.28,2.16-1.28,2.16l-1.22,2.06-3.34,5.62-1.48,2.5-1.48,2.5-4.95,8.34h32.5l-11.21-18.89-1.56-2.62Z"/>
      <path d="M59.44,59.26c12.26-2.61,20.07-14.67,17.46-26.93-2.27-10.66-11.69-17.96-22.17-17.96-1.57,0-3.16.16-4.76.5-8.92,1.9-15.49,8.81-17.39,17.16H10.59v38.25h21.14l-7.91,13.34h50.06l-14.45-24.36s.01,0,.02,0ZM32.59,78.63l4.95-8.34,1.48-2.5,1.48-2.5,3.34-5.62,1.22-2.06,1.28-2.15h0s1.29-2.18,1.29-2.18l1.21-2.03h0s1.81,3.04,1.81,3.04l1.68,2.83,1.56,2.62,11.21,18.89h-32.5ZM15.59,37.04h28.25v12.83l-.46.77-1.29,2.18-1.29,2.18-6.11,10.3H15.59v-28.25ZM48.84,41.44v-9.4h-11.09c1.79-6,6.72-10.87,13.27-12.27,1.23-.26,2.48-.39,3.71-.39,8.28,0,15.55,5.89,17.28,14.01.99,4.62.11,9.35-2.46,13.32-2.57,3.97-6.53,6.69-11.15,7.68-.57.12-1.14.21-1.72.27l-7.84-13.21Z"/>
    </g>
    <polygon class="cls-1" points="40.8 54.99 42.1 52.81 43.39 50.63 43.84 49.86 43.84 37.04 15.59 37.04 15.59 65.29 34.7 65.29 40.8 54.99"/>
    <path class="cls-2" d="M72.01,33.38c-1.73-8.12-9-14.01-17.28-14.01-1.24,0-2.49.13-3.71.39-6.55,1.4-11.47,6.27-13.27,12.27h11.09v9.4l7.84,13.21c.58-.07,1.15-.15,1.72-.27,4.62-.99,8.58-3.71,11.15-7.68,2.57-3.97,3.44-8.7,2.46-13.32Z"/>
  </g>
</svg>