<svg id="icons" xmlns="http://www.w3.org/2000/svg" viewBox="0 0 100 100">
    <defs>
        <style>
            .cls-1{fill:none;stroke:#000;stroke-miterlimit:10;stroke-width:5px;opacity:0.5;}.cls-2{fill:#cb2600;}.cls-3{fill:#2c80ed;}
        </style>
    </defs>
    <line class="cls-1" x1="30.25" y1="50.03" x2="69.78" y2="50.03"/>
    <path d="M63.54,67.18v-.05a3.45,3.45,0,0,1-3,1.93A3.27,3.27,0,0,1,57.34,66a3.44,3.44,0,0,1,.47-1.59l8.12-13L58.47,39.66a3.72,3.72,0,0,1-.38-1.6,3.19,3.19,0,0,1,3.15-3,4,4,0,0,1,3.24,2.16L69.78,46l5.31-8.74a4.15,4.15,0,0,1,3.28-2.16,3.12,3.12,0,0,1,3.11,3,4,4,0,0,1-.43,1.55L73.63,51.45l8.13,13A3.56,3.56,0,0,1,82.22,66a3.29,3.29,0,0,1-3.14,3.06,3.45,3.45,0,0,1-3-1.88L69.78,56.85Z"/>
    <path class="cls-2"
          d="M62.17,65.13v0a3.43,3.43,0,0,1-3,1.93A3.28,3.28,0,0,1,56,64a3.57,3.57,0,0,1,.47-1.59l8.13-13L57.1,37.61a3.87,3.87,0,0,1-.38-1.6,3.18,3.18,0,0,1,3.15-2.95,3.93,3.93,0,0,1,3.24,2.16L68.42,44l5.3-8.73A4.15,4.15,0,0,1,77,33.06a3.11,3.11,0,0,1,3.1,3,4,4,0,0,1-.43,1.55L72.27,49.4l8.12,13A3.44,3.44,0,0,1,80.86,64,3.3,3.3,0,0,1,77.72,67a3.47,3.47,0,0,1-3.06-1.88L68.42,54.8Z"/>
    <path d="M39.8,68.63H23.7a3.27,3.27,0,0,1-3.39-3.19A6.06,6.06,0,0,1,21,63.37c4.61-7.6,8.64-14.08,13.29-21.78H23.65a3.09,3.09,0,0,1-3.24-3,3.15,3.15,0,0,1,3.24-3H39.57A3.25,3.25,0,0,1,43,38.67a3.65,3.65,0,0,1-.66,2L29,62.57H39.8a3,3,0,1,1,0,6.06Z"/>
    <path class="cls-3"
          d="M38.44,66.58H22.33A3.27,3.27,0,0,1,19,63.39a5.85,5.85,0,0,1,.66-2.07c4.6-7.6,8.64-14.08,13.29-21.78H22.28a3.09,3.09,0,0,1-3.24-3,3.15,3.15,0,0,1,3.24-3.05H38.2a3.25,3.25,0,0,1,3.43,3.14,3.65,3.65,0,0,1-.66,2L27.59,60.53H38.44a3,3,0,1,1,0,6Z"/>
</svg>