<?xml version="1.0" encoding="UTF-8"?>
<svg id="icons" xmlns="http://www.w3.org/2000/svg" viewBox="0 0 100 100">
    <defs>
        <style>
            .cls-1 {
            fill: #fff;
            }

            .cls-2 {
            fill: #4d8dfc;
            }
        </style>
    </defs>
    <g>
        <path class="cls-1"
              d="M58.33,58.11l-1.68-2.83-1.81-3.04h0s-1.21,2.03-1.21,2.03l-1.29,2.17h0s-1.28,2.16-1.28,2.16l-1.22,2.06-3.34,5.62-1.48,2.5-1.48,2.5-4.95,8.34h32.5l-11.21-18.89-1.56-2.62Z"/>
        <path d="M65.44,60.26c12.26-2.61,20.07-14.67,17.46-26.93-2.27-10.66-11.69-17.96-22.17-17.96-1.57,0-3.16.16-4.76.5-8.92,1.9-15.49,8.81-17.39,17.16h-21.99v38.25h21.14l-7.91,13.34h50.06l-14.45-24.36s.01,0,.02,0ZM38.59,79.63l4.95-8.34,1.48-2.5,1.48-2.5,3.34-5.62,1.22-2.06,1.28-2.15h0s1.29-2.18,1.29-2.18l1.21-2.03h0s1.81,3.04,1.81,3.04l1.68,2.83,1.56,2.62,11.21,18.89h-32.5ZM21.59,38.04h28.25v12.83l-.46.77-1.29,2.18-1.29,2.18-6.11,10.3h-19.1v-28.25ZM54.84,42.44v-9.4h-11.09c1.79-6,6.72-10.87,13.27-12.27,1.23-.26,2.48-.39,3.71-.39,8.28,0,15.55,5.89,17.28,14.01.99,4.62.11,9.35-2.46,13.32-2.57,3.97-6.53,6.69-11.15,7.68-.57.12-1.14.21-1.72.27l-7.84-13.21Z"/>
    </g>
    <polygon class="cls-2"
             points="46.8 55.99 48.1 53.81 49.39 51.63 49.84 50.86 49.84 38.04 21.59 38.04 21.59 66.29 40.7 66.29 46.8 55.99"/>
    <path class="cls-1"
          d="M78.01,34.38c-1.73-8.12-9-14.01-17.28-14.01-1.24,0-2.49.13-3.71.39-6.55,1.4-11.47,6.27-13.27,12.27h11.09v9.4l7.84,13.21c.58-.07,1.15-.15,1.72-.27,4.62-.99,8.58-3.71,11.15-7.68,2.57-3.97,3.44-8.7,2.46-13.32Z"/>
</svg>