<svg id="icons" xmlns="http://www.w3.org/2000/svg" viewBox="0 0 100 100"><defs><style>.cls-1{fill:#fff;}</style></defs><path d="M60.52,66.8h-17a3.63,3.63,0,0,0-3.68,3.68,3.74,3.74,0,0,0,3.68,3.68h17a3.74,3.74,0,0,0,3.68-3.68A3.63,3.63,0,0,0,60.52,66.8Zm-27-9.64h37a3.74,3.74,0,0,0,3.68-3.68,3.63,3.63,0,0,0-3.68-3.68h-37a3.63,3.63,0,0,0-3.68,3.68A3.74,3.74,0,0,0,33.48,57.16ZM52,83.8h0a3.62,3.62,0,0,0-3.68,3.68A3.74,3.74,0,0,0,52,91.16h0a3.74,3.74,0,0,0,3.68-3.68A3.62,3.62,0,0,0,52,83.8ZM23.48,40.17h57a3.75,3.75,0,0,0,3.68-3.69,3.63,3.63,0,0,0-3.68-3.68h-57a3.63,3.63,0,0,0-3.68,3.68A3.75,3.75,0,0,0,23.48,40.17Zm-10-17h77a3.75,3.75,0,0,0,3.68-3.68,3.64,3.64,0,0,0-3.68-3.69h-77A3.64,3.64,0,0,0,9.8,19.49,3.75,3.75,0,0,0,13.48,23.17Z"/><path class="cls-1" d="M58.52,63.8h-17a3.63,3.63,0,0,0-3.68,3.68,3.74,3.74,0,0,0,3.68,3.68h17a3.74,3.74,0,0,0,3.68-3.68A3.63,3.63,0,0,0,58.52,63.8Zm-27-9.64h37a3.74,3.74,0,0,0,3.68-3.68,3.63,3.63,0,0,0-3.68-3.68h-37a3.63,3.63,0,0,0-3.68,3.68A3.74,3.74,0,0,0,31.48,54.16ZM50,80.8h0a3.62,3.62,0,0,0-3.68,3.68A3.74,3.74,0,0,0,50,88.16h0a3.74,3.74,0,0,0,3.68-3.68A3.62,3.62,0,0,0,50,80.8ZM21.48,37.17h57a3.75,3.75,0,0,0,3.68-3.69,3.63,3.63,0,0,0-3.68-3.68h-57a3.63,3.63,0,0,0-3.68,3.68A3.75,3.75,0,0,0,21.48,37.17Zm-10-17h77a3.75,3.75,0,0,0,3.68-3.68,3.64,3.64,0,0,0-3.68-3.69h-77A3.64,3.64,0,0,0,7.8,16.49,3.75,3.75,0,0,0,11.48,20.17Z"/></svg>