<svg xmlns="http://www.w3.org/2000/svg" viewBox="0 0 100 100"><defs><style>.cls-1{opacity:0.25;}.cls-2{opacity:0.5;}.cls-3{fill:#4d8dfc;}</style></defs><g id="icons_multi"><g class="cls-1"><g class="cls-2"><path d="M72.38,44.84a8.65,8.65,0,0,0-12,12l.93-1.58,1-1.75,2.25-3.79h5.5l2.61,4.39,1,1.62.9,1.53c.11-.15.22-.29.32-.44a8.67,8.67,0,0,0-2.55-12Zm-5,12.78-.86,1.45-.87,1.46a8.34,8.34,0,0,0,2,.24,8.79,8.79,0,0,0,1.52-.15l-.89-1.49Zm27,23.09A8.65,8.65,0,0,0,84.53,74l.89,1.51,1,1.61,2.25,3.79-2.75,4.83h-8a8.63,8.63,0,0,0,8,5.47,8.67,8.67,0,0,0,1.82-.2,8.67,8.67,0,0,0,6.67-10.27Zm-14.44-2L79,77.23c-.14.19-.28.37-.41.57a8.32,8.32,0,0,0-.78,1.51h2.43Zm-24.39-1.1-.93,1.56-.07.11H56.4A9.16,9.16,0,0,0,55.52,77.64Zm-9.37,3.24,2.27-3.83.91-1.52.87-1.47a8.66,8.66,0,1,0,0,16.92,8.52,8.52,0,0,0,5.46-3.76,8,8,0,0,0,.79-1.51h-7.5Z"/><path class="cls-3" d="M86.38,77.09l-1-1.61L84.53,74,74.61,57.26l-.9-1.53-1-1.62-2.61-4.39h-5.5l-2.25,3.79-1,1.75-.93,1.58L50.2,74.06l-.87,1.47-.91,1.52-2.27,3.83,2.76,4.83h37l2.75-4.83Zm-6.8,2.22H54.52l.07-.11.93-1.56L65.66,60.53l.87-1.46.86-1.45.89,1.51.89,1.49L79,77.23l.89,1.51.35.57Z"/></g><path d="M66.69,31.22a10.82,10.82,0,0,0-14.95,15l1.17-2,1.3-2.19L57,37.32H63.9l3.25,5.49,1.21,2,1.13,1.9c.13-.18.27-.36.39-.55a10.81,10.81,0,0,0-3.19-15Zm-6.23,16L59.39,49,58.3,50.84a10.85,10.85,0,0,0,2.48.29,11.11,11.11,0,0,0,1.9-.18l-1.1-1.86ZM94.15,76.05a10.81,10.81,0,0,0-12.27-8.42L83,69.52l1.19,2L87,76.27l-3.44,6H73.51a10.81,10.81,0,0,0,10,6.83,11,11,0,0,0,2.28-.24,10.82,10.82,0,0,0,8.33-12.85Zm-18-2.46L75,71.71c-.18.23-.36.47-.52.71a11.31,11.31,0,0,0-1,1.89h3ZM45.62,72.22l-1.16,2-.08.14h2.34A10.68,10.68,0,0,0,45.62,72.22Zm-11.71,4,2.84-4.78,1.13-1.91L39,67.74a10.82,10.82,0,1,0-2.32,21.4,11.11,11.11,0,0,0,2.28-.24,10.73,10.73,0,0,0,6.82-4.7,10.59,10.59,0,0,0,1-1.89H37.35Z"/><path class="cls-3" d="M84.19,71.53l-1.19-2-1.12-1.89L69.49,46.74l-1.13-1.9-1.21-2L63.9,37.32H57l-2.81,4.73-1.3,2.19-1.17,2L39,67.74l-1.09,1.84-1.13,1.91-2.84,4.78,3.44,6H83.57l3.44-6ZM75.7,74.31H44.38l.08-.14,1.16-2L58.3,50.84,59.39,49l1.07-1.81,1.12,1.89L62.68,51,75,71.71l1.11,1.88.43.72Z"/></g></g><g id="icons"><path d="M59.33,15.2a13.54,13.54,0,0,0-18.71,4,13.51,13.51,0,0,0,0,14.76l1.46-2.47,1.63-2.74,3.5-5.92h8.6l4.07,6.86,1.51,2.54,1.41,2.38c.17-.23.34-.45.5-.69a13.52,13.52,0,0,0-4-18.71Zm-7.79,20L50.2,37.44l-1.35,2.28a13.39,13.39,0,0,0,3.09.37,13.7,13.7,0,0,0,2.38-.23l-1.38-2.33ZM93.66,71.24A13.51,13.51,0,0,0,78.32,60.71l1.4,2.36,1.49,2.51,3.52,5.93-4.3,7.55H67.86A13.53,13.53,0,0,0,80.4,87.6a13.8,13.8,0,0,0,2.85-.3A13.53,13.53,0,0,0,93.66,71.24ZM71.11,68.16l-1.39-2.35c-.23.29-.45.58-.65.89a14.28,14.28,0,0,0-1.22,2.36h3.8ZM33,66.45l-1.45,2.44-.1.17h2.93A13.29,13.29,0,0,0,33,66.45ZM18.36,71.51l3.55-6,1.41-2.38,1.37-2.3A13.53,13.53,0,1,0,21.78,87.6a13.8,13.8,0,0,0,2.85-.3,13.49,13.49,0,0,0,8.53-5.87,13.29,13.29,0,0,0,1.22-2.37H22.66Z"/><path class="cls-3" d="M81.21,65.58l-1.49-2.51-1.4-2.36L62.83,34.6l-1.41-2.38-1.51-2.54-4.07-6.86h-8.6l-3.5,5.92-1.63,2.74L40.65,34l-16,26.9-1.37,2.3-1.41,2.38-3.55,6,4.3,7.55H80.43l4.3-7.55ZM70.59,69.06H31.44l.1-.17L33,66.45,48.85,39.72l1.35-2.28,1.34-2.27,1.4,2.36,1.38,2.33,15.4,26,1.39,2.35.54.9Z"/></g></svg>