<svg id="icons" xmlns="http://www.w3.org/2000/svg" viewBox="0 0 100 100">
    <defs>
        <style>.cls-1{fill:#4d8dfc;}.cls-2{fill:#fff;}.cls-3{fill:#ed1e79;}.cls-4{fill:#ffa627;}</style>
    </defs>
    <path d="M24.42,12.12a9.77,9.77,0,1,0,4.24,6.16A9.72,9.72,0,0,0,24.42,12.12Zm56,16.4a9.76,9.76,0,1,0-4.25-6.16A9.72,9.72,0,0,0,80.43,28.52ZM24.42,78a9.72,9.72,0,0,0-5.3-1.58,10.38,10.38,0,0,0-2.06.22A9.78,9.78,0,1,0,24.42,78Zm0-32.6a9.77,9.77,0,1,0,4.24,6.16A9.72,9.72,0,0,0,24.42,45.39ZM57.58,12.12a9.77,9.77,0,1,0,4.24,6.16A9.72,9.72,0,0,0,57.58,12.12ZM56.17,80.17a7.15,7.15,0,0,0-5.41-1,7.16,7.16,0,0,0-5.52,8.52,7.18,7.18,0,0,0,8.52,5.53,7.19,7.19,0,0,0,5.52-8.53A7.11,7.11,0,0,0,56.17,80.17Zm2.86-37a12.39,12.39,0,0,0-6.74-2,13.06,13.06,0,0,0-2.63.28A12.46,12.46,0,1,0,59,43.14Zm30.1,5.21a6.21,6.21,0,0,0-3.38-1,6.56,6.56,0,0,0-1.31.14,6.23,6.23,0,1,0,4.69.86ZM88.67,82.8a5.36,5.36,0,0,0-2.92-.87,4.9,4.9,0,0,0-1.13.13,5.37,5.37,0,1,0,4,.74Z"/>
    <path class="cls-1" d="M11.19,24.63a9.77,9.77,0,1,0,5.34-18,10.23,10.23,0,0,0-2.06.22,9.77,9.77,0,0,0-3.28,17.76Z"/>
    <path class="cls-1" d="M77.83,24.63a9.77,9.77,0,1,0,5.34-18,10.38,10.38,0,0,0-2.06.22,9.77,9.77,0,0,0-3.28,17.76Z"/>
    <path class="cls-2" d="M11.19,90.51a9.78,9.78,0,1,0,5.34-18,9.55,9.55,0,0,0-2.06.22,9.78,9.78,0,0,0-3.28,17.76Z"/>
    <path class="cls-3" d="M11.19,57.9a9.77,9.77,0,1,0,5.34-18,9.55,9.55,0,0,0-2.06.22A9.77,9.77,0,0,0,11.19,57.9Z"/>
    <path class="cls-2" d="M44.35,24.63a9.77,9.77,0,1,0,5.34-18,10.3,10.3,0,0,0-2.06.22,9.77,9.77,0,0,0-3.28,17.76Z"/>
    <path class="cls-2" d="M45.68,88.46a7.26,7.26,0,0,0,5.52,1,7.35,7.35,0,0,0,5.65-8.71,7.34,7.34,0,1,0-11.17,7.69Z"/>
    <path class="cls-4"
          d="M42.94,60.08a12.37,12.37,0,1,0,6.75-22.75,12.17,12.17,0,0,0-2.6.28,12.37,12.37,0,0,0-4.15,22.47Z"/>
    <path class="cls-2" d="M79.55,55.25a6.61,6.61,0,1,0-2.87-4.17A6.57,6.57,0,0,0,79.55,55.25Z"/>
    <path class="cls-3"
          d="M80.42,87.65a5,5,0,0,0,3.78.7,5,5,0,0,0,3.86-6,5,5,0,0,0-4.9-4,4.77,4.77,0,0,0-1.06.11,5,5,0,0,0-1.68,9.12Z"/>
    <path class="cls-2"
          d="M13.78,20.64a5,5,0,0,0,3.78.7,5,5,0,0,0,1.68-9.12,4.92,4.92,0,0,0-2.72-.81,5.45,5.45,0,0,0-1.06.11A4.94,4.94,0,0,0,12.3,13.7a5,5,0,0,0,1.48,6.94Z"/>
    <path class="cls-1"
          d="M13.78,86.52a5,5,0,0,0,7.64-5.26,5,5,0,0,0-4.9-4,5.45,5.45,0,0,0-1.06.11,5,5,0,0,0-1.68,9.13Z"/>
</svg>