<svg xmlns="http://www.w3.org/2000/svg" viewBox="0 0 100 100"><defs><style>.cls-1{fill:#4d8dfc;}.cls-2{fill:#ffa627;}</style></defs><g id="icons"><path class="cls-1" d="M28.11,68.93a8.56,8.56,0,0,0-2.16-2A8.32,8.32,0,0,0,24,66a8.41,8.41,0,0,0-2.72-.47,8.53,8.53,0,1,0,7.14,13.18,8.38,8.38,0,0,0,1-2.15,8.48,8.48,0,0,0-1.35-7.63Z"/><path class="cls-1" d="M84.57,66.9a8.55,8.55,0,0,0-4.63-1.37,8.45,8.45,0,0,0-1.79.19l-.23.06a8.47,8.47,0,0,0-4.3,2.55,8.17,8.17,0,0,0-.85,1.09,8.53,8.53,0,0,0-1.19,6.42c.06.25.12.49.19.72a8.53,8.53,0,0,0,15.32,2.15A8.55,8.55,0,0,0,84.57,66.9Z"/><path d="M56.83,16.92H61a13.3,13.3,0,0,0-2.15-1.72A13.55,13.55,0,0,0,42,16.92H56.83Z"/><path d="M43.22,71.56H34.59a13.57,13.57,0,0,0-3.8-7.15l7.62-12.84,4.81,5.57v-.5l-4.63-5.37-3.35-3.88L18.54,28.05a6,6,0,0,0,1,1.69L35,47.62a1.78,1.78,0,0,0-.28.38L26.63,61.63a13.53,13.53,0,1,0-5.35,26,13.8,13.8,0,0,0,2.85-.3A13.5,13.5,0,0,0,34.6,76.56h8.68c0-.32-.06-.64-.06-1Zm-13.76,5a8.38,8.38,0,0,1-1,2.15,8.53,8.53,0,1,1-7.14-13.18A8.41,8.41,0,0,1,24,66a8.32,8.32,0,0,1,1.91.9,8.54,8.54,0,0,1,3.51,9.66Z"/><path d="M87.29,62.71A13.41,13.41,0,0,0,77.1,60.83a13.79,13.79,0,0,0-1.8.53l-5.72-9.64,19-22a5.94,5.94,0,0,0-1-8.68,5.81,5.81,0,0,1-1.16,5.68L67.55,48.58,64.2,52.46l-4.06,4.71V75.59h0c0,.33,0,.65-.06,1a8.44,8.44,0,0,1-14,5.32,8.46,8.46,0,0,0,16.25-3.29v-2h4.35c0,.11,0,.22,0,.33A13.55,13.55,0,0,0,79.9,87.6a13.8,13.8,0,0,0,2.85-.3,13.53,13.53,0,0,0,4.54-24.59Zm-18.72,4a13.61,13.61,0,0,0-1.95,4.86H62.29V60.17l3.85-4.45L71,63.91A14.12,14.12,0,0,0,68.57,66.7Zm18.52,12a8.54,8.54,0,0,1-15.32-2.15c-.07-.23-.13-.47-.19-.72a8.53,8.53,0,0,1,1.19-6.42,8.17,8.17,0,0,1,.85-1.09,8.47,8.47,0,0,1,4.3-2.55l.23-.06a8.45,8.45,0,0,1,1.79-.19,8.53,8.53,0,0,1,7.15,13.18Z"/><path d="M57.05,76.56a6.14,6.14,0,0,0,.09-1,5.46,5.46,0,0,0-10.92,0,6.14,6.14,0,0,0,.09,1,5.46,5.46,0,0,0,10.74,0Z"/><path class="cls-2" d="M60.08,76.56c0-.32.06-.64.06-1h0V57.17l4.06-4.71,3.35-3.88L86.4,26.74a5.81,5.81,0,0,0,1.16-5.68,5.88,5.88,0,0,0-5.65-4.14h-60a5.94,5.94,0,0,0-4.5,9.82l1.13,1.31,16.7,19.34,3.35,3.88,4.63,5.37v19c0,.33,0,.65.06,1a8.46,8.46,0,0,0,16.8,0Zm-13.77,0a6.14,6.14,0,0,1-.09-1,5.46,5.46,0,0,1,10.92,0,6.14,6.14,0,0,1-.09,1,5.46,5.46,0,0,1-10.74,0Z"/></g></svg>