<?xml version="1.0" encoding="UTF-8"?>
<svg xmlns="http://www.w3.org/2000/svg" viewBox="0 0 100 100">
  <defs>
    <style>
      .cls-1 {
        fill: #fff;
      }

      .cls-2 {
        fill: #4d8dfc;
      }

      .cls-3 {
        opacity: .5;
      }

      .cls-4 {
        opacity: .7;
      }
    </style>
  </defs>
  <g id="Layer_25" data-name="Layer 25">
    <g class="cls-3">
      <path class="cls-2" d="M69.8,44.52c.91.59,1.99.79,3.05.56,2.18-.47,3.58-2.62,3.11-4.8-.41-1.9-2.09-3.2-3.96-3.2-.28,0-.56.03-.85.09-1.06.23-1.96.85-2.55,1.76s-.79,1.99-.56,3.05c.23,1.06.85,1.96,1.76,2.55Z"/>
      <path class="cls-2" d="M88.16,70.74c-.28,0-.56.03-.85.09-2.18.47-3.58,2.62-3.11,4.8.23,1.06.85,1.96,1.76,2.55.91.59,1.99.79,3.05.56,1.06-.23,1.96-.85,2.55-1.76.59-.91.79-1.99.56-3.05-.41-1.9-2.09-3.2-3.96-3.2Z"/>
      <path class="cls-2" d="M53.64,44.52c.91.59,1.99.79,3.05.56,2.18-.47,3.58-2.62,3.11-4.8-.4-1.9-2.09-3.2-3.96-3.2-.28,0-.56.03-.85.09-2.18.47-3.58,2.62-3.11,4.8.23,1.06.85,1.96,1.76,2.55Z"/>
      <path class="cls-2" d="M85.96,44.52c.91.59,1.99.79,3.05.56,1.06-.23,1.96-.85,2.55-1.76.59-.91.79-1.99.56-3.05-.41-1.9-2.09-3.2-3.96-3.2-.28,0-.56.03-.85.09-2.18.47-3.58,2.62-3.11,4.8.23,1.06.85,1.96,1.76,2.55Z"/>
      <path d="M51.89,47.21c1.19.77,2.55,1.17,3.93,1.17.51,0,1.02-.05,1.53-.16,3.91-.83,6.41-4.69,5.58-8.6-.83-3.91-4.69-6.41-8.6-5.58-3.91.83-6.41,4.69-5.58,8.6.4,1.89,1.52,3.52,3.15,4.57ZM54.99,37.17c.28-.06.57-.09.85-.09,1.87,0,3.55,1.31,3.96,3.2.47,2.18-.93,4.34-3.11,4.8-1.06.22-2.14.03-3.05-.56-.91-.59-1.53-1.49-1.76-2.55-.47-2.18.93-4.34,3.11-4.8Z"/>
      <path d="M68.6,55.76c.59-.91,1.5-1.53,2.55-1.76.28-.06.57-.09.85-.09.77,0,1.53.22,2.19.65.68.44,1.2,1.07,1.52,1.8h3.35c-.42-1.86-1.52-3.45-3.12-4.48-1.62-1.05-3.56-1.41-5.45-1.01-1.89.4-3.52,1.52-4.57,3.15-.47.73-.8,1.52-.98,2.34h3.35c.09-.21.19-.41.32-.6Z"/>
      <path d="M86.65,67.7c-3.91.83-6.41,4.69-5.58,8.6.4,1.89,1.52,3.52,3.15,4.57,1.19.77,2.54,1.17,3.93,1.17.51,0,1.02-.05,1.53-.16,1.89-.4,3.52-1.52,4.57-3.15s1.41-3.56,1.01-5.46c-.83-3.91-4.69-6.41-8.6-5.58ZM91.56,77c-.59.91-1.49,1.53-2.55,1.76-1.06.23-2.14.03-3.05-.56-.91-.59-1.53-1.5-1.76-2.55-.47-2.18.93-4.34,3.11-4.8.28-.06.57-.09.85-.09,1.87,0,3.55,1.3,3.96,3.2.23,1.06.03,2.14-.56,3.05Z"/>
      <path d="M68.06,47.21c1.19.77,2.54,1.17,3.93,1.17.51,0,1.02-.05,1.53-.16,3.91-.83,6.41-4.69,5.58-8.6-.83-3.91-4.7-6.41-8.6-5.58-1.89.4-3.52,1.52-4.57,3.15s-1.41,3.56-1.01,5.45c.4,1.89,1.52,3.52,3.15,4.57ZM68.6,38.92c.59-.91,1.5-1.53,2.55-1.76.28-.06.57-.09.85-.09,1.87,0,3.55,1.3,3.96,3.2.47,2.18-.93,4.34-3.11,4.8-1.06.23-2.14.03-3.05-.56-.91-.59-1.53-1.49-1.76-2.55-.23-1.06-.03-2.14.56-3.05Z"/>
      <path d="M84.22,47.21c1.19.77,2.54,1.17,3.93,1.17.51,0,1.02-.05,1.53-.16,1.89-.4,3.52-1.52,4.57-3.15s1.41-3.56,1.01-5.46c-.83-3.91-4.69-6.41-8.6-5.58-3.91.83-6.41,4.69-5.58,8.6.4,1.89,1.52,3.52,3.15,4.57ZM87.32,37.17c.28-.06.57-.09.85-.09,1.87,0,3.55,1.3,3.96,3.2.23,1.06.03,2.14-.56,3.05-.59.91-1.49,1.53-2.55,1.76-1.06.23-2.14.03-3.05-.56-.91-.59-1.53-1.49-1.76-2.55-.47-2.18.93-4.34,3.11-4.8Z"/>
      <path d="M92.11,51.88c-1.62-1.05-3.56-1.41-5.46-1.01-2.85.61-4.94,2.82-5.55,5.49h3.35c.5-1.16,1.54-2.08,2.87-2.36.28-.06.57-.09.85-.09.77,0,1.53.22,2.19.65.91.59,1.53,1.49,1.76,2.55.23,1.06.03,2.14-.56,3.05-.59.91-1.49,1.53-2.55,1.76-1.92.41-3.82-.62-4.56-2.36h-3.35c.76,3.35,3.75,5.65,7.07,5.65.5,0,1.01-.05,1.51-.16,1.89-.4,3.52-1.52,4.57-3.15,1.05-1.62,1.41-3.56,1.01-5.46-.4-1.89-1.52-3.52-3.15-4.57Z"/>
      <path d="M57.44,67.73v3.36c.93.4,1.7,1.14,2.11,2.1h3.35c-.63-2.8-2.83-4.86-5.47-5.46Z"/>
      <path d="M65.92,70.85c-.47.73-.8,1.52-.98,2.34h3.35c.09-.21.19-.41.32-.6.44-.68,1.07-1.2,1.8-1.52v-3.35c-1.86.42-3.45,1.52-4.48,3.12Z"/>
      <path d="M68.28,59.56h-3.35c.63,2.8,2.83,4.86,5.47,5.46v-3.35c-.93-.4-1.7-1.15-2.12-2.11Z"/>
      <path d="M51.88,58.8c-.47-2.18.93-4.34,3.11-4.8.28-.06.57-.09.85-.09.77,0,1.53.22,2.19.65.68.44,1.2,1.07,1.52,1.8h3.35c-.42-1.86-1.52-3.45-3.12-4.48-1.63-1.05-3.56-1.41-5.46-1.01-3.91.83-6.41,4.69-5.58,8.6.4,1.89,1.52,3.52,3.15,4.57.73.47,1.52.8,2.34.99v-3.36c-1.16-.5-2.07-1.54-2.36-2.87Z"/>
      <path d="M62.9,59.56h-3.35c-.4.93-1.15,1.7-2.11,2.12v3.35c2.8-.63,4.86-2.83,5.46-5.47Z"/>
      <path d="M56.68,78.75c-1.06.23-2.14.03-3.05-.56-.91-.59-1.53-1.5-1.76-2.55-.41-1.92.62-3.81,2.36-4.56v-3.35c-3.86.87-6.32,4.7-5.49,8.58.4,1.89,1.52,3.52,3.15,4.57,1.19.77,2.55,1.17,3.93,1.17.51,0,1.02-.05,1.53-.16,2.85-.61,4.94-2.82,5.55-5.49h-3.35c-.5,1.16-1.54,2.08-2.87,2.36Z"/>
      <path d="M75.96,73.95c.47,2.18-.93,4.34-3.11,4.8-1.06.23-2.14.03-3.05-.56-.68-.44-1.2-1.07-1.52-1.8h-3.35c.42,1.86,1.52,3.45,3.12,4.48,1.19.77,2.54,1.17,3.93,1.17.51,0,1.02-.05,1.53-.16,3.91-.83,6.41-4.69,5.58-8.6-.61-2.85-2.82-4.94-5.49-5.55v3.36c1.16.5,2.08,1.53,2.36,2.86Z"/>
      <path d="M73.6,61.68v3.35c2.8-.63,4.86-2.83,5.46-5.47h-3.35c-.4.93-1.15,1.7-2.11,2.12Z"/>
      <path class="cls-1" d="M89.01,61.92c1.06-.23,1.96-.85,2.55-1.76.59-.91.79-1.99.56-3.05-.23-1.06-.85-1.96-1.76-2.55-.66-.43-1.42-.65-2.19-.65-.28,0-.57.03-.85.09-1.33.28-2.37,1.2-2.87,2.36h-8.73c-.31-.73-.83-1.35-1.52-1.8-.66-.43-1.42-.65-2.19-.65-.28,0-.57.03-.85.09-1.06.23-1.96.85-2.55,1.76-.13.19-.23.4-.32.6h-8.73c-.31-.73-.83-1.35-1.52-1.8-.66-.43-1.42-.65-2.19-.65-.28,0-.57.03-.85.09-2.18.47-3.58,2.62-3.11,4.8.28,1.33,1.2,2.37,2.36,2.87v9.4c-1.74.75-2.77,2.64-2.36,4.56.23,1.06.85,1.96,1.76,2.55.91.59,1.99.79,3.05.56,1.33-.28,2.37-1.2,2.87-2.36h8.73c.31.73.83,1.35,1.52,1.8.91.59,1.99.79,3.05.56,2.18-.47,3.58-2.62,3.11-4.8-.28-1.33-1.2-2.35-2.36-2.86v-9.41c.97-.42,1.71-1.19,2.11-2.12h8.73c.75,1.74,2.64,2.77,4.56,2.36ZM70.4,65.02v6.05c-.73.31-1.35.83-1.8,1.52-.13.19-.23.4-.32.6h-8.74c-.41-.96-1.18-1.7-2.11-2.1v-9.41c.97-.42,1.71-1.19,2.11-2.12h8.73c.42.97,1.19,1.71,2.12,2.11v3.35Z"/>
    </g>
  </g>
  <g id="icons_50" data-name="icons 50">
    <g class="cls-4">
      <path class="cls-2" d="M57.25,38.16c1.13.74,2.49.98,3.81.7,2.73-.58,4.48-3.28,3.89-6-.51-2.37-2.61-4-4.95-4-.35,0-.7.04-1.06.11-1.32.28-2.46,1.06-3.19,2.2s-.99,2.49-.7,3.81c.28,1.32,1.06,2.46,2.2,3.19Z"/>
      <path class="cls-2" d="M80.2,70.94c-.35,0-.7.04-1.06.11-2.73.58-4.48,3.28-3.89,6,.28,1.32,1.06,2.46,2.2,3.19,1.13.73,2.48.99,3.81.7,1.32-.28,2.46-1.06,3.19-2.2.74-1.13.99-2.49.7-3.81-.51-2.37-2.61-4-4.95-4Z"/>
      <path class="cls-2" d="M37.04,38.16c1.13.73,2.48.98,3.81.7,2.73-.58,4.48-3.28,3.89-6-.51-2.37-2.61-4.01-4.95-4.01-.35,0-.7.04-1.06.11-2.73.58-4.47,3.28-3.89,6,.28,1.32,1.06,2.46,2.2,3.19Z"/>
      <path class="cls-2" d="M77.45,38.16c1.13.73,2.48.99,3.81.7,1.32-.28,2.46-1.06,3.19-2.2.74-1.13.99-2.49.7-3.81-.51-2.37-2.61-4-4.95-4-.35,0-.7.04-1.06.11-2.73.58-4.48,3.28-3.89,6,.28,1.32,1.06,2.46,2.2,3.19Z"/>
      <path d="M34.87,41.52c1.49.96,3.18,1.46,4.91,1.46.64,0,1.27-.07,1.91-.2,4.89-1.04,8.01-5.86,6.97-10.75-1.04-4.89-5.86-8.01-10.75-6.97-4.89,1.04-8.01,5.87-6.97,10.75.5,2.37,1.9,4.4,3.93,5.71ZM38.74,28.97c.35-.08.71-.11,1.06-.11,2.34,0,4.44,1.63,4.95,4.01.58,2.73-1.16,5.42-3.89,6-1.33.28-2.68.03-3.81-.7-1.13-.74-1.91-1.87-2.2-3.19-.58-2.73,1.16-5.42,3.89-6Z"/>
      <path d="M55.75,52.21c.74-1.13,1.87-1.91,3.19-2.2.36-.08.71-.11,1.07-.11.97,0,1.91.28,2.74.82.85.55,1.51,1.33,1.9,2.25h4.18c-.52-2.32-1.91-4.31-3.9-5.6-2.03-1.32-4.46-1.76-6.82-1.26-2.37.5-4.4,1.9-5.71,3.93-.59.91-1,1.9-1.23,2.93h4.19c.11-.26.24-.51.4-.75Z"/>
      <path d="M78.31,67.14c-4.89,1.04-8.01,5.87-6.97,10.75.51,2.37,1.9,4.4,3.93,5.71,1.49.96,3.18,1.46,4.91,1.46.64,0,1.27-.07,1.91-.2,2.37-.5,4.4-1.9,5.71-3.93s1.76-4.45,1.26-6.82c-1.04-4.89-5.86-8.01-10.75-6.97ZM84.45,78.76c-.74,1.13-1.87,1.91-3.19,2.2-1.33.28-2.67.03-3.81-.7-1.13-.74-1.91-1.87-2.2-3.19-.58-2.73,1.16-5.42,3.89-6,.35-.08.71-.11,1.06-.11,2.34,0,4.44,1.63,4.95,4,.28,1.32.03,2.67-.7,3.81Z"/>
      <path d="M55.07,41.52c1.49.96,3.18,1.46,4.91,1.46.63,0,1.27-.07,1.91-.2,4.89-1.04,8.01-5.86,6.97-10.75-1.04-4.89-5.87-8.01-10.75-6.97-2.37.51-4.4,1.9-5.71,3.93s-1.76,4.45-1.26,6.82c.5,2.37,1.9,4.4,3.93,5.71ZM55.75,31.16c.74-1.13,1.87-1.91,3.19-2.2.35-.08.71-.11,1.06-.11,2.34,0,4.44,1.63,4.95,4,.58,2.73-1.16,5.42-3.89,6-1.32.28-2.68.03-3.81-.7-1.13-.74-1.91-1.87-2.2-3.19-.28-1.32-.03-2.67.7-3.81Z"/>
      <path d="M75.28,41.52c1.49.96,3.18,1.46,4.91,1.46.64,0,1.27-.07,1.91-.2,2.37-.5,4.4-1.9,5.71-3.93s1.76-4.45,1.26-6.82c-1.04-4.89-5.86-8.01-10.75-6.97-4.89,1.04-8.01,5.87-6.97,10.75.51,2.37,1.9,4.4,3.93,5.71ZM79.15,28.97c.35-.08.71-.11,1.06-.11,2.34,0,4.44,1.63,4.95,4,.28,1.32.03,2.68-.7,3.81-.74,1.13-1.87,1.91-3.19,2.2-1.33.28-2.67.03-3.81-.7-1.13-.74-1.91-1.87-2.2-3.19-.58-2.73,1.16-5.42,3.89-6Z"/>
      <path d="M85.13,47.36c-2.03-1.32-4.45-1.76-6.82-1.26-3.56.76-6.17,3.53-6.94,6.86h4.18c.63-1.45,1.92-2.59,3.59-2.95.36-.08.71-.11,1.07-.11.97,0,1.91.28,2.74.82,1.13.74,1.91,1.87,2.2,3.19.28,1.32.03,2.68-.7,3.81-.74,1.13-1.87,1.91-3.19,2.2-2.4.51-4.77-.78-5.7-2.95h-4.19c.95,4.19,4.69,7.06,8.83,7.06.62,0,1.26-.06,1.89-.2,2.37-.5,4.4-1.9,5.71-3.93,1.32-2.03,1.76-4.45,1.26-6.82-.51-2.37-1.9-4.4-3.93-5.71Z"/>
      <path d="M41.8,67.17v4.2c1.16.5,2.12,1.42,2.64,2.63h4.19c-.79-3.5-3.53-6.07-6.83-6.83Z"/>
      <path d="M52.4,71.07c-.59.91-1,1.9-1.23,2.93h4.19c.11-.26.24-.51.4-.75.55-.85,1.33-1.51,2.25-1.9v-4.18c-2.32.53-4.31,1.91-5.6,3.9Z"/>
      <path d="M55.35,56.96h-4.19c.79,3.5,3.53,6.08,6.83,6.83v-4.19c-1.16-.5-2.13-1.43-2.65-2.64Z"/>
      <path d="M34.85,56.02c-.58-2.73,1.16-5.42,3.89-6,.36-.08.71-.11,1.07-.11.97,0,1.91.28,2.74.82.85.55,1.51,1.33,1.9,2.25h4.18c-.52-2.32-1.9-4.31-3.9-5.6-2.03-1.32-4.46-1.76-6.82-1.26-4.89,1.04-8.01,5.86-6.97,10.75.5,2.37,1.9,4.4,3.93,5.71.91.59,1.9,1,2.93,1.24v-4.2c-1.45-.63-2.59-1.92-2.95-3.59Z"/>
      <path d="M48.62,56.96h-4.19c-.5,1.17-1.43,2.13-2.64,2.65v4.18c3.5-.79,6.07-3.53,6.83-6.83Z"/>
      <path d="M40.85,80.95c-1.33.28-2.68.03-3.81-.7-1.13-.74-1.91-1.87-2.2-3.19-.51-2.4.78-4.77,2.95-5.7v-4.18c-4.82,1.09-7.89,5.87-6.86,10.72.5,2.37,1.9,4.4,3.93,5.71,1.49.96,3.18,1.46,4.91,1.46.64,0,1.27-.07,1.91-.2,3.56-.76,6.17-3.53,6.94-6.86h-4.18c-.63,1.45-1.92,2.59-3.59,2.95Z"/>
      <path d="M64.95,74.95c.58,2.73-1.16,5.42-3.89,6-1.32.28-2.68.03-3.81-.7-.85-.55-1.5-1.33-1.9-2.25h-4.18c.52,2.32,1.9,4.31,3.9,5.6,1.49.96,3.18,1.46,4.91,1.46.63,0,1.27-.07,1.91-.2,4.89-1.04,8.01-5.86,6.97-10.75-.76-3.56-3.53-6.17-6.86-6.94v4.2c1.45.63,2.59,1.91,2.95,3.57Z"/>
      <path d="M62,59.61v4.18c3.5-.79,6.07-3.53,6.83-6.83h-4.19c-.5,1.17-1.43,2.13-2.64,2.65Z"/>
      <path class="cls-1" d="M81.26,59.91c1.32-.28,2.46-1.06,3.19-2.2.74-1.13.99-2.49.7-3.81-.28-1.32-1.06-2.46-2.2-3.19-.83-.54-1.78-.82-2.74-.82-.35,0-.71.04-1.07.11-1.66.35-2.96,1.5-3.59,2.95h-10.91c-.39-.91-1.04-1.69-1.9-2.25-.83-.54-1.78-.82-2.74-.82-.35,0-.71.04-1.07.11-1.32.28-2.46,1.06-3.19,2.2-.16.24-.29.49-.4.75h-10.91c-.39-.91-1.04-1.69-1.9-2.25-.83-.54-1.78-.82-2.74-.82-.35,0-.71.04-1.07.11-2.73.58-4.47,3.28-3.89,6,.36,1.66,1.5,2.96,2.95,3.59v11.75c-2.17.93-3.46,3.3-2.95,5.7.28,1.32,1.06,2.46,2.2,3.19,1.13.73,2.48.98,3.81.7,1.66-.35,2.96-1.5,3.59-2.95h10.91c.39.91,1.04,1.69,1.9,2.25,1.13.74,2.49.99,3.81.7,2.73-.58,4.48-3.28,3.89-6-.35-1.66-1.5-2.94-2.95-3.57v-11.77c1.21-.52,2.14-1.48,2.64-2.65h10.91c.93,2.17,3.3,3.46,5.7,2.95ZM58,63.79v7.56c-.91.39-1.69,1.04-2.25,1.9-.16.24-.29.49-.4.75h-10.92c-.52-1.2-1.48-2.12-2.64-2.63v-11.77c1.21-.52,2.14-1.48,2.64-2.65h10.91c.52,1.21,1.48,2.14,2.65,2.64v4.19Z"/>
    </g>
  </g>
  <g id="Layer_5" data-name="Layer 5">
    <g>
      <path class="cls-2" d="M40.56,29.96c1.42.92,3.11,1.23,4.76.88,3.41-.73,5.59-4.09,4.87-7.51-.63-2.97-3.27-5.01-6.19-5.01-.44,0-.88.04-1.32.14-1.65.35-3.07,1.33-3.99,2.75s-1.23,3.11-.88,4.76c.35,1.65,1.33,3.07,2.74,3.99Z"/>
      <path class="cls-2" d="M69.26,70.94c-.44,0-.88.04-1.32.14-3.41.73-5.59,4.09-4.87,7.51.35,1.65,1.33,3.07,2.75,3.99,1.42.92,3.1,1.23,4.76.88,1.65-.35,3.07-1.33,3.99-2.74.92-1.42,1.23-3.11.88-4.76-.63-2.97-3.26-5.01-6.18-5.01Z"/>
      <path class="cls-2" d="M15.3,29.96c1.42.92,3.1,1.23,4.76.88,3.41-.73,5.59-4.09,4.87-7.51-.63-2.97-3.26-5.01-6.18-5.01-.44,0-.88.05-1.32.14-3.41.73-5.59,4.09-4.87,7.51.35,1.65,1.33,3.07,2.75,3.99Z"/>
      <path class="cls-2" d="M65.81,29.96c1.42.92,3.1,1.23,4.76.88,1.65-.35,3.07-1.33,3.99-2.74.92-1.42,1.23-3.11.88-4.76-.63-2.97-3.26-5.01-6.18-5.01-.44,0-.88.04-1.32.14-3.41.73-5.59,4.09-4.87,7.51.35,1.65,1.33,3.07,2.75,3.99Z"/>
      <path d="M12.58,34.16c1.86,1.2,3.98,1.83,6.14,1.83.79,0,1.59-.08,2.39-.25,6.11-1.3,10.02-7.33,8.71-13.44-1.3-6.11-7.33-10.01-13.44-8.71-6.11,1.3-10.02,7.33-8.71,13.44.63,2.96,2.38,5.5,4.92,7.14ZM17.43,18.47c.44-.09.88-.14,1.32-.14,2.92,0,5.55,2.04,6.18,5.01.73,3.41-1.46,6.78-4.87,7.51-1.66.35-3.34.04-4.76-.88-1.42-.92-2.39-2.34-2.75-3.99-.73-3.41,1.46-6.78,4.87-7.51Z"/>
      <path d="M38.69,47.52c.92-1.42,2.34-2.39,3.99-2.74.44-.09.89-.14,1.33-.14,1.21,0,2.39.35,3.43,1.02,1.07.69,1.88,1.66,2.37,2.81h5.23c-.66-2.9-2.38-5.38-4.88-7-2.54-1.65-5.57-2.2-8.52-1.57-2.96.63-5.5,2.38-7.14,4.92-.74,1.14-1.24,2.38-1.54,3.66h5.23c.14-.32.3-.64.5-.94Z"/>
      <path d="M66.89,66.19c-6.11,1.3-10.02,7.33-8.71,13.44.63,2.96,2.38,5.5,4.92,7.14,1.86,1.2,3.98,1.83,6.14,1.83.79,0,1.59-.08,2.39-.25,2.96-.63,5.5-2.38,7.14-4.92s2.2-5.57,1.57-8.52c-1.3-6.11-7.32-10.01-13.44-8.71ZM74.56,80.7c-.92,1.42-2.34,2.39-3.99,2.74-1.66.35-3.34.04-4.76-.88-1.42-.92-2.39-2.34-2.75-3.99-.73-3.41,1.46-6.78,4.87-7.51.44-.09.88-.14,1.32-.14,2.92,0,5.55,2.04,6.18,5.01.35,1.65.04,3.34-.88,4.76Z"/>
      <path d="M37.84,34.16c1.86,1.2,3.98,1.83,6.14,1.83.79,0,1.59-.08,2.39-.25,6.11-1.3,10.02-7.33,8.71-13.44-1.3-6.11-7.34-10.01-13.44-8.71-2.96.63-5.5,2.38-7.14,4.92s-2.2,5.57-1.57,8.52c.63,2.96,2.38,5.5,4.92,7.14ZM38.69,21.21c.92-1.42,2.34-2.39,3.99-2.75.44-.09.88-.14,1.32-.14,2.92,0,5.55,2.04,6.19,5.01.73,3.41-1.46,6.78-4.87,7.51-1.65.35-3.34.04-4.76-.88-1.42-.92-2.39-2.34-2.74-3.99-.35-1.65-.04-3.34.88-4.76Z"/>
      <path d="M63.09,34.16c1.86,1.2,3.98,1.83,6.14,1.83.79,0,1.59-.08,2.39-.25,2.96-.63,5.5-2.38,7.14-4.92s2.2-5.57,1.57-8.52c-1.3-6.11-7.32-10.02-13.44-8.71-6.11,1.3-10.02,7.33-8.71,13.44.63,2.96,2.38,5.5,4.92,7.14ZM67.93,18.47c.44-.09.88-.14,1.32-.14,2.92,0,5.55,2.04,6.18,5.01.35,1.65.04,3.34-.88,4.76-.92,1.42-2.34,2.39-3.99,2.74-1.66.35-3.34.04-4.76-.88-1.42-.92-2.39-2.34-2.75-3.99-.73-3.41,1.46-6.78,4.87-7.51Z"/>
      <path d="M75.42,41.46c-2.54-1.65-5.57-2.2-8.52-1.57-4.45.95-7.72,4.41-8.67,8.58h5.23c.79-1.82,2.4-3.24,4.48-3.69.44-.09.89-.14,1.33-.14,1.21,0,2.39.35,3.43,1.02,1.42.92,2.39,2.34,2.74,3.99.35,1.65.04,3.34-.88,4.76-.92,1.42-2.34,2.39-3.99,2.75-3,.64-5.96-.97-7.13-3.69h-5.23c1.19,5.24,5.86,8.83,11.04,8.83.78,0,1.57-.08,2.36-.25,2.96-.63,5.5-2.38,7.14-4.92,1.65-2.54,2.2-5.57,1.57-8.52-.63-2.96-2.38-5.5-4.92-7.14Z"/>
      <path d="M21.25,66.23v5.25c1.45.63,2.65,1.78,3.3,3.29h5.24c-.99-4.38-4.42-7.59-8.54-8.53Z"/>
      <path d="M34.5,71.1c-.74,1.14-1.24,2.38-1.54,3.66h5.23c.14-.32.3-.64.5-.94.69-1.07,1.66-1.88,2.81-2.37v-5.23c-2.9.66-5.38,2.38-7,4.88Z"/>
      <path d="M38.19,53.46h-5.23c.99,4.38,4.42,7.59,8.54,8.54v-5.23c-1.45-.63-2.66-1.79-3.31-3.3Z"/>
      <path d="M12.56,52.28c-.73-3.41,1.46-6.78,4.87-7.51.44-.09.89-.14,1.33-.14,1.21,0,2.39.35,3.43,1.02,1.07.69,1.88,1.66,2.37,2.81h5.23c-.66-2.9-2.38-5.38-4.88-7-2.54-1.65-5.57-2.2-8.52-1.57-6.11,1.3-10.02,7.33-8.71,13.44.63,2.96,2.38,5.49,4.92,7.14,1.14.74,2.38,1.26,3.66,1.55v-5.25c-1.82-.79-3.24-2.4-3.69-4.48Z"/>
      <path d="M29.78,53.46h-5.23c-.63,1.46-1.79,2.66-3.3,3.31v5.23c4.38-.99,7.59-4.42,8.53-8.54Z"/>
      <path d="M20.07,83.45c-1.66.35-3.34.04-4.76-.88-1.42-.92-2.39-2.34-2.75-3.99-.64-3,.97-5.96,3.69-7.13v-5.23c-6.03,1.37-9.87,7.34-8.58,13.4.63,2.96,2.38,5.5,4.92,7.14,1.86,1.2,3.98,1.83,6.14,1.83.79,0,1.59-.08,2.39-.25,4.45-.95,7.72-4.41,8.67-8.58h-5.23c-.79,1.82-2.4,3.24-4.48,3.69Z"/>
      <path d="M50.19,75.94c.73,3.41-1.46,6.78-4.87,7.51-1.65.35-3.34.04-4.76-.88-1.07-.69-1.88-1.66-2.37-2.81h-5.23c.66,2.9,2.38,5.38,4.88,7,1.86,1.2,3.98,1.83,6.14,1.83.79,0,1.59-.08,2.39-.25,6.11-1.3,10.02-7.33,8.71-13.44-.95-4.45-4.41-7.72-8.58-8.67v5.25c1.81.79,3.24,2.39,3.69,4.46Z"/>
      <path d="M46.5,56.77v5.23c4.38-.99,7.59-4.42,8.53-8.54h-5.23c-.63,1.46-1.79,2.66-3.3,3.31Z"/>
      <path class="cls-1" d="M70.57,57.15c1.65-.35,3.07-1.33,3.99-2.75.92-1.42,1.23-3.11.88-4.76-.35-1.65-1.33-3.07-2.74-3.99-1.04-.67-2.22-1.02-3.43-1.02-.44,0-.89.05-1.33.14-2.08.44-3.7,1.87-4.48,3.69h-13.64c-.49-1.14-1.3-2.12-2.37-2.81-1.04-.67-2.22-1.02-3.43-1.02-.44,0-.89.05-1.33.14-1.65.35-3.07,1.33-3.99,2.74-.2.3-.36.62-.5.94h-13.64c-.49-1.14-1.3-2.12-2.37-2.81-1.04-.67-2.22-1.02-3.43-1.02-.44,0-.89.05-1.33.14-3.41.73-5.59,4.09-4.87,7.51.44,2.08,1.87,3.7,3.69,4.48v14.69c-2.71,1.17-4.32,4.13-3.69,7.13.35,1.65,1.33,3.07,2.75,3.99,1.42.92,3.1,1.23,4.76.88,2.08-.44,3.7-1.87,4.48-3.69h13.64c.49,1.14,1.3,2.12,2.37,2.81,1.42.92,3.11,1.23,4.76.88,3.41-.73,5.59-4.09,4.87-7.51-.44-2.08-1.87-3.68-3.69-4.46v-14.71c1.51-.65,2.67-1.85,3.3-3.31h13.64c1.17,2.71,4.13,4.32,7.13,3.69ZM41.5,61.99v9.46c-1.14.49-2.12,1.3-2.81,2.37-.2.3-.36.62-.5.94h-13.65c-.65-1.5-1.85-2.66-3.3-3.29v-14.71c1.51-.65,2.67-1.85,3.3-3.31h13.64c.65,1.51,1.85,2.67,3.31,3.3v5.23Z"/>
    </g>
  </g>
</svg>