<svg id="icons" xmlns="http://www.w3.org/2000/svg" viewBox="0 0 100 100"><defs><style>.cls-1{fill:#fff;}</style></defs><path d="M83.1,91.16a2.5,2.5,0,0,1-2.5-2.5v-43h-16a2.5,2.5,0,0,1-2.5-2.5V22.73H40.93V88.66a2.5,2.5,0,0,1-2.5,2.5H19.19a2.5,2.5,0,1,1,0-5H35.93V20.23a2.5,2.5,0,0,1,2.5-2.5H64.55a2.5,2.5,0,0,1,2.5,2.5v20.4h16a2.5,2.5,0,0,1,2.5,2.5V88.66A2.5,2.5,0,0,1,83.1,91.16Z"/><path class="cls-1" d="M81.1,88.16a2.5,2.5,0,0,1-2.5-2.5v-43h-16a2.5,2.5,0,0,1-2.5-2.5V19.73H38.93V85.66a2.5,2.5,0,0,1-2.5,2.5H17.19a2.5,2.5,0,0,1,0-5H33.93V17.23a2.5,2.5,0,0,1,2.5-2.5H62.55a2.5,2.5,0,0,1,2.5,2.5v20.4h16a2.5,2.5,0,0,1,2.5,2.5V85.66A2.5,2.5,0,0,1,81.1,88.16Z"/></svg>