<svg xmlns="http://www.w3.org/2000/svg" viewBox="0 0 100 100"><defs><style>.cls-1{opacity:0.5;}.cls-2{fill:#4d8dfc;}.cls-3{fill:#ffa627;}.cls-4{opacity:0.7;}</style></defs><g id="Layer_25" data-name="Layer 25"><g class="cls-1"><path class="cls-2" d="M58.21,68.23a5.36,5.36,0,0,0-1.38-1.3,5.73,5.73,0,0,0-3-.88,5.54,5.54,0,0,0-1.15.12,5.47,5.47,0,0,0-1.84,9.93,5.48,5.48,0,0,0,7.56-1.62,5.15,5.15,0,0,0,.63-1.37,5.37,5.37,0,0,0,0-3.2A5.25,5.25,0,0,0,58.21,68.23Z"/><path class="cls-2" d="M94.34,66.93a5.4,5.4,0,0,0-3-.88,5.69,5.69,0,0,0-1.15.12l-.14,0a5.46,5.46,0,0,0-2.75,1.63,5.29,5.29,0,0,0-.55.7,5.68,5.68,0,0,0-.64,1.37A5.52,5.52,0,0,0,86,72.65c0,.16.08.31.13.46A5.46,5.46,0,0,0,96,74.48,5.47,5.47,0,0,0,94.34,66.93Z"/><path d="M76.59,34.94h2.66a8.7,8.7,0,0,0-12.17,0h9.51Z"/><path d="M67.88,69.91H62.36a8.74,8.74,0,0,0-2.43-4.57l4.87-8.22,3.08,3.56v-.32l-3-3.43-2.15-2.49L52.09,42.06a3.84,3.84,0,0,0,.65,1.09l9.88,11.44a1.08,1.08,0,0,0-.18.24l-5.18,8.73A8.52,8.52,0,0,0,52.05,63a8.66,8.66,0,1,0,9.07,13.18,8.4,8.4,0,0,0,1.24-3.11h5.56c0-.2,0-.41,0-.62Zm-8.81,3.2a5.15,5.15,0,0,1-.63,1.37,5.48,5.48,0,0,1-7.56,1.62,5.46,5.46,0,0,1,1.84-9.93,5.54,5.54,0,0,1,1.15-.12,5.73,5.73,0,0,1,3,.88,5.36,5.36,0,0,1,1.38,1.3,5.25,5.25,0,0,1,.86,1.68A5.37,5.37,0,0,1,59.07,73.11Z"/><path d="M96.09,64.25A8.63,8.63,0,0,0,89.57,63a11.08,11.08,0,0,0-1.16.34l-3.66-6.16L96.9,43.15a3.81,3.81,0,0,0-.64-5.56,3.75,3.75,0,0,1-.74,3.64l-12.07,14-2.14,2.49-2.6,3V72.49h0c0,.21,0,.42,0,.62a5.41,5.41,0,0,1-9,3.41,5.42,5.42,0,0,0,10.4-2.11v-1.3h2.78l0,.21a8.68,8.68,0,0,0,8.46,6.86,8.74,8.74,0,0,0,1.82-.2,8.57,8.57,0,0,0,5.46-3.76A8.66,8.66,0,0,0,96.09,64.25Zm-12,2.55a8.45,8.45,0,0,0-1.25,3.11H80.09V62.62l2.46-2.85L85.66,65A8.57,8.57,0,0,0,84.11,66.8ZM96,74.48a5.45,5.45,0,0,1-9.8-1.37c0-.15-.09-.3-.13-.46a5.52,5.52,0,0,1,.12-2.74,5.68,5.68,0,0,1,.64-1.37,5.29,5.29,0,0,1,.55-.7,5.46,5.46,0,0,1,2.75-1.63l.14,0a5.69,5.69,0,0,1,1.15-.12,5.4,5.4,0,0,1,3,.88A5.47,5.47,0,0,1,96,74.48Z"/><path d="M76.73,73.11a3.18,3.18,0,0,0,.06-.62,3.49,3.49,0,0,0-1.14-2.58,3.5,3.5,0,0,0-4.71,0,3.49,3.49,0,0,0-1.14,2.58,3.18,3.18,0,0,0,.06.62,3.49,3.49,0,0,0,6.87,0Z"/><path class="cls-3" d="M78.67,73.11c0-.2,0-.41,0-.62h0V60.7l2.6-3,2.14-2.49,12.07-14a3.81,3.81,0,0,0-2.88-6.29H54.24a3.81,3.81,0,0,0-2.88,6.29l.73.83L62.77,54.44l2.15,2.49,3,3.43V72.49c0,.21,0,.42,0,.62a5.41,5.41,0,0,0,10.75,0Zm-8.81,0a3.18,3.18,0,0,1-.06-.62,3.49,3.49,0,0,1,1.14-2.58,3.5,3.5,0,0,1,4.71,0,3.49,3.49,0,0,1,1.14,2.58,3.18,3.18,0,0,1-.06.62,3.49,3.49,0,0,1-6.87,0Z"/></g></g><g id="icons_50" data-name="icons 50"><g class="cls-4"><path class="cls-2" d="M42.61,68.21a6.7,6.7,0,0,0-1.73-1.62,6.5,6.5,0,0,0-1.53-.73,6.68,6.68,0,0,0-2.17-.37,7,7,0,0,0-1.44.15A6.83,6.83,0,1,0,42.89,76a6.54,6.54,0,0,0,.8-1.72,6.77,6.77,0,0,0-1.08-6.1Z"/><path class="cls-2" d="M87.78,66.59a6.75,6.75,0,0,0-3.7-1.1,7,7,0,0,0-1.44.15l-.18,0a6.71,6.71,0,0,0-3.44,2,6.36,6.36,0,0,0-.68.87,6.81,6.81,0,0,0-1,5.14q.06.29.15.57a6.82,6.82,0,1,0,10.24-7.72Z"/><path d="M65.59,26.6h3.32a11.56,11.56,0,0,0-1.72-1.38A10.84,10.84,0,0,0,53.7,26.6H65.59Z"/><path d="M54.7,70.31H47.79a10.84,10.84,0,0,0-3-5.72l6.09-10.27,3.85,4.46v-.4L51,54.08,48.31,51,35,35.5a4.88,4.88,0,0,0,.83,1.36l12.34,14.3a2.37,2.37,0,0,0-.23.3L41.42,62.37a10.66,10.66,0,0,0-6.51-.64,10.82,10.82,0,0,0,2.23,21.41,11.14,11.14,0,0,0,2.29-.24,10.81,10.81,0,0,0,8.37-8.59h7a6.53,6.53,0,0,1,0-.78Zm-11,4a6.54,6.54,0,0,1-.8,1.72,6.82,6.82,0,1,1-7.15-10.39,7,7,0,0,1,1.44-.15,6.68,6.68,0,0,1,2.17.37,6.5,6.5,0,0,1,1.53.73,6.7,6.7,0,0,1,1.73,1.62,6.77,6.77,0,0,1,1.08,6.1Z"/><path d="M90,63.23a10.72,10.72,0,0,0-8.14-1.5,10.06,10.06,0,0,0-1.45.42l-4.57-7.71L91,36.86a4.75,4.75,0,0,0-.8-6.95,4.67,4.67,0,0,1-.92,4.55L74.17,51.93,71.49,55,68.23,58.8V73.53h0a6.53,6.53,0,0,1,0,.78A6.75,6.75,0,0,1,57,78.57a6.77,6.77,0,0,0,13-2.64V74.31h3.47c0,.09,0,.18,0,.26A10.82,10.82,0,0,0,84,83.14a11,11,0,0,0,2.28-.24,10.73,10.73,0,0,0,6.83-4.7A10.84,10.84,0,0,0,90,63.23ZM75,66.42a11,11,0,0,0-1.56,3.89H70V61.2L73,57.64l3.89,6.55A10.66,10.66,0,0,0,75,66.42ZM89.79,76a6.82,6.82,0,0,1-12.25-1.72q-.09-.28-.15-.57a6.81,6.81,0,0,1,1-5.14,6.36,6.36,0,0,1,.68-.87,6.71,6.71,0,0,1,3.44-2l.18,0a7,7,0,0,1,1.44-.15,6.75,6.75,0,0,1,3.7,1.1A6.83,6.83,0,0,1,89.79,76Z"/><path d="M65.76,74.31a4.92,4.92,0,0,0,.07-.78,4.36,4.36,0,0,0-4.36-4.36,4.38,4.38,0,0,0-4.37,4.36,4.92,4.92,0,0,0,.07.78,4.36,4.36,0,0,0,8.59,0Z"/><path class="cls-3" d="M68.18,74.31a6.53,6.53,0,0,0,0-.78h0V58.8L71.49,55l2.68-3.1L89.25,34.46a4.76,4.76,0,0,0-3.6-7.86h-48a4.76,4.76,0,0,0-3.6,7.86l.9,1L48.31,51,51,54.08l3.71,4.3V73.53a6.53,6.53,0,0,0,0,.78,6.76,6.76,0,0,0,13.43,0Zm-11,0a4.92,4.92,0,0,1-.07-.78,4.37,4.37,0,0,1,8.73,0,4.92,4.92,0,0,1-.07.78,4.36,4.36,0,0,1-8.59,0Z"/></g></g><g id="Layer_5" data-name="Layer 5"><path class="cls-2" d="M22.11,68.93a8.56,8.56,0,0,0-2.16-2A8.32,8.32,0,0,0,18,66a8.41,8.41,0,0,0-2.72-.47,8.53,8.53,0,1,0,7.14,13.18,8.38,8.38,0,0,0,1-2.15,8.48,8.48,0,0,0-1.35-7.63Z"/><path class="cls-2" d="M78.57,66.9a8.55,8.55,0,0,0-4.63-1.37,8.45,8.45,0,0,0-1.79.19l-.23.06a8.47,8.47,0,0,0-4.3,2.55,8.17,8.17,0,0,0-.85,1.09,8.53,8.53,0,0,0-1.19,6.42c.06.25.12.49.19.72a8.53,8.53,0,0,0,15.32,2.15A8.55,8.55,0,0,0,78.57,66.9Z"/><path d="M50.83,16.92H55a13.3,13.3,0,0,0-2.15-1.72A13.55,13.55,0,0,0,36,16.92H50.83Z"/><path d="M37.22,71.56H28.59a13.57,13.57,0,0,0-3.8-7.15l7.62-12.84,4.81,5.57v-.5l-4.63-5.37-3.35-3.88L12.54,28.05a6,6,0,0,0,1,1.69L29,47.62a1.78,1.78,0,0,0-.28.38L20.63,61.63a13.53,13.53,0,1,0-5.35,26,13.8,13.8,0,0,0,2.85-.3A13.5,13.5,0,0,0,28.6,76.56h8.68c0-.32-.06-.64-.06-1Zm-13.76,5a8.38,8.38,0,0,1-1,2.15,8.53,8.53,0,1,1-7.14-13.18A8.41,8.41,0,0,1,18,66a8.32,8.32,0,0,1,1.91.9,8.54,8.54,0,0,1,3.51,9.66Z"/><path d="M81.29,62.71A13.41,13.41,0,0,0,71.1,60.83a13.79,13.79,0,0,0-1.8.53l-5.72-9.64,19-22a5.94,5.94,0,0,0-1-8.68,5.81,5.81,0,0,1-1.16,5.68L61.55,48.58,58.2,52.46l-4.06,4.71V75.59h0c0,.33,0,.65-.06,1a8.44,8.44,0,0,1-14,5.32,8.46,8.46,0,0,0,16.25-3.29v-2h4.35c0,.11,0,.22,0,.33A13.55,13.55,0,0,0,73.9,87.6a13.8,13.8,0,0,0,2.85-.3,13.53,13.53,0,0,0,4.54-24.59Zm-18.72,4a13.61,13.61,0,0,0-2,4.86H56.29V60.17l3.85-4.45L65,63.91A14.12,14.12,0,0,0,62.57,66.7Zm18.52,12a8.54,8.54,0,0,1-15.32-2.15c-.07-.23-.13-.47-.19-.72a8.53,8.53,0,0,1,1.19-6.42,8.17,8.17,0,0,1,.85-1.09,8.47,8.47,0,0,1,4.3-2.55l.23-.06a8.45,8.45,0,0,1,1.79-.19,8.53,8.53,0,0,1,7.15,13.18Z"/><path d="M51.05,76.56a6.14,6.14,0,0,0,.09-1,5.46,5.46,0,0,0-10.92,0,6.14,6.14,0,0,0,.09,1,5.46,5.46,0,0,0,10.74,0Z"/><path class="cls-3" d="M54.08,76.56c0-.32.06-.64.06-1h0V57.17l4.06-4.71,3.35-3.88L80.4,26.74a5.81,5.81,0,0,0,1.16-5.68,5.88,5.88,0,0,0-5.65-4.14h-60a5.94,5.94,0,0,0-4.5,9.82l1.13,1.31,16.7,19.34,3.35,3.88,4.63,5.37v19c0,.33,0,.65.06,1a8.46,8.46,0,0,0,16.8,0Zm-13.77,0a6.14,6.14,0,0,1-.09-1,5.46,5.46,0,0,1,10.92,0,6.14,6.14,0,0,1-.09,1,5.46,5.46,0,0,1-10.74,0Z"/></g></svg>