<svg xmlns="http://www.w3.org/2000/svg" viewBox="0 0 100 100"><defs><style>.cls-1{opacity:0.25;}.cls-2{opacity:0.5;}.cls-3{fill:#ffa627;}</style></defs><g id="icons_multi"><g class="cls-1"><g class="cls-2"><polygon points="69.8 62.27 75.33 43.61 72.7 46.23 68.1 61.76 69.8 62.27"/><polygon points="51.39 67.48 50.2 68.66 61.55 72.03 61.97 70.61 51.39 67.48"/><polygon points="82.42 67.55 79.95 66.81 58.64 88.06 57.3 92.6 82.42 67.55"/><polygon class="cls-3" points="69.8 62.27 68.1 61.76 72.7 46.23 74.05 41.69 48.92 66.74 51.39 67.48 61.97 70.61 61.55 72.03 56.02 90.68 58.64 88.06 79.95 66.81 81.14 65.63 69.8 62.27"/></g><polygon points="63.83 53.04 70.74 29.73 67.46 33 61.71 52.41 63.83 53.04"/><polygon points="40.82 59.56 39.33 61.04 53.52 65.25 54.04 63.48 40.82 59.56"/><polygon points="79.61 59.65 76.52 58.73 49.88 85.29 48.2 90.97 79.61 59.65"/><polygon class="cls-3" points="63.83 53.04 61.71 52.41 67.46 33 69.14 27.33 37.73 58.64 40.82 59.56 54.04 63.48 53.52 65.25 46.6 88.56 49.88 85.29 76.52 58.73 78.01 57.25 63.83 53.04"/></g></g><g id="icons"><polygon points="56.12 42.52 64.76 13.37 60.66 17.46 53.47 41.73 56.12 42.52"/><polygon points="27.36 50.66 25.5 52.52 43.23 57.77 43.88 55.56 27.36 50.66"/><polygon points="75.85 50.77 71.99 49.63 38.69 82.83 36.59 89.92 75.85 50.77"/><polygon class="cls-3" points="56.12 42.52 53.47 41.73 60.66 17.46 62.76 10.37 23.5 49.52 27.36 50.66 43.88 55.56 43.23 57.77 34.59 86.92 38.69 82.83 71.99 49.63 73.85 47.77 56.12 42.52"/></g></svg>