<svg xmlns="http://www.w3.org/2000/svg" viewBox="0 0 100 100"><defs><style>.cls-1{opacity:0.5;}.cls-2{fill:#ffa627;}.cls-3{opacity:0.7;}.cls-4{fill:#fffffc;}</style></defs><g id="Layer_25" data-name="Layer 25"><g class="cls-1"><path class="cls-2" d="M70,59.83l.83-1.39.83-1.39.29-.5V48.34H53.82V66.42H66Zm7.38,1.36-1.07-1.81-1.16-2h0l-.77,1.3-.83,1.39h0l-.82,1.38-.78,1.32-2.13,3.59-1,1.6-.95,1.6L64.7,75H85.5L78.33,62.87Z"/><path d="M81.88,62.57A14.52,14.52,0,1,0,64.69,45.14H50.62V69.62H64.15l-5.07,8.54h32L81.87,62.57ZM64.7,75l3.17-5.34.95-1.6,1-1.6,2.13-3.59.78-1.32.82-1.38h0l.83-1.39.77-1.3h0l1.16,2,1.07,1.81,1,1.68L85.5,75ZM53.82,48.34H71.9v8.21l-.29.5-.83,1.39L70,59.83,66,66.42H53.82ZM75.1,51.16v-6H68a11.33,11.33,0,0,1,8.49-7.85A11.19,11.19,0,0,1,78.87,37a11.38,11.38,0,0,1,11.06,9,11.33,11.33,0,0,1-8.71,13.44c-.37.08-.74.13-1.1.18Z"/><path class="cls-2" d="M89.93,46a11.38,11.38,0,0,0-11.06-9,11.19,11.19,0,0,0-2.38.25A11.33,11.33,0,0,0,68,45.14h7.1v6l5,8.46c.36,0,.73-.1,1.1-.18A11.33,11.33,0,0,0,89.93,46Z"/></g></g><g id="icons_50" data-name="icons 50"><g class="cls-3"><path class="cls-2" d="M57.44,57.79l1-1.74,1-1.74.37-.62V43.43H37.28V66H52.56Zm9.22,1.7-1.34-2.27-1.44-2.43h0l-1,1.63-1,1.73h0l-1,1.72-1,1.65L57.21,66,56,68l-1.19,2L50.88,76.7h26l-9-15.11Z"/><path d="M72.35,61.21A18.15,18.15,0,1,0,50.86,39.43H33.28V70h16.9L43.85,80.7H83.9L72.34,61.21ZM50.88,76.7,54.83,70,56,68l1.19-2,2.67-4.5,1-1.65,1-1.72h0l1-1.73,1-1.63h0l1.44,2.43,1.34,2.27,1.25,2.1,9,15.11ZM37.28,43.43h22.6V53.69l-.37.62-1,1.74-1,1.74L52.56,66H37.28ZM63.88,47V39.43H55A14.15,14.15,0,1,1,71.52,57.3a13,13,0,0,1-1.37.22Z"/><path class="cls-2" d="M82.41,40.5A14.15,14.15,0,0,0,55,39.43h8.88V47l6.27,10.57a13,13,0,0,0,1.37-.22A14.16,14.16,0,0,0,82.41,40.5Z"/></g></g><g id="Layer_5" data-name="Layer 5"><path class="cls-2" d="M52.33,57.11l-1.68-2.83-1.81-3h0l-1.2,2-1.29,2.17h0L45.07,57.6l-1.23,2.06-3.33,5.63L39,67.79l-1.49,2.5-4.95,8.34h32.5l-11.2-18.9Z"/><path d="M59.44,59.26A22.69,22.69,0,1,0,32.58,32h-22V70.29H31.73L23.81,83.63H73.87L59.42,59.27ZM32.59,78.63l4.95-8.34L39,67.79l1.48-2.5,3.33-5.63,1.23-2.06,1.27-2.15h0l1.29-2.17,1.2-2h0l1.81,3,1.68,2.83,1.56,2.62,11.2,18.9ZM15.59,37H43.84V49.86l-.45.77L42.1,52.81,40.8,55l-6.1,10.3H15.59Zm33.25,4.4V32H37.75A17.68,17.68,0,0,1,51,19.77a17.2,17.2,0,0,1,3.71-.4A17.77,17.77,0,0,1,72,33.38a17.7,17.7,0,0,1-13.61,21c-.57.12-1.14.2-1.72.27Z"/><polygon class="cls-4" points="40.8 54.99 42.1 52.81 43.39 50.63 43.84 49.87 43.84 37.04 15.59 37.04 15.59 65.29 34.7 65.29 40.8 54.99"/><path class="cls-2" d="M72,33.38a17.77,17.77,0,0,0-17.28-14,17.2,17.2,0,0,0-3.71.4A17.68,17.68,0,0,0,37.75,32H48.84v9.4l7.84,13.21c.58-.07,1.15-.15,1.72-.27A17.7,17.7,0,0,0,72,33.38Z"/></g></svg>