<?xml version="1.0" encoding="UTF-8"?>
<svg id="icons" xmlns="http://www.w3.org/2000/svg" viewBox="0 0 100 100">
  <defs>
    <style>
      .cls-1 {
        fill: #fff;
      }

      .cls-2 {
        fill: #4d8dfc;
      }
    </style>
  </defs>
  <path class="cls-2" d="M46.56,30.96c1.42.92,3.11,1.23,4.76.88,3.41-.73,5.59-4.09,4.87-7.51-.63-2.97-3.27-5.01-6.19-5.01-.44,0-.88.04-1.32.14-1.65.35-3.07,1.33-3.99,2.75s-1.23,3.11-.88,4.76c.35,1.65,1.33,3.07,2.74,3.99Z"/>
  <path class="cls-2" d="M75.26,71.94c-.44,0-.88.04-1.32.14-3.41.73-5.59,4.09-4.87,7.51.35,1.65,1.33,3.07,2.75,3.99,1.42.92,3.1,1.23,4.76.88,1.65-.35,3.07-1.33,3.99-2.74.92-1.42,1.23-3.11.88-4.76-.63-2.97-3.26-5.01-6.18-5.01Z"/>
  <path class="cls-2" d="M21.3,30.96c1.42.92,3.1,1.23,4.76.88,3.41-.73,5.59-4.09,4.87-7.51-.63-2.97-3.26-5.01-6.18-5.01-.44,0-.88.05-1.32.14-3.41.73-5.59,4.09-4.87,7.51.35,1.65,1.33,3.07,2.75,3.99Z"/>
  <path class="cls-2" d="M71.81,30.96c1.42.92,3.1,1.23,4.76.88,1.65-.35,3.07-1.33,3.99-2.74.92-1.42,1.23-3.11.88-4.76-.63-2.97-3.26-5.01-6.18-5.01-.44,0-.88.04-1.32.14-3.41.73-5.59,4.09-4.87,7.51.35,1.65,1.33,3.07,2.75,3.99Z"/>
  <path d="M18.58,35.16c1.86,1.2,3.98,1.83,6.14,1.83.79,0,1.59-.08,2.39-.25,6.11-1.3,10.02-7.33,8.71-13.44-1.3-6.11-7.33-10.01-13.44-8.71-6.11,1.3-10.02,7.33-8.71,13.44.63,2.96,2.38,5.5,4.92,7.14ZM23.43,19.47c.44-.09.88-.14,1.32-.14,2.92,0,5.55,2.04,6.18,5.01.73,3.41-1.46,6.78-4.87,7.51-1.66.35-3.34.04-4.76-.88-1.42-.92-2.39-2.34-2.75-3.99-.73-3.41,1.46-6.78,4.87-7.51Z"/>
  <path d="M44.69,48.52c.92-1.42,2.34-2.39,3.99-2.74.44-.09.89-.14,1.33-.14,1.21,0,2.39.35,3.43,1.02,1.07.69,1.88,1.66,2.37,2.81h5.23c-.66-2.9-2.38-5.38-4.88-7-2.54-1.65-5.57-2.2-8.52-1.57-2.96.63-5.5,2.38-7.14,4.92-.74,1.14-1.24,2.38-1.54,3.66h5.23c.14-.32.3-.64.5-.94Z"/>
  <path d="M72.89,67.19c-6.11,1.3-10.02,7.33-8.71,13.44.63,2.96,2.38,5.5,4.92,7.14,1.86,1.2,3.98,1.83,6.14,1.83.79,0,1.59-.08,2.39-.25,2.96-.63,5.5-2.38,7.14-4.92s2.2-5.57,1.57-8.52c-1.3-6.11-7.32-10.01-13.44-8.71ZM80.56,81.7c-.92,1.42-2.34,2.39-3.99,2.74-1.66.35-3.34.04-4.76-.88-1.42-.92-2.39-2.34-2.75-3.99-.73-3.41,1.46-6.78,4.87-7.51.44-.09.88-.14,1.32-.14,2.92,0,5.55,2.04,6.18,5.01.35,1.65.04,3.34-.88,4.76Z"/>
  <path d="M43.84,35.16c1.86,1.2,3.98,1.83,6.14,1.83.79,0,1.59-.08,2.39-.25,6.11-1.3,10.02-7.33,8.71-13.44-1.3-6.11-7.34-10.01-13.44-8.71-2.96.63-5.5,2.38-7.14,4.92s-2.2,5.57-1.57,8.52c.63,2.96,2.38,5.5,4.92,7.14ZM44.69,22.21c.92-1.42,2.34-2.39,3.99-2.75.44-.09.88-.14,1.32-.14,2.92,0,5.55,2.04,6.19,5.01.73,3.41-1.46,6.78-4.87,7.51-1.65.35-3.34.04-4.76-.88-1.42-.92-2.39-2.34-2.74-3.99-.35-1.65-.04-3.34.88-4.76Z"/>
  <path d="M69.09,35.16c1.86,1.2,3.98,1.83,6.14,1.83.79,0,1.59-.08,2.39-.25,2.96-.63,5.5-2.38,7.14-4.92s2.2-5.57,1.57-8.52c-1.3-6.11-7.32-10.02-13.44-8.71-6.11,1.3-10.02,7.33-8.71,13.44.63,2.96,2.38,5.5,4.92,7.14ZM73.93,19.47c.44-.09.88-.14,1.32-.14,2.92,0,5.55,2.04,6.18,5.01.35,1.65.04,3.34-.88,4.76-.92,1.42-2.34,2.39-3.99,2.74-1.66.35-3.34.04-4.76-.88-1.42-.92-2.39-2.34-2.75-3.99-.73-3.41,1.46-6.78,4.87-7.51Z"/>
  <path d="M81.42,42.46c-2.54-1.65-5.57-2.2-8.52-1.57-4.45.95-7.72,4.41-8.67,8.58h5.23c.79-1.82,2.4-3.24,4.48-3.69.44-.09.89-.14,1.33-.14,1.21,0,2.39.35,3.43,1.02,1.42.92,2.39,2.34,2.74,3.99.35,1.65.04,3.34-.88,4.76-.92,1.42-2.34,2.39-3.99,2.75-3,.64-5.96-.97-7.13-3.69h-5.23c1.19,5.24,5.86,8.83,11.04,8.83.78,0,1.57-.08,2.36-.25,2.96-.63,5.5-2.38,7.14-4.92,1.65-2.54,2.2-5.57,1.57-8.52-.63-2.96-2.38-5.5-4.92-7.14Z"/>
  <path d="M27.25,67.23v5.25c1.45.63,2.65,1.78,3.3,3.29h5.24c-.99-4.38-4.42-7.59-8.54-8.53Z"/>
  <path d="M40.5,72.1c-.74,1.14-1.24,2.38-1.54,3.66h5.23c.14-.32.3-.64.5-.94.69-1.07,1.66-1.88,2.81-2.37v-5.23c-2.9.66-5.38,2.38-7,4.88Z"/>
  <path d="M44.19,54.46h-5.23c.99,4.38,4.42,7.59,8.54,8.54v-5.23c-1.45-.63-2.66-1.79-3.31-3.3Z"/>
  <path d="M18.56,53.28c-.73-3.41,1.46-6.78,4.87-7.51.44-.09.89-.14,1.33-.14,1.21,0,2.39.35,3.43,1.02,1.07.69,1.88,1.66,2.37,2.81h5.23c-.66-2.9-2.38-5.38-4.88-7-2.54-1.65-5.57-2.2-8.52-1.57-6.11,1.3-10.02,7.33-8.71,13.44.63,2.96,2.38,5.49,4.92,7.14,1.14.74,2.38,1.26,3.66,1.55v-5.25c-1.82-.79-3.24-2.4-3.69-4.48Z"/>
  <path d="M35.78,54.46h-5.23c-.63,1.46-1.79,2.66-3.3,3.31v5.23c4.38-.99,7.59-4.42,8.53-8.54Z"/>
  <path d="M26.07,84.45c-1.66.35-3.34.04-4.76-.88-1.42-.92-2.39-2.34-2.75-3.99-.64-3,.97-5.96,3.69-7.13v-5.23c-6.03,1.37-9.87,7.34-8.58,13.4.63,2.96,2.38,5.5,4.92,7.14,1.86,1.2,3.98,1.83,6.14,1.83.79,0,1.59-.08,2.39-.25,4.45-.95,7.72-4.41,8.67-8.58h-5.23c-.79,1.82-2.4,3.24-4.48,3.69Z"/>
  <path d="M56.19,76.94c.73,3.41-1.46,6.78-4.87,7.51-1.65.35-3.34.04-4.76-.88-1.07-.69-1.88-1.66-2.37-2.81h-5.23c.66,2.9,2.38,5.38,4.88,7,1.86,1.2,3.98,1.83,6.14,1.83.79,0,1.59-.08,2.39-.25,6.11-1.3,10.02-7.33,8.71-13.44-.95-4.45-4.41-7.72-8.58-8.67v5.25c1.81.79,3.24,2.39,3.69,4.46Z"/>
  <path d="M52.5,57.77v5.23c4.38-.99,7.59-4.42,8.53-8.54h-5.23c-.63,1.46-1.79,2.66-3.3,3.31Z"/>
  <path class="cls-1" d="M76.57,58.15c1.65-.35,3.07-1.33,3.99-2.75.92-1.42,1.23-3.11.88-4.76-.35-1.65-1.33-3.07-2.74-3.99-1.04-.67-2.22-1.02-3.43-1.02-.44,0-.89.05-1.33.14-2.08.44-3.7,1.87-4.48,3.69h-13.64c-.49-1.14-1.3-2.12-2.37-2.81-1.04-.67-2.22-1.02-3.43-1.02-.44,0-.89.05-1.33.14-1.65.35-3.07,1.33-3.99,2.74-.2.3-.36.62-.5.94h-13.64c-.49-1.14-1.3-2.12-2.37-2.81-1.04-.67-2.22-1.02-3.43-1.02-.44,0-.89.05-1.33.14-3.41.73-5.59,4.09-4.87,7.51.44,2.08,1.87,3.7,3.69,4.48v14.69c-2.71,1.17-4.32,4.13-3.69,7.13.35,1.65,1.33,3.07,2.75,3.99,1.42.92,3.1,1.23,4.76.88,2.08-.44,3.7-1.87,4.48-3.69h13.64c.49,1.14,1.3,2.12,2.37,2.81,1.42.92,3.11,1.23,4.76.88,3.41-.73,5.59-4.09,4.87-7.51-.44-2.08-1.87-3.68-3.69-4.46v-14.71c1.51-.65,2.67-1.85,3.3-3.31h13.64c1.17,2.71,4.13,4.32,7.13,3.69ZM47.5,62.99v9.46c-1.14.49-2.12,1.3-2.81,2.37-.2.3-.36.62-.5.94h-13.65c-.65-1.5-1.85-2.66-3.3-3.29v-14.71c1.51-.65,2.67-1.85,3.3-3.31h13.64c.65,1.51,1.85,2.67,3.31,3.3v5.23Z"/>
</svg>