<svg id="icons" xmlns="http://www.w3.org/2000/svg" viewBox="0 0 100 100">
    <defs>
        <style>.cls-1{fill:#fff;}</style>
    </defs>
    <path d="M50,65.59a2.49,2.49,0,0,1-1.77-.73L35.14,51.77a2.51,2.51,0,0,1,0-3.54L48.23,35.14A2.51,2.51,0,0,1,50,34.41h0a2.51,2.51,0,0,1,1.77.73L64.86,48.23a2.52,2.52,0,0,1,0,3.54L51.77,64.86A2.49,2.49,0,0,1,50,65.59ZM40.44,50,50,59.55,59.55,50,50,40.44Z"/>
    <path class="cls-1"
          d="M72.78,75.28H27.22a2.49,2.49,0,0,1-2.5-2.5V27.22a2.5,2.5,0,0,1,2.5-2.5H72.78a2.49,2.49,0,0,1,2.5,2.5V72.78A2.49,2.49,0,0,1,72.78,75.28ZM27.44,72.56H72.56V27.44H27.44Z"/>
    <rect class="cls-1" x="40.74" y="40.74" width="18.51" height="18.51" transform="translate(-20.71 50) rotate(-45)"/>
</svg>