<?xml version="1.0" encoding="UTF-8"?>
<svg id="icons" xmlns="http://www.w3.org/2000/svg" viewBox="0 0 100 100">
    <defs>
        <style>
            .cls-1 {
            fill: #fff;
            }

            .cls-2 {
            fill: #4d8dfc;
            }
        </style>
    </defs>
    <g>
        <path class="cls-1"
              d="M61.76,23.52c2.33,1.48,3.02,4.57,1.54,6.9l-3.7,5.83c.42-.03.84-.07,1.26-.16,2.23-.48,4.14-1.79,5.38-3.7,2.56-3.95,1.43-9.24-2.52-11.8-1.4-.91-3-1.38-4.62-1.38-.6,0-1.2.06-1.8.19-2.23.48-4.14,1.79-5.38,3.7s-1.66,4.19-1.19,6.42c.1.47.25.93.42,1.37l3.7-5.83c1.48-2.33,4.57-3.02,6.9-1.54Z"/>
        <path class="cls-1"
              d="M72.56,57.66c-1.4-.91-3-1.38-4.62-1.38-.6,0-1.2.06-1.8.19-2.23.48-4.14,1.79-5.38,3.7-2.56,3.95-1.43,9.24,2.52,11.8,3.95,2.56,9.24,1.43,11.8-2.52,1.24-1.91,1.66-4.19,1.18-6.42s-1.79-4.14-3.7-5.38Z"/>
        <path class="cls-2"
              d="M21.75,70.61c-2.56,3.95-1.43,9.24,2.52,11.8,1.91,1.24,4.2,1.66,6.42,1.19,2.23-.48,4.14-1.79,5.38-3.7s1.66-4.19,1.19-6.42c-.1-.47-.25-.93-.42-1.37l-3.7,5.83c-.95,1.5-2.57,2.32-4.23,2.32-.92,0-1.84-.25-2.67-.78-2.33-1.48-3.02-4.57-1.54-6.9l3.7-5.83c-.42.03-.84.07-1.26.16-2.23.48-4.14,1.79-5.38,3.7Z"/>
        <path d="M59.09,19.2c1.63,0,3.23.47,4.62,1.38,3.95,2.56,5.08,7.85,2.52,11.8-1.24,1.91-3.15,3.23-5.38,3.7-.42.09-.84.14-1.26.16l-1.57,2.47-1.47,2.32c.82.16,1.65.24,2.49.24.95,0,1.9-.1,2.85-.3,3.54-.75,6.57-2.84,8.53-5.87h0c4.06-6.26,2.27-14.66-3.99-18.72-3.03-1.97-6.65-2.63-10.19-1.88-3.54.75-6.57,2.84-8.53,5.87-1.97,3.03-2.63,6.65-1.88,10.19.4,1.88,1.18,3.6,2.28,5.11l1.47-2.32,1.56-2.46c-.17-.44-.32-.9-.42-1.37-.48-2.23-.05-4.51,1.19-6.42s3.15-3.23,5.38-3.7c.6-.13,1.2-.19,1.8-.19ZM81.16,61.99c-.75-3.53-2.84-6.56-5.87-8.53-3.03-1.97-6.65-2.63-10.18-1.88-3.54.75-6.57,2.84-8.53,5.87-4.06,6.26-2.27,14.66,3.99,18.72,2.27,1.47,4.82,2.17,7.34,2.17,4.44,0,8.79-2.18,11.38-6.17,1.97-3.03,2.63-6.65,1.88-10.19ZM75.08,69.46c-2.56,3.95-7.85,5.08-11.8,2.52-3.95-2.56-5.08-7.85-2.52-11.8,1.24-1.91,3.15-3.23,5.38-3.7.6-.13,1.2-.19,1.8-.19,1.63,0,3.23.47,4.62,1.38,1.91,1.24,3.23,3.15,3.7,5.38s.05,4.51-1.18,6.42ZM39.87,67.32l-1.47,2.32-1.56,2.46c.17.44.32.9.42,1.37.48,2.23.05,4.51-1.19,6.42s-3.15,3.23-5.38,3.7c-2.23.47-4.51.05-6.42-1.19-3.95-2.56-5.08-7.85-2.52-11.8,1.24-1.91,3.15-3.23,5.38-3.7.42-.09.84-.14,1.26-.16l1.57-2.47,1.47-2.32c-1.75-.33-3.56-.32-5.34.06-3.54.75-6.57,2.84-8.53,5.87-4.06,6.26-2.27,14.66,3.99,18.72,2.22,1.44,4.75,2.18,7.33,2.18.95,0,1.9-.1,2.85-.3,3.54-.75,6.56-2.84,8.53-5.87,1.97-3.03,2.63-6.65,1.88-10.19-.4-1.88-1.18-3.6-2.28-5.11Z"/>
        <path class="cls-2"
              d="M61.76,23.52c-2.33-1.48-5.42-.79-6.9,1.54l-3.7,5.83-1.56,2.46-1.47,2.32-16.69,26.28-1.47,2.32-1.57,2.47-3.7,5.83c-1.48,2.33-.79,5.42,1.54,6.9.83.53,1.76.78,2.67.78,1.65,0,3.27-.82,4.23-2.32l3.7-5.83,1.56-2.46,1.47-2.32,16.69-26.29,1.47-2.32,1.57-2.47,3.7-5.83c1.48-2.33.79-5.42-1.54-6.9Z"/>
    </g>
    <path class="cls-1"
          d="M31.22,71.7c-.69-.45-1.49-.68-2.3-.68-.3,0-.6.03-.89.09-1.11.24-2.06.89-2.67,1.84-1.27,1.96-.71,4.59,1.25,5.86,1.96,1.27,4.59.71,5.86-1.25.62-.95.82-2.08.59-3.19s-.89-2.06-1.84-2.67Z"/>
</svg>