<svg xmlns="http://www.w3.org/2000/svg" viewBox="0 0 100 100">
    <defs>
        <style>.cls-1{opacity:0.5;}.cls-2{fill:#fff;}.cls-3{opacity:0.7;}</style>
    </defs>
    <g id="Layer_25" data-name="Layer 25">
        <g class="cls-1">
            <path d="M93.27,44.07V73.52a3.2,3.2,0,0,1-3.2,3.2H59.47a3.37,3.37,0,0,0,2.87,1.6H90.83a3.4,3.4,0,0,0,3.4-3.4V46.43A3.39,3.39,0,0,0,93.27,44.07Zm-3.2-1V40.15H73.39V56.83H90.07Zm0,30.49H73.39V56.83H56.7V73.52H90.07Z"/>
            <path class="cls-2"
                  d="M90.07,37H56.7a3.2,3.2,0,0,0-3.2,3.2V73.52a3.2,3.2,0,0,0,3.2,3.2H90.07a3.2,3.2,0,0,0,3.2-3.2V40.15A3.2,3.2,0,0,0,90.07,37ZM56.7,73.52V56.83H73.39V40.15H90.07V56.83H73.39V73.52"/>
        </g>
    </g>
    <g id="icons_50" data-name="icons 50">
        <g class="cls-3">
            <path d="M86.12,37.67V74.49a4,4,0,0,1-4,4H43.87a4.22,4.22,0,0,0,3.59,2H83.08a4.24,4.24,0,0,0,4.24-4.24V40.62A4.25,4.25,0,0,0,86.12,37.67Zm-4-1.29v-3.6H61.27V53.63H82.12Zm0,38.11H61.27V53.63H40.41V74.49H82.12Z"/>
            <path class="cls-2"
                  d="M82.12,28.78H40.41a4,4,0,0,0-4,4V74.49a4,4,0,0,0,4,4H82.12a4,4,0,0,0,4-4V32.78A4,4,0,0,0,82.12,28.78ZM40.41,74.49V53.63H61.27V32.78H82.12V53.63H61.27V74.49"/>
        </g>
    </g>
    <g id="Layer_5" data-name="Layer 5">
        <path d="M76.18,29.43v46a5,5,0,0,1-5,5H23.37A5.27,5.27,0,0,0,27.85,83H72.38a5.3,5.3,0,0,0,5.3-5.3V33.12A5.29,5.29,0,0,0,76.18,29.43Zm-5-1.61v-4.5H45.12V49.38H71.18ZM45.12,75.45V49.38H19.05V75.45h3.5"/>
        <path class="cls-2"
              d="M71.18,18.32H19.05a5,5,0,0,0-5,5V75.45a5,5,0,0,0,5,5H71.18a5,5,0,0,0,5-5V23.32A5,5,0,0,0,71.18,18.32ZM19.05,75.45V49.38H45.12V23.32H71.18V49.38H45.12V75.45"/>
    </g>
</svg>