<svg xmlns="http://www.w3.org/2000/svg" viewBox="0 0 100 100">
    <defs>
        <style>.cls-1{opacity:0.5;}.cls-2{fill:#fff;}.cls-3{fill:#4d8dfc;}.cls-4{opacity:0.7;}</style>
    </defs>
    <g id="Layer_25" data-name="Layer 25">
        <g class="cls-1">
            <path class="cls-2"
                  d="M79,39.59a3.19,3.19,0,0,1,1,4.41l-2.37,3.73a4.48,4.48,0,0,0,.81-.1,5.4,5.4,0,0,0,3.44-2.37,5.46,5.46,0,0,0-4.57-8.43A5.62,5.62,0,0,0,76.1,37a5.46,5.46,0,0,0-4.2,6.48,5.58,5.58,0,0,0,.27.88l2.37-3.74A3.2,3.2,0,0,1,79,39.59Z"/>
            <path class="cls-2"
                  d="M85.87,61.44a5.42,5.42,0,0,0-3-.88,5.62,5.62,0,0,0-1.15.12,5.46,5.46,0,1,0,4.11.76Z"/>
            <path class="cls-3"
                  d="M53.35,69.73a5.46,5.46,0,0,0,9.17,5.94,5.41,5.41,0,0,0,.75-4.11,4.48,4.48,0,0,0-.27-.88l-2.36,3.73a3.21,3.21,0,0,1-2.71,1.49,3.15,3.15,0,0,1-1.71-.5,3.21,3.21,0,0,1-1-4.42l2.37-3.73a5.63,5.63,0,0,0-.81.11A5.41,5.41,0,0,0,53.35,69.73Z"/>
            <path d="M77.25,36.83a5.46,5.46,0,0,1,1.13,10.8,4.48,4.48,0,0,1-.81.1l-1,1.58-.94,1.49a8.48,8.48,0,0,0,1.59.15,8.75,8.75,0,0,0,1.83-.19A8.61,8.61,0,0,0,84.51,47h0a8.67,8.67,0,1,0-14.28.37l.94-1.49,1-1.57a5.58,5.58,0,0,1-.27-.88A5.46,5.46,0,0,1,76.1,37,5.62,5.62,0,0,1,77.25,36.83ZM91.37,64.21a8.66,8.66,0,1,0-1.2,6.52A8.61,8.61,0,0,0,91.37,64.21ZM87.48,69a5.46,5.46,0,1,1-5.72-8.31,5.62,5.62,0,0,1,1.15-.12A5.46,5.46,0,0,1,87.48,69ZM65,67.62,64,69.11l-1,1.57a4.48,4.48,0,0,1,.27.88,5.41,5.41,0,0,1-.75,4.11,5.46,5.46,0,0,1-9.17-5.94,5.41,5.41,0,0,1,3.44-2.37,5.63,5.63,0,0,1,.81-.11l1-1.58.95-1.48a8.39,8.39,0,0,0-3.42,0,8.66,8.66,0,0,0,1.79,17.13,8.73,8.73,0,0,0,1.82-.19A8.67,8.67,0,0,0,65,67.62Z"/>
            <path class="cls-3"
                  d="M79,39.59a3.2,3.2,0,0,0-4.42,1l-2.37,3.74-1,1.57-.94,1.49L59.55,64.19l-.95,1.48-1,1.58L55.23,71a3.21,3.21,0,0,0,1,4.42,3.15,3.15,0,0,0,1.71.5,3.21,3.21,0,0,0,2.71-1.49L63,70.68l1-1.57L65,67.62,75.63,50.8l.94-1.49,1-1.58L79.94,44A3.19,3.19,0,0,0,79,39.59Z"/>
        </g>
    </g>
    <g id="icons_50" data-name="icons 50">
        <g class="cls-4">
            <path class="cls-2"
                  d="M69.09,32.11a4,4,0,0,1,1.23,5.52l-3,4.66a5.82,5.82,0,0,0,1-.13A6.83,6.83,0,0,0,67,28.66a7,7,0,0,0-1.44.15,6.84,6.84,0,0,0-5.25,8.1,6.69,6.69,0,0,0,.34,1.1l3-4.67A4,4,0,0,1,69.09,32.11Z"/>
            <path class="cls-2" d="M77.73,59.43a6.73,6.73,0,0,0-3.7-1.1,7,7,0,0,0-1.43.15,6.84,6.84,0,1,0,5.13,1Z"/>
            <path class="cls-3"
                  d="M37.09,69.79A6.85,6.85,0,1,0,49.15,71l-3,4.66a4,4,0,1,1-6.75-4.29l3-4.66a6.7,6.7,0,0,0-5.31,3.1Z"/>
            <path d="M67,28.66a6.83,6.83,0,0,1,1.41,13.5,5.82,5.82,0,0,1-1,.13l-1.25,2-1.18,1.85a10.25,10.25,0,0,0,2,.2,11,11,0,0,0,2.28-.24A10.8,10.8,0,0,0,76,41.38h0A10.82,10.82,0,0,0,64.69,24.9a10.81,10.81,0,0,0-6.51,16.93L59.36,40l1.25-2a6.69,6.69,0,0,1-.34-1.1,6.84,6.84,0,0,1,5.25-8.1A7,7,0,0,1,67,28.66ZM84.61,62.89A10.84,10.84,0,1,0,83.1,71,10.77,10.77,0,0,0,84.61,62.89Zm-4.86,6A6.83,6.83,0,1,1,72.6,58.48,7,7,0,0,1,74,58.33a6.85,6.85,0,0,1,6.67,5.4A6.8,6.8,0,0,1,79.75,68.87ZM51.58,67.15,50.4,69l-1.25,2a6.88,6.88,0,0,1,.34,1.09,6.88,6.88,0,1,1-7.09-5.38l1.25-2,1.18-1.86a10.83,10.83,0,1,0-2,21.47,11,11,0,0,0,2.28-.24,10.83,10.83,0,0,0,6.51-16.94Z"/>
            <path class="cls-3"
                  d="M69.09,32.11a4,4,0,0,0-5.52,1.23l-3,4.67-1.25,2-1.18,1.85-13.35,21-1.18,1.86-1.25,2-3,4.66a4,4,0,1,0,6.75,4.29l3-4.66,1.25-2,1.18-1.86,13.35-21,1.18-1.85,1.25-2,3-4.66A4,4,0,0,0,69.09,32.11Z"/>
        </g>
    </g>
    <g id="Layer_5" data-name="Layer 5">
        <path class="cls-2"
              d="M55.76,22.52a5,5,0,0,1,1.54,6.9l-3.7,5.82a7.76,7.76,0,0,0,1.26-.16,8.46,8.46,0,0,0,5.38-3.7A8.54,8.54,0,0,0,53.09,18.2a9.15,9.15,0,0,0-1.79.19,8.55,8.55,0,0,0-6.57,10.13,9.05,9.05,0,0,0,.42,1.37l3.71-5.83A5,5,0,0,1,55.76,22.52Z"/>
        <path class="cls-2"
              d="M66.56,56.66a8.44,8.44,0,0,0-4.62-1.38,9.17,9.17,0,0,0-1.8.19,8.53,8.53,0,1,0,6.42,1.19Z"/>
        <path class="cls-3"
              d="M15.75,69.61a8.54,8.54,0,0,0,2.52,11.8,8.53,8.53,0,0,0,13-8.94,8,8,0,0,0-.42-1.37l-3.7,5.83a5,5,0,0,1-8.44-5.36l3.7-5.83a9.07,9.07,0,0,0-1.26.17A8.46,8.46,0,0,0,15.75,69.61Z"/>
        <path d="M53.09,18.2a8.53,8.53,0,0,1,1.77,16.88,7.76,7.76,0,0,1-1.26.16L52,37.71,50.56,40a13,13,0,0,0,2.49.24A13.8,13.8,0,0,0,55.9,40a13.4,13.4,0,0,0,8.53-5.87h0a13.54,13.54,0,1,0-22.31.57l1.47-2.32,1.56-2.46a9.05,9.05,0,0,1-.42-1.37A8.55,8.55,0,0,1,51.3,18.39,9.15,9.15,0,0,1,53.09,18.2ZM75.16,61a13.53,13.53,0,1,0-1.88,10.19A13.51,13.51,0,0,0,75.16,61Zm-6.08,7.47a8.53,8.53,0,1,1-8.94-13,9.17,9.17,0,0,1,1.8-.19,8.54,8.54,0,0,1,7.14,13.18ZM33.87,66.32,32.4,68.64,30.83,71.1a8,8,0,0,1,.42,1.37,8.53,8.53,0,0,1-13,8.94,8.53,8.53,0,0,1,2.86-15.5,9.07,9.07,0,0,1,1.26-.17L24,63.27,25.43,61a13.57,13.57,0,0,0-13.87,5.94,13.55,13.55,0,0,0,11.32,20.9,13.09,13.09,0,0,0,2.85-.31,13.53,13.53,0,0,0,8.14-21.16Z"/>
        <path class="cls-3"
              d="M55.76,22.52a5,5,0,0,0-6.9,1.54l-3.71,5.83-1.56,2.46-1.47,2.32L25.43,61,24,63.27l-1.57,2.47-3.7,5.83a5,5,0,1,0,8.44,5.36l3.7-5.83,1.57-2.46,1.47-2.32L50.56,40,52,37.71l1.57-2.47,3.7-5.82A5,5,0,0,0,55.76,22.52Z"/>
    </g>
    <g id="icons">
        <path class="cls-2"
              d="M25.22,70.71a4.23,4.23,0,0,0-2.3-.68,4.56,4.56,0,0,0-.89.09A4.2,4.2,0,0,0,19.36,72a4.24,4.24,0,1,0,5.86-1.25Z"/>
    </g>
</svg>