<svg xmlns="http://www.w3.org/2000/svg" viewBox="0 0 100 100"><defs><style>.cls-1{opacity:0.5;}.cls-2{fill:#ffa627;}.cls-3{fill:#4d8dfc;}.cls-4{opacity:0.7;}</style></defs><g id="Layer_25" data-name="Layer 25"><g class="cls-1"><path d="M82.07,68.37a1.82,1.82,0,0,0,.52,1.16l7,6.93h.66Z"/><path d="M96.33,62.37V78.28a2,2,0,0,1,0,.35c0,.05,0,.09,0,.14a1.59,1.59,0,0,1-.07.2,1.19,1.19,0,0,1-.08.16.64.64,0,0,1-.08.14,1.9,1.9,0,0,1-.48.5l-.15.07a.83.83,0,0,1-.16.09L95,80l-.13,0a2.2,2.2,0,0,1-.36,0H78.45A1.62,1.62,0,0,1,78,80a1.49,1.49,0,0,0,0,.21A1.79,1.79,0,0,0,79.73,82h16.1a2.2,2.2,0,0,0,.36,0l.13,0,.2-.06a.83.83,0,0,0,.16-.09l.15-.07a1.9,1.9,0,0,0,.48-.5.64.64,0,0,0,.08-.14,1.19,1.19,0,0,0,.08-.16,1.59,1.59,0,0,0,.07-.2s0-.09,0-.14a2,2,0,0,0,0-.35V64.07A1.77,1.77,0,0,0,96.33,62.37Z"/><path d="M78.45,36a1.62,1.62,0,0,1-.49-.08,1.49,1.49,0,0,0,0,.21,1.79,1.79,0,0,0,1.79,1.79h8.58L90.23,36Z"/><path d="M97.59,35.77a.65.65,0,0,0,0-.13,1.17,1.17,0,0,0-.06-.2.51.51,0,0,0-.09-.16.7.7,0,0,0-.09-.17,2,2,0,0,0-.5-.5l-.14,0-.16-.09-.16,0V50.3a1.81,1.81,0,0,1-.53,1.28A1.77,1.77,0,0,1,94,52v.21a1.77,1.77,0,0,0,.53,1.27,1.79,1.79,0,0,0,2.53,0,1.81,1.81,0,0,0,.53-1.28V36.13A2.2,2.2,0,0,0,97.59,35.77Z"/><path d="M83.91,47.44a1.81,1.81,0,0,1-1.8.45,1.81,1.81,0,0,0,3.08,1.47l7.57-7.62v-3.2Z"/><path d="M66.25,36H54.48l1.93,1.92H67.53a1.73,1.73,0,0,0,1.27-.53,1.79,1.79,0,0,0-.77-3,1.77,1.77,0,0,1-.51,1.07A1.73,1.73,0,0,1,66.25,36Z"/><path d="M63.39,47.41a1.8,1.8,0,0,1-2.56,0L52,38.54V50.31a1.81,1.81,0,0,1-1.8,1.8,1.82,1.82,0,0,1-.51-.09v.21a1.8,1.8,0,1,0,3.59,0V40.46l8.87,8.87a1.81,1.81,0,0,0,2.56-2.56L63.91,46A1.77,1.77,0,0,1,63.39,47.41Z"/><path d="M69.26,63.59c0-.05,0-.14-.06-.2a.79.79,0,0,1-.08-.16,1.09,1.09,0,0,0-.08-.15,1.9,1.9,0,0,0-.49-.49l-.15-.08-.16-.09-.18-.05V78.26a1.79,1.79,0,0,1-1.79,1.79,1.59,1.59,0,0,1-.53-.08v.2a1.81,1.81,0,0,0,.53,1.28,1.76,1.76,0,0,0,1.28.52,1.79,1.79,0,0,0,1.79-1.79V64.08a2,2,0,0,0,0-.35A.16.16,0,0,0,69.26,63.59Z"/><path d="M50.15,64a1.59,1.59,0,0,1-.39-.07c0,.1,0,.2,0,.3a1.8,1.8,0,0,0,1.69,1.69H60L61.93,64Z"/><path d="M55.61,75.39a1.82,1.82,0,0,1-1.79.45,1.8,1.8,0,0,0,3.07,1.47l7.57-7.63V66.47Z"/><path class="cls-2" d="M94.54,60.36a1.79,1.79,0,0,0-1.79,1.79V73.93l-8.88-8.88a1.81,1.81,0,0,0-2.56,2.56l.76.76,8.16,8.09H78.45a1.73,1.73,0,0,0-1.26.54,1.71,1.71,0,0,0-.53,1.28A1.79,1.79,0,0,0,78,80a1.62,1.62,0,0,0,.49.08h16.1a2.2,2.2,0,0,0,.36,0L95,80l.2-.06a.83.83,0,0,0,.16-.09l.15-.07a1.9,1.9,0,0,0,.48-.5.64.64,0,0,0,.08-.14,1.19,1.19,0,0,0,.08-.16,1.59,1.59,0,0,0,.07-.2s0-.09,0-.14a2,2,0,0,0,0-.35V62.15A1.79,1.79,0,0,0,94.54,60.36Zm1.77-26.51a.65.65,0,0,0,0-.13,1.17,1.17,0,0,0-.06-.2.51.51,0,0,0-.09-.16.7.7,0,0,0-.09-.17,2,2,0,0,0-.5-.5l-.14,0-.16-.09L95,32.49l-.14,0a2.2,2.2,0,0,0-.36,0H78.45A1.79,1.79,0,0,0,78,35.92a1.62,1.62,0,0,0,.49.08H90.23l-8.88,8.88a1.8,1.8,0,0,0,0,2.56,1.75,1.75,0,0,0,.76.45,1.81,1.81,0,0,0,1.8-.45l8.85-8.9V50.31a1.8,1.8,0,0,0,3.06,1.27,1.81,1.81,0,0,0,.53-1.28V34.21A2.2,2.2,0,0,0,96.31,33.85ZM66.25,32.4H50.16a1.47,1.47,0,0,0-.36,0l-.13,0-.2.06-.16.08-.15.08a1.9,1.9,0,0,0-.49.49,1,1,0,0,0-.07.15.51.51,0,0,0-.09.16,1.52,1.52,0,0,0-.06.2.65.65,0,0,0,0,.13,2.2,2.2,0,0,0,0,.36V50.31A1.78,1.78,0,0,0,49.65,52a1.82,1.82,0,0,0,.51.09,1.81,1.81,0,0,0,1.8-1.8V38.54l8.87,8.87a1.8,1.8,0,0,0,2.56,0,1.83,1.83,0,0,0,0-2.56l-7-6.93L54.48,36H66.25a1.73,1.73,0,0,0,1.27-.53A1.77,1.77,0,0,0,68,34.4a1.49,1.49,0,0,0,0-.21A1.8,1.8,0,0,0,66.25,32.4Z"/><path class="cls-3" d="M68,61.81a.16.16,0,0,0,0-.14c0-.05,0-.14-.06-.2a.79.79,0,0,1-.08-.16,1.09,1.09,0,0,0-.08-.15,1.9,1.9,0,0,0-.49-.49l-.15-.08L67,60.5l-.2-.06-.14,0a1.39,1.39,0,0,0-.35,0H50.15a1.8,1.8,0,0,0-.39,3.52,1.59,1.59,0,0,0,.39.07H61.93L60,65.87l-7,7a1.8,1.8,0,0,0,0,2.56,1.89,1.89,0,0,0,.77.45,1.82,1.82,0,0,0,1.79-.45l8.85-8.92V78.25A1.81,1.81,0,0,0,65,79.53a1.84,1.84,0,0,0,.75.44,1.59,1.59,0,0,0,.53.08,1.79,1.79,0,0,0,1.79-1.79V62.16A2,2,0,0,0,68,61.81Z"/></g></g><g id="icons_50" data-name="icons 50"><g class="cls-4"><path d="M72.34,68.16A2.32,2.32,0,0,0,73,69.62l8.73,8.66h.82Z"/><path d="M90.17,60.66V80.55a2.12,2.12,0,0,1,0,.44.84.84,0,0,1-.05.17,1,1,0,0,1-.08.25.75.75,0,0,1-.1.2,1,1,0,0,1-.1.18,2.25,2.25,0,0,1-.61.62l-.18.1-.2.1-.25.08-.17,0a2.12,2.12,0,0,1-.44.05H67.82a2.12,2.12,0,0,1-.62-.1,1.1,1.1,0,0,0,0,.26,2.24,2.24,0,0,0,2.24,2.24H89.54a2.12,2.12,0,0,0,.44,0l.17,0L90.4,85a1.24,1.24,0,0,0,.2-.1l.18-.1a2.25,2.25,0,0,0,.61-.62,1,1,0,0,0,.1-.18.75.75,0,0,0,.1-.2,1,1,0,0,0,.08-.25.84.84,0,0,0,0-.17,2.12,2.12,0,0,0,0-.44V62.79A2.23,2.23,0,0,0,90.17,60.66Z"/><path d="M67.82,27.7a2.12,2.12,0,0,1-.62-.1,2.28,2.28,0,0,0,0,.26,2.24,2.24,0,0,0,2.24,2.24H80.14l2.4-2.4Z"/><path d="M91.74,27.42c0-.06,0-.12,0-.17a1.83,1.83,0,0,0-.08-.25.78.78,0,0,0-.11-.2,1.06,1.06,0,0,0-.11-.21,2.44,2.44,0,0,0-.62-.62l-.18-.07-.2-.11-.21-.07V45.58a2.22,2.22,0,0,1-2.88,2.15V48a2.24,2.24,0,1,0,4.48,0V27.87A2.28,2.28,0,0,0,91.74,27.42Z"/><path d="M74.63,42a2.24,2.24,0,0,1-2.24.56,2.25,2.25,0,0,0,3.84,1.84l9.47-9.52v-4Z"/><path d="M52.57,27.71H37.85l2.42,2.4h13.9a2.27,2.27,0,0,0,2.24-2.27,2.23,2.23,0,0,0-1.62-2.14A2.23,2.23,0,0,1,54.15,27,2.19,2.19,0,0,1,52.57,27.71Z"/><path d="M49,42a2.27,2.27,0,0,1-3.2,0L34.7,30.87V45.59a2.24,2.24,0,0,1-2.24,2.24,2.2,2.2,0,0,1-.64-.1V48a2.24,2.24,0,1,0,4.48,0V33.27l11.09,11.1a2.26,2.26,0,0,0,3.2-3.2l-1-.94A2.24,2.24,0,0,1,49,42Z"/><path d="M56.33,62.19c-.06-.06,0-.17-.07-.25a.51.51,0,0,1-.11-.2,1.14,1.14,0,0,0-.1-.19,2.12,2.12,0,0,0-.62-.61l-.18-.11-.2-.1-.23-.07V80.53a2.24,2.24,0,0,1-2.24,2.24,2.06,2.06,0,0,1-.65-.11v.25a2.24,2.24,0,0,0,2.25,2.26,2.24,2.24,0,0,0,2.24-2.24V62.8a2.18,2.18,0,0,0,0-.44A.22.22,0,0,0,56.33,62.19Z"/><path d="M32.44,62.64a1.93,1.93,0,0,1-.49-.09,1.62,1.62,0,0,0,0,.38A2.25,2.25,0,0,0,34,65H44.76l2.4-2.4Z"/><path d="M39.26,76.94A2.28,2.28,0,0,1,37,77.5a2.25,2.25,0,0,0,3.84,1.84l9.47-9.53v-4Z"/><path class="cls-2" d="M87.93,58.16a2.23,2.23,0,0,0-2.24,2.23V75.11L74.59,64a2.26,2.26,0,0,0-3.2,3.2l1,.94,10.2,10.12H67.82a2.22,2.22,0,0,0-1.59.67,2.18,2.18,0,0,0-.65,1.6,2.22,2.22,0,0,0,1.62,2.14,2.12,2.12,0,0,0,.62.1H87.94a2.12,2.12,0,0,0,.44-.05l.17,0,.25-.08.2-.1.18-.1a2.25,2.25,0,0,0,.61-.62,1,1,0,0,0,.1-.18.75.75,0,0,0,.1-.2,1,1,0,0,0,.08-.25.84.84,0,0,0,.05-.17,2.12,2.12,0,0,0,0-.44V60.39A2.23,2.23,0,0,0,87.93,58.16ZM90.14,25c0-.06,0-.12,0-.17A1.83,1.83,0,0,0,90,24.6a.78.78,0,0,0-.11-.2,1.06,1.06,0,0,0-.11-.21,2.44,2.44,0,0,0-.62-.62L89,23.5l-.2-.11-.24-.08-.17,0a1.73,1.73,0,0,0-.45-.05H67.82a2.23,2.23,0,0,0-.62,4.38,2.12,2.12,0,0,0,.62.1H82.54L71.43,38.8a2.27,2.27,0,0,0,0,3.2,2.19,2.19,0,0,0,1,.56A2.24,2.24,0,0,0,74.63,42L85.7,30.87V45.59a2.25,2.25,0,0,0,.66,1.59,2.2,2.2,0,0,0,.94.55,2.22,2.22,0,0,0,2.88-2.15V25.47A2.28,2.28,0,0,0,90.14,25ZM52.57,23.2H32.45a2.3,2.3,0,0,0-.45.05l-.17.05-.25.08-.2.1-.18.1a2.21,2.21,0,0,0-.61.61,1.11,1.11,0,0,0-.09.19.78.78,0,0,0-.11.2,1.83,1.83,0,0,0-.08.25c0,.05,0,.11,0,.16a2.28,2.28,0,0,0,0,.45V45.59a2.23,2.23,0,0,0,1.6,2.14,2.2,2.2,0,0,0,.64.1,2.24,2.24,0,0,0,2.24-2.24V30.87L45.79,42A2.27,2.27,0,0,0,49,42a2.28,2.28,0,0,0,0-3.2l-8.72-8.66-2.42-2.4H52.57A2.19,2.19,0,0,0,54.15,27a2.23,2.23,0,0,0,.64-1.34c0-.09,0-.17,0-.26A2.24,2.24,0,0,0,52.57,23.2Z"/><path class="cls-3" d="M54.78,60a.22.22,0,0,0-.05-.17c-.06-.06,0-.17-.07-.25a.51.51,0,0,1-.11-.2,1.14,1.14,0,0,0-.1-.19,2.12,2.12,0,0,0-.62-.61l-.18-.11-.2-.1-.25-.08-.18,0a2.12,2.12,0,0,0-.44-.05H32.44a2.25,2.25,0,0,0-.49,4.4,1.93,1.93,0,0,0,.49.09H47.16L44.76,65l-8.7,8.7a2.27,2.27,0,0,0,0,3.2,2.41,2.41,0,0,0,1,.56,2.28,2.28,0,0,0,2.24-.56L50.33,65.79V80.51a2.26,2.26,0,0,0,.65,1.6,2.18,2.18,0,0,0,1,.55,2.06,2.06,0,0,0,.65.11,2.24,2.24,0,0,0,2.24-2.24V60.4A2.18,2.18,0,0,0,54.78,60Z"/></g></g><g id="Layer_5" data-name="Layer 5"><path d="M59.18,67.65A2.75,2.75,0,0,0,60,69.47L70.9,80.3h1Z"/><path d="M81.46,58.28V83.13a2.6,2.6,0,0,1-.06.56l-.06.21a1.6,1.6,0,0,1-.1.31,1,1,0,0,1-.13.25,1,1,0,0,1-.12.23,2.66,2.66,0,0,1-.76.77l-.23.12a1.19,1.19,0,0,1-.25.13l-.31.1a.83.83,0,0,1-.21.06,2.6,2.6,0,0,1-.56.06H53.52a2.76,2.76,0,0,1-.77-.12c0,.11,0,.22,0,.32a2.8,2.8,0,0,0,2.8,2.8H80.67a2.6,2.6,0,0,0,.56-.06.83.83,0,0,0,.21-.06l.31-.1a1.19,1.19,0,0,0,.25-.13l.23-.12a2.66,2.66,0,0,0,.76-.77,1,1,0,0,0,.12-.23,1,1,0,0,0,.13-.25,1.6,1.6,0,0,0,.1-.31l.06-.21a2.6,2.6,0,0,0,.06-.56V60.94A2.78,2.78,0,0,0,81.46,58.28Z"/><path d="M53.52,17.07a2.82,2.82,0,0,1-.77-.12c0,.11,0,.22,0,.33a2.79,2.79,0,0,0,2.8,2.79h13.4l3-3Z"/><path d="M83.42,16.72l-.06-.21a1.86,1.86,0,0,0-.1-.31,1.49,1.49,0,0,0-.13-.25c0-.09-.09-.17-.14-.26a3,3,0,0,0-.78-.78L82,14.82l-.25-.13-.26-.08V39.42a2.79,2.79,0,0,1-3.6,2.69v.33a2.76,2.76,0,0,0,.82,2,2.8,2.8,0,0,0,4.78-2V17.28A2.74,2.74,0,0,0,83.42,16.72Z"/><path d="M62,35a2.8,2.8,0,0,1-2.8.7A2.79,2.79,0,0,0,60,38a2.82,2.82,0,0,0,4,0l11.84-11.9V21Z"/><path d="M34.46,17.08H16.06l3,3H36.46a2.69,2.69,0,0,0,2-.83,2.8,2.8,0,0,0-1.21-4.67,2.79,2.79,0,0,1-2.77,2.5Z"/><path d="M30,34.91a2.82,2.82,0,0,1-4,0L12.12,21v18.4a2.8,2.8,0,0,1-2.8,2.8,2.68,2.68,0,0,1-.8-.13v.33a2.8,2.8,0,0,0,5.6,0V24L28,37.91a2.83,2.83,0,0,0,4-4L30.8,32.73A2.78,2.78,0,0,1,30,34.91Z"/><path d="M39.16,60.18c-.07-.07,0-.21-.09-.31a.75.75,0,0,1-.13-.25,1.71,1.71,0,0,0-.13-.23,2.82,2.82,0,0,0-.77-.77l-.23-.13-.25-.13-.28-.09V83.11a2.78,2.78,0,0,1-3.62,2.67v.31a2.82,2.82,0,0,0,.82,2,2.81,2.81,0,0,0,4.8-2V61a3.51,3.51,0,0,0-.05-.55A.27.27,0,0,0,39.16,60.18Z"/><path d="M9.3,60.75a2.6,2.6,0,0,1-.62-.11,2.54,2.54,0,0,0,0,.48,2.81,2.81,0,0,0,2.64,2.63H24.7l3-3Z"/><path d="M17.83,78.62a2.8,2.8,0,0,1-2.8.7,2.79,2.79,0,0,0,.8,2.3,2.82,2.82,0,0,0,4,0L31.66,69.71v-5Z"/><path class="cls-2" d="M78.66,55.15a2.79,2.79,0,0,0-2.8,2.79v18.4L62,62.47a2.83,2.83,0,0,0-4,4l1.19,1.18L71.92,80.3H53.52a2.82,2.82,0,0,0,0,5.63H78.67a2.6,2.6,0,0,0,.56-.06.83.83,0,0,0,.21-.06l.31-.1a1.19,1.19,0,0,0,.25-.13l.23-.12a2.66,2.66,0,0,0,.76-.77,1,1,0,0,0,.12-.23,1,1,0,0,0,.13-.25,1.6,1.6,0,0,0,.1-.31l.06-.21a2.6,2.6,0,0,0,.06-.56V57.94A2.79,2.79,0,0,0,78.66,55.15Zm2.76-41.43-.06-.21a1.86,1.86,0,0,0-.1-.31,1.49,1.49,0,0,0-.13-.25c0-.09-.09-.17-.14-.26a3,3,0,0,0-.78-.78L80,11.82l-.25-.13-.3-.1-.22-.06a2.6,2.6,0,0,0-.56-.06H53.52a2.8,2.8,0,0,0,0,5.6h18.4L58,31a2.84,2.84,0,0,0,0,4,2.86,2.86,0,0,0,4,0L75.88,21v18.4a2.76,2.76,0,0,0,.82,2,2.69,2.69,0,0,0,1.18.69,2.79,2.79,0,0,0,3.6-2.69V14.28A2.74,2.74,0,0,0,81.42,13.72Zm-47-2.27H9.31a2.6,2.6,0,0,0-.56.06l-.21.06-.31.1L8,11.8l-.23.12a2.93,2.93,0,0,0-.76.77,1.27,1.27,0,0,0-.12.23,1.49,1.49,0,0,0-.13.25,1.86,1.86,0,0,0-.1.31l-.06.21a2.74,2.74,0,0,0-.06.56V39.44a2.79,2.79,0,0,0,2,2.67,2.68,2.68,0,0,0,.8.13,2.8,2.8,0,0,0,2.8-2.8V21L26,34.91a2.82,2.82,0,0,0,4,0,2.86,2.86,0,0,0,0-4L19.08,20.08l-3-3h18.4a2.79,2.79,0,0,0,2.77-2.5c0-.11,0-.22,0-.33A2.8,2.8,0,0,0,34.46,11.45Z"/><path class="cls-3" d="M37.23,57.4a.27.27,0,0,0-.07-.22c-.07-.07,0-.21-.09-.31a.75.75,0,0,1-.13-.25,1.71,1.71,0,0,0-.13-.23,2.82,2.82,0,0,0-.77-.77l-.23-.13-.25-.13-.31-.1L35,55.2a2.57,2.57,0,0,0-.55-.06H9.3a2.81,2.81,0,0,0-.62,5.5,2.6,2.6,0,0,0,.62.11H27.7l-3,3L13.83,74.62a2.84,2.84,0,0,0,0,4,2.86,2.86,0,0,0,4,0L31.66,64.69v18.4a2.82,2.82,0,0,0,.82,2,2.77,2.77,0,0,0,1.18.69,2.78,2.78,0,0,0,3.62-2.67V58A3.51,3.51,0,0,0,37.23,57.4Z"/></g></svg>