<svg xmlns="http://www.w3.org/2000/svg" viewBox="0 0 100 100"><defs><style>.cls-1{opacity:0.25;}.cls-2{fill:#ffa627;}.cls-3{opacity:0.5;}</style></defs><g id="Layer_25" data-name="Layer 25"><g class="cls-1"><path class="cls-2" d="M83.93,57a11.38,11.38,0,0,0-11.06-9,11.19,11.19,0,0,0-2.38.25A11.33,11.33,0,0,0,62,56.14h7.1v6l5,8.46c.36-.05.73-.1,1.1-.18A11.33,11.33,0,0,0,83.93,57ZM64,70.83l.83-1.39.83-1.39.29-.5V59.34H47.82V77.42H60Zm7.38,1.36-1.07-1.81L69.1,68.43h0l-.77,1.3-.83,1.39h0l-.82,1.38-.78,1.32-2.13,3.59-1,1.6-1,1.6L58.7,86H79.5L72.33,73.87Z"/><path d="M75.88,73.57A14.52,14.52,0,1,0,58.69,56.14H44.62V80.62H58.15l-5.07,8.54h32L75.87,73.57ZM58.7,86l3.17-5.34,1-1.6,1-1.6,2.13-3.59.78-1.32.82-1.38h0l.83-1.39.77-1.3h0l1.16,1.95,1.07,1.81,1,1.68L79.5,86ZM47.82,59.34H65.9v8.21l-.29.5-.83,1.39L64,70.83,60,77.42H47.82ZM69.1,62.16v-6H62a11.33,11.33,0,0,1,8.49-7.85A11.19,11.19,0,0,1,72.87,48a11.38,11.38,0,0,1,11.06,9,11.33,11.33,0,0,1-8.71,13.44c-.37.08-.74.13-1.1.18Z"/></g></g><g id="icons_50" data-name="icons 50"><g class="cls-3"><path class="cls-2" d="M81.41,46.5A14.15,14.15,0,0,0,54,45.43h8.88V53l6.27,10.57a13,13,0,0,0,1.37-.22A14.16,14.16,0,0,0,81.41,46.5Zm-25,17.29,1-1.74,1-1.74.37-.62V49.43H36.28V72H51.56Zm9.22,1.7-1.34-2.27-1.44-2.43h0l-1,1.63-1,1.73h0l-1,1.72-1,1.65L56.21,72,55,74l-1.19,2L49.88,82.7h26l-9-15.11Z"/><path d="M71.35,67.21A18.15,18.15,0,1,0,49.86,45.43H32.28V76h16.9L42.85,86.7H82.9L71.34,67.21ZM49.88,82.7,53.83,76,55,74l1.19-2,2.67-4.5,1-1.65,1-1.72h0l1-1.73,1-1.63h0l1.44,2.43,1.34,2.27,1.25,2.1,9,15.11ZM36.28,49.43h22.6V59.69l-.37.62-1,1.74-1,1.74L51.56,72H36.28ZM62.88,53V45.43H54A14.15,14.15,0,1,1,70.52,63.3a13,13,0,0,1-1.37.22Z"/></g></g><g id="icons"><path class="cls-2" d="M78,34.38a17.77,17.77,0,0,0-17.28-14,17.2,17.2,0,0,0-3.71.4A17.68,17.68,0,0,0,43.75,33H54.84v9.4l7.84,13.21c.58-.07,1.15-.15,1.72-.27A17.7,17.7,0,0,0,78,34.38ZM46.8,56l1.3-2.18,1.29-2.18.45-.77V38H21.59V66.29H40.7Zm11.53,2.12-1.68-2.83-1.81-3h0l-1.2,2-1.29,2.17h0L51.07,58.6l-1.23,2.06-3.33,5.63L45,68.79l-1.49,2.5-4.95,8.34h32.5l-11.2-18.9Z"/><path d="M65.44,60.26A22.69,22.69,0,1,0,38.58,33h-22V71.29H37.73L29.81,84.63H79.87L65.42,60.27ZM38.59,79.63l4.95-8.34L45,68.79l1.48-2.5,3.33-5.63,1.23-2.06,1.27-2.15h0l1.29-2.17,1.2-2h0l1.81,3,1.68,2.83,1.56,2.62,11.2,18.9ZM21.59,38H49.84V50.86l-.45.77L48.1,53.81,46.8,56l-6.1,10.3H21.59Zm33.25,4.4V33H43.75A17.68,17.68,0,0,1,57,20.77a17.2,17.2,0,0,1,3.71-.4A17.77,17.77,0,0,1,78,34.38a17.7,17.7,0,0,1-13.61,21c-.57.12-1.14.2-1.72.27Z"/></g></svg>