<svg id="icons" xmlns="http://www.w3.org/2000/svg" viewBox="0 0 200 100"><defs><style>.cls-1{fill:none;stroke:#000;stroke-miterlimit:10;stroke-width:5px;opacity:0.5;}.cls-2{fill:#cb2600;}.cls-3{fill:#67a900;}.cls-4{fill:#b3b3b3;}</style></defs><circle cx="42.28" cy="50.03" r="29.75"/><line class="cls-1" x1="46.38" y1="52.08" x2="155.63" y2="52.08"/><path d="M96.13,67.18v-.05a3.45,3.45,0,0,1-3,1.93A3.27,3.27,0,0,1,89.93,66a3.44,3.44,0,0,1,.47-1.59l8.12-13L91.05,39.66a3.86,3.86,0,0,1-.37-1.6,3.19,3.19,0,0,1,3.15-3,3.92,3.92,0,0,1,3.23,2.16L102.37,46l5.31-8.74A4.15,4.15,0,0,1,111,35.1a3.11,3.11,0,0,1,3.1,3,4,4,0,0,1-.42,1.55l-7.42,11.79,8.13,13a3.56,3.56,0,0,1,.46,1.59,3.29,3.29,0,0,1-3.14,3.06,3.45,3.45,0,0,1-3-1.88l-6.25-10.33Z"/><path class="cls-2" d="M94.76,65.13v0a3.43,3.43,0,0,1-3,1.93A3.28,3.28,0,0,1,88.56,64,3.57,3.57,0,0,1,89,62.36l8.13-13L89.69,37.61a3.72,3.72,0,0,1-.38-1.6,3.18,3.18,0,0,1,3.15-2.95,3.93,3.93,0,0,1,3.24,2.16L101,44l5.3-8.73a4.15,4.15,0,0,1,3.29-2.16,3.11,3.11,0,0,1,3.1,3,4,4,0,0,1-.43,1.55L104.86,49.4l8.12,13a3.57,3.57,0,0,1,.47,1.59A3.3,3.3,0,0,1,110.3,67a3.47,3.47,0,0,1-3-1.88L101,54.8Z"/><path d="M40.32,66V55.67L32.05,39.52a3.9,3.9,0,0,1-.28-1.36A3.33,3.33,0,0,1,35.1,35.1a3.07,3.07,0,0,1,2.68,1.41l5.87,11.65,5.82-11.65A3.1,3.1,0,0,1,52.2,35.1a3.33,3.33,0,0,1,3.33,3.06,4.82,4.82,0,0,1-.33,1.36L47,55.67V66a3.24,3.24,0,0,1-3.33,3.1A3.21,3.21,0,0,1,40.32,66Z"/><path class="cls-3" d="M39,63.91V53.62L30.68,37.47a3.9,3.9,0,0,1-.28-1.36,3.32,3.32,0,0,1,3.33-3,3.05,3.05,0,0,1,2.68,1.4l5.87,11.65L48.1,34.46a3.1,3.1,0,0,1,2.73-1.4,3.32,3.32,0,0,1,3.33,3,4.5,4.5,0,0,1-.33,1.36L45.61,53.62V63.91A3.24,3.24,0,0,1,42.28,67,3.21,3.21,0,0,1,39,63.91Z"/><path d="M165.1,68.63H149a3.26,3.26,0,0,1-3.38-3.19,6,6,0,0,1,.65-2.07c4.61-7.6,8.65-14.08,13.29-21.78H148.94a3.09,3.09,0,0,1-3.24-3,3.15,3.15,0,0,1,3.24-3h15.92a3.25,3.25,0,0,1,3.43,3.14,3.65,3.65,0,0,1-.66,2L154.25,62.57H165.1a3,3,0,1,1,0,6.06Z"/><path class="cls-4" d="M163.73,66.58H147.62a3.27,3.27,0,0,1-3.38-3.19,6.06,6.06,0,0,1,.66-2.07c4.6-7.6,8.64-14.08,13.29-21.78H147.57a3.08,3.08,0,0,1-3.23-3,3.14,3.14,0,0,1,3.23-3.05H163.5a3.24,3.24,0,0,1,3.42,3.14,3.65,3.65,0,0,1-.66,2L152.88,60.53h10.85a3,3,0,1,1,0,6Z"/></svg>