<svg xmlns="http://www.w3.org/2000/svg" viewBox="0 0 100 100">
    <defs>
        <style>.cls-1{opacity:0.5;}.cls-2{fill:#fff;}.cls-3{fill:#4d8dfc;}.cls-4{opacity:0.7;}</style>
    </defs>
    <g id="Layer_25" data-name="Layer 25">
        <g class="cls-1">
            <path class="cls-2"
                  d="M77.21,56.82a5.47,5.47,0,0,0-5.33-4.32,5.69,5.69,0,0,0-1.15.12,5.46,5.46,0,0,0-4.23,6.27l-1.31,1.34L64,61.49,58.8,66.8l-1.22,1.25-1.31,1.34a6.83,6.83,0,0,0-.79-.06,5.67,5.67,0,0,0-1.14.12,5.46,5.46,0,0,0,2.28,10.68,5.36,5.36,0,0,0,3.44-2.37,5.42,5.42,0,0,0,.8-3.9l1.3-1.34,1.23-1.26L68.55,66l1.23-1.25,1.3-1.34a5.44,5.44,0,0,0,5.37-2.43A5.37,5.37,0,0,0,77.21,56.82Z"/>
            <path class="cls-2" d="M84.84,45.71a5.46,5.46,0,1,0,3-10.05,5,5,0,0,0-1.15.13,5.46,5.46,0,0,0-1.83,9.92Z"/>
            <path class="cls-3"
                  d="M87.81,69.33a5.52,5.52,0,0,0-1.14.12,5.44,5.44,0,0,0-3.44,2.37,5.46,5.46,0,1,0,9.16,5.94,5.46,5.46,0,0,0-4.58-8.43Z"/>
            <path class="cls-3"
                  d="M52.51,45.71a5.46,5.46,0,0,0,5.94-9.17,5.4,5.4,0,0,0-3-.88,5.07,5.07,0,0,0-1.15.13,5.41,5.41,0,0,0-3.44,2.36,5.47,5.47,0,0,0,1.61,7.56Z"/>
            <path d="M83.1,48.39a8.61,8.61,0,0,0,4.69,1.4,9.48,9.48,0,0,0,1.83-.19,8.68,8.68,0,1,0-6.52-1.21Zm.13-10.24a5.39,5.39,0,0,1,3.44-2.36,5,5,0,0,1,1.15-.13,5.47,5.47,0,1,1-5.35,6.6A5.38,5.38,0,0,1,83.23,38.15Zm-2.89,18A8.66,8.66,0,0,0,63.4,59.77,8.47,8.47,0,0,0,64,61.49l1.22-1.26,1.31-1.34a5.46,5.46,0,0,1,4.23-6.27,5.69,5.69,0,0,1,1.15-.12,5.46,5.46,0,1,1-.8,10.86l-1.3,1.34L68.55,66a8.54,8.54,0,0,0,3.3.67,8.75,8.75,0,0,0,1.83-.19,8.66,8.66,0,0,0,6.66-10.28Zm-17,15.11-1.23,1.26-1.3,1.34a5.42,5.42,0,0,1-.8,3.9,5.36,5.36,0,0,1-3.44,2.37,5.46,5.46,0,0,1-2.28-10.68,5.67,5.67,0,0,1,1.14-.12,6.83,6.83,0,0,1,.79.06l1.31-1.34L58.8,66.8A8.66,8.66,0,1,0,64,73,9,9,0,0,0,63.39,71.26ZM96.28,73a8.7,8.7,0,1,0-6.66,10.27A8.65,8.65,0,0,0,96.28,73Zm-3.89,4.77a5.46,5.46,0,1,1-5.72-8.31,5.46,5.46,0,0,1,6.48,4.2A5.45,5.45,0,0,1,92.39,77.76Zm-36.91-28a9.35,9.35,0,0,0,1.81-.19,8.66,8.66,0,0,0,2.9-15.74A8.66,8.66,0,0,0,47,42.93,8.68,8.68,0,0,0,55.48,49.79ZM50.9,38.15a5.41,5.41,0,0,1,3.44-2.36,5.07,5.07,0,0,1,1.15-.13A5.46,5.46,0,0,1,60.82,40a5.46,5.46,0,1,1-9.92-1.84Z"/>
        </g>
    </g>
    <g id="icons_50" data-name="icons 50">
        <g class="cls-4">
            <path class="cls-2"
                  d="M66.6,53.53a6.83,6.83,0,0,0-6.66-5.4,7,7,0,0,0-1.43.15,6.83,6.83,0,0,0-5.3,7.84L51.58,57.8l-1.53,1.57L43.59,66l-1.53,1.57-1.63,1.67a6.5,6.5,0,0,0-1-.07,6.29,6.29,0,0,0-1.42.15,6.83,6.83,0,1,0,7.15,10.38,6.75,6.75,0,0,0,1-4.87l1.63-1.68,1.53-1.57L55.78,65l1.53-1.57,1.63-1.67a6.82,6.82,0,0,0,7.66-8.18Z"/>
            <path class="cls-2"
                  d="M76.14,39.64a6.82,6.82,0,1,0,3.72-12.55,7,7,0,0,0-1.44.15,6.82,6.82,0,0,0-2.28,12.4Z"/>
            <path class="cls-3" d="M79.85,69.18a6.38,6.38,0,0,0-1.43.15,6.83,6.83,0,1,0,1.43-.15Z"/>
            <path class="cls-3"
                  d="M35.73,39.64a6.75,6.75,0,0,0,5.14,1,6.82,6.82,0,0,0,2.28-12.4,6.7,6.7,0,0,0-3.69-1.1,7,7,0,0,0-1.44.15,6.82,6.82,0,0,0-2.29,12.4Z"/>
            <path d="M74,43a10.75,10.75,0,0,0,5.87,1.75,10.48,10.48,0,0,0,2.28-.25,10.82,10.82,0,1,0-4.52-21.17A10.82,10.82,0,0,0,74,43Zm.16-12.8a6.77,6.77,0,0,1,4.3-3,7,7,0,0,1,1.44-.15,6.82,6.82,0,1,1-6.69,8.25A6.8,6.8,0,0,1,74.12,30.2Zm-3.6,22.5a10.83,10.83,0,0,0-21.18,4.52,10.43,10.43,0,0,0,.71,2.15l1.53-1.57,1.63-1.68a6.83,6.83,0,0,1,5.3-7.84,7,7,0,0,1,1.43-.15,6.83,6.83,0,1,1-1,13.58l-1.63,1.67L55.78,65a10.66,10.66,0,0,0,4.13.84,11.11,11.11,0,0,0,2.28-.24A10.84,10.84,0,0,0,70.52,52.7ZM49.32,71.59l-1.53,1.57-1.63,1.68a6.82,6.82,0,0,1-5.29,7.84A6.83,6.83,0,0,1,38,69.33a6.29,6.29,0,0,1,1.42-.15,6.5,6.5,0,0,1,1,.07l1.63-1.67L43.59,66a10.82,10.82,0,1,0-4.15,20.82,11,11,0,0,0,2.26-.24A10.82,10.82,0,0,0,50,73.74,10.43,10.43,0,0,0,49.32,71.59Zm41.12,2.15A10.83,10.83,0,1,0,74,85.09a10.74,10.74,0,0,0,5.87,1.74,11.11,11.11,0,0,0,2.28-.24,10.84,10.84,0,0,0,8.33-12.85Zm-4.86,6a6.83,6.83,0,1,1-7.16-10.38,6.38,6.38,0,0,1,1.43-.15,6.83,6.83,0,0,1,5.73,10.53Zm-46.14-35a10.34,10.34,0,0,0,2.26-.24,10.82,10.82,0,1,0-2.26.24ZM33.71,30.2a6.79,6.79,0,0,1,4.31-3,7,7,0,0,1,1.44-.15,6.7,6.7,0,0,1,3.69,1.1,6.82,6.82,0,1,1-9.44,2Z"/>
        </g>
    </g>
    <g id="Layer_5" data-name="Layer 5">
        <path class="cls-2"
              d="M52.34,49.18A8.54,8.54,0,0,0,44,42.42a9.17,9.17,0,0,0-1.8.19,8.54,8.54,0,0,0-6.62,9.8l-2,2.1-1.91,2-8.08,8.29-1.91,2-2,2.1a8.52,8.52,0,0,0-1.24-.1,8.35,8.35,0,0,0-1.78.19,8.53,8.53,0,1,0,10.18,6.89l2-2.1,1.91-2,8.08-8.29,1.91-2,2-2.09a8.55,8.55,0,0,0,8.4-3.8A8.45,8.45,0,0,0,52.34,49.18Z"/>
        <path class="cls-2" d="M64.26,31.82a8.55,8.55,0,1,0-3.7-5.38A8.45,8.45,0,0,0,64.26,31.82Z"/>
        <path class="cls-3" d="M68.9,68.73a8.35,8.35,0,0,0-1.78.19,8.52,8.52,0,1,0,1.78-.19Z"/>
        <path class="cls-3" d="M13.75,31.82a8.55,8.55,0,1,0-3.7-5.38A8.45,8.45,0,0,0,13.75,31.82Z"/>
        <path d="M61.54,36a13.42,13.42,0,0,0,7.33,2.18,13.8,13.8,0,0,0,2.85-.3A13.53,13.53,0,1,0,61.54,36Zm.2-16a8.55,8.55,0,1,1-1.18,6.43A8.5,8.5,0,0,1,61.74,20ZM57.23,48.14a13.53,13.53,0,1,0-26.46,5.64,13.76,13.76,0,0,0,.88,2.7l1.91-2,2-2.1a8.54,8.54,0,0,1,6.62-9.8,9.17,9.17,0,0,1,1.8-.19A8.53,8.53,0,0,1,45.78,59.3a8.54,8.54,0,0,1-3,.1l-2,2.09-1.91,2a13.41,13.41,0,0,0,8,.74,13.53,13.53,0,0,0,10.41-16ZM30.74,71.74l-1.91,2-2,2.1a8.53,8.53,0,0,1-6.62,9.8,8.53,8.53,0,0,1-3.56-16.69,8.35,8.35,0,0,1,1.78-.19,8.52,8.52,0,0,1,1.24.1l2-2.1,1.91-2a13.4,13.4,0,0,0-8-.74A13.53,13.53,0,1,0,31.63,74.44,14,14,0,0,0,30.74,71.74Zm51.39,2.7A13.53,13.53,0,1,0,68.87,90.8a13.8,13.8,0,0,0,2.85-.3A13.54,13.54,0,0,0,82.13,74.44ZM76.06,81.9a8.53,8.53,0,1,1-8.94-13,8.35,8.35,0,0,1,1.78-.19,8.54,8.54,0,0,1,8.34,6.75A8.45,8.45,0,0,1,76.06,81.9ZM18.39,38.19a13.53,13.53,0,1,0-2.82-26.77,13.53,13.53,0,0,0,2.82,26.77ZM11.23,20a8.55,8.55,0,1,1-1.18,6.43A8.5,8.5,0,0,1,11.23,20Z"/>
    </g>
</svg>