<svg id="icons" xmlns="http://www.w3.org/2000/svg" viewBox="0 0 100 100">
    <defs>
        <style>.cls-1{fill:#ffa627;}</style>
    </defs>
    <path d="M84.06,19.92h-60a5.94,5.94,0,0,0-4.49,9.82l25.81,29.9v19a8.46,8.46,0,1,0,16.91,0V60.17L88.56,29.74A5.94,5.94,0,0,0,84.06,19.92Z"/>
    <path class="cls-1"
          d="M81.91,16.92h-60a5.94,5.94,0,0,0-4.5,9.82l25.81,29.9v19H60.14V57.17L86.4,26.74A5.94,5.94,0,0,0,81.91,16.92Z"/>
    <circle class="cls-1" cx="51.68" cy="75.59" r="8.46"/>
    <path d="M66.53,37.33a7,7,0,1,1,7-7A7,7,0,0,1,66.53,37.33Z"/>
    <path class="cls-1"
          d="M66.53,24.91a5.46,5.46,0,1,1-5.45,5.46,5.47,5.47,0,0,1,5.45-5.46m0-3A8.46,8.46,0,1,0,75,30.37a8.45,8.45,0,0,0-8.46-8.46Z"/>
    <path d="M52,37.33a7,7,0,1,1,7-7A7,7,0,0,1,52,37.33Z"/>
    <path class="cls-1"
          d="M52,24.91a5.46,5.46,0,1,1-5.46,5.46A5.47,5.47,0,0,1,52,24.91m0-3a8.46,8.46,0,1,0,8.46,8.46A8.46,8.46,0,0,0,52,21.91Z"/>
    <path d="M37.28,37.33a7,7,0,1,1,7-7A7,7,0,0,1,37.28,37.33Z"/>
    <path class="cls-1"
          d="M37.28,24.91a5.46,5.46,0,1,1-5.45,5.46,5.47,5.47,0,0,1,5.45-5.46m0-3a8.46,8.46,0,1,0,8.46,8.46,8.45,8.45,0,0,0-8.46-8.46Z"/>
</svg>