<?xml version="1.0" encoding="UTF-8"?>
<svg id="icons" xmlns="http://www.w3.org/2000/svg" viewBox="0 0 100 100">
    <defs>
        <style>
            .cls-1 {
            fill: #fff;
            }
        </style>
    </defs>
    <g>
        <polyline points="69.66 57.6 83.36 65.59 50.62 84.7 17.87 65.59 31.57 57.6"/>
        <path class="cls-1"
              d="M50.62,87.2c-.44,0-.87-.11-1.26-.34l-32.74-19.11c-.77-.45-1.24-1.27-1.24-2.16s.47-1.71,1.24-2.16l13.69-7.99,2.52,4.32-9.99,5.83,27.78,16.21,27.78-16.21-9.99-5.83,2.52-4.32,13.69,7.99c.77.45,1.24,1.27,1.24,2.16s-.47,1.71-1.24,2.16l-32.74,19.11c-.39.23-.82.34-1.26.34Z"/>
    </g>
    <g>
        <polyline class="cls-1" points="69.65 41.28 83.36 49.28 50.62 68.39 17.87 49.28 32.23 40.91"/>
        <path d="M50.62,70.89c-.44,0-.87-.11-1.26-.34l-32.74-19.11c-.77-.45-1.24-1.27-1.24-2.16s.47-1.71,1.24-2.16l14.35-8.38,2.52,4.32-10.65,6.22,27.78,16.21,27.78-16.21-10.01-5.84,2.52-4.32,13.71,8c.77.45,1.24,1.27,1.24,2.16s-.47,1.71-1.24,2.16l-32.74,19.11c-.39.23-.82.34-1.26.34Z"/>
    </g>
    <g>
        <polygon class="cls-1" points="50.62 52.13 17.87 33.02 50.62 13.91 83.36 33.02 50.62 52.13"/>
        <path d="M50.62,54.63c-.44,0-.87-.11-1.26-.34l-32.74-19.11c-.77-.45-1.24-1.27-1.24-2.16s.47-1.71,1.24-2.16L49.36,11.75c.78-.46,1.74-.46,2.52,0l32.74,19.11c.77.45,1.24,1.27,1.24,2.16s-.47,1.71-1.24,2.16l-32.74,19.11c-.39.23-.82.34-1.26.34ZM22.84,33.02l27.78,16.21,27.78-16.21-27.78-16.22-27.78,16.22Z"/>
    </g>
</svg>