<?xml version="1.0" encoding="UTF-8"?>
<svg id="icons" xmlns="http://www.w3.org/2000/svg" viewBox="0 0 100 100">
    <defs>
        <style>
            .cls-1 {
            fill: #fff;
            }

            .cls-2 {
            fill: #4d8dfc;
            }
        </style>
    </defs>
    <path d="M20.01,40.8c-.6.6-1.43.83-2.2.69-.18.81.04,1.68.67,2.31.98.98,2.56.98,3.54,0l9.61-9.61v-5l-11.61,11.61Z"/>
    <path d="M70.38,66.1V26.15c0-1.21-.86-2.22-2-2.45v44.4l2-2Z"/>
    <path d="M52,44.53c.64,0,1.28-.24,1.77-.73.98-.98.98-2.56,0-3.54l-1.27-1.27c.01.65-.23,1.31-.73,1.81-.49.49-1.13.73-1.77.73s-1.28-.24-1.77-.73l-11.61-11.61v44.95c0,1.38-1.12,2.5-2.5,2.5-.17,0-.34-.02-.5-.05v.55c0,1.38,1.12,2.5,2.5,2.5s2.5-1.12,2.5-2.5v-44.95l11.61,11.61c.49.49,1.13.73,1.77.73Z"/>
    <path d="M85.52,59.49c-.38-.38-.84-.6-1.33-.69-.1.45-.32.88-.67,1.23l-15.88,15.88c-.12.12-.25.22-.38.31-.06.04-.12.06-.18.1-.08.05-.16.1-.25.13-.08.03-.16.05-.25.08-.07.02-.14.05-.22.07-.16.03-.33.05-.49.05s-.33-.02-.49-.05c-.08-.02-.15-.04-.22-.07-.08-.02-.17-.04-.25-.08-.09-.04-.17-.09-.25-.13-.06-.03-.12-.06-.18-.1-.14-.09-.27-.2-.38-.31l-14.6-14.6c0,.63.25,1.25.73,1.73l15.88,15.88c.12.12.25.22.38.31.06.04.12.06.18.1.08.05.16.1.25.13.08.03.16.05.25.08.07.02.14.05.22.07.16.03.33.05.49.05s.33-.02.49-.05c.08-.02.15-.04.22-.07.08-.02.17-.04.25-.08.09-.04.17-.09.25-.13.06-.03.12-.06.18-.1.14-.09.27-.2.38-.31l15.88-15.88c.98-.98.98-2.56,0-3.54Z"/>
    <path class="cls-1"
          d="M51.77,37.26l-15.88-15.87c-.12-.12-.25-.22-.38-.31-.06-.04-.12-.06-.18-.1-.08-.05-.16-.1-.25-.13-.08-.03-.16-.05-.24-.08-.07-.02-.15-.05-.22-.07-.32-.06-.66-.06-.98,0-.08.02-.15.04-.22.07-.08.02-.17.04-.24.08-.09.04-.17.09-.25.13-.06.03-.12.06-.18.1-.14.09-.27.2-.38.31l-15.88,15.87c-.98.98-.98,2.56,0,3.54.38.38.84.6,1.33.69.78.14,1.6-.09,2.2-.69l11.61-11.61v44.95c0,1.21.86,2.22,2,2.45.16.03.33.05.5.05,1.38,0,2.5-1.12,2.5-2.5V29.19l11.61,11.61c.49.49,1.13.73,1.77.73s1.28-.24,1.77-.73c.5-.5.74-1.15.73-1.81,0-.63-.25-1.25-.73-1.73Z"/>
    <path class="cls-2"
          d="M83.52,56.49c-.98-.98-2.56-.98-3.54,0l-11.61,11.61V23.15c0-1.38-1.12-2.5-2.5-2.5s-2.5,1.12-2.5,2.5v44.95l-11.61-11.61c-.98-.98-2.56-.98-3.54,0s-.98,2.56,0,3.54l1.27,1.27,14.6,14.6c.12.12.25.22.38.31.06.04.12.06.18.1.08.05.16.1.25.13.08.03.16.05.25.08.07.02.14.05.22.07.16.03.33.05.49.05s.33-.02.49-.05c.08-.02.15-.04.22-.07.08-.02.17-.04.25-.08.09-.04.17-.09.25-.13.06-.03.12-.06.18-.1.14-.09.27-.2.38-.31l15.88-15.88c.35-.35.57-.78.67-1.23.18-.81-.04-1.68-.67-2.31Z"/>
</svg>