<svg id="icons" xmlns="http://www.w3.org/2000/svg" viewBox="0 0 100 100"><defs><style>.cls-1{fill:#4d8dfc;}</style></defs><rect x="20.58" y="33.07" width="58.85" height="33.86"/><path class="cls-1" d="M79.42,68.43h-3a1.5,1.5,0,0,1,0-3h1.5v-1.5a1.5,1.5,0,1,1,3,0v3A1.5,1.5,0,0,1,79.42,68.43Z"/><path class="cls-1" d="M52.94,68.43H47.06a1.5,1.5,0,0,1,0-3h5.88a1.5,1.5,0,0,1,0,3Z"/><path class="cls-1" d="M23.58,68.43h-3a1.5,1.5,0,0,1-1.5-1.5v-3a1.5,1.5,0,1,1,3,0v1.5h1.5a1.5,1.5,0,0,1,0,3Z"/><path class="cls-1" d="M20.58,53.05a1.5,1.5,0,0,1-1.5-1.5v-3.1a1.5,1.5,0,0,1,3,0v3.1A1.5,1.5,0,0,1,20.58,53.05Z"/><path class="cls-1" d="M20.58,37.57a1.5,1.5,0,0,1-1.5-1.5v-3a1.5,1.5,0,0,1,1.5-1.5h3a1.5,1.5,0,0,1,0,3h-1.5v1.5A1.5,1.5,0,0,1,20.58,37.57Z"/><path class="cls-1" d="M52.94,34.57H47.06a1.5,1.5,0,0,1,0-3h5.88a1.5,1.5,0,0,1,0,3Z"/><path class="cls-1" d="M79.42,37.57a1.5,1.5,0,0,1-1.5-1.5v-1.5h-1.5a1.5,1.5,0,0,1,0-3h3a1.5,1.5,0,0,1,1.5,1.5v3A1.5,1.5,0,0,1,79.42,37.57Z"/><path class="cls-1" d="M79.42,53.05a1.5,1.5,0,0,1-1.5-1.5v-3.1a1.5,1.5,0,0,1,3,0v3.1A1.5,1.5,0,0,1,79.42,53.05Z"/></svg>