<svg id="icons" xmlns="http://www.w3.org/2000/svg" viewBox="0 0 100 100"><defs><style>.cls-1{fill:#ffa627;}</style></defs><path d="M86.77,75.19,58.4,26C56.62,23,54.29,21.43,52,21.43S47.27,23,45.5,26L17.12,75.19c-3.54,6.14-.64,11.17,6.45,11.17H80.33C87.42,86.36,90.32,81.33,86.77,75.19Z"/><path class="cls-1" d="M84.88,71.39,56.5,22.25c-1.77-3.08-4.11-4.61-6.45-4.61s-4.67,1.53-6.45,4.61L15.23,71.39c-3.55,6.15-.65,11.18,6.44,11.18H78.43C85.52,82.57,88.42,77.54,84.88,71.39ZM45.28,38.28h9.55V60.49H45.28ZM50.05,74.9a5.23,5.23,0,1,1,5.23-5.23A5.23,5.23,0,0,1,50.05,74.9Z"/></svg>