<svg id="icons" xmlns="http://www.w3.org/2000/svg" viewBox="0 0 100 100">
    <defs>
        <style>.cls-1{fill:#4d8dfc;}.cls-2{fill:#fff;}</style>
    </defs>
    <rect x="20.58" y="33.07" width="58.85" height="33.86"/>
    <path class="cls-1"
          d="M79.42,68.43H20.58a1.5,1.5,0,0,1-1.5-1.5V33.07a1.5,1.5,0,0,1,1.5-1.5H79.42a1.5,1.5,0,0,1,1.5,1.5V66.93A1.5,1.5,0,0,1,79.42,68.43Zm-57.34-3H77.92V34.57H22.08Z"/>
    <path d="M20.58,82.52a2.49,2.49,0,0,1-1.77-.73L5.72,68.7a2.51,2.51,0,0,1,0-3.54L18.81,52.07a2.5,2.5,0,0,1,3.53,0l13.1,13.09a2.51,2.51,0,0,1,0,3.54L22.34,81.79A2.45,2.45,0,0,1,20.58,82.52ZM11,66.93l9.56,9.56,9.55-9.56-9.55-9.55Z"/>
    <rect class="cls-2" x="11.32" y="57.67" width="18.51" height="18.51"
          transform="translate(-41.3 34.15) rotate(-45)"/>
</svg>