<svg xmlns="http://www.w3.org/2000/svg" viewBox="0 0 100 100"><defs><style>.cls-1{opacity:0.25;}.cls-2{fill:#ffa627;}.cls-3{fill:#4d8dfc;}.cls-4{opacity:0.5;}</style></defs><g id="Layer_25" data-name="Layer 25"><g class="cls-1"><path class="cls-2" d="M70.13,47.52a5.45,5.45,0,0,0-7.64,7.4l.46-.07a3.18,3.18,0,0,1,1.93.43,3,3,0,0,1,1,.93,3.21,3.21,0,0,1,.52,1.3,5.58,5.58,0,0,0,1.91-.06l.3-.08a5.41,5.41,0,0,0,2.7-1.71c.16-.19.31-.38.45-.58a5.48,5.48,0,0,0-1.62-7.56ZM90.72,81.37a5.46,5.46,0,0,0-6.48-4.2l-.15,0a5.46,5.46,0,0,0-2.75,1.63,6.28,6.28,0,0,0-.55.7,5.29,5.29,0,0,0-.63,1.37A5.41,5.41,0,0,0,80,83.65a3.45,3.45,0,0,0,.12.46,5.46,5.46,0,0,0,10.56-2.74Zm-37.64-.46a5.48,5.48,0,0,0-.87-1.68A1.78,1.78,0,0,0,52,79a3.28,3.28,0,0,1-1-.37A3.13,3.13,0,0,1,50,77.48l-.35-.13a5.44,5.44,0,0,0-1.74-.3,5.62,5.62,0,0,0-1.15.12,5.44,5.44,0,0,0-3.44,2.37,5.46,5.46,0,1,0,9.16,5.94,5.45,5.45,0,0,0,.76-4.11Z"/><path d="M93.85,80.71A8.68,8.68,0,0,0,83.57,74a11.08,11.08,0,0,0-1.16.34L73,58.5a8.65,8.65,0,1,0-14.3-4.59,8.74,8.74,0,0,0,1.39,3.18l.42-.69a2.94,2.94,0,0,1,.59-.71,3.22,3.22,0,0,1,1.4-.77,5.38,5.38,0,0,1-.67-1.68,5.47,5.47,0,0,1,8.31-5.72,5.48,5.48,0,0,1,1.62,7.56c-.14.2-.29.39-.45.58a5.41,5.41,0,0,1-2.7,1.71l-.3.08a5.58,5.58,0,0,1-1.91.06,3.09,3.09,0,0,1-.13,1.59,3.15,3.15,0,0,1-.26.56l-.55.93a8,8,0,0,0,1.7.18,8.74,8.74,0,0,0,1.82-.2,8.13,8.13,0,0,0,1.3-.39L79.66,76a8.87,8.87,0,0,0-1.55,1.79,8.63,8.63,0,0,0-1.25,3.11H56.36l0-.2a8.62,8.62,0,0,0-1.17-2.85,3,3,0,0,1-1.3,1,3.14,3.14,0,0,1-1.18.23,2,2,0,0,1-.34,0L52,79a1.78,1.78,0,0,1,.21.27,5.48,5.48,0,0,1,.87,1.68l.12.46a5.45,5.45,0,0,1-.76,4.11,5.46,5.46,0,1,1-5.72-8.31,5.62,5.62,0,0,1,1.15-.12,5.44,5.44,0,0,1,1.74.3l.35.13a2,2,0,0,1-.2-.38,3.23,3.23,0,0,1,.17-2.9l0-.08A8.67,8.67,0,1,0,49.66,91a8.52,8.52,0,0,0,5.46-3.76,8.38,8.38,0,0,0,1.25-3.11h20.5c0,.07,0,.14,0,.21a8.66,8.66,0,0,0,16.94-3.61Zm-7.33,7.14a5.44,5.44,0,0,1-6.36-3.74,3.45,3.45,0,0,1-.12-.46,5.41,5.41,0,0,1,.12-2.74,5.29,5.29,0,0,1,.63-1.37,6.28,6.28,0,0,1,.55-.7,5.46,5.46,0,0,1,2.75-1.63l.15,0a5.54,5.54,0,0,1,1.15-.12,5.46,5.46,0,0,1,1.13,10.8Z"/><path class="cls-3" d="M66.39,57.51a3.21,3.21,0,0,0-.52-1.3,3,3,0,0,0-1-.93A3.18,3.18,0,0,0,63,54.85l-.46.07a3.22,3.22,0,0,0-1.4.77,2.94,2.94,0,0,0-.59.71l-.42.69L50,74.12l0,.08a3.23,3.23,0,0,0-.17,2.9,2,2,0,0,0,.2.38,3.13,3.13,0,0,0,1.09,1.11A3.28,3.28,0,0,0,52,79l.34.05a2,2,0,0,0,.34,0,3.14,3.14,0,0,0,1.18-.23,3,3,0,0,0,1.3-1,3.89,3.89,0,0,0,.28-.39l10-16.88.55-.93a3.15,3.15,0,0,0,.26-.56A3.09,3.09,0,0,0,66.39,57.51Z"/></g></g><g id="icons_50" data-name="icons 50"><g class="cls-4"><path class="cls-2" d="M64,34.58a6.71,6.71,0,0,0-3.7-1.1,6.83,6.83,0,0,0-6.69,8.25,7.11,7.11,0,0,0,.84,2.1,3.7,3.7,0,0,1,.58-.1,4,4,0,0,1,2.41.54,3.8,3.8,0,0,1,1.23,1.16,4.07,4.07,0,0,1,.66,1.63A6.82,6.82,0,0,0,61.72,47l.37-.1a6.77,6.77,0,0,0,3.39-2.14c.19-.23.38-.47.55-.72a6.81,6.81,0,0,0-2-9.44ZM89.74,76.89a6.83,6.83,0,0,0-6.66-5.4,7,7,0,0,0-1.44.15l-.18,0a6.71,6.71,0,0,0-3.44,2,6.36,6.36,0,0,0-.68.87,6.81,6.81,0,0,0-1,5.14q.06.29.15.57a6.82,6.82,0,0,0,13.2-3.42Zm-47-.58a6.65,6.65,0,0,0-1.08-2.1c-.08-.12-.17-.23-.26-.34a4.13,4.13,0,0,1-1.19-.46A4,4,0,0,1,38.79,72a3.83,3.83,0,0,0-.43-.17,6.79,6.79,0,0,0-2.18-.37,7,7,0,0,0-1.44.15,6.82,6.82,0,1,0,8.1,5.25A5.47,5.47,0,0,0,42.69,76.31Z"/><path d="M93.65,76.05a10.82,10.82,0,0,0-12.84-8.32,10.06,10.06,0,0,0-1.45.42L67.59,48.3a11,11,0,0,0,1.79-2.11,10.82,10.82,0,1,0-17.93.35l.52-.87a4,4,0,0,1,.74-.89,3.91,3.91,0,0,1,1.75-1,7.11,7.11,0,0,1-.84-2.1,6.83,6.83,0,0,1,6.69-8.25,6.71,6.71,0,0,1,3.7,1.1A6.81,6.81,0,0,1,66,44c-.17.25-.36.49-.55.72a6.77,6.77,0,0,1-3.39,2.14l-.37.1a6.82,6.82,0,0,1-2.38.08,3.88,3.88,0,0,1-.17,2,4,4,0,0,1-.32.7l-.69,1.17a10.66,10.66,0,0,0,2.12.21,11,11,0,0,0,2.28-.24,10.85,10.85,0,0,0,1.62-.49L75.92,70.19A10.66,10.66,0,0,0,74,72.42a11,11,0,0,0-1.56,3.89H46.8c0-.08,0-.17,0-.26a10.66,10.66,0,0,0-1.46-3.55,4,4,0,0,1-1.62,1.19A4.08,4.08,0,0,1,42.2,74a3.11,3.11,0,0,1-.43,0,3.07,3.07,0,0,1-.42-.07c.09.11.18.22.26.34a6.65,6.65,0,0,1,1.08,2.1,5.47,5.47,0,0,1,.15.58A6.83,6.83,0,0,1,37.59,85a6.83,6.83,0,0,1-2.85-13.35,7,7,0,0,1,1.44-.15,6.79,6.79,0,0,1,2.18.37,3.83,3.83,0,0,1,.43.17c-.09-.16-.18-.32-.25-.48a4,4,0,0,1-.31-1.81,3.86,3.86,0,0,1,.53-1.81l.06-.11a10.83,10.83,0,1,0-2.67,21.32,11.11,11.11,0,0,0,2.28-.24,10.85,10.85,0,0,0,8.38-8.59H72.44a2,2,0,0,0,0,.26A10.82,10.82,0,0,0,83,89.14a11,11,0,0,0,2.28-.24,10.82,10.82,0,0,0,8.33-12.85ZM84.49,85a6.82,6.82,0,0,1-7.95-4.68q-.09-.28-.15-.57a6.81,6.81,0,0,1,1-5.14,6.36,6.36,0,0,1,.68-.87,6.71,6.71,0,0,1,3.44-2l.18,0a7,7,0,0,1,1.44-.15A6.83,6.83,0,0,1,84.49,85Z"/><path class="cls-3" d="M59.34,47.06a4.07,4.07,0,0,0-.66-1.63,3.8,3.8,0,0,0-1.23-1.16A4,4,0,0,0,55,43.73a3.7,3.7,0,0,0-.58.1,3.91,3.91,0,0,0-1.75,1,4,4,0,0,0-.74.89l-.52.87L38.82,67.82l-.06.11a3.86,3.86,0,0,0-.53,1.81,4,4,0,0,0,.31,1.81c.07.16.16.32.25.48a4,4,0,0,0,1.37,1.38,4.13,4.13,0,0,0,1.19.46,3.07,3.07,0,0,0,.42.07,3.11,3.11,0,0,0,.43,0,4.08,4.08,0,0,0,1.47-.28,4,4,0,0,0,1.62-1.19,3.36,3.36,0,0,0,.35-.49L58.16,50.92l.69-1.17a4,4,0,0,0,.32-.7A3.88,3.88,0,0,0,59.34,47.06Z"/></g></g><g id="icons"><path class="cls-2" d="M56.11,19.39A8.43,8.43,0,0,0,51.49,18a8.53,8.53,0,0,0-7.18,3.89,8.45,8.45,0,0,0-1.18,6.42,8.55,8.55,0,0,0,1,2.62,6,6,0,0,1,.72-.11A5,5,0,0,1,50.27,35a8.55,8.55,0,0,0,3-.09l.46-.13a8.43,8.43,0,0,0,4.23-2.67,8.7,8.7,0,0,0,.69-.91,8.52,8.52,0,0,0-2.52-11.8ZM88.27,72.28a8.52,8.52,0,0,0-10.12-6.56l-.23.06a8.47,8.47,0,0,0-4.3,2.55,8.17,8.17,0,0,0-.85,1.09,8.66,8.66,0,0,0-1,2.14,8.5,8.5,0,0,0-.19,4.28c.06.25.12.49.19.72a8.53,8.53,0,0,0,16.5-4.28Zm-58.81-.72a8.31,8.31,0,0,0-1.35-2.63c-.11-.14-.21-.29-.33-.42a4.85,4.85,0,0,1-3.19-2.31L24,66a8.41,8.41,0,0,0-2.72-.47,8.31,8.31,0,0,0-1.79.19,8.53,8.53,0,1,0,8.93,13,8.34,8.34,0,0,0,1-2.14,8.49,8.49,0,0,0,.19-4.28C29.6,72,29.53,71.8,29.46,71.56Z"/><path d="M93.16,71.24A13.53,13.53,0,0,0,77.1,60.83a13.79,13.79,0,0,0-1.8.53L60.58,36.55a14,14,0,0,0,2.25-2.64,13.53,13.53,0,1,0-22.42.44l.65-1.09A4.73,4.73,0,0,1,42,32.15,5,5,0,0,1,44.17,31a8.55,8.55,0,0,1-1-2.62,8.45,8.45,0,0,1,1.18-6.42A8.53,8.53,0,0,1,51.49,18a8.52,8.52,0,0,1,7.14,13.17,8.7,8.7,0,0,1-.69.91,8.43,8.43,0,0,1-4.23,2.67l-.46.13a8.55,8.55,0,0,1-3,.09,5,5,0,0,1-.21,2.49,5.31,5.31,0,0,1-.4.88l-.87,1.46a13.85,13.85,0,0,0,2.65.27,13.09,13.09,0,0,0,2.85-.31,12.53,12.53,0,0,0,2-.61L71,63.91a14.12,14.12,0,0,0-2.42,2.79,13.61,13.61,0,0,0-1.95,4.86h-32c0-.1,0-.21-.05-.32a13.37,13.37,0,0,0-1.83-4.44,5,5,0,0,1-3.87,1.83l-.53,0a4.89,4.89,0,0,1-.53-.09c.12.13.22.28.33.42a8.31,8.31,0,0,1,1.35,2.63c.07.24.14.48.19.72a8.49,8.49,0,0,1-.19,4.28,8.34,8.34,0,0,1-1,2.14,8.53,8.53,0,1,1-8.93-13,8.31,8.31,0,0,1,1.79-.19A8.41,8.41,0,0,1,24,66l.55.2a4.83,4.83,0,0,1-.32-.59,5.14,5.14,0,0,1-.39-2.26,4.93,4.93,0,0,1,.67-2.27l.08-.13A13.53,13.53,0,0,0,13.94,85.42a13.43,13.43,0,0,0,7.34,2.18,13.87,13.87,0,0,0,2.85-.3,13.49,13.49,0,0,0,8.53-5.87,13.66,13.66,0,0,0,2-4.87h32c0,.11,0,.22,0,.33A13.55,13.55,0,0,0,79.9,87.6a13.8,13.8,0,0,0,2.85-.3A13.53,13.53,0,0,0,93.16,71.24ZM81.71,82.41a8.55,8.55,0,0,1-9.94-5.85c-.07-.23-.13-.47-.19-.72a8.5,8.5,0,0,1,.19-4.28,8.66,8.66,0,0,1,1-2.14,8.17,8.17,0,0,1,.85-1.09,8.47,8.47,0,0,1,4.3-2.55l.23-.06a8.45,8.45,0,0,1,1.79-.19,8.52,8.52,0,0,1,8.33,6.75,8.53,8.53,0,0,1-6.56,10.13Z"/><path class="cls-3" d="M50.27,35a5.06,5.06,0,0,0-.82-2,4.92,4.92,0,0,0-4.56-2.12,6,6,0,0,0-.72.11A5,5,0,0,0,42,32.15a4.73,4.73,0,0,0-.92,1.11l-.65,1.09L24.63,61l-.08.13a4.93,4.93,0,0,0-.67,2.27,5.14,5.14,0,0,0,.39,2.26,4.83,4.83,0,0,0,.32.59,5,5,0,0,0,3.72,2.4l.53,0a5,5,0,0,0,3.87-1.83,4.61,4.61,0,0,0,.44-.62L48.79,39.82l.87-1.46a5.31,5.31,0,0,0,.4-.88A5,5,0,0,0,50.27,35Z"/></g></svg>