<svg xmlns="http://www.w3.org/2000/svg" viewBox="0 0 100 100"><defs><style>.cls-1{fill:#ffa627;}.cls-2{fill:#fffffc;}</style></defs><g id="icons"><path d="M15.57,29.74l23.65,27.4v-.5L14.54,28.05A6,6,0,0,0,15.57,29.74Zm68-8.68a5.81,5.81,0,0,1-1.16,5.68L56.14,57.17V75.59A8.45,8.45,0,0,1,42,81.88a8.46,8.46,0,0,0,16.25-3.29V60.17L84.56,29.74A5.94,5.94,0,0,0,83.56,21.06Zm-35.88,60a5.46,5.46,0,1,0-5.46-5.46A5.47,5.47,0,0,0,47.68,81.05Z"/><path class="cls-1" d="M83.56,21.06a5.88,5.88,0,0,0-5.65-4.14h-60a5.94,5.94,0,0,0-4.5,9.82l1.13,1.31L39.22,56.64v19a8.46,8.46,0,0,0,16.92,0V57.17L82.4,26.74A5.81,5.81,0,0,0,83.56,21.06ZM42.22,75.59a5.46,5.46,0,1,1,5.46,5.46A5.47,5.47,0,0,1,42.22,75.59Z"/><path class="cls-2" d="M43.27,42.3a8.45,8.45,0,0,0,6.42,1.18,8.53,8.53,0,1,0-6.42-1.18Z"/></g></svg>