<?xml version="1.0" encoding="UTF-8"?>
<svg xmlns="http://www.w3.org/2000/svg" viewBox="0 0 100 100">
  <defs>
    <style>
      .cls-1 {
        fill: #fff;
      }

      .cls-2 {
        opacity: .5;
      }

      .cls-3 {
        opacity: .7;
      }
    </style>
  </defs>
  <g id="Layer_25" data-name="Layer 25">
    <g class="cls-2">
      <path d="M73.63,42.45c3.99,0,7.22,3.23,7.22,7.22,0,.59-.08,1.15-.21,1.7,1.22-.65,1.95-1.87,1.95-4.11,0-5.65-4.58-10.22-10.22-10.22s-10.22,4.58-10.22,10.22c0,3.6,1.86,4.55,4.67,4.77-.26-.74-.4-1.53-.4-2.36,0-3.99,3.23-7.22,7.22-7.22Z"/>
      <path d="M88.73,49.75c0-3.47-1.17-6.66-3.14-9.21,1.19,2.16,1.88,4.65,1.88,7.29,0,8.34-15.1,29.39-15.1,29.39,0,0-1.19-1.66-2.91-4.24,2.36,3.64,4.17,6.16,4.17,6.16,0,0,15.1-21.05,15.1-29.39Z"/>
      <path class="cls-1" d="M85.59,40.53c-2.57-4.65-7.53-7.81-13.22-7.81-8.34,0-15.1,6.76-15.1,15.1,0,5.99,7.8,18.55,12.19,25.14,1.72,2.58,2.91,4.24,2.91,4.24,0,0,15.1-21.05,15.1-29.39,0-2.64-.68-5.13-1.88-7.29ZM80.64,51.36c-1.86.99-4.87.68-8.27.68-2.05,0-3.96.11-5.56-.01-2.81-.22-4.67-1.18-4.67-4.77,0-5.65,4.58-10.22,10.22-10.22s10.22,4.58,10.22,10.22c0,2.24-.72,3.46-1.95,4.11Z"/>
    </g>
  </g>
  <g id="icons_50" data-name="icons 50">
    <g class="cls-3">
      <path d="M61.79,36.08c4.98,0,9.03,4.04,9.03,9.03,0,.73-.1,1.44-.26,2.12,1.53-.81,2.43-2.33,2.43-5.13,0-7.06-5.72-12.78-12.78-12.78s-12.78,5.72-12.78,12.78c0,4.5,2.32,5.69,5.83,5.97-.32-.93-.5-1.92-.5-2.95,0-4.99,4.04-9.03,9.03-9.03Z"/>
      <path d="M80.66,45.2c0-4.34-1.47-8.33-3.92-11.51,1.49,2.7,2.35,5.81,2.35,9.11,0,10.42-18.87,36.73-18.87,36.73,0,0-1.49-2.08-3.64-5.3,2.96,4.55,5.22,7.7,5.22,7.7,0,0,18.87-26.31,18.87-36.73Z"/>
      <path class="cls-1" d="M76.74,33.69c-3.21-5.82-9.41-9.76-16.53-9.76-10.42,0-18.87,8.45-18.87,18.87,0,7.49,9.75,23.19,15.24,31.43,2.15,3.22,3.64,5.3,3.64,5.3,0,0,18.87-26.31,18.87-36.73,0-3.31-.85-6.41-2.35-9.11ZM70.55,47.22c-2.32,1.24-6.09.85-10.34.85-2.56,0-4.94.14-6.94-.02-3.51-.28-5.83-1.47-5.83-5.97,0-7.06,5.72-12.78,12.78-12.78s12.78,5.72,12.78,12.78c0,2.8-.9,4.32-2.43,5.13Z"/>
    </g>
  </g>
  <g id="Layer_5" data-name="Layer 5">
    <g>
      <path d="M45.99,27.86c6.23,0,11.28,5.05,11.28,11.28,0,.92-.12,1.8-.33,2.65,1.91-1.02,3.04-2.91,3.04-6.42,0-8.82-7.15-15.97-15.97-15.97s-15.97,7.15-15.97,15.97c0,5.62,2.9,7.11,7.29,7.46-.4-1.16-.63-2.4-.63-3.69,0-6.23,5.05-11.28,11.28-11.28Z"/>
      <path d="M69.58,39.27c0-5.42-1.83-10.41-4.9-14.39,1.87,3.38,2.93,7.26,2.93,11.39,0,13.03-23.59,45.91-23.59,45.91,0,0-1.87-2.6-4.55-6.63,3.69,5.69,6.52,9.63,6.52,9.63,0,0,23.59-32.88,23.59-45.91Z"/>
      <path class="cls-1" d="M64.67,24.88c-4.02-7.27-11.76-12.2-20.66-12.2-13.03,0-23.59,10.56-23.59,23.59,0,9.37,12.19,28.99,19.05,39.29,2.68,4.03,4.55,6.63,4.55,6.63,0,0,23.59-32.88,23.59-45.91,0-4.13-1.07-8.01-2.93-11.39ZM56.94,41.8c-2.9,1.55-7.61,1.06-12.93,1.06-3.2,0-6.18.17-8.68-.02-4.39-.34-7.29-1.84-7.29-7.46,0-8.82,7.15-15.97,15.97-15.97s15.97,7.15,15.97,15.97c0,3.5-1.13,5.4-3.04,6.42Z"/>
    </g>
  </g>
</svg>