<?xml version="1.0" encoding="UTF-8"?>
<svg id="icons" xmlns="http://www.w3.org/2000/svg" viewBox="0 0 100 100">
  <defs>
    <style>
      .cls-1 {
        fill: #fffffc;
      }

      .cls-2 {
        fill: #ffa627;
      }
    </style>
  </defs>
  <g>
    <path d="M38.57,44.57c.01.17.03.33.05.5.02.24.04.47.07.71.02.18.05.35.08.53.04.22.07.45.11.67.04.18.08.36.12.54.05.21.1.43.15.64.05.18.1.36.15.54.06.21.12.42.19.62.06.18.12.36.18.53.07.2.15.41.23.61.07.18.14.35.22.52.09.2.18.4.27.59.08.17.16.34.25.51.1.2.2.39.31.58.09.16.18.33.27.49.11.19.23.38.35.57.1.15.19.31.3.46.13.2.27.39.41.58.1.14.2.28.3.42.1.13.2.25.3.37-.08-.16-.17-.31-.25-.47-.09-.17-.17-.34-.25-.51-.09-.2-.18-.39-.27-.59-.07-.17-.15-.35-.22-.52-.08-.2-.16-.41-.23-.61-.06-.18-.12-.36-.18-.53-.07-.21-.13-.42-.19-.62-.05-.18-.1-.36-.15-.54-.05-.21-.1-.43-.15-.64-.04-.18-.08-.36-.12-.54-.04-.22-.08-.44-.11-.67-.03-.18-.06-.35-.08-.53-.03-.24-.05-.47-.07-.71-.02-.17-.04-.33-.05-.5-.02-.27-.02-.54-.03-.81,0-.14-.01-.28-.01-.41,0-.41,0-.81.03-1.22,0-.08.01-.15.02-.23.02-.33.05-.67.09-1,.02-.15.05-.3.07-.44.03-.22.07-.45.11-.67.24-.04.49-.08.73-.12.13-.02.25-.04.38-.06.37-.05.74-.08,1.11-.1.04,0,.08,0,.12-.01.41-.02.82-.03,1.23-.03.12,0,.24,0,.37.01.28,0,.57.01.85.03.16.01.31.03.47.04.25.02.5.04.74.08.17.02.34.05.5.08.23.04.47.07.7.12.17.03.34.07.51.11.23.05.45.1.67.16.17.04.34.09.51.14.22.06.44.13.66.2.17.05.34.11.5.17.22.08.43.16.64.24.17.07.33.13.49.2.21.09.42.19.63.28.16.07.32.15.47.23.21.11.42.22.62.33.15.08.3.16.45.25.21.12.41.25.62.38.14.09.28.18.42.27.21.14.41.29.62.44.13.09.25.18.38.28.22.17.44.35.65.53.1.08.2.16.3.25.31.27.61.55.91.85.29.29.57.6.85.9.1.11.19.23.28.34.07.08.13.16.2.24-.02-.04-.04-.08-.06-.11-.09-.16-.18-.33-.27-.49-.11-.19-.23-.39-.36-.58-.1-.15-.19-.31-.29-.46-.13-.2-.27-.39-.41-.58-.1-.14-.2-.28-.3-.42-.16-.21-.33-.41-.5-.61-.09-.11-.18-.23-.28-.34-.27-.31-.55-.61-.85-.9-.29-.29-.6-.58-.91-.85-.1-.09-.2-.17-.3-.25-.22-.18-.43-.36-.65-.53-.12-.1-.25-.18-.38-.28-.2-.15-.41-.3-.62-.44-.14-.09-.28-.18-.42-.27-.2-.13-.41-.26-.62-.38-.15-.09-.3-.17-.45-.25-.21-.11-.41-.22-.62-.33-.16-.08-.32-.15-.48-.23-.21-.1-.42-.19-.63-.28-.16-.07-.33-.14-.49-.2-.21-.08-.43-.16-.64-.24-.17-.06-.33-.12-.5-.17-.22-.07-.44-.14-.66-.2-.17-.05-.34-.1-.51-.14-.22-.06-.45-.11-.67-.16-.17-.04-.34-.08-.51-.11-.23-.04-.47-.08-.7-.12-.17-.03-.33-.06-.5-.08-.25-.03-.5-.05-.74-.08-.16-.01-.31-.03-.47-.04-.28-.02-.57-.03-.85-.03-.12,0-.24-.01-.37-.01-.41,0-.82,0-1.23.03-.04,0-.08,0-.12.01-.37.02-.74.06-1.11.1-.13.02-.25.04-.38.06-.24.03-.49.07-.73.12-.04.22-.07.45-.11.67-.02.15-.05.3-.07.44-.04.33-.07.67-.09,1,0,.08-.02.15-.02.23-.02.41-.03.81-.03,1.22,0,.14,0,.28.01.41,0,.27.01.54.03.81ZM79.25,31.21c5.29,9.34,3.98,21.43-3.96,29.38-2.7,2.7-6.02,4.73-9.66,5.92v.05s-.07.01-.07.01c-1.19,3.64-3.22,6.96-5.92,9.66-4.77,4.77-11.04,7.16-17.31,7.16s-12.54-2.39-17.31-7.16c-.73-.73-1.41-1.51-2.03-2.31,1.08,1.92,2.43,3.71,4.03,5.31,4.77,4.77,11.04,7.16,17.31,7.16s12.54-2.39,17.31-7.16c2.7-2.7,4.73-6.02,5.92-9.66h.05s.01-.07.01-.07c3.64-1.19,6.96-3.22,9.66-5.92,8.83-8.83,9.47-22.78,1.96-32.38ZM56.1,72.7c1.47-1.47,2.69-3.17,3.62-5.03-.03,0-.06,0-.09,0-.13,0-.26.01-.39.02-.36.02-.72.03-1.09.03-.05,0-.1,0-.15,0-.14,0-.28,0-.43-.01-.22,0-.44,0-.66-.02-.18,0-.36-.02-.54-.03-.24-.02-.48-.03-.72-.05-.14-.01-.29-.03-.43-.05-.99-.11-1.97-.28-2.94-.51-.08-.02-.15-.03-.23-.05-.26-.06-.51-.14-.77-.21-.15-.04-.29-.08-.44-.12-.23-.07-.46-.15-.69-.23-.17-.06-.34-.11-.5-.17-.21-.08-.43-.16-.64-.24-.18-.07-.36-.14-.53-.21-.2-.08-.4-.17-.6-.26-.18-.08-.37-.17-.55-.25-.19-.09-.38-.19-.57-.28-.19-.1-.37-.19-.56-.3-.18-.1-.36-.2-.53-.3-.19-.11-.38-.23-.57-.34-.17-.1-.33-.21-.5-.31-.19-.13-.39-.26-.58-.39-.15-.11-.31-.21-.46-.32-.2-.15-.4-.3-.59-.45-.14-.11-.28-.21-.41-.32-.22-.18-.43-.36-.64-.54-.11-.09-.22-.18-.33-.28-.32-.28-.63-.58-.93-.88-.35-.35-.69-.72-1.02-1.09-.1-.12-.2-.24-.31-.36-.22-.26-.44-.52-.64-.79-.11-.14-.22-.29-.33-.43-.19-.26-.38-.52-.56-.79-.1-.15-.2-.29-.29-.44-.19-.3-.38-.6-.56-.91-.07-.12-.14-.23-.21-.35-.24-.42-.47-.85-.68-1.29-.04-.09-.08-.17-.12-.26-.17-.35-.33-.71-.48-1.07-.07-.16-.13-.31-.19-.47-.12-.3-.23-.6-.34-.91-.06-.17-.12-.34-.17-.51-.1-.31-.19-.61-.28-.92-.05-.16-.09-.33-.14-.49-.1-.37-.18-.74-.26-1.12-.02-.1-.05-.2-.07-.31-.09-.47-.18-.95-.24-1.43-.02-.14-.03-.27-.05-.41-.04-.35-.08-.69-.11-1.04-.01-.18-.02-.36-.03-.54-.02-.32-.03-.63-.04-.95,0-.18,0-.37,0-.55,0-.33.01-.66.03-.99,0-.16.01-.33.02-.49,0-.05,0-.11,0-.16-1.86.93-3.56,2.15-5.03,3.62-3.68,3.68-5.71,8.57-5.71,13.78s2.03,10.1,5.71,13.78c7.6,7.59,19.95,7.59,27.55,0Z"/>
    <path class="cls-2" d="M79.25,31.21c-1.06-1.88-2.37-3.65-3.96-5.25-9.55-9.54-25.08-9.54-34.62,0-2.7,2.7-4.73,6.02-5.92,9.66h-.05s-.01.07-.01.07c-3.64,1.2-6.96,3.22-9.66,5.92-4.62,4.62-7.17,10.77-7.17,17.31,0,5.5,1.81,10.73,5.14,15,.63.8,1.3,1.58,2.03,2.31,4.77,4.77,11.04,7.16,17.31,7.16s12.54-2.39,17.31-7.16c2.7-2.7,4.73-6.02,5.92-9.66h.05s.01-.07.01-.07c3.64-1.19,6.96-3.22,9.66-5.92,7.95-7.95,9.25-20.04,3.96-29.38ZM28.55,72.7c-3.68-3.68-5.71-8.57-5.71-13.78s2.03-10.1,5.71-13.78c1.47-1.47,3.17-2.69,5.03-3.62,0,.05,0,.11,0,.16-.01.16-.01.33-.02.49-.01.33-.02.66-.03.99,0,.18,0,.37,0,.55,0,.32.02.63.04.95.01.18.02.36.03.54.03.35.07.7.11,1.04.02.14.03.28.05.41.07.48.15.96.24,1.43.02.1.05.2.07.31.08.37.17.75.26,1.12.04.16.09.33.14.49.09.31.18.62.28.92.06.17.11.34.17.51.11.3.22.61.34.91.06.16.12.31.19.47.15.36.31.72.48,1.07.04.09.08.17.12.26.21.44.44.87.68,1.29.07.12.14.23.21.35.18.31.37.61.56.91.1.15.2.29.29.44.18.27.37.53.56.79.11.14.22.29.33.43.21.27.42.53.64.79.1.12.2.24.31.36.33.37.67.74,1.02,1.09.3.3.61.6.93.88.11.1.22.19.33.28.21.18.42.37.64.54.14.11.27.21.41.32.2.15.39.3.59.45.15.11.31.22.46.32.19.13.38.26.58.39.16.11.33.21.5.31.19.12.38.23.57.34.18.1.36.2.53.3.18.1.37.2.56.3.19.1.38.19.57.28.18.09.37.17.55.25.2.09.4.18.6.26.18.07.35.14.53.21.21.08.43.17.64.24.17.06.33.11.5.17.23.08.46.15.69.23.15.04.29.08.44.12.25.07.51.15.77.21.08.02.15.03.23.05.97.23,1.95.4,2.94.51.14.02.29.04.43.05.24.02.48.04.72.05.18.01.36.03.54.03.22,0,.44.01.66.02.14,0,.28.01.43.01.05,0,.1,0,.15,0,.36,0,.72-.02,1.09-.03.13,0,.26,0,.39-.02.03,0,.06,0,.09,0-.93,1.86-2.15,3.56-3.62,5.03-7.6,7.59-19.96,7.59-27.55,0ZM59.43,49.64c.08.16.17.31.25.47.09.17.17.34.25.51.09.2.18.39.27.59.07.17.15.35.22.53.08.2.15.4.23.6.06.18.13.36.18.54.07.21.13.41.19.62.05.18.1.36.15.54.05.21.1.43.15.64.04.18.08.36.12.54.04.22.08.44.11.66.03.18.06.36.08.54.03.23.05.47.07.7.02.17.04.34.05.51.02.26.02.53.03.79,0,.14.01.28.01.43,0,.4,0,.81-.03,1.22,0,.08-.02.16-.02.25-.02.33-.05.65-.09.98-.02.15-.05.3-.07.45-.03.22-.07.44-.11.67-.23.04-.45.07-.68.11-.15.02-.29.05-.44.07-.28.03-.55.05-.83.08-.21.02-.43.03-.64.04-.32.01-.64.03-.95.02-.2,0-.41-.01-.61-.02-.2,0-.4-.01-.6-.02-.21-.01-.42-.04-.63-.06-.19-.02-.38-.03-.57-.06-.21-.03-.42-.06-.63-.1-.19-.03-.38-.06-.57-.1-.21-.04-.41-.09-.62-.13-.19-.04-.38-.09-.57-.13-.2-.05-.4-.11-.6-.17-.19-.05-.38-.11-.57-.17-.19-.06-.39-.13-.58-.2-.19-.07-.38-.14-.57-.21-.19-.07-.37-.15-.56-.23-.19-.08-.38-.17-.57-.26-.18-.08-.35-.17-.53-.25-.19-.1-.38-.2-.57-.3-.17-.09-.33-.18-.5-.28-.19-.11-.38-.23-.57-.35-.15-.1-.31-.19-.46-.29-.2-.13-.39-.28-.59-.42-.14-.1-.27-.19-.41-.3-.21-.17-.42-.34-.63-.52-.11-.09-.22-.17-.32-.27-.31-.27-.61-.55-.91-.85-.29-.29-.57-.6-.85-.91-.1-.11-.18-.22-.27-.33-.07-.08-.14-.17-.2-.25-.1-.12-.21-.24-.3-.37-.1-.14-.2-.28-.3-.42-.14-.19-.28-.38-.41-.58-.1-.15-.2-.31-.3-.46-.12-.19-.24-.38-.35-.57-.09-.16-.18-.33-.27-.49-.11-.19-.21-.38-.31-.58-.09-.17-.17-.34-.25-.51-.09-.2-.18-.39-.27-.59-.07-.17-.15-.35-.22-.52-.08-.2-.16-.41-.23-.61-.06-.18-.12-.36-.18-.53-.07-.21-.13-.42-.19-.62-.05-.18-.1-.36-.15-.54-.05-.21-.1-.43-.15-.64-.04-.18-.08-.36-.12-.54-.04-.22-.08-.44-.11-.67-.03-.18-.06-.35-.08-.53-.03-.24-.05-.47-.07-.71-.02-.17-.04-.33-.05-.5-.02-.27-.02-.54-.03-.81,0-.14-.01-.28-.01-.41,0-.41,0-.81.03-1.22,0-.08.01-.15.02-.23.02-.33.05-.67.09-1,.02-.15.05-.3.07-.44.03-.22.07-.45.11-.67.24-.04.49-.08.73-.12.13-.02.25-.04.38-.06.37-.05.74-.08,1.11-.1.04,0,.08,0,.12-.01.41-.02.82-.03,1.23-.03.12,0,.24,0,.37.01.28,0,.57.01.85.03.16.01.31.03.47.04.25.02.5.04.74.08.17.02.34.05.5.08.23.04.47.07.7.12.17.03.34.07.51.11.23.05.45.1.67.16.17.04.34.09.51.14.22.06.44.13.66.2.17.05.34.11.5.17.22.08.43.16.64.24.17.07.33.13.49.2.21.09.42.19.63.28.16.07.32.15.48.23.21.11.42.22.62.33.15.08.3.16.45.25.21.12.41.25.62.38.14.09.28.18.42.27.21.14.41.29.62.44.13.09.25.18.38.28.22.17.44.35.65.53.1.08.2.16.3.25.31.27.61.55.91.85.29.29.57.6.85.9.1.11.19.23.28.34.17.2.34.41.5.61.1.14.2.28.3.42.14.19.28.38.41.58.1.15.2.3.29.46.12.19.24.38.36.58.09.16.18.32.27.49.02.04.04.08.06.11ZM66.72,60.67c0-.06,0-.12,0-.17,0-.14.01-.29.02-.43.02-.35.03-.7.03-1.05,0-.17,0-.34,0-.51,0-.33-.02-.66-.04-1,0-.17-.02-.33-.03-.5-.03-.36-.07-.73-.11-1.09-.02-.12-.03-.25-.04-.37-.07-.48-.15-.97-.24-1.44-.02-.09-.04-.18-.06-.27-.08-.39-.17-.77-.27-1.15-.04-.16-.09-.32-.13-.48-.09-.31-.18-.62-.28-.93-.06-.17-.11-.34-.17-.51-.11-.31-.22-.61-.34-.91-.06-.16-.12-.31-.19-.47-.15-.36-.31-.72-.48-1.07-.04-.09-.08-.18-.12-.26-.21-.44-.44-.86-.68-1.29-.07-.12-.14-.24-.21-.36-.18-.3-.36-.6-.56-.9-.1-.15-.2-.29-.3-.44-.18-.27-.37-.53-.56-.79-.11-.14-.22-.29-.33-.43-.21-.27-.42-.53-.65-.79-.1-.12-.2-.24-.3-.36-.33-.37-.67-.74-1.02-1.09-.34-.34-.7-.67-1.06-1-.11-.1-.22-.19-.33-.28-.27-.23-.54-.45-.82-.67-.11-.09-.23-.18-.35-.27-.36-.27-.72-.53-1.09-.78-.03-.02-.06-.04-.08-.06-.4-.27-.81-.52-1.22-.76-.12-.07-.23-.13-.35-.2-.31-.17-.63-.34-.95-.5-.13-.06-.25-.13-.38-.19-.38-.18-.77-.36-1.16-.52-.05-.02-.1-.05-.15-.07-.44-.18-.89-.35-1.34-.5-.12-.04-.24-.08-.36-.12-.34-.11-.69-.22-1.04-.32-.14-.04-.27-.08-.41-.11-.39-.1-.79-.2-1.18-.28-.07-.02-.14-.03-.22-.05-.47-.09-.94-.17-1.42-.24-.12-.02-.23-.03-.35-.04-.36-.05-.73-.08-1.1-.11-.14-.01-.29-.02-.43-.03-.39-.02-.78-.04-1.16-.05-.09,0-.19,0-.28,0-.03,0-.07,0-.1,0-.18,0-.36.02-.54.02-.35,0-.7.01-1.04.04-.05,0-.09,0-.14,0,.93-1.86,2.15-3.56,3.62-5.03,7.6-7.59,19.96-7.59,27.55,0,7.59,7.6,7.59,19.96,0,27.55-1.47,1.47-3.17,2.69-5.03,3.62Z"/>
  </g>
  <path class="cls-1" d="M41.77,34.49c.18,0,.36-.02.54-.02.03,0,.07,0,.1,0,.09,0,.19,0,.28,0,.39,0,.78.02,1.16.05.14,0,.29.02.43.03.37.03.73.07,1.1.11.12.01.23.03.35.04.47.07.95.15,1.42.24.07.01.14.03.22.05.4.08.79.18,1.18.28.14.04.27.07.41.11.35.1.69.2,1.04.32.12.04.24.08.36.12.45.16.9.32,1.34.5.05.02.1.05.15.07.39.16.77.34,1.16.52.13.06.26.13.38.19.32.16.63.33.95.5.12.07.23.13.35.2.41.24.82.49,1.22.76.03.02.06.04.08.06.37.25.73.51,1.09.78.12.09.23.18.35.27.28.22.55.44.82.67.11.09.22.19.33.28.36.32.72.65,1.06,1,.35.35.69.72,1.02,1.09.1.12.2.24.3.36.22.26.44.52.65.79.11.14.22.29.33.43.19.26.38.52.56.79.1.15.2.29.3.44.19.3.38.6.56.9.07.12.14.24.21.36.24.42.47.85.68,1.29.04.09.08.18.12.26.17.35.33.71.48,1.07.07.16.12.31.19.47.12.3.23.6.34.91.06.17.12.34.17.51.1.31.2.62.28.93.05.16.09.32.13.48.1.38.19.76.27,1.15.02.09.04.18.06.27.1.48.18.96.24,1.44.02.12.03.25.04.37.04.36.08.73.11,1.09.01.17.02.33.03.5.02.33.03.66.04,1,0,.17,0,.34,0,.51,0,.35-.01.7-.03,1.05,0,.14,0,.29-.02.43,0,.06,0,.12,0,.17,1.86-.93,3.56-2.15,5.03-3.62,7.59-7.59,7.59-19.96,0-27.55-7.59-7.59-19.96-7.59-27.55,0-1.47,1.47-2.69,3.17-3.62,5.03.05,0,.09,0,.14,0,.35-.02.7-.03,1.04-.04Z"/>
</svg>