<?xml version="1.0" encoding="UTF-8"?>
<svg id="icons" xmlns="http://www.w3.org/2000/svg" viewBox="0 0 100 100">
  <defs>
    <style>
      .cls-1 {
        fill: #fff;
      }

      .cls-2 {
        fill: #4d8dfc;
      }

      .cls-3 {
        fill: #ffa627;
      }
    </style>
  </defs>
  <g>
    <path d="M65.65,89.2s-.06,0-.08,0c-1.16-.04-2.13-.87-2.37-2-3.74-18.32-9.25-45.61-12-61.02-3.34,11.48-8.71,30.23-12.66,44.13-.31,1.08-1.3,1.86-2.43,1.82-1.13-.01-2.11-.78-2.39-1.87l-6.19-23.67-2.66,8.3c-.33,1.03-1.29,1.74-2.38,1.74h-10.57c-1.38,0-2.5-1.12-2.5-2.5s1.12-2.5,2.5-2.5h8.74l4.73-14.75c.34-1.06,1.33-1.75,2.45-1.74,1.11.03,2.07.79,2.35,1.87l6.05,23.13c1.46-5.11,3.38-11.84,5.31-18.58,1.96-6.85,3.94-13.69,5.44-18.82.75-2.57,1.39-4.72,1.84-6.21.83-2.74,1.39-4.55,3.7-4.04,1.23.27,2.05,1.51,1.94,2.75.07,3.14,6.43,35.5,11.52,60.7l6.47-23.57c.3-1.09,1.29-1.84,2.41-1.84h12.97c1.38,0,2.5,1.12,2.5,2.5s-1.12,2.5-2.5,2.5h-11.06l-8.74,31.84c-.3,1.09-1.29,1.84-2.41,1.84ZM54.49,15.29s-.01.09-.02.14c0-.04.01-.08.02-.14Z"/>
    <path d="M40.85,47.9c-2.11-1.02-3.28-3.42-2.66-5.78.59-2.23,1.16-4.4,1.72-6.49.71-2.67,3.45-4.26,6.12-3.55,2.68.71,4.26,3.45,3.55,6.12-.55,2.08-1.13,4.25-1.71,6.47-.7,2.67-3.44,4.27-6.11,3.56-.32-.08-.62-.19-.9-.33Z"/>
    <path d="M61.52,71.28c-2.33,0-4.42-1.64-4.9-4.02l-1.31-6.58c-.54-2.71,1.22-5.34,3.93-5.88,2.71-.55,5.34,1.22,5.88,3.93l1.31,6.57c.54,2.71-1.21,5.34-3.92,5.88-.33.07-.66.1-.99.1Z"/>
  </g>
  <g>
    <path class="cls-1" d="M63.65,87.2s-.06,0-.08,0c-1.16-.04-2.13-.87-2.37-2-3.74-18.32-9.25-45.61-12-61.02-3.34,11.48-8.71,30.23-12.66,44.13-.31,1.08-1.3,1.86-2.43,1.82-1.13-.01-2.11-.78-2.39-1.87l-6.19-23.67-2.66,8.3c-.33,1.03-1.29,1.74-2.38,1.74h-10.57c-1.38,0-2.5-1.12-2.5-2.5s1.12-2.5,2.5-2.5h8.74l4.73-14.75c.34-1.06,1.33-1.75,2.45-1.74,1.11.03,2.07.79,2.35,1.87l6.05,23.13c1.46-5.11,3.38-11.84,5.31-18.58,1.96-6.85,3.94-13.69,5.44-18.82.75-2.57,1.39-4.72,1.84-6.21.83-2.74,1.39-4.55,3.7-4.04,1.23.27,2.05,1.51,1.94,2.75.07,3.14,6.43,35.5,11.52,60.7l6.47-23.57c.3-1.09,1.29-1.84,2.41-1.84h12.97c1.38,0,2.5,1.12,2.5,2.5s-1.12,2.5-2.5,2.5h-11.06l-8.74,31.84c-.3,1.09-1.29,1.84-2.41,1.84ZM52.49,13.29s-.01.09-.02.14c0-.04.01-.08.02-.14Z"/>
    <path class="cls-2" d="M38.85,45.9c-2.11-1.02-3.28-3.42-2.66-5.78.59-2.23,1.16-4.4,1.72-6.49.71-2.67,3.45-4.26,6.12-3.55,2.68.71,4.26,3.45,3.55,6.12-.55,2.08-1.13,4.25-1.71,6.47-.7,2.67-3.44,4.27-6.11,3.56-.32-.08-.62-.19-.9-.33Z"/>
    <path class="cls-3" d="M59.52,69.28c-2.33,0-4.42-1.64-4.9-4.02l-1.31-6.58c-.54-2.71,1.22-5.34,3.93-5.88,2.71-.55,5.34,1.22,5.88,3.93l1.31,6.57c.54,2.71-1.21,5.34-3.92,5.88-.33.07-.66.1-.99.1Z"/>
  </g>
</svg>