<svg id="icons" xmlns="http://www.w3.org/2000/svg" viewBox="0 0 100 100">
    <defs>
        <style>.cls-1{fill:#4d8dfc;}.cls-2{fill:#fff;}</style>
    </defs>
    <rect x="17.31" y="31.19" width="65.38" height="37.62"/>
    <path class="cls-1"
          d="M82.91,73.53H17.09c-1.38,0-4.5-3.12-4.5-4.5V31c0-1.38,3.12-4.5,4.5-4.5H82.91c1.38,0,4.5,3.12,4.5,4.5V69C87.41,70.41,84.29,73.53,82.91,73.53Zm-65.6-4.72H82.69V31.19H17.31Z"/>
    <path class="cls-2"
          d="M21.82,28.87H17a3.66,3.66,0,0,0-.57.05h0a2.83,2.83,0,0,0-2.32,2.68,2.6,2.6,0,0,0,.12.74v4.26A2.83,2.83,0,0,0,17,39.51a2.9,2.9,0,0,0,2.74-2.9V34.4h2.1a2.84,2.84,0,0,0,2.9-2.79A2.9,2.9,0,0,0,21.82,28.87Z"/>
    <path class="cls-2"
          d="M85,36.61V31.77a2.6,2.6,0,0,0-.06-.56s0,0,0,0a2.81,2.81,0,0,0-2.67-2.31,2.67,2.67,0,0,0-.75.11H77.29a2.83,2.83,0,0,0-2.9,2.79,2.9,2.9,0,0,0,2.9,2.74H79.5v2.1a2.84,2.84,0,0,0,2.8,2.9A2.9,2.9,0,0,0,85,36.61Z"/>
    <path class="cls-2"
          d="M77.29,71.13h4.84a3.66,3.66,0,0,0,.57,0h0A2.83,2.83,0,0,0,85,68.39a2.6,2.6,0,0,0-.12-.74V63.39a2.83,2.83,0,0,0-2.79-2.9,2.9,2.9,0,0,0-2.74,2.9V65.6h-2.1a2.84,2.84,0,0,0-2.9,2.79A2.9,2.9,0,0,0,77.29,71.13Z"/>
    <path class="cls-2"
          d="M14.07,63.39v4.84a2.6,2.6,0,0,0,.06.56v0a2.81,2.81,0,0,0,2.67,2.31,2.67,2.67,0,0,0,.75-.11h4.26a2.83,2.83,0,0,0,2.9-2.79,2.9,2.9,0,0,0-2.9-2.74H19.61v-2.1a2.84,2.84,0,0,0-2.8-2.9A2.9,2.9,0,0,0,14.07,63.39Z"/>
</svg>