<svg id="icons" xmlns="http://www.w3.org/2000/svg" viewBox="0 0 100 100"><defs><style>.cls-1{fill:none;stroke:#000;stroke-miterlimit:10;stroke-width:5px;opacity:0.5;}.cls-2{fill:#67a900;}.cls-3{fill:#2c80ed;}</style></defs><line class="cls-1" x1="30.25" y1="50.03" x2="69.78" y2="50.03"/><path d="M64.93,66V55.67L56.67,39.52a3.69,3.69,0,0,1-.29-1.36,3.34,3.34,0,0,1,3.34-3.06,3.06,3.06,0,0,1,2.67,1.41l5.88,11.65,5.82-11.65a3.08,3.08,0,0,1,2.72-1.41,3.34,3.34,0,0,1,3.34,3.06,4.82,4.82,0,0,1-.33,1.36L71.6,55.67V66a3.34,3.34,0,0,1-6.67,0Z"/><path class="cls-2" d="M63.57,63.91V53.62L55.3,37.47A3.9,3.9,0,0,1,55,36.11a3.32,3.32,0,0,1,3.33-3A3.05,3.05,0,0,1,61,34.46L66.9,46.11l5.82-11.65a3.09,3.09,0,0,1,2.73-1.4,3.32,3.32,0,0,1,3.33,3,4.82,4.82,0,0,1-.33,1.36L70.23,53.62V63.91A3.24,3.24,0,0,1,66.9,67,3.21,3.21,0,0,1,63.57,63.91Z"/><path d="M39.16,68.63H23.06a3.27,3.27,0,0,1-3.39-3.19,6.06,6.06,0,0,1,.66-2.07c4.6-7.6,8.64-14.08,13.29-21.78H23a3.09,3.09,0,0,1-3.24-3,3.15,3.15,0,0,1,3.24-3H38.93a3.24,3.24,0,0,1,3.42,3.14,3.65,3.65,0,0,1-.65,2L28.31,62.57H39.16a3,3,0,1,1,0,6.06Z"/><path class="cls-3" d="M37.8,66.58H21.69a3.26,3.26,0,0,1-3.38-3.19A6,6,0,0,1,19,61.32c4.61-7.6,8.65-14.08,13.3-21.78H21.64a3.09,3.09,0,0,1-3.24-3,3.15,3.15,0,0,1,3.24-3.05H37.56A3.25,3.25,0,0,1,41,36.62a3.65,3.65,0,0,1-.66,2L27,60.53H37.8a3,3,0,1,1,0,6Z"/></svg>