<?xml version="1.0" encoding="UTF-8"?>
<svg id="icons" xmlns="http://www.w3.org/2000/svg" viewBox="0 0 100 100">
  <defs>
    <style>
      .cls-1 {
        fill: #fffffc;
      }

      .cls-2 {
        fill: #ffa627;
      }
    </style>
  </defs>
  <g>
    <path d="M19.57,29.74l23.65,27.4v-.5l-24.68-28.59c.24.59.57,1.16,1.03,1.69ZM87.56,21.06c.59,1.84.32,3.97-1.16,5.68l-26.27,30.43v18.42c0,4.67-3.79,8.46-8.46,8.46-2.17,0-4.14-.82-5.64-2.17,1.28,3.04,4.29,5.17,7.79,5.17,4.67,0,8.46-3.79,8.46-8.46v-18.42l26.27-30.43c2.43-2.82,1.61-6.77-1-8.68ZM66.53,35.83c3.01,0,5.46-2.45,5.46-5.46s-2.45-5.46-5.46-5.46-5.46,2.45-5.46,5.46,2.45,5.46,5.46,5.46ZM52.03,35.83c3.01,0,5.46-2.45,5.46-5.46s-2.45-5.46-5.46-5.46-5.46,2.45-5.46,5.46,2.45,5.46,5.46,5.46ZM37.28,35.83c3.01,0,5.46-2.45,5.46-5.46s-2.45-5.46-5.46-5.46-5.46,2.45-5.46,5.46,2.45,5.46,5.46,5.46Z"/>
    <path class="cls-2" d="M87.56,21.06c-.74-2.3-2.83-4.14-5.65-4.14H21.91c-5.08,0-7.82,5.97-4.5,9.82l1.13,1.31,24.68,28.59v18.95c0,2.5,1.09,4.74,2.82,6.29,1.5,1.34,3.47,2.17,5.64,2.17,4.67,0,8.46-3.79,8.46-8.46v-18.42l26.27-30.43c1.48-1.71,1.75-3.84,1.16-5.68Z"/>
    <path d="M51.68,79.05c-1.08,0-1.85-.48-2.3-.89-.43-.39-1.16-1.24-1.16-2.57v-20.81l-27.02-31.31c-.1-.11-.39-.46-.14-1s.7-.55.85-.55h60c.56,0,.8.36.89.67.16.49-.08.76-.18.88l-27.48,31.84v20.28c0,1.91-1.55,3.46-3.46,3.46Z"/>
  </g>
  <path class="cls-1" d="M55.14,55.31v20.28c0,1.91-1.55,3.46-3.46,3.46-1.08,0-1.85-.48-2.3-.89-.43-.39-1.16-1.24-1.16-2.57v-20.81"/>
</svg>