<svg id="icons" xmlns="http://www.w3.org/2000/svg" viewBox="0 0 200 100">
    <defs>
        <style>.cls-1{fill:#fff;}.cls-2{fill:none;stroke:#fff;stroke-miterlimit:10;stroke-width:5px;opacity:0.5;}
        </style>
    </defs>
    <path d="M57.26,67.18v-.05a3.43,3.43,0,0,1-3,1.93A3.28,3.28,0,0,1,51.06,66a3.57,3.57,0,0,1,.47-1.59l8.12-13L52.19,39.66a3.72,3.72,0,0,1-.38-1.6,3.19,3.19,0,0,1,3.15-3,4,4,0,0,1,3.24,2.16L63.51,46l5.3-8.74A4.17,4.17,0,0,1,72.1,35.1a3.12,3.12,0,0,1,3.1,3,4,4,0,0,1-.43,1.55L67.36,51.45l8.12,13A3.57,3.57,0,0,1,76,66a3.3,3.3,0,0,1-3.15,3.06,3.45,3.45,0,0,1-3-1.88L63.51,56.85Z"/>
    <path d="M98.7,66V55.67L90.44,39.52a3.69,3.69,0,0,1-.29-1.36,3.34,3.34,0,0,1,3.34-3.06,3.06,3.06,0,0,1,2.67,1.41L102,48.16l5.82-11.65a3.08,3.08,0,0,1,2.72-1.41,3.34,3.34,0,0,1,3.34,3.06,4.82,4.82,0,0,1-.33,1.36l-8.22,16.15V66a3.25,3.25,0,0,1-3.33,3.1A3.21,3.21,0,0,1,98.7,66Z"/>
    <path d="M147,68.63H130.91a3.27,3.27,0,0,1-3.38-3.19,5.85,5.85,0,0,1,.66-2.07c4.6-7.6,8.64-14.08,13.29-21.78H130.86a3.08,3.08,0,0,1-3.23-3,3.14,3.14,0,0,1,3.23-3h15.92a3.25,3.25,0,0,1,3.43,3.14,3.65,3.65,0,0,1-.66,2L136.17,62.57H147a3,3,0,1,1,0,6.06Z"/>
    <path class="cls-1"
          d="M55.9,65.13v0a3.45,3.45,0,0,1-3,1.93A3.28,3.28,0,0,1,49.69,64a3.57,3.57,0,0,1,.47-1.59l8.13-13L50.82,37.61a3.86,3.86,0,0,1-.37-1.6,3.17,3.17,0,0,1,3.14-2.95,3.91,3.91,0,0,1,3.24,2.16L62.14,44l5.31-8.73a4.12,4.12,0,0,1,3.28-2.16,3.11,3.11,0,0,1,3.1,3,4.14,4.14,0,0,1-.42,1.55L66,49.4l8.12,13A3.44,3.44,0,0,1,74.58,64,3.3,3.3,0,0,1,71.44,67a3.47,3.47,0,0,1-3.06-1.88L62.14,54.8Z"/>
    <path class="cls-1"
          d="M97.34,63.91V53.62L89.07,37.47a3.9,3.9,0,0,1-.28-1.36,3.32,3.32,0,0,1,3.33-3,3.06,3.06,0,0,1,2.68,1.4l5.87,11.65,5.82-11.65a3.08,3.08,0,0,1,2.73-1.4,3.32,3.32,0,0,1,3.33,3,4.82,4.82,0,0,1-.33,1.36L104,53.62V63.91a3.24,3.24,0,0,1-3.33,3.1A3.21,3.21,0,0,1,97.34,63.91Z"/>
    <path class="cls-1"
          d="M145.65,66.58h-16.1a3.27,3.27,0,0,1-3.39-3.19,6.06,6.06,0,0,1,.66-2.07c4.6-7.6,8.64-14.08,13.29-21.78H129.5a3.09,3.09,0,0,1-3.24-3,3.15,3.15,0,0,1,3.24-3.05h15.92a3.24,3.24,0,0,1,3.42,3.14,3.65,3.65,0,0,1-.65,2L134.8,60.53h10.85a3,3,0,1,1,0,6Z"/>
    <path class="cls-2" d="M176.4,71.07a12,12,0,0,1-12,12H35.6a12,12,0,0,1-12-12"/>
    <path class="cls-2" d="M23.6,28.93a12,12,0,0,1,12-12H164.4a12,12,0,0,1,12,12"/>
</svg>