<?xml version="1.0" encoding="UTF-8"?>
<svg xmlns="http://www.w3.org/2000/svg" viewBox="0 0 100 100">
  <defs>
    <style>
      .cls-1 {
        fill: #fffffc;
      }

      .cls-2 {
        fill: #ffa627;
      }

      .cls-3 {
        opacity: .5;
      }

      .cls-4 {
        opacity: .7;
      }
    </style>
  </defs>
  <g id="Layer_25" data-name="Layer 25">
    <g class="cls-3">
      <path class="cls-1" d="M53.64,61.36c.91.59,1.99.79,3.05.56,2.18-.47,3.58-2.62,3.11-4.8-.4-1.9-2.09-3.2-3.96-3.2-.28,0-.56.03-.85.09-2.18.47-3.58,2.62-3.11,4.8.23,1.06.85,1.96,1.76,2.55Z"/>
      <path class="cls-1" d="M88.16,70.74c-.28,0-.56.03-.85.09-2.18.47-3.58,2.62-3.11,4.8.23,1.06.85,1.96,1.76,2.55.91.59,1.99.79,3.05.56,1.06-.23,1.96-.85,2.55-1.76.59-.91.79-1.99.56-3.05-.41-1.9-2.09-3.2-3.96-3.2Z"/>
      <path class="cls-1" d="M56.68,45.08c2.18-.47,3.58-2.62,3.11-4.8-.23-1.06-.85-1.96-1.76-2.55-.66-.43-1.42-.65-2.19-.65-.28,0-.57.03-.85.09-2.18.47-3.58,2.62-3.11,4.8.47,2.18,2.62,3.58,4.8,3.11Z"/>
      <path class="cls-1" d="M88.16,53.91c-.28,0-.56.03-.85.09-2.18.47-3.58,2.62-3.11,4.8.47,2.18,2.62,3.58,4.8,3.11,1.06-.23,1.96-.85,2.55-1.76.59-.91.79-1.99.56-3.05-.41-1.9-2.09-3.2-3.96-3.2Z"/>
      <path d="M51.89,47.21c1.19.77,2.55,1.17,3.93,1.17.51,0,1.02-.05,1.53-.16,3.91-.83,6.41-4.69,5.58-8.6-.4-1.89-1.52-3.52-3.15-4.57-1.63-1.05-3.56-1.41-5.46-1.01-3.91.83-6.41,4.69-5.58,8.6.4,1.89,1.52,3.52,3.15,4.57ZM54.99,37.17c.28-.06.57-.09.85-.09.77,0,1.53.22,2.19.65.91.59,1.53,1.5,1.76,2.55.47,2.18-.93,4.34-3.11,4.8-2.18.47-4.34-.93-4.8-3.11-.47-2.18.93-4.34,3.11-4.8Z"/>
      <path d="M51.89,64.04c1.19.77,2.55,1.17,3.93,1.17.51,0,1.02-.05,1.53-.16,1.89-.4,3.52-1.52,4.57-3.15,1.05-1.62,1.41-3.56,1.01-5.46-.83-3.91-4.69-6.41-8.6-5.58-3.91.83-6.41,4.69-5.58,8.6.4,1.89,1.52,3.52,3.15,4.57ZM54.99,54c.28-.06.57-.09.85-.09,1.87,0,3.55,1.31,3.96,3.2.47,2.18-.93,4.34-3.11,4.8-1.06.23-2.14.03-3.05-.56-.91-.59-1.53-1.49-1.76-2.55-.47-2.18.93-4.34,3.11-4.8Z"/>
      <path d="M86.65,67.7c-3.91.83-6.41,4.69-5.58,8.6.4,1.89,1.52,3.52,3.15,4.57,1.19.77,2.54,1.17,3.93,1.17.51,0,1.02-.05,1.53-.16,1.89-.4,3.52-1.52,4.57-3.15s1.41-3.56,1.01-5.46c-.83-3.91-4.69-6.41-8.6-5.58ZM91.56,77c-.59.91-1.49,1.53-2.55,1.76-1.06.23-2.14.03-3.05-.56-.91-.59-1.53-1.5-1.76-2.55-.47-2.18.93-4.34,3.11-4.8.28-.06.57-.09.85-.09,1.87,0,3.55,1.3,3.96,3.2.23,1.06.03,2.14-.56,3.05Z"/>
      <path d="M86.65,50.87c-3.91.83-6.41,4.69-5.58,8.6.73,3.4,3.74,5.74,7.09,5.74.5,0,1.01-.05,1.51-.16,1.89-.4,3.52-1.52,4.57-3.15,1.05-1.62,1.41-3.56,1.01-5.46-.83-3.91-4.69-6.41-8.6-5.58ZM91.56,60.16c-.59.91-1.49,1.53-2.55,1.76-2.18.47-4.34-.93-4.8-3.11-.47-2.18.93-4.34,3.11-4.8.28-.06.57-.09.85-.09,1.87,0,3.55,1.3,3.96,3.2.23,1.06.03,2.14-.56,3.05Z"/>
      <path d="M84.45,39.53c.5-1.16,1.54-2.07,2.87-2.36.28-.06.57-.09.85-.09.77,0,1.53.22,2.19.65.91.59,1.53,1.5,1.76,2.55.23,1.06.03,2.14-.56,3.05s-1.49,1.53-2.55,1.76c-1.92.41-3.82-.62-4.56-2.36h-3.35c.76,3.35,3.75,5.65,7.07,5.65.5,0,1.01-.05,1.51-.16,1.89-.4,3.52-1.52,4.57-3.15s1.41-3.56,1.01-5.45c-.4-1.89-1.52-3.52-3.15-4.57-1.62-1.05-3.56-1.41-5.46-1.01-2.85.61-4.94,2.82-5.55,5.49h3.35Z"/>
      <path d="M59.25,76.96c-.56.89-1.47,1.56-2.57,1.8-1.06.23-2.14.02-3.05-.56-.91-.59-1.53-1.5-1.76-2.55-.47-2.18.93-4.34,3.11-4.8.28-.06.57-.09.85-.09,1.8,0,3.42,1.22,3.9,3.01h3.27c-.02-.16-.04-.32-.08-.48-.83-3.91-4.69-6.41-8.6-5.58-3.91.83-6.41,4.69-5.58,8.6.4,1.89,1.52,3.52,3.15,4.57,1.19.77,2.55,1.17,3.93,1.17.51,0,1.02-.05,1.53-.16,2.64-.56,4.64-2.51,5.4-4.93h-3.49Z"/>
      <path class="cls-2" d="M82.75,42.73h1.69c.75,1.74,2.64,2.77,4.56,2.36,1.06-.23,1.96-.85,2.55-1.76s.79-1.99.56-3.05c-.23-1.06-.85-1.96-1.76-2.55-.66-.43-1.42-.65-2.19-.65-.28,0-.57.03-.85.09-1.33.28-2.37,1.2-2.87,2.36h-7.44l-1.54,1.15-9.68,33.08h-6.06c-.48-1.79-2.1-3.01-3.9-3.01-.28,0-.56.03-.85.09-2.18.47-3.58,2.62-3.11,4.8.23,1.06.85,1.96,1.76,2.55.91.59,1.99.79,3.05.56,1.11-.24,2.01-.91,2.57-1.8h7.74l1.54-1.15,9.68-33.08h4.55Z"/>
    </g>
  </g>
  <g id="icons_50" data-name="icons 50">
    <g class="cls-4">
      <path class="cls-1" d="M37.04,59.2c1.13.74,2.49.99,3.81.7,2.73-.58,4.48-3.28,3.89-6-.51-2.37-2.61-4.01-4.95-4.01-.35,0-.7.04-1.06.11-2.73.58-4.47,3.28-3.89,6,.28,1.32,1.06,2.45,2.2,3.19Z"/>
      <path class="cls-1" d="M80.2,70.94c-.35,0-.7.04-1.06.11-2.73.58-4.48,3.28-3.89,6,.28,1.32,1.06,2.46,2.2,3.19,1.13.73,2.48.99,3.81.7,1.32-.28,2.46-1.06,3.19-2.2.74-1.13.99-2.49.7-3.81-.51-2.37-2.61-4-4.95-4Z"/>
      <path class="cls-1" d="M40.85,38.87c2.73-.58,4.48-3.28,3.89-6-.28-1.32-1.06-2.46-2.2-3.19-.83-.54-1.78-.82-2.74-.82-.35,0-.71.04-1.07.11-2.73.58-4.47,3.28-3.89,6,.58,2.73,3.28,4.48,6,3.89Z"/>
      <path class="cls-1" d="M80.2,49.9c-.35,0-.7.04-1.06.11-2.73.58-4.48,3.28-3.89,6,.58,2.73,3.27,4.48,6,3.89,1.32-.28,2.46-1.06,3.19-2.2.74-1.13.99-2.49.7-3.81-.51-2.37-2.61-4-4.95-4Z"/>
      <path d="M34.87,41.52c1.49.96,3.18,1.46,4.91,1.46.63,0,1.27-.07,1.91-.2,4.89-1.04,8.01-5.87,6.97-10.75-.5-2.37-1.9-4.4-3.93-5.71-2.03-1.32-4.46-1.76-6.82-1.26-4.89,1.04-8.01,5.86-6.97,10.75.5,2.37,1.9,4.4,3.93,5.71ZM38.74,28.97c.36-.08.71-.11,1.07-.11.97,0,1.91.28,2.74.82,1.13.74,1.91,1.87,2.2,3.19.58,2.73-1.16,5.42-3.89,6-2.73.58-5.42-1.16-6-3.89-.58-2.73,1.16-5.42,3.89-6Z"/>
      <path d="M34.87,62.56c1.49.96,3.18,1.46,4.91,1.46.63,0,1.27-.07,1.91-.2,2.37-.5,4.4-1.9,5.71-3.93,1.32-2.03,1.76-4.45,1.26-6.82-1.04-4.89-5.86-8.01-10.75-6.97-4.89,1.04-8.01,5.87-6.97,10.75.5,2.37,1.9,4.4,3.93,5.71ZM38.74,50.01c.35-.08.71-.11,1.06-.11,2.34,0,4.44,1.63,4.95,4.01.58,2.73-1.16,5.42-3.89,6-1.32.28-2.67.03-3.81-.7-1.13-.74-1.91-1.87-2.2-3.19-.58-2.73,1.16-5.42,3.89-6Z"/>
      <path d="M78.31,67.14c-4.89,1.04-8.01,5.87-6.97,10.75.51,2.37,1.9,4.4,3.93,5.71,1.49.96,3.18,1.46,4.91,1.46.64,0,1.27-.07,1.91-.2,2.37-.5,4.4-1.9,5.71-3.93s1.76-4.45,1.26-6.82c-1.04-4.88-5.86-8.01-10.75-6.97ZM84.45,78.75c-.74,1.13-1.87,1.91-3.19,2.2-1.33.28-2.67.03-3.81-.7-1.13-.74-1.91-1.87-2.2-3.19-.58-2.73,1.16-5.42,3.89-6,.35-.08.71-.11,1.06-.11,2.34,0,4.44,1.63,4.95,4,.28,1.32.03,2.68-.7,3.81Z"/>
      <path d="M78.31,46.1c-4.89,1.04-8.01,5.87-6.97,10.75.91,4.25,4.68,7.17,8.86,7.17.62,0,1.26-.06,1.89-.2,2.37-.5,4.4-1.9,5.71-3.93,1.32-2.03,1.76-4.45,1.26-6.82-1.04-4.89-5.87-8.01-10.75-6.97ZM84.45,57.71c-.74,1.13-1.87,1.91-3.19,2.2-2.73.58-5.42-1.16-6-3.89-.58-2.73,1.16-5.42,3.89-6,.35-.08.71-.11,1.06-.11,2.34,0,4.44,1.63,4.95,4,.28,1.32.03,2.67-.7,3.81Z"/>
      <path d="M75.56,31.92c.63-1.45,1.92-2.59,3.59-2.95.36-.08.71-.11,1.07-.11.97,0,1.91.28,2.74.82,1.13.74,1.91,1.87,2.2,3.19.28,1.32.03,2.67-.7,3.81s-1.87,1.91-3.19,2.2c-2.4.51-4.77-.78-5.7-2.95h-4.19c.95,4.19,4.69,7.06,8.83,7.06.62,0,1.26-.06,1.89-.2,2.37-.51,4.4-1.9,5.71-3.93s1.76-4.45,1.26-6.82c-.51-2.37-1.9-4.4-3.93-5.71-2.03-1.32-4.45-1.76-6.82-1.26-3.56.76-6.17,3.53-6.94,6.86h4.18Z"/>
      <path d="M44.07,78.71c-.7,1.11-1.83,1.95-3.22,2.24-1.33.28-2.68.03-3.81-.7-1.13-.74-1.91-1.87-2.2-3.19-.58-2.73,1.16-5.42,3.89-6,.35-.08.71-.11,1.06-.11,2.25,0,4.28,1.53,4.87,3.77h4.08c-.03-.2-.05-.4-.1-.6-1.04-4.89-5.86-8.02-10.75-6.97-4.89,1.04-8.01,5.87-6.97,10.75.5,2.37,1.9,4.4,3.93,5.71,1.49.96,3.18,1.46,4.91,1.46.64,0,1.27-.07,1.91-.2,3.31-.7,5.8-3.14,6.75-6.16h-4.37Z"/>
      <path class="cls-2" d="M73.44,35.92h2.12c.93,2.17,3.3,3.46,5.7,2.95,1.32-.28,2.46-1.06,3.19-2.2s.99-2.49.7-3.81c-.28-1.32-1.06-2.46-2.2-3.19-.83-.54-1.78-.82-2.74-.82-.35,0-.71.04-1.07.11-1.66.35-2.96,1.5-3.59,2.95h-9.3l-1.92,1.44-12.09,41.35h-7.57c-.59-2.24-2.62-3.77-4.87-3.77-.35,0-.7.04-1.06.11-2.73.58-4.47,3.28-3.89,6,.28,1.32,1.06,2.46,2.2,3.19,1.13.73,2.48.98,3.81.7,1.38-.3,2.51-1.13,3.22-2.24h9.67l1.92-1.44,12.09-41.35h5.68Z"/>
    </g>
  </g>
  <g id="Layer_5" data-name="Layer 5">
    <g>
      <path class="cls-1" d="M15.3,56.27c1.42.92,3.11,1.23,4.76.88,3.41-.73,5.59-4.09,4.87-7.51-.63-2.97-3.26-5.01-6.18-5.01-.44,0-.88.05-1.32.14-3.41.73-5.59,4.09-4.87,7.51.35,1.65,1.33,3.07,2.75,3.99Z"/>
      <path class="cls-1" d="M69.26,70.94c-.44,0-.88.04-1.32.14-3.41.73-5.59,4.09-4.87,7.51.35,1.65,1.33,3.07,2.75,3.99,1.42.92,3.1,1.23,4.76.88,1.65-.35,3.07-1.33,3.99-2.74.92-1.42,1.23-3.11.88-4.76-.63-2.97-3.26-5.01-6.18-5.01Z"/>
      <path class="cls-1" d="M20.07,30.84c3.41-.73,5.59-4.09,4.87-7.51-.35-1.65-1.33-3.07-2.75-3.99-1.04-.67-2.22-1.02-3.43-1.02-.44,0-.89.05-1.33.14-3.41.73-5.59,4.09-4.87,7.51.73,3.41,4.1,5.59,7.51,4.87Z"/>
      <path class="cls-1" d="M69.26,44.63c-.44,0-.88.04-1.32.14-3.41.73-5.59,4.09-4.87,7.51.73,3.41,4.09,5.6,7.51,4.87,1.65-.35,3.07-1.33,3.99-2.75.92-1.42,1.23-3.11.88-4.76-.63-2.97-3.26-5.01-6.18-5.01Z"/>
      <path d="M12.58,34.16c1.86,1.2,3.98,1.83,6.14,1.83.79,0,1.59-.08,2.38-.25,6.11-1.3,10.02-7.33,8.71-13.44-.63-2.96-2.38-5.5-4.92-7.14-2.54-1.65-5.57-2.2-8.52-1.57-6.11,1.3-10.02,7.33-8.71,13.44.63,2.96,2.38,5.49,4.92,7.14ZM17.43,18.47c.44-.09.89-.14,1.33-.14,1.21,0,2.39.35,3.43,1.02,1.42.92,2.39,2.34,2.75,3.99.73,3.41-1.46,6.78-4.87,7.51-3.41.73-6.78-1.45-7.51-4.87-.73-3.41,1.46-6.78,4.87-7.51Z"/>
      <path d="M12.58,60.46c1.86,1.2,3.98,1.83,6.14,1.83.79,0,1.59-.08,2.38-.25,2.96-.63,5.49-2.38,7.14-4.92,1.65-2.54,2.21-5.57,1.57-8.52-1.3-6.11-7.33-10.02-13.44-8.71-6.11,1.3-10.02,7.33-8.71,13.44.63,2.96,2.38,5.49,4.92,7.14ZM17.43,44.77c.44-.09.88-.14,1.32-.14,2.92,0,5.55,2.04,6.18,5.01.73,3.41-1.46,6.78-4.87,7.51-1.65.35-3.34.04-4.76-.88-1.42-.92-2.39-2.33-2.75-3.99-.73-3.41,1.46-6.78,4.87-7.51Z"/>
      <path d="M66.89,66.19c-6.11,1.3-10.02,7.33-8.71,13.44.63,2.96,2.38,5.5,4.92,7.14,1.86,1.2,3.98,1.83,6.14,1.83.79,0,1.59-.08,2.39-.25,2.96-.63,5.5-2.38,7.14-4.92s2.2-5.57,1.57-8.52c-1.3-6.11-7.32-10.02-13.44-8.71ZM74.56,80.7c-.92,1.42-2.34,2.39-3.99,2.74-1.66.35-3.34.04-4.76-.88-1.42-.92-2.39-2.34-2.75-3.99-.73-3.41,1.46-6.78,4.87-7.51.44-.09.88-.14,1.32-.14,2.92,0,5.55,2.04,6.18,5.01.35,1.65.04,3.34-.88,4.76Z"/>
      <path d="M66.89,39.88c-6.11,1.3-10.02,7.33-8.71,13.44,1.13,5.31,5.85,8.96,11.08,8.96.78,0,1.57-.08,2.36-.25,2.96-.63,5.5-2.38,7.14-4.92,1.65-2.54,2.2-5.57,1.57-8.52-1.3-6.11-7.33-10.02-13.44-8.71ZM74.56,54.4c-.92,1.42-2.34,2.39-3.99,2.75-3.41.73-6.78-1.46-7.51-4.87-.73-3.41,1.46-6.78,4.87-7.51.44-.09.88-.14,1.32-.14,2.92,0,5.55,2.04,6.18,5.01.35,1.65.04,3.34-.88,4.76Z"/>
      <path d="M63.45,22.16c.79-1.82,2.4-3.24,4.48-3.69.44-.09.89-.14,1.33-.14,1.21,0,2.39.35,3.43,1.02,1.42.92,2.39,2.34,2.74,3.99.35,1.65.04,3.34-.88,4.76s-2.34,2.39-3.99,2.75c-3,.64-5.96-.97-7.13-3.69h-5.23c1.19,5.24,5.86,8.83,11.04,8.83.78,0,1.57-.08,2.36-.25,2.96-.63,5.5-2.38,7.14-4.92s2.2-5.57,1.57-8.52c-.63-2.96-2.38-5.5-4.92-7.14-2.54-1.65-5.57-2.2-8.52-1.57-4.45.95-7.72,4.41-8.67,8.58h5.23Z"/>
      <path d="M24.08,80.64c-.88,1.39-2.29,2.44-4.02,2.8-1.66.35-3.34.04-4.76-.88-1.42-.92-2.39-2.34-2.75-3.99-.73-3.41,1.46-6.78,4.87-7.51.44-.09.88-.14,1.32-.14,2.82,0,5.35,1.91,6.09,4.71h5.1c-.04-.25-.07-.5-.12-.74-1.3-6.11-7.33-10.02-13.44-8.71-6.11,1.3-10.02,7.33-8.71,13.44.63,2.96,2.38,5.5,4.92,7.14,1.86,1.2,3.98,1.83,6.14,1.83.79,0,1.59-.08,2.39-.25,4.13-.88,7.25-3.93,8.44-7.7h-5.46Z"/>
      <path class="cls-2" d="M60.8,27.16h2.65c1.17,2.72,4.13,4.33,7.13,3.69,1.65-.35,3.07-1.33,3.99-2.75s1.23-3.11.88-4.76c-.35-1.65-1.33-3.07-2.74-3.99-1.04-.67-2.22-1.02-3.43-1.02-.44,0-.89.05-1.33.14-2.08.44-3.7,1.87-4.48,3.69h-11.63l-2.4,1.8-15.12,51.69h-9.46c-.74-2.8-3.27-4.71-6.09-4.71-.44,0-.88.05-1.32.14-3.41.73-5.59,4.09-4.87,7.51.35,1.65,1.33,3.07,2.75,3.99,1.42.92,3.1,1.23,4.76.88,1.73-.37,3.14-1.42,4.02-2.8h12.09l2.4-1.8,15.12-51.69h7.1Z"/>
    </g>
  </g>
</svg>