<?xml version="1.0" encoding="UTF-8"?>
<svg id="icons" xmlns="http://www.w3.org/2000/svg" viewBox="0 0 100 100">
  <defs>
    <style>
      .cls-1 {
        fill: #fff;
      }

      .cls-2 {
        opacity: .5;
      }
    </style>
  </defs>
  <g class="cls-2">
    <g>
      <polyline points="83.98 65.67 92.14 70.43 72.64 81.81 53.14 70.43 61.29 65.67"/>
      <path class="cls-1" d="M72.64,83.3c-.26,0-.52-.07-.75-.2l-19.5-11.38c-.46-.27-.74-.76-.74-1.29s.28-1.02.74-1.29l8.16-4.76,1.5,2.57-5.95,3.47,16.55,9.66,16.55-9.66-5.95-3.47,1.5-2.57,8.16,4.76c.46.27.74.76.74,1.29s-.28,1.02-.74,1.29l-19.5,11.38c-.23.14-.49.2-.75.2Z"/>
    </g>
    <g>
      <polyline class="cls-1" points="83.97 55.95 92.14 60.72 72.64 72.1 53.14 60.72 61.69 55.73"/>
      <path d="M72.64,73.59c-.26,0-.52-.07-.75-.2l-19.5-11.38c-.46-.27-.74-.76-.74-1.29s.28-1.02.74-1.29l8.55-4.99,1.5,2.57-6.34,3.7,16.55,9.66,16.55-9.66-5.96-3.48,1.5-2.57,8.17,4.77c.46.27.74.76.74,1.29s-.28,1.02-.74,1.29l-19.5,11.38c-.23.14-.49.2-.75.2Z"/>
    </g>
    <g>
      <polygon class="cls-1" points="72.64 62.41 53.14 51.03 72.64 39.65 92.14 51.03 72.64 62.41"/>
      <path d="M72.64,63.9c-.26,0-.52-.07-.75-.2l-19.5-11.38c-.46-.27-.74-.76-.74-1.29s.28-1.02.74-1.29l19.5-11.38c.46-.27,1.04-.27,1.5,0l19.5,11.38c.46.27.74.76.74,1.29s-.28,1.02-.74,1.29l-19.5,11.38c-.23.14-.49.2-.75.2ZM56.09,51.03l16.55,9.66,16.55-9.66-16.55-9.66-16.55,9.66Z"/>
    </g>
  </g>
  <g>
    <g>
      <polyline points="61.16 57.6 74.85 65.59 42.11 84.7 9.37 65.59 23.06 57.6"/>
      <path class="cls-1" d="M42.11,87.2c-.44,0-.87-.11-1.26-.34l-32.74-19.11c-.77-.45-1.24-1.27-1.24-2.16s.47-1.71,1.24-2.16l13.69-7.99,2.52,4.32-9.99,5.83,27.78,16.21,27.78-16.21-9.99-5.83,2.52-4.32,13.69,7.99c.77.45,1.24,1.27,1.24,2.16s-.47,1.71-1.24,2.16l-32.74,19.11c-.39.23-.82.34-1.26.34Z"/>
    </g>
    <g>
      <polyline class="cls-1" points="61.14 41.28 74.85 49.29 42.11 68.39 9.37 49.29 23.72 40.91"/>
      <path d="M42.11,70.89c-.44,0-.87-.11-1.26-.34L8.11,51.44c-.77-.45-1.24-1.27-1.24-2.16s.47-1.71,1.24-2.16l14.35-8.38,2.52,4.32-10.65,6.22,27.78,16.21,27.78-16.21-10.01-5.84,2.52-4.32,13.71,8c.77.45,1.24,1.27,1.24,2.16s-.47,1.71-1.24,2.16l-32.74,19.11c-.39.23-.82.34-1.26.34Z"/>
    </g>
    <g>
      <polygon class="cls-1" points="42.11 52.13 9.37 33.02 42.11 13.91 74.85 33.02 42.11 52.13"/>
      <path d="M42.11,54.63c-.44,0-.87-.11-1.26-.34L8.11,35.18c-.77-.45-1.24-1.27-1.24-2.16s.47-1.71,1.24-2.16L40.85,11.75c.78-.46,1.74-.46,2.52,0l32.74,19.11c.77.45,1.24,1.27,1.24,2.16s-.47,1.71-1.24,2.16l-32.74,19.11c-.39.23-.82.34-1.26.34ZM14.33,33.02l27.78,16.21,27.78-16.21-27.78-16.22-27.78,16.22Z"/>
    </g>
  </g>
</svg>