<?xml version="1.0" encoding="utf-8"?>
<!-- Generator: Adobe Illustrator 25.2.3, SVG Export Plug-In . SVG Version: 6.00 Build 0)  -->
<svg version="1.1" id="Layer_1" xmlns="http://www.w3.org/2000/svg" xmlns:xlink="http://www.w3.org/1999/xlink" x="0px" y="0px"
	 viewBox="0 0 566 566" style="enable-background:new 0 0 566 566;" xml:space="preserve">
<style type="text/css">
	.st0{opacity:5.000000e-02;enable-background:new    ;}
	.st1{opacity:5.000000e-02;fill:none;stroke:#FF00FF;enable-background:new    ;}
	.st2{opacity:5.000000e-02;}
	.st3{fill:#708DCC;}
	.st4{fill:#ED1E79;}
	.st5{fill:#FFFFFF;}
</style>
<path class="st0" d="M233,233L233,233z"/>
<path class="st1" d="M233,233L233,233L233,233L233,233z"/>
<g class="st2">
	<g>
		<path class="st3" d="M315.3,539.1c-4,0.6-7.7-2.2-8.3-6.2l-15.2-104c-0.6-4,2.2-7.7,6.2-8.3s7.7,2.2,8.3,6.2l15.2,104
			C322.1,534.8,319.3,538.5,315.3,539.1z"/>
	</g>
	<g>
		<path class="st3" d="M149.3,244c-1.2,0.2-2.5,0-3.8-0.4l-97.7-38.9c-3.8-1.5-5.6-5.8-4.1-9.5c1.5-3.8,5.7-5.6,9.5-4.1l97.7,38.9
			c3.8,1.5,5.6,5.8,4.1,9.5C154.1,242,151.8,243.6,149.3,244z"/>
	</g>
	<g>
		<path class="st4" d="M299.3,429.2c-7.8,1.1-15.9,0.3-23.4-2.7c-3.8-1.5-5.6-5.8-4.1-9.5c1.5-3.8,5.8-5.6,9.5-4.1
			c10.2,4.1,22,2.4,30.6-4.5l75.6-59.7c8.6-6.8,13-17.8,11.4-28.8L385,224.5c-1.6-10.9-8.9-20.2-19.2-24.3l-89.5-35.6
			c-10.2-4.1-22-2.4-30.6,4.5l-75.6,59.7c-8.6,6.8-13,17.8-11.4,28.7c0.6,4-2.2,7.7-6.2,8.3c-4,0.6-7.7-2.2-8.3-6.2
			c-2.3-16.1,4.1-32.3,16.9-42.4l75.6-59.7c12.7-10.1,30-12.6,45.1-6.6l89.5,35.6c15.1,6,25.9,19.7,28.2,35.8l13.9,95.4
			c2.3,16.1-4.1,32.3-16.9,42.4L321,419.9C314.6,424.9,307.1,428.1,299.3,429.2z"/>
	</g>
	<g>
		<path class="st4" d="M394.8,372.5c-6.3,0.9-12.8-1.4-17-6.8c-6.3-7.9-4.9-19.4,3-25.7c5.6-4.4,8.4-11.5,7.4-18.5l-13.9-95.4
			c-1-7-5.8-13-12.4-15.7l-89.5-35.7c-6.6-2.6-14.2-1.5-19.8,2.9c-7.9,6.3-19.5,4.9-25.7-3c-6.3-7.9-4.9-19.4,3-25.7
			c15.8-12.5,37.3-15.6,56-8.2l89.5,35.6c18.7,7.4,32.1,24.5,35.1,44.4l13.9,95.4c2.9,19.9-5.1,40.1-20.9,52.6
			C400.8,370.8,397.8,372.1,394.8,372.5z"/>
	</g>
	<g>
		<path class="st4" d="M261.2,167.8c-10,1.5-19.3-5.5-20.8-15.5l-15.2-104c-1.5-10,5.5-19.3,15.5-20.8S260,33,261.5,43l15.2,104
			C278.2,157,271.2,166.3,261.2,167.8z"/>
	</g>
	<g>
		<path class="st4" d="M509.7,397.7c-3.1,0.4-6.3,0.1-9.4-1.1l-97.7-38.9c-9.4-3.7-14-14.4-10.2-23.8s14.4-14,23.8-10.2l97.7,38.9
			c9.4,3.7,14,14.4,10.2,23.8C521.6,392.7,516,396.8,509.7,397.7z"/>
	</g>
	<g>
		<path class="st5" d="M173.8,412.1c-2.4,0.3-4.8,0.4-7.2,0.3s-4.7-0.5-7.1-1.1c-2.3-0.6-4.6-1.3-6.7-2.4c-2.2-1.1-4.3-2.3-6.2-3.8
			c-1.9-1.4-3.7-3-5.3-4.9c-1.6-1.8-3.1-3.7-4.2-5.7c-1.3-2-2.2-4.3-3.1-6.5c-0.8-2.3-1.3-4.6-1.7-6.9c-0.3-2.4-0.5-4.8-0.4-7.2
			c0.2-2.4,0.6-4.7,1.1-7.1s1.4-4.6,2.4-6.8c1-2.1,2.3-4.2,3.7-6.2c1.4-1.9,3.1-3.7,4.9-5.3c1.8-1.6,3.7-3,5.7-4.2
			c2.1-1.2,4.3-2.2,6.5-3c11.4-4.1,24.5-2.1,34.1,5.1c1.9,1.4,3.7,3.1,5.3,4.9s3.1,3.7,4.3,5.8c1.3,2,2.3,4.2,3.1,6.4
			c0.8,2.3,1.4,4.6,1.8,7c0.3,2.3,0.4,4.8,0.3,7.1c-0.1,2.4-0.5,4.8-1.1,7.1c-0.6,2.3-1.4,4.6-2.4,6.7c-1,2.2-2.3,4.2-3.7,6.2
			C192.1,405.4,183.3,410.7,173.8,412.1z"/>
	</g>
	<g>
		<path class="st5" d="M284.1,325c-9.6,1.4-19.5-1.1-27.2-6.8c-1.9-1.4-3.7-3.1-5.3-4.9s-3-3.7-4.2-5.7c-1.2-2.1-2.2-4.2-3-6.4
			c-0.9-2.3-1.4-4.6-1.8-7c-0.3-2.4-0.5-4.7-0.3-7.2c0.1-2.4,0.5-4.7,1-7c0.6-2.3,1.4-4.6,2.4-6.7c1-2.2,2.3-4.3,3.7-6.2
			c5.8-7.7,14.5-12.9,24.1-14.3c9.5-1.4,19.4,1.1,27.2,6.8c1.9,1.5,3.7,3.1,5.3,4.9c1.6,1.8,3,3.7,4.2,5.7s2.2,4.2,3,6.4
			c0.9,2.3,1.4,4.7,1.8,7c0.3,2.4,0.5,4.7,0.3,7.2c-0.1,2.4-0.5,4.7-1,7c-0.6,2.3-1.4,4.6-2.4,6.7c-1.1,2.2-2.3,4.3-3.8,6.2
			C302.4,318.4,293.7,323.6,284.1,325z"/>
	</g>
	<g>
		<path class="st4" d="M397.1,256c-3.6,0.5-7.2,0.7-10.7,0.5c-3.6-0.2-7.1-0.7-10.7-1.6c-3.5-0.9-6.8-2.1-10.1-3.6
			c-3.3-1.5-6.3-3.4-9.2-5.5c-2.9-2.2-5.5-4.6-7.9-7.3s-4.6-5.6-6.4-8.7c-1.9-3.1-3.4-6.3-4.6-9.7s-2.1-6.9-2.6-10.5
			s-0.7-7.2-0.5-10.7c0.2-3.6,0.7-7.1,1.6-10.7c0.8-3.5,2.1-6.8,3.6-10.1s3.4-6.4,5.5-9.2c2.2-2.9,4.6-5.6,7.3-7.9s5.5-4.6,8.6-6.4
			c3.1-1.9,6.4-3.4,9.8-4.6c6.8-2.5,14-3.5,21.2-3.1c3.6,0.2,7.1,0.7,10.6,1.6c3.4,0.8,6.9,2.1,10.1,3.6c3.3,1.5,6.3,3.4,9.2,5.5
			c2.8,2.1,5.6,4.6,7.9,7.3c2.4,2.7,4.5,5.6,6.4,8.6c1.8,3.1,3.4,6.4,4.5,9.8c1.2,3.4,2.1,6.9,2.6,10.4s0.7,7.2,0.5,10.8
			c-0.1,3.6-0.7,7.1-1.6,10.6s-2.1,6.9-3.6,10.1c-1.5,3.3-3.4,6.3-5.5,9.2c-2.2,2.8-4.6,5.6-7.3,7.9s-5.6,4.5-8.7,6.4
			s-6.3,3.4-9.7,4.6C404.1,254.6,400.6,255.4,397.1,256z"/>
	</g>
	<g>
		<path class="st5" d="M169.6,383.1c-2.5,0.4-5.1-0.6-6.8-2.7c-2.5-3.2-2-7.8,1.2-10.3L274.3,283c3.2-2.5,7.8-2,10.3,1.2
			s2,7.8-1.2,10.3l-110.3,87.1C172,382.4,170.8,382.9,169.6,383.1z"/>
	</g>
	<g>
		<path class="st5" d="M394.4,237.8c-2.3,0.3-4.7,0.5-7.1,0.4c-2.4-0.2-4.8-0.5-7.1-1.1c-2.3-0.6-4.6-1.4-6.7-2.4
			c-2.2-1-4.3-2.3-6.2-3.7c-1.9-1.4-3.7-3.1-5.3-4.9c-1.7-1.8-3.1-3.7-4.3-5.8c-1.3-2-2.3-4.2-3.1-6.4c-0.8-2.2-1.4-4.6-1.8-7
			c-1.4-9.5,1.2-19.4,6.9-27.1c7.2-9.6,19.1-15.4,31.2-14.7c2.4,0.1,4.7,0.5,7.1,1.1c2.4,0.5,4.6,1.3,6.8,2.4c2.1,1,4.3,2.3,6.2,3.7
			c1.9,1.4,3.7,3,5.3,4.9c1.6,1.8,3,3.7,4.2,5.7c1.2,2.1,2.2,4.3,3,6.5s1.4,4.6,1.8,6.9c0.3,2.4,0.5,4.8,0.3,7.2
			c-0.1,2.4-0.5,4.7-1,7c-0.6,2.4-1.4,4.6-2.4,6.8c-1,2.1-2.3,4.3-3.7,6.2c-1.4,1.9-3.1,3.7-4.9,5.3s-3.7,3.1-5.8,4.3
			c-2,1.3-4.2,2.2-6.4,3.1C399.2,236.9,396.8,237.5,394.4,237.8z"/>
	</g>
</g>
</svg>
