<?xml version="1.0" encoding="utf-8"?>
<!-- Generator: Adobe Illustrator 25.2.3, SVG Export Plug-In . SVG Version: 6.00 Build 0)  -->
<svg version="1.1" id="Accent" xmlns="http://www.w3.org/2000/svg" xmlns:xlink="http://www.w3.org/1999/xlink" x="0px" y="0px"
	 viewBox="0 0 429.7 241.7" style="enable-background:new 0 0 429.7 241.7;" xml:space="preserve">
<style type="text/css">
	.st0{fill:#FFFFFF;}
</style>
<path class="st0" d="M240.3,159.6c0.1-0.4,0.2-0.7,0.4-1c0.2-0.3,0.5-0.5,0.8-0.6c1-0.4,2.1-0.3,3,0.3l0.3,0.2
	c0.1,0.1,0.2,0.1,0.3,0.1c0.3,0,0.6-0.2,0.6-0.6c0,0,0,0,0,0c0-0.2-0.1-0.4-0.3-0.6c-0.2-0.2-0.4-0.4-0.7-0.5
	c-0.3-0.1-0.7-0.3-1-0.3c-0.4-0.1-0.8-0.1-1.1-0.1c-0.6,0-1.2,0.1-1.8,0.3c-0.5,0.2-0.9,0.5-1.2,0.9c-0.3,0.4-0.6,0.9-0.7,1.4
	c-0.2,0.6-0.2,1.2-0.2,1.8v3.7c0,0.6,0.1,1.2,0.2,1.8c0.1,0.5,0.4,1,0.7,1.4c0.3,0.4,0.7,0.7,1.2,0.9c0.6,0.2,1.2,0.3,1.8,0.3
	c0.4,0,0.8,0,1.1-0.1c0.3-0.1,0.7-0.2,1-0.3c0.3-0.1,0.5-0.3,0.7-0.5c0.2-0.2,0.3-0.4,0.3-0.6c0-0.2-0.1-0.3-0.2-0.4
	c-0.1-0.1-0.3-0.2-0.5-0.2c-0.1,0-0.2,0-0.3,0.1l-0.3,0.2c-0.5,0.4-1.1,0.5-1.8,0.5c-0.4,0-0.8-0.1-1.2-0.2
	c-0.3-0.1-0.6-0.4-0.8-0.6c-0.2-0.3-0.4-0.6-0.4-1c-0.1-0.4-0.1-0.9-0.1-1.3v-3.7C240.2,160.5,240.3,160,240.3,159.6z M242.6,95.4
	c2.3,0,4.5,0.6,6.4,1.9l0.8,0.5c0.9,0.8,2.1,1.2,3.4,1.2c2.7,0.1,5-1.9,5.1-4.6c0,0,0,0,0,0c0-4.5-7.9-8.3-16.1-8.3
	c-13.6,0-19.8,8.1-19.8,20.4v15.4c0,12.3,6.2,20.4,19.8,20.4c8.2,0,16.1-3.8,16.1-8.3c-0.1-2.7-2.4-4.8-5.1-4.7c0,0,0,0,0,0
	c-1.2,0-2.4,0.4-3.4,1.2l-0.8,0.5c-1.9,1.3-4.2,1.9-6.5,1.9c-7,0-9.3-4.2-9.3-10.9v-15.4C233.2,99.6,235.6,95.4,242.6,95.4z
	 M253.4,162.1h-2.1c-0.2,0-0.3,0.1-0.5,0.2c-0.1,0.1-0.2,0.3-0.2,0.5c0,0.2,0.1,0.3,0.2,0.5c0.1,0.1,0.3,0.2,0.5,0.2h1.7v3.7
	c-0.3,0.2-0.6,0.4-0.9,0.5c-0.3,0.1-0.7,0.2-1.1,0.2c-0.4,0-0.8-0.1-1.2-0.2c-0.3-0.1-0.6-0.3-0.8-0.6c-0.2-0.3-0.4-0.6-0.4-1
	c-0.1-0.4-0.1-0.9-0.1-1.3V161c0-0.4,0-0.9,0.1-1.3c0.1-0.4,0.2-0.7,0.4-1c0.2-0.3,0.5-0.5,0.8-0.6c0.4-0.2,0.8-0.2,1.2-0.2
	c0.6,0,1.2,0.2,1.7,0.5c0.1,0.1,0.2,0.1,0.3,0.2c0.1,0.1,0.2,0.1,0.3,0.1c0.2,0,0.3-0.1,0.4-0.2c0.1-0.1,0.2-0.3,0.1-0.4
	c0-0.2-0.1-0.4-0.3-0.6c-0.2-0.2-0.4-0.4-0.7-0.5c-0.3-0.1-0.7-0.3-1-0.3c-0.4-0.1-0.8-0.1-1.1-0.1c-0.6,0-1.2,0.1-1.8,0.3
	c-0.5,0.2-0.9,0.5-1.2,0.9c-0.3,0.4-0.6,0.9-0.7,1.4c-0.2,0.6-0.2,1.2-0.2,1.8v3.7c0,0.6,0.1,1.2,0.2,1.8c0.1,0.5,0.4,1,0.7,1.4
	c0.3,0.4,0.7,0.7,1.2,0.9c0.6,0.2,1.2,0.3,1.8,0.3c0.4,0,0.8,0,1.2-0.1c0.4-0.1,0.8-0.2,1.1-0.4c0.3-0.2,0.6-0.4,0.8-0.6
	c0.2-0.3,0.3-0.6,0.3-0.9v-4.2c0-0.2-0.1-0.5-0.3-0.6C253.8,162.2,253.6,162.1,253.4,162.1z M236.4,157.8c-0.3-0.4-0.7-0.7-1.2-0.9
	c-0.6-0.2-1.2-0.3-1.8-0.3h-2.6c-0.2,0-0.4,0.1-0.6,0.2c-0.2,0.2-0.2,0.4-0.2,0.6v10.9c0,0.2,0.1,0.4,0.2,0.5c0.3,0.3,0.7,0.3,1,0
	c0,0,0,0,0,0c0.1-0.1,0.2-0.3,0.2-0.5v-4h2c1,0.1,2.1-0.3,2.9-1c0.7-0.8,1.1-1.8,1.1-2.9c0-0.5-0.1-1-0.2-1.5
	C237,158.6,236.8,158.2,236.4,157.8z M235.3,162.4c-0.5,0.4-1.2,0.7-1.9,0.6h-2v-5h2c0.4,0,0.9,0.1,1.3,0.2c0.3,0.1,0.6,0.3,0.8,0.6
	c0.2,0.2,0.3,0.5,0.4,0.8c0.1,0.3,0.1,0.6,0.1,0.9C236,161.2,235.8,161.9,235.3,162.4L235.3,162.4z M193.8,160
	c-0.4,0-0.9,0.1-1.3,0.2c-0.4,0.1-0.8,0.3-1.2,0.6c-0.1-0.1-0.2-0.3-0.3-0.4c-0.1-0.1-0.3-0.1-0.4-0.1c-0.2,0-0.3,0.1-0.5,0.2
	c-0.1,0.1-0.2,0.3-0.2,0.4c0,0.1,0,0.2,0.1,0.2l0.1,0.1c0,0.1,0.1,0.1,0.1,0.2c0,0.1,0.1,0.1,0.1,0.2c0,0.1,0.1,0.2,0.1,0.3
	c0,0.2,0,0.4,0,0.6v5.9c0,0.2,0.1,0.3,0.2,0.5c0.1,0.1,0.3,0.2,0.5,0.2c0.2,0,0.4-0.1,0.5-0.2c0.1-0.1,0.2-0.3,0.2-0.5v-5.9
	c0-0.2,0-0.3-0.1-0.5c0.3-0.2,0.6-0.4,0.9-0.5c0.3-0.1,0.7-0.2,1-0.2c0.5,0,0.9,0.2,1.2,0.5c0.3,0.5,0.4,1,0.4,1.5v5.1
	c0,0.2,0.1,0.3,0.2,0.5c0.1,0.1,0.3,0.2,0.5,0.2c0.2,0,0.4-0.1,0.5-0.2c0.1-0.1,0.2-0.3,0.2-0.5v-5.1c0-0.8-0.2-1.7-0.7-2.4
	C195.4,160.3,194.6,160,193.8,160z M216.4,104.8c0-9.5-5.2-18.2-19.9-18.2h-11.4c-3.2,0-5.9,2.4-6.1,5.6V137c0,3,2.4,5.5,5.5,5.5
	s5.5-2.4,5.5-5.5l0,0v-14.2h6.6C208.7,122.8,216.4,116.3,216.4,104.8z M196.6,112.9H190V96.4h6.6c7.3,0,8.9,4.2,8.9,8.2
	C205.5,110.3,202.4,112.9,196.6,112.9z M267.5,167.6h-4.3v-4.1h3.8c0.2,0,0.4-0.1,0.5-0.2c0.1-0.1,0.2-0.3,0.2-0.5
	c0-0.2-0.1-0.4-0.2-0.5c-0.1-0.1-0.3-0.2-0.5-0.2h-3.8V158h4.1c0.2,0,0.4-0.1,0.5-0.2c0.1-0.1,0.2-0.3,0.2-0.5
	c0-0.2-0.1-0.4-0.2-0.5c-0.1-0.1-0.3-0.2-0.5-0.2h-4.7c-0.2,0-0.4,0.1-0.6,0.3c-0.1,0.2-0.2,0.4-0.2,0.6v10.6c0,0.3,0.1,0.5,0.3,0.6
	c0.2,0.1,0.5,0.2,0.8,0.2h4.6c0.2,0,0.4-0.1,0.5-0.2c0.1-0.1,0.2-0.3,0.2-0.5c0-0.2-0.1-0.3-0.2-0.5
	C267.9,167.6,267.7,167.6,267.5,167.6z M187.2,156.5c-0.2,0-0.4,0.1-0.5,0.2c-0.1,0.1-0.2,0.3-0.2,0.5v7.7c0,0.4,0,0.8-0.1,1.1
	c-0.1,0.3-0.2,0.6-0.4,0.9c-0.2,0.3-0.5,0.5-0.8,0.6c-0.3,0.1-0.7,0.2-1.1,0.2c-0.7,0.1-1.4-0.2-1.9-0.8c-0.4-0.6-0.6-1.3-0.6-2
	v-7.8c0-0.2-0.1-0.4-0.2-0.5c-0.1-0.1-0.3-0.2-0.5-0.2c-0.2,0-0.4,0.1-0.5,0.2c-0.1,0.1-0.2,0.3-0.2,0.5v7.7c0,0.6,0.1,1.1,0.2,1.7
	c0.2,0.5,0.4,0.9,0.7,1.3c0.3,0.4,0.7,0.7,1.2,0.9c0.5,0.2,1.1,0.3,1.6,0.3c0.6,0,1.1-0.1,1.6-0.3c0.5-0.2,0.9-0.5,1.2-0.9
	c0.3-0.4,0.6-0.8,0.8-1.3c0.2-0.5,0.3-1.1,0.3-1.7v-7.7c0-0.2-0.1-0.4-0.2-0.5C187.6,156.5,187.4,156.5,187.2,156.5z M202.6,160
	c-0.4,0-0.8,0.1-1.2,0.2c-0.4,0.1-0.8,0.3-1.2,0.6c-0.1-0.1-0.2-0.2-0.3-0.3c-0.1-0.1-0.2-0.1-0.4-0.1c-0.2,0-0.3,0.1-0.4,0.2
	c-0.1,0.1-0.2,0.3-0.2,0.4c0,0.1,0,0.1,0,0.2l0.1,0.1c0.1,0.2,0.2,0.3,0.2,0.5c0,0.2,0.1,0.5,0.1,0.7v5.9c0,0.4,0.3,0.7,0.7,0.7
	c0.2,0,0.3-0.1,0.5-0.2c0.1-0.1,0.2-0.3,0.2-0.5v-5.9c0-0.1,0-0.1,0-0.2c0-0.1,0-0.2,0-0.3c0.3-0.3,0.7-0.5,1.1-0.6
	c0.3-0.1,0.7-0.1,1.1-0.1c0.2,0,0.4-0.1,0.5-0.2c0.1-0.1,0.2-0.3,0.2-0.5c0-0.2-0.1-0.3-0.2-0.5C203.1,160,202.8,160,202.6,160z
	 M222.4,168.1c-0.1-0.1-0.2-0.2-0.2-0.3c0-0.2,0-0.3,0-0.5V157c0-0.4-0.3-0.7-0.6-0.7c0,0,0,0-0.1,0c-0.2,0-0.4,0.1-0.5,0.2
	c-0.1,0.1-0.2,0.3-0.2,0.5v10.3c0,0.3,0,0.6,0.1,0.9c0.1,0.2,0.2,0.4,0.3,0.5c0.1,0.1,0.2,0.2,0.4,0.2c0.1,0,0.2,0.1,0.4,0.1
	c0.2,0,0.3-0.1,0.4-0.2c0.1-0.1,0.2-0.3,0.2-0.4c0-0.1,0-0.1,0-0.2L222.4,168.1z M218.6,167.8h-0.1c-0.2,0-0.3-0.2-0.3-0.5v-3.8
	c0.1-0.9-0.2-1.9-0.7-2.6c-0.6-0.6-1.5-1-2.3-0.9c-0.3,0-0.6,0-0.9,0.1c-0.3,0-0.5,0.1-0.8,0.2c-0.2,0.1-0.4,0.2-0.6,0.4
	c-0.1,0.1-0.2,0.3-0.2,0.5c0,0.1,0.1,0.3,0.1,0.4c0.1,0.1,0.2,0.2,0.4,0.2c0.1,0,0.2,0,0.3-0.1l0.2-0.1c0.2-0.1,0.4-0.2,0.6-0.3
	c0.2-0.1,0.5-0.1,0.7-0.1c0.9-0.1,1.7,0.5,1.9,1.4c0,0.2,0,0.3,0,0.5v1c-0.6-0.2-1.2-0.3-1.8-0.2c-2.1,0-3.1,0.9-3.1,2.6v0.1
	c0,0.7,0.2,1.4,0.6,1.9c0.5,0.5,1.3,0.8,2,0.7c0.9,0,1.7-0.3,2.4-0.9c0.1,0.2,0.3,0.5,0.5,0.6c0.2,0.2,0.5,0.2,0.8,0.2
	c0.2,0,0.4,0,0.5-0.1c0.2-0.1,0.3-0.3,0.2-0.5c0-0.1,0-0.3-0.1-0.4C218.8,167.8,218.7,167.8,218.6,167.8L218.6,167.8z M216.7,167
	c-0.3,0.2-0.6,0.4-0.9,0.6c-0.3,0.1-0.7,0.2-1,0.2c-0.7,0.1-1.4-0.3-1.5-1c0-0.1,0-0.3,0-0.4v-0.1c0-0.2,0-0.4,0.1-0.6
	c0-0.2,0.1-0.3,0.2-0.5c0.1-0.1,0.3-0.3,0.5-0.3c0.3-0.1,0.6-0.1,0.9-0.1c0.3,0,0.6,0,0.9,0.1c0.3,0,0.6,0.1,0.9,0.2L216.7,167z
	 M206.8,165.3h0.9c0.8,0.1,1.6-0.2,2.3-0.7c0.5-0.5,0.7-1.2,0.7-1.9c0-0.8-0.2-1.5-0.7-2.1c-0.6-0.6-1.4-0.8-2.2-0.8
	c-0.5,0-0.9,0.1-1.4,0.2c-0.4,0.1-0.7,0.3-1,0.6c-0.3,0.3-0.5,0.6-0.6,0.9c-0.1,0.4-0.2,0.8-0.2,1.2v3.3c0,0.4,0.1,0.8,0.2,1.1
	c0.1,0.3,0.3,0.7,0.6,0.9c0.3,0.3,0.6,0.5,1,0.6c0.4,0.2,0.9,0.2,1.3,0.2c0.3,0,0.6,0,0.8-0.1c0.3,0,0.6-0.1,0.9-0.2
	c0.3-0.1,0.5-0.2,0.8-0.4c0.2-0.1,0.3-0.3,0.3-0.5c0-0.2-0.1-0.3-0.2-0.4c-0.1-0.1-0.3-0.2-0.4-0.2h-0.1h-0.1
	c-0.3,0.1-0.6,0.2-0.9,0.4c-0.3,0.1-0.7,0.2-1,0.1c-0.5,0-1-0.1-1.4-0.4c-0.3-0.3-0.5-0.7-0.5-1.2v-1
	C206.2,165.2,206.5,165.3,206.8,165.3L206.8,165.3z M205.9,162.8c0-0.4,0.1-0.9,0.5-1.2c0.4-0.3,0.8-0.5,1.3-0.4
	c0.4,0,0.8,0.1,1.2,0.4c0.3,0.3,0.5,0.8,0.4,1.2c0,0.2,0,0.3-0.1,0.5c0,0.2-0.1,0.3-0.2,0.5c-0.1,0.1-0.3,0.3-0.5,0.3
	c-0.3,0.1-0.5,0.1-0.8,0.1c-0.2,0-0.4,0-0.8,0s-0.7-0.1-1-0.1L205.9,162.8z M305.7,168c-0.2-0.1-0.3-0.3-0.4-0.4
	c-0.1-0.2-0.1-0.4-0.1-0.6V157c0-0.2-0.1-0.3-0.2-0.5c-0.1-0.1-0.3-0.2-0.5-0.2c-0.2,0-0.4,0.1-0.5,0.2c-0.1,0.1-0.2,0.3-0.2,0.5
	v3.4c-0.3-0.1-0.7-0.2-1-0.2c-0.3-0.1-0.6-0.1-0.9-0.2c-0.5,0-1,0.1-1.4,0.3c-0.4,0.2-0.7,0.4-0.9,0.7c-0.2,0.3-0.4,0.7-0.5,1.1
	c-0.1,0.5-0.1,0.9-0.1,1.4v2.2c0,0.8,0.2,1.7,0.7,2.4c0.5,0.6,1.3,1,2.1,0.9c0.4,0,0.9-0.1,1.3-0.2c0.4-0.1,0.8-0.3,1.2-0.5
	c0.1,0.2,0.2,0.3,0.4,0.4c0.2,0.1,0.3,0.2,0.5,0.2c0.2,0,0.3-0.1,0.4-0.2c0.1-0.1,0.2-0.3,0.2-0.4c0-0.1,0-0.1,0-0.2L305.7,168z
	 M303,167.7c-0.3,0.1-0.6,0.1-0.9,0.1c-1.1,0-1.7-0.7-1.7-2.1v-2.2c0-0.6,0.1-1.2,0.4-1.8c0.3-0.4,0.8-0.6,1.3-0.6
	c0.3,0,0.5,0,0.8,0.1c0.3,0.1,0.6,0.1,0.9,0.3v5.5c0,0.1,0,0.1,0,0.2C303.6,167.5,303.3,167.6,303,167.7L303,167.7z M354.1,168.1
	c-0.1-0.1-0.2-0.2-0.2-0.3c0-0.2,0-0.3,0-0.5V157c0-0.2-0.1-0.4-0.2-0.5c-0.1-0.1-0.3-0.2-0.5-0.2c-0.2,0-0.4,0.1-0.5,0.2
	c-0.1,0.1-0.2,0.3-0.2,0.5v10.3c0,0.3,0,0.6,0.1,0.9c0,0.2,0.1,0.4,0.3,0.5c0.1,0.1,0.2,0.2,0.4,0.2c0.1,0,0.2,0.1,0.4,0.1
	c0.2,0,0.3-0.1,0.4-0.2c0.1-0.1,0.2-0.3,0.2-0.4c0-0.1,0-0.1,0-0.2C354.2,168.2,354.2,168.2,354.1,168.1L354.1,168.1z M364.8,160
	c-0.2,0-0.4,0.1-0.5,0.2c-0.1,0.1-0.2,0.3-0.2,0.5v7.7c0,0.2,0.1,0.4,0.2,0.5c0.1,0.1,0.3,0.2,0.5,0.2c0.2,0,0.4-0.1,0.5-0.2
	c0.1-0.1,0.2-0.3,0.2-0.5v-7.7c0-0.2-0.1-0.4-0.2-0.5C365.1,160.1,365,160,364.8,160z M341.5,160.8c-0.3-0.3-0.6-0.5-1-0.7
	c-0.5-0.2-0.9-0.3-1.4-0.2c-0.5,0-1,0.1-1.4,0.2c-0.4,0.2-0.7,0.4-1,0.7c-0.3,0.3-0.5,0.6-0.6,1c-0.1,0.4-0.2,0.8-0.2,1.2v2.9
	c0,0.4,0.1,0.8,0.2,1.2c0.1,0.4,0.3,0.7,0.6,1c0.3,0.3,0.6,0.5,1,0.6c0.5,0.2,0.9,0.2,1.4,0.2c0.5,0,1-0.1,1.4-0.2
	c0.4-0.1,0.7-0.4,1-0.6c0.3-0.3,0.5-0.6,0.6-1c0.1-0.4,0.2-0.8,0.2-1.2v-2.9c0-0.4-0.1-0.8-0.2-1.2
	C342,161.5,341.8,161.1,341.5,160.8L341.5,160.8z M341,166c0,0.5-0.1,1-0.5,1.4c-0.8,0.6-2,0.6-2.8,0c-0.3-0.4-0.5-0.9-0.5-1.4v-3
	c0-0.5,0.1-1,0.5-1.3c0.8-0.7,2-0.7,2.8,0c0.3,0.4,0.5,0.8,0.5,1.3V166z M349.6,160.9c-0.3-0.3-0.6-0.5-1-0.7
	c-0.5-0.2-0.9-0.3-1.4-0.2c-0.5,0-1,0.1-1.4,0.2c-0.4,0.2-0.7,0.4-1,0.7c-0.3,0.3-0.5,0.6-0.6,1c-0.1,0.4-0.2,0.8-0.2,1.2v2.9
	c0,0.4,0.1,0.8,0.2,1.2c0.1,0.4,0.3,0.7,0.6,1c0.3,0.3,0.6,0.5,1,0.6c0.5,0.2,0.9,0.2,1.4,0.2c0.5,0,1-0.1,1.4-0.2
	c0.4-0.1,0.7-0.4,1-0.6c0.3-0.3,0.5-0.6,0.6-1c0.1-0.4,0.2-0.8,0.2-1.2v-2.9c0-0.4-0.1-0.8-0.2-1.2
	C350.1,161.5,349.9,161.1,349.6,160.9L349.6,160.9z M349.1,166c0,0.5-0.1,1-0.5,1.4c-0.8,0.6-2,0.6-2.8,0c-0.3-0.4-0.5-0.9-0.5-1.4
	v-3c0-0.5,0.1-1,0.5-1.3c0.8-0.7,2-0.7,2.8,0c0.3,0.4,0.5,0.8,0.5,1.3V166z M273.3,164.5l2.3-3.5c0-0.1,0.1-0.1,0.1-0.2
	c0-0.1,0-0.1,0-0.2c0-0.2-0.1-0.3-0.2-0.5c-0.1-0.1-0.3-0.2-0.5-0.2c-0.1,0-0.3,0-0.4,0.1c-0.1,0.1-0.2,0.2-0.3,0.3l-1.8,2.8
	l-1.8-2.7c-0.1-0.1-0.2-0.3-0.3-0.4c-0.1-0.1-0.3-0.2-0.5-0.2c-0.2,0-0.4,0.1-0.5,0.2c-0.1,0.1-0.2,0.3-0.2,0.5c0,0.1,0,0.2,0.1,0.3
	l2.3,3.4l-2.4,3.6c-0.1,0.1-0.1,0.2-0.1,0.3c0,0.2,0.1,0.4,0.2,0.5c0.1,0.1,0.3,0.2,0.5,0.2c0.2,0,0.4-0.1,0.5-0.4l2.1-3.1l2,3
	c0.1,0.1,0.2,0.3,0.3,0.4c0.1,0.1,0.2,0.1,0.4,0.1c0.2,0,0.4-0.1,0.5-0.2c0.1-0.1,0.2-0.3,0.2-0.5c0-0.1,0-0.2-0.1-0.3L273.3,164.5z
	 M371.9,167.8c-0.1,0-0.2-0.1-0.3-0.1h-0.3H371c-0.3,0-0.5,0-0.8-0.1c-0.2-0.1-0.3-0.2-0.4-0.4c-0.1-0.2-0.2-0.5-0.2-0.8
	c0-0.3,0-0.7,0-1.1v-3.5h1.8c0.2,0,0.3-0.1,0.5-0.2c0.1-0.1,0.2-0.3,0.2-0.5c0-0.2-0.1-0.3-0.2-0.5c-0.1-0.1-0.3-0.2-0.5-0.2h-1.8
	v-2.4c0-0.2-0.1-0.3-0.2-0.5c-0.1-0.1-0.3-0.2-0.5-0.2c-0.2,0-0.4,0.1-0.5,0.2c-0.1,0.1-0.2,0.3-0.2,0.5v7.3c0,0.5,0,1.1,0.1,1.6
	c0.1,0.4,0.2,0.8,0.5,1.1c0.2,0.3,0.6,0.5,0.9,0.7c0.5,0.2,1,0.2,1.5,0.2h0.4c0.1,0,0.2,0,0.3-0.1c0.1,0,0.2-0.1,0.2-0.2
	c0.1-0.1,0.1-0.2,0.1-0.4c0-0.1,0-0.2-0.1-0.3C372.1,167.9,372,167.9,371.9,167.8L371.9,167.8z M364.8,156.5c-0.2,0-0.4,0.1-0.6,0.2
	c-0.3,0.3-0.3,0.9,0,1.2c0.2,0.2,0.4,0.2,0.6,0.2c0.5,0.1,0.9-0.3,0.9-0.7c0.1-0.5-0.3-0.9-0.7-0.9
	C364.9,156.5,364.8,156.5,364.8,156.5L364.8,156.5z M370,142c1.4,0,2.6-1.1,2.6-2.5c0,0,0-0.1,0-0.1c0-0.3-0.1-0.7-0.2-1l-11.5-17
	l10.7-16.1c0.2-0.3,0.3-0.8,0.3-1.2c-0.1-1.3-1.1-2.3-2.4-2.4c-1.2,0-1.8,0.7-2.5,1.8l-9,13.8l-9-13.9c-0.7-1.1-1.2-1.8-2.5-1.8
	c-1.3,0.1-2.3,1.1-2.4,2.4c0,0.4,0.1,0.8,0.3,1.2l10.7,16.1l-11.7,17.2c-0.2,0.3-0.3,0.6-0.3,1c0,1.4,1.1,2.5,2.5,2.5
	c0,0,0.1,0,0.1,0c0.8,0,1.6-0.5,2-1.2l10-15.2l9.6,14.7C368.2,141.4,368.7,142,370,142z M362.3,168.1l-3-4.4l2.6-2.6
	c0.1-0.1,0.2-0.3,0.2-0.5c0-0.2-0.1-0.3-0.2-0.4c-0.1-0.1-0.3-0.2-0.5-0.2c-0.1,0-0.2,0-0.2,0c-0.1,0-0.1,0.1-0.2,0.1l-3.1,3.3V157
	c0-0.2-0.1-0.4-0.2-0.5c-0.3-0.3-0.7-0.3-1,0c-0.1,0.1-0.2,0.3-0.2,0.5v11.4c0,0.4,0.3,0.7,0.7,0.7c0.2,0,0.3-0.1,0.5-0.2
	c0.1-0.1,0.2-0.3,0.2-0.5v-3.1l0.6-0.6l2.7,4.1c0.2,0.3,0.6,0.4,0.9,0.2c0,0,0.1,0,0.1-0.1c0.1-0.1,0.2-0.3,0.2-0.4
	c0-0.1,0-0.1,0-0.2C362.4,168.2,362.3,168.1,362.3,168.1L362.3,168.1z M285,165.4h0.9c0.8,0.1,1.6-0.2,2.3-0.7
	c0.5-0.5,0.7-1.2,0.7-1.9c0-0.8-0.2-1.5-0.7-2.1c-0.6-0.5-1.4-0.8-2.2-0.8c-0.5,0-0.9,0.1-1.4,0.2c-0.4,0.1-0.7,0.3-1,0.6
	c-0.3,0.3-0.5,0.6-0.6,0.9c-0.1,0.4-0.2,0.8-0.2,1.2v3.3c0,0.4,0.1,0.8,0.2,1.1c0.3,0.7,0.9,1.3,1.6,1.5c0.4,0.2,0.9,0.2,1.3,0.2
	c0.3,0,0.6,0,0.8-0.1c0.3,0,0.6-0.1,0.9-0.2c0.3-0.1,0.5-0.2,0.8-0.4c0.2-0.1,0.3-0.3,0.3-0.5c0-0.2-0.1-0.3-0.2-0.4
	c-0.1-0.1-0.3-0.2-0.4-0.2h-0.1h-0.1c-0.3,0.1-0.6,0.2-0.9,0.4c-0.3,0.1-0.7,0.2-1,0.1c-0.5,0-1-0.1-1.4-0.4
	c-0.3-0.3-0.5-0.7-0.5-1.2v-1C284.3,165.3,284.6,165.3,285,165.4L285,165.4z M284,162.8c0-0.4,0.2-0.9,0.5-1.2
	c0.4-0.3,0.8-0.5,1.3-0.4c0.4,0,0.8,0.1,1.2,0.4c0.3,0.3,0.5,0.8,0.4,1.2c0,0.2,0,0.3,0,0.5c0,0.2-0.1,0.3-0.2,0.5
	c-0.1,0.1-0.3,0.3-0.5,0.3c-0.3,0.1-0.5,0.1-0.8,0.1c-0.2,0-0.4,0-0.8,0s-0.7-0.1-1-0.1L284,162.8z M294.2,160
	c-0.4,0-0.9,0.1-1.3,0.2c-0.4,0.1-0.8,0.3-1.2,0.6c-0.1-0.1-0.2-0.3-0.3-0.4c-0.1-0.1-0.3-0.1-0.4-0.1c-0.2,0-0.3,0.1-0.5,0.2
	c-0.1,0.1-0.2,0.3-0.2,0.4c0,0.1,0,0.2,0,0.2l0.1,0.1c0,0.1,0.1,0.1,0.1,0.2c0,0.1,0.1,0.1,0.1,0.2c0,0.1,0.1,0.2,0.1,0.3
	c0,0.2,0,0.4,0,0.6v5.9c0,0.2,0.1,0.3,0.2,0.5c0.1,0.1,0.3,0.2,0.5,0.2c0.2,0,0.4-0.1,0.5-0.2c0.1-0.1,0.2-0.3,0.2-0.5v-5.9
	c0-0.2,0-0.3-0.1-0.5c0.3-0.2,0.6-0.4,1-0.5c0.3-0.1,0.7-0.2,1-0.2c0.5,0,0.9,0.2,1.2,0.5c0.3,0.5,0.4,1,0.4,1.5v5.1
	c0,0.2,0.1,0.3,0.2,0.5c0.1,0.1,0.3,0.2,0.5,0.2c0.2,0,0.4-0.1,0.5-0.2c0.1-0.1,0.2-0.3,0.2-0.5v-5.1c0-0.8-0.2-1.7-0.7-2.4
	C295.8,160.3,295,159.9,294.2,160z M336.1,157.3c0-0.2-0.1-0.4-0.2-0.5c-0.1-0.1-0.3-0.2-0.5-0.2h-6.1c-0.2,0-0.4,0.1-0.5,0.2
	c-0.1,0.1-0.2,0.3-0.2,0.4c0,0.2,0.1,0.4,0.2,0.5c0.1,0.1,0.3,0.2,0.5,0.2h2.4v10.4c0,0.2,0.1,0.4,0.2,0.5c0.3,0.3,0.7,0.3,1,0
	c0,0,0,0,0,0c0.1-0.1,0.2-0.3,0.2-0.5V158h2.4c0.2,0,0.4-0.1,0.5-0.2C336,157.7,336.1,157.5,336.1,157.3z M281.3,167.8
	c-0.1,0-0.2-0.1-0.3-0.1h-0.3h-0.3c-0.3,0-0.5,0-0.7-0.1c-0.2-0.1-0.3-0.2-0.4-0.4c-0.1-0.2-0.2-0.5-0.2-0.8c0-0.3,0-0.7,0-1.1v-3.5
	h1.8c0.2,0,0.3-0.1,0.4-0.2c0.1-0.1,0.2-0.3,0.2-0.5c0-0.2-0.1-0.3-0.2-0.5c-0.1-0.1-0.3-0.2-0.4-0.2H279v-2.4
	c0-0.2-0.1-0.3-0.2-0.5c-0.1-0.1-0.3-0.2-0.5-0.2c-0.2,0-0.4,0.1-0.5,0.2c-0.1,0.1-0.2,0.3-0.2,0.5v7.3c0,0.5,0,1.1,0.1,1.6
	c0.1,0.4,0.2,0.8,0.5,1.1c0.2,0.3,0.6,0.5,0.9,0.7c0.5,0.2,1,0.2,1.5,0.2h0.4c0.1,0,0.2,0,0.3-0.1c0.1,0,0.2-0.1,0.2-0.2
	c0.1-0.1,0.1-0.2,0.1-0.4c0-0.1,0-0.2-0.1-0.3C281.5,167.9,281.4,167.9,281.3,167.8z M300.6,114.4c0-3.7-2.8-5.4-6.4-5.4h-8.5
	c-2.7,0.1-4.8,2.4-4.7,5.1c0.1,2.5,2.1,4.6,4.7,4.7h4v12.1c-2,1.1-4.2,1.7-6.5,1.6c-7,0-9.3-4.2-9.3-10.9v-15.4
	c0-6.7,2.3-10.9,9.3-10.9c2.3,0,4.5,0.6,6.5,1.9l0.8,0.5c0.9,0.8,2.1,1.2,3.4,1.2c2.7,0.1,5-1.9,5.1-4.6c0,0,0,0,0,0
	c0-4.5-7.9-8.3-16.1-8.3c-13.6,0-19.9,8.1-19.9,20.4v15.4c0,12.3,6.2,20.4,19.9,20.4c8,0,17.7-3.1,17.7-10.4L300.6,114.4z
	 M321.8,168c-0.2-0.1-0.3-0.3-0.4-0.4c-0.1-0.2-0.1-0.4-0.1-0.6V157c0-0.2-0.1-0.3-0.2-0.5c-0.1-0.1-0.3-0.2-0.5-0.2
	c-0.2,0-0.4,0.1-0.5,0.2c-0.1,0.1-0.2,0.3-0.2,0.5v3.4c-0.3-0.1-0.7-0.2-1-0.2c-0.3,0-0.6-0.1-1-0.1c-0.5,0-1,0.1-1.4,0.3
	c-0.4,0.2-0.7,0.4-0.9,0.7c-0.2,0.3-0.4,0.7-0.5,1.1c-0.1,0.5-0.1,0.9-0.1,1.4v2.2c0,0.8,0.2,1.7,0.7,2.4c0.5,0.6,1.3,1,2.1,0.9
	c0.4,0,0.9-0.1,1.3-0.2c0.4-0.1,0.8-0.3,1.2-0.5c0.1,0.2,0.2,0.3,0.4,0.4c0.2,0.1,0.3,0.2,0.5,0.2c0.2,0,0.3-0.1,0.4-0.2
	c0.1-0.1,0.2-0.3,0.2-0.4c0-0.1,0-0.1,0-0.2C321.9,168.1,321.8,168.1,321.8,168z M319.1,167.7c-0.3,0.1-0.6,0.1-0.9,0.1
	c-1.1,0-1.7-0.7-1.7-2.1v-2.2c0-0.6,0.1-1.2,0.4-1.8c0.3-0.4,0.8-0.6,1.3-0.6c0.3,0,0.5,0,0.8,0.1c0.3,0.1,0.6,0.1,0.9,0.3v5.5
	c0,0.1,0,0.1,0,0.2C319.7,167.5,319.4,167.6,319.1,167.7L319.1,167.7z M338.2,138.7c-0.1-1.3-1.2-2.4-2.6-2.3h-20.4v-20.1h18
	c1.4,0,2.5-1.1,2.5-2.4c0,0,0,0,0-0.1c0-1.4-1.1-2.5-2.5-2.5h-18V91.5h19.6c1.3,0.1,2.4-1,2.5-2.3c0,0,0,0,0-0.1
	c0.1-1.4-1-2.6-2.4-2.6c0,0,0,0,0,0h-21.6c-1.8,0-3.2,1.4-3.2,3.2v48.6c0,2.4,2.1,3.1,4.4,3.1h21.1
	C337,141.4,338.2,140.2,338.2,138.7C338.2,138.8,338.2,138.7,338.2,138.7L338.2,138.7z M309.9,165.4h0.9c0.8,0.1,1.6-0.2,2.2-0.7
	c0.5-0.5,0.7-1.2,0.7-1.9c0-0.8-0.2-1.5-0.7-2.1c-0.6-0.5-1.4-0.8-2.2-0.8c-0.5,0-0.9,0.1-1.4,0.2c-0.4,0.1-0.7,0.3-1,0.6
	c-0.3,0.3-0.5,0.6-0.6,0.9c-0.1,0.4-0.2,0.8-0.2,1.2v3.3c0,0.4,0.1,0.8,0.2,1.1c0.3,0.7,0.9,1.3,1.6,1.5c0.4,0.2,0.9,0.2,1.3,0.2
	c0.3,0,0.6,0,0.8-0.1c0.3,0,0.6-0.1,0.9-0.2c0.3-0.1,0.5-0.2,0.8-0.4c0.2-0.1,0.3-0.3,0.3-0.5c0-0.2-0.1-0.3-0.2-0.4
	c-0.1-0.1-0.3-0.2-0.4-0.2h-0.1h-0.1c-0.3,0.1-0.6,0.2-0.9,0.4c-0.3,0.1-0.7,0.2-1,0.1c-0.5,0-1-0.1-1.4-0.4
	c-0.3-0.3-0.5-0.7-0.5-1.2v-1C309.2,165.3,309.5,165.3,309.9,165.4L309.9,165.4z M308.9,162.8c0-0.4,0.2-0.9,0.5-1.2
	c0.4-0.3,0.8-0.5,1.3-0.4c0.4,0,0.8,0.1,1.2,0.4c0.3,0.3,0.5,0.8,0.4,1.2c0,0.2,0,0.3,0,0.5c0,0.2-0.1,0.3-0.2,0.5
	c-0.1,0.1-0.3,0.3-0.5,0.3c-0.3,0.1-0.5,0.1-0.8,0.1c-0.2,0-0.4,0-0.8,0s-0.7-0.1-1-0.1L308.9,162.8z M153.2,94.3
	c-0.1-1.9-1.3-3.5-2.9-4.3l-43.5-21.1c-1.7-0.8-3.7-0.7-5.2,0.4l-40,27.1c-1.6,1-2.4,2.8-2.3,4.7l3.4,48.2c0.1,1.9,1.2,3.5,2.9,4.3
	l43.4,21.1c1.7,0.8,3.7,0.7,5.2-0.4l40-27.1c1.5-1,2.4-2.8,2.3-4.7L153.2,94.3z M103.8,126.1l-9.5,6.4c0.3,0.6,0.4,1.2,0.4,1.9
	c0,0.4,0,0.8,0,1.2c-0.1,0.4-0.1,0.8-0.3,1.2c-0.3,0.8-0.7,1.5-1.2,2.1c-2.2,2.5-6.1,2.8-8.6,0.6c-0.3-0.3-0.6-0.6-0.8-0.9
	c-0.2-0.3-0.5-0.6-0.6-1c-1.1-2.2-0.8-4.9,0.8-6.7c0.3-0.3,0.6-0.6,0.9-0.8c0.6-0.5,1.3-0.9,2.1-1.1c0.8-0.2,1.6-0.3,2.4-0.2
	c0.4,0.1,0.8,0.1,1.2,0.3c0.8,0.3,1.5,0.7,2.1,1.2l0.3,0.2l9.5-6.4c-0.1-0.2-0.2-0.5-0.2-0.7c-0.1-0.4-0.2-0.8-0.2-1.2
	c0-0.4,0-0.8,0-1.2c0-0.4,0.1-0.8,0.2-1.2c0.1-0.4,0.3-0.7,0.5-1.1c0.2-0.4,0.4-0.7,0.7-1c0.3-0.3,0.6-0.6,0.9-0.8
	c0.3-0.2,0.6-0.5,1-0.6c0.4-0.2,0.7-0.3,1.1-0.4c3.2-0.9,6.6,1,7.5,4.3c0.1,0.4,0.2,0.8,0.2,1.2c0,0.4,0,0.8,0,1.2
	c-0.1,0.4-0.1,0.8-0.3,1.2c-0.1,0.4-0.3,0.7-0.5,1.1c-0.2,0.4-0.4,0.7-0.7,1c-2.2,2.5-6,2.8-8.6,0.6
	C103.9,126.3,103.8,126.2,103.8,126.1z M147.5,141c-0.5,1-1.4,1.6-2.5,1.7c-0.5,0-1.1-0.1-1.5-0.3l-14.4-7c-0.4,0.4-0.9,0.8-1.4,1.2
	c-1,0.7-2.3,0.7-3.3,0l-11,7.4c-0.8,0.5-1.6,0.9-2.5,1.1l1.2,17.3c0,0.7-0.5,1.3-1.1,1.3c-0.7,0-1.3-0.5-1.3-1.1l0,0l-1.2-17.3
	c-0.9-0.1-1.8-0.3-2.6-0.7c-0.6-0.3-0.9-1-0.6-1.6c0.3-0.6,1-0.9,1.6-0.6c0,0,0.1,0,0.1,0c1.6,0.8,3.6,0.6,5.1-0.4l11-7.4
	c-0.2-1.2,0.3-2.4,1.3-3.1c1-0.7,1.5-1.8,1.4-3l-0.7-11l-0.5-0.1c-0.6-0.2-1.1-0.4-1.6-0.7c-0.5-0.3-1-0.6-1.5-1
	c-1.8-1.6-2.9-3.8-3.1-6.2c0-0.6,0-1.1,0-1.7l-10-4.8c-1.1-0.5-2.3-0.5-3.3,0.2c-1,0.7-2.3,0.7-3.3,0l-11,7.4
	c-1.5,1-2.4,2.8-2.2,4.6c0,0.7-0.5,1.2-1.2,1.2c-0.6,0-1.1-0.5-1.2-1.1c-0.1-0.9,0-1.8,0.3-2.7L70.7,105c-0.6-0.2-0.9-1-0.7-1.6
	c0.2-0.6,1-0.9,1.6-0.7c0.1,0,0.1,0,0.2,0.1l15.6,7.6c0.5-0.8,1.2-1.4,1.9-1.9l11-7.4c-0.2-1.2,0.3-2.4,1.2-3c0.5-0.3,1-0.6,1.6-0.8
	l-1.1-15.9c-0.1-1.7,1.1-3.1,2.8-3.3s3.1,1.1,3.3,2.8l1.1,15.9c0.6,0.2,1.2,0.4,1.7,0.6l10,4.8c0.3-0.3,0.5-0.5,0.8-0.7
	c0.9-0.7,2-1.3,3.2-1.6c1.7-0.5,3.6-0.4,5.3,0.1c0.6,0.2,1.1,0.4,1.6,0.7c0.5,0.3,1,0.6,1.5,1c0.4,0.4,0.9,0.8,1.2,1.3
	c0.4,0.5,0.7,1,0.9,1.5c0.3,0.5,0.5,1.1,0.6,1.7c0.3,1.2,0.4,2.4,0.3,3.6c-0.1,1.2-0.5,2.3-1.1,3.4c-0.3,0.5-0.6,1-1,1.5
	c-0.9,1-2.1,1.8-3.4,2.4l0.8,11.1c0,0.6,0,1.2-0.1,1.8l14.4,7c1.5,0.7,2.2,2.4,1.5,4C147.6,140.9,147.6,141,147.5,141z M132,112.7
	c0.3-0.3,0.5-0.6,0.7-1c0.2-0.3,0.4-0.7,0.5-1.1c0.1-0.4,0.2-0.8,0.3-1.2c0-0.4,0-0.8,0-1.2c0-0.4-0.1-0.8-0.2-1.2
	c-0.1-0.4-0.2-0.8-0.4-1.1c-0.2-0.4-0.4-0.7-0.6-1c-0.2-0.3-0.5-0.6-0.8-0.9c-1.5-1.3-3.6-1.8-5.6-1.3c-0.4,0.1-0.8,0.3-1.1,0.4
	c-0.2,0.1-0.5,0.2-0.7,0.4l-0.3,0.2c-0.3,0.2-0.6,0.5-0.9,0.8l-0.2,0.3c-0.2,0.2-0.3,0.5-0.5,0.7c-0.2,0.3-0.4,0.7-0.5,1.1
	c0,0.1-0.1,0.3-0.1,0.4c-0.1,0.2-0.1,0.5-0.2,0.8c0,0.4,0,0.8,0,1.2l0,0c0,0.4,0.1,0.8,0.2,1.2c0.1,0.4,0.3,0.8,0.4,1.1
	c0.2,0.4,0.4,0.7,0.6,1c0.2,0.3,0.5,0.6,0.8,0.9c0.4,0.3,0.8,0.6,1.3,0.9c0.6,0.3,1.2,0.5,1.9,0.6c0.4,0,0.8,0,1.2,0
	c0.4,0,0.8-0.1,1.2-0.2c0.6-0.2,1.2-0.5,1.8-0.8C131.2,113.4,131.6,113,132,112.7z"/>
</svg>
