<svg id="Accent" xmlns="http://www.w3.org/2000/svg" viewBox="0 0 429.71 241.71"><defs><style>.cls-1{fill:#fff;}.cls-2{fill:#ed1e79;}.cls-3{fill:#270149;}.cls-4{fill:#708dcc;}</style></defs><path class="cls-1" d="M190,122.75V137a5.45,5.45,0,0,1-10.89,0V92.17a6,6,0,0,1,6.07-5.6h11.43c14.63,0,19.85,8.72,19.85,18.21,0,11.52-7.78,18-19.85,18Zm0-9.88h6.61c5.84,0,8.95-2.57,8.95-8.17,0-4-1.63-8.25-8.95-8.25H190Z"/><path class="cls-1" d="M233.24,121.66c0,6.7,2.33,10.9,9.34,10.9a11.41,11.41,0,0,0,6.46-1.87l.77-.47a5.1,5.1,0,0,1,3.35-1.16,4.9,4.9,0,0,1,5.14,4.67c0,4.51-7.86,8.32-16.11,8.32-13.62,0-19.84-8.09-19.84-20.39v-15.4c0-12.3,6.22-20.39,19.84-20.39,8.25,0,16.11,3.81,16.11,8.33a4.9,4.9,0,0,1-5.14,4.66,5.1,5.1,0,0,1-3.35-1.16l-.77-.47a11.49,11.49,0,0,0-6.46-1.87c-7,0-9.34,4.21-9.34,10.9Z"/><path class="cls-1" d="M274,121.66c0,6.7,2.33,10.9,9.34,10.9a13.13,13.13,0,0,0,6.46-1.64V118.79h-4.05a4.91,4.91,0,0,1,0-9.81h8.48c3.58,0,6.38,1.71,6.38,5.45v17.2c0,7.31-9.65,10.42-17.66,10.42-13.62,0-19.85-8.09-19.85-20.39v-15.4c0-12.3,6.23-20.39,19.85-20.39,8.25,0,16.11,3.81,16.11,8.33a4.9,4.9,0,0,1-5.14,4.66,5.1,5.1,0,0,1-3.35-1.16l-.77-.47a12.07,12.07,0,0,0-6.46-1.87c-7,0-9.34,4.21-9.34,10.9Z"/><path class="cls-2" d="M335.63,141.35H314.55c-2.34,0-4.44-.7-4.44-3.11V89.68a3.2,3.2,0,0,1,3.19-3.19h21.56a2.55,2.55,0,0,1,2.49,2.65,2.38,2.38,0,0,1-2.49,2.33H315.25v19.85H333.3a2.5,2.5,0,0,1,2.49,2.49,2.46,2.46,0,0,1-2.49,2.49H315.25v20.07h20.38a2.49,2.49,0,1,1,0,5Z"/><path class="cls-2" d="M344.42,105.17a1.9,1.9,0,0,1-.31-1.17,2.53,2.53,0,0,1,2.41-2.41c1.25,0,1.79.7,2.49,1.79L358,117.23l9-13.85c.7-1.09,1.25-1.79,2.49-1.79a2.53,2.53,0,0,1,2.41,2.41,1.83,1.83,0,0,1-.31,1.17l-10.74,16.11,11.52,17a2.09,2.09,0,0,1,.23,1A2.55,2.55,0,0,1,370,142c-1.25,0-1.72-.54-2.57-1.79l-9.57-14.7-10,15.25a2.27,2.27,0,0,1-2,1.24,2.5,2.5,0,0,1-2.64-2.49,1.75,1.75,0,0,1,.31-1l11.67-17.19Z"/><path class="cls-1" d="M163.57,145.86l-4-55.82a5.25,5.25,0,0,0-2.93-4.33L106.31,61.26a5.22,5.22,0,0,0-5.22.37L54.75,93a5.22,5.22,0,0,0-2.29,4.7l4,55.82a5.25,5.25,0,0,0,2.93,4.33l50.34,24.46a5.23,5.23,0,0,0,5.21-.38l46.35-31.37A5.21,5.21,0,0,0,163.57,145.86Z"/><path class="cls-3" d="M156.67,142.51l-3.44-48.17A5.25,5.25,0,0,0,150.3,90L106.85,68.9a5.23,5.23,0,0,0-5.21.38l-40,27.07a5.19,5.19,0,0,0-2.28,4.7l3.44,48.18a5.2,5.2,0,0,0,2.93,4.32l43.45,21.11a5.25,5.25,0,0,0,5.21-.37l40-27.07A5.25,5.25,0,0,0,156.67,142.51Z"/><path class="cls-4" d="M111,163.78a1.23,1.23,0,0,1-1.31-1.13l-1.24-17.45a1.22,1.22,0,1,1,2.43-.17l1.25,17.45A1.23,1.23,0,0,1,111,163.78Z"/><path class="cls-4" d="M87.06,112.78a1.35,1.35,0,0,1-.62-.12L70.71,105a1.22,1.22,0,1,1,1.06-2.19l15.74,7.64a1.23,1.23,0,0,1-.45,2.32Z"/><path class="cls-2" d="M109.7,145.34a7.54,7.54,0,0,1-3.86-.74,1.22,1.22,0,1,1,1.07-2.19A5.15,5.15,0,0,0,112,142l13.29-9a5.15,5.15,0,0,0,2.25-4.63l-1.15-16a5.16,5.16,0,0,0-2.88-4.27l-14.43-7a5.17,5.17,0,0,0-5.14.37l-13.28,9a5.16,5.16,0,0,0-2.25,4.63,1.22,1.22,0,0,1-2.43.17,7.62,7.62,0,0,1,3.32-6.82l13.28-9a7.63,7.63,0,0,1,7.57-.54l14.42,7a7.6,7.6,0,0,1,4.25,6.28l1.15,16a7.61,7.61,0,0,1-3.32,6.82l-13.28,9A7.51,7.51,0,0,1,109.7,145.34Z"/><path class="cls-2" d="M126.23,137.1a3,3,0,0,1-1.93-5.56,3.32,3.32,0,0,0,1.45-3l-1.14-16a3.32,3.32,0,0,0-1.86-2.75l-14.43-7A3.32,3.32,0,0,0,105,103a3,3,0,0,1-3.42-5,9.43,9.43,0,0,1,9.39-.67l14.43,7a9.45,9.45,0,0,1,5.28,7.8l1.14,16a9.46,9.46,0,0,1-4.11,8.47A3,3,0,0,1,126.23,137.1Z"/><path class="cls-2" d="M106.56,101.49a3.05,3.05,0,0,1-3.25-2.82l-1.25-17.45a3,3,0,0,1,6.08-.44l1.24,17.45A3,3,0,0,1,106.56,101.49Z"/><path class="cls-2" d="M145,142.69a3.12,3.12,0,0,1-1.54-.3l-15.74-7.65a3,3,0,1,1,2.67-5.48l15.73,7.65a3,3,0,0,1-1.12,5.78Z"/><path class="cls-1" d="M89.07,141a6.15,6.15,0,0,1-4.42-1.47,6.75,6.75,0,0,1-.82-.87,6,6,0,0,1-.63-1,6,6,0,0,1,.84-6.7,5.72,5.72,0,0,1,.87-.83A5.67,5.67,0,0,1,87,129a6.12,6.12,0,0,1,2.37-.17,6.6,6.6,0,0,1,1.17.26,5.92,5.92,0,0,1,2.06,1.18,6.12,6.12,0,0,1,2.08,4.17,6.76,6.76,0,0,1,0,1.19,6.52,6.52,0,0,1-.27,1.16,6.4,6.4,0,0,1-1.17,2.08A6.16,6.16,0,0,1,89.07,141Z"/><path class="cls-1" d="M108.45,127.85a6,6,0,0,1-5.88-3.34,5.6,5.6,0,0,1-.42-1.12,5.22,5.22,0,0,1-.21-1.18,5.29,5.29,0,0,1,0-1.19,5.71,5.71,0,0,1,.25-1.16,6.71,6.71,0,0,1,.49-1.09,5.58,5.58,0,0,1,.69-1,6.16,6.16,0,0,1,.87-.82,5.52,5.52,0,0,1,1-.63,5.79,5.79,0,0,1,1.11-.43,6.1,6.1,0,0,1,7.69,5.43,6.85,6.85,0,0,1,0,1.2,6,6,0,0,1-.27,1.17,5.6,5.6,0,0,1-.49,1.09,5.9,5.9,0,0,1-.69,1A6.05,6.05,0,0,1,108.45,127.85Z"/><path class="cls-2" d="M128,117.79a8.91,8.91,0,0,1-1.79-.05,9.64,9.64,0,0,1-1.75-.4,10.38,10.38,0,0,1-1.63-.73,9.45,9.45,0,0,1-1.47-1,9.21,9.21,0,0,1-3.13-6.25,9,9,0,0,1,0-1.8,9.35,9.35,0,0,1,.4-1.74,8.62,8.62,0,0,1,.73-1.64,9.25,9.25,0,0,1,1-1.47,9,9,0,0,1,1.31-1.23A8.92,8.92,0,0,1,125,99.86a9,9,0,0,1,5.3.14,10.38,10.38,0,0,1,1.63.73,9,9,0,0,1,1.47,1,10.89,10.89,0,0,1,1.24,1.3,9.93,9.93,0,0,1,.95,1.52,9.1,9.1,0,0,1,.63,1.67,8.93,8.93,0,0,1,.26,3.56,9,9,0,0,1-1.12,3.38,10,10,0,0,1-1,1.47A9.16,9.16,0,0,1,128,117.79Z"/><path class="cls-1" d="M88.73,136.11a1.22,1.22,0,0,1-.77-2.23l19.37-13.11a1.22,1.22,0,0,1,1.37,2L89.33,135.9A1.24,1.24,0,0,1,88.73,136.11Z"/><path class="cls-1" d="M127.82,114.75a6.09,6.09,0,0,1-4.42-1.48,6.23,6.23,0,0,1-.83-.87,5.74,5.74,0,0,1-.62-1,5.32,5.32,0,0,1-.44-1.12,5.85,5.85,0,0,1-.2-1.17,6,6,0,0,1,0-1.2,6.8,6.8,0,0,1,.26-1.17,6.59,6.59,0,0,1,1.17-2.06,6.27,6.27,0,0,1,.89-.82,6.44,6.44,0,0,1,2.11-1.07,6.16,6.16,0,0,1,5.61,1.28,5.63,5.63,0,0,1,.82.87,6.47,6.47,0,0,1,.63,1,6.32,6.32,0,0,1,.43,1.12,5.82,5.82,0,0,1,.2,1.18,5.94,5.94,0,0,1,0,1.19,6.8,6.8,0,0,1-.26,1.17,7,7,0,0,1-.49,1.08,6,6,0,0,1-.69,1A6.13,6.13,0,0,1,127.82,114.75Z"/><path class="cls-1" d="M187.65,166.58a3.69,3.69,0,0,1-.75,1.33,3.54,3.54,0,0,1-1.21.87,4,4,0,0,1-1.62.31,4.08,4.08,0,0,1-1.65-.31,3.44,3.44,0,0,1-1.21-.87,3.67,3.67,0,0,1-.74-1.33,5.22,5.22,0,0,1-.25-1.67V157.2a.7.7,0,0,1,.21-.52.67.67,0,0,1,.5-.21.63.63,0,0,1,.48.21.77.77,0,0,1,.2.52v7.71a3.25,3.25,0,0,0,.6,2,2.2,2.2,0,0,0,1.86.78,2.57,2.57,0,0,0,1.08-.2,2,2,0,0,0,.76-.59,2.58,2.58,0,0,0,.45-.89,4.14,4.14,0,0,0,.14-1.14V157.2a.77.77,0,0,1,.2-.52.61.61,0,0,1,.48-.21.72.72,0,0,1,.53.21.73.73,0,0,1,.21.52v7.71A5,5,0,0,1,187.65,166.58Z"/><path class="cls-1" d="M191.75,168.38a.71.71,0,0,1-.17.47.63.63,0,0,1-.51.19.64.64,0,0,1-.52-.19.71.71,0,0,1-.16-.47v-5.92a3.88,3.88,0,0,0,0-.56,1.61,1.61,0,0,0-.07-.31.67.67,0,0,0-.1-.19.74.74,0,0,1-.12-.16l-.07-.13a.45.45,0,0,1-.05-.22.54.54,0,0,1,.19-.43.62.62,0,0,1,.46-.18.64.64,0,0,1,.41.14,1.17,1.17,0,0,1,.32.37,4.2,4.2,0,0,1,1.22-.6,4.71,4.71,0,0,1,1.27-.19,2.43,2.43,0,0,1,2.08.91,3.82,3.82,0,0,1,.69,2.38v5.09a.67.67,0,0,1-.18.47.62.62,0,0,1-.5.19.66.66,0,0,1-.51-.19.71.71,0,0,1-.17-.47v-5.09a2.51,2.51,0,0,0-.41-1.53,1.4,1.4,0,0,0-1.19-.54,2.91,2.91,0,0,0-1,.19,4.29,4.29,0,0,0-.94.54,2.67,2.67,0,0,1,.06.51Z"/><path class="cls-1" d="M200.61,168.38a.66.66,0,0,1-.19.49.68.68,0,0,1-1.17-.49v-5.89a3.31,3.31,0,0,0-.06-.7,1.57,1.57,0,0,0-.22-.52l-.08-.15a.36.36,0,0,1,0-.19.59.59,0,0,1,.19-.45.66.66,0,0,1,.44-.16.58.58,0,0,1,.38.13,1.31,1.31,0,0,1,.32.34,4.58,4.58,0,0,1,1.21-.55,3.93,3.93,0,0,1,1.17-.2,1,1,0,0,1,.72.19.67.67,0,0,1,.19.47.7.7,0,0,1-.2.52.63.63,0,0,1-.48.18,4.69,4.69,0,0,0-1.06.06,2.68,2.68,0,0,0-1.15.56c0,.1,0,.18,0,.26a1.48,1.48,0,0,1,0,.21Z"/><path class="cls-1" d="M207.79,167.86a2.93,2.93,0,0,0,1-.14c.27-.1.55-.21.86-.35l.09,0h.15a.6.6,0,0,1,.44.18.61.61,0,0,1,.17.43.64.64,0,0,1-.3.53,2.89,2.89,0,0,1-.75.35,7,7,0,0,1-.93.19,7.16,7.16,0,0,1-.84.06,3.66,3.66,0,0,1-1.32-.22,2.67,2.67,0,0,1-1-.61,2.71,2.71,0,0,1-.6-.92,3.12,3.12,0,0,1-.21-1.14v-3.26a3.2,3.2,0,0,1,.21-1.17,2.55,2.55,0,0,1,.61-.93,2.83,2.83,0,0,1,1-.62,3.84,3.84,0,0,1,1.38-.22,2.82,2.82,0,0,1,2.17.76,2.94,2.94,0,0,1,.72,2.08,2.55,2.55,0,0,1-.69,1.89,3.15,3.15,0,0,1-2.26.68l-.86,0a6.86,6.86,0,0,1-.91-.12v1a1.5,1.5,0,0,0,.48,1.17A2,2,0,0,0,207.79,167.86Zm1.48-5.05a1.61,1.61,0,0,0-.41-1.23,1.71,1.71,0,0,0-1.18-.38,1.9,1.9,0,0,0-1.32.43,1.47,1.47,0,0,0-.47,1.16v1.32c.32,0,.66.08,1,.1s.63,0,.81,0a2.19,2.19,0,0,0,.79-.12,1.3,1.3,0,0,0,.48-.32,1,1,0,0,0,.22-.46A2.37,2.37,0,0,0,209.27,162.81Z"/><path class="cls-1" d="M216.75,163a1.64,1.64,0,0,0-1.86-1.86,2.2,2.2,0,0,0-.74.1,3.77,3.77,0,0,0-.58.27l-.18.07a.67.67,0,0,1-.28.06.37.37,0,0,1-.35-.19.79.79,0,0,1-.13-.38.57.57,0,0,1,.17-.51,1.47,1.47,0,0,1,.57-.36,3.6,3.6,0,0,1,.8-.2,6.58,6.58,0,0,1,.9-.06,2.79,2.79,0,0,1,2.34.89,4.15,4.15,0,0,1,.7,2.63v3.83c0,.35.11.52.32.52h.14a.43.43,0,0,1,.37.18.69.69,0,0,1,.13.41.5.5,0,0,1-.24.47,1.26,1.26,0,0,1-.54.13,1.33,1.33,0,0,1-.78-.24,1.72,1.72,0,0,1-.53-.63,3.44,3.44,0,0,1-2.39.92,2.6,2.6,0,0,1-2-.72,2.78,2.78,0,0,1-.65-1.91v-.07c0-1.72,1-2.58,3.07-2.58a5.92,5.92,0,0,1,1.75.25Zm-1.77,1.9a2.93,2.93,0,0,0-.87.11,1.28,1.28,0,0,0-.52.32,1.09,1.09,0,0,0-.25.46,2,2,0,0,0-.07.56v.07a1.28,1.28,0,0,0,1.53,1.39,2.82,2.82,0,0,0,1-.18,3.25,3.25,0,0,0,.92-.59v-1.88a5.34,5.34,0,0,0-.9-.2A6.94,6.94,0,0,0,215,164.93Z"/><path class="cls-1" d="M220.83,157a.68.68,0,0,1,.19-.48.66.66,0,0,1,.49-.2.65.65,0,0,1,.68.68v10.31a2.09,2.09,0,0,0,0,.48.75.75,0,0,0,.2.34l.08.14a.41.41,0,0,1,0,.19.63.63,0,0,1-.18.45.6.6,0,0,1-.44.18,1.17,1.17,0,0,1-.35-.06.76.76,0,0,1-.36-.25,1.45,1.45,0,0,1-.28-.53,3.31,3.31,0,0,1-.11-.94Z"/><path class="cls-1" d="M231.4,164.39v4a.77.77,0,0,1-.2.52.68.68,0,0,1-1,0,.73.73,0,0,1-.21-.52V157.48a.85.85,0,0,1,.24-.6.81.81,0,0,1,.59-.24h2.56a4.72,4.72,0,0,1,1.83.32,3.23,3.23,0,0,1,1.88,2.11,5.12,5.12,0,0,1,.21,1.47,3.72,3.72,0,0,1-1.06,2.86,4,4,0,0,1-2.86,1Zm0-1.36h2a2.6,2.6,0,0,0,1.89-.61,2.49,2.49,0,0,0,.64-1.9,4.06,4.06,0,0,0-.11-.92,2,2,0,0,0-.38-.81,1.83,1.83,0,0,0-.77-.57,3.11,3.11,0,0,0-1.27-.22h-2Z"/><path class="cls-1" d="M238.82,160.91a6.89,6.89,0,0,1,.23-1.83,3.87,3.87,0,0,1,.72-1.4,3.09,3.09,0,0,1,1.22-.9,4.42,4.42,0,0,1,1.75-.31,5.47,5.47,0,0,1,1.15.12,4.7,4.7,0,0,1,1,.32,2.39,2.39,0,0,1,.69.47.85.85,0,0,1,.26.58.6.6,0,0,1-.63.61.53.53,0,0,1-.3-.07l-.32-.22a3.27,3.27,0,0,0-3-.32,1.82,1.82,0,0,0-.81.63,2.61,2.61,0,0,0-.44,1,6.56,6.56,0,0,0-.13,1.32v3.72a6.56,6.56,0,0,0,.13,1.32,2.61,2.61,0,0,0,.44,1,1.92,1.92,0,0,0,.81.64,3.19,3.19,0,0,0,1.23.21,3,3,0,0,0,1.75-.54l.33-.21a.43.43,0,0,1,.29-.08.62.62,0,0,1,.46.18.63.63,0,0,1,.17.43.83.83,0,0,1-.26.58,2.39,2.39,0,0,1-.69.47,4.18,4.18,0,0,1-1,.32,4.89,4.89,0,0,1-1.15.13,4.41,4.41,0,0,1-1.75-.32,3.17,3.17,0,0,1-1.22-.89,3.92,3.92,0,0,1-.72-1.41,6.83,6.83,0,0,1-.23-1.83Z"/><path class="cls-1" d="M248.42,164.63a5.9,5.9,0,0,0,.13,1.32,2.6,2.6,0,0,0,.43,1,1.92,1.92,0,0,0,.81.64,3.25,3.25,0,0,0,1.24.21,3,3,0,0,0,1.09-.17,3.54,3.54,0,0,0,.88-.47v-3.74h-1.69a.67.67,0,0,1-.47-.2.62.62,0,0,1-.2-.47.65.65,0,0,1,.2-.47.7.7,0,0,1,.47-.19h2.07a1.28,1.28,0,0,1,.7.19.66.66,0,0,1,.29.61v4.17a1.38,1.38,0,0,1-.32.9,2.63,2.63,0,0,1-.82.64,3.81,3.81,0,0,1-1.11.36,6.06,6.06,0,0,1-1.18.12,4.44,4.44,0,0,1-1.75-.32,3.24,3.24,0,0,1-1.22-.89,3.75,3.75,0,0,1-.71-1.41,6.44,6.44,0,0,1-.24-1.83v-3.72a6.49,6.49,0,0,1,.24-1.83,3.71,3.71,0,0,1,.71-1.4,3.16,3.16,0,0,1,1.22-.9,4.45,4.45,0,0,1,1.75-.31,5.4,5.4,0,0,1,1.15.12,4.7,4.7,0,0,1,1,.32,2.15,2.15,0,0,1,.69.47.81.81,0,0,1,.26.58.57.57,0,0,1-.17.43.61.61,0,0,1-.45.18.57.57,0,0,1-.31-.07,3.3,3.3,0,0,0-.32-.22,2.94,2.94,0,0,0-1.74-.54,3.06,3.06,0,0,0-1.24.22,1.82,1.82,0,0,0-.81.63,2.6,2.6,0,0,0-.43,1,5.9,5.9,0,0,0-.13,1.32Z"/><path class="cls-1" d="M268.2,168.21a.72.72,0,0,1-.2.5.67.67,0,0,1-.5.21h-4.61a1.71,1.71,0,0,1-.77-.17.68.68,0,0,1-.33-.65V157.46a.86.86,0,0,1,.23-.56.79.79,0,0,1,.59-.26h4.72a.66.66,0,0,1,.49.2.65.65,0,0,1,.2.5.61.61,0,0,1-.2.48.69.69,0,0,1-.49.18h-4.15v4.08H267a.67.67,0,0,1,.47.19.61.61,0,0,1,.21.48.66.66,0,0,1-.2.49.63.63,0,0,1-.48.19h-3.82v4.13h4.32a.69.69,0,0,1,.49.19A.6.6,0,0,1,268.2,168.21Z"/><path class="cls-1" d="M275.76,168.05a.6.6,0,0,1,.08.29.72.72,0,0,1-.19.51.64.64,0,0,1-.5.21.59.59,0,0,1-.38-.11,2.05,2.05,0,0,1-.28-.36l-2-3-2.06,3.15a.65.65,0,0,1-.56.35.71.71,0,0,1-.49-.19.66.66,0,0,1-.2-.49.55.55,0,0,1,.09-.3l2.43-3.62L269.45,161a.43.43,0,0,1-.1-.29.69.69,0,0,1,.19-.49A.64.64,0,0,1,270,160a.58.58,0,0,1,.46.2q.17.19.3.39l1.76,2.7,1.83-2.84a1.59,1.59,0,0,1,.27-.33A.54.54,0,0,1,275,160a.68.68,0,0,1,.45.18.59.59,0,0,1,.21.46.88.88,0,0,1,0,.17.77.77,0,0,1-.07.17l-2.28,3.43Z"/><path class="cls-1" d="M277.57,158.1a.71.71,0,0,1,.17-.47.69.69,0,0,1,.51-.19.65.65,0,0,1,.5.19.67.67,0,0,1,.18.47v2.41h1.81a.6.6,0,0,1,.44.18.63.63,0,0,1,.18.46.62.62,0,0,1-.18.46.58.58,0,0,1-.44.19h-1.81v3.46c0,.45,0,.83,0,1.14a2.15,2.15,0,0,0,.2.76.92.92,0,0,0,.44.43,1.85,1.85,0,0,0,.74.13h.34l.31,0a1,1,0,0,1,.29.08.67.67,0,0,1,.21.2.54.54,0,0,1,.09.33.58.58,0,0,1-.09.35.47.47,0,0,1-.22.2.85.85,0,0,1-.33.09l-.35,0a4.24,4.24,0,0,1-1.51-.23,2,2,0,0,1-.92-.68,2.66,2.66,0,0,1-.47-1.12,8.13,8.13,0,0,1-.13-1.58Z"/><path class="cls-1" d="M285.89,167.86a3,3,0,0,0,1-.14c.27-.1.55-.21.85-.35l.1,0H288a.57.57,0,0,1,.43.18.58.58,0,0,1,.18.43.63.63,0,0,1-.31.53,2.61,2.61,0,0,1-.75.35,6.37,6.37,0,0,1-.93.19,6.87,6.87,0,0,1-.83.06,3.66,3.66,0,0,1-1.32-.22,2.67,2.67,0,0,1-1.58-1.53,3.33,3.33,0,0,1-.2-1.14v-3.26a3.42,3.42,0,0,1,.2-1.17,2.69,2.69,0,0,1,.61-.93,2.88,2.88,0,0,1,1-.62,3.82,3.82,0,0,1,1.37-.22,2.85,2.85,0,0,1,2.18.76,2.94,2.94,0,0,1,.71,2.08,2.59,2.59,0,0,1-.68,1.89,3.15,3.15,0,0,1-2.26.68l-.86,0a7.24,7.24,0,0,1-.92-.12v1a1.5,1.5,0,0,0,.48,1.17A2.06,2.06,0,0,0,285.89,167.86Zm1.48-5.05a1.57,1.57,0,0,0-.41-1.23,1.66,1.66,0,0,0-1.17-.38,2,2,0,0,0-1.33.43,1.51,1.51,0,0,0-.47,1.16v1.32c.33,0,.67.08,1,.1s.63,0,.8,0a2.25,2.25,0,0,0,.8-.12,1.18,1.18,0,0,0,.47-.32.91.91,0,0,0,.23-.46A2.35,2.35,0,0,0,287.37,162.81Z"/><path class="cls-1" d="M292.13,168.38a.71.71,0,0,1-.17.47.63.63,0,0,1-.51.19.65.65,0,0,1-.52-.19.71.71,0,0,1-.16-.47v-5.92a3.88,3.88,0,0,0,0-.56,1.1,1.1,0,0,0-.07-.31.67.67,0,0,0-.1-.19.5.5,0,0,1-.11-.16l-.08-.13a.45.45,0,0,1-.05-.22.54.54,0,0,1,.19-.43.62.62,0,0,1,.46-.18.68.68,0,0,1,.42.14,1.29,1.29,0,0,1,.31.37,4.2,4.2,0,0,1,1.22-.6,4.71,4.71,0,0,1,1.27-.19,2.43,2.43,0,0,1,2.08.91,3.82,3.82,0,0,1,.69,2.38v5.09a.67.67,0,0,1-.18.47.62.62,0,0,1-.5.19.66.66,0,0,1-.51-.19.71.71,0,0,1-.17-.47v-5.09a2.51,2.51,0,0,0-.41-1.53,1.4,1.4,0,0,0-1.19-.54,2.81,2.81,0,0,0-1,.19,4.13,4.13,0,0,0-.95.54,2.67,2.67,0,0,1,.06.51Z"/><path class="cls-1" d="M302,160a6.64,6.64,0,0,1,.95.08,6.24,6.24,0,0,1,1,.25V157a.72.72,0,0,1,.17-.48.69.69,0,0,1,.51-.19.65.65,0,0,1,.5.19.68.68,0,0,1,.18.48v10a1.75,1.75,0,0,0,.09.61,1,1,0,0,0,.36.44l.09.16a.47.47,0,0,1,0,.19.55.55,0,0,1-.19.44.64.64,0,0,1-.42.17,1,1,0,0,1-.53-.16,1.35,1.35,0,0,1-.39-.4,7.37,7.37,0,0,1-1.2.49,4.5,4.5,0,0,1-1.28.19,2.46,2.46,0,0,1-2.07-.92,3.83,3.83,0,0,1-.69-2.37v-2.22a6.27,6.27,0,0,1,.14-1.42,2.94,2.94,0,0,1,.47-1.11,2.29,2.29,0,0,1,.9-.72A3.2,3.2,0,0,1,302,160Zm1.94,1.55a4.1,4.1,0,0,0-.94-.28,4.92,4.92,0,0,0-.82-.09,1.51,1.51,0,0,0-1.34.56,3.13,3.13,0,0,0-.39,1.77v2.22c0,1.38.57,2.07,1.69,2.07a3.32,3.32,0,0,0,.9-.13,4.14,4.14,0,0,0,.93-.38.69.69,0,0,1,0-.2v-5.54Z"/><path class="cls-1" d="M310.83,167.86a3,3,0,0,0,1-.14c.27-.1.55-.21.85-.35l.1,0h.15a.57.57,0,0,1,.43.18.58.58,0,0,1,.18.43.66.66,0,0,1-.31.53,2.61,2.61,0,0,1-.75.35,6.37,6.37,0,0,1-.93.19,6.88,6.88,0,0,1-.84.06,3.64,3.64,0,0,1-1.31-.22,2.6,2.6,0,0,1-1.58-1.53,3.12,3.12,0,0,1-.21-1.14v-3.26a3.2,3.2,0,0,1,.21-1.17,2.69,2.69,0,0,1,.61-.93,2.88,2.88,0,0,1,1-.62,3.82,3.82,0,0,1,1.37-.22,2.85,2.85,0,0,1,2.18.76,3,3,0,0,1,.71,2.08,2.55,2.55,0,0,1-.69,1.89,3.12,3.12,0,0,1-2.25.68l-.86,0a7,7,0,0,1-.92-.12v1a1.5,1.5,0,0,0,.48,1.17A2,2,0,0,0,310.83,167.86Zm1.48-5.05a1.57,1.57,0,0,0-.41-1.23,1.66,1.66,0,0,0-1.17-.38,2,2,0,0,0-1.33.43,1.51,1.51,0,0,0-.47,1.16v1.32c.33,0,.67.08,1,.1s.63,0,.8,0a2.15,2.15,0,0,0,.79-.12,1.16,1.16,0,0,0,.48-.32,1,1,0,0,0,.23-.46A3.15,3.15,0,0,0,312.31,162.81Z"/><path class="cls-1" d="M318.06,160a6.64,6.64,0,0,1,.95.08,6.11,6.11,0,0,1,1,.25V157a.68.68,0,0,1,.18-.48.65.65,0,0,1,.5-.19.69.69,0,0,1,.51.19.72.72,0,0,1,.17.48v10a1.53,1.53,0,0,0,.1.61,1,1,0,0,0,.35.44.89.89,0,0,1,.09.16.47.47,0,0,1,0,.19.55.55,0,0,1-.19.44.6.6,0,0,1-.41.17,1,1,0,0,1-.54-.16,1.65,1.65,0,0,1-.39-.4,7.26,7.26,0,0,1-1.19.49,4.56,4.56,0,0,1-1.28.19,2.43,2.43,0,0,1-2.07-.92,3.77,3.77,0,0,1-.7-2.37v-2.22a6.9,6.9,0,0,1,.14-1.42,2.8,2.8,0,0,1,.48-1.11,2.15,2.15,0,0,1,.9-.72A3.17,3.17,0,0,1,318.06,160Zm1.93,1.55a4,4,0,0,0-.94-.28,4.92,4.92,0,0,0-.82-.09,1.52,1.52,0,0,0-1.34.56,3.23,3.23,0,0,0-.38,1.77v2.22c0,1.38.56,2.07,1.69,2.07a3.19,3.19,0,0,0,.89-.13,4.41,4.41,0,0,0,.94-.38.48.48,0,0,1,0-.2v-5.54Z"/><path class="cls-1" d="M331.59,158h-2.37a.7.7,0,0,1-.5-.2.66.66,0,0,1-.2-.48.7.7,0,0,1,.2-.45.66.66,0,0,1,.5-.23h6.13a.78.78,0,0,1,.5.19.64.64,0,0,1,.22.49.63.63,0,0,1-.21.48.73.73,0,0,1-.51.2H333v10.4a.63.63,0,0,1-.2.48.69.69,0,0,1-1,0,.67.67,0,0,1-.2-.48Z"/><path class="cls-1" d="M339.11,169.06a3.86,3.86,0,0,1-1.41-.24,2.83,2.83,0,0,1-1-.65,2.7,2.7,0,0,1-.61-1,3.53,3.53,0,0,1-.21-1.23v-2.91a3.46,3.46,0,0,1,.21-1.21,2.54,2.54,0,0,1,.61-1,3.17,3.17,0,0,1,1-.67,3.86,3.86,0,0,1,1.41-.24,3.78,3.78,0,0,1,1.41.24,3,3,0,0,1,1,.67,2.56,2.56,0,0,1,.62,1,3.46,3.46,0,0,1,.21,1.21V166a3.53,3.53,0,0,1-.21,1.23,2.72,2.72,0,0,1-.62,1,2.67,2.67,0,0,1-1,.65A3.78,3.78,0,0,1,339.11,169.06Zm0-1.26a1.92,1.92,0,0,0,1.42-.48A1.87,1.87,0,0,0,341,166V163a1.83,1.83,0,0,0-.48-1.34,2.3,2.3,0,0,0-2.84,0,1.83,1.83,0,0,0-.48,1.34V166a1.87,1.87,0,0,0,.48,1.36A1.94,1.94,0,0,0,339.11,167.8Z"/><path class="cls-1" d="M347.19,169.06a3.86,3.86,0,0,1-1.41-.24,2.83,2.83,0,0,1-1-.65,2.7,2.7,0,0,1-.61-1,3.53,3.53,0,0,1-.21-1.23v-2.91a3.46,3.46,0,0,1,.21-1.21,2.54,2.54,0,0,1,.61-1,3.17,3.17,0,0,1,1-.67,3.86,3.86,0,0,1,1.41-.24,3.78,3.78,0,0,1,1.41.24,3,3,0,0,1,1,.67,2.56,2.56,0,0,1,.62,1,3.46,3.46,0,0,1,.21,1.21V166a3.53,3.53,0,0,1-.21,1.23,2.72,2.72,0,0,1-.62,1,2.67,2.67,0,0,1-1,.65A3.78,3.78,0,0,1,347.19,169.06Zm0-1.26a1.92,1.92,0,0,0,1.42-.48,1.87,1.87,0,0,0,.48-1.36V163a1.83,1.83,0,0,0-.48-1.34,2.3,2.3,0,0,0-2.84,0,1.83,1.83,0,0,0-.47,1.34V166a1.86,1.86,0,0,0,.47,1.36A1.94,1.94,0,0,0,347.19,167.8Z"/><path class="cls-1" d="M352.52,157a.73.73,0,0,1,.19-.48.66.66,0,0,1,.49-.2.7.7,0,0,1,.49.19.66.66,0,0,1,.19.49v10.31a2.87,2.87,0,0,0,0,.48.75.75,0,0,0,.2.34.87.87,0,0,1,.08.14.41.41,0,0,1,.05.19.6.6,0,0,1-.19.45.6.6,0,0,1-.44.18,1.17,1.17,0,0,1-.35-.06.76.76,0,0,1-.36-.25,1.31,1.31,0,0,1-.27-.53,2.94,2.94,0,0,1-.12-.94Z"/><path class="cls-1" d="M357.85,163.47l3.15-3.28a.52.52,0,0,1,.19-.12.85.85,0,0,1,.23,0,.62.62,0,0,1,.46.18.58.58,0,0,1,.19.44.62.62,0,0,1-.18.46l-2.56,2.61,2.95,4.35a.68.68,0,0,1,.07.2.88.88,0,0,1,0,.2.56.56,0,0,1-.2.42.66.66,0,0,1-1-.17l-2.7-4.11-.63.64v3.12a.66.66,0,0,1-.19.49.68.68,0,0,1-1.17-.49V157a.69.69,0,0,1,1.17-.49.66.66,0,0,1,.19.49Z"/><path class="cls-1" d="M365.62,157.29a.82.82,0,0,1-.84.83.81.81,0,0,1-.59-.24.86.86,0,0,1,0-1.19.81.81,0,0,1,.59-.24.82.82,0,0,1,.84.84Zm-.16,11.09a.66.66,0,0,1-.19.49.7.7,0,0,1-.49.19.67.67,0,0,1-.48-.19.66.66,0,0,1-.2-.49V160.7a.66.66,0,0,1,.2-.48.64.64,0,0,1,.48-.2.66.66,0,0,1,.49.2.65.65,0,0,1,.19.48Z"/><path class="cls-1" d="M368.21,158.1a.67.67,0,0,1,.18-.47.65.65,0,0,1,.5-.19.69.69,0,0,1,.51.19.71.71,0,0,1,.17.47v2.41h1.81a.61.61,0,0,1,.45.18.63.63,0,0,1,.18.46.62.62,0,0,1-.18.46.58.58,0,0,1-.45.19h-1.81v3.46c0,.45,0,.83.05,1.14a1.8,1.8,0,0,0,.2.76.94.94,0,0,0,.43.43,1.94,1.94,0,0,0,.75.13h.33l.31,0a.89.89,0,0,1,.29.08.7.7,0,0,1,.22.2.54.54,0,0,1,.09.33.58.58,0,0,1-.09.35.5.5,0,0,1-.23.2.8.8,0,0,1-.32.09l-.36,0a4.22,4.22,0,0,1-1.5-.23,2.09,2.09,0,0,1-.93-.68,2.79,2.79,0,0,1-.47-1.12,9,9,0,0,1-.13-1.58Z"/></svg>