<svg id="Accent" xmlns="http://www.w3.org/2000/svg" viewBox="0 0 241.71 241.71"><defs><style>.cls-1{fill:#fff;}.cls-2{fill:#270149;}.cls-3{fill:#708dcc;}.cls-4{fill:#ed1e79;}</style></defs><path class="cls-1" d="M193.07,73.67l-69.34-40a9.31,9.31,0,0,0-9.33,0l-69.33,40a9.34,9.34,0,0,0-4.67,8.08v80.06a9.31,9.31,0,0,0,4.67,8.08l69.33,40a9.36,9.36,0,0,0,9.33,0l69.34-40a9.31,9.31,0,0,0,4.67-8.08V81.75A9.34,9.34,0,0,0,193.07,73.67Zm-65.76,44.71a8,8,0,0,0-.82-1.56,9,9,0,0,0-1.11-1.35,8.56,8.56,0,0,0-1.36-1.11,8,8,0,0,0-1.53-.82,10.18,10.18,0,0,0-1.68-.52,9.06,9.06,0,0,0-8,2.45,9,9,0,0,0-1.11,1.35,8.57,8.57,0,0,0-.82,1.56,9.41,9.41,0,0,0-.52,1.66,9.28,9.28,0,0,0-.18,1.75,8.61,8.61,0,0,0,.51,2.8L96,133c-.12-.13-.22-.29-.34-.41a8.14,8.14,0,0,0-1.36-1.11,8.35,8.35,0,0,0-1.53-.82,9.68,9.68,0,0,0-1.66-.52,9,9,0,0,0-3.5,0,9.41,9.41,0,0,0-1.66.52,8.61,8.61,0,0,0-2.91,1.93A10.35,10.35,0,0,0,82,134a8.76,8.76,0,0,0-1.32,3.22,7.82,7.82,0,0,0-.18,1.73,8.91,8.91,0,0,0,8.93,8.93,10.36,10.36,0,0,0,1.75-.16,9.68,9.68,0,0,0,1.66-.52,9,9,0,0,0,1.53-.82,8.14,8.14,0,0,0,1.36-1.11,8.91,8.91,0,0,0,2.62-6.32,8.46,8.46,0,0,0-.17-1.73,9.52,9.52,0,0,0-.29-1.08l14.57-8.42c.12.13.21.28.34.41a9,9,0,0,0,6.3,2.62,8.66,8.66,0,0,0,3.43-.69,8.64,8.64,0,0,0,1.53-.82,9.15,9.15,0,0,0,1.36-1.11,9,9,0,0,0,2.61-6.3,9.26,9.26,0,0,0-.16-1.75A9.41,9.41,0,0,0,127.31,118.38Zm21.44-22.66a9,9,0,0,0-4.43,1.22,8.53,8.53,0,0,0-1.89,1.39c-.12.12-.22.28-.34.41a9.47,9.47,0,0,0-.76.94,9,9,0,0,0-.83,1.56c-.08.19-.14.39-.21.59a7.67,7.67,0,0,0-.29,1.07,8.52,8.52,0,0,0-.18,1.75h0a9.63,9.63,0,0,0,.18,1.75,8.13,8.13,0,0,0,.5,1.66,8.4,8.4,0,0,0,.83,1.53,9.13,9.13,0,0,0,1.1,1.38,9.62,9.62,0,0,0,1.36,1.1c.15.11.33.17.49.27.35.19.69.4,1.06.56a10.4,10.4,0,0,0,1.62.49h0a9,9,0,0,0,3.49,0l0,0a9,9,0,0,0,1.63-.48,9.63,9.63,0,0,0,1.05-.57,4.59,4.59,0,0,0,.49-.26,8.1,8.1,0,0,0,1.35-1.1,8.91,8.91,0,0,0,0-12.64A9,9,0,0,0,148.75,95.72Z"/><path class="cls-2" d="M183.34,79.28,123.73,44.87a9.31,9.31,0,0,0-9.33,0L54.79,79.28a9.35,9.35,0,0,0-4.66,8.09V156.2a9.35,9.35,0,0,0,4.66,8.08l59.61,34.41a9.31,9.31,0,0,0,9.33,0l59.61-34.41A9.34,9.34,0,0,0,188,156.2V87.37A9.34,9.34,0,0,0,183.34,79.28ZM95.69,145.23a8.14,8.14,0,0,1-1.36,1.11,9,9,0,0,1-1.53.82,9.68,9.68,0,0,1-1.66.52,10.36,10.36,0,0,1-1.75.16,8.91,8.91,0,0,1-8.93-8.93,7.82,7.82,0,0,1,.18-1.73A8.76,8.76,0,0,1,82,134a10.35,10.35,0,0,1,1.11-1.35A8.61,8.61,0,0,1,86,130.68a9.41,9.41,0,0,1,1.66-.52,9,9,0,0,1,3.5,0,9.68,9.68,0,0,1,1.66.52,8.35,8.35,0,0,1,1.53.82,8.14,8.14,0,0,1,1.36,1.11c.12.12.22.28.34.41l14.61-8.43a8.61,8.61,0,0,1-.51-2.8,10.18,10.18,0,0,1,.18-1.75,9.41,9.41,0,0,1,.52-1.66,8.57,8.57,0,0,1,.82-1.56,9,9,0,0,1,1.11-1.35,9.06,9.06,0,0,1,8-2.45,10.18,10.18,0,0,1,1.68.52,8,8,0,0,1,1.53.82,8.56,8.56,0,0,1,1.36,1.11,9,9,0,0,1,1.11,1.35,8,8,0,0,1,.82,1.56,9.41,9.41,0,0,1,.52,1.66,9.26,9.26,0,0,1,.16,1.75,9,9,0,0,1-2.61,6.3A9.15,9.15,0,0,1,124,129.2a8.64,8.64,0,0,1-1.53.82,8.66,8.66,0,0,1-3.43.69,9,9,0,0,1-6.3-2.62c-.13-.13-.22-.28-.34-.41L97.85,136.1a9.52,9.52,0,0,1,.29,1.08,8.46,8.46,0,0,1,.17,1.73A8.91,8.91,0,0,1,95.69,145.23ZM174.81,154a4.46,4.46,0,0,1-3.87,2.24,4.53,4.53,0,0,1-2.23-.6l-20.25-11.69a13.47,13.47,0,0,1-2.15,1.57,4.38,4.38,0,0,1-4.84-.3l-16.84,9.73a11.07,11.07,0,0,1-3.78,1.32v25.46a1.79,1.79,0,0,1-3.57,0V156.23a11,11,0,0,1-3.77-1.32,1.79,1.79,0,0,1,1.79-3.1,7.52,7.52,0,0,0,7.54,0l16.81-9.7a4.46,4.46,0,0,1,2.2-4.36,4.9,4.9,0,0,0,2.43-4.22V117.24c-.21-.08-.44-.15-.65-.24a12,12,0,0,1-2.32-1.23,12.88,12.88,0,0,1-2-1.66,13.2,13.2,0,0,1-1.66-2,13.7,13.7,0,0,1-1.23-2.3,13.88,13.88,0,0,1-.77-2.5,13.51,13.51,0,0,1,0-5.07L121.5,94.07a4.85,4.85,0,0,0-4.86,0,4.47,4.47,0,0,1-4.88-.28L95,103.5A7.56,7.56,0,0,0,91.17,110a1.79,1.79,0,1,1-3.57,0,11,11,0,0,1,.74-3.92l-22-12.73a1.79,1.79,0,1,1,1.78-3.1l22,12.73a11,11,0,0,1,3-2.6L110,90.7a4.46,4.46,0,0,1,2.2-4.36,13.4,13.4,0,0,1,2.43-1.07V61.88a4.47,4.47,0,0,1,8.93,0V85.27A13.19,13.19,0,0,1,126,86.34l14.09,8.13a14.77,14.77,0,0,1,1.25-1,14,14,0,0,1,2.32-1.24,14.14,14.14,0,0,1,2.5-.75,13.47,13.47,0,0,1,12.09,3.66,13.09,13.09,0,0,1,1.66,2,12.39,12.39,0,0,1,1.23,2.3,13.84,13.84,0,0,1,.77,2.52,13.43,13.43,0,0,1,.26,2.61,13.69,13.69,0,0,1-.26,2.62,13.88,13.88,0,0,1-.77,2.5,12.39,12.39,0,0,1-1.23,2.3,12.64,12.64,0,0,1-1.66,2,13.49,13.49,0,0,1-5,3.14v16.28a12.86,12.86,0,0,1-.29,2.64l20.26,11.7A4.46,4.46,0,0,1,174.81,154Z"/><path class="cls-3" d="M119.07,156.39a11.91,11.91,0,0,1-1.79-.16v25.46a1.79,1.79,0,0,0,3.57,0V156.23A11.78,11.78,0,0,1,119.07,156.39ZM65.64,90.94a1.79,1.79,0,0,0,.66,2.44l22,12.73a11.14,11.14,0,0,1,1.79-3.1l-22-12.73A1.79,1.79,0,0,0,65.64,90.94Z"/><path class="cls-4" d="M173.18,147.87l-20.26-11.7a12.86,12.86,0,0,0,.29-2.64V117.25a13.49,13.49,0,0,0,5-3.14,12.64,12.64,0,0,0,1.66-2,12.39,12.39,0,0,0,1.23-2.3,13.88,13.88,0,0,0,.77-2.5,13.69,13.69,0,0,0,.26-2.62,13.43,13.43,0,0,0-.26-2.61,13.84,13.84,0,0,0-.77-2.52,12.39,12.39,0,0,0-1.23-2.3,13.09,13.09,0,0,0-1.66-2,13.46,13.46,0,0,0-14.59-2.91,14,14,0,0,0-2.32,1.24,14.77,14.77,0,0,0-1.25,1L126,86.34a13.19,13.19,0,0,0-2.44-1.07V61.88a4.47,4.47,0,0,0-8.93,0V85.27a13.4,13.4,0,0,0-2.43,1.07A4.46,4.46,0,0,0,110,90.7l-16.81,9.71a11,11,0,0,0-3,2.6,11.28,11.28,0,0,0-2.53,7,1.79,1.79,0,1,0,3.57,0A7.56,7.56,0,0,1,95,103.5l16.81-9.71a4.47,4.47,0,0,0,4.88.28,4.85,4.85,0,0,1,4.86,0l14.09,8.13a13.51,13.51,0,0,0,0,5.07,13.88,13.88,0,0,0,.77,2.5,13.7,13.7,0,0,0,1.23,2.3,13.2,13.2,0,0,0,1.66,2,12.88,12.88,0,0,0,2,1.66,12,12,0,0,0,2.32,1.23c.21.09.44.16.65.24v16.29a4.9,4.9,0,0,1-2.43,4.22,4.46,4.46,0,0,0-2.2,4.36l-16.81,9.7a7.52,7.52,0,0,1-7.54,0,1.79,1.79,0,0,0-1.79,3.1,11,11,0,0,0,3.77,1.32,11.91,11.91,0,0,0,1.79.16,11.78,11.78,0,0,0,1.78-.16,11.07,11.07,0,0,0,3.78-1.32l16.84-9.73a4.38,4.38,0,0,0,4.84.3,13.47,13.47,0,0,0,2.15-1.57l20.25,11.69a4.53,4.53,0,0,0,2.23.6,4.47,4.47,0,0,0,2.24-8.33Zm-29.39-35.8a9.62,9.62,0,0,1-1.36-1.1,9.13,9.13,0,0,1-1.1-1.38,8.4,8.4,0,0,1-.83-1.53,8.13,8.13,0,0,1-.5-1.66,9.63,9.63,0,0,1-.18-1.75h0a8.52,8.52,0,0,1,.18-1.75,7.67,7.67,0,0,1,.29-1.07c.07-.2.13-.4.21-.59a9,9,0,0,1,.83-1.56,9.47,9.47,0,0,1,.76-.94c.12-.13.22-.29.34-.41a8.53,8.53,0,0,1,1.89-1.39,8.81,8.81,0,0,1,10.73,1.39,8.91,8.91,0,0,1,0,12.64,8.1,8.1,0,0,1-1.35,1.1,4.59,4.59,0,0,1-.49.26,9.63,9.63,0,0,1-1.05.57,9,9,0,0,1-1.63.48l0,0a9,9,0,0,1-3.49,0h0a10.4,10.4,0,0,1-1.62-.49c-.37-.16-.71-.37-1.06-.56C144.12,112.24,143.94,112.18,143.79,112.07Z"/></svg>