<svg id="icons" xmlns="http://www.w3.org/2000/svg" viewBox="0 0 100 100"><path d="M87.88,44.44c-7-7.21-21.36-19.35-37.88-19.35S19.17,37.23,12.12,44.44a7.44,7.44,0,0,0,0,10.41C19.17,62.06,33.48,74.2,50,74.2S80.83,62.06,87.88,54.85A7.44,7.44,0,0,0,87.88,44.44ZM50,66.44A16.8,16.8,0,1,1,66.8,49.65,16.8,16.8,0,0,1,50,66.44Z" style="fill:#fff"/><g style="opacity:0.5"><polygon points="49.8 9.61 12.98 37 28.54 90.13 74.97 73.05 88.56 37 49.8 9.61" style="fill:none;stroke:#fff;stroke-linecap:round;stroke-linejoin:round;stroke-width:5px"/><line x1="29.52" y1="43" x2="12.98" y2="37" style="fill:none;stroke:#fff;stroke-linecap:round;stroke-linejoin:round;stroke-width:5px"/><line x1="49.8" y1="9.61" x2="49.18" y2="28.68" style="fill:none;stroke:#fff;stroke-linecap:round;stroke-linejoin:round;stroke-width:5px"/><line x1="65.42" y1="64.69" x2="74.97" y2="73.05" style="fill:none;stroke:#fff;stroke-linecap:round;stroke-linejoin:round;stroke-width:5px"/><line x1="88.56" y1="37" x2="70.6" y2="42.77" style="fill:none;stroke:#fff;stroke-linecap:round;stroke-linejoin:round;stroke-width:5px"/><line x1="39.78" y1="67.45" x2="28.54" y2="90.13" style="fill:none;stroke:#fff;stroke-linecap:round;stroke-linejoin:round;stroke-width:5px"/></g></svg>