<svg id="icons" xmlns="http://www.w3.org/2000/svg" viewBox="0 0 100 100"><path d="M52,16.68a23.6,23.6,0,0,0-23.6,23.59c0,13,23.6,45.91,23.6,45.91S75.58,53.3,75.58,40.27A23.59,23.59,0,0,0,52,16.68Zm0,34.75A11.29,11.29,0,1,1,63.27,40.15,11.28,11.28,0,0,1,52,51.43Z"/><path d="M50,13.68A23.59,23.59,0,0,0,26.42,37.27C26.42,50.3,50,83.18,50,83.18s23.6-32.88,23.6-45.91A23.6,23.6,0,0,0,50,13.68Zm0,30.18c-8.82,0-16,1.34-16-7.48a16,16,0,0,1,31.94,0C66,45.2,58.83,43.86,50,43.86Z" style="fill:#ffa627"/></svg>