<svg xmlns="http://www.w3.org/2000/svg" width="100" height="100" viewBox="0 0 100 100">
  <g id="main">
    <rect x="10.85" y="10" width="79.87" height="79.87" fill="none" stroke="#fff" stroke-linecap="round" stroke-linejoin="round" stroke-width="5" opacity="0.5"/>
    <path d="M47.1,76.36q-3.89,0-5.69-1.58a5.69,5.69,0,0,1-1.8-4.52,11.2,11.2,0,0,1,.13-1.78c.08-.56.19-1.2.32-1.91l6.38-27.34H39.12L40,35.51h7.48l2.85-12h7.36l-2.77,12H66.3l-.86,3.72H54.14L48.86,61.78c-.25,1-.45,2-.61,3A14.69,14.69,0,0,0,48,67.27a4.28,4.28,0,0,0,1.13,3.29c.75.7,2.1,1,4.07,1a23,23,0,0,0,3-.27,14.52,14.52,0,0,0,3-.67l-.7,3q-2.86,1.11-5.4,1.91A20,20,0,0,1,47.1,76.36Z" fill="#fff"/>
  </g>
</svg>
