<svg xmlns="http://www.w3.org/2000/svg" viewBox="0 0 100 100"><g id="illustrations"><circle cx="50" cy="69.57" r="15.77" style="fill:#030d20"/><path d="M50,87.72A18.15,18.15,0,1,1,68.15,69.57,18.17,18.17,0,0,1,50,87.72Zm0-31.53A13.38,13.38,0,1,0,63.38,69.57,13.39,13.39,0,0,0,50,56.19Z" style="fill:#4d8dfc"/><circle cx="50" cy="49.07" r="15.77" style="fill:#030d20"/><path d="M50,67.23A18.16,18.16,0,1,1,68.15,49.07,18.18,18.18,0,0,1,50,67.23Zm0-31.54A13.38,13.38,0,1,0,63.38,49.07,13.4,13.4,0,0,0,50,35.69Z" style="fill:#4d8dfc"/><circle cx="50" cy="29.63" r="15.77" style="fill:#030d20"/><path d="M50,47.78A18.15,18.15,0,1,1,68.15,29.63,18.17,18.17,0,0,1,50,47.78Zm0-31.53A13.38,13.38,0,1,0,63.38,29.63,13.39,13.39,0,0,0,50,16.25Z" style="fill:#4d8dfc"/></g></svg>