<svg xmlns="http://www.w3.org/2000/svg" width="100" height="100" viewBox="0 0 100 100">
  <g id="main">
    <path d="M72.08,18.05H27.92a10,10,0,0,0-10,10V72.21a10,10,0,0,0,10,10H72.08a10,10,0,0,0,10-10V28.05A10,10,0,0,0,72.08,18.05ZM63.83,56.89a5.19,5.19,0,0,1,0,7.37,5,5,0,0,1-6.94-.13L50,57.2l-6.93,6.93a5,5,0,0,1-6.94.13,5.19,5.19,0,0,1,0-7.37l6.76-6.76-6.78-6.78a5.16,5.16,0,0,1-.48-6.86,5,5,0,0,1,7.4-.36L50,43.06l6.93-6.93a5,5,0,0,1,7.4.36,5.16,5.16,0,0,1-.48,6.86l-6.78,6.78Z" fill="#ed1e79"/>
  </g>
</svg>
