<svg xmlns="http://www.w3.org/2000/svg" viewBox="0 0 100 100"><g id="main"><line x1="15.25" y1="11.73" x2="52.71" y2="11.73" style="fill:none;stroke:#fff;stroke-linecap:round;stroke-linejoin:round;stroke-width:5px"/><line x1="33.98" y1="62.91" x2="33.98" y2="11.73" style="fill:none;stroke:#fff;stroke-linecap:round;stroke-linejoin:round;stroke-width:5px"/><path d="M59.65,88.27q-5.09,0-7.44-2.06a7.45,7.45,0,0,1-2.35-5.92A15.79,15.79,0,0,1,50,78c.1-.73.25-1.56.42-2.48l8.35-35.76H49.21l1.13-4.87h9.77l3.73-15.68h9.63L69.85,34.85h14.9l-1.12,4.87H68.86L62,69.21c-.32,1.36-.59,2.67-.81,3.94a20.23,20.23,0,0,0-.32,3.24,5.57,5.57,0,0,0,1.48,4.3c1,.91,2.75,1.37,5.33,1.37a30.89,30.89,0,0,0,3.9-.35,18.73,18.73,0,0,0,3.91-.88l-.91,3.9c-2.5,1-4.85,1.8-7.07,2.49A26,26,0,0,1,59.65,88.27Z" style="fill:#fff"/></g></svg>