<svg id="icons" xmlns="http://www.w3.org/2000/svg" viewBox="0 0 100 100"><path d="M38.31,17.42l-15,11.16a19.72,19.72,0,0,0-7.15,21.36l6.06,20.67a19.71,19.71,0,0,0,25.72,13l19-7A19.73,19.73,0,0,0,78.58,65l5.28-14a19.7,19.7,0,0,0-7.07-23L61.45,17.14A19.71,19.71,0,0,0,38.31,17.42Z" style="fill:none;stroke:#fff;stroke-linecap:round;stroke-linejoin:round;stroke-width:5px"/><g style="opacity:0.5"><line x1="49.25" y1="48.75" x2="16.3" y2="38.64" style="fill:none;stroke:#fff;stroke-linecap:round;stroke-linejoin:round;stroke-width:5px"/><line x1="49.23" y1="14.14" x2="49.25" y2="48.75" style="fill:none;stroke:#fff;stroke-linecap:round;stroke-linejoin:round;stroke-width:5px"/><line x1="49.25" y1="48.75" x2="71.73" y2="70.88" style="fill:none;stroke:#fff;stroke-linecap:round;stroke-linejoin:round;stroke-width:5px"/><line x1="83.89" y1="38.64" x2="49.25" y2="48.75" style="fill:none;stroke:#fff;stroke-linecap:round;stroke-linejoin:round;stroke-width:5px"/><line x1="49.25" y1="48.75" x2="32.99" y2="82.1" style="fill:none;stroke:#fff;stroke-linecap:round;stroke-linejoin:round;stroke-width:5px"/></g><line x1="76.79" y1="27.98" x2="61.45" y2="17.14" style="fill:none;stroke:#fff;stroke-linecap:round;stroke-linejoin:round;stroke-width:10px"/></svg>