<svg id="Layer_1" data-name="Layer 1" xmlns="http://www.w3.org/2000/svg" viewBox="0 0 100 100"><circle cx="82.08" cy="17.92" r="7.92" style="fill:#fff;opacity:0.5"/><circle cx="17.92" cy="17.92" r="7.92" style="fill:#fff;opacity:0.5"/><circle cx="82.08" cy="82.08" r="7.92" style="fill:#fff;opacity:0.5"/><circle cx="17.92" cy="82.08" r="7.92" style="fill:#fff;opacity:0.5"/><circle cx="17.92" cy="50" r="7.92" style="fill:#fff;opacity:0.5"/><circle cx="82.08" cy="50" r="7.92" style="fill:#fff;opacity:0.5"/><circle cx="50" cy="50" r="7.92" style="fill:#fff;opacity:0.5"/><line x1="50" y1="25.83" x2="50" y2="42.08" style="fill:none;stroke:#fff;stroke-linecap:round;stroke-linejoin:round;stroke-width:5px"/><line x1="50" y1="57.92" x2="50" y2="74.16" style="fill:none;stroke:#fff;stroke-linecap:round;stroke-linejoin:round;stroke-width:5px"/><line x1="74.17" y1="50" x2="57.92" y2="50" style="fill:none;stroke:#fff;stroke-linecap:round;stroke-linejoin:round;stroke-width:5px"/><line x1="42.08" y1="50" x2="25.84" y2="50" style="fill:none;stroke:#fff;stroke-linecap:round;stroke-linejoin:round;stroke-width:5px"/><circle cx="50" cy="82.08" r="7.92" style="fill:#fff;opacity:0.5"/><circle cx="50" cy="17.92" r="7.92" style="fill:#fff;opacity:0.5"/><path d="M74.17,81.87a10.22,10.22,0,0,1-2.09.21H57.92" style="fill:none;stroke:#fff;stroke-linecap:round;stroke-linejoin:round;stroke-width:5px"/><path d="M82.08,57.92V72.08a10.29,10.29,0,0,1-.21,2.09" style="fill:none;stroke:#fff;stroke-linecap:round;stroke-linejoin:round;stroke-width:5px"/><path d="M81.87,25.83a10.29,10.29,0,0,1,.21,2.09V42.08" style="fill:none;stroke:#fff;stroke-linecap:round;stroke-linejoin:round;stroke-width:5px"/><path d="M57.92,17.92H72.08a10.29,10.29,0,0,1,2.09.21" style="fill:none;stroke:#fff;stroke-linecap:round;stroke-linejoin:round;stroke-width:5px"/><path d="M25.73,18.15a10.57,10.57,0,0,1,2.19-.23H42.08" style="fill:none;stroke:#fff;stroke-linecap:round;stroke-linejoin:round;stroke-width:5px"/><path d="M17.92,42.08V27.92a10.22,10.22,0,0,1,.21-2.09" style="fill:none;stroke:#fff;stroke-linecap:round;stroke-linejoin:round;stroke-width:5px"/><path d="M18.13,74.17a10.22,10.22,0,0,1-.21-2.09V57.92" style="fill:none;stroke:#fff;stroke-linecap:round;stroke-linejoin:round;stroke-width:5px"/><path d="M42.08,82.08H27.92a10.29,10.29,0,0,1-2.09-.21" style="fill:none;stroke:#fff;stroke-linecap:round;stroke-linejoin:round;stroke-width:5px"/></svg>