<svg id="icons" xmlns="http://www.w3.org/2000/svg" viewBox="0 0 100 100"><circle cx="21.72" cy="78.18" r="7.92" style="fill:#fff"/><line x1="21.72" y1="46.35" x2="21.72" y2="78.18" style="fill:none;stroke:#fff;stroke-linecap:round;stroke-linejoin:round;stroke-width:5px"/><line x1="21.72" y1="46.35" x2="28.93" y2="54.26" style="fill:none;stroke:#fff;stroke-linecap:round;stroke-linejoin:round;stroke-width:5px"/><line x1="21.72" y1="46.35" x2="14.47" y2="54.07" style="fill:none;stroke:#fff;stroke-linecap:round;stroke-linejoin:round;stroke-width:5px"/><circle cx="21.72" cy="21.72" r="7.92" style="fill:#fff"/><line x1="53.55" y1="21.72" x2="21.72" y2="21.72" style="fill:none;stroke:#fff;stroke-linecap:round;stroke-linejoin:round;stroke-width:5px"/><line x1="53.55" y1="21.72" x2="45.65" y2="28.93" style="fill:none;stroke:#fff;stroke-linecap:round;stroke-linejoin:round;stroke-width:5px"/><line x1="53.55" y1="21.72" x2="45.84" y2="14.46" style="fill:none;stroke:#fff;stroke-linecap:round;stroke-linejoin:round;stroke-width:5px"/><circle cx="78.28" cy="21.72" r="7.92" style="fill:#fff"/><line x1="78.28" y1="53.55" x2="78.28" y2="21.72" style="fill:none;stroke:#fff;stroke-linecap:round;stroke-linejoin:round;stroke-width:5px"/><line x1="78.28" y1="53.55" x2="71.07" y2="45.65" style="fill:none;stroke:#fff;stroke-linecap:round;stroke-linejoin:round;stroke-width:5px"/><line x1="78.28" y1="53.55" x2="85.54" y2="45.84" style="fill:none;stroke:#fff;stroke-linecap:round;stroke-linejoin:round;stroke-width:5px"/><circle cx="78.28" cy="78.28" r="7.92" style="fill:#fff"/><line x1="46.45" y1="78.28" x2="78.28" y2="78.28" style="fill:none;stroke:#fff;stroke-linecap:round;stroke-linejoin:round;stroke-width:5px"/><line x1="46.45" y1="78.28" x2="54.35" y2="71.07" style="fill:none;stroke:#fff;stroke-linecap:round;stroke-linejoin:round;stroke-width:5px"/><line x1="46.45" y1="78.28" x2="54.16" y2="85.53" style="fill:none;stroke:#fff;stroke-linecap:round;stroke-linejoin:round;stroke-width:5px"/></svg>