<svg xmlns="http://www.w3.org/2000/svg" width="100" height="100" viewBox="0 0 100 100">
  <g id="main">
    <path d="M42.13,38.19C41.81,37,41.52,36,41.25,35h-.06a52.11,52.11,0,0,1-1.36,5.19c-.61,2-1.22,3.94-1.85,6s-1.25,3.92-1.85,5.64H46.38c-.26-.86-.56-1.83-.91-2.91S42.46,39.34,42.13,38.19ZM75.88,10.94H24.12A14.19,14.19,0,0,0,9.93,25.13V74.87A14.19,14.19,0,0,0,24.12,89.06H75.88A14.19,14.19,0,0,0,90.07,74.87V25.13A14.19,14.19,0,0,0,75.88,10.94ZM61.18,70.08H52.74a.6.6,0,0,1-.65-.45L48.78,60h-15l-3.06,9.47a.75.75,0,0,1-.77.59h-7.6q-.64,0-.45-.72L34.9,32a12.66,12.66,0,0,0,.4-1.33A13.56,13.56,0,0,0,35.56,28a.42.42,0,0,1,.36-.45H46.33c.31,0,.46.1.52.32L61.58,69.43C61.71,69.86,61.58,70.08,61.18,70.08Zm13.69-.65c0,.43-.18.65-.52.65H66.43c-.39,0-.58-.22-.58-.65v-31c0-.4.17-.58.52-.58h8c.34,0,.52.19.52.58Zm0-37.63A5.23,5.23,0,0,1,74.06,33a5.45,5.45,0,0,1-6.3.79,4.53,4.53,0,0,1-1-.79,5.46,5.46,0,0,1-.66-6.36,4.56,4.56,0,0,1,.75-.94,5.07,5.07,0,0,1,3.34-1.4,6.66,6.66,0,0,1,1.83.19,4.5,4.5,0,0,1,1.48.67,4,4,0,0,1,.62.54,5,5,0,0,1,1.31,2.86A5.81,5.81,0,0,1,74.92,31.8Z" fill="#fff"/>
  </g>
</svg>
