<svg id="Layer_1" data-name="Layer 1" xmlns="http://www.w3.org/2000/svg" viewBox="0 0 100 100"><g style="opacity:0.5"><circle cx="69.97" cy="68.27" r="7.92" style="fill:#fff"/><circle cx="20.78" cy="39.66" r="7.92" style="fill:#fff"/><circle cx="80.76" cy="39.66" r="7.92" style="fill:#fff"/><circle cx="33.13" cy="81.82" r="7.92" style="fill:#fff"/><circle cx="50" cy="17.92" r="7.92" style="fill:#fff"/><line x1="48.96" y1="49.87" x2="39.56" y2="46.46" style="fill:none;stroke:#fff;stroke-linecap:round;stroke-linejoin:round;stroke-width:5px"/><line x1="30.18" y1="43.06" x2="20.78" y2="39.66" style="fill:none;stroke:#fff;stroke-linecap:round;stroke-linejoin:round;stroke-width:5px"/><line x1="48.96" y1="49.87" x2="56.49" y2="56.46" style="fill:none;stroke:#fff;stroke-linecap:round;stroke-linejoin:round;stroke-width:5px"/><line x1="62.45" y1="61.68" x2="69.97" y2="68.27" style="fill:none;stroke:#fff;stroke-linecap:round;stroke-linejoin:round;stroke-width:5px"/><line x1="48.96" y1="49.87" x2="46.3" y2="55.25" style="fill:none;stroke:#fff;stroke-linecap:round;stroke-linejoin:round;stroke-width:5px"/><line x1="42.8" y1="62.31" x2="37.54" y2="72.91" style="fill:none;stroke:#fff;stroke-linecap:round;stroke-linejoin:round;stroke-width:5px;stroke-dasharray:7.8870768547058105,7.8870768547058105"/><line x1="35.79" y1="76.45" x2="33.13" y2="81.82" style="fill:none;stroke:#fff;stroke-linecap:round;stroke-linejoin:round;stroke-width:5px"/></g><polyline points="50 17.92 20.78 39.66 33.13 81.82 69.97 68.27 80.76 39.66" style="fill:none;stroke:#fff;stroke-linecap:round;stroke-linejoin:round;stroke-width:5px"/><line x1="50" y1="17.92" x2="49.81" y2="23.91" style="fill:none;stroke:#fff;stroke-linecap:round;stroke-linejoin:round;stroke-width:5px"/><line x1="49.59" y1="30.57" x2="49.27" y2="40.55" style="fill:none;stroke:#fff;stroke-linecap:round;stroke-linejoin:round;stroke-width:5px;stroke-dasharray:6.656530857086182,6.656530857086182"/><line x1="49.16" y1="43.87" x2="48.96" y2="49.87" style="fill:none;stroke:#fff;stroke-linecap:round;stroke-linejoin:round;stroke-width:5px"/><line x1="80.76" y1="39.66" x2="75.05" y2="41.49" style="fill:none;stroke:#fff;stroke-linecap:round;stroke-linejoin:round;stroke-width:5px"/><line x1="68.26" y1="43.67" x2="58.07" y2="46.94" style="fill:none;stroke:#fff;stroke-linecap:round;stroke-linejoin:round;stroke-width:5px;stroke-dasharray:7.132945537567139,7.132945537567139"/><line x1="54.68" y1="48.03" x2="48.96" y2="49.87" style="fill:none;stroke:#fff;stroke-linecap:round;stroke-linejoin:round;stroke-width:5px"/><line x1="68.57" y1="31.04" x2="62.2" y2="26.54" style="fill:none;stroke:#fff;stroke-linecap:round;stroke-linejoin:round;stroke-width:5px"/></svg>