<svg id="Layer_1" data-name="Layer 1" xmlns="http://www.w3.org/2000/svg" viewBox="0 0 100 100"><circle cx="82.08" cy="17.92" r="7.92" style="fill:#fff"/><circle cx="17.92" cy="17.92" r="7.92" style="fill:#fff"/><circle cx="82.08" cy="82.08" r="7.92" style="fill:#fff;opacity:0.5"/><circle cx="17.92" cy="82.08" r="7.92" style="fill:#fff;opacity:0.5"/><circle cx="50" cy="50" r="7.92" style="fill:#fff"/><circle cx="50" cy="82.08" r="7.92" style="fill:#fff"/><circle cx="50" cy="17.92" r="7.92" style="fill:#fff"/><line x1="50" y1="50" x2="50" y2="83.86" style="fill:none;stroke:#fff;stroke-linecap:round;stroke-linejoin:round;stroke-width:5px"/><line x1="82.08" y1="21.11" x2="82.08" y2="27.11" style="fill:none;stroke:#708dcc;stroke-linecap:round;stroke-linejoin:round;stroke-width:5px"/><line x1="82.08" y1="44.89" x2="82.08" y2="50.89" style="fill:none;stroke:#708dcc;stroke-linecap:round;stroke-linejoin:round;stroke-width:5px"/><line x1="17.92" y1="21.11" x2="17.92" y2="27.11" style="fill:none;stroke:#708dcc;stroke-linecap:round;stroke-linejoin:round;stroke-width:5px"/><line x1="17.92" y1="44.89" x2="17.92" y2="50.89" style="fill:none;stroke:#708dcc;stroke-linecap:round;stroke-linejoin:round;stroke-width:5px"/><line x1="17.92" y1="50.89" x2="23.92" y2="50.89" style="fill:none;stroke:#708dcc;stroke-linecap:round;stroke-linejoin:round;stroke-width:5px"/><line x1="34.35" y1="50.89" x2="70.87" y2="50.89" style="fill:none;stroke:#708dcc;stroke-linecap:round;stroke-linejoin:round;stroke-width:5px;stroke-dasharray:10.433178901672363,10.433178901672363"/><line x1="76.08" y1="50.89" x2="82.08" y2="50.89" style="fill:none;stroke:#708dcc;stroke-linecap:round;stroke-linejoin:round;stroke-width:5px"/><circle cx="50" cy="50" r="13.06" style="fill:#708dcc"/><line x1="50" y1="17.92" x2="50" y2="23.92" style="fill:none;stroke:#fff;stroke-linecap:round;stroke-linejoin:round;stroke-width:5px"/><line x1="50" y1="30.61" x2="50" y2="40.65" style="fill:none;stroke:#fff;stroke-linecap:round;stroke-linejoin:round;stroke-width:5px;stroke-dasharray:6.694868564605713,6.694868564605713"/><line x1="50" y1="44" x2="50" y2="50" style="fill:none;stroke:#fff;stroke-linecap:round;stroke-linejoin:round;stroke-width:5px"/></svg>