<svg xmlns="http://www.w3.org/2000/svg" viewBox="0 0 100 100"><g id="main"><path d="M72.48,65.58V58a3.8,3.8,0,0,1,1.9-3.29h0a3.81,3.81,0,0,0,1.39-5.2L75,48.18a3.81,3.81,0,0,0-5.2-1.4h0a3.81,3.81,0,0,1-3.81,0L59.42,43a3.83,3.83,0,0,1-1.9-3.3v-.34a3.8,3.8,0,0,0-3.8-3.8H52.21a3.81,3.81,0,0,0-3.81,3.8v.34A3.8,3.8,0,0,1,46.5,43l-6.59,3.8a3.79,3.79,0,0,1-3.8,0l-.6-.34a3.8,3.8,0,0,0-5.19,1.39l-.76,1.31a3.81,3.81,0,0,0,1.4,5.2l.59.34A3.82,3.82,0,0,1,33.45,58v7.61a3.83,3.83,0,0,1-1.9,3.3l-.59.34a3.81,3.81,0,0,0-1.4,5.2l.76,1.3a3.81,3.81,0,0,0,5.2,1.4l.59-.34a3.79,3.79,0,0,1,3.8,0l6.59,3.8a3.8,3.8,0,0,1,1.9,3.3v.34A3.81,3.81,0,0,0,52.21,88h1.51a3.8,3.8,0,0,0,3.8-3.8v-.34a3.83,3.83,0,0,1,1.9-3.3L66,76.78a3.81,3.81,0,0,1,3.81,0h0a3.81,3.81,0,0,0,5.2-1.4l.75-1.3a3.81,3.81,0,0,0-1.39-5.2h0A3.8,3.8,0,0,1,72.48,65.58Z" style="fill:none;stroke:#fff;stroke-miterlimit:10;stroke-width:5px"/><circle cx="52.67" cy="61.78" r="9.17" style="fill:none;stroke:#fff;stroke-miterlimit:10;stroke-width:5px;opacity:0.5"/><path d="M22.63,28.32a7.22,7.22,0,0,0,.65.42l3.2,1.85a7.46,7.46,0,0,0,.69.35,6.51,6.51,0,0,0,0,.77v3.7a6.62,6.62,0,0,0,0,.77c-.23.1-.46.22-.69.34l-3.2,1.86a5.54,5.54,0,0,0-.65.42,5.42,5.42,0,0,0-.64-.42l-3.21-1.86c-.22-.12-.45-.24-.68-.34,0-.26,0-.51,0-.77v-3.7c0-.26,0-.52,0-.77a6.24,6.24,0,0,0,.68-.35L22,28.74a7.06,7.06,0,0,0,.64-.42M23,20.79h-.73a1.85,1.85,0,0,0-1.85,1.85v.17a1.86,1.86,0,0,1-.93,1.6l-3.21,1.85a1.77,1.77,0,0,1-.92.25,1.83,1.83,0,0,1-.93-.25l-.29-.17a1.91,1.91,0,0,0-.92-.24,1.84,1.84,0,0,0-1.6.92l-.37.64a1.85,1.85,0,0,0,.68,2.53l.28.16a1.85,1.85,0,0,1,.93,1.61v3.7a1.84,1.84,0,0,1-.93,1.6l-.28.17a1.85,1.85,0,0,0-.68,2.53l.37.63a1.83,1.83,0,0,0,2.52.68l.29-.17a1.92,1.92,0,0,1,.93-.24,1.86,1.86,0,0,1,.92.24l3.21,1.86a1.86,1.86,0,0,1,.93,1.6v.16a1.85,1.85,0,0,0,1.85,1.86H23a1.85,1.85,0,0,0,1.85-1.86v-.16a1.84,1.84,0,0,1,.93-1.6L29,40.85a1.92,1.92,0,0,1,1.86,0h0a1.82,1.82,0,0,0,.92.25,1.84,1.84,0,0,0,1.6-.92l.37-.64A1.85,1.85,0,0,0,33.05,37a1.85,1.85,0,0,1-.92-1.6v-3.7a1.86,1.86,0,0,1,.92-1.61h0a1.85,1.85,0,0,0,.68-2.53l-.37-.63a1.83,1.83,0,0,0-2.52-.68h0a1.85,1.85,0,0,1-1.86,0l-3.2-1.85a1.84,1.84,0,0,1-.93-1.6v-.17A1.85,1.85,0,0,0,23,20.79Z" style="fill:#fff"/><path d="M74.17,17.75a7.28,7.28,0,0,0,1.3,1L79.35,21a7.31,7.31,0,0,0,1.49.65,7.16,7.16,0,0,0-.18,1.61v4.48a7.22,7.22,0,0,0,.18,1.61,6.8,6.8,0,0,0-1.49.65l-3.88,2.24a6.83,6.83,0,0,0-1.3,1,6.83,6.83,0,0,0-1.3-1L69,30a6.8,6.8,0,0,0-1.49-.65,7.22,7.22,0,0,0,.18-1.61V23.21a7.16,7.16,0,0,0-.18-1.61A7.31,7.31,0,0,0,69,21l3.88-2.24a7.28,7.28,0,0,0,1.3-1M74.61,10h-.88a2.24,2.24,0,0,0-2.24,2.24v.2a2.25,2.25,0,0,1-1.12,1.94l-3.88,2.24a2.27,2.27,0,0,1-1.12.3,2.21,2.21,0,0,1-1.12-.3l-.35-.2a2.27,2.27,0,0,0-1.12-.3,2.23,2.23,0,0,0-1.94,1.12L60.4,18a2.24,2.24,0,0,0,.81,3.06l.35.2a2.23,2.23,0,0,1,1.12,1.94v4.48a2.23,2.23,0,0,1-1.12,1.94l-.34.2a2.23,2.23,0,0,0-.82,3.06l.44.77a2.23,2.23,0,0,0,1.94,1.12,2.27,2.27,0,0,0,1.12-.3l.35-.2a2.21,2.21,0,0,1,1.12-.3,2.27,2.27,0,0,1,1.12.3l3.88,2.24a2.23,2.23,0,0,1,1.12,1.93v.21a2.24,2.24,0,0,0,2.24,2.24h.88a2.24,2.24,0,0,0,2.24-2.24v-.21A2.23,2.23,0,0,1,78,36.52l3.88-2.24A2.27,2.27,0,0,1,83,34a2.21,2.21,0,0,1,1.12.3h0a2.24,2.24,0,0,0,3.06-.82l.45-.77a2.25,2.25,0,0,0-.82-3.06,2.23,2.23,0,0,1-1.12-1.94V23.21a2.23,2.23,0,0,1,1.12-1.94h0a2.25,2.25,0,0,0,.82-3.06l-.45-.77a2.23,2.23,0,0,0-1.94-1.12,2.27,2.27,0,0,0-1.12.3h0a2.21,2.21,0,0,1-1.12.3,2.27,2.27,0,0,1-1.12-.3L78,14.38a2.25,2.25,0,0,1-1.12-1.94v-.2A2.24,2.24,0,0,0,74.61,10Z" style="fill:#fff"/></g></svg>