<svg xmlns="http://www.w3.org/2000/svg" viewBox="0 0 100 100"><g id="Layer_4" data-name="Layer 4"><path d="M76.28,55V45a5,5,0,0,1,2.51-4.35h0a5,5,0,0,0,1.84-6.86l-1-1.73a5,5,0,0,0-6.86-1.84h0a5,5,0,0,1-5,0l-8.7-5a5,5,0,0,1-2.51-4.35v-.45a5,5,0,0,0-5-5h-2a5,5,0,0,0-5,5v.45A5,5,0,0,1,42,25.18l-8.7,5a5,5,0,0,1-5,0l-.78-.45a5,5,0,0,0-6.86,1.84l-1,1.73a5,5,0,0,0,1.84,6.86l.78.45A5,5,0,0,1,24.76,45V55a5,5,0,0,1-2.51,4.35l-.78.45a5,5,0,0,0-1.84,6.86l1,1.73a5,5,0,0,0,6.86,1.84l.78-.45a5,5,0,0,1,5,0l8.7,5a5,5,0,0,1,2.51,4.35v.45a5,5,0,0,0,5,5h2a5,5,0,0,0,5-5v-.45a5,5,0,0,1,2.51-4.35l8.7-5a5,5,0,0,1,5,0h0A5,5,0,0,0,79.63,68l1-1.73a5,5,0,0,0-1.84-6.86h0A5,5,0,0,1,76.28,55Z" style="fill:none;stroke:#fff;stroke-miterlimit:10;stroke-width:5px"/></g><g id="main"><circle cx="50.13" cy="50" r="12.1" style="fill:none;stroke:#fff;stroke-miterlimit:10;stroke-width:10px;opacity:0.5"/></g></svg>