<svg xmlns="http://www.w3.org/2000/svg" width="100" height="100" viewBox="0 0 100 100">
  <g id="main">
    <g>
      <path d="M31.14,37.58v-8.8a18.86,18.86,0,0,1,37.72,0v8.8" fill="none" stroke="#fff" stroke-linecap="round" stroke-linejoin="round" stroke-width="5"/>
      <path d="M68.86,37.58H31.14A12.49,12.49,0,0,0,18.65,50.07V77.58A12.49,12.49,0,0,0,31.14,90.07H68.86A12.49,12.49,0,0,0,81.35,77.58V50.07A12.49,12.49,0,0,0,68.86,37.58ZM64,70.75a5,5,0,1,1-7.07,7.07L50,70.89l-6.93,6.93A5,5,0,1,1,36,70.75l6.93-6.93L36,56.89a5,5,0,0,1,7.07-7.07L50,56.75l6.93-6.93A5,5,0,0,1,64,56.89l-6.93,6.93Z" fill="#fff"/>
    </g>
  </g>
</svg>
