<svg id="icons" xmlns="http://www.w3.org/2000/svg" viewBox="0 0 100 100"><path d="M39.74,37.27c0,7.51-13.61,26.47-13.61,26.47s-13.6-19-13.6-26.47a13.61,13.61,0,0,1,27.21,0Z" style="fill:#fff"/><path d="M64.77,70.83c0,4.12-7.46,14.51-7.46,14.51S49.86,75,49.86,70.83a7.46,7.46,0,0,1,14.91,0Z" style="fill:#fff"/><path d="M83.59,21.85c0,4.12-7.46,14.51-7.46,14.51S68.68,26,68.68,21.85a7.46,7.46,0,1,1,14.91,0Z" style="fill:#fff"/><g style="opacity:0.5"><line x1="26.13" y1="63.74" x2="27.45" y2="63.02" style="fill:none;stroke:#fff;stroke-linecap:round;stroke-linejoin:round;stroke-width:5px"/><line x1="37.12" y1="57.73" x2="69.98" y2="39.73" style="fill:none;stroke:#fff;stroke-linecap:round;stroke-linejoin:round;stroke-width:5px;stroke-dasharray:3.3064029216766357,11.021342277526855"/><line x1="74.82" y1="37.08" x2="76.13" y2="36.36" style="fill:none;stroke:#fff;stroke-linecap:round;stroke-linejoin:round;stroke-width:5px"/><line x1="57.31" y1="84.32" x2="57.86" y2="82.93" style="fill:none;stroke:#fff;stroke-linecap:round;stroke-linejoin:round;stroke-width:5px"/><line x1="61.48" y1="73.71" x2="73.78" y2="42.37" style="fill:none;stroke:#fff;stroke-linecap:round;stroke-linejoin:round;stroke-width:5px;stroke-dasharray:2.97074556350708,9.902484893798828"/><line x1="75.58" y1="37.76" x2="76.13" y2="36.36" style="fill:none;stroke:#fff;stroke-linecap:round;stroke-linejoin:round;stroke-width:5px"/></g></svg>