<svg id="icons" xmlns="http://www.w3.org/2000/svg" viewBox="0 0 100 100"><circle cx="66.76" cy="65.18" r="6.6" style="fill:#fff"/><circle cx="25.73" cy="41.31" r="6.6" style="fill:#fff"/><circle cx="75.76" cy="41.31" r="6.6" style="fill:#fff"/><circle cx="49.24" cy="49.94" r="6.6" style="fill:#fff"/><circle cx="36.03" cy="76.48" r="6.6" style="fill:#fff"/><circle cx="50.1" cy="23.18" r="6.6" style="fill:#fff"/><path d="M45.09,11.6l-29,21.59A8.11,8.11,0,0,0,13.13,42L25.27,83.45a8.13,8.13,0,0,0,10.6,5.34L72.49,75.32a8.13,8.13,0,0,0,4.79-4.76L87.89,42.43A8.12,8.12,0,0,0,85,32.94L54.62,11.49A8.12,8.12,0,0,0,45.09,11.6Z" style="fill:none;stroke:#fff;stroke-linecap:round;stroke-linejoin:round;stroke-width:5px"/></svg>