<svg id="icons" xmlns="http://www.w3.org/2000/svg" viewBox="0 0 100 100"><circle cx="69.97" cy="68.27" r="7.92" style="fill:#fff;opacity:0.5"/><circle cx="20.78" cy="39.66" r="7.92" style="fill:#fff;opacity:0.5"/><circle cx="80.76" cy="39.66" r="7.92" style="fill:#fff;opacity:0.5"/><circle cx="48.96" cy="50" r="7.92" style="fill:#fff;opacity:0.5"/><circle cx="33.13" cy="81.82" r="7.92" style="fill:#fff;opacity:0.5"/><circle cx="50" cy="17.92" r="7.92" style="fill:#fff;opacity:0.5"/><line x1="38.79" y1="33.96" x2="30.87" y2="57.92" style="fill:none;stroke:#fff;stroke-linecap:round;stroke-linejoin:round;stroke-width:5px"/><line x1="60.95" y1="35.44" x2="38.79" y2="33.96" style="fill:none;stroke:#fff;stroke-linecap:round;stroke-linejoin:round;stroke-width:5px"/><line x1="49.87" y1="68.27" x2="65.78" y2="51.86" style="fill:none;stroke:#fff;stroke-linecap:round;stroke-linejoin:round;stroke-width:5px"/><line x1="65.78" y1="51.86" x2="60.95" y2="35.44" style="fill:none;stroke:#fff;stroke-linecap:round;stroke-linejoin:round;stroke-width:5px"/><line x1="49.87" y1="68.27" x2="30.87" y2="57.92" style="fill:none;stroke:#fff;stroke-linecap:round;stroke-linejoin:round;stroke-width:5px"/><circle cx="38.79" cy="33.96" r="6.33" style="fill:#fff"/><circle cx="60.25" cy="35.44" r="6.33" style="fill:#fff"/><circle cx="65.78" cy="51.86" r="6.33" style="fill:#fff"/><circle cx="50" cy="68.27" r="6.33" style="fill:#fff"/><circle cx="30.87" cy="57.92" r="6.33" style="fill:#fff"/><line x1="77.89" y1="14.01" x2="60.95" y2="35.44" style="fill:none;stroke:#fff;stroke-linecap:round;stroke-linejoin:round;stroke-width:5px"/><line x1="38.79" y1="33.96" x2="24.53" y2="13.51" style="fill:none;stroke:#fff;stroke-linecap:round;stroke-linejoin:round;stroke-width:5px"/><line x1="65.78" y1="51.86" x2="87.87" y2="57.92" style="fill:none;stroke:#fff;stroke-linecap:round;stroke-linejoin:round;stroke-width:5px"/><line x1="49.87" y1="68.27" x2="56.88" y2="91.89" style="fill:none;stroke:#fff;stroke-linecap:round;stroke-linejoin:round;stroke-width:5px"/><line x1="11.08" y1="65.69" x2="30.87" y2="57.92" style="fill:none;stroke:#fff;stroke-linecap:round;stroke-linejoin:round;stroke-width:5px"/></svg>