<svg xmlns="http://www.w3.org/2000/svg" viewBox="0 0 100 100"><g id="illustrations"><path d="M47.92,6.86h0A15.81,15.81,0,0,0,32.1,22.67V76.35A15.82,15.82,0,0,0,47.92,92.17h0A15.82,15.82,0,0,0,63.74,76.35V22.67A15.81,15.81,0,0,0,47.92,6.86Z" style="fill:#3fe1ea"/><path d="M61.7,23.8h0A12.84,12.84,0,0,0,48.86,36.64V80.22A12.84,12.84,0,0,0,61.7,93.06h0A12.84,12.84,0,0,0,74.54,80.22V36.64A12.84,12.84,0,0,0,61.7,23.8Z" style="fill:#3fe1ea"/><path d="M72.15,36.94c-.21,0-.41,0-.61,0V80.22A12.82,12.82,0,0,1,65.82,90.9a10.39,10.39,0,0,0,16.73-8.25V47.34A10.4,10.4,0,0,0,72.15,36.94Z" style="fill:#3fe1ea"/><circle cx="41.27" cy="69.97" r="15.77" style="fill:#030d20"/><path d="M41.27,88.12A18.15,18.15,0,1,1,59.42,70,18.17,18.17,0,0,1,41.27,88.12Zm0-31.53A13.38,13.38,0,1,0,54.65,70,13.39,13.39,0,0,0,41.27,56.59Z" style="fill:#3fe1ea"/><circle cx="41.27" cy="49.47" r="15.77" style="fill:#030d20"/><path d="M41.27,67.63A18.16,18.16,0,1,1,59.42,49.47,18.18,18.18,0,0,1,41.27,67.63Zm0-31.54A13.38,13.38,0,1,0,54.65,49.47,13.4,13.4,0,0,0,41.27,36.09Z" style="fill:#3fe1ea"/><circle cx="41.27" cy="30.03" r="15.77" style="fill:#030d20"/><path d="M41.27,48.18A18.15,18.15,0,1,1,59.42,30,18.17,18.17,0,0,1,41.27,48.18Zm0-31.53A13.38,13.38,0,1,0,54.65,30,13.39,13.39,0,0,0,41.27,16.65Z" style="fill:#3fe1ea"/></g></svg>