<svg xmlns="http://www.w3.org/2000/svg" viewBox="0 0 100 100"><g id="illustrations"><circle cx="50" cy="72.19" r="17.52" style="fill:#030d20"/><path d="M50,92.36A20.17,20.17,0,1,1,70.17,72.19,20.2,20.2,0,0,1,50,92.36Zm0-35A14.87,14.87,0,1,0,64.87,72.19,14.89,14.89,0,0,0,50,57.32Z" style="fill:#4d8dfc"/><circle cx="50" cy="49.42" r="17.52" style="fill:#030d20"/><path d="M50,69.58A20.17,20.17,0,1,1,70.17,49.42,20.19,20.19,0,0,1,50,69.58Zm0-35A14.87,14.87,0,1,0,64.87,49.42,14.89,14.89,0,0,0,50,34.55Z" style="fill:#4d8dfc"/><circle cx="50" cy="27.81" r="17.52" style="fill:#030d20"/><path d="M50,48A20.17,20.17,0,1,1,70.17,27.81,20.2,20.2,0,0,1,50,48Zm0-35A14.87,14.87,0,1,0,64.87,27.81,14.89,14.89,0,0,0,50,12.94Z" style="fill:#4d8dfc"/></g></svg>