<svg id="Layer_1" data-name="Layer 1" xmlns="http://www.w3.org/2000/svg" viewBox="0 0 100 100"><circle cx="17.92" cy="50" r="7.92" style="fill:#fff;opacity:0.5"/><circle cx="82.08" cy="50" r="7.92" style="fill:#fff;opacity:0.5"/><g style="opacity:0.5"><path d="M74.17,81.87a10.22,10.22,0,0,1-2.09.21H57.92" style="fill:none;stroke:#fff;stroke-linecap:round;stroke-linejoin:round;stroke-width:5px"/><path d="M82.08,57.92V72.08a10.29,10.29,0,0,1-.21,2.09" style="fill:none;stroke:#fff;stroke-linecap:round;stroke-linejoin:round;stroke-width:5px"/><path d="M81.87,25.83a10.29,10.29,0,0,1,.21,2.09V42.08" style="fill:none;stroke:#fff;stroke-linecap:round;stroke-linejoin:round;stroke-width:5px"/><path d="M57.92,17.92H72.08a10.29,10.29,0,0,1,2.09.21" style="fill:none;stroke:#fff;stroke-linecap:round;stroke-linejoin:round;stroke-width:5px"/><path d="M25.73,18.15a10.57,10.57,0,0,1,2.19-.23H42.08" style="fill:none;stroke:#fff;stroke-linecap:round;stroke-linejoin:round;stroke-width:5px"/><path d="M17.92,42.08V27.92a10.22,10.22,0,0,1,.21-2.09" style="fill:none;stroke:#fff;stroke-linecap:round;stroke-linejoin:round;stroke-width:5px"/><path d="M18.13,74.17a10.22,10.22,0,0,1-.21-2.09V57.92" style="fill:none;stroke:#fff;stroke-linecap:round;stroke-linejoin:round;stroke-width:5px"/><path d="M42.08,82.08H27.92a10.29,10.29,0,0,1-2.09-.21" style="fill:none;stroke:#fff;stroke-linecap:round;stroke-linejoin:round;stroke-width:5px"/></g><path d="M87.88,44.44c-7-7.21-21.36-19.35-37.88-19.35S19.17,37.23,12.12,44.44a7.44,7.44,0,0,0,0,10.41C19.17,62.06,33.48,74.2,50,74.2S80.83,62.06,87.88,54.85A7.44,7.44,0,0,0,87.88,44.44ZM50,66.44A16.8,16.8,0,1,1,66.8,49.65,16.8,16.8,0,0,1,50,66.44Z" style="fill:#fff"/></svg>