<svg xmlns="http://www.w3.org/2000/svg" width="100" height="100" viewBox="0 0 100 100">
  <g id="main">
    <path d="M50,89.87A39.94,39.94,0,1,0,10.07,49.93,39.93,39.93,0,0,0,50,89.87ZM45.62,31a4.38,4.38,0,0,1,8.76,0V55.2a4.38,4.38,0,1,1-8.76,0ZM46.91,65.7a4.32,4.32,0,0,1,.66-.54,3.68,3.68,0,0,1,.76-.4,3.8,3.8,0,0,1,.81-.25,4.19,4.19,0,0,1,.86-.09,4.38,4.38,0,0,1,3.1,7.48,4.86,4.86,0,0,1-.66.54,3.75,3.75,0,0,1-.77.4,3.83,3.83,0,0,1-.81.26,4.52,4.52,0,0,1-1.72,0,3.83,3.83,0,0,1-.81-.26,3.68,3.68,0,0,1-.76-.4,4.38,4.38,0,0,1-2-3.64A4.38,4.38,0,0,1,46.91,65.7Z" fill="#3ec188"/>
  </g>
</svg>
