<svg xmlns="http://www.w3.org/2000/svg" width="100" height="100" viewBox="0 0 100 100">
  <g id="main">
    <path d="M50,10A39.94,39.94,0,1,0,89.93,49.93,39.93,39.93,0,0,0,50,10Zm4.38,58.92a4.38,4.38,0,0,1-8.76,0V44.67a4.38,4.38,0,0,1,8.76,0ZM53.09,34.17a4.32,4.32,0,0,1-.66.54,3.68,3.68,0,0,1-.76.4,3.8,3.8,0,0,1-.81.25,4.19,4.19,0,0,1-.86.09A4.38,4.38,0,0,1,46.9,28a4.86,4.86,0,0,1,.66-.54,3.75,3.75,0,0,1,.77-.4,3.83,3.83,0,0,1,.81-.26,4.52,4.52,0,0,1,1.72,0,3.83,3.83,0,0,1,.81.26,3.68,3.68,0,0,1,.76.4,4.38,4.38,0,0,1,2,3.64A4.38,4.38,0,0,1,53.09,34.17Z" fill="#66afcc"/>
  </g>
</svg>
